<svg width="1284" height="494" viewBox="0 0 1284 494" fill="none" xmlns="http://www.w3.org/2000/svg">
<g clip-path="url(#clip0_659_17161)">
<path d="M1090.67 267C1087.25 263.607 1083.19 260.931 1078.73 259.131C1074.26 257.331 1069.48 256.443 1064.67 256.52C1053.45 256.52 1044.24 259.804 1037.04 266.37C1029.84 272.724 1024.97 281.724 1022.44 293.37H1103.73C1102.44 282.53 1098.08 273.74 1090.67 267Z" fill="#505050"/>
<path d="M819.52 374.45V209.29L315.52 158.07C321.793 159.966 327.065 164.261 330.188 170.022C333.312 175.784 334.035 182.545 332.201 188.837C330.367 195.129 326.124 200.442 320.393 203.622C314.663 206.802 307.909 207.592 301.6 205.82L360.66 226.23C364.05 223.64 368.47 222.33 373.93 222.33C380.923 222.33 386.11 224.446 389.49 228.68C391.752 231.277 393.32 234.404 394.05 237.77L404.57 241.41C409.103 236.99 414.172 233.157 419.66 230C428.766 224.92 439.46 222.38 451.74 222.38C458.944 222.336 466.113 223.392 473 225.51C479.948 227.393 486.362 230.872 491.73 235.67C497.45 240.336 501.896 246.67 505.07 254.67C507.89 261.203 509.53 268.913 509.99 277.8L821.53 385.5C820.128 381.988 819.445 378.23 819.52 374.45Z" fill="#505050"/>
<path d="M1234 277.53C1232.88 278.768 1231.87 280.107 1231 281.53C1226.33 289.357 1224 302.587 1224 321.22V375.22C1224 382.2 1222.2 387.81 1218.6 392.05C1215.21 396.283 1209.29 398.4 1200.82 398.4C1192.35 398.4 1186.32 396.283 1182.72 392.05C1179.33 387.81 1177.63 382.2 1177.63 375.22V245.68C1177.63 245.6 1177.63 245.54 1177.63 245.46C1171.19 243.76 1164.63 242.602 1158 242L1115.35 239.15C1118.92 241.623 1122.25 244.432 1125.29 247.54C1132.48 254.419 1138.1 262.76 1141.79 272C1145.59 280.828 1147.53 290.34 1147.51 299.95C1147.51 307.783 1146.03 313.077 1143.06 315.83C1140.31 318.583 1135.02 319.957 1127.18 319.95H1022.4C1022.4 332.443 1026.21 342.607 1033.83 350.44C1041.45 358.273 1051.93 362.19 1065.26 362.19C1074.15 362.19 1081.03 361.027 1085.9 358.7C1091.4 355.861 1096.53 352.34 1101.15 348.22C1103.75 345.689 1106.63 343.452 1109.72 341.55C1112.54 340.001 1115.72 339.234 1118.93 339.33C1121.43 339.28 1123.91 339.763 1126.21 340.747C1128.51 341.732 1130.57 343.195 1132.26 345.04C1136.07 348.853 1137.97 352.983 1137.98 357.43C1137.96 364.026 1135.46 370.374 1130.98 375.21C1125.75 380.698 1119.49 385.114 1112.57 388.21C1104.95 391.658 1096.96 394.214 1088.75 395.83C1081.02 397.466 1073.15 398.317 1065.25 398.37C1049.8 398.37 1036.36 396.037 1024.93 391.37C1013.49 386.497 1004.16 380.04 996.929 372C989.856 364.174 984.456 354.986 981.059 345C977.673 335.085 975.954 324.677 975.969 314.2C975.969 286.867 983.802 265.06 999.469 248.78C1007.16 240.653 1016.56 234.346 1027 230.32L865.879 214V289.34L917.329 232.18C922.829 226.253 928.756 223.287 935.109 223.28C940.609 223.28 945.582 225.4 950.029 229.64C954.696 233.64 957.029 238.507 957.029 244.24C957.029 247.84 956.499 250.593 955.439 252.5C954.131 254.812 952.531 256.946 950.679 258.85L950.039 259.48L915.749 295.37L963.999 360.16C965.392 362.093 966.465 364.237 967.179 366.51C968.313 369.221 968.855 372.143 968.769 375.08C968.783 381.007 966.508 386.71 962.419 391C960.443 393.147 958.035 394.851 955.353 396.001C952.671 397.151 949.777 397.719 946.859 397.67C941.779 397.67 937.546 396.61 934.159 394.49C930.835 392.649 928.002 390.035 925.899 386.87L882.079 324.95L865.879 339.24V374.49C865.879 381.903 863.762 387.62 859.529 391.64C857.483 393.67 855.01 395.218 852.289 396.17L1049.75 464.4C1054 466.477 1058.37 468.31 1062.83 469.89L1064.52 470.59V470.48C1076.98 474.67 1135.52 493.18 1149.35 493.18C1165.67 493.192 1181.83 489.989 1196.91 483.754C1211.99 477.519 1225.69 468.375 1237.23 456.843C1248.78 445.312 1257.94 431.619 1264.19 416.546C1270.44 401.474 1273.66 385.317 1273.67 369C1273.67 333.76 1258.25 301 1234 277.53Z" fill="#505050"/>
<path d="M825.559 391.6C829.793 395.6 835.506 397.6 842.699 397.6C845.958 397.653 849.202 397.146 852.289 396.1L821.529 385.5C822.462 387.777 823.831 389.849 825.559 391.6Z" fill="#356549"/>
<path d="M865.881 183.92C865.881 176.507 863.764 170.79 859.531 166.77C855.531 162.77 849.921 160.77 842.701 160.77C835.481 160.77 829.767 162.77 825.561 166.77C821.561 170.77 819.561 176.487 819.561 183.92V209.29L865.881 214V183.92Z" fill="#356549"/>
<path d="M865.88 374.45V339.2L882.08 324.91L925.9 386.83C928.003 389.995 930.836 392.609 934.16 394.45C937.54 396.57 941.774 397.63 946.86 397.63C949.775 397.684 952.668 397.122 955.35 395.979C958.031 394.837 960.441 393.14 962.42 391C966.5 386.719 968.774 381.033 968.77 375.12C968.856 372.183 968.314 369.261 967.18 366.55C966.467 364.277 965.393 362.133 964 360.2L915.74 295.42L950 259.49L950.64 258.86C952.493 256.956 954.092 254.822 955.4 252.51C956.467 250.596 957 247.843 957 244.25C957 238.543 954.667 233.676 950 229.65C945.56 225.41 940.587 223.29 935.08 223.29C928.734 223.29 922.807 226.256 917.3 232.19L865.85 289.35V214L819.49 209.28V374.45C819.413 378.23 820.093 381.987 821.49 385.5L852.25 396.13C854.971 395.178 857.445 393.63 859.49 391.6C863.757 387.573 865.887 381.856 865.88 374.45Z" fill="#6FE593"/>
<path d="M1276.7 230.44C1272.03 226.2 1266 224.08 1258.6 224.08C1248.22 224.08 1239.96 227.786 1233.83 235.2C1227.9 242.606 1223.35 252.026 1220.18 263.46H1219.54V245.68C1219.54 238.9 1217.54 233.606 1213.54 229.8C1209.73 225.986 1204.76 224.08 1198.61 224.08C1192.97 223.891 1187.49 225.949 1183.37 229.8C1179.6 233.566 1177.7 238.786 1177.66 245.46C1198.88 251.142 1218.28 262.186 1234 277.53C1238.7 272.39 1244.99 269.816 1252.88 269.81H1261.14C1267.7 269.81 1273.1 268.01 1277.33 264.41C1281.78 260.596 1284.01 254.67 1284 246.63C1284.08 243.556 1283.46 240.505 1282.2 237.703C1280.93 234.9 1279.05 232.418 1276.7 230.44Z" fill="#356549"/>
<path d="M1177.62 245.68V375.24C1177.62 382.22 1179.32 387.83 1182.71 392.07C1186.3 396.303 1192.33 398.42 1200.81 398.42C1209.29 398.42 1215.22 396.303 1218.59 392.07C1222.19 387.83 1223.99 382.22 1223.99 375.24V321.24C1223.99 302.613 1226.32 289.383 1230.99 281.55C1231.86 280.127 1232.87 278.788 1233.99 277.55C1218.26 262.201 1198.85 251.157 1177.62 245.48C1177.63 245.54 1177.62 245.6 1177.62 245.68Z" fill="#6FE593"/>
<path d="M1115.34 239.19C1110.14 235.6 1104.52 232.662 1098.6 230.44C1088.23 226.2 1076.59 224.08 1063.68 224.08C1050.02 224.08 1037.81 226.183 1027.06 230.39L1110.61 238.88L1115.34 239.19Z" fill="#356549"/>
<path d="M976 314.27C975.985 324.747 977.705 335.155 981.09 345.07C984.487 355.057 989.887 364.244 996.96 372.07C1004.16 380.123 1013.49 386.58 1024.96 391.44C1036.39 396.107 1049.83 398.44 1065.28 398.44C1073.18 398.387 1081.05 397.536 1088.78 395.9C1096.99 394.285 1104.98 391.728 1112.6 388.28C1119.52 385.184 1125.78 380.768 1131.01 375.28C1135.5 370.444 1138 364.096 1138.01 357.5C1138.01 353.047 1136.1 348.917 1132.29 345.11C1130.6 343.266 1128.54 341.802 1126.24 340.818C1123.94 339.833 1121.46 339.35 1118.96 339.4C1115.75 339.304 1112.57 340.071 1109.75 341.62C1106.66 343.523 1103.78 345.759 1101.18 348.29C1096.56 352.41 1091.43 355.931 1085.93 358.77C1081.06 361.09 1074.18 362.253 1065.29 362.26C1051.96 362.26 1041.48 358.343 1033.86 350.51C1026.24 342.677 1022.42 332.507 1022.4 320H1127.18C1135.02 320 1140.31 318.627 1143.06 315.88C1146.02 313.12 1147.5 307.827 1147.51 300C1147.53 290.39 1145.59 280.878 1141.79 272.05C1138.1 262.813 1132.47 254.475 1125.28 247.6C1122.24 244.492 1118.91 241.683 1115.34 239.21L1110.61 238.9L1027.06 230.41C1016.62 234.436 1007.22 240.743 999.53 248.87C983.843 265.157 976 286.957 976 314.27ZM1037 266.27C1044.2 259.71 1053.41 256.427 1064.63 256.42C1069.44 256.343 1074.22 257.231 1078.69 259.031C1083.16 260.831 1087.22 263.507 1090.63 266.9C1098.04 273.68 1102.37 282.467 1103.63 293.26H1022.4C1024.94 281.653 1029.81 272.673 1037 266.32V266.27Z" fill="#6FE593"/>
<path d="M308.36 221.41C299.886 221.41 293.853 223.527 290.26 227.76C286.873 231.987 285.18 237.597 285.18 244.59V372.59C285.18 379.583 286.873 385.193 290.26 389.42C293.86 393.653 299.893 395.77 308.36 395.77C316.826 395.77 322.753 393.653 326.14 389.42C329.74 385.193 331.54 379.583 331.54 372.59V244.59C331.54 237.597 329.74 231.987 326.14 227.76C322.76 223.52 316.833 221.404 308.36 221.41Z" fill="#356549"/>
<path d="M308.31 157C302.299 156.998 296.491 159.173 291.96 163.122C287.429 167.072 284.482 172.529 283.663 178.484C282.845 184.438 284.211 190.488 287.508 195.514C290.806 200.539 295.812 204.2 301.6 205.82L299.6 205.15L299.77 204.39C295.151 202.676 291.175 199.578 288.385 195.518C285.594 191.458 284.126 186.636 284.18 181.71C284.112 178.526 284.699 175.362 285.903 172.414C287.107 169.466 288.903 166.796 291.18 164.57C293.409 162.294 296.08 160.498 299.03 159.294C301.98 158.09 305.145 157.503 308.33 157.57C309 157.57 309.66 157.57 310.33 157.66V157.54L315.5 158.06C313.168 157.358 310.745 157.001 308.31 157Z" fill="white"/>
<path d="M315.54 158.07L310.37 157.55V157.67C316.111 157.993 321.523 160.454 325.54 164.57C327.815 166.797 329.61 169.467 330.814 172.415C332.018 175.363 332.605 178.526 332.54 181.71C332.605 184.895 332.018 188.06 330.814 191.009C329.61 193.958 327.815 196.63 325.54 198.86C323.311 201.136 320.639 202.932 317.69 204.136C314.74 205.34 311.575 205.926 308.39 205.86C305.48 205.875 302.589 205.381 299.85 204.4L299.68 205.16L301.68 205.83C307.968 207.522 314.668 206.68 320.342 203.486C326.016 200.291 330.211 194.999 332.026 188.745C333.841 182.492 333.131 175.776 330.048 170.04C326.966 164.305 321.756 160.007 315.54 158.07Z" fill="white"/>
<path d="M308.36 157.58C305.175 157.513 302.01 158.1 299.06 159.304C296.111 160.508 293.439 162.303 291.21 164.58C288.933 166.806 287.137 169.476 285.933 172.424C284.729 175.372 284.143 178.536 284.21 181.72C284.156 186.646 285.625 191.468 288.415 195.528C291.206 199.587 295.182 202.686 299.8 204.4L310.34 157.67C309.69 157.62 309 157.58 308.36 157.58Z" fill="white"/>
<path d="M325.51 164.57C321.494 160.454 316.082 157.993 310.34 157.67L299.82 204.39C302.56 205.371 305.45 205.865 308.36 205.85C311.545 205.916 314.711 205.33 317.66 204.126C320.61 202.922 323.281 201.126 325.51 198.85C327.786 196.62 329.581 193.949 330.785 190.999C331.988 188.05 332.576 184.885 332.51 181.7C332.575 178.518 331.987 175.357 330.783 172.411C329.579 169.464 327.785 166.796 325.51 164.57Z" fill="white"/>
<path d="M238.72 159.16C231.52 159.16 225.804 161.16 221.57 165.16C217.57 169.16 215.57 174.877 215.57 182.31V372.87C215.57 380.283 217.57 386 221.57 390.02C225.81 394.02 231.527 396.02 238.72 396.02C245.914 396.02 251.524 394.02 255.55 390.02C259.777 386.02 261.894 380.303 261.9 372.87V182.34C261.9 174.933 259.784 169.217 255.55 165.19C251.53 161.17 245.92 159.16 238.72 159.16Z" fill="#356549"/>
<path d="M151.15 274.7V274.06C161.523 269.833 169.46 263.586 174.96 255.32C180.441 247.159 183.321 237.53 183.22 227.7C183.22 215.626 180.787 205.676 175.92 197.85C171.219 190.176 164.525 183.921 156.55 179.75C148.3 175.448 139.392 172.549 130.19 171.17C120.124 169.433 109.925 168.583 99.71 168.63H30.48C20.5333 168.63 12.9133 170.963 7.62 175.63C2.54 180.283 0 188.113 0 199.12V366.78C0 377.786 2.54 385.62 7.62 390.28C12.9133 394.946 20.5333 397.28 30.48 397.28H107C117.913 397.367 128.795 396.087 139.39 393.47C149.047 390.955 158.186 386.761 166.39 381.08C174.09 375.731 180.316 368.525 184.49 360.13C188.93 351.463 191.153 341.3 191.16 329.64C191.16 314.4 187.667 302.333 180.68 293.44C173.693 284.333 163.85 278.086 151.15 274.7ZM52.08 206.7H93.36C104.58 206.7 113.68 208.816 120.66 213.05C127.64 217.283 131.133 224.48 131.14 234.64C131.14 253.266 119.073 262.583 94.94 262.59H52.08V206.7ZM135.27 342.29C132.983 346.273 129.556 349.481 125.43 351.5C121.147 353.722 116.535 355.242 111.77 356C106.526 356.874 101.217 357.299 95.9 357.27H52.08V295.65H89.55C96.0289 295.605 102.502 296.029 108.92 296.92C114.195 297.437 119.346 298.833 124.16 301.05C128.678 303.019 132.468 306.351 135 310.58C137.76 314.806 139.137 320.203 139.13 326.77C139.097 333.123 137.81 338.31 135.27 342.33V342.29Z" fill="#356549"/>
<path d="M395.531 251.55H394.891V245.55C394.91 242.946 394.628 240.349 394.051 237.81L360.661 226.23C359.704 226.949 358.828 227.77 358.051 228.68C354.664 232.68 352.971 238.29 352.971 245.51V373.51C352.971 380.497 354.664 386.107 358.051 390.34C361.651 394.573 367.684 396.69 376.151 396.69C384.617 396.69 390.547 394.573 393.941 390.34C397.541 386.113 399.341 380.503 399.341 373.51V297C399.341 285.987 402.937 277.2 410.131 270.64C417.544 263.86 425.697 260.473 434.591 260.48C444.331 260.48 451.634 263.443 456.501 269.37C461.374 275.09 463.811 282.817 463.811 292.55V373.55C463.811 380.537 465.504 386.147 468.891 390.38C472.491 394.613 478.524 396.73 486.991 396.73C495.457 396.73 501.384 394.613 504.771 390.38C508.371 386.153 510.171 380.543 510.171 373.55V283.3C510.171 281.43 510.111 279.62 510.011 277.85L404.571 241.41C401.312 244.563 398.29 247.952 395.531 251.55Z" fill="#356549"/>
<path d="M491.751 235.67C486.377 230.869 479.957 227.39 473.001 225.51C466.111 223.373 458.935 222.301 451.721 222.33C439.441 222.33 428.747 224.87 419.641 229.95C414.151 233.123 409.081 236.973 404.551 241.41L510.001 277.85C509.534 268.97 507.894 261.26 505.081 254.72C501.921 246.68 497.477 240.33 491.751 235.67Z" fill="#6FE593"/>
<path d="M389.49 228.68C386.103 224.453 380.917 222.337 373.93 222.33C368.47 222.33 364.05 223.64 360.66 226.23L394.05 237.77C393.321 234.404 391.752 231.277 389.49 228.68Z" fill="#6FE593"/>
</g>
<g filter="url(#filter0_dd_659_17161)">
<g clip-path="url(#clip1_659_17161)">
<g clip-path="url(#clip2_659_17161)">
<path d="M662.124 59.327C663.179 56.2692 667.504 56.2692 668.56 59.327L692.133 127.594C692.896 129.806 691.254 132.111 688.915 132.111H641.769C639.429 132.111 637.787 129.806 638.551 127.594L662.124 59.327Z" fill="#0485A2"/>
<path fill-rule="evenodd" clip-rule="evenodd" d="M662.176 106.886C641.098 106.886 597.369 116.263 575.242 191.426C557.756 250.828 555.38 314.871 553.772 358.218C553.332 370.077 552.949 380.387 552.331 388.63L550.891 550.217C550.977 569.379 556.259 607.702 576.683 607.702C579.912 607.833 586.555 608.147 587.287 608.357C587.834 608.513 587.784 608.727 587.723 608.989C587.703 609.078 587.681 609.173 587.681 609.273L587.549 611.369C587.549 611.831 587.538 612.317 587.525 612.859C587.495 614.157 587.457 615.776 587.549 618.178C587.706 622.253 587.812 624.857 597.238 624.857H653.798C657.376 624.901 661.662 620.798 661.662 617.394C661.662 615.557 661.621 613.949 661.583 612.467C661.552 611.201 661.522 610.027 661.522 608.882C661.522 608.816 661.519 608.748 661.516 608.682C661.493 608.218 661.47 607.781 662.57 607.964C663.826 608.174 670.686 608.051 673.959 607.964H693.467C694.166 607.921 695.484 608.148 695.17 609.406V617.394C695.17 619.925 696.845 624.962 703.549 624.857C710.252 624.752 734.884 624.814 746.361 624.857C749.242 624.77 755.028 622.657 755.133 614.905V607.834C755.177 607.66 755.369 607.311 755.788 607.311C756.206 607.311 765.738 604.866 770.451 603.644C772.153 603.12 777.312 601.129 777.521 599.976C778.634 593.854 779.58 544.352 777.521 487.1C775.485 430.468 774.118 402.772 772.284 366.369C772.284 364.397 770.967 332.731 770.975 330.621L769.928 312.026L768.88 297.36C767.571 275.885 765.869 226.257 755.526 187.89C738.567 112.334 689.802 106.18 662.176 106.886Z" fill="#0E6F3A"/>
<path d="M604.9 178.735C613.332 162.297 626.144 158.649 631.392 158.692C634.935 158.998 643.201 161.181 647.923 167.469C653.828 175.329 656.322 188.237 658.025 201.136C659.6 213.056 658.708 231.396 655.664 246.33C655.664 246.33 653.828 260.609 642.282 278.425C627.85 300.695 606.859 281.962 603.317 277.508C599.775 273.054 593.87 258.644 592.82 246.592C591.981 236.951 593.126 223.012 594.264 213.319C595.848 199.825 599.389 189.477 604.9 178.735Z" fill="#FEE6CA"/>
<path d="M667.882 194.805C670.706 168.614 685.447 159.098 692.463 157.613C694.869 157.195 697.999 157.439 699.263 157.613C709.305 158.766 716.348 165.951 718.614 169.4C722.406 174.507 730.618 189.331 733.129 207.77C735.639 226.208 733.216 246.881 731.69 254.913C728.639 267.397 718.013 291.79 699.917 289.485C681.821 287.18 671.888 267.035 670.451 259.658C667.574 247.348 665.057 220.996 667.882 194.805Z" fill="#FEE6CA"/>
<path d="M564.326 361.819C565.054 360.472 566.777 360.033 568.06 360.869L594.424 378.044C595.635 378.832 595.978 380.455 595.188 381.667L534.598 474.677C533.324 476.631 530.323 476.071 529.84 473.788L522.74 440.145C522.612 439.539 522.704 438.906 522.998 438.361L564.326 361.819Z" fill="#0E6F3A"/>
<path d="M591.044 379.028C591.786 377.823 591.438 376.247 590.257 375.468L559.243 354.993C557.884 354.096 556.047 354.641 555.398 356.134L509.719 461.182C508.792 463.313 510.893 465.505 513.062 464.67L545.284 452.265C545.82 452.059 546.272 451.683 546.573 451.195L591.044 379.028Z" fill="#0E6F3A"/>
<path d="M762.24 361.928C761.513 360.58 759.79 360.141 758.506 360.978L732.143 378.151C730.931 378.941 730.589 380.564 731.378 381.775L791.969 474.785C793.242 476.74 796.244 476.179 796.726 473.896L803.826 440.254C803.954 439.648 803.863 439.015 803.569 438.469L762.24 361.928Z" fill="#0E6F3A"/>
<path d="M735.523 379.136C734.78 377.932 735.129 376.356 736.309 375.577L767.324 355.101C768.682 354.204 770.52 354.75 771.168 356.242L816.848 461.29C817.774 463.421 815.674 465.613 813.506 464.779L781.282 452.373C780.747 452.167 780.294 451.792 779.994 451.303L735.523 379.136Z" fill="#0E6F3A"/>
<path d="M661.848 296.878C662.933 296.859 663.828 297.723 663.847 298.808C663.866 299.892 663.002 300.787 661.917 300.806L651.413 300.991L651.212 300.985C650.22 300.901 649.432 300.078 649.414 299.061C649.395 297.977 650.259 297.082 651.344 297.063L661.848 296.878Z" fill="#090909"/>
<path d="M729.498 484.429C729.498 549.919 697.984 573.004 658.787 573.004C619.59 573.004 587.553 549.919 587.553 484.429C587.553 418.939 619.328 365.849 658.525 365.849C697.722 365.849 729.498 418.939 729.498 484.429Z" fill="#559472"/>
</g>
</g>
</g>
<circle cx="308" cy="182" r="25" fill="white"/>
<defs>
<filter id="filter0_dd_659_17161" x="518.311" y="11.3109" width="284.378" height="439.378" filterUnits="userSpaceOnUse" color-interpolation-filters="sRGB">
<feFlood flood-opacity="0" result="BackgroundImageFix"/>
<feColorMatrix in="SourceAlpha" type="matrix" values="0 0 0 0 0 0 0 0 0 0 0 0 0 0 0 0 0 0 127 0" result="hardAlpha"/>
<feOffset dy="3.15855"/>
<feGaussianBlur stdDeviation="7.89636"/>
<feComposite in2="hardAlpha" operator="out"/>
<feColorMatrix type="matrix" values="0 0 0 0 0.054902 0 0 0 0 0.435294 0 0 0 0 0.227451 0 0 0 0.1 0"/>
<feBlend mode="normal" in2="BackgroundImageFix" result="effect1_dropShadow_659_17161"/>
<feColorMatrix in="SourceAlpha" type="matrix" values="0 0 0 0 0 0 0 0 0 0 0 0 0 0 0 0 0 0 127 0" result="hardAlpha"/>
<feOffset/>
<feGaussianBlur stdDeviation="11.8445"/>
<feComposite in2="hardAlpha" operator="out"/>
<feColorMatrix type="matrix" values="0 0 0 0 0 0 0 0 0 1 0 0 0 0 0.05 0 0 0 0.18 0"/>
<feBlend mode="normal" in2="effect1_dropShadow_659_17161" result="effect2_dropShadow_659_17161"/>
<feBlend mode="normal" in="SourceGraphic" in2="effect2_dropShadow_659_17161" result="shape"/>
</filter>
<clipPath id="clip0_659_17161">
<rect width="1284" height="336.14" fill="white" transform="translate(0 157)"/>
</clipPath>
<clipPath id="clip1_659_17161">
<rect x="542" y="35" width="237" height="392" rx="118.5" fill="white"/>
</clipPath>
<clipPath id="clip2_659_17161">
<rect width="523.529" height="574.066" fill="white" transform="translate(401.873 50.793)"/>
</clipPath>
</defs>
</svg>
