<svg width="1284" height="494" viewBox="0 0 1284 494" fill="none" xmlns="http://www.w3.org/2000/svg">
<g clip-path="url(#clip0_743_17243)">
<path d="M1090.67 267C1087.26 263.607 1083.2 260.931 1078.73 259.131C1074.27 257.331 1069.49 256.443 1064.67 256.52C1053.45 256.52 1044.24 259.804 1037.04 266.37C1029.84 272.724 1024.97 281.724 1022.44 293.37H1103.73C1102.44 282.53 1098.08 273.74 1090.67 267Z" fill="#505050"/>
<g filter="url(#filter0_f_743_17243)">
<path d="M819.522 374.45V209.29L315.522 158.07C321.795 159.966 327.066 164.262 330.19 170.023C333.314 175.784 334.037 182.546 332.203 188.837C330.369 195.129 326.126 200.442 320.395 203.623C314.665 206.803 307.911 207.593 301.602 205.82L360.662 226.23C364.052 223.64 368.472 222.33 373.932 222.33C380.925 222.33 386.112 224.447 389.492 228.68C391.754 231.277 393.322 234.404 394.052 237.77L404.572 241.41C409.104 236.991 414.174 233.157 419.662 230C428.768 224.92 439.462 222.38 451.742 222.38C458.946 222.337 466.115 223.392 473.002 225.51C479.95 227.393 486.364 230.872 491.732 235.67C497.452 240.337 501.898 246.67 505.072 254.67C507.892 261.204 509.532 268.914 509.992 277.8L821.532 385.5C820.13 381.988 819.447 378.231 819.522 374.45Z" fill="#505050"/>
</g>
<g filter="url(#filter1_f_743_17243)">
<path d="M1234 277.53C1232.88 278.768 1231.87 280.107 1231 281.53C1226.33 289.357 1224 302.587 1224 321.22V375.22C1224 382.2 1222.2 387.81 1218.6 392.05C1215.21 396.283 1209.29 398.4 1200.82 398.4C1192.35 398.4 1186.32 396.283 1182.72 392.05C1179.33 387.81 1177.63 382.2 1177.63 375.22V245.68C1177.63 245.6 1177.63 245.54 1177.63 245.46C1171.19 243.76 1164.63 242.602 1158 242L1115.35 239.15C1118.92 241.623 1122.25 244.432 1125.29 247.54C1132.48 254.419 1138.1 262.76 1141.79 272C1145.59 280.828 1147.53 290.34 1147.51 299.95C1147.51 307.783 1146.03 313.077 1143.06 315.83C1140.31 318.583 1135.02 319.957 1127.18 319.95H1022.4C1022.4 332.443 1026.21 342.607 1033.83 350.44C1041.45 358.273 1051.93 362.19 1065.26 362.19C1074.15 362.19 1081.03 361.027 1085.9 358.7C1091.4 355.861 1096.53 352.34 1101.15 348.22C1103.75 345.689 1106.63 343.452 1109.72 341.55C1112.54 340.001 1115.72 339.234 1118.93 339.33C1121.43 339.28 1123.91 339.763 1126.21 340.747C1128.51 341.732 1130.57 343.195 1132.26 345.04C1136.07 348.853 1137.97 352.983 1137.98 357.43C1137.96 364.026 1135.46 370.374 1130.98 375.21C1125.75 380.698 1119.49 385.114 1112.57 388.21C1104.95 391.658 1096.96 394.214 1088.75 395.83C1081.02 397.466 1073.15 398.317 1065.25 398.37C1049.8 398.37 1036.36 396.037 1024.93 391.37C1013.49 386.497 1004.16 380.04 996.929 372C989.856 364.174 984.456 354.986 981.059 345C977.673 335.085 975.954 324.677 975.969 314.2C975.969 286.867 983.802 265.06 999.469 248.78C1007.16 240.653 1016.56 234.346 1027 230.32L865.879 214V289.34L917.329 232.18C922.829 226.253 928.756 223.287 935.109 223.28C940.609 223.28 945.582 225.4 950.029 229.64C954.696 233.64 957.029 238.507 957.029 244.24C957.029 247.84 956.499 250.593 955.439 252.5C954.131 254.812 952.531 256.946 950.679 258.85L950.039 259.48L915.749 295.37L963.999 360.16C965.392 362.093 966.465 364.237 967.179 366.51C968.313 369.221 968.855 372.143 968.769 375.08C968.783 381.007 966.508 386.71 962.419 391C960.443 393.147 958.035 394.851 955.353 396.001C952.671 397.151 949.777 397.719 946.859 397.67C941.779 397.67 937.546 396.61 934.159 394.49C930.835 392.649 928.002 390.035 925.899 386.87L882.079 324.95L865.879 339.24V374.49C865.879 381.903 863.762 387.62 859.529 391.64C857.483 393.67 855.01 395.218 852.289 396.17L1049.75 464.4C1054 466.477 1058.37 468.31 1062.83 469.89L1064.52 470.59V470.48C1076.98 474.67 1135.52 493.18 1149.35 493.18C1165.67 493.192 1181.83 489.989 1196.91 483.754C1211.99 477.519 1225.69 468.375 1237.23 456.843C1248.78 445.312 1257.94 431.619 1264.19 416.546C1270.44 401.474 1273.66 385.317 1273.67 369C1273.67 333.76 1258.25 301 1234 277.53Z" fill="#505050"/>
</g>
<path d="M825.561 391.6C829.795 395.6 835.508 397.6 842.701 397.6C845.96 397.653 849.204 397.146 852.291 396.1L821.531 385.5C822.464 387.777 823.833 389.849 825.561 391.6Z" fill="#356549"/>
<path d="M865.879 183.92C865.879 176.507 863.762 170.79 859.529 166.77C855.529 162.77 849.919 160.77 842.699 160.77C835.479 160.77 829.765 162.77 825.559 166.77C821.559 170.77 819.559 176.487 819.559 183.92V209.29L865.879 214V183.92Z" fill="#356549"/>
<g filter="url(#filter2_d_743_17243)">
<path d="M865.88 374.45V339.2L882.08 324.91L925.9 386.83C928.003 389.996 930.836 392.609 934.16 394.45C937.54 396.57 941.774 397.63 946.86 397.63C949.775 397.685 952.668 397.122 955.35 395.98C958.031 394.837 960.441 393.14 962.42 391C966.5 386.72 968.774 381.033 968.77 375.12C968.856 372.183 968.314 369.261 967.18 366.55C966.467 364.277 965.393 362.133 964 360.2L915.74 295.42L950 259.49L950.64 258.86C952.493 256.956 954.092 254.822 955.4 252.51C956.467 250.597 957 247.844 957 244.25C957 238.544 954.667 233.677 950 229.65C945.56 225.41 940.587 223.29 935.08 223.29C928.734 223.29 922.807 226.257 917.3 232.19L865.85 289.35V214L819.49 209.28V374.45C819.413 378.23 820.093 381.987 821.49 385.5L852.25 396.13C854.971 395.178 857.445 393.631 859.49 391.6C863.757 387.574 865.887 381.857 865.88 374.45Z" fill="#6FE593"/>
</g>
<path d="M1276.7 230.44C1272.03 226.2 1266 224.08 1258.6 224.08C1248.22 224.08 1239.96 227.786 1233.83 235.2C1227.9 242.606 1223.35 252.026 1220.18 263.46H1219.54V245.68C1219.54 238.9 1217.54 233.606 1213.54 229.8C1209.73 225.986 1204.76 224.08 1198.61 224.08C1192.97 223.891 1187.49 225.949 1183.37 229.8C1179.6 233.566 1177.7 238.786 1177.66 245.46C1198.88 251.142 1218.28 262.186 1234 277.53C1238.7 272.39 1244.99 269.816 1252.88 269.81H1261.14C1267.7 269.81 1273.1 268.01 1277.33 264.41C1281.78 260.596 1284.01 254.67 1284 246.63C1284.08 243.556 1283.46 240.505 1282.2 237.703C1280.93 234.9 1279.05 232.418 1276.7 230.44Z" fill="#356549"/>
<g filter="url(#filter3_d_743_17243)">
<path d="M1177.62 245.68V375.24C1177.62 382.22 1179.32 387.83 1182.71 392.07C1186.3 396.303 1192.33 398.42 1200.81 398.42C1209.29 398.42 1215.22 396.303 1218.59 392.07C1222.19 387.83 1223.99 382.22 1223.99 375.24V321.24C1223.99 302.613 1226.32 289.383 1230.99 281.55C1231.87 280.127 1232.87 278.788 1233.99 277.55C1218.26 262.201 1198.85 251.157 1177.62 245.48C1177.63 245.54 1177.62 245.6 1177.62 245.68Z" fill="#6FE593"/>
</g>
<path d="M1115.34 239.19C1110.14 235.6 1104.52 232.662 1098.6 230.44C1088.23 226.2 1076.59 224.08 1063.68 224.08C1050.02 224.08 1037.81 226.183 1027.06 230.39L1110.61 238.88L1115.34 239.19Z" fill="#356549"/>
<g filter="url(#filter4_d_743_17243)">
<path d="M976 314.27C975.985 324.747 977.705 335.155 981.09 345.07C984.487 355.057 989.887 364.244 996.96 372.07C1004.16 380.123 1013.49 386.58 1024.96 391.44C1036.39 396.107 1049.83 398.44 1065.28 398.44C1073.18 398.387 1081.05 397.536 1088.78 395.9C1096.99 394.285 1104.98 391.728 1112.6 388.28C1119.52 385.184 1125.78 380.768 1131.01 375.28C1135.5 370.444 1138 364.096 1138.01 357.5C1138.01 353.047 1136.1 348.917 1132.29 345.11C1130.6 343.266 1128.54 341.802 1126.24 340.818C1123.94 339.833 1121.46 339.35 1118.96 339.4C1115.75 339.304 1112.57 340.071 1109.75 341.62C1106.66 343.523 1103.78 345.759 1101.18 348.29C1096.56 352.41 1091.43 355.931 1085.93 358.77C1081.06 361.09 1074.18 362.253 1065.29 362.26C1051.96 362.26 1041.48 358.343 1033.86 350.51C1026.24 342.677 1022.42 332.507 1022.4 320H1127.18C1135.02 320 1140.31 318.627 1143.06 315.88C1146.02 313.12 1147.5 307.827 1147.51 300C1147.53 290.39 1145.59 280.878 1141.79 272.05C1138.1 262.813 1132.47 254.475 1125.28 247.6C1122.24 244.492 1118.91 241.683 1115.34 239.21L1110.61 238.9L1027.06 230.41C1016.62 234.436 1007.22 240.743 999.53 248.87C983.843 265.157 976 286.957 976 314.27ZM1037 266.27C1044.2 259.71 1053.41 256.427 1064.63 256.42C1069.44 256.343 1074.22 257.231 1078.69 259.031C1083.16 260.831 1087.22 263.507 1090.63 266.9C1098.04 273.68 1102.37 282.467 1103.63 293.26H1022.4C1024.94 281.653 1029.81 272.673 1037 266.32V266.27Z" fill="#6FE593"/>
</g>
<path d="M308.36 221.41C299.886 221.41 293.853 223.527 290.26 227.76C286.873 231.987 285.18 237.597 285.18 244.59V372.59C285.18 379.583 286.873 385.193 290.26 389.42C293.86 393.653 299.893 395.77 308.36 395.77C316.826 395.77 322.753 393.653 326.14 389.42C329.74 385.193 331.54 379.583 331.54 372.59V244.59C331.54 237.597 329.74 231.987 326.14 227.76C322.76 223.52 316.833 221.404 308.36 221.41Z" fill="#356549"/>
<g filter="url(#filter5_f_743_17243)">
<path d="M308.454 158.433C302.755 158.431 297.249 160.489 292.953 164.225C288.657 167.961 285.863 173.123 285.087 178.756C284.311 184.389 285.606 190.112 288.732 194.866C291.858 199.62 296.604 203.083 302.092 204.616L300.196 203.982L300.357 203.263C295.979 201.642 292.209 198.71 289.563 194.87C286.917 191.03 285.525 186.468 285.577 181.808C285.513 178.796 286.068 175.803 287.21 173.015C288.351 170.226 290.054 167.7 292.213 165.594C294.326 163.441 296.859 161.742 299.656 160.603C302.452 159.464 305.453 158.909 308.473 158.972C309.108 158.972 309.734 158.972 310.369 159.057V158.944L315.271 159.436C313.059 158.772 310.763 158.434 308.454 158.433Z" fill="#E8F8EE" fill-opacity="0.7"/>
<path d="M315.302 159.445L310.401 158.953V159.067C315.844 159.372 320.975 161.701 324.783 165.594C326.941 167.701 328.643 170.227 329.784 173.015C330.925 175.804 331.482 178.796 331.42 181.808C331.482 184.821 330.925 187.815 329.784 190.605C328.642 193.395 326.94 195.922 324.783 198.031C322.67 200.185 320.137 201.883 317.341 203.022C314.544 204.161 311.543 204.716 308.523 204.653C305.765 204.668 303.024 204.2 300.427 203.272L300.266 203.991L302.162 204.625C308.123 206.225 314.476 205.429 319.856 202.407C325.235 199.385 329.212 194.379 330.933 188.463C332.653 182.548 331.98 176.195 329.058 170.769C326.135 165.343 321.196 161.277 315.302 159.445Z" fill="#E8F8EE" fill-opacity="0.7"/>
<path d="M308.494 158.982C305.475 158.919 302.474 159.474 299.678 160.613C296.881 161.752 294.348 163.45 292.235 165.604C290.076 167.71 288.374 170.235 287.232 173.024C286.091 175.813 285.535 178.806 285.599 181.818C285.547 186.477 286.939 191.039 289.585 194.88C292.231 198.72 296 201.651 300.379 203.272L310.371 159.067C309.755 159.02 309.101 158.982 308.494 158.982Z" fill="#E8F8EE" fill-opacity="0.7"/>
<path d="M324.759 165.594C320.951 161.701 315.82 159.372 310.376 159.067L300.402 203.263C303 204.191 305.74 204.658 308.499 204.644C311.519 204.707 314.52 204.152 317.316 203.013C320.113 201.874 322.646 200.176 324.759 198.022C326.916 195.913 328.618 193.386 329.759 190.595C330.9 187.805 331.457 184.812 331.395 181.799C331.456 178.789 330.899 175.798 329.758 173.011C328.616 170.224 326.915 167.7 324.759 165.594Z" fill="#E8F8EE" fill-opacity="0.7"/>
</g>
<g filter="url(#filter6_f_743_17243)">
<path d="M308.506 164C304.14 163.999 299.922 165.574 296.631 168.436C293.341 171.298 291.2 175.252 290.606 179.567C290.011 183.881 291.003 188.265 293.398 191.906C295.793 195.547 299.428 198.2 303.632 199.374L302.18 198.888L302.303 198.338C298.949 197.096 296.061 194.851 294.035 191.909C292.008 188.968 290.941 185.474 290.981 181.904C290.932 179.597 291.358 177.305 292.232 175.169C293.107 173.033 294.411 171.098 296.065 169.485C297.683 167.836 299.624 166.535 301.766 165.662C303.908 164.79 306.207 164.365 308.52 164.413C309.007 164.413 309.486 164.413 309.973 164.478V164.391L313.727 164.768C312.034 164.26 310.274 164.001 308.506 164Z" fill="#FAFAFA" fill-opacity="0.9"/>
<path d="M313.749 164.775L309.994 164.398V164.485C314.164 164.719 318.095 166.503 321.012 169.485C322.664 171.099 323.968 173.033 324.842 175.169C325.717 177.305 326.143 179.597 326.095 181.904C326.143 184.212 325.716 186.505 324.842 188.642C323.968 190.779 322.664 192.715 321.012 194.331C319.393 195.98 317.452 197.281 315.31 198.154C313.168 199.026 310.869 199.451 308.556 199.403C306.443 199.414 304.344 199.056 302.354 198.345L302.23 198.896L303.683 199.381C308.25 200.607 313.116 199.997 317.237 197.683C321.358 195.368 324.404 191.533 325.722 187.002C327.04 182.471 326.525 177.605 324.286 173.449C322.047 169.293 318.264 166.179 313.749 164.775Z" fill="#FAFAFA" fill-opacity="0.9"/>
<path d="M308.535 164.42C306.222 164.371 303.923 164.797 301.781 165.669C299.639 166.541 297.699 167.842 296.08 169.492C294.426 171.105 293.122 173.039 292.247 175.175C291.373 177.312 290.947 179.604 290.996 181.911C290.957 185.48 292.023 188.974 294.05 191.916C296.076 194.857 298.964 197.103 302.319 198.344L309.973 164.485C309.501 164.449 309 164.42 308.535 164.42Z" fill="#FAFAFA" fill-opacity="0.9"/>
<path d="M320.994 169.484C318.077 166.502 314.146 164.719 309.976 164.485L302.336 198.337C304.326 199.048 306.425 199.406 308.538 199.395C310.851 199.443 313.15 199.018 315.292 198.146C317.434 197.273 319.375 195.972 320.994 194.323C322.646 192.707 323.95 190.772 324.824 188.634C325.698 186.497 326.125 184.204 326.077 181.896C326.124 179.591 325.697 177.3 324.823 175.166C323.949 173.031 322.645 171.098 320.994 169.484Z" fill="#FAFAFA" fill-opacity="0.9"/>
</g>
<path d="M308.148 168.786C305.021 168.785 301.998 169.914 299.641 171.965C297.283 174.015 295.75 176.849 295.324 179.94C294.898 183.032 295.609 186.173 297.324 188.782C299.04 191.391 301.645 193.292 304.657 194.133L303.616 193.785L303.705 193.391C301.301 192.501 299.232 190.892 297.78 188.784C296.328 186.677 295.564 184.173 295.592 181.615C295.557 179.962 295.862 178.32 296.489 176.789C297.115 175.258 298.05 173.872 299.235 172.716C300.395 171.535 301.785 170.602 303.32 169.977C304.854 169.352 306.501 169.048 308.159 169.082C308.507 169.082 308.851 169.082 309.199 169.129V169.066L311.889 169.336C310.676 168.972 309.416 168.787 308.148 168.786Z" fill="white"/>
<path d="M311.909 169.342L309.219 169.072V169.134C312.206 169.302 315.022 170.58 317.112 172.717C318.296 173.873 319.23 175.259 319.857 176.79C320.483 178.32 320.789 179.963 320.755 181.616C320.789 183.269 320.483 184.912 319.857 186.444C319.23 187.975 318.296 189.362 317.112 190.52C315.952 191.702 314.562 192.634 313.027 193.259C311.493 193.884 309.846 194.189 308.188 194.154C306.674 194.162 305.17 193.906 303.745 193.396L303.656 193.791L304.697 194.139C307.969 195.017 311.455 194.58 314.408 192.921C317.36 191.263 319.543 188.515 320.487 185.268C321.432 182.022 321.062 178.535 319.458 175.557C317.854 172.579 315.144 170.347 311.909 169.342Z" fill="white"/>
<path d="M308.172 169.088C306.515 169.053 304.868 169.358 303.333 169.983C301.799 170.608 300.408 171.54 299.249 172.722C298.064 173.878 297.129 175.264 296.503 176.795C295.876 178.325 295.571 179.968 295.606 181.621C295.578 184.178 296.342 186.682 297.794 188.79C299.246 190.898 301.315 192.506 303.718 193.396L309.203 169.134C308.864 169.108 308.505 169.088 308.172 169.088Z" fill="white"/>
<path d="M317.1 172.717C315.01 170.58 312.194 169.302 309.206 169.134L303.732 193.391C305.158 193.901 306.662 194.157 308.176 194.149C309.833 194.184 311.48 193.879 313.015 193.254C314.55 192.629 315.94 191.697 317.1 190.515C318.284 189.357 319.218 187.97 319.844 186.439C320.471 184.907 320.776 183.264 320.742 181.611C320.776 179.959 320.47 178.317 319.843 176.788C319.217 175.258 318.283 173.873 317.1 172.717Z" fill="white"/>
<path d="M238.72 159.16C231.52 159.16 225.804 161.16 221.57 165.16C217.57 169.16 215.57 174.877 215.57 182.31V372.87C215.57 380.283 217.57 386 221.57 390.02C225.81 394.02 231.527 396.02 238.72 396.02C245.914 396.02 251.524 394.02 255.55 390.02C259.777 386.02 261.894 380.303 261.9 372.87V182.34C261.9 174.933 259.784 169.217 255.55 165.19C251.53 161.17 245.92 159.16 238.72 159.16Z" fill="#356549"/>
<path d="M151.15 274.7V274.06C161.523 269.833 169.46 263.586 174.96 255.32C180.441 247.159 183.321 237.53 183.22 227.7C183.22 215.626 180.787 205.676 175.92 197.85C171.219 190.176 164.525 183.921 156.55 179.75C148.3 175.448 139.392 172.549 130.19 171.17C120.124 169.433 109.925 168.583 99.71 168.63H30.48C20.5333 168.63 12.9133 170.963 7.62 175.63C2.54 180.283 0 188.113 0 199.12V366.78C0 377.786 2.54 385.62 7.62 390.28C12.9133 394.946 20.5333 397.28 30.48 397.28H107C117.913 397.367 128.795 396.087 139.39 393.47C149.047 390.955 158.186 386.761 166.39 381.08C174.09 375.731 180.316 368.525 184.49 360.13C188.93 351.463 191.153 341.3 191.16 329.64C191.16 314.4 187.667 302.333 180.68 293.44C173.693 284.333 163.85 278.086 151.15 274.7ZM52.08 206.7H93.36C104.58 206.7 113.68 208.816 120.66 213.05C127.64 217.283 131.133 224.48 131.14 234.64C131.14 253.266 119.073 262.583 94.94 262.59H52.08V206.7ZM135.27 342.29C132.983 346.273 129.556 349.481 125.43 351.5C121.147 353.722 116.535 355.242 111.77 356C106.526 356.874 101.217 357.299 95.9 357.27H52.08V295.65H89.55C96.0289 295.605 102.502 296.029 108.92 296.92C114.195 297.437 119.346 298.833 124.16 301.05C128.678 303.019 132.468 306.351 135 310.58C137.76 314.806 139.137 320.203 139.13 326.77C139.097 333.123 137.81 338.31 135.27 342.33V342.29Z" fill="#356549"/>
<path d="M395.529 251.55H394.889V245.55C394.908 242.946 394.626 240.349 394.049 237.81L360.659 226.23C359.702 226.949 358.826 227.77 358.049 228.68C354.662 232.68 352.969 238.29 352.969 245.51V373.51C352.969 380.497 354.662 386.107 358.049 390.34C361.649 394.573 367.682 396.69 376.149 396.69C384.615 396.69 390.545 394.573 393.939 390.34C397.539 386.113 399.339 380.503 399.339 373.51V297C399.339 285.987 402.935 277.2 410.129 270.64C417.542 263.86 425.695 260.473 434.589 260.48C444.329 260.48 451.632 263.443 456.499 269.37C461.372 275.09 463.809 282.817 463.809 292.55V373.55C463.809 380.537 465.502 386.147 468.889 390.38C472.489 394.613 478.522 396.73 486.989 396.73C495.455 396.73 501.382 394.613 504.769 390.38C508.369 386.153 510.169 380.543 510.169 373.55V283.3C510.169 281.43 510.109 279.62 510.009 277.85L404.569 241.41C401.31 244.563 398.289 247.952 395.529 251.55Z" fill="#356549"/>
<g filter="url(#filter7_d_743_17243)">
<path d="M491.751 235.67C486.377 230.869 479.957 227.39 473.001 225.51C466.111 223.373 458.935 222.3 451.721 222.33C439.441 222.33 428.747 224.87 419.641 229.95C414.151 233.122 409.081 236.973 404.551 241.41L510.001 277.85C509.534 268.97 507.894 261.26 505.081 254.72C501.921 246.68 497.477 240.33 491.751 235.67Z" fill="#6FE593"/>
</g>
<g filter="url(#filter8_d_743_17243)">
<path d="M389.49 228.68C386.103 224.453 380.917 222.337 373.93 222.33C368.47 222.33 364.05 223.64 360.66 226.23L394.05 237.77C393.321 234.404 391.752 231.277 389.49 228.68Z" fill="#6FE593"/>
</g>
</g>
<g filter="url(#filter9_dd_743_17243)">
<g clip-path="url(#clip1_743_17243)">
<g clip-path="url(#clip2_743_17243)">
<path d="M662.124 54.327C663.179 51.2692 667.504 51.2692 668.56 54.327L692.133 122.594C692.896 124.806 691.254 127.111 688.915 127.111H641.769C639.429 127.111 637.787 124.806 638.551 122.594L662.124 54.327Z" fill="#0485A2"/>
<path fill-rule="evenodd" clip-rule="evenodd" d="M662.176 101.886C641.098 101.886 597.369 111.263 575.242 186.426C557.756 245.828 555.38 309.871 553.772 353.218C553.332 365.077 552.949 375.387 552.331 383.63L550.891 545.217C550.977 564.379 556.259 602.702 576.683 602.702C579.912 602.833 586.555 603.147 587.287 603.357C587.834 603.513 587.784 603.727 587.723 603.989C587.703 604.078 587.681 604.173 587.681 604.273L587.549 606.369C587.549 606.831 587.538 607.317 587.525 607.859C587.495 609.157 587.457 610.776 587.549 613.178C587.706 617.253 587.812 619.857 597.238 619.857H653.798C657.376 619.901 661.662 615.798 661.662 612.394C661.662 610.557 661.621 608.949 661.583 607.467C661.552 606.201 661.522 605.027 661.522 603.882C661.522 603.816 661.519 603.748 661.516 603.682C661.493 603.218 661.47 602.781 662.57 602.964C663.826 603.174 670.686 603.051 673.959 602.964H693.467C694.166 602.921 695.484 603.148 695.17 604.406V612.394C695.17 614.925 696.845 619.962 703.549 619.857C710.252 619.752 734.884 619.814 746.361 619.857C749.242 619.77 755.028 617.657 755.133 609.905V602.834C755.177 602.66 755.369 602.311 755.788 602.311C756.206 602.311 765.738 599.866 770.451 598.644C772.153 598.12 777.312 596.129 777.521 594.976C778.634 588.854 779.58 539.352 777.521 482.1C775.485 425.468 774.118 397.772 772.284 361.369C772.284 359.397 770.967 327.731 770.975 325.621L769.928 307.026L768.88 292.36C767.571 270.885 765.869 221.257 755.526 182.89C738.567 107.334 689.802 101.18 662.176 101.886Z" fill="#0E6F3A"/>
<path d="M604.9 173.735C613.332 157.297 626.144 153.649 631.392 153.692C634.935 153.998 643.201 156.181 647.923 162.469C653.828 170.329 656.322 183.237 658.025 196.136C659.6 208.056 658.708 226.396 655.664 241.33C655.664 241.33 653.828 255.609 642.282 273.425C627.85 295.695 606.859 276.962 603.317 272.508C599.775 268.054 593.87 253.644 592.82 241.592C591.981 231.951 593.126 218.012 594.264 208.319C595.848 194.825 599.389 184.477 604.9 173.735Z" fill="#FEE6CA"/>
<path d="M667.882 189.805C670.706 163.614 685.447 154.098 692.463 152.613C694.869 152.195 697.999 152.439 699.263 152.613C709.305 153.766 716.348 160.951 718.614 164.4C722.406 169.507 730.618 184.331 733.129 202.77C735.639 221.208 733.216 241.881 731.69 249.913C728.639 262.397 718.013 286.79 699.917 284.485C681.821 282.18 671.888 262.035 670.451 254.658C667.574 242.348 665.057 215.996 667.882 189.805Z" fill="#FEE6CA"/>
<path d="M564.326 356.819C565.054 355.472 566.777 355.033 568.06 355.869L594.424 373.044C595.635 373.832 595.978 375.455 595.188 376.667L534.598 469.677C533.324 471.631 530.323 471.071 529.84 468.788L522.74 435.145C522.612 434.539 522.704 433.906 522.998 433.361L564.326 356.819Z" fill="#0E6F3A"/>
<path d="M591.044 374.028C591.786 372.823 591.438 371.247 590.257 370.468L559.243 349.993C557.884 349.096 556.047 349.641 555.398 351.134L509.719 456.182C508.792 458.313 510.893 460.505 513.062 459.67L545.284 447.265C545.82 447.059 546.272 446.683 546.573 446.195L591.044 374.028Z" fill="#0E6F3A"/>
<path d="M762.24 356.928C761.513 355.58 759.79 355.141 758.506 355.978L732.143 373.151C730.931 373.941 730.589 375.564 731.378 376.775L791.969 469.785C793.242 471.74 796.244 471.179 796.726 468.896L803.826 435.254C803.954 434.648 803.863 434.015 803.569 433.469L762.24 356.928Z" fill="#0E6F3A"/>
<path d="M735.523 374.136C734.78 372.932 735.129 371.356 736.309 370.577L767.324 350.101C768.682 349.204 770.52 349.75 771.168 351.242L816.848 456.29C817.774 458.421 815.674 460.613 813.506 459.779L781.282 447.373C780.747 447.167 780.294 446.792 779.994 446.303L735.523 374.136Z" fill="#0E6F3A"/>
<path d="M661.848 291.878C662.933 291.859 663.828 292.723 663.847 293.808C663.866 294.892 663.002 295.787 661.917 295.806L651.413 295.991L651.212 295.985C650.22 295.901 649.432 295.078 649.414 294.061C649.395 292.977 650.259 292.082 651.344 292.063L661.848 291.878Z" fill="#090909"/>
<path d="M729.498 479.429C729.498 544.919 697.984 568.004 658.787 568.004C619.59 568.004 587.553 544.919 587.553 479.429C587.553 413.939 619.328 360.849 658.525 360.849C697.722 360.849 729.498 413.939 729.498 479.429Z" fill="#559472"/>
</g>
</g>
</g>
<defs>
<filter id="filter0_f_743_17243" x="293.602" y="150.07" width="535.93" height="243.43" filterUnits="userSpaceOnUse" color-interpolation-filters="sRGB">
<feFlood flood-opacity="0" result="BackgroundImageFix"/>
<feBlend mode="normal" in="SourceGraphic" in2="BackgroundImageFix" result="shape"/>
<feGaussianBlur stdDeviation="4" result="effect1_foregroundBlur_743_17243"/>
</filter>
<filter id="filter1_f_743_17243" x="844.289" y="206" width="437.381" height="295.18" filterUnits="userSpaceOnUse" color-interpolation-filters="sRGB">
<feFlood flood-opacity="0" result="BackgroundImageFix"/>
<feBlend mode="normal" in="SourceGraphic" in2="BackgroundImageFix" result="shape"/>
<feGaussianBlur stdDeviation="4" result="effect1_foregroundBlur_743_17243"/>
</filter>
<filter id="filter2_d_743_17243" x="815.484" y="198.28" width="173.295" height="212.354" filterUnits="userSpaceOnUse" color-interpolation-filters="sRGB">
<feFlood flood-opacity="0" result="BackgroundImageFix"/>
<feColorMatrix in="SourceAlpha" type="matrix" values="0 0 0 0 0 0 0 0 0 0 0 0 0 0 0 0 0 0 127 0" result="hardAlpha"/>
<feOffset dx="8" dy="1"/>
<feGaussianBlur stdDeviation="6"/>
<feComposite in2="hardAlpha" operator="out"/>
<feColorMatrix type="matrix" values="0 0 0 0 0.0352941 0 0 0 0 0.0745098 0 0 0 0 0.054902 0 0 0 0.5 0"/>
<feBlend mode="normal" in2="BackgroundImageFix" result="effect1_dropShadow_743_17243"/>
<feBlend mode="normal" in="SourceGraphic" in2="effect1_dropShadow_743_17243" result="shape"/>
</filter>
<filter id="filter3_d_743_17243" x="1173.62" y="234.48" width="80.3691" height="176.94" filterUnits="userSpaceOnUse" color-interpolation-filters="sRGB">
<feFlood flood-opacity="0" result="BackgroundImageFix"/>
<feColorMatrix in="SourceAlpha" type="matrix" values="0 0 0 0 0 0 0 0 0 0 0 0 0 0 0 0 0 0 127 0" result="hardAlpha"/>
<feOffset dx="8" dy="1"/>
<feGaussianBlur stdDeviation="6"/>
<feComposite in2="hardAlpha" operator="out"/>
<feColorMatrix type="matrix" values="0 0 0 0 0.0352941 0 0 0 0 0.0745098 0 0 0 0 0.054902 0 0 0 0.5 0"/>
<feBlend mode="normal" in2="BackgroundImageFix" result="effect1_dropShadow_743_17243"/>
<feBlend mode="normal" in="SourceGraphic" in2="effect1_dropShadow_743_17243" result="shape"/>
</filter>
<filter id="filter4_d_743_17243" x="972" y="219.41" width="195.51" height="192.03" filterUnits="userSpaceOnUse" color-interpolation-filters="sRGB">
<feFlood flood-opacity="0" result="BackgroundImageFix"/>
<feColorMatrix in="SourceAlpha" type="matrix" values="0 0 0 0 0 0 0 0 0 0 0 0 0 0 0 0 0 0 127 0" result="hardAlpha"/>
<feOffset dx="8" dy="1"/>
<feGaussianBlur stdDeviation="6"/>
<feComposite in2="hardAlpha" operator="out"/>
<feColorMatrix type="matrix" values="0 0 0 0 0.0352941 0 0 0 0 0.0745098 0 0 0 0 0.054902 0 0 0 0.5 0"/>
<feBlend mode="normal" in2="BackgroundImageFix" result="effect1_dropShadow_743_17243"/>
<feBlend mode="normal" in="SourceGraphic" in2="effect1_dropShadow_743_17243" result="shape"/>
</filter>
<filter id="filter5_f_743_17243" x="280.867" y="154.433" width="55" height="55" filterUnits="userSpaceOnUse" color-interpolation-filters="sRGB">
<feFlood flood-opacity="0" result="BackgroundImageFix"/>
<feBlend mode="normal" in="SourceGraphic" in2="BackgroundImageFix" result="shape"/>
<feGaussianBlur stdDeviation="2" result="effect1_foregroundBlur_743_17243"/>
</filter>
<filter id="filter6_f_743_17243" x="286.438" y="160" width="44" height="44" filterUnits="userSpaceOnUse" color-interpolation-filters="sRGB">
<feFlood flood-opacity="0" result="BackgroundImageFix"/>
<feBlend mode="normal" in="SourceGraphic" in2="BackgroundImageFix" result="shape"/>
<feGaussianBlur stdDeviation="2" result="effect1_foregroundBlur_743_17243"/>
</filter>
<filter id="filter7_d_743_17243" x="400.551" y="211.329" width="129.449" height="79.5205" filterUnits="userSpaceOnUse" color-interpolation-filters="sRGB">
<feFlood flood-opacity="0" result="BackgroundImageFix"/>
<feColorMatrix in="SourceAlpha" type="matrix" values="0 0 0 0 0 0 0 0 0 0 0 0 0 0 0 0 0 0 127 0" result="hardAlpha"/>
<feOffset dx="8" dy="1"/>
<feGaussianBlur stdDeviation="6"/>
<feComposite in2="hardAlpha" operator="out"/>
<feColorMatrix type="matrix" values="0 0 0 0 0.0352941 0 0 0 0 0.0745098 0 0 0 0 0.054902 0 0 0 0.5 0"/>
<feBlend mode="normal" in2="BackgroundImageFix" result="effect1_dropShadow_743_17243"/>
<feBlend mode="normal" in="SourceGraphic" in2="effect1_dropShadow_743_17243" result="shape"/>
</filter>
<filter id="filter8_d_743_17243" x="356.66" y="211.33" width="57.3906" height="39.4399" filterUnits="userSpaceOnUse" color-interpolation-filters="sRGB">
<feFlood flood-opacity="0" result="BackgroundImageFix"/>
<feColorMatrix in="SourceAlpha" type="matrix" values="0 0 0 0 0 0 0 0 0 0 0 0 0 0 0 0 0 0 127 0" result="hardAlpha"/>
<feOffset dx="8" dy="1"/>
<feGaussianBlur stdDeviation="6"/>
<feComposite in2="hardAlpha" operator="out"/>
<feColorMatrix type="matrix" values="0 0 0 0 0.0352941 0 0 0 0 0.0745098 0 0 0 0 0.054902 0 0 0 0.5 0"/>
<feBlend mode="normal" in2="BackgroundImageFix" result="effect1_dropShadow_743_17243"/>
<feBlend mode="normal" in="SourceGraphic" in2="effect1_dropShadow_743_17243" result="shape"/>
</filter>
<filter id="filter9_dd_743_17243" x="518.311" y="6.31091" width="284.378" height="439.378" filterUnits="userSpaceOnUse" color-interpolation-filters="sRGB">
<feFlood flood-opacity="0" result="BackgroundImageFix"/>
<feColorMatrix in="SourceAlpha" type="matrix" values="0 0 0 0 0 0 0 0 0 0 0 0 0 0 0 0 0 0 127 0" result="hardAlpha"/>
<feOffset dy="3.15855"/>
<feGaussianBlur stdDeviation="7.89636"/>
<feComposite in2="hardAlpha" operator="out"/>
<feColorMatrix type="matrix" values="0 0 0 0 0.054902 0 0 0 0 0.435294 0 0 0 0 0.227451 0 0 0 0.1 0"/>
<feBlend mode="normal" in2="BackgroundImageFix" result="effect1_dropShadow_743_17243"/>
<feColorMatrix in="SourceAlpha" type="matrix" values="0 0 0 0 0 0 0 0 0 0 0 0 0 0 0 0 0 0 127 0" result="hardAlpha"/>
<feOffset/>
<feGaussianBlur stdDeviation="11.8445"/>
<feComposite in2="hardAlpha" operator="out"/>
<feColorMatrix type="matrix" values="0 0 0 0 0 0 0 0 0 1 0 0 0 0 0.05 0 0 0 0.18 0"/>
<feBlend mode="normal" in2="effect1_dropShadow_743_17243" result="effect2_dropShadow_743_17243"/>
<feBlend mode="normal" in="SourceGraphic" in2="effect2_dropShadow_743_17243" result="shape"/>
</filter>
<clipPath id="clip0_743_17243">
<rect width="1284" height="336.14" fill="white" transform="translate(0 157)"/>
</clipPath>
<clipPath id="clip1_743_17243">
<rect x="542" y="30" width="237" height="392" rx="118.5" fill="white"/>
</clipPath>
<clipPath id="clip2_743_17243">
<rect width="523.529" height="574.066" fill="white" transform="translate(401.873 45.793)"/>
</clipPath>
</defs>
</svg>
