<svg width="1284" height="471" viewBox="0 0 1284 471" fill="none" xmlns="http://www.w3.org/2000/svg">
<path d="M1112.6 216.36L1159.98 219.518C1223.42 225.127 1275.66 281.624 1275.66 346.46C1275.66 415.033 1220.01 470.623 1151.37 470.623C1137.5 470.623 1079 452.109 1066.54 447.917L1066.51 448.035L1064.82 447.328C1060.34 445.746 1055.97 443.911 1051.74 441.846L301.641 182.629L312.361 135.027L1112.6 216.36Z" fill="#C8EDD4"/>
<g style="mix-blend-mode:hard-light">
<path d="M819.523 351.896V161.367C819.523 153.958 821.534 148.242 825.557 144.219C829.79 140.197 835.506 138.186 842.704 138.186C849.901 138.186 855.511 140.197 859.533 144.219C863.767 148.242 865.884 153.958 865.884 161.367V266.793L917.325 209.634C922.829 203.707 928.757 200.743 935.107 200.743C940.611 200.743 945.586 202.86 950.032 207.094C954.689 211.116 957.018 215.985 957.018 221.701C957.018 225.3 956.488 228.052 955.43 229.958C954.583 231.651 952.995 233.768 950.667 236.309C950.455 236.52 950.243 236.732 950.032 236.944L915.738 272.827L964.003 337.606C965.274 339.3 966.332 341.417 967.179 343.957C968.237 346.286 968.766 349.144 968.766 352.531C968.766 358.459 966.65 363.751 962.416 368.409C958.182 372.854 952.995 375.077 946.856 375.077C941.776 375.077 937.542 374.019 934.155 371.902C930.768 369.996 928.016 367.456 925.899 364.281L882.078 302.359L865.884 316.648V351.896C865.884 359.306 863.767 365.021 859.533 369.044C855.511 373.066 849.901 375.077 842.704 375.077C835.506 375.077 829.79 373.066 825.557 369.044C821.534 365.021 819.523 359.306 819.523 351.896Z" fill="#208F4F"/>
</g>
<g style="mix-blend-mode:hard-light">
<path d="M823.523 351.896V161.367C823.523 153.958 825.534 148.242 829.557 144.219C833.79 140.197 839.506 138.186 846.704 138.186C853.901 138.186 859.511 140.197 863.533 144.219C867.767 148.242 869.884 153.958 869.884 161.367V266.793L921.325 209.634C926.829 203.707 932.757 200.743 939.107 200.743C944.611 200.743 949.586 202.86 954.032 207.094C958.689 211.116 961.018 215.985 961.018 221.701C961.018 225.3 960.488 228.052 959.43 229.958C958.583 231.651 956.995 233.768 954.667 236.309C954.455 236.52 954.243 236.732 954.032 236.944L919.738 272.827L968.003 337.606C969.274 339.3 970.332 341.417 971.179 343.957C972.237 346.286 972.766 349.144 972.766 352.531C972.766 358.459 970.65 363.751 966.416 368.409C962.182 372.854 956.995 375.077 950.856 375.077C945.776 375.077 941.542 374.019 938.155 371.902C934.768 369.996 932.016 367.456 929.899 364.281L886.078 302.359L869.884 316.648V351.896C869.884 359.306 867.767 365.021 863.533 369.044C859.511 373.066 853.901 375.077 846.704 375.077C839.506 375.077 833.79 373.066 829.557 369.044C825.534 365.021 823.523 359.306 823.523 351.896Z" fill="#208F4F"/>
</g>
<g style="mix-blend-mode:darken">
<path d="M819.523 351.896V161.367C819.523 153.958 821.534 148.242 825.557 144.219C829.79 140.197 835.506 138.186 842.704 138.186C849.901 138.186 855.511 140.197 859.533 144.219C863.767 148.242 865.884 153.958 865.884 161.367V266.793L917.325 209.634C922.829 203.707 928.757 200.743 935.107 200.743C940.611 200.743 945.586 202.86 950.032 207.094C954.689 211.116 957.018 215.985 957.018 221.701C957.018 225.3 956.488 228.052 955.43 229.958C954.583 231.651 952.995 233.768 950.667 236.309C950.455 236.52 950.243 236.732 950.032 236.944L915.738 272.827L964.003 337.606C965.274 339.3 966.332 341.417 967.179 343.957C968.237 346.286 968.766 349.144 968.766 352.531C968.766 358.459 966.65 363.751 962.416 368.409C958.182 372.854 952.995 375.077 946.856 375.077C941.776 375.077 937.542 374.019 934.155 371.902C930.768 369.996 928.016 367.456 925.899 364.281L882.078 302.359L865.884 316.648V351.896C865.884 359.306 863.767 365.021 859.533 369.044C855.511 373.066 849.901 375.077 842.704 375.077C835.506 375.077 829.79 373.066 825.557 369.044C821.534 365.021 819.523 359.306 819.523 351.896Z" fill="#208F4F"/>
</g>
<g style="mix-blend-mode:hard-light">
<path d="M1173.62 352.686V223.126C1173.62 216.352 1175.53 211.059 1179.34 207.249C1183.36 203.438 1188.44 201.533 1194.58 201.533C1200.72 201.533 1205.7 203.438 1209.51 207.249C1213.53 211.059 1215.54 216.352 1215.54 223.126V240.909H1216.18C1219.35 229.477 1223.9 220.056 1229.83 212.647C1235.97 205.237 1244.22 201.533 1254.6 201.533C1262.01 201.533 1268.04 203.65 1272.7 207.884C1277.57 212.118 1280 217.516 1280 224.079C1280 232.123 1277.78 238.051 1273.33 241.861C1269.1 245.46 1263.7 247.26 1257.14 247.26H1248.88C1239.14 247.26 1231.84 251.176 1226.97 259.009C1222.31 266.842 1219.99 280.073 1219.99 298.703V352.686C1219.99 359.672 1218.19 365.282 1214.59 369.516C1211.2 373.75 1205.27 375.867 1196.81 375.867C1188.34 375.867 1182.3 373.75 1178.71 369.516C1175.32 365.282 1173.62 359.672 1173.62 352.686Z" fill="#208F4F"/>
</g>
<g style="mix-blend-mode:hard-light">
<path d="M1173.62 352.686V223.126C1173.62 216.352 1175.53 211.059 1179.34 207.249C1183.36 203.438 1188.44 201.533 1194.58 201.533C1200.72 201.533 1205.7 203.438 1209.51 207.249C1213.53 211.059 1215.54 216.352 1215.54 223.126V240.909H1216.18C1219.35 229.477 1223.9 220.056 1229.83 212.647C1235.97 205.237 1244.22 201.533 1254.6 201.533C1262.01 201.533 1268.04 203.65 1272.7 207.884C1277.57 212.118 1280 217.516 1280 224.079C1280 232.123 1277.78 238.051 1273.33 241.861C1269.1 245.46 1263.7 247.26 1257.14 247.26H1248.88C1239.14 247.26 1231.84 251.176 1226.97 259.009C1222.31 266.842 1219.99 280.073 1219.99 298.703V352.686C1219.99 359.672 1218.19 365.282 1214.59 369.516C1211.2 373.75 1205.27 375.867 1196.81 375.867C1188.34 375.867 1182.3 373.75 1178.71 369.516C1175.32 365.282 1173.62 359.672 1173.62 352.686Z" fill="#208F4F"/>
</g>
<g style="mix-blend-mode:darken">
<path d="M1177.62 352.686V223.126C1177.62 216.352 1179.53 211.059 1183.34 207.249C1187.36 203.438 1192.44 201.533 1198.58 201.533C1204.72 201.533 1209.7 203.438 1213.51 207.249C1217.53 211.059 1219.54 216.352 1219.54 223.126V240.909H1220.18C1223.35 229.477 1227.9 220.056 1233.83 212.647C1239.97 205.237 1248.22 201.533 1258.6 201.533C1266.01 201.533 1272.04 203.65 1276.7 207.884C1281.57 212.118 1284 217.516 1284 224.079C1284 232.123 1281.78 238.051 1277.33 241.861C1273.1 245.46 1267.7 247.26 1261.14 247.26H1252.88C1243.14 247.26 1235.84 251.176 1230.97 259.009C1226.31 266.842 1223.99 280.073 1223.99 298.703V352.686C1223.99 359.672 1222.19 365.282 1218.59 369.516C1215.2 373.75 1209.27 375.867 1200.81 375.867C1192.34 375.867 1186.3 373.75 1182.71 369.516C1179.32 365.282 1177.62 359.672 1177.62 352.686Z" fill="#208F4F"/>
</g>
<g style="mix-blend-mode:darken">
<path d="M1123.18 297.432H1018.4C1018.4 309.923 1022.21 320.084 1029.83 327.917C1037.45 335.75 1047.93 339.666 1061.26 339.666C1070.15 339.666 1077.03 338.502 1081.9 336.173C1086.98 333.633 1092.06 330.14 1097.15 325.694C1100.32 322.73 1103.18 320.508 1105.72 319.026C1108.26 317.544 1111.33 316.803 1114.93 316.803C1120.22 316.803 1124.67 318.708 1128.26 322.519C1132.07 326.329 1133.98 330.457 1133.98 334.903C1133.98 341.466 1131.65 347.393 1126.99 352.686C1122.34 357.767 1116.2 362.106 1108.58 365.705C1101.17 369.092 1093.23 371.633 1084.76 373.326C1076.51 375.02 1068.67 375.867 1061.26 375.867C1045.81 375.867 1032.37 373.538 1020.94 368.881C1009.5 364.012 1000.19 357.555 992.993 349.51C985.795 341.466 980.503 332.469 977.116 322.519C973.729 312.569 972.035 302.301 972.035 291.716C972.035 264.407 979.868 242.602 995.533 226.301C1011.2 209.789 1032.58 201.533 1059.68 201.533C1072.59 201.533 1084.23 203.65 1094.6 207.884C1105.19 211.906 1114.08 217.622 1121.28 225.031C1128.69 232.229 1134.19 240.379 1137.79 249.483C1141.6 258.374 1143.51 267.689 1143.51 277.427C1143.51 285.26 1142.02 290.552 1139.06 293.304C1136.31 296.056 1131.02 297.432 1123.18 297.432ZM1018.4 270.758H1099.69C1098.42 259.962 1094.08 251.176 1086.67 244.402C1079.47 237.416 1070.79 233.923 1060.63 233.923C1049.41 233.923 1040.2 237.204 1033 243.767C1025.8 250.118 1020.94 259.115 1018.4 270.758Z" fill="#208F4F"/>
</g>
<g style="mix-blend-mode:darken">
<path d="M1123.18 297.432H1018.4C1018.4 309.923 1022.21 320.084 1029.83 327.917C1037.45 335.75 1047.93 339.666 1061.26 339.666C1070.15 339.666 1077.03 338.502 1081.9 336.173C1086.98 333.633 1092.06 330.14 1097.15 325.694C1100.32 322.73 1103.18 320.508 1105.72 319.026C1108.26 317.544 1111.33 316.803 1114.93 316.803C1120.22 316.803 1124.67 318.708 1128.26 322.519C1132.07 326.329 1133.98 330.457 1133.98 334.903C1133.98 341.466 1131.65 347.393 1126.99 352.686C1122.34 357.767 1116.2 362.106 1108.58 365.705C1101.17 369.092 1093.23 371.633 1084.76 373.326C1076.51 375.02 1068.67 375.867 1061.26 375.867C1045.81 375.867 1032.37 373.538 1020.94 368.881C1009.5 364.012 1000.19 357.555 992.993 349.51C985.795 341.466 980.503 332.469 977.116 322.519C973.729 312.569 972.035 302.301 972.035 291.716C972.035 264.407 979.868 242.602 995.533 226.301C1011.2 209.789 1032.58 201.533 1059.68 201.533C1072.59 201.533 1084.23 203.65 1094.6 207.884C1105.19 211.906 1114.08 217.622 1121.28 225.031C1128.69 232.229 1134.19 240.379 1137.79 249.483C1141.6 258.374 1143.51 267.689 1143.51 277.427C1143.51 285.26 1142.02 290.552 1139.06 293.304C1136.31 296.056 1131.02 297.432 1123.18 297.432ZM1018.4 270.758H1099.69C1098.42 259.962 1094.08 251.176 1086.67 244.402C1079.47 237.416 1070.79 233.923 1060.63 233.923C1049.41 233.923 1040.2 237.204 1033 243.767C1025.8 250.118 1020.94 259.115 1018.4 270.758Z" fill="#208F4F"/>
</g>
<g style="mix-blend-mode:hard-light">
<path d="M1127.18 297.432H1022.4C1022.4 309.923 1026.21 320.084 1033.83 327.917C1041.45 335.75 1051.93 339.666 1065.26 339.666C1074.15 339.666 1081.03 338.502 1085.9 336.173C1090.98 333.633 1096.06 330.14 1101.15 325.694C1104.32 322.73 1107.18 320.508 1109.72 319.026C1112.26 317.544 1115.33 316.803 1118.93 316.803C1124.22 316.803 1128.67 318.708 1132.26 322.519C1136.07 326.329 1137.98 330.457 1137.98 334.903C1137.98 341.466 1135.65 347.393 1130.99 352.686C1126.34 357.767 1120.2 362.106 1112.58 365.705C1105.17 369.092 1097.23 371.633 1088.76 373.326C1080.51 375.02 1072.67 375.867 1065.26 375.867C1049.81 375.867 1036.37 373.538 1024.94 368.881C1013.5 364.012 1004.19 357.555 996.993 349.51C989.795 341.466 984.503 332.469 981.116 322.519C977.729 312.569 976.035 302.301 976.035 291.716C976.035 264.407 983.868 242.602 999.533 226.301C1015.2 209.789 1036.58 201.533 1063.68 201.533C1076.59 201.533 1088.23 203.65 1098.6 207.884C1109.19 211.906 1118.08 217.622 1125.28 225.031C1132.69 232.229 1138.19 240.379 1141.79 249.483C1145.6 258.374 1147.51 267.689 1147.51 277.427C1147.51 285.26 1146.02 290.552 1143.06 293.304C1140.31 296.056 1135.02 297.432 1127.18 297.432ZM1022.4 270.758H1103.69C1102.42 259.962 1098.08 251.176 1090.67 244.402C1083.47 237.416 1074.79 233.923 1064.63 233.923C1053.41 233.923 1044.2 237.204 1037 243.767C1029.8 250.118 1024.94 259.115 1022.4 270.758Z" fill="#208F4F"/>
</g>
<g style="mix-blend-mode:hard-light">
<path d="M284.39 350.008V222.036C284.39 215.05 286.084 209.44 289.471 205.206C293.07 200.972 299.103 198.855 307.57 198.855C316.038 198.855 321.965 200.972 325.353 205.206C328.951 209.44 330.751 215.05 330.751 222.036V350.008C330.751 356.994 328.951 362.604 325.353 366.838C321.965 371.072 316.038 373.189 307.57 373.189C299.103 373.189 293.07 371.072 289.471 366.838C286.084 362.604 284.39 356.994 284.39 350.008ZM283.438 159.161C283.438 152.387 285.766 146.671 290.423 142.013C295.081 137.356 300.796 135.027 307.57 135.027C314.345 135.027 320.06 137.356 324.717 142.013C329.375 146.671 331.703 152.387 331.703 159.161C331.703 165.935 329.375 171.651 324.717 176.309C320.06 180.966 314.345 183.295 307.57 183.295C300.796 183.295 295.081 180.966 290.423 176.309C285.766 171.651 283.438 165.935 283.438 159.161Z" fill="#208F4F"/>
</g>
<g style="mix-blend-mode:hard-light">
<path d="M285.179 350.008V222.036C285.179 215.05 286.873 209.44 290.26 205.206C293.859 200.972 299.892 198.855 308.359 198.855C316.827 198.855 322.755 200.972 326.142 205.206C329.74 209.44 331.54 215.05 331.54 222.036V350.008C331.54 356.994 329.74 362.604 326.142 366.838C322.755 371.072 316.827 373.189 308.359 373.189C299.892 373.189 293.859 371.072 290.26 366.838C286.873 362.604 285.179 356.994 285.179 350.008ZM284.227 159.161C284.227 152.387 286.555 146.671 291.212 142.013C295.87 137.356 301.585 135.027 308.359 135.027C315.134 135.027 320.849 137.356 325.507 142.013C330.164 146.671 332.492 152.387 332.492 159.161C332.492 165.935 330.164 171.651 325.507 176.309C320.849 180.966 315.134 183.295 308.359 183.295C301.585 183.295 295.87 180.966 291.212 176.309C286.555 171.651 284.227 165.935 284.227 159.161Z" fill="#208F4F"/>
</g>
<g style="mix-blend-mode:darken">
<path d="M285.179 350.008V222.036C285.179 215.05 286.873 209.44 290.26 205.206C293.859 200.972 299.892 198.855 308.359 198.855C316.827 198.855 322.755 200.972 326.142 205.206C329.74 209.44 331.54 215.05 331.54 222.036V350.008C331.54 356.994 329.74 362.604 326.142 366.838C322.755 371.072 316.827 373.189 308.359 373.189C299.892 373.189 293.859 371.072 290.26 366.838C286.873 362.604 285.179 356.994 285.179 350.008ZM284.227 159.161C284.227 152.387 286.555 146.671 291.212 142.013C295.87 137.356 301.585 135.027 308.359 135.027C315.134 135.027 320.849 137.356 325.507 142.013C330.164 146.671 332.492 152.387 332.492 159.161C332.492 165.935 330.164 171.651 325.507 176.309C320.849 180.966 315.134 183.295 308.359 183.295C301.585 183.295 295.87 180.966 291.212 176.309C286.555 171.651 284.227 165.935 284.227 159.161Z" fill="#208F4F"/>
</g>
<path d="M333.177 158.321C333.177 172.057 322.043 183.193 308.307 183.193C294.572 183.193 283.438 172.057 283.438 158.321C283.438 144.584 294.572 133.448 308.307 133.448C322.043 133.448 333.177 144.584 333.177 158.321Z" fill="#0485A2"/>
<g style="mix-blend-mode:hard-light">
<path d="M215.539 350.317V159.788C215.539 152.379 217.55 146.663 221.572 142.64C225.806 138.618 231.522 136.607 238.719 136.607C245.917 136.607 251.527 138.618 255.549 142.64C259.783 146.663 261.9 152.379 261.9 159.788V350.317C261.9 357.727 259.783 363.442 255.549 367.465C251.527 371.487 245.917 373.498 238.719 373.498C231.522 373.498 225.806 371.487 221.572 367.465C217.55 363.442 215.539 357.727 215.539 350.317Z" fill="#208F4F"/>
</g>
<g style="mix-blend-mode:hard-light">
<path d="M216.328 350.798V160.268C216.328 152.859 218.339 147.143 222.361 143.121C226.595 139.099 232.311 137.087 239.508 137.087C246.706 137.087 252.316 139.099 256.338 143.121C260.572 147.143 262.689 152.859 262.689 160.268V350.798C262.689 358.207 260.572 363.923 256.338 367.945C252.316 371.967 246.706 373.979 239.508 373.979C232.311 373.979 226.595 371.967 222.361 367.945C218.339 363.923 216.328 358.207 216.328 350.798Z" fill="#208F4F"/>
</g>
<g style="mix-blend-mode:darken">
<path d="M215.539 350.317V159.788C215.539 152.379 217.55 146.663 221.572 142.64C225.806 138.618 231.522 136.607 238.719 136.607C245.917 136.607 251.527 138.618 255.549 142.64C259.783 146.663 261.9 152.379 261.9 159.788V350.317C261.9 357.727 259.783 363.442 255.549 367.465C251.527 371.487 245.917 373.498 238.719 373.498C231.522 373.498 225.806 371.487 221.572 367.465C217.55 363.442 215.539 357.727 215.539 350.317Z" fill="#208F4F"/>
</g>
<g style="mix-blend-mode:hard-light">
<path d="M0 344.232V176.567C0 165.558 2.54031 157.725 7.62092 153.068C12.9132 148.411 20.5341 146.082 30.4837 146.082H99.707C110.503 146.082 120.665 146.929 130.191 148.622C139.717 150.104 148.502 152.962 156.546 157.196C164.591 161.43 171.047 167.464 175.916 175.296C180.785 183.129 183.22 193.079 183.22 205.146C183.22 215.308 180.468 224.516 174.964 232.773C169.46 241.029 161.521 247.274 151.148 251.508V252.143C163.85 255.53 173.693 261.776 180.679 270.879C187.665 279.77 191.158 291.837 191.158 307.079C191.158 318.723 188.935 328.884 184.49 337.564C180.256 346.032 174.223 353.018 166.39 358.522C158.557 364.026 149.561 368.154 139.399 370.906C129.45 373.447 118.653 374.717 107.01 374.717H30.4837C20.5341 374.717 12.9132 372.388 7.62092 367.731C2.54031 363.073 0 355.241 0 344.232ZM52.0763 273.101V334.706H95.8966C101.612 334.706 106.905 334.282 111.773 333.436C116.854 332.589 121.405 331.107 125.428 328.99C129.661 326.873 132.943 323.803 135.271 319.781C137.812 315.759 139.082 310.572 139.082 304.221C139.082 297.658 137.706 292.26 134.954 288.026C132.413 283.792 128.815 280.617 124.157 278.5C119.712 276.383 114.631 275.007 108.916 274.372C103.2 273.525 96.7434 273.101 89.5458 273.101H52.0763ZM52.0763 184.188V240.076H94.944C119.077 240.076 131.143 230.762 131.143 212.132C131.143 201.971 127.65 194.773 120.665 190.539C113.679 186.305 104.576 184.188 93.3563 184.188H52.0763Z" fill="#208F4F"/>
</g>
<g style="mix-blend-mode:hard-light">
<path d="M0.789062 344.232V176.567C0.789062 165.558 3.32937 157.725 8.40998 153.068C13.7023 148.411 21.3232 146.082 31.2727 146.082H100.496C111.292 146.082 121.454 146.929 130.98 148.622C140.506 150.104 149.291 152.962 157.335 157.196C165.38 161.43 171.836 167.464 176.705 175.296C181.574 183.129 184.009 193.079 184.009 205.146C184.009 215.308 181.257 224.516 175.753 232.773C170.249 241.029 162.31 247.274 151.937 251.508V252.143C164.639 255.53 174.483 261.776 181.468 270.879C188.454 279.77 191.947 291.837 191.947 307.079C191.947 318.723 189.724 328.884 185.279 337.564C181.045 346.032 175.012 353.018 167.179 358.522C159.347 364.026 150.35 368.154 140.188 370.906C130.239 373.447 119.443 374.717 107.799 374.717H31.2727C21.3232 374.717 13.7023 372.388 8.40998 367.731C3.32937 363.073 0.789062 355.241 0.789062 344.232ZM52.8653 273.101V334.706H96.6856C102.401 334.706 107.694 334.282 112.563 333.436C117.643 332.589 122.195 331.107 126.217 328.99C130.451 326.873 133.732 323.803 136.06 319.781C138.601 315.759 139.871 310.572 139.871 304.221C139.871 297.658 138.495 292.26 135.743 288.026C133.203 283.792 129.604 280.617 124.947 278.5C120.501 276.383 115.42 275.007 109.705 274.372C103.989 273.525 97.5324 273.101 90.3349 273.101H52.8653ZM52.8653 184.188V240.076H95.733C119.866 240.076 131.932 230.762 131.932 212.132C131.932 201.971 128.439 194.773 121.454 190.539C114.468 186.305 105.365 184.188 94.1453 184.188H52.8653Z" fill="#208F4F"/>
</g>
<g style="mix-blend-mode:darken">
<path d="M0 344.232V176.567C0 165.558 2.54031 157.725 7.62092 153.068C12.9132 148.411 20.5341 146.082 30.4837 146.082H99.707C110.503 146.082 120.665 146.929 130.191 148.622C139.717 150.104 148.502 152.962 156.546 157.196C164.591 161.43 171.047 167.464 175.916 175.296C180.785 183.129 183.22 193.079 183.22 205.146C183.22 215.308 180.468 224.516 174.964 232.773C169.46 241.029 161.521 247.274 151.148 251.508V252.143C163.85 255.53 173.693 261.776 180.679 270.879C187.665 279.77 191.158 291.837 191.158 307.079C191.158 318.723 188.935 328.884 184.49 337.564C180.256 346.032 174.223 353.018 166.39 358.522C158.557 364.026 149.561 368.154 139.399 370.906C129.45 373.447 118.654 374.717 107.01 374.717H30.4837C20.5341 374.717 12.9132 372.388 7.62092 367.731C2.54031 363.073 0 355.241 0 344.232ZM52.0763 273.101V334.706H95.8966C101.612 334.706 106.905 334.282 111.773 333.436C116.854 332.589 121.405 331.107 125.428 328.99C129.661 326.873 132.943 323.803 135.271 319.781C137.812 315.759 139.082 310.572 139.082 304.221C139.082 297.658 137.706 292.26 134.954 288.026C132.413 283.792 128.815 280.617 124.157 278.5C119.712 276.383 114.631 275.007 108.916 274.372C103.2 273.525 96.7433 273.101 89.5458 273.101H52.0763ZM52.0763 184.188V240.076H94.944C119.077 240.076 131.143 230.762 131.143 212.132C131.143 201.971 127.65 194.773 120.665 190.539C113.679 186.305 104.576 184.188 93.3563 184.188H52.0763Z" fill="#208F4F"/>
</g>
<g style="mix-blend-mode:hard-light">
<path d="M352.969 350.937V222.96C352.969 215.762 354.663 210.152 358.05 206.129C361.649 201.895 366.942 199.778 373.929 199.778C380.916 199.778 386.103 201.895 389.491 206.129C393.09 210.152 394.89 215.762 394.89 222.96V228.993H395.525C402.724 219.678 410.769 212.48 419.662 207.399C428.766 202.318 439.458 199.778 451.738 199.778C459.148 199.778 466.241 200.836 473.016 202.953C480.003 204.859 486.249 208.246 491.753 213.115C497.47 217.773 501.916 224.124 505.092 232.169C508.48 240.002 510.173 249.529 510.173 260.75V350.937C510.173 357.923 508.374 363.534 504.774 367.768C501.387 372.002 495.459 374.119 486.99 374.119C478.521 374.119 472.487 372.002 468.887 367.768C465.5 363.534 463.806 357.923 463.806 350.937V269.959C463.806 260.22 461.371 252.493 456.501 246.777C451.632 240.849 444.327 237.885 434.588 237.885C425.696 237.885 417.544 241.273 410.134 248.047C402.935 254.61 399.336 263.396 399.336 274.405V350.937C399.336 357.923 397.536 363.534 393.937 367.768C390.55 372.002 384.621 374.119 376.152 374.119C367.684 374.119 361.649 372.002 358.05 367.768C354.663 363.534 352.969 357.923 352.969 350.937Z" fill="#208F4F"/>
</g>
<g style="mix-blend-mode:hard-light">
<path d="M356.969 350.937V222.96C356.969 215.762 358.663 210.152 362.05 206.129C365.649 201.895 370.942 199.778 377.929 199.778C384.916 199.778 390.103 201.895 393.491 206.129C397.09 210.152 398.89 215.762 398.89 222.96V228.993H399.525C406.724 219.678 414.769 212.48 423.662 207.399C432.766 202.318 443.458 199.778 455.738 199.778C463.148 199.778 470.241 200.836 477.016 202.953C484.003 204.859 490.249 208.246 495.753 213.115C501.47 217.773 505.916 224.124 509.092 232.169C512.48 240.002 514.173 249.529 514.173 260.75V350.937C514.173 357.923 512.374 363.534 508.774 367.768C505.387 372.002 499.459 374.119 490.99 374.119C482.521 374.119 476.487 372.002 472.887 367.768C469.5 363.534 467.806 357.923 467.806 350.937V269.959C467.806 260.22 465.371 252.493 460.501 246.777C455.632 240.849 448.327 237.885 438.588 237.885C429.696 237.885 421.544 241.273 414.134 248.047C406.935 254.61 403.336 263.396 403.336 274.405V350.937C403.336 357.923 401.536 363.534 397.937 367.768C394.55 372.002 388.621 374.119 380.152 374.119C371.684 374.119 365.649 372.002 362.05 367.768C358.663 363.534 356.969 357.923 356.969 350.937Z" fill="#208F4F"/>
</g>
<g style="mix-blend-mode:darken">
<path d="M352.969 350.937V222.96C352.969 215.762 354.663 210.152 358.05 206.129C361.649 201.895 366.942 199.778 373.929 199.778C380.916 199.778 386.103 201.895 389.491 206.129C393.09 210.152 394.89 215.762 394.89 222.96V228.993H395.525C402.724 219.678 410.769 212.48 419.662 207.399C428.766 202.318 439.458 199.778 451.738 199.778C459.148 199.778 466.241 200.836 473.016 202.953C480.003 204.859 486.249 208.246 491.753 213.115C497.47 217.773 501.916 224.124 505.092 232.169C508.48 240.002 510.173 249.529 510.173 260.75V350.937C510.173 357.923 508.374 363.534 504.774 367.768C501.387 372.002 495.459 374.119 486.99 374.119C478.521 374.119 472.487 372.002 468.887 367.768C465.5 363.534 463.806 357.923 463.806 350.937V269.959C463.806 260.22 461.371 252.493 456.501 246.777C451.632 240.849 444.327 237.885 434.588 237.885C425.696 237.885 417.544 241.273 410.134 248.047C402.935 254.61 399.336 263.396 399.336 274.405V350.937C399.336 357.923 397.536 363.534 393.937 367.768C390.55 372.002 384.621 374.119 376.152 374.119C367.684 374.119 361.649 372.002 358.05 367.768C354.663 363.534 352.969 357.923 352.969 350.937Z" fill="#208F4F"/>
</g>
<g filter="url(#filter0_dd_364_895)">
<g clip-path="url(#clip0_364_895)">
<g clip-path="url(#clip1_364_895)">
<path d="M669.122 53.327C670.177 50.2692 674.502 50.2692 675.558 53.327L699.131 121.594C699.895 123.806 698.252 126.111 695.913 126.111H648.767C646.427 126.111 644.785 123.806 645.549 121.594L669.122 53.327Z" fill="#0485A2"/>
<g filter="url(#filter1_dd_364_895)">
<path fill-rule="evenodd" clip-rule="evenodd" d="M669.176 100.886C648.098 100.886 604.369 110.263 582.242 185.426C564.756 244.828 562.38 308.871 560.772 352.218C560.332 364.077 559.949 374.387 559.331 382.63L557.891 544.217C557.977 563.379 563.259 601.702 583.683 601.702C586.912 601.833 593.555 602.147 594.287 602.357C594.834 602.513 594.784 602.727 594.723 602.989C594.703 603.078 594.681 603.173 594.681 603.273L594.549 605.369C594.549 605.831 594.538 606.317 594.525 606.859C594.495 608.157 594.457 609.776 594.549 612.178C594.706 616.253 594.812 618.857 604.238 618.857H660.798C664.376 618.901 668.662 614.798 668.662 611.394C668.662 609.557 668.621 607.949 668.583 606.467C668.552 605.201 668.522 604.027 668.522 602.882C668.522 602.816 668.519 602.748 668.516 602.682C668.493 602.218 668.47 601.781 669.57 601.964C670.826 602.174 677.686 602.051 680.959 601.964H700.467C701.166 601.921 702.484 602.148 702.17 603.406V611.394C702.17 613.925 703.845 618.962 710.549 618.857C717.252 618.752 741.884 618.814 753.361 618.857C756.242 618.77 762.028 616.657 762.133 608.905V601.834C762.177 601.66 762.369 601.311 762.788 601.311C763.206 601.311 772.738 598.866 777.451 597.644C779.153 597.12 784.312 595.129 784.521 593.976C785.634 587.854 786.58 538.352 784.521 481.1C782.485 424.468 781.118 396.772 779.284 360.369C779.284 358.397 777.967 326.731 777.975 324.621L776.928 306.026L775.88 291.36C774.571 269.885 772.869 220.257 762.526 181.89C745.567 106.334 696.802 100.18 669.176 100.886Z" fill="#0E6F3A"/>
</g>
<path d="M611.9 172.735C620.332 156.297 633.144 152.649 638.392 152.692C641.935 152.998 650.201 155.181 654.923 161.469C660.828 169.329 663.322 182.237 665.025 195.136C666.6 207.056 665.708 225.396 662.664 240.33C662.664 240.33 660.828 254.609 649.282 272.425C634.85 294.695 613.859 275.962 610.317 271.508C606.775 267.054 600.87 252.644 599.82 240.592C598.981 230.951 600.126 217.012 601.264 207.319C602.848 193.825 606.389 183.477 611.9 172.735Z" fill="#FEE6CA"/>
<path d="M674.88 188.805C677.704 162.614 692.445 153.098 699.461 151.613C701.867 151.195 704.997 151.439 706.261 151.613C716.303 152.766 723.346 159.951 725.612 163.4C729.404 168.507 737.616 183.331 740.127 201.77C742.637 220.208 740.214 240.881 738.688 248.913C735.637 261.397 725.012 285.79 706.915 283.485C688.819 281.18 678.887 261.035 677.449 253.658C674.572 241.348 672.055 214.996 674.88 188.805Z" fill="#FEE6CA"/>
<path d="M637.505 205.571C641.06 205.204 647.46 207.92 647.722 213.943C647.983 219.966 646.282 224.649 640.292 227.21C635.2 229.387 627.948 228.825 627.945 218.606C627.945 209.239 634.296 205.997 637.505 205.571ZM704.557 205.58C710.183 205.826 713.653 210.421 713.96 215.4C714.266 220.38 712.275 223.952 709.003 226.815C705.732 229.678 693.939 229.554 694.81 218.615C695.507 209.863 701.599 206.278 704.557 205.58ZM640.91 208.775C640.65 208.721 640.024 208.632 639.601 208.718C638.357 209.187 636.228 210.924 637.661 214.123C639.453 218.121 645.892 217.749 645.54 213.814C645.258 210.665 642.336 209.142 640.91 208.775ZM708.142 209.231C707.755 209.083 706.831 208.921 705.503 209.639C704.16 210.364 702.84 213.574 703.397 215.82C703.954 218.065 708.836 217.364 710.229 215.464C711.344 213.945 710.8 212.396 710.389 211.812C709.895 211.137 708.91 209.656 708.142 209.231Z" fill="#0A0000"/>
<path d="M571.322 355.819C572.05 354.472 573.773 354.033 575.056 354.869L601.42 372.044C602.631 372.832 602.974 374.455 602.184 375.667L541.594 468.677C540.32 470.631 537.319 470.071 536.836 467.788L529.736 434.145C529.608 433.539 529.7 432.906 529.994 432.361L571.322 355.819Z" fill="#0E6F3A"/>
<path d="M598.042 373.028C598.784 371.823 598.436 370.247 597.255 369.468L566.241 348.993C564.883 348.096 563.045 348.641 562.396 350.134L516.717 455.182C515.79 457.313 517.891 459.505 520.06 458.67L552.282 446.265C552.818 446.059 553.27 445.683 553.571 445.195L598.042 373.028Z" fill="#0E6F3A"/>
<path d="M769.236 355.928C768.509 354.58 766.786 354.141 765.502 354.978L739.139 372.151C737.927 372.941 737.585 374.564 738.374 375.775L798.965 468.785C800.239 470.74 803.24 470.179 803.722 467.896L810.822 434.254C810.95 433.648 810.859 433.015 810.565 432.469L769.236 355.928Z" fill="#0E6F3A"/>
<path d="M742.519 373.136C741.776 371.932 742.125 370.356 743.305 369.577L774.321 349.101C775.678 348.204 777.516 348.75 778.164 350.242L823.844 455.29C824.77 457.421 822.67 459.613 820.502 458.779L788.278 446.373C787.744 446.167 787.29 445.792 786.99 445.303L742.519 373.136Z" fill="#0E6F3A"/>
<path d="M668.844 290.878C669.929 290.859 670.824 291.723 670.843 292.808C670.862 293.892 669.998 294.787 668.914 294.806L658.409 294.991L658.208 294.985C657.216 294.901 656.428 294.078 656.41 293.061C656.392 291.977 657.255 291.082 658.34 291.063L668.844 290.878Z" fill="#090909"/>
<path d="M736.496 478.429C736.496 543.919 704.982 567.004 665.785 567.004C626.588 567.004 594.551 543.919 594.551 478.429C594.551 412.939 626.326 359.849 665.523 359.849C704.72 359.849 736.496 412.939 736.496 478.429Z" fill="#559472"/>
</g>
</g>
</g>
<defs>
<filter id="filter0_dd_364_895" x="497.311" y="5.31091" width="341.378" height="419.378" filterUnits="userSpaceOnUse" color-interpolation-filters="sRGB">
<feFlood flood-opacity="0" result="BackgroundImageFix"/>
<feColorMatrix in="SourceAlpha" type="matrix" values="0 0 0 0 0 0 0 0 0 0 0 0 0 0 0 0 0 0 127 0" result="hardAlpha"/>
<feOffset dy="3.15855"/>
<feGaussianBlur stdDeviation="7.89636"/>
<feComposite in2="hardAlpha" operator="out"/>
<feColorMatrix type="matrix" values="0 0 0 0 0.054902 0 0 0 0 0.435294 0 0 0 0 0.227451 0 0 0 0.1 0"/>
<feBlend mode="normal" in2="BackgroundImageFix" result="effect1_dropShadow_364_895"/>
<feColorMatrix in="SourceAlpha" type="matrix" values="0 0 0 0 0 0 0 0 0 0 0 0 0 0 0 0 0 0 127 0" result="hardAlpha"/>
<feOffset/>
<feGaussianBlur stdDeviation="11.8445"/>
<feComposite in2="hardAlpha" operator="out"/>
<feColorMatrix type="matrix" values="0 0 0 0 0 0 0 0 0 1 0 0 0 0 0.05 0 0 0 0.18 0"/>
<feBlend mode="normal" in2="effect1_dropShadow_364_895" result="effect2_dropShadow_364_895"/>
<feBlend mode="normal" in="SourceGraphic" in2="effect2_dropShadow_364_895" result="shape"/>
</filter>
<filter id="filter1_dd_364_895" x="538.939" y="88.2037" width="268.905" height="549.606" filterUnits="userSpaceOnUse" color-interpolation-filters="sRGB">
<feFlood flood-opacity="0" result="BackgroundImageFix"/>
<feColorMatrix in="SourceAlpha" type="matrix" values="0 0 0 0 0 0 0 0 0 0 0 0 0 0 0 0 0 0 127 0" result="hardAlpha"/>
<feOffset dx="-3.15855" dy="3.15855"/>
<feGaussianBlur stdDeviation="7.89636"/>
<feComposite in2="hardAlpha" operator="out"/>
<feColorMatrix type="matrix" values="0 0 0 0 0.054902 0 0 0 0 0.435294 0 0 0 0 0.227451 0 0 0 0.1 0"/>
<feBlend mode="normal" in2="BackgroundImageFix" result="effect1_dropShadow_364_895"/>
<feColorMatrix in="SourceAlpha" type="matrix" values="0 0 0 0 0 0 0 0 0 0 0 0 0 0 0 0 0 0 127 0" result="hardAlpha"/>
<feOffset dx="6.31709" dy="3.15855"/>
<feGaussianBlur stdDeviation="7.89636"/>
<feComposite in2="hardAlpha" operator="out"/>
<feColorMatrix type="matrix" values="0 0 0 0 0.054902 0 0 0 0 0.435294 0 0 0 0 0.227451 0 0 0 0.1 0"/>
<feBlend mode="normal" in2="effect1_dropShadow_364_895" result="effect2_dropShadow_364_895"/>
<feBlend mode="normal" in="SourceGraphic" in2="effect2_dropShadow_364_895" result="shape"/>
</filter>
<clipPath id="clip0_364_895">
<rect x="521" y="29" width="294" height="372" rx="147" fill="white"/>
</clipPath>
<clipPath id="clip1_364_895">
<rect width="523.529" height="574.066" fill="white" transform="translate(408.871 44.793)"/>
</clipPath>
</defs>
</svg>
