<svg width="1284" height="471" viewBox="0 0 1284 471" fill="none" xmlns="http://www.w3.org/2000/svg">
<path d="M1112.6 216.36L1159.98 219.518C1223.42 225.127 1275.66 281.624 1275.66 346.46C1275.66 415.033 1220.01 470.623 1151.37 470.623C1137.5 470.623 1079 452.109 1066.54 447.917L1066.51 448.035L1064.82 447.328C1060.34 445.746 1055.97 443.911 1051.74 441.846L301.641 182.629L312.361 135.027L1112.6 216.36Z" fill="#C8EDD4"/>
<g style="mix-blend-mode:hard-light">
<path d="M819.52 351.896V161.367C819.52 153.958 821.531 148.242 825.553 144.219C829.787 140.197 835.502 138.186 842.7 138.186C849.897 138.186 855.507 140.197 859.529 144.219C863.763 148.242 865.88 153.958 865.88 161.367V266.793L917.321 209.634C922.825 203.707 928.753 200.743 935.103 200.743C940.607 200.743 945.582 202.86 950.028 207.094C954.685 211.116 957.014 215.985 957.014 221.701C957.014 225.3 956.484 228.052 955.426 229.958C954.579 231.651 952.991 233.768 950.663 236.309C950.451 236.52 950.239 236.732 950.028 236.944L915.734 272.827L963.999 337.606C965.27 339.3 966.328 341.417 967.175 343.957C968.233 346.286 968.763 349.144 968.763 352.531C968.763 358.459 966.646 363.751 962.412 368.409C958.178 372.854 952.991 375.077 946.852 375.077C941.772 375.077 937.538 374.019 934.151 371.902C930.764 369.996 928.012 367.456 925.895 364.281L882.075 302.359L865.88 316.648V351.896C865.88 359.306 863.763 365.021 859.529 369.044C855.507 373.066 849.897 375.077 842.7 375.077C835.502 375.077 829.787 373.066 825.553 369.044C821.531 365.021 819.52 359.306 819.52 351.896Z" fill="#208F4F"/>
</g>
<g style="mix-blend-mode:hard-light">
<path d="M823.521 351.896V161.367C823.521 153.958 825.533 148.242 829.555 144.219C833.789 140.197 839.504 138.186 846.702 138.186C853.899 138.186 859.509 140.197 863.531 144.219C867.765 148.242 869.882 153.958 869.882 161.367V266.793L921.323 209.634C926.827 203.707 932.755 200.743 939.105 200.743C944.609 200.743 949.584 202.86 954.03 207.094C958.687 211.116 961.016 215.985 961.016 221.701C961.016 225.3 960.486 228.052 959.428 229.958C958.581 231.651 956.993 233.768 954.665 236.309C954.453 236.52 954.241 236.732 954.03 236.944L919.736 272.827L968.001 337.606C969.272 339.3 970.33 341.417 971.177 343.957C972.235 346.286 972.764 349.144 972.764 352.531C972.764 358.459 970.648 363.751 966.414 368.409C962.18 372.854 956.993 375.077 950.854 375.077C945.774 375.077 941.54 374.019 938.153 371.902C934.766 369.996 932.014 367.456 929.897 364.281L886.077 302.359L869.882 316.648V351.896C869.882 359.306 867.765 365.021 863.531 369.044C859.509 373.066 853.899 375.077 846.702 375.077C839.504 375.077 833.789 373.066 829.555 369.044C825.533 365.021 823.521 359.306 823.521 351.896Z" fill="#208F4F"/>
</g>
<g style="mix-blend-mode:darken">
<path d="M819.521 351.896V161.367C819.521 153.958 821.533 148.242 825.555 144.219C829.789 140.197 835.504 138.186 842.702 138.186C849.899 138.186 855.509 140.197 859.531 144.219C863.765 148.242 865.882 153.958 865.882 161.367V266.793L917.323 209.634C922.827 203.707 928.755 200.743 935.105 200.743C940.609 200.743 945.584 202.86 950.03 207.094C954.687 211.116 957.016 215.985 957.016 221.701C957.016 225.3 956.486 228.052 955.428 229.958C954.581 231.651 952.993 233.768 950.665 236.309C950.453 236.52 950.241 236.732 950.03 236.944L915.736 272.827L964.001 337.606C965.272 339.3 966.33 341.417 967.177 343.957C968.235 346.286 968.764 349.144 968.764 352.531C968.764 358.459 966.648 363.751 962.414 368.409C958.18 372.854 952.993 375.077 946.854 375.077C941.774 375.077 937.54 374.019 934.153 371.902C930.766 369.996 928.014 367.456 925.897 364.281L882.077 302.359L865.882 316.648V351.896C865.882 359.306 863.765 365.021 859.531 369.044C855.509 373.066 849.899 375.077 842.702 375.077C835.504 375.077 829.789 373.066 825.555 369.044C821.533 365.021 819.521 359.306 819.521 351.896Z" fill="#208F4F"/>
</g>
<g style="mix-blend-mode:hard-light">
<path d="M1173.62 352.686V223.126C1173.62 216.352 1175.53 211.059 1179.34 207.249C1183.36 203.438 1188.44 201.533 1194.58 201.533C1200.72 201.533 1205.7 203.438 1209.51 207.249C1213.53 211.059 1215.54 216.352 1215.54 223.126V240.909H1216.18C1219.35 229.477 1223.9 220.056 1229.83 212.647C1235.97 205.237 1244.22 201.533 1254.6 201.533C1262.01 201.533 1268.04 203.65 1272.7 207.884C1277.57 212.118 1280 217.516 1280 224.079C1280 232.123 1277.78 238.051 1273.33 241.861C1269.1 245.46 1263.7 247.26 1257.14 247.26H1248.88C1239.14 247.26 1231.84 251.176 1226.97 259.009C1222.31 266.842 1219.99 280.073 1219.99 298.703V352.686C1219.99 359.672 1218.19 365.282 1214.59 369.516C1211.2 373.75 1205.27 375.867 1196.81 375.867C1188.34 375.867 1182.3 373.75 1178.71 369.516C1175.32 365.282 1173.62 359.672 1173.62 352.686Z" fill="#208F4F"/>
</g>
<g style="mix-blend-mode:hard-light">
<path d="M1173.62 352.686V223.126C1173.62 216.352 1175.53 211.059 1179.34 207.249C1183.36 203.438 1188.44 201.533 1194.58 201.533C1200.72 201.533 1205.7 203.438 1209.51 207.249C1213.53 211.059 1215.54 216.352 1215.54 223.126V240.909H1216.18C1219.35 229.477 1223.9 220.056 1229.83 212.647C1235.97 205.237 1244.22 201.533 1254.6 201.533C1262.01 201.533 1268.04 203.65 1272.7 207.884C1277.57 212.118 1280 217.516 1280 224.079C1280 232.123 1277.78 238.051 1273.33 241.861C1269.1 245.46 1263.7 247.26 1257.14 247.26H1248.88C1239.14 247.26 1231.84 251.176 1226.97 259.009C1222.31 266.842 1219.99 280.073 1219.99 298.703V352.686C1219.99 359.672 1218.19 365.282 1214.59 369.516C1211.2 373.75 1205.27 375.867 1196.81 375.867C1188.34 375.867 1182.3 373.75 1178.71 369.516C1175.32 365.282 1173.62 359.672 1173.62 352.686Z" fill="#208F4F"/>
</g>
<g style="mix-blend-mode:darken">
<path d="M1177.62 352.686V223.126C1177.62 216.352 1179.53 211.059 1183.34 207.249C1187.36 203.438 1192.44 201.533 1198.58 201.533C1204.72 201.533 1209.7 203.438 1213.51 207.249C1217.53 211.059 1219.54 216.352 1219.54 223.126V240.909H1220.18C1223.35 229.477 1227.9 220.056 1233.83 212.647C1239.97 205.237 1248.22 201.533 1258.6 201.533C1266.01 201.533 1272.04 203.65 1276.7 207.884C1281.57 212.118 1284 217.516 1284 224.079C1284 232.123 1281.78 238.051 1277.33 241.861C1273.1 245.46 1267.7 247.26 1261.14 247.26H1252.88C1243.14 247.26 1235.84 251.176 1230.97 259.009C1226.31 266.842 1223.99 280.073 1223.99 298.703V352.686C1223.99 359.672 1222.19 365.282 1218.59 369.516C1215.2 373.75 1209.27 375.867 1200.81 375.867C1192.34 375.867 1186.3 373.75 1182.71 369.516C1179.32 365.282 1177.62 359.672 1177.62 352.686Z" fill="#208F4F"/>
</g>
<g style="mix-blend-mode:darken">
<path d="M1123.18 297.432H1018.4C1018.4 309.923 1022.21 320.084 1029.83 327.917C1037.45 335.75 1047.93 339.666 1061.26 339.666C1070.15 339.666 1077.03 338.502 1081.9 336.173C1086.98 333.633 1092.06 330.14 1097.15 325.694C1100.32 322.73 1103.18 320.508 1105.72 319.026C1108.26 317.544 1111.33 316.803 1114.93 316.803C1120.22 316.803 1124.67 318.708 1128.26 322.519C1132.07 326.329 1133.98 330.457 1133.98 334.903C1133.98 341.466 1131.65 347.393 1126.99 352.686C1122.34 357.767 1116.2 362.106 1108.58 365.705C1101.17 369.092 1093.23 371.633 1084.76 373.326C1076.51 375.02 1068.67 375.867 1061.26 375.867C1045.81 375.867 1032.37 373.538 1020.94 368.881C1009.5 364.012 1000.19 357.555 992.993 349.51C985.795 341.466 980.503 332.469 977.116 322.519C973.729 312.569 972.035 302.301 972.035 291.716C972.035 264.407 979.868 242.602 995.533 226.301C1011.2 209.789 1032.58 201.533 1059.68 201.533C1072.59 201.533 1084.23 203.65 1094.6 207.884C1105.19 211.906 1114.08 217.622 1121.28 225.031C1128.69 232.229 1134.19 240.379 1137.79 249.483C1141.6 258.374 1143.51 267.689 1143.51 277.427C1143.51 285.26 1142.02 290.552 1139.06 293.304C1136.31 296.056 1131.02 297.432 1123.18 297.432ZM1018.4 270.758H1099.69C1098.42 259.962 1094.08 251.176 1086.67 244.402C1079.47 237.416 1070.79 233.923 1060.63 233.923C1049.41 233.923 1040.2 237.204 1033 243.767C1025.8 250.118 1020.94 259.115 1018.4 270.758Z" fill="#208F4F"/>
</g>
<g style="mix-blend-mode:darken">
<path d="M1123.18 297.432H1018.4C1018.4 309.923 1022.21 320.084 1029.83 327.917C1037.45 335.75 1047.93 339.666 1061.26 339.666C1070.15 339.666 1077.03 338.502 1081.9 336.173C1086.98 333.633 1092.06 330.14 1097.15 325.694C1100.32 322.73 1103.18 320.508 1105.72 319.026C1108.26 317.544 1111.33 316.803 1114.93 316.803C1120.22 316.803 1124.67 318.708 1128.26 322.519C1132.07 326.329 1133.98 330.457 1133.98 334.903C1133.98 341.466 1131.65 347.393 1126.99 352.686C1122.34 357.767 1116.2 362.106 1108.58 365.705C1101.17 369.092 1093.23 371.633 1084.76 373.326C1076.51 375.02 1068.67 375.867 1061.26 375.867C1045.81 375.867 1032.37 373.538 1020.94 368.881C1009.5 364.012 1000.19 357.555 992.993 349.51C985.795 341.466 980.503 332.469 977.116 322.519C973.729 312.569 972.035 302.301 972.035 291.716C972.035 264.407 979.868 242.602 995.533 226.301C1011.2 209.789 1032.58 201.533 1059.68 201.533C1072.59 201.533 1084.23 203.65 1094.6 207.884C1105.19 211.906 1114.08 217.622 1121.28 225.031C1128.69 232.229 1134.19 240.379 1137.79 249.483C1141.6 258.374 1143.51 267.689 1143.51 277.427C1143.51 285.26 1142.02 290.552 1139.06 293.304C1136.31 296.056 1131.02 297.432 1123.18 297.432ZM1018.4 270.758H1099.69C1098.42 259.962 1094.08 251.176 1086.67 244.402C1079.47 237.416 1070.79 233.923 1060.63 233.923C1049.41 233.923 1040.2 237.204 1033 243.767C1025.8 250.118 1020.94 259.115 1018.4 270.758Z" fill="#208F4F"/>
</g>
<g style="mix-blend-mode:hard-light">
<path d="M1127.18 297.432H1022.4C1022.4 309.923 1026.21 320.084 1033.83 327.917C1041.45 335.75 1051.93 339.666 1065.26 339.666C1074.15 339.666 1081.03 338.502 1085.9 336.173C1090.98 333.633 1096.06 330.14 1101.15 325.694C1104.32 322.73 1107.18 320.508 1109.72 319.026C1112.26 317.544 1115.33 316.803 1118.93 316.803C1124.22 316.803 1128.67 318.708 1132.26 322.519C1136.07 326.329 1137.98 330.457 1137.98 334.903C1137.98 341.466 1135.65 347.393 1130.99 352.686C1126.34 357.767 1120.2 362.106 1112.58 365.705C1105.17 369.092 1097.23 371.633 1088.76 373.326C1080.51 375.02 1072.67 375.867 1065.26 375.867C1049.81 375.867 1036.37 373.538 1024.94 368.881C1013.5 364.012 1004.19 357.555 996.993 349.51C989.795 341.466 984.503 332.469 981.116 322.519C977.729 312.569 976.035 302.301 976.035 291.716C976.035 264.407 983.868 242.602 999.533 226.301C1015.2 209.789 1036.58 201.533 1063.68 201.533C1076.59 201.533 1088.23 203.65 1098.6 207.884C1109.19 211.906 1118.08 217.622 1125.28 225.031C1132.69 232.229 1138.19 240.379 1141.79 249.483C1145.6 258.374 1147.51 267.689 1147.51 277.427C1147.51 285.26 1146.02 290.552 1143.06 293.304C1140.31 296.056 1135.02 297.432 1127.18 297.432ZM1022.4 270.758H1103.69C1102.42 259.962 1098.08 251.176 1090.67 244.402C1083.47 237.416 1074.79 233.923 1064.63 233.923C1053.41 233.923 1044.2 237.204 1037 243.767C1029.8 250.118 1024.94 259.115 1022.4 270.758Z" fill="#208F4F"/>
</g>
<g style="mix-blend-mode:hard-light">
<path d="M284.394 350.008V222.036C284.394 215.05 286.088 209.44 289.475 205.206C293.073 200.972 299.107 198.855 307.574 198.855C316.042 198.855 321.969 200.972 325.356 205.206C328.955 209.44 330.755 215.05 330.755 222.036V350.008C330.755 356.994 328.955 362.604 325.356 366.838C321.969 371.072 316.042 373.189 307.574 373.189C299.107 373.189 293.073 371.072 289.475 366.838C286.088 362.604 284.394 356.994 284.394 350.008ZM283.441 159.161C283.441 152.387 285.77 146.671 290.427 142.013C295.084 137.356 300.8 135.027 307.574 135.027C314.348 135.027 320.064 137.356 324.721 142.013C329.379 146.671 331.707 152.387 331.707 159.161C331.707 165.935 329.379 171.651 324.721 176.309C320.064 180.966 314.348 183.295 307.574 183.295C300.8 183.295 295.084 180.966 290.427 176.309C285.77 171.651 283.441 165.935 283.441 159.161Z" fill="#208F4F"/>
</g>
<g style="mix-blend-mode:hard-light">
<path d="M285.181 350.008V222.036C285.181 215.05 286.875 209.44 290.262 205.206C293.861 200.972 299.894 198.855 308.361 198.855C316.829 198.855 322.757 200.972 326.144 205.206C329.742 209.44 331.542 215.05 331.542 222.036V350.008C331.542 356.994 329.742 362.604 326.144 366.838C322.757 371.072 316.829 373.189 308.361 373.189C299.894 373.189 293.861 371.072 290.262 366.838C286.875 362.604 285.181 356.994 285.181 350.008ZM284.229 159.161C284.229 152.387 286.557 146.671 291.214 142.013C295.872 137.356 301.587 135.027 308.361 135.027C315.136 135.027 320.851 137.356 325.509 142.013C330.166 146.671 332.494 152.387 332.494 159.161C332.494 165.935 330.166 171.651 325.509 176.309C320.851 180.966 315.136 183.295 308.361 183.295C301.587 183.295 295.872 180.966 291.214 176.309C286.557 171.651 284.229 165.935 284.229 159.161Z" fill="#208F4F"/>
</g>
<g style="mix-blend-mode:darken">
<path d="M285.181 350.008V222.036C285.181 215.05 286.875 209.44 290.262 205.206C293.861 200.972 299.894 198.855 308.361 198.855C316.829 198.855 322.757 200.972 326.144 205.206C329.742 209.44 331.542 215.05 331.542 222.036V350.008C331.542 356.994 329.742 362.604 326.144 366.838C322.757 371.072 316.829 373.189 308.361 373.189C299.894 373.189 293.861 371.072 290.262 366.838C286.875 362.604 285.181 356.994 285.181 350.008ZM284.229 159.161C284.229 152.387 286.557 146.671 291.214 142.013C295.872 137.356 301.587 135.027 308.361 135.027C315.136 135.027 320.851 137.356 325.509 142.013C330.166 146.671 332.494 152.387 332.494 159.161C332.494 165.935 330.166 171.651 325.509 176.309C320.851 180.966 315.136 183.295 308.361 183.295C301.587 183.295 295.872 180.966 291.214 176.309C286.557 171.651 284.229 165.935 284.229 159.161Z" fill="#208F4F"/>
</g>
<path d="M333.181 158.321C333.181 172.057 322.047 183.193 308.311 183.193C294.576 183.193 283.441 172.057 283.441 158.321C283.441 144.584 294.576 133.448 308.311 133.448C322.047 133.448 333.181 144.584 333.181 158.321Z" fill="#0485A2"/>
<g style="mix-blend-mode:hard-light">
<path d="M215.539 350.317V159.788C215.539 152.379 217.55 146.663 221.572 142.64C225.806 138.618 231.522 136.607 238.719 136.607C245.917 136.607 251.527 138.618 255.549 142.64C259.783 146.663 261.9 152.379 261.9 159.788V350.317C261.9 357.727 259.783 363.442 255.549 367.465C251.527 371.487 245.917 373.498 238.719 373.498C231.522 373.498 225.806 371.487 221.572 367.465C217.55 363.442 215.539 357.727 215.539 350.317Z" fill="#208F4F"/>
</g>
<g style="mix-blend-mode:hard-light">
<path d="M216.33 350.798V160.268C216.33 152.859 218.341 147.143 222.363 143.121C226.597 139.099 232.313 137.087 239.51 137.087C246.708 137.087 252.318 139.099 256.34 143.121C260.574 147.143 262.691 152.859 262.691 160.268V350.798C262.691 358.207 260.574 363.923 256.34 367.945C252.318 371.967 246.708 373.979 239.51 373.979C232.313 373.979 226.597 371.967 222.363 367.945C218.341 363.923 216.33 358.207 216.33 350.798Z" fill="#208F4F"/>
</g>
<g style="mix-blend-mode:darken">
<path d="M215.539 350.317V159.788C215.539 152.379 217.55 146.663 221.572 142.64C225.806 138.618 231.522 136.607 238.719 136.607C245.917 136.607 251.527 138.618 255.549 142.64C259.783 146.663 261.9 152.379 261.9 159.788V350.317C261.9 357.727 259.783 363.442 255.549 367.465C251.527 371.487 245.917 373.498 238.719 373.498C231.522 373.498 225.806 371.487 221.572 367.465C217.55 363.442 215.539 357.727 215.539 350.317Z" fill="#208F4F"/>
</g>
<g style="mix-blend-mode:hard-light">
<path d="M0 344.232V176.567C0 165.558 2.54031 157.725 7.62092 153.068C12.9132 148.411 20.5341 146.082 30.4837 146.082H99.707C110.503 146.082 120.665 146.929 130.191 148.622C139.717 150.104 148.502 152.962 156.546 157.196C164.591 161.43 171.047 167.464 175.916 175.296C180.785 183.129 183.22 193.079 183.22 205.146C183.22 215.308 180.468 224.516 174.964 232.773C169.46 241.029 161.521 247.274 151.148 251.508V252.143C163.85 255.53 173.693 261.776 180.679 270.879C187.665 279.77 191.158 291.837 191.158 307.079C191.158 318.723 188.935 328.884 184.49 337.564C180.256 346.032 174.223 353.018 166.39 358.522C158.557 364.026 149.561 368.154 139.399 370.906C129.45 373.447 118.653 374.717 107.01 374.717H30.4837C20.5341 374.717 12.9132 372.388 7.62092 367.731C2.54031 363.073 0 355.241 0 344.232ZM52.0763 273.101V334.706H95.8966C101.612 334.706 106.905 334.282 111.773 333.436C116.854 332.589 121.405 331.107 125.428 328.99C129.661 326.873 132.943 323.803 135.271 319.781C137.812 315.759 139.082 310.572 139.082 304.221C139.082 297.658 137.706 292.26 134.954 288.026C132.413 283.792 128.815 280.617 124.157 278.5C119.712 276.383 114.631 275.007 108.916 274.372C103.2 273.525 96.7434 273.101 89.5458 273.101H52.0763ZM52.0763 184.188V240.076H94.944C119.077 240.076 131.143 230.762 131.143 212.132C131.143 201.971 127.65 194.773 120.665 190.539C113.679 186.305 104.576 184.188 93.3563 184.188H52.0763Z" fill="#208F4F"/>
</g>
<g style="mix-blend-mode:hard-light">
<path d="M0.789062 344.232V176.567C0.789062 165.558 3.32937 157.725 8.40998 153.068C13.7023 148.411 21.3232 146.082 31.2727 146.082H100.496C111.292 146.082 121.454 146.929 130.98 148.622C140.506 150.104 149.291 152.962 157.335 157.196C165.38 161.43 171.836 167.464 176.705 175.296C181.574 183.129 184.009 193.079 184.009 205.146C184.009 215.308 181.257 224.516 175.753 232.773C170.249 241.029 162.31 247.274 151.937 251.508V252.143C164.639 255.53 174.483 261.776 181.468 270.879C188.454 279.77 191.947 291.837 191.947 307.079C191.947 318.723 189.724 328.884 185.279 337.564C181.045 346.032 175.012 353.018 167.179 358.522C159.347 364.026 150.35 368.154 140.188 370.906C130.239 373.447 119.443 374.717 107.799 374.717H31.2727C21.3232 374.717 13.7023 372.388 8.40998 367.731C3.32937 363.073 0.789062 355.241 0.789062 344.232ZM52.8653 273.101V334.706H96.6856C102.401 334.706 107.694 334.282 112.563 333.436C117.643 332.589 122.195 331.107 126.217 328.99C130.451 326.873 133.732 323.803 136.06 319.781C138.601 315.759 139.871 310.572 139.871 304.221C139.871 297.658 138.495 292.26 135.743 288.026C133.203 283.792 129.604 280.617 124.947 278.5C120.501 276.383 115.42 275.007 109.705 274.372C103.989 273.525 97.5324 273.101 90.3349 273.101H52.8653ZM52.8653 184.188V240.076H95.733C119.866 240.076 131.932 230.762 131.932 212.132C131.932 201.971 128.439 194.773 121.454 190.539C114.468 186.305 105.365 184.188 94.1453 184.188H52.8653Z" fill="#208F4F"/>
</g>
<g style="mix-blend-mode:darken">
<path d="M0 344.232V176.567C0 165.558 2.54031 157.725 7.62092 153.068C12.9132 148.411 20.5341 146.082 30.4837 146.082H99.707C110.503 146.082 120.665 146.929 130.191 148.622C139.717 150.104 148.502 152.962 156.546 157.196C164.591 161.43 171.047 167.464 175.916 175.296C180.785 183.129 183.22 193.079 183.22 205.146C183.22 215.308 180.468 224.516 174.964 232.773C169.46 241.029 161.521 247.274 151.148 251.508V252.143C163.85 255.53 173.693 261.776 180.679 270.879C187.665 279.77 191.158 291.837 191.158 307.079C191.158 318.723 188.935 328.884 184.49 337.564C180.256 346.032 174.223 353.018 166.39 358.522C158.557 364.026 149.561 368.154 139.399 370.906C129.45 373.447 118.653 374.717 107.01 374.717H30.4837C20.5341 374.717 12.9132 372.388 7.62092 367.731C2.54031 363.073 0 355.241 0 344.232ZM52.0763 273.101V334.706H95.8966C101.612 334.706 106.905 334.282 111.773 333.436C116.854 332.589 121.405 331.107 125.428 328.99C129.661 326.873 132.943 323.803 135.271 319.781C137.812 315.759 139.082 310.572 139.082 304.221C139.082 297.658 137.706 292.26 134.954 288.026C132.413 283.792 128.815 280.617 124.157 278.5C119.712 276.383 114.631 275.007 108.916 274.372C103.2 273.525 96.7433 273.101 89.5458 273.101H52.0763ZM52.0763 184.188V240.076H94.944C119.077 240.076 131.143 230.762 131.143 212.132C131.143 201.971 127.65 194.773 120.665 190.539C113.679 186.305 104.576 184.188 93.3563 184.188H52.0763Z" fill="#208F4F"/>
</g>
<g style="mix-blend-mode:hard-light">
<path d="M352.965 350.937V222.96C352.965 215.762 354.659 210.152 358.046 206.129C361.645 201.895 366.939 199.778 373.925 199.778C380.912 199.778 386.1 201.895 389.487 206.129C393.086 210.152 394.886 215.762 394.886 222.96V228.993H395.521C402.72 219.678 410.765 212.48 419.658 207.399C428.762 202.318 439.454 199.778 451.734 199.778C459.144 199.778 466.237 200.836 473.012 202.953C479.999 204.859 486.245 208.246 491.749 213.115C497.466 217.773 501.912 224.124 505.088 232.169C508.476 240.002 510.169 249.529 510.169 260.75V350.937C510.169 357.923 508.37 363.534 504.77 367.768C501.383 372.002 495.455 374.119 486.986 374.119C478.517 374.119 472.483 372.002 468.883 367.768C465.496 363.534 463.802 357.923 463.802 350.937V269.959C463.802 260.22 461.367 252.493 456.498 246.777C451.628 240.849 444.323 237.885 434.584 237.885C425.692 237.885 417.54 241.273 410.13 248.047C402.932 254.61 399.332 263.396 399.332 274.405V350.937C399.332 357.923 397.533 363.534 393.933 367.768C390.546 372.002 384.617 374.119 376.149 374.119C367.68 374.119 361.645 372.002 358.046 367.768C354.659 363.534 352.965 357.923 352.965 350.937Z" fill="#208F4F"/>
</g>
<g style="mix-blend-mode:hard-light">
<path d="M356.967 350.937V222.96C356.967 215.762 358.661 210.152 362.048 206.129C365.647 201.895 370.941 199.778 377.927 199.778C384.914 199.778 390.101 201.895 393.489 206.129C397.088 210.152 398.888 215.762 398.888 222.96V228.993H399.523C406.722 219.678 414.767 212.48 423.66 207.399C432.764 202.318 443.456 199.778 455.736 199.778C463.146 199.778 470.239 200.836 477.014 202.953C484.001 204.859 490.247 208.246 495.751 213.115C501.468 217.773 505.914 224.124 509.09 232.169C512.478 240.002 514.171 249.529 514.171 260.75V350.937C514.171 357.923 512.372 363.534 508.772 367.768C505.385 372.002 499.457 374.119 490.988 374.119C482.519 374.119 476.485 372.002 472.885 367.768C469.498 363.534 467.804 357.923 467.804 350.937V269.959C467.804 260.22 465.369 252.493 460.5 246.777C455.63 240.849 448.325 237.885 438.586 237.885C429.694 237.885 421.542 241.273 414.132 248.047C406.933 254.61 403.334 263.396 403.334 274.405V350.937C403.334 357.923 401.535 363.534 397.935 367.768C394.548 372.002 388.619 374.119 380.15 374.119C371.682 374.119 365.647 372.002 362.048 367.768C358.661 363.534 356.967 357.923 356.967 350.937Z" fill="#208F4F"/>
</g>
<g style="mix-blend-mode:darken">
<path d="M352.967 350.937V222.96C352.967 215.762 354.661 210.152 358.048 206.129C361.647 201.895 366.941 199.778 373.927 199.778C380.914 199.778 386.101 201.895 389.489 206.129C393.088 210.152 394.888 215.762 394.888 222.96V228.993H395.523C402.722 219.678 410.767 212.48 419.66 207.399C428.764 202.318 439.456 199.778 451.736 199.778C459.146 199.778 466.239 200.836 473.014 202.953C480.001 204.859 486.247 208.246 491.751 213.115C497.468 217.773 501.914 224.124 505.09 232.169C508.478 240.002 510.171 249.529 510.171 260.75V350.937C510.171 357.923 508.372 363.534 504.772 367.768C501.385 372.002 495.457 374.119 486.988 374.119C478.519 374.119 472.485 372.002 468.885 367.768C465.498 363.534 463.804 357.923 463.804 350.937V269.959C463.804 260.22 461.369 252.493 456.5 246.777C451.63 240.849 444.325 237.885 434.586 237.885C425.694 237.885 417.542 241.273 410.132 248.047C402.933 254.61 399.334 263.396 399.334 274.405V350.937C399.334 357.923 397.535 363.534 393.935 367.768C390.548 372.002 384.619 374.119 376.15 374.119C367.682 374.119 361.647 372.002 358.048 367.768C354.661 363.534 352.967 357.923 352.967 350.937Z" fill="#208F4F"/>
</g>
<g filter="url(#filter0_dd_455_1026)">
<g clip-path="url(#clip0_455_1026)">
<g clip-path="url(#clip1_455_1026)">
<path d="M662.124 59.327C663.179 56.2692 667.504 56.2692 668.56 59.327L692.133 127.594C692.896 129.806 691.254 132.111 688.915 132.111H641.769C639.429 132.111 637.787 129.806 638.551 127.594L662.124 59.327Z" fill="#0485A2"/>
<g filter="url(#filter1_dd_455_1026)">
<path fill-rule="evenodd" clip-rule="evenodd" d="M662.176 106.886C641.098 106.886 597.369 116.263 575.242 191.426C557.756 250.828 555.38 314.871 553.772 358.218C553.332 370.077 552.949 380.387 552.331 388.63L550.891 550.217C550.977 569.379 556.259 607.702 576.683 607.702C579.912 607.833 586.555 608.147 587.287 608.357C587.834 608.513 587.784 608.727 587.723 608.989C587.703 609.078 587.681 609.173 587.681 609.273L587.549 611.369C587.549 611.831 587.538 612.317 587.525 612.859C587.495 614.157 587.457 615.776 587.549 618.178C587.706 622.253 587.812 624.857 597.238 624.857H653.798C657.376 624.901 661.662 620.798 661.662 617.394C661.662 615.557 661.621 613.949 661.583 612.467C661.552 611.201 661.522 610.027 661.522 608.882C661.522 608.816 661.519 608.748 661.516 608.682C661.493 608.218 661.47 607.781 662.57 607.964C663.826 608.174 670.686 608.051 673.959 607.964H693.467C694.166 607.921 695.484 608.148 695.17 609.406V617.394C695.17 619.925 696.845 624.962 703.549 624.857C710.252 624.752 734.884 624.814 746.361 624.857C749.242 624.77 755.028 622.657 755.133 614.905V607.834C755.177 607.66 755.369 607.311 755.788 607.311C756.206 607.311 765.738 604.866 770.451 603.644C772.153 603.12 777.312 601.129 777.521 599.976C778.634 593.854 779.58 544.352 777.521 487.1C775.485 430.468 774.118 402.772 772.284 366.369C772.284 364.397 770.967 332.731 770.975 330.621L769.928 312.026L768.88 297.36C767.571 275.885 765.869 226.257 755.526 187.89C738.567 112.334 689.802 106.18 662.176 106.886Z" fill="#0E6F3A"/>
</g>
<path d="M604.9 178.735C613.332 162.297 626.144 158.649 631.392 158.692C634.935 158.998 643.201 161.181 647.923 167.469C653.828 175.329 656.322 188.237 658.025 201.136C659.6 213.056 658.708 231.396 655.664 246.33C655.664 246.33 653.828 260.609 642.282 278.425C627.85 300.695 606.859 281.962 603.317 277.508C599.775 273.054 593.87 258.644 592.82 246.592C591.981 236.951 593.126 223.012 594.264 213.319C595.848 199.825 599.389 189.477 604.9 178.735Z" fill="#FEE6CA"/>
<path d="M667.882 194.805C670.706 168.614 685.447 159.098 692.463 157.613C694.869 157.195 697.999 157.439 699.263 157.613C709.305 158.766 716.348 165.951 718.614 169.4C722.406 174.507 730.618 189.331 733.129 207.77C735.639 226.208 733.216 246.881 731.69 254.913C728.639 267.397 718.013 291.79 699.917 289.485C681.821 287.18 671.888 267.035 670.451 259.658C667.574 247.348 665.057 220.996 667.882 194.805Z" fill="#FEE6CA"/>
<path d="M564.326 361.819C565.054 360.472 566.777 360.033 568.06 360.869L594.424 378.044C595.635 378.832 595.978 380.455 595.188 381.667L534.598 474.677C533.324 476.631 530.323 476.071 529.84 473.788L522.74 440.145C522.612 439.539 522.704 438.906 522.998 438.361L564.326 361.819Z" fill="#0E6F3A"/>
<path d="M591.044 379.028C591.786 377.823 591.438 376.247 590.257 375.468L559.243 354.993C557.884 354.096 556.047 354.641 555.398 356.134L509.719 461.182C508.792 463.313 510.893 465.505 513.062 464.67L545.284 452.265C545.82 452.059 546.272 451.683 546.573 451.195L591.044 379.028Z" fill="#0E6F3A"/>
<path d="M762.24 361.928C761.513 360.58 759.79 360.141 758.506 360.978L732.143 378.151C730.931 378.941 730.589 380.564 731.378 381.775L791.969 474.785C793.242 476.74 796.244 476.179 796.726 473.896L803.826 440.254C803.954 439.648 803.863 439.015 803.569 438.469L762.24 361.928Z" fill="#0E6F3A"/>
<path d="M735.523 379.136C734.78 377.932 735.129 376.356 736.309 375.577L767.324 355.101C768.682 354.204 770.52 354.75 771.168 356.242L816.848 461.29C817.774 463.421 815.674 465.613 813.506 464.779L781.282 452.373C780.747 452.167 780.294 451.792 779.994 451.303L735.523 379.136Z" fill="#0E6F3A"/>
<path d="M661.848 296.878C662.933 296.859 663.828 297.723 663.847 298.808C663.866 299.892 663.002 300.787 661.917 300.806L651.413 300.991L651.212 300.985C650.22 300.901 649.432 300.078 649.414 299.061C649.395 297.977 650.259 297.082 651.344 297.063L661.848 296.878Z" fill="#090909"/>
<path d="M729.498 484.429C729.498 549.919 697.984 573.004 658.787 573.004C619.59 573.004 587.553 549.919 587.553 484.429C587.553 418.939 619.328 365.849 658.525 365.849C697.722 365.849 729.498 418.939 729.498 484.429Z" fill="#559472"/>
</g>
</g>
</g>
<defs>
<filter id="filter0_dd_455_1026" x="518.311" y="11.3109" width="284.378" height="439.378" filterUnits="userSpaceOnUse" color-interpolation-filters="sRGB">
<feFlood flood-opacity="0" result="BackgroundImageFix"/>
<feColorMatrix in="SourceAlpha" type="matrix" values="0 0 0 0 0 0 0 0 0 0 0 0 0 0 0 0 0 0 127 0" result="hardAlpha"/>
<feOffset dy="3.15855"/>
<feGaussianBlur stdDeviation="7.89636"/>
<feComposite in2="hardAlpha" operator="out"/>
<feColorMatrix type="matrix" values="0 0 0 0 0.054902 0 0 0 0 0.435294 0 0 0 0 0.227451 0 0 0 0.1 0"/>
<feBlend mode="normal" in2="BackgroundImageFix" result="effect1_dropShadow_455_1026"/>
<feColorMatrix in="SourceAlpha" type="matrix" values="0 0 0 0 0 0 0 0 0 0 0 0 0 0 0 0 0 0 127 0" result="hardAlpha"/>
<feOffset/>
<feGaussianBlur stdDeviation="11.8445"/>
<feComposite in2="hardAlpha" operator="out"/>
<feColorMatrix type="matrix" values="0 0 0 0 0 0 0 0 0 1 0 0 0 0 0.05 0 0 0 0.18 0"/>
<feBlend mode="normal" in2="effect1_dropShadow_455_1026" result="effect2_dropShadow_455_1026"/>
<feBlend mode="normal" in="SourceGraphic" in2="effect2_dropShadow_455_1026" result="shape"/>
</filter>
<filter id="filter1_dd_455_1026" x="531.939" y="94.2037" width="268.907" height="549.606" filterUnits="userSpaceOnUse" color-interpolation-filters="sRGB">
<feFlood flood-opacity="0" result="BackgroundImageFix"/>
<feColorMatrix in="SourceAlpha" type="matrix" values="0 0 0 0 0 0 0 0 0 0 0 0 0 0 0 0 0 0 127 0" result="hardAlpha"/>
<feOffset dx="-3.15855" dy="3.15855"/>
<feGaussianBlur stdDeviation="7.89636"/>
<feComposite in2="hardAlpha" operator="out"/>
<feColorMatrix type="matrix" values="0 0 0 0 0.054902 0 0 0 0 0.435294 0 0 0 0 0.227451 0 0 0 0.1 0"/>
<feBlend mode="normal" in2="BackgroundImageFix" result="effect1_dropShadow_455_1026"/>
<feColorMatrix in="SourceAlpha" type="matrix" values="0 0 0 0 0 0 0 0 0 0 0 0 0 0 0 0 0 0 127 0" result="hardAlpha"/>
<feOffset dx="6.31709" dy="3.15855"/>
<feGaussianBlur stdDeviation="7.89636"/>
<feComposite in2="hardAlpha" operator="out"/>
<feColorMatrix type="matrix" values="0 0 0 0 0.054902 0 0 0 0 0.435294 0 0 0 0 0.227451 0 0 0 0.1 0"/>
<feBlend mode="normal" in2="effect1_dropShadow_455_1026" result="effect2_dropShadow_455_1026"/>
<feBlend mode="normal" in="SourceGraphic" in2="effect2_dropShadow_455_1026" result="shape"/>
</filter>
<clipPath id="clip0_455_1026">
<rect x="542" y="35" width="237" height="392" rx="118.5" fill="white"/>
</clipPath>
<clipPath id="clip1_455_1026">
<rect width="523.529" height="574.066" fill="white" transform="translate(401.873 50.793)"/>
</clipPath>
</defs>
</svg>
