<svg width="148" height="42" viewBox="0 0 148 42" fill="none" xmlns="http://www.w3.org/2000/svg">
<g style="mix-blend-mode:hard-light">
<path d="M0.0234369 25.5209L0.0234374 4.57101C0.0234374 3.18772 0.348528 2.20538 0.99871 1.624C1.66921 1.04261 2.64448 0.741897 3.90421 0.741897L12.6817 0.741898C14.043 0.741898 15.3433 0.842136 16.5421 1.06266C17.7409 1.24309 18.8584 1.60395 19.8743 2.12519C20.8902 2.64643 21.7029 3.40825 22.3328 4.39058C22.9423 5.37292 23.2674 6.61588 23.2674 8.11946C23.2674 9.38247 22.922 10.5452 22.2312 11.5677C21.5404 12.5901 20.5245 13.372 19.2241 13.9133L19.2241 13.9934C20.8293 14.4144 22.089 15.1963 22.9627 16.339C23.8567 17.4417 24.2833 18.9653 24.2833 20.8698C24.2833 22.3333 23.9989 23.5963 23.43 24.6789C22.9017 25.7414 22.1296 26.6035 21.134 27.3051C20.1384 27.9868 19.0006 28.508 17.7206 28.8488C16.4608 29.1696 15.0995 29.33 13.6163 29.33L3.88389 29.33C2.62416 29.33 1.64889 29.0292 0.978391 28.4479C0.348528 27.8865 0.0234369 26.9042 0.0234369 25.5209ZM6.62684 16.6397L6.62684 24.3381L12.1737 24.3381C12.9052 24.3381 13.5757 24.2779 14.1852 24.1777C14.8354 24.0775 15.4043 23.877 15.9123 23.6164C16.4405 23.3557 16.8672 22.9748 17.1517 22.4736C17.4768 21.9724 17.6393 21.3309 17.6393 20.529C17.6393 19.7271 17.4564 19.0254 17.111 18.5042C16.7859 17.9829 16.3389 17.582 15.7497 17.3214C15.1808 17.0607 14.5509 16.8803 13.8195 16.8001C13.088 16.6999 12.2753 16.6397 11.361 16.6397L6.60653 16.6397L6.62684 16.6397ZM6.62684 5.51326L6.62684 12.4899L12.0518 12.4899C15.0995 12.4899 16.6437 11.3271 16.6437 9.00156C16.6437 7.73855 16.1967 6.83641 15.323 6.29512C14.429 5.77388 13.2912 5.49321 11.8689 5.49321L6.64716 5.49321L6.62684 5.51326ZM28.6517 26.9643L28.6517 3.14763C28.6517 2.22543 28.9159 1.50371 29.4238 1.00252C29.9521 0.501325 30.6836 0.240705 31.5979 0.240705C32.5122 0.240705 33.2233 0.501325 33.7313 1.00252C34.2596 1.50371 34.544 2.22543 34.544 3.14763L34.544 26.9643C34.544 27.8865 34.2799 28.6082 33.7313 29.1094C33.2233 29.6106 32.5122 29.8712 31.5979 29.8712C30.6836 29.8712 29.9521 29.6106 29.4238 29.1094C28.9159 28.6082 28.6517 27.8865 28.6517 26.9643ZM39.8471 26.9643L39.8471 10.9662C39.8471 10.0841 40.0706 9.38247 40.4972 8.86123C40.9442 8.33999 41.7163 8.05932 42.7932 8.05932C43.8701 8.05932 44.6218 8.31994 45.0485 8.86123C45.4955 9.38247 45.7393 10.0841 45.7393 10.9662L45.7393 26.9643C45.7393 27.8464 45.5158 28.5481 45.0485 29.0693C44.6218 29.5906 43.8701 29.8712 42.7932 29.8712C41.7163 29.8712 40.9646 29.6106 40.4972 29.0693C40.0706 28.5481 39.8471 27.8464 39.8471 26.9643ZM39.7252 3.10753C39.7252 2.26553 40.0299 1.54381 40.6192 0.962423C41.2084 0.381039 41.9398 0.0803232 42.7932 0.0803233C43.6466 0.0803233 44.378 0.381039 44.9672 0.962423C45.5565 1.54381 45.8612 2.26553 45.8612 3.10753C45.8612 3.94954 45.5565 4.67125 44.9672 5.25264C44.378 5.83402 43.6466 6.13474 42.7932 6.13474C41.9398 6.13474 41.2084 5.83402 40.6192 5.25264C40.0299 4.67125 39.7252 3.94953 39.7252 3.10753ZM50.7173 26.9643L50.7173 10.9662C50.7173 10.0641 50.9408 9.36242 51.3675 8.86123C51.8145 8.33999 52.485 8.05932 53.379 8.05932C54.273 8.05932 54.9231 8.31994 55.3498 8.86123C55.7968 9.36242 56.0406 10.0641 56.0406 10.9662L56.0406 11.7281L56.1219 11.7281C57.0362 10.5653 58.0522 9.66314 59.1697 9.02161C60.3278 8.38008 61.6688 8.05932 63.2333 8.05932C64.1679 8.05932 65.0619 8.19965 65.9356 8.46027C66.8296 8.70085 67.6017 9.12185 68.3128 9.72328C69.0443 10.3047 69.5929 11.1066 69.9992 12.109C70.4259 13.0913 70.6494 14.2741 70.6494 15.6775L70.6494 26.9443C70.6494 27.8264 70.4259 28.5281 69.9586 29.0493C69.5319 29.5705 68.7802 29.8512 67.7033 29.8512C66.6264 29.8512 65.8746 29.5906 65.4073 29.0493C64.9807 28.5281 64.7571 27.8264 64.7571 26.9443L64.7571 16.8202C64.7571 15.5973 64.4524 14.635 63.8225 13.9133C63.213 13.1715 62.2783 12.8106 61.0389 12.8106C59.9214 12.8106 58.8852 13.2316 57.9506 14.0736C57.0362 14.8956 56.5892 15.9982 56.5892 17.3615L56.5892 26.9242C56.5892 27.8063 56.3657 28.508 55.8984 29.0292C55.4717 29.5505 54.72 29.8312 53.6431 29.8312C52.5662 29.8312 51.8145 29.5705 51.3472 29.0292C50.9205 28.508 50.697 27.8063 50.697 26.9242L50.7173 26.9643ZM75.3226 26.9643L75.3226 3.14763C75.3226 2.22543 75.5867 1.50371 76.0947 1.00252C76.623 0.501326 77.3544 0.240706 78.2687 0.240706C79.1831 0.240706 79.8942 0.501326 80.4021 1.00252C80.9304 1.50371 81.2149 2.22543 81.2149 3.14763L81.2149 16.319L87.737 9.18199C88.4278 8.44023 89.1796 8.07937 89.9923 8.07937C90.6831 8.07937 91.313 8.33999 91.8819 8.88128C92.4711 9.38247 92.7759 9.9839 92.7759 10.7056C92.7759 11.1467 92.715 11.5075 92.5727 11.7281C92.4711 11.9486 92.268 12.2092 91.9632 12.53C91.9429 12.55 91.9022 12.5901 91.8819 12.6102L87.5338 17.1008L93.6496 25.2001C93.8121 25.4207 93.9544 25.6813 94.056 26.002C94.1982 26.3028 94.2591 26.6436 94.2591 27.0646C94.2591 27.8063 93.995 28.4679 93.4464 29.0493C92.9181 29.6106 92.2476 29.8913 91.4755 29.8913C90.8254 29.8913 90.2971 29.751 89.8704 29.4903C89.4437 29.2498 89.0983 28.929 88.8342 28.5281L83.2873 20.7896L81.2352 22.5739L81.2352 26.9844C81.2352 27.9066 80.9711 28.6283 80.4225 29.1295C79.9145 29.6307 79.2034 29.8913 78.2891 29.8913C77.3747 29.8913 76.6433 29.6307 76.115 29.1295C75.6071 28.6283 75.3429 27.9066 75.3429 26.9844L75.3226 26.9643ZM115.187 20.0479L101.919 20.0479C101.919 21.6116 102.407 22.8746 103.362 23.8569C104.337 24.8393 105.658 25.3204 107.344 25.3204C108.462 25.3204 109.335 25.1801 109.965 24.8794C110.615 24.5586 111.245 24.1176 111.895 23.5763C112.302 23.2154 112.667 22.9347 112.972 22.7343C113.297 22.5538 113.683 22.4536 114.13 22.4536C114.801 22.4536 115.37 22.6942 115.817 23.1753C116.304 23.6565 116.548 24.1576 116.548 24.719C116.548 25.5409 116.243 26.2827 115.654 26.9443C115.065 27.5858 114.293 28.1271 113.318 28.5681C112.383 28.9891 111.367 29.3099 110.311 29.5304C109.274 29.751 108.279 29.8512 107.324 29.8512C105.373 29.8512 103.666 29.5505 102.224 28.9691C100.781 28.3677 99.6028 27.5457 98.6885 26.5433C97.7742 25.5409 97.1037 24.4183 96.677 23.1753C96.2503 21.9324 96.0268 20.6493 96.0268 19.3261C96.0268 15.918 97.0224 13.1915 99.0136 11.1467C101.005 9.08176 103.707 8.05932 107.141 8.05932C108.787 8.05932 110.25 8.31994 111.57 8.86123C112.911 9.36242 114.029 10.0841 114.943 11.0063C115.878 11.9085 116.589 12.9309 117.036 14.0536C117.523 15.1562 117.767 16.339 117.767 17.5419C117.767 18.5242 117.584 19.1858 117.198 19.5266C116.853 19.8674 116.182 20.0479 115.187 20.0479ZM101.919 16.7199L112.22 16.7199C112.058 15.3767 111.509 14.2741 110.575 13.4321C109.66 12.55 108.563 12.129 107.283 12.129C105.861 12.129 104.703 12.53 103.788 13.3519C102.874 14.1538 102.265 15.2765 101.939 16.7199L101.919 16.7199ZM121.872 26.9643L121.872 10.7658C121.872 9.92376 122.115 9.26219 122.603 8.78104C123.111 8.29989 123.761 8.05932 124.533 8.05932C125.305 8.05932 125.935 8.29989 126.423 8.78104C126.931 9.26219 127.195 9.92376 127.195 10.7658L127.195 12.9911L127.276 12.9911C127.683 11.5677 128.251 10.3849 129.003 9.46266C129.775 8.54047 130.832 8.07937 132.132 8.07937C133.067 8.07937 133.839 8.33999 134.428 8.88128C135.038 9.40252 135.363 10.0841 135.363 10.9061C135.363 11.9085 135.078 12.6503 134.509 13.1314C133.981 13.5724 133.29 13.813 132.457 13.813L131.421 13.813C130.182 13.813 129.267 14.2942 128.637 15.2765C128.048 16.2588 127.743 17.9028 127.743 20.2283L127.743 26.9844C127.743 27.8665 127.52 28.5681 127.053 29.0894C126.626 29.6106 125.874 29.8913 124.797 29.8913C123.72 29.8913 122.969 29.6307 122.501 29.0894C122.075 28.5681 121.851 27.8665 121.851 26.9844L121.872 26.9643Z" fill="#356549"/>
</g>
<g style="mix-blend-mode:hard-light">
<path d="M0.0234369 25.5209L0.0234374 4.57101C0.0234374 3.18772 0.348528 2.20538 0.99871 1.624C1.66921 1.04261 2.64448 0.741897 3.90421 0.741897L12.6817 0.741898C14.043 0.741898 15.3433 0.842136 16.5421 1.06266C17.7409 1.24309 18.8584 1.60395 19.8743 2.12519C20.8902 2.64643 21.7029 3.40825 22.3328 4.39058C22.9423 5.37292 23.2674 6.61588 23.2674 8.11946C23.2674 9.38247 22.922 10.5452 22.2312 11.5677C21.5404 12.5901 20.5245 13.372 19.2241 13.9133L19.2241 13.9934C20.8293 14.4144 22.089 15.1963 22.9627 16.339C23.8567 17.4417 24.2833 18.9653 24.2833 20.8698C24.2833 22.3333 23.9989 23.5963 23.43 24.6789C22.9017 25.7414 22.1296 26.6035 21.134 27.3051C20.1384 27.9868 19.0006 28.508 17.7206 28.8488C16.4608 29.1696 15.0995 29.33 13.6163 29.33L3.88389 29.33C2.62416 29.33 1.64889 29.0292 0.978391 28.4479C0.348528 27.8865 0.0234369 26.9042 0.0234369 25.5209ZM6.62684 16.6397L6.62684 24.3381L12.1737 24.3381C12.9052 24.3381 13.5757 24.2779 14.1852 24.1777C14.8354 24.0775 15.4043 23.877 15.9123 23.6164C16.4405 23.3557 16.8672 22.9748 17.1517 22.4736C17.4768 21.9724 17.6393 21.3309 17.6393 20.529C17.6393 19.7271 17.4564 19.0254 17.111 18.5042C16.7859 17.9829 16.3389 17.582 15.7497 17.3214C15.1808 17.0607 14.5509 16.8803 13.8195 16.8001C13.088 16.6999 12.2753 16.6397 11.361 16.6397L6.60653 16.6397L6.62684 16.6397ZM6.62684 5.51326L6.62684 12.4899L12.0518 12.4899C15.0995 12.4899 16.6437 11.3271 16.6437 9.00156C16.6437 7.73855 16.1967 6.83641 15.323 6.29512C14.429 5.77388 13.2912 5.49321 11.8689 5.49321L6.64716 5.49321L6.62684 5.51326ZM28.6517 26.9643L28.6517 3.14763C28.6517 2.22543 28.9159 1.50371 29.4238 1.00252C29.9521 0.501325 30.6836 0.240705 31.5979 0.240705C32.5122 0.240705 33.2233 0.501325 33.7313 1.00252C34.2596 1.50371 34.544 2.22543 34.544 3.14763L34.544 26.9643C34.544 27.8865 34.2799 28.6082 33.7313 29.1094C33.2233 29.6106 32.5122 29.8712 31.5979 29.8712C30.6836 29.8712 29.9521 29.6106 29.4238 29.1094C28.9159 28.6082 28.6517 27.8865 28.6517 26.9643ZM39.8471 26.9643L39.8471 10.9662C39.8471 10.0841 40.0706 9.38247 40.4972 8.86123C40.9442 8.33999 41.7163 8.05932 42.7932 8.05932C43.8701 8.05932 44.6218 8.31994 45.0485 8.86123C45.4955 9.38247 45.7393 10.0841 45.7393 10.9662L45.7393 26.9643C45.7393 27.8464 45.5158 28.5481 45.0485 29.0693C44.6218 29.5906 43.8701 29.8712 42.7932 29.8712C41.7163 29.8712 40.9646 29.6106 40.4972 29.0693C40.0706 28.5481 39.8471 27.8464 39.8471 26.9643ZM39.7252 3.10753C39.7252 2.26553 40.0299 1.54381 40.6192 0.962423C41.2084 0.381039 41.9398 0.0803232 42.7932 0.0803233C43.6466 0.0803233 44.378 0.381039 44.9672 0.962423C45.5565 1.54381 45.8612 2.26553 45.8612 3.10753C45.8612 3.94954 45.5565 4.67125 44.9672 5.25264C44.378 5.83402 43.6466 6.13474 42.7932 6.13474C41.9398 6.13474 41.2084 5.83402 40.6192 5.25264C40.0299 4.67125 39.7252 3.94953 39.7252 3.10753ZM50.7173 26.9643L50.7173 10.9662C50.7173 10.0641 50.9408 9.36242 51.3675 8.86123C51.8145 8.33999 52.485 8.05932 53.379 8.05932C54.273 8.05932 54.9231 8.31994 55.3498 8.86123C55.7968 9.36242 56.0406 10.0641 56.0406 10.9662L56.0406 11.7281L56.1219 11.7281C57.0362 10.5653 58.0522 9.66314 59.1697 9.02161C60.3278 8.38008 61.6688 8.05932 63.2333 8.05932C64.1679 8.05932 65.0619 8.19965 65.9356 8.46027C66.8296 8.70085 67.6017 9.12185 68.3128 9.72328C69.0443 10.3047 69.5929 11.1066 69.9992 12.109C70.4259 13.0913 70.6494 14.2741 70.6494 15.6775L70.6494 26.9443C70.6494 27.8264 70.4259 28.5281 69.9586 29.0493C69.5319 29.5705 68.7802 29.8512 67.7033 29.8512C66.6264 29.8512 65.8746 29.5906 65.4073 29.0493C64.9807 28.5281 64.7571 27.8264 64.7571 26.9443L64.7571 16.8202C64.7571 15.5973 64.4524 14.635 63.8225 13.9133C63.213 13.1715 62.2783 12.8106 61.0389 12.8106C59.9214 12.8106 58.8852 13.2316 57.9506 14.0736C57.0362 14.8956 56.5892 15.9982 56.5892 17.3615L56.5892 26.9242C56.5892 27.8063 56.3657 28.508 55.8984 29.0292C55.4717 29.5505 54.72 29.8312 53.6431 29.8312C52.5662 29.8312 51.8145 29.5705 51.3472 29.0292C50.9205 28.508 50.697 27.8063 50.697 26.9242L50.7173 26.9643ZM75.3226 26.9643L75.3226 3.14763C75.3226 2.22543 75.5867 1.50371 76.0947 1.00252C76.623 0.501326 77.3544 0.240706 78.2687 0.240706C79.1831 0.240706 79.8942 0.501326 80.4021 1.00252C80.9304 1.50371 81.2149 2.22543 81.2149 3.14763L81.2149 16.319L87.737 9.18199C88.4278 8.44023 89.1796 8.07937 89.9923 8.07937C90.6831 8.07937 91.313 8.33999 91.8819 8.88128C92.4711 9.38247 92.7759 9.9839 92.7759 10.7056C92.7759 11.1467 92.715 11.5075 92.5727 11.7281C92.4711 11.9486 92.268 12.2092 91.9632 12.53C91.9429 12.55 91.9022 12.5901 91.8819 12.6102L87.5338 17.1008L93.6496 25.2001C93.8121 25.4207 93.9544 25.6813 94.056 26.002C94.1982 26.3028 94.2591 26.6436 94.2591 27.0646C94.2591 27.8063 93.995 28.4679 93.4464 29.0493C92.9181 29.6106 92.2476 29.8913 91.4755 29.8913C90.8254 29.8913 90.2971 29.751 89.8704 29.4903C89.4437 29.2498 89.0983 28.929 88.8342 28.5281L83.2873 20.7896L81.2352 22.5739L81.2352 26.9844C81.2352 27.9066 80.9711 28.6283 80.4225 29.1295C79.9145 29.6307 79.2034 29.8913 78.2891 29.8913C77.3747 29.8913 76.6433 29.6307 76.115 29.1295C75.6071 28.6283 75.3429 27.9066 75.3429 26.9844L75.3226 26.9643ZM115.187 20.0479L101.919 20.0479C101.919 21.6116 102.407 22.8746 103.362 23.8569C104.337 24.8393 105.658 25.3204 107.344 25.3204C108.462 25.3204 109.335 25.1801 109.965 24.8794C110.615 24.5586 111.245 24.1176 111.895 23.5763C112.302 23.2154 112.667 22.9347 112.972 22.7343C113.297 22.5538 113.683 22.4536 114.13 22.4536C114.801 22.4536 115.37 22.6942 115.817 23.1753C116.304 23.6565 116.548 24.1576 116.548 24.719C116.548 25.5409 116.243 26.2827 115.654 26.9443C115.065 27.5858 114.293 28.1271 113.318 28.5681C112.383 28.9891 111.367 29.3099 110.311 29.5304C109.274 29.751 108.279 29.8512 107.324 29.8512C105.373 29.8512 103.666 29.5505 102.224 28.9691C100.781 28.3677 99.6028 27.5457 98.6885 26.5433C97.7742 25.5409 97.1037 24.4183 96.677 23.1753C96.2503 21.9324 96.0268 20.6493 96.0268 19.3261C96.0268 15.918 97.0224 13.1915 99.0136 11.1467C101.005 9.08176 103.707 8.05932 107.141 8.05932C108.787 8.05932 110.25 8.31994 111.57 8.86123C112.911 9.36242 114.029 10.0841 114.943 11.0063C115.878 11.9085 116.589 12.9309 117.036 14.0536C117.523 15.1562 117.767 16.339 117.767 17.5419C117.767 18.5242 117.584 19.1858 117.198 19.5266C116.853 19.8674 116.182 20.0479 115.187 20.0479ZM101.919 16.7199L112.22 16.7199C112.058 15.3767 111.509 14.2741 110.575 13.4321C109.66 12.55 108.563 12.129 107.283 12.129C105.861 12.129 104.703 12.53 103.788 13.3519C102.874 14.1538 102.265 15.2765 101.939 16.7199L101.919 16.7199ZM121.872 26.9643L121.872 10.7658C121.872 9.92376 122.115 9.26219 122.603 8.78104C123.111 8.29989 123.761 8.05932 124.533 8.05932C125.305 8.05932 125.935 8.29989 126.423 8.78104C126.931 9.26219 127.195 9.92376 127.195 10.7658L127.195 12.9911L127.276 12.9911C127.683 11.5677 128.251 10.3849 129.003 9.46266C129.775 8.54047 130.832 8.07937 132.132 8.07937C133.067 8.07937 133.839 8.33999 134.428 8.88128C135.038 9.40252 135.363 10.0841 135.363 10.9061C135.363 11.9085 135.078 12.6503 134.509 13.1314C133.981 13.5724 133.29 13.813 132.457 13.813L131.421 13.813C130.182 13.813 129.267 14.2942 128.637 15.2765C128.048 16.2588 127.743 17.9028 127.743 20.2283L127.743 26.9844C127.743 27.8665 127.52 28.5681 127.053 29.0894C126.626 29.6106 125.874 29.8913 124.797 29.8913C123.72 29.8913 122.969 29.6307 122.501 29.0894C122.075 28.5681 121.851 27.8665 121.851 26.9844L121.872 26.9643Z" fill="#356549"/>
</g>
<path d="M127.191 12.9909L127.273 12.9909C127.557 11.9885 127.943 11.1666 128.39 10.4048L127.09 10.2444C127.11 10.4248 127.171 10.5651 127.171 10.7656L127.171 12.9909L127.191 12.9909Z" fill="#505050"/>
<path d="M61.0544 12.8306C60.3839 12.8306 59.7541 12.9909 59.1445 13.2917L64.6101 15.5571C64.4679 14.9356 64.2241 14.3742 63.838 13.9332C63.2285 13.1914 62.2939 12.8306 61.0544 12.8306Z" fill="#505050"/>
<path d="M42.7723 3.1844e-08L42.7723 0.0801909C43.6256 0.080191 44.3571 0.380907 44.9463 0.962291C45.5355 1.54368 45.8403 2.26539 45.8403 3.1074C45.8403 3.9494 45.5355 4.67112 44.9463 5.2525C44.3571 5.83389 43.6256 6.1346 42.7723 6.1346C42.2846 6.1346 41.8376 6.01432 41.4313 5.81384L41.3906 5.97422L50.8386 9.88353C50.9402 9.48258 51.1027 9.14176 51.3262 8.88114C51.7732 8.3599 52.4437 8.07924 53.3377 8.07924C54.2317 8.07924 54.8819 8.33986 55.3086 8.88114C55.7556 9.38234 55.9994 10.084 55.9994 10.9862L55.9994 11.748L56.0807 11.748C56.995 10.5852 58.0109 9.68305 59.1284 9.04153C60.2865 8.4 61.6275 8.07924 63.192 8.07924C64.1267 8.07924 65.0207 8.21957 65.8943 8.48019C66.7883 8.72076 67.5808 9.14177 68.2716 9.7432C69.003 10.3246 69.5516 11.1265 69.958 12.1289C70.3847 13.1112 70.6082 14.294 70.6082 15.6974L70.6082 18.063L75.2813 20.0076L75.2813 3.9494L42.7723 3.1844e-08Z" fill="#505050"/>
<path d="M135.279 11.3671C135.198 12.1089 134.974 12.7103 134.507 13.1112C133.979 13.5523 133.288 13.7929 132.455 13.7929L131.419 13.7929C130.179 13.7929 129.265 14.274 128.635 15.2563C128.046 16.2387 127.741 17.8826 127.741 20.2081L127.741 26.9642C127.741 27.8463 127.518 28.548 127.05 29.0692C126.624 29.5905 125.872 29.8711 124.795 29.8711C123.718 29.8711 122.966 29.6105 122.499 29.0692C122.072 28.548 121.849 27.8463 121.849 26.9642L121.849 10.7657C121.849 10.3447 121.91 9.96374 122.032 9.64298L81.1719 4.67114L81.1719 16.3189L87.694 9.18188C88.3848 8.44012 89.1366 8.07926 89.9493 8.07926C90.6401 8.07926 91.27 8.33988 91.8389 8.88117C92.4281 9.38236 92.7329 9.98379 92.7329 10.7055C92.7329 11.1466 92.672 11.5074 92.5297 11.7279C92.4281 11.9485 92.225 12.2091 91.9202 12.5299C91.8999 12.5499 91.8592 12.59 91.8389 12.61L87.4908 17.1007L93.6066 25.2C93.7691 25.4205 93.9114 25.6812 94.013 26.0019C94.1552 26.3026 94.2161 26.6435 94.2161 27.0645C94.2161 27.3251 94.1349 27.5456 94.0739 27.7862L124.673 40.4363C125.201 40.6969 125.77 40.9174 126.319 41.1179L126.542 41.1981C128.127 41.6993 129.814 42 131.561 42C140.257 42 147.308 35.0435 147.308 26.463C147.308 19.1456 142.167 13.031 135.259 11.3871L135.279 11.3671ZM117.196 19.5265C116.851 19.8673 116.18 20.0478 115.185 20.0478L101.917 20.0477C101.917 21.6115 102.404 22.8745 103.359 23.8568C104.335 24.8392 105.655 25.3203 107.342 25.3203C108.459 25.3203 109.333 25.18 109.963 24.8793C110.613 24.5585 111.243 24.1174 111.893 23.5761C112.299 23.2153 112.665 22.9346 112.97 22.7341C113.295 22.5537 113.681 22.4535 114.128 22.4535C114.798 22.4535 115.367 22.6941 115.814 23.1752C116.302 23.6563 116.546 24.1575 116.546 24.7189C116.546 25.5408 116.241 26.2826 115.652 26.9442C115.063 27.5857 114.291 28.127 113.315 28.568C112.381 28.989 111.365 29.3098 110.308 29.5303C109.272 29.7508 108.276 29.8511 107.321 29.8511C105.371 29.8511 103.664 29.5504 102.222 28.969C100.779 28.3676 99.6005 27.5456 98.6861 26.5432C97.7718 25.5408 97.1013 24.4182 96.6746 23.1752C96.248 21.9322 96.0245 20.6492 96.0245 19.326C96.0245 15.9179 97.0201 13.1914 99.0112 11.1466C101.002 9.08164 103.705 8.05921 107.139 8.05921C108.784 8.05921 110.247 8.31983 111.568 8.86112C112.909 9.36231 114.026 10.084 114.941 11.0062C115.875 11.9084 116.586 12.9308 117.033 14.0535C117.521 15.1561 117.765 16.3389 117.765 17.5418C117.765 18.5241 117.582 19.1857 117.196 19.5265Z" fill="#505050"/>
<path d="M107.258 12.1089C105.835 12.1089 104.677 12.5098 103.763 13.3318C102.849 14.1337 102.239 15.2564 101.914 16.6998L112.215 16.6998C112.053 15.3566 111.504 14.254 110.57 13.412C109.655 12.5299 108.558 12.1089 107.278 12.1089L107.258 12.1089Z" fill="#505050"/>
<path d="M81.293 22.4535L85.7833 24.318L83.2435 20.7695L81.293 22.4535Z" fill="#505050"/>
<path d="M88.793 28.5078C89.0572 28.9088 89.4026 29.2295 89.8293 29.4701C90.2559 29.7307 90.8045 29.8711 91.4344 29.8711C92.2065 29.8711 92.877 29.5904 93.4053 29.0291C93.7507 28.6482 93.9539 28.2071 94.0758 27.7661L85.7656 24.3379L88.7727 28.5279L88.793 28.5078Z" fill="#356549"/>
<path d="M75.3203 26.9642C75.3203 27.8864 75.5844 28.6081 76.0924 29.1093C76.6207 29.6105 77.3521 29.8711 78.2664 29.8711C79.1808 29.8711 79.8919 29.6105 80.3999 29.1093C80.9281 28.6081 81.2126 27.8864 81.2126 26.9642L81.2126 22.5537L81.3142 22.4534L75.3406 19.9875L75.3406 26.9642L75.3203 26.9642Z" fill="#356549"/>
<path d="M50.7148 10.9661L50.7148 26.9642C50.7148 27.8463 50.9383 28.548 51.365 29.0692C51.812 29.5905 52.5841 29.8711 53.661 29.8711C54.7378 29.8711 55.4896 29.6105 55.9163 29.0692C56.3633 28.548 56.6071 27.8463 56.6071 26.9642L56.6071 17.4014C56.6071 16.0182 57.0541 14.9356 57.9684 14.1136C58.3545 13.7728 58.7405 13.5122 59.1672 13.3117L50.8774 9.88354C50.7961 10.2043 50.7352 10.5652 50.7352 10.9862L50.7148 10.9661Z" fill="#356549"/>
<path d="M64.7555 16.8402L64.7555 26.9643C64.7555 27.8464 64.979 28.5481 65.4057 29.0693C65.8527 29.5905 66.6248 29.8712 67.7016 29.8712C68.7785 29.8712 69.5303 29.6106 69.957 29.0693C70.404 28.5481 70.6478 27.8464 70.6478 26.9643L70.6478 18.043L64.6133 15.5571C64.7149 15.9581 64.7555 16.3791 64.7555 16.8402Z" fill="#356549"/>
<path d="M19.16 14.0135L19.16 13.9333C20.4807 13.4121 21.4763 12.6302 22.1671 11.5877C22.8579 10.5653 23.2034 9.40254 23.2034 8.13953C23.2034 6.63595 22.8986 5.39299 22.2687 4.41065C21.6592 3.42831 20.8261 2.68655 19.8102 2.14526C18.7943 1.62402 17.6768 1.26316 16.478 1.08273C15.2793 0.862202 13.9789 0.761963 12.6176 0.761963L3.88077 0.761963C2.62104 0.761963 1.64577 1.06268 0.975272 1.64406C0.325091 2.22545 -5.69884e-08 3.20779 -8.92195e-08 4.59108L-5.77358e-07 25.541C-6.09589e-07 26.9243 0.32509 27.8865 0.975272 28.488C1.64577 29.0694 2.62104 29.3701 3.88077 29.3701L13.5725 29.3701C15.0558 29.3701 16.4171 29.2097 17.6768 28.8889C18.9569 28.5481 20.0947 28.0269 21.0903 27.3453C22.0859 26.6636 22.8376 25.7815 23.3862 24.719C23.9551 23.6364 24.2396 22.3734 24.2396 20.9099C24.2396 19.0054 23.7926 17.5018 22.9189 16.3791C22.0249 15.2364 20.7855 14.4546 19.1804 14.0336L19.16 14.0135ZM6.62373 5.51328L11.8455 5.51328C13.2678 5.51328 14.4259 5.7739 15.2996 6.31518C16.1936 6.83643 16.6203 7.73857 16.6203 9.02163C16.6203 11.3472 15.0964 12.5099 12.0284 12.5099L6.60341 12.5099L6.60341 5.53332L6.62373 5.51328ZM17.1485 22.4737C16.8438 22.9749 16.4374 23.3558 15.9091 23.6164C15.4012 23.877 14.8323 24.0574 14.1821 24.1777C13.5725 24.278 12.902 24.3381 12.1706 24.3381L6.62372 24.3381L6.62373 16.6398L11.3782 16.6398C12.2925 16.6398 13.1052 16.6999 13.8367 16.8001C14.5681 16.8803 15.198 17.0608 15.7669 17.3214C16.3561 17.582 16.8031 17.983 17.1282 18.5042C17.4736 19.0254 17.6565 19.7071 17.6565 20.529C17.6565 21.351 17.4939 21.9725 17.1689 22.4737L17.1485 22.4737Z" fill="#356549"/>
<path d="M31.5946 0.240479C30.6803 0.240479 29.9488 0.501099 29.4205 1.00229C28.9126 1.50349 28.6484 2.2252 28.6484 3.1474L28.6484 26.9641C28.6484 27.8863 28.9126 28.608 29.4205 29.1092C29.9488 29.6104 30.6803 29.871 31.5946 29.871C32.5089 29.871 33.22 29.6104 33.728 29.1092C34.2563 28.608 34.5407 27.8863 34.5407 26.9641L34.5407 3.1474C34.5407 2.2252 34.2766 1.50349 33.728 1.00229C33.22 0.501099 32.5089 0.240479 31.5946 0.240479Z" fill="#356549"/>
<path d="M42.7899 8.05933C41.713 8.05933 40.9612 8.31995 40.4939 8.86124C40.0672 9.38248 39.8437 10.0841 39.8437 10.9662L39.8437 26.9643C39.8437 27.8464 40.0672 28.5481 40.4939 29.0694C40.9409 29.5906 41.713 29.8713 42.7899 29.8713C43.8667 29.8713 44.6185 29.6106 45.0452 29.0694C45.4922 28.5481 45.736 27.8464 45.736 26.9643L45.736 10.9662C45.736 10.0841 45.5125 9.38248 45.0452 8.86124C44.6185 8.33999 43.8667 8.05933 42.7899 8.05933Z" fill="#356549"/>
<path d="M132.986 10.9863C133.779 11.0464 134.531 11.1868 135.282 11.3672C135.282 11.2068 135.364 11.0665 135.364 10.8861C135.364 10.0641 135.059 9.38248 134.429 8.86124C133.84 8.33999 133.068 8.05933 132.133 8.05933C130.812 8.05933 129.776 8.52042 129.004 9.44262C128.781 9.72329 128.598 10.0641 128.395 10.4049L132.986 10.9662L132.986 10.9863Z" fill="#356549"/>
<path d="M81.1931 3.1474C81.1931 2.2252 80.9289 1.50349 80.3803 1.00229C79.8724 0.501099 79.1612 0.240479 78.2469 0.240479C77.3326 0.240479 76.6011 0.501099 76.0729 1.00229C75.5649 1.50349 75.3008 2.2252 75.3008 3.1474L75.3008 3.96936L81.1727 4.69107L81.1727 3.16745L81.1931 3.1474Z" fill="#356549"/>
<path d="M126.419 8.78104C125.932 8.2999 125.302 8.05933 124.53 8.05933C123.758 8.05933 123.107 8.2999 122.599 8.78104C122.356 9.02162 122.173 9.30229 122.051 9.6431L127.09 10.2646C127.008 9.68319 126.805 9.16195 126.419 8.80109L126.419 8.78104Z" fill="#356549"/>
<path d="M40.6167 0.962422C40.0274 1.54381 39.7227 2.26553 39.7227 3.10753C39.7227 3.94953 40.0274 4.67125 40.6167 5.25264C40.8605 5.49321 41.1652 5.67364 41.4497 5.81397L42.7501 0.0803223C41.8967 0.0803223 41.1856 0.381038 40.6167 0.942375L40.6167 0.962422Z" fill="#356549"/>
<path d="M121.871 26.9643C121.871 27.8464 122.095 28.5481 122.521 29.0693C122.968 29.5906 123.74 29.8712 124.817 29.8712C125.894 29.8712 126.646 29.6106 127.073 29.0693C127.52 28.5481 127.763 27.8464 127.763 26.9643L127.763 20.2082C127.763 17.8827 128.048 16.2187 128.657 15.2564C129.267 14.2741 130.202 13.7929 131.441 13.7929L132.477 13.7929C133.31 13.7929 134.001 13.5724 134.529 13.1113C134.997 12.7304 135.22 12.1089 135.301 11.3672C134.55 11.1867 133.798 11.0464 133.005 10.9863L128.414 10.4249C127.967 11.1867 127.56 12.0087 127.296 13.0111L127.215 13.0111L127.215 10.7858C127.215 10.5853 127.154 10.445 127.134 10.2645L122.095 9.64307C121.973 9.96383 121.912 10.3447 121.912 10.7657L121.912 26.9643L121.871 26.9643Z" fill="#6FE593"/>
<path d="M114.94 11.0063C114.025 10.0841 112.908 9.36243 111.567 8.86124C110.246 8.33999 108.783 8.05933 107.137 8.05933C103.704 8.05933 101.001 9.08176 99.0102 11.1467C97.019 13.1915 96.0234 15.918 96.0234 19.3262C96.0234 20.6493 96.2469 21.9324 96.6736 23.1753C97.1003 24.4183 97.7708 25.5409 98.6851 26.5433C99.5994 27.5457 100.778 28.3476 102.22 28.9691C103.663 29.5505 105.37 29.8512 107.32 29.8512C108.255 29.8512 109.251 29.751 110.307 29.5304C111.384 29.3099 112.38 29.0092 113.314 28.5682C114.289 28.1271 115.062 27.5858 115.651 26.9443C116.24 26.2827 116.545 25.5409 116.545 24.719C116.545 24.1577 116.301 23.6565 115.813 23.1753C115.366 22.6942 114.797 22.4536 114.127 22.4536C113.68 22.4536 113.274 22.5538 112.969 22.7343C112.644 22.9147 112.278 23.1954 111.892 23.5763C111.242 24.1376 110.612 24.5586 109.962 24.8794C109.352 25.1801 108.478 25.3204 107.341 25.3204C105.654 25.3204 104.334 24.8393 103.358 23.8569C102.383 22.8746 101.916 21.6116 101.916 20.0479L115.183 20.0479C116.179 20.0479 116.85 19.8674 117.195 19.5266C117.561 19.1858 117.764 18.5242 117.764 17.5419C117.764 16.319 117.52 15.1562 117.032 14.0536C116.585 12.9109 115.874 11.8884 114.94 11.0063ZM101.916 16.7199C102.241 15.2565 102.85 14.1338 103.765 13.3519C104.679 12.53 105.837 12.129 107.259 12.129C108.539 12.129 109.637 12.5701 110.551 13.4321C111.486 14.2741 112.034 15.3767 112.197 16.7199L101.895 16.7199L101.916 16.7199Z" fill="#6FE593"/>
<path d="M94.0138 25.9619C93.9122 25.6411 93.77 25.3805 93.6075 25.16L87.4917 17.0607L91.8398 12.57C91.8398 12.57 91.9007 12.5098 91.921 12.4898C92.2258 12.169 92.4087 11.9084 92.5306 11.6879C92.6728 11.4473 92.7338 11.1065 92.7338 10.6655C92.7338 9.94374 92.429 9.3423 91.8398 8.84111C91.2709 8.31987 90.641 8.0392 89.9502 8.0392C89.1375 8.0392 88.3857 8.40006 87.6949 9.14183L81.1727 16.2788L81.1727 4.67118L75.3008 3.94946L75.3008 19.9676L81.2743 22.4335L83.2249 20.7495L85.7646 24.2979L94.0748 27.7261C94.1357 27.4855 94.217 27.265 94.217 27.0044C94.217 26.5834 94.156 26.2225 94.0138 25.9418L94.0138 25.9619Z" fill="#6FE593"/>
<path d="M69.9944 12.109C69.588 11.1066 69.0191 10.3047 68.308 9.72329C67.6172 9.12186 66.8248 8.70085 65.9308 8.46028C65.0774 8.19966 64.1834 8.05933 63.2285 8.05933C61.664 8.05933 60.323 8.38009 59.1648 9.02162C58.0473 9.66314 57.0111 10.5653 56.1171 11.7281L56.0358 11.7281L56.0358 10.9662C56.0358 10.0641 55.8123 9.36243 55.345 8.86124C54.9183 8.33999 54.2681 8.05933 53.3741 8.05933C52.4801 8.05933 51.8096 8.31995 51.3626 8.86124C51.1391 9.1419 50.9766 9.48272 50.875 9.86362L59.1648 13.2918C59.7744 12.9911 60.4042 12.8307 61.0747 12.8307C62.3141 12.8307 63.2284 13.1915 63.8583 13.9333C64.2444 14.3744 64.4882 14.9157 64.6304 15.5572L70.6649 18.0431L70.6649 15.6775C70.6649 14.2741 70.4414 13.0913 70.0147 12.109L69.9944 12.109Z" fill="#6FE593"/>
<path d="M44.9635 5.25264C45.5527 4.67125 45.8575 3.94953 45.8575 3.10753C45.8575 2.26552 45.5527 1.54381 44.9635 0.962422C44.3743 0.381038 43.6428 0.0803223 42.7894 0.0803223C42.7894 0.0803223 42.7894 0.0803223 42.7691 0.0803223L41.4687 5.79393C41.8751 5.9944 42.3018 6.11469 42.8097 6.11469C43.6631 6.11469 44.3946 5.81397 44.9838 5.23259L44.9635 5.25264Z" fill="#356549"/>
<path d="M42.7712 6.25489C44.5186 6.25489 45.9408 4.85155 45.9408 3.12745C45.9408 1.40334 44.5186 1.13327e-07 42.7712 7.30539e-08C41.0238 3.27806e-08 39.6016 1.40334 39.6016 3.12745C39.6016 4.85155 41.0238 6.25489 42.7712 6.25489Z" fill="white"/>
</svg>
