<svg width="1284" height="471" viewBox="0 0 1284 471" fill="none" xmlns="http://www.w3.org/2000/svg">
<path d="M1112.6 216.36L1159.98 219.519C1223.42 225.128 1275.66 281.625 1275.66 346.461C1275.66 415.034 1220.01 470.623 1151.37 470.623C1137.5 470.623 1079 452.109 1066.54 447.918L1066.51 448.036L1064.82 447.329C1060.34 445.746 1055.97 443.912 1051.74 441.846L301.641 182.63L312.361 135.028L1112.6 216.36Z" fill="#C8EDD4"/>
<g style="mix-blend-mode:hard-light">
<path d="M819.523 351.896V161.367C819.523 153.958 821.534 148.242 825.557 144.219C829.79 140.197 835.506 138.186 842.704 138.186C849.901 138.186 855.511 140.197 859.533 144.219C863.767 148.242 865.884 153.958 865.884 161.367V266.793L917.325 209.634C922.829 203.707 928.757 200.743 935.107 200.743C940.611 200.743 945.586 202.86 950.032 207.094C954.689 211.116 957.018 215.985 957.018 221.701C957.018 225.3 956.488 228.052 955.43 229.958C954.583 231.651 952.995 233.768 950.667 236.309C950.455 236.52 950.243 236.732 950.032 236.944L915.738 272.827L964.003 337.606C965.274 339.3 966.332 341.417 967.179 343.957C968.237 346.286 968.766 349.144 968.766 352.531C968.766 358.459 966.65 363.751 962.416 368.409C958.182 372.854 952.995 375.077 946.856 375.077C941.776 375.077 937.542 374.019 934.155 371.902C930.768 369.996 928.016 367.456 925.899 364.281L882.078 302.359L865.884 316.648V351.896C865.884 359.306 863.767 365.021 859.533 369.044C855.511 373.066 849.901 375.077 842.704 375.077C835.506 375.077 829.79 373.066 825.557 369.044C821.534 365.021 819.523 359.306 819.523 351.896Z" fill="#208F4F"/>
</g>
<g style="mix-blend-mode:hard-light">
<path d="M823.523 351.896V161.367C823.523 153.958 825.534 148.242 829.557 144.219C833.79 140.197 839.506 138.186 846.704 138.186C853.901 138.186 859.511 140.197 863.533 144.219C867.767 148.242 869.884 153.958 869.884 161.367V266.793L921.325 209.634C926.829 203.707 932.757 200.743 939.107 200.743C944.611 200.743 949.586 202.86 954.032 207.094C958.689 211.116 961.018 215.985 961.018 221.701C961.018 225.3 960.488 228.052 959.43 229.958C958.583 231.651 956.995 233.768 954.667 236.309C954.455 236.52 954.243 236.732 954.032 236.944L919.738 272.827L968.003 337.606C969.274 339.3 970.332 341.417 971.179 343.957C972.237 346.286 972.766 349.144 972.766 352.531C972.766 358.459 970.65 363.751 966.416 368.409C962.182 372.854 956.995 375.077 950.856 375.077C945.776 375.077 941.542 374.019 938.155 371.902C934.768 369.996 932.016 367.456 929.899 364.281L886.078 302.359L869.884 316.648V351.896C869.884 359.306 867.767 365.021 863.533 369.044C859.511 373.066 853.901 375.077 846.704 375.077C839.506 375.077 833.79 373.066 829.557 369.044C825.534 365.021 823.523 359.306 823.523 351.896Z" fill="#208F4F"/>
</g>
<g style="mix-blend-mode:darken">
<path d="M819.523 351.896V161.367C819.523 153.958 821.534 148.242 825.557 144.219C829.79 140.197 835.506 138.186 842.704 138.186C849.901 138.186 855.511 140.197 859.533 144.219C863.767 148.242 865.884 153.958 865.884 161.367V266.793L917.325 209.634C922.829 203.707 928.757 200.743 935.107 200.743C940.611 200.743 945.586 202.86 950.032 207.094C954.689 211.116 957.018 215.985 957.018 221.701C957.018 225.3 956.488 228.052 955.43 229.958C954.583 231.651 952.995 233.768 950.667 236.309C950.455 236.52 950.243 236.732 950.032 236.944L915.738 272.827L964.003 337.606C965.274 339.3 966.332 341.417 967.179 343.957C968.237 346.286 968.766 349.144 968.766 352.531C968.766 358.459 966.65 363.751 962.416 368.409C958.182 372.854 952.995 375.077 946.856 375.077C941.776 375.077 937.542 374.019 934.155 371.902C930.768 369.996 928.016 367.456 925.899 364.281L882.078 302.359L865.884 316.648V351.896C865.884 359.306 863.767 365.021 859.533 369.044C855.511 373.066 849.901 375.077 842.704 375.077C835.506 375.077 829.79 373.066 825.557 369.044C821.534 365.021 819.523 359.306 819.523 351.896Z" fill="#208F4F"/>
</g>
<g style="mix-blend-mode:hard-light">
<path d="M1173.62 352.686V223.126C1173.62 216.352 1175.53 211.059 1179.34 207.249C1183.36 203.438 1188.44 201.533 1194.58 201.533C1200.72 201.533 1205.7 203.438 1209.51 207.249C1213.53 211.059 1215.54 216.352 1215.54 223.126V240.909H1216.18C1219.35 229.477 1223.9 220.057 1229.83 212.647C1235.97 205.238 1244.22 201.533 1254.6 201.533C1262.01 201.533 1268.04 203.65 1272.7 207.884C1277.57 212.118 1280 217.516 1280 224.079C1280 232.123 1277.78 238.051 1273.33 241.862C1269.1 245.46 1263.7 247.26 1257.14 247.26H1248.88C1239.14 247.26 1231.84 251.176 1226.97 259.009C1222.31 266.842 1219.99 280.073 1219.99 298.703V352.686C1219.99 359.672 1218.19 365.282 1214.59 369.516C1211.2 373.75 1205.27 375.867 1196.81 375.867C1188.34 375.867 1182.3 373.75 1178.71 369.516C1175.32 365.282 1173.62 359.672 1173.62 352.686Z" fill="#208F4F"/>
</g>
<g style="mix-blend-mode:hard-light">
<path d="M1173.62 352.686V223.126C1173.62 216.352 1175.53 211.059 1179.34 207.249C1183.36 203.438 1188.44 201.533 1194.58 201.533C1200.72 201.533 1205.7 203.438 1209.51 207.249C1213.53 211.059 1215.54 216.352 1215.54 223.126V240.909H1216.18C1219.35 229.477 1223.9 220.057 1229.83 212.647C1235.97 205.238 1244.22 201.533 1254.6 201.533C1262.01 201.533 1268.04 203.65 1272.7 207.884C1277.57 212.118 1280 217.516 1280 224.079C1280 232.123 1277.78 238.051 1273.33 241.862C1269.1 245.46 1263.7 247.26 1257.14 247.26H1248.88C1239.14 247.26 1231.84 251.176 1226.97 259.009C1222.31 266.842 1219.99 280.073 1219.99 298.703V352.686C1219.99 359.672 1218.19 365.282 1214.59 369.516C1211.2 373.75 1205.27 375.867 1196.81 375.867C1188.34 375.867 1182.3 373.75 1178.71 369.516C1175.32 365.282 1173.62 359.672 1173.62 352.686Z" fill="#208F4F"/>
</g>
<g style="mix-blend-mode:darken">
<path d="M1177.62 352.686V223.126C1177.62 216.352 1179.53 211.059 1183.34 207.249C1187.36 203.438 1192.44 201.533 1198.58 201.533C1204.72 201.533 1209.7 203.438 1213.51 207.249C1217.53 211.059 1219.54 216.352 1219.54 223.126V240.909H1220.18C1223.35 229.477 1227.9 220.057 1233.83 212.647C1239.97 205.238 1248.22 201.533 1258.6 201.533C1266.01 201.533 1272.04 203.65 1276.7 207.884C1281.57 212.118 1284 217.516 1284 224.079C1284 232.123 1281.78 238.051 1277.33 241.862C1273.1 245.46 1267.7 247.26 1261.14 247.26H1252.88C1243.14 247.26 1235.84 251.176 1230.97 259.009C1226.31 266.842 1223.99 280.073 1223.99 298.703V352.686C1223.99 359.672 1222.19 365.282 1218.59 369.516C1215.2 373.75 1209.27 375.867 1200.81 375.867C1192.34 375.867 1186.3 373.75 1182.71 369.516C1179.32 365.282 1177.62 359.672 1177.62 352.686Z" fill="#208F4F"/>
</g>
<g style="mix-blend-mode:darken">
<path d="M1123.18 297.433H1018.4C1018.4 309.923 1022.21 320.084 1029.83 327.917C1037.45 335.75 1047.93 339.667 1061.26 339.667C1070.15 339.667 1077.03 338.502 1081.9 336.174C1086.98 333.633 1092.06 330.14 1097.15 325.694C1100.32 322.731 1103.18 320.508 1105.72 319.026C1108.26 317.544 1111.33 316.803 1114.93 316.803C1120.22 316.803 1124.67 318.708 1128.26 322.519C1132.07 326.329 1133.98 330.458 1133.98 334.903C1133.98 341.466 1131.65 347.394 1126.99 352.686C1122.34 357.767 1116.2 362.107 1108.58 365.706C1101.17 369.093 1093.23 371.633 1084.76 373.327C1076.51 375.02 1068.67 375.867 1061.26 375.867C1045.81 375.867 1032.37 373.538 1020.94 368.881C1009.5 364.012 1000.19 357.555 992.993 349.511C985.795 341.466 980.503 332.469 977.116 322.519C973.729 312.569 972.035 302.302 972.035 291.717C972.035 264.408 979.868 242.603 995.533 226.302C1011.2 209.789 1032.58 201.533 1059.68 201.533C1072.59 201.533 1084.23 203.65 1094.6 207.884C1105.19 211.906 1114.08 217.622 1121.28 225.032C1128.69 232.229 1134.19 240.38 1137.79 249.483C1141.6 258.374 1143.51 267.689 1143.51 277.427C1143.51 285.26 1142.02 290.552 1139.06 293.304C1136.31 296.057 1131.02 297.433 1123.18 297.433ZM1018.4 270.759H1099.69C1098.42 259.962 1094.08 251.176 1086.67 244.402C1079.47 237.416 1070.79 233.923 1060.63 233.923C1049.41 233.923 1040.2 237.204 1033 243.767C1025.8 250.118 1020.94 259.115 1018.4 270.759Z" fill="#208F4F"/>
</g>
<g style="mix-blend-mode:darken">
<path d="M1123.18 297.433H1018.4C1018.4 309.923 1022.21 320.084 1029.83 327.917C1037.45 335.75 1047.93 339.667 1061.26 339.667C1070.15 339.667 1077.03 338.502 1081.9 336.174C1086.98 333.633 1092.06 330.14 1097.15 325.694C1100.32 322.731 1103.18 320.508 1105.72 319.026C1108.26 317.544 1111.33 316.803 1114.93 316.803C1120.22 316.803 1124.67 318.708 1128.26 322.519C1132.07 326.329 1133.98 330.458 1133.98 334.903C1133.98 341.466 1131.65 347.394 1126.99 352.686C1122.34 357.767 1116.2 362.107 1108.58 365.706C1101.17 369.093 1093.23 371.633 1084.76 373.327C1076.51 375.02 1068.67 375.867 1061.26 375.867C1045.81 375.867 1032.37 373.538 1020.94 368.881C1009.5 364.012 1000.19 357.555 992.993 349.511C985.795 341.466 980.503 332.469 977.116 322.519C973.729 312.569 972.035 302.302 972.035 291.717C972.035 264.408 979.868 242.603 995.533 226.302C1011.2 209.789 1032.58 201.533 1059.68 201.533C1072.59 201.533 1084.23 203.65 1094.6 207.884C1105.19 211.906 1114.08 217.622 1121.28 225.032C1128.69 232.229 1134.19 240.38 1137.79 249.483C1141.6 258.374 1143.51 267.689 1143.51 277.427C1143.51 285.26 1142.02 290.552 1139.06 293.304C1136.31 296.057 1131.02 297.433 1123.18 297.433ZM1018.4 270.759H1099.69C1098.42 259.962 1094.08 251.176 1086.67 244.402C1079.47 237.416 1070.79 233.923 1060.63 233.923C1049.41 233.923 1040.2 237.204 1033 243.767C1025.8 250.118 1020.94 259.115 1018.4 270.759Z" fill="#208F4F"/>
</g>
<g style="mix-blend-mode:hard-light">
<path d="M1127.18 297.433H1022.4C1022.4 309.923 1026.21 320.084 1033.83 327.917C1041.45 335.75 1051.93 339.667 1065.26 339.667C1074.15 339.667 1081.03 338.502 1085.9 336.174C1090.98 333.633 1096.06 330.14 1101.15 325.694C1104.32 322.731 1107.18 320.508 1109.72 319.026C1112.26 317.544 1115.33 316.803 1118.93 316.803C1124.22 316.803 1128.67 318.708 1132.26 322.519C1136.07 326.329 1137.98 330.458 1137.98 334.903C1137.98 341.466 1135.65 347.394 1130.99 352.686C1126.34 357.767 1120.2 362.107 1112.58 365.706C1105.17 369.093 1097.23 371.633 1088.76 373.327C1080.51 375.02 1072.67 375.867 1065.26 375.867C1049.81 375.867 1036.37 373.538 1024.94 368.881C1013.5 364.012 1004.19 357.555 996.993 349.511C989.795 341.466 984.503 332.469 981.116 322.519C977.729 312.569 976.035 302.302 976.035 291.717C976.035 264.408 983.868 242.603 999.533 226.302C1015.2 209.789 1036.58 201.533 1063.68 201.533C1076.59 201.533 1088.23 203.65 1098.6 207.884C1109.19 211.906 1118.08 217.622 1125.28 225.032C1132.69 232.229 1138.19 240.38 1141.79 249.483C1145.6 258.374 1147.51 267.689 1147.51 277.427C1147.51 285.26 1146.02 290.552 1143.06 293.304C1140.31 296.057 1135.02 297.433 1127.18 297.433ZM1022.4 270.759H1103.69C1102.42 259.962 1098.08 251.176 1090.67 244.402C1083.47 237.416 1074.79 233.923 1064.63 233.923C1053.41 233.923 1044.2 237.204 1037 243.767C1029.8 250.118 1024.94 259.115 1022.4 270.759Z" fill="#208F4F"/>
</g>
<g style="mix-blend-mode:hard-light">
<path d="M284.39 350.008V222.036C284.39 215.05 286.084 209.44 289.471 205.206C293.07 200.972 299.103 198.855 307.57 198.855C316.038 198.855 321.965 200.972 325.353 205.206C328.951 209.44 330.751 215.05 330.751 222.036V350.008C330.751 356.994 328.951 362.604 325.353 366.838C321.965 371.072 316.038 373.189 307.57 373.189C299.103 373.189 293.07 371.072 289.471 366.838C286.084 362.604 284.39 356.994 284.39 350.008ZM283.438 159.162C283.438 152.387 285.766 146.671 290.423 142.014C295.081 137.357 300.796 135.028 307.57 135.028C314.345 135.028 320.06 137.357 324.717 142.014C329.375 146.671 331.703 152.387 331.703 159.162C331.703 165.936 329.375 171.652 324.717 176.309C320.06 180.967 314.345 183.295 307.57 183.295C300.796 183.295 295.081 180.967 290.423 176.309C285.766 171.652 283.438 165.936 283.438 159.162Z" fill="#208F4F"/>
</g>
<g style="mix-blend-mode:hard-light">
<path d="M285.179 350.008V222.036C285.179 215.05 286.873 209.44 290.26 205.206C293.859 200.972 299.892 198.855 308.359 198.855C316.827 198.855 322.755 200.972 326.142 205.206C329.74 209.44 331.54 215.05 331.54 222.036V350.008C331.54 356.994 329.74 362.604 326.142 366.838C322.755 371.072 316.827 373.189 308.359 373.189C299.892 373.189 293.859 371.072 290.26 366.838C286.873 362.604 285.179 356.994 285.179 350.008ZM284.227 159.162C284.227 152.387 286.555 146.671 291.212 142.014C295.87 137.357 301.585 135.028 308.359 135.028C315.134 135.028 320.849 137.357 325.507 142.014C330.164 146.671 332.492 152.387 332.492 159.162C332.492 165.936 330.164 171.652 325.507 176.309C320.849 180.967 315.134 183.295 308.359 183.295C301.585 183.295 295.87 180.967 291.212 176.309C286.555 171.652 284.227 165.936 284.227 159.162Z" fill="#208F4F"/>
</g>
<g style="mix-blend-mode:darken">
<path d="M285.179 350.008V222.036C285.179 215.05 286.873 209.44 290.26 205.206C293.859 200.972 299.892 198.855 308.359 198.855C316.827 198.855 322.755 200.972 326.142 205.206C329.74 209.44 331.54 215.05 331.54 222.036V350.008C331.54 356.994 329.74 362.604 326.142 366.838C322.755 371.072 316.827 373.189 308.359 373.189C299.892 373.189 293.859 371.072 290.26 366.838C286.873 362.604 285.179 356.994 285.179 350.008ZM284.227 159.162C284.227 152.387 286.555 146.671 291.212 142.014C295.87 137.357 301.585 135.028 308.359 135.028C315.134 135.028 320.849 137.357 325.507 142.014C330.164 146.671 332.492 152.387 332.492 159.162C332.492 165.936 330.164 171.652 325.507 176.309C320.849 180.967 315.134 183.295 308.359 183.295C301.585 183.295 295.87 180.967 291.212 176.309C286.555 171.652 284.227 165.936 284.227 159.162Z" fill="#208F4F"/>
</g>
<path d="M333.177 158.321C333.177 172.058 322.043 183.194 308.307 183.194C294.572 183.194 283.438 172.058 283.438 158.321C283.438 144.584 294.572 133.448 308.307 133.448C322.043 133.448 333.177 144.584 333.177 158.321Z" fill="#0485A2"/>
<g style="mix-blend-mode:hard-light">
<path d="M215.539 350.317V159.788C215.539 152.379 217.55 146.663 221.572 142.641C225.806 138.618 231.522 136.607 238.719 136.607C245.917 136.607 251.527 138.618 255.549 142.641C259.783 146.663 261.9 152.379 261.9 159.788V350.317C261.9 357.727 259.783 363.443 255.549 367.465C251.527 371.487 245.917 373.498 238.719 373.498C231.522 373.498 225.806 371.487 221.572 367.465C217.55 363.443 215.539 357.727 215.539 350.317Z" fill="#208F4F"/>
</g>
<g style="mix-blend-mode:hard-light">
<path d="M216.328 350.798V160.269C216.328 152.859 218.339 147.143 222.361 143.121C226.595 139.099 232.311 137.088 239.508 137.088C246.706 137.088 252.316 139.099 256.338 143.121C260.572 147.143 262.689 152.859 262.689 160.269V350.798C262.689 358.207 260.572 363.923 256.338 367.945C252.316 371.968 246.706 373.979 239.508 373.979C232.311 373.979 226.595 371.968 222.361 367.945C218.339 363.923 216.328 358.207 216.328 350.798Z" fill="#208F4F"/>
</g>
<g style="mix-blend-mode:darken">
<path d="M215.539 350.317V159.788C215.539 152.379 217.55 146.663 221.572 142.641C225.806 138.618 231.522 136.607 238.719 136.607C245.917 136.607 251.527 138.618 255.549 142.641C259.783 146.663 261.9 152.379 261.9 159.788V350.317C261.9 357.727 259.783 363.443 255.549 367.465C251.527 371.487 245.917 373.498 238.719 373.498C231.522 373.498 225.806 371.487 221.572 367.465C217.55 363.443 215.539 357.727 215.539 350.317Z" fill="#208F4F"/>
</g>
<g style="mix-blend-mode:hard-light">
<path d="M0 344.232V176.567C0 165.558 2.54031 157.725 7.62092 153.068C12.9132 148.411 20.5341 146.082 30.4837 146.082H99.707C110.503 146.082 120.665 146.929 130.191 148.622C139.717 150.104 148.502 152.962 156.546 157.196C164.591 161.43 171.047 167.464 175.916 175.296C180.785 183.129 183.22 193.079 183.22 205.146C183.22 215.308 180.468 224.516 174.964 232.773C169.46 241.029 161.521 247.274 151.148 251.508V252.143C163.85 255.53 173.693 261.776 180.679 270.879C187.665 279.77 191.158 291.837 191.158 307.079C191.158 318.723 188.935 328.884 184.49 337.564C180.256 346.032 174.223 353.018 166.39 358.522C158.557 364.026 149.561 368.154 139.399 370.906C129.45 373.447 118.653 374.717 107.01 374.717H30.4837C20.5341 374.717 12.9132 372.388 7.62092 367.731C2.54031 363.073 0 355.241 0 344.232ZM52.0763 273.101V334.706H95.8966C101.612 334.706 106.905 334.282 111.773 333.436C116.854 332.589 121.405 331.107 125.428 328.99C129.661 326.873 132.943 323.803 135.271 319.781C137.812 315.759 139.082 310.572 139.082 304.221C139.082 297.658 137.706 292.26 134.954 288.026C132.413 283.792 128.815 280.617 124.157 278.5C119.712 276.383 114.631 275.007 108.916 274.372C103.2 273.525 96.7434 273.101 89.5458 273.101H52.0763ZM52.0763 184.188V240.076H94.944C119.077 240.076 131.143 230.762 131.143 212.132C131.143 201.971 127.65 194.773 120.665 190.539C113.679 186.305 104.576 184.188 93.3563 184.188H52.0763Z" fill="#208F4F"/>
</g>
<g style="mix-blend-mode:hard-light">
<path d="M0.789062 344.232V176.567C0.789062 165.558 3.32937 157.725 8.40998 153.068C13.7023 148.411 21.3232 146.082 31.2727 146.082H100.496C111.292 146.082 121.454 146.929 130.98 148.622C140.506 150.104 149.291 152.962 157.335 157.196C165.38 161.43 171.836 167.464 176.705 175.296C181.574 183.129 184.009 193.079 184.009 205.146C184.009 215.308 181.257 224.516 175.753 232.773C170.249 241.029 162.31 247.274 151.937 251.508V252.143C164.639 255.53 174.483 261.776 181.468 270.879C188.454 279.77 191.947 291.837 191.947 307.079C191.947 318.723 189.724 328.884 185.279 337.564C181.045 346.032 175.012 353.018 167.179 358.522C159.347 364.026 150.35 368.154 140.188 370.906C130.239 373.447 119.443 374.717 107.799 374.717H31.2727C21.3232 374.717 13.7023 372.388 8.40998 367.731C3.32937 363.073 0.789062 355.241 0.789062 344.232ZM52.8653 273.101V334.706H96.6856C102.401 334.706 107.694 334.282 112.563 333.436C117.643 332.589 122.195 331.107 126.217 328.99C130.451 326.873 133.732 323.803 136.06 319.781C138.601 315.759 139.871 310.572 139.871 304.221C139.871 297.658 138.495 292.26 135.743 288.026C133.203 283.792 129.604 280.617 124.947 278.5C120.501 276.383 115.42 275.007 109.705 274.372C103.989 273.525 97.5324 273.101 90.3349 273.101H52.8653ZM52.8653 184.188V240.076H95.733C119.866 240.076 131.932 230.762 131.932 212.132C131.932 201.971 128.439 194.773 121.454 190.539C114.468 186.305 105.365 184.188 94.1453 184.188H52.8653Z" fill="#208F4F"/>
</g>
<g style="mix-blend-mode:darken">
<path d="M0 344.232V176.567C0 165.558 2.54031 157.725 7.62092 153.068C12.9132 148.411 20.5341 146.082 30.4837 146.082H99.707C110.503 146.082 120.665 146.929 130.191 148.622C139.717 150.104 148.502 152.962 156.546 157.196C164.591 161.43 171.047 167.464 175.916 175.296C180.785 183.129 183.22 193.079 183.22 205.146C183.22 215.308 180.468 224.516 174.964 232.773C169.46 241.029 161.521 247.274 151.148 251.508V252.143C163.85 255.53 173.693 261.776 180.679 270.879C187.665 279.77 191.158 291.837 191.158 307.079C191.158 318.723 188.935 328.884 184.49 337.564C180.256 346.032 174.223 353.018 166.39 358.522C158.557 364.026 149.561 368.154 139.399 370.906C129.45 373.447 118.654 374.717 107.01 374.717H30.4837C20.5341 374.717 12.9132 372.388 7.62092 367.731C2.54031 363.073 0 355.241 0 344.232ZM52.0763 273.101V334.706H95.8966C101.612 334.706 106.905 334.282 111.773 333.436C116.854 332.589 121.405 331.107 125.428 328.99C129.661 326.873 132.943 323.803 135.271 319.781C137.812 315.759 139.082 310.572 139.082 304.221C139.082 297.658 137.706 292.26 134.954 288.026C132.413 283.792 128.815 280.617 124.157 278.5C119.712 276.383 114.631 275.007 108.916 274.372C103.2 273.525 96.7433 273.101 89.5458 273.101H52.0763ZM52.0763 184.188V240.076H94.944C119.077 240.076 131.143 230.762 131.143 212.132C131.143 201.971 127.65 194.773 120.665 190.539C113.679 186.305 104.576 184.188 93.3563 184.188H52.0763Z" fill="#208F4F"/>
</g>
<g style="mix-blend-mode:hard-light">
<path d="M352.969 350.937V222.96C352.969 215.762 354.663 210.152 358.05 206.129C361.649 201.895 366.942 199.778 373.929 199.778C380.916 199.778 386.103 201.895 389.491 206.129C393.09 210.152 394.89 215.762 394.89 222.96V228.994H395.525C402.724 219.679 410.769 212.481 419.662 207.4C428.766 202.319 439.458 199.778 451.738 199.778C459.148 199.778 466.241 200.837 473.016 202.954C480.003 204.859 486.249 208.246 491.753 213.116C497.47 217.773 501.916 224.124 505.092 232.169C508.48 240.003 510.173 249.529 510.173 260.75V350.937C510.173 357.924 508.374 363.534 504.774 367.768C501.387 372.002 495.459 374.119 486.99 374.119C478.521 374.119 472.487 372.002 468.887 367.768C465.5 363.534 463.806 357.924 463.806 350.937V269.959C463.806 260.221 461.371 252.493 456.501 246.777C451.632 240.849 444.327 237.885 434.588 237.885C425.696 237.885 417.544 241.273 410.134 248.047C402.935 254.61 399.336 263.396 399.336 274.405V350.937C399.336 357.924 397.536 363.534 393.937 367.768C390.55 372.002 384.621 374.119 376.152 374.119C367.684 374.119 361.649 372.002 358.05 367.768C354.663 363.534 352.969 357.924 352.969 350.937Z" fill="#208F4F"/>
</g>
<g style="mix-blend-mode:hard-light">
<path d="M356.969 350.937V222.96C356.969 215.762 358.663 210.152 362.05 206.129C365.649 201.895 370.942 199.778 377.929 199.778C384.916 199.778 390.103 201.895 393.491 206.129C397.09 210.152 398.89 215.762 398.89 222.96V228.994H399.525C406.724 219.679 414.769 212.481 423.662 207.4C432.766 202.319 443.458 199.778 455.738 199.778C463.148 199.778 470.241 200.837 477.016 202.954C484.003 204.859 490.249 208.246 495.753 213.116C501.47 217.773 505.916 224.124 509.092 232.169C512.48 240.003 514.173 249.529 514.173 260.75V350.937C514.173 357.924 512.374 363.534 508.774 367.768C505.387 372.002 499.459 374.119 490.99 374.119C482.521 374.119 476.487 372.002 472.887 367.768C469.5 363.534 467.806 357.924 467.806 350.937V269.959C467.806 260.221 465.371 252.493 460.501 246.777C455.632 240.849 448.327 237.885 438.588 237.885C429.696 237.885 421.544 241.273 414.134 248.047C406.935 254.61 403.336 263.396 403.336 274.405V350.937C403.336 357.924 401.536 363.534 397.937 367.768C394.55 372.002 388.621 374.119 380.152 374.119C371.684 374.119 365.649 372.002 362.05 367.768C358.663 363.534 356.969 357.924 356.969 350.937Z" fill="#208F4F"/>
</g>
<g style="mix-blend-mode:darken">
<path d="M352.969 350.937V222.96C352.969 215.762 354.663 210.152 358.05 206.129C361.649 201.895 366.942 199.778 373.929 199.778C380.916 199.778 386.103 201.895 389.491 206.129C393.09 210.152 394.89 215.762 394.89 222.96V228.994H395.525C402.724 219.679 410.769 212.481 419.662 207.4C428.766 202.319 439.458 199.778 451.738 199.778C459.148 199.778 466.241 200.837 473.016 202.954C480.003 204.859 486.249 208.246 491.753 213.116C497.47 217.773 501.916 224.124 505.092 232.169C508.48 240.003 510.173 249.529 510.173 260.75V350.937C510.173 357.924 508.374 363.534 504.774 367.768C501.387 372.002 495.459 374.119 486.99 374.119C478.521 374.119 472.487 372.002 468.887 367.768C465.5 363.534 463.806 357.924 463.806 350.937V269.959C463.806 260.221 461.371 252.493 456.501 246.777C451.632 240.849 444.327 237.885 434.588 237.885C425.696 237.885 417.544 241.273 410.134 248.047C402.935 254.61 399.336 263.396 399.336 274.405V350.937C399.336 357.924 397.536 363.534 393.937 367.768C390.55 372.002 384.621 374.119 376.152 374.119C367.684 374.119 361.649 372.002 358.05 367.768C354.663 363.534 352.969 357.924 352.969 350.937Z" fill="#208F4F"/>
</g>
<g filter="url(#filter0_dd_312_3899)">
<g clip-path="url(#clip0_312_3899)">
<g clip-path="url(#clip1_312_3899)">
<path d="M662.126 59.3268C663.181 56.269 667.506 56.269 668.562 59.3268L692.135 127.594C692.898 129.805 691.256 132.11 688.917 132.11H641.771C639.431 132.11 637.789 129.805 638.553 127.594L662.126 59.3268Z" fill="#0485A2"/>
<g filter="url(#filter1_dd_312_3899)">
<path fill-rule="evenodd" clip-rule="evenodd" d="M662.18 106.885C641.102 106.885 597.373 116.262 575.246 191.425C557.76 250.827 555.384 314.871 553.776 358.217C553.336 370.077 552.953 380.387 552.335 388.629L550.895 550.216C550.981 569.378 556.262 607.702 576.686 607.702C579.916 607.832 586.558 608.146 587.291 608.356C587.838 608.513 587.788 608.727 587.727 608.988C587.707 609.077 587.684 609.172 587.684 609.272L587.553 611.368C587.553 611.831 587.542 612.317 587.529 612.859C587.499 614.156 587.461 615.776 587.553 618.177C587.71 622.253 587.816 624.857 597.241 624.857H653.801C657.38 624.9 661.665 620.797 661.665 617.393C661.665 615.556 661.625 613.949 661.587 612.467C661.556 611.201 661.526 610.027 661.526 608.882C661.526 608.815 661.523 608.747 661.519 608.681C661.497 608.217 661.474 607.78 662.574 607.963C663.83 608.173 670.69 608.051 673.963 607.963H693.471C694.17 607.921 695.488 608.148 695.174 609.405V617.393C695.174 619.925 696.849 624.962 703.553 624.857C710.256 624.752 734.888 624.813 746.365 624.857C749.246 624.769 755.032 622.657 755.137 614.905V607.834C755.181 607.659 755.372 607.31 755.792 607.31C756.21 607.31 765.742 604.865 770.455 603.643C772.157 603.12 777.316 601.128 777.525 599.975C778.638 593.853 779.583 544.352 777.525 487.1C775.489 430.468 774.122 402.772 772.288 366.368C772.288 364.397 770.971 332.731 770.979 330.62L769.932 312.026L768.884 297.36C767.575 275.885 765.873 226.256 755.53 187.889C738.571 112.334 689.806 106.179 662.18 106.885Z" fill="#0E6F3A"/>
</g>
<path d="M604.904 178.734C613.336 162.296 626.148 158.648 631.396 158.692C634.939 158.997 643.205 161.181 647.927 167.469C653.831 175.329 656.326 188.236 658.029 201.136C659.604 213.056 658.712 231.396 655.668 246.33C655.668 246.33 653.831 260.609 642.286 278.424C627.854 300.694 606.863 281.961 603.321 277.508C599.778 273.053 593.874 258.644 592.824 246.592C591.985 236.95 593.13 223.012 594.268 213.318C595.852 199.825 599.393 189.477 604.904 178.734Z" fill="#FEE6CA"/>
<path d="M667.884 194.804C670.708 168.614 685.448 159.098 692.465 157.613C694.871 157.195 698.001 157.439 699.265 157.613C709.307 158.766 716.35 165.951 718.616 169.399C722.408 174.507 730.62 189.331 733.131 207.769C735.641 226.207 733.218 246.881 731.692 254.913C728.641 267.397 718.015 291.79 699.919 289.485C681.822 287.18 671.89 267.035 670.453 259.658C667.576 247.347 665.059 220.996 667.884 194.804Z" fill="#FEE6CA"/>
<path d="M630.509 211.571C634.064 211.203 640.464 213.92 640.726 219.942C640.987 225.966 639.286 230.649 633.296 233.21C628.204 235.387 620.952 234.825 620.949 224.606C620.948 215.239 627.299 211.997 630.509 211.571ZM697.561 211.579C703.187 211.826 706.657 216.421 706.964 221.4C707.27 226.379 705.278 229.952 702.007 232.815C698.736 235.677 686.943 235.554 687.814 224.615C688.511 215.863 694.603 212.278 697.561 211.579ZM633.913 214.775C633.654 214.72 633.028 214.632 632.605 214.718C631.361 215.186 629.232 216.924 630.665 220.122C632.457 224.121 638.896 223.749 638.544 219.814C638.262 216.665 635.34 215.142 633.913 214.775ZM701.145 215.231C700.759 215.083 699.835 214.921 698.507 215.639C697.164 216.364 695.844 219.574 696.401 221.819C696.958 224.065 701.84 223.364 703.233 221.464C704.348 219.945 703.804 218.396 703.393 217.812C702.898 217.137 701.914 215.656 701.145 215.231Z" fill="#0A0000"/>
<path d="M564.326 361.819C565.054 360.472 566.777 360.033 568.06 360.869L594.424 378.043C595.635 378.832 595.978 380.455 595.188 381.667L534.598 474.677C533.324 476.631 530.323 476.07 529.84 473.788L522.74 440.145C522.612 439.539 522.704 438.906 522.998 438.361L564.326 361.819Z" fill="#0E6F3A"/>
<path d="M591.046 379.027C591.788 377.823 591.44 376.247 590.259 375.467L559.245 354.992C557.886 354.095 556.049 354.641 555.4 356.133L509.721 461.182C508.794 463.312 510.895 465.505 513.063 464.669L545.286 452.264C545.822 452.058 546.274 451.682 546.575 451.194L591.046 379.027Z" fill="#0E6F3A"/>
<path d="M762.24 361.928C761.513 360.58 759.79 360.141 758.506 360.978L732.143 378.151C730.931 378.941 730.589 380.564 731.378 381.775L791.969 474.785C793.242 476.74 796.244 476.179 796.726 473.896L803.826 440.254C803.954 439.648 803.863 439.015 803.569 438.469L762.24 361.928Z" fill="#0E6F3A"/>
<path d="M735.523 379.136C734.78 377.932 735.129 376.356 736.309 375.577L767.324 355.101C768.682 354.204 770.52 354.75 771.168 356.242L816.848 461.29C817.774 463.421 815.674 465.613 813.506 464.779L781.282 452.373C780.747 452.167 780.294 451.792 779.994 451.303L735.523 379.136Z" fill="#0E6F3A"/>
<path d="M661.848 296.878C662.933 296.859 663.828 297.723 663.847 298.807C663.866 299.892 663.002 300.787 661.917 300.806L651.413 300.99L651.212 300.984C650.22 300.901 649.432 300.078 649.414 299.061C649.395 297.977 650.259 297.082 651.344 297.063L661.848 296.878Z" fill="#090909"/>
<path d="M729.5 484.429C729.5 549.919 697.986 573.004 658.789 573.004C619.592 573.004 587.555 549.919 587.555 484.429C587.555 418.939 619.33 365.848 658.527 365.848C697.724 365.848 729.5 418.939 729.5 484.429Z" fill="#559472"/>
</g>
</g>
</g>
<defs>
<filter id="filter0_dd_312_3899" x="518.311" y="11.3109" width="284.378" height="439.378" filterUnits="userSpaceOnUse" color-interpolation-filters="sRGB">
<feFlood flood-opacity="0" result="BackgroundImageFix"/>
<feColorMatrix in="SourceAlpha" type="matrix" values="0 0 0 0 0 0 0 0 0 0 0 0 0 0 0 0 0 0 127 0" result="hardAlpha"/>
<feOffset dy="3.15855"/>
<feGaussianBlur stdDeviation="7.89636"/>
<feComposite in2="hardAlpha" operator="out"/>
<feColorMatrix type="matrix" values="0 0 0 0 0.054902 0 0 0 0 0.435294 0 0 0 0 0.227451 0 0 0 0.1 0"/>
<feBlend mode="normal" in2="BackgroundImageFix" result="effect1_dropShadow_312_3899"/>
<feColorMatrix in="SourceAlpha" type="matrix" values="0 0 0 0 0 0 0 0 0 0 0 0 0 0 0 0 0 0 127 0" result="hardAlpha"/>
<feOffset/>
<feGaussianBlur stdDeviation="11.8445"/>
<feComposite in2="hardAlpha" operator="out"/>
<feColorMatrix type="matrix" values="0 0 0 0 0 0 0 0 0 1 0 0 0 0 0.05 0 0 0 0.18 0"/>
<feBlend mode="normal" in2="effect1_dropShadow_312_3899" result="effect2_dropShadow_312_3899"/>
<feBlend mode="normal" in="SourceGraphic" in2="effect2_dropShadow_312_3899" result="shape"/>
</filter>
<filter id="filter1_dd_312_3899" x="531.943" y="94.2032" width="268.905" height="549.606" filterUnits="userSpaceOnUse" color-interpolation-filters="sRGB">
<feFlood flood-opacity="0" result="BackgroundImageFix"/>
<feColorMatrix in="SourceAlpha" type="matrix" values="0 0 0 0 0 0 0 0 0 0 0 0 0 0 0 0 0 0 127 0" result="hardAlpha"/>
<feOffset dx="-3.15855" dy="3.15855"/>
<feGaussianBlur stdDeviation="7.89636"/>
<feComposite in2="hardAlpha" operator="out"/>
<feColorMatrix type="matrix" values="0 0 0 0 0.054902 0 0 0 0 0.435294 0 0 0 0 0.227451 0 0 0 0.1 0"/>
<feBlend mode="normal" in2="BackgroundImageFix" result="effect1_dropShadow_312_3899"/>
<feColorMatrix in="SourceAlpha" type="matrix" values="0 0 0 0 0 0 0 0 0 0 0 0 0 0 0 0 0 0 127 0" result="hardAlpha"/>
<feOffset dx="6.31709" dy="3.15855"/>
<feGaussianBlur stdDeviation="7.89636"/>
<feComposite in2="hardAlpha" operator="out"/>
<feColorMatrix type="matrix" values="0 0 0 0 0.054902 0 0 0 0 0.435294 0 0 0 0 0.227451 0 0 0 0.1 0"/>
<feBlend mode="normal" in2="effect1_dropShadow_312_3899" result="effect2_dropShadow_312_3899"/>
<feBlend mode="normal" in="SourceGraphic" in2="effect2_dropShadow_312_3899" result="shape"/>
</filter>
<clipPath id="clip0_312_3899">
<rect x="542" y="35" width="237" height="392" rx="118.5" fill="white"/>
</clipPath>
<clipPath id="clip1_312_3899">
<rect width="523.529" height="574.066" fill="white" transform="translate(401.875 50.7927)"/>
</clipPath>
</defs>
</svg>
