<svg width="127" height="127" viewBox="0 0 127 127" fill="none" xmlns="http://www.w3.org/2000/svg">
<path fill-rule="evenodd" clip-rule="evenodd" d="M63.5 127C71.8389 127 80.0962 125.358 87.8004 122.166C95.5046 118.975 102.505 114.298 108.401 108.401C114.298 102.505 118.975 95.5046 122.166 87.8004C125.358 80.0962 127 71.8389 127 63.5C127 55.1611 125.358 46.9038 122.166 39.1996C118.975 31.4954 114.298 24.4952 108.401 18.5987C102.505 12.7022 95.5046 8.02482 87.8004 4.83365C80.0962 1.64248 71.8389 -1.2426e-07 63.5 0C46.6588 2.50954e-07 30.5073 6.69016 18.5987 18.5987C6.69016 30.5073 0 46.6588 0 63.5C0 80.3412 6.69016 96.4927 18.5987 108.401C30.5073 120.31 46.6588 127 63.5 127ZM61.8631 89.1822L97.1409 46.8489L86.3036 37.8178L55.9647 74.2174L40.2661 58.5117L30.2895 68.4883L51.4562 89.6549L56.9172 95.116L61.8631 89.1822Z" fill="#0E6F3A"/>
</svg>
