<svg width="439" height="481" viewBox="0 0 439 481" fill="none" xmlns="http://www.w3.org/2000/svg">
<path d="M217.336 7.26178C218.22 4.70038 221.843 4.70039 222.727 7.26178L242.473 64.4466C243.113 66.2988 241.737 68.2293 239.778 68.2293H200.285C198.326 68.2293 196.95 66.2988 197.589 64.4466L217.336 7.26178Z" fill="#0485A2"/>
<path fill-rule="evenodd" clip-rule="evenodd" d="M218.059 47.1008C200.399 47.1008 163.763 54.9553 145.226 117.916C130.576 167.675 128.585 221.322 127.238 257.631C126.87 267.566 126.549 276.202 126.031 283.106L124.824 418.461C124.897 434.512 129.321 466.614 146.433 466.614C149.138 466.724 154.703 466.987 155.317 467.163C155.775 467.293 155.733 467.473 155.682 467.692C155.665 467.767 155.646 467.846 155.646 467.93L155.537 469.685C155.537 470.073 155.527 470.48 155.517 470.934C155.491 472.021 155.459 473.378 155.537 475.389C155.668 478.803 155.756 480.984 163.654 480.984H211.039C214.037 481.021 217.628 477.584 217.628 474.732C217.628 473.194 217.594 471.847 217.562 470.606C217.535 469.545 217.51 468.562 217.51 467.602C217.51 467.547 217.508 467.49 217.505 467.434C217.486 467.046 217.468 466.68 218.388 466.833C219.441 467.009 225.189 466.907 227.931 466.833H244.274C244.859 466.797 245.963 466.988 245.7 468.041V474.732C245.7 476.853 247.104 481.072 252.72 480.984C258.336 480.896 278.972 480.948 288.588 480.984C291.001 480.911 295.849 479.141 295.937 472.648V466.725C295.974 466.579 296.135 466.286 296.486 466.286C296.837 466.286 304.822 464.239 308.771 463.215C310.197 462.776 314.518 461.108 314.694 460.142C315.626 455.014 316.418 413.548 314.694 365.591C312.988 318.153 311.842 294.952 310.306 264.459C310.306 262.808 309.202 236.282 309.209 234.514L308.332 218.939L307.454 206.654C306.358 188.665 304.932 147.093 296.266 114.955C282.058 51.6647 241.203 46.5093 218.059 47.1008Z" fill="#0E6F3A"/>
<path d="M170.067 107.285C177.131 93.5157 187.863 90.4598 192.259 90.4964C195.227 90.7524 202.15 92.5813 206.107 97.8484C211.052 104.432 213.142 115.244 214.569 126.05C215.888 136.035 215.141 151.398 212.591 163.907C212.591 163.907 211.052 175.868 201.381 190.791C189.292 209.446 171.709 193.754 168.741 190.023C165.774 186.292 160.828 174.222 159.949 164.127C159.246 156.05 160.205 144.375 161.158 136.255C162.485 124.952 165.452 116.283 170.067 107.285Z" fill="#FEE6CA"/>
<path d="M222.824 120.746C225.19 98.8067 237.537 90.8355 243.415 89.5923C245.43 89.2412 248.052 89.446 249.111 89.5923C257.522 90.5576 263.422 96.5762 265.321 99.4648C268.497 103.743 275.375 116.16 277.478 131.606C279.581 147.051 277.551 164.368 276.273 171.096C273.718 181.553 264.817 201.986 249.658 200.055C234.5 198.125 226.18 181.25 224.975 175.07C222.566 164.759 220.458 142.685 222.824 120.746Z" fill="#FEE6CA"/>
<path d="M191.52 134.793C194.498 134.485 199.858 136.761 200.077 141.806C200.296 146.851 198.871 150.774 193.853 152.919C189.588 154.742 183.513 154.271 183.512 145.711C183.511 137.865 188.832 135.15 191.52 134.793ZM247.685 134.801C252.398 135.007 255.305 138.855 255.562 143.027C255.819 147.198 254.15 150.191 251.41 152.589C248.669 154.986 238.791 154.883 239.521 145.719C240.105 138.389 245.207 135.386 247.685 134.801ZM194.37 137.476C194.152 137.43 193.628 137.356 193.273 137.428C192.231 137.821 190.448 139.276 191.648 141.956C193.149 145.305 198.543 144.993 198.248 141.697C198.012 139.059 195.564 137.784 194.37 137.476ZM250.687 137.858C250.363 137.734 249.588 137.598 248.476 138.199C247.351 138.807 246.246 141.495 246.713 143.377C247.18 145.258 251.268 144.67 252.435 143.08C253.37 141.807 252.914 140.509 252.569 140.02C252.155 139.454 251.33 138.214 250.687 137.858Z" fill="#0A0000"/>
<path d="M424.709 470.893C412.249 469.048 329.866 466.83 290.232 465.951L287.6 461.667L301.859 388.408L320.506 394.449L372.498 435.966L414.399 463.425L424.051 466.72L424.709 470.893Z" fill="#0E6F3A"/>
<path d="M313.316 388.81C313.404 387.492 313.827 386.797 314.193 386.724C314.193 386.724 316.059 385.736 318.473 384.967C321.326 384.059 324.508 383.65 324.508 383.65C333.507 382.332 334.824 400.667 335.263 401.984C335.614 403.038 336.873 402.862 337.458 402.643C351.175 397.044 354.138 413.292 354.467 416.037C354.73 418.232 356.918 417.976 357.978 417.574C373.78 412.853 377.841 432.285 379.487 434.7C380.804 436.633 381.499 436.75 381.681 436.567C392.436 432.849 396.386 445.679 397.813 447.765C398.954 449.434 400.336 448.899 400.885 448.424C410.652 442.934 412.956 457.426 412.956 459.183C412.956 460.588 413.468 461.305 413.724 461.488C416.138 463.355 424.917 465.331 425.246 465.55C425.576 465.77 427.661 466.429 427.77 468.515C427.858 470.183 427.503 471.301 424.101 470.752L423.991 468.667C424.079 466.998 423.04 466.544 422.564 466.471C386.242 462.409 314.194 393.421 313.755 393.091C313.404 392.828 313.316 392.176 313.316 391.884C313.279 391.408 313.228 390.127 313.316 388.81Z" fill="#0485A2"/>
<path d="M136.077 260.647C136.687 259.518 138.13 259.151 139.205 259.851L161.288 274.237C162.304 274.899 162.59 276.258 161.929 277.273L111.175 355.183C110.108 356.821 107.594 356.351 107.19 354.439L101.242 326.258C101.135 325.75 101.211 325.22 101.458 324.763L136.077 260.647Z" fill="#0E6F3A"/>
<path d="M90.4238 326.502C89.3827 326.368 89.1059 324.989 90.0149 324.464L105.594 315.467C106.244 315.091 107.071 315.465 107.218 316.201L109.484 327.489C109.631 328.225 109.013 328.888 108.268 328.793L90.4238 326.502Z" fill="#0E6F3A"/>
<path d="M158.459 275.062C159.081 274.053 158.789 272.733 157.8 272.08L131.821 254.929C130.683 254.178 129.144 254.635 128.6 255.885L90.3365 343.879C89.5604 345.664 91.3202 347.501 93.1365 346.801L120.128 336.41C120.577 336.237 120.956 335.922 121.208 335.513L158.459 275.062Z" fill="#0E6F3A"/>
<path d="M301.862 260.739C301.253 259.61 299.809 259.243 298.734 259.943L276.651 274.329C275.636 274.99 275.349 276.349 276.01 277.365L326.765 355.275C327.832 356.913 330.346 356.443 330.749 354.531L336.697 326.35C336.805 325.841 336.728 325.312 336.481 324.854L301.862 260.739Z" fill="#0E6F3A"/>
<path d="M279.48 275.152C278.858 274.143 279.15 272.823 280.139 272.17L306.119 255.018C307.256 254.268 308.796 254.725 309.339 255.974L347.603 343.969C348.379 345.754 346.619 347.59 344.803 346.891L317.811 336.5C317.363 336.327 316.984 336.012 316.732 335.603L279.48 275.152Z" fill="#0E6F3A"/>
<path d="M348.676 326.592C349.717 326.458 349.994 325.079 349.085 324.554L333.505 315.556C332.855 315.181 332.029 315.555 331.881 316.29L329.616 327.579C329.468 328.315 330.087 328.978 330.831 328.883L348.676 326.592Z" fill="#0E6F3A"/>
<path d="M274.437 363.352C274.437 418.21 248.039 437.548 215.205 437.548C182.372 437.548 155.535 418.21 155.535 363.352C155.535 308.493 182.152 264.021 214.986 264.021C247.82 264.021 274.437 308.493 274.437 363.352Z" fill="#559472"/>
<path d="M215.845 202.906C214.09 204.039 211.743 206.964 216.393 209.597C222.207 212.887 220.232 199.615 215.845 202.906Z" stroke="#090909" stroke-width="3.29063" stroke-linecap="round"/>
</svg>
