<svg width="110" height="115" viewBox="0 0 110 115" fill="none" xmlns="http://www.w3.org/2000/svg">
<path d="M53.5525 2.2246C53.7441 1.66965 54.5289 1.66965 54.7206 2.2246L58.9988 14.6142C59.1373 15.0155 58.8393 15.4338 58.4147 15.4338H49.8583C49.4338 15.4338 49.1357 15.0155 49.2743 14.6142L53.5525 2.2246Z" fill="#0485A2"/>
<path fill-rule="evenodd" clip-rule="evenodd" d="M53.6454 10.8681C49.8193 10.8681 41.8818 12.5698 37.8656 26.2109C34.6914 36.9917 34.2602 48.6146 33.9683 56.4814C33.8885 58.6338 33.819 60.505 33.7067 62.0008L33.4453 91.3267C33.4612 94.8043 34.4197 101.759 38.127 101.759C38.7132 101.783 39.9188 101.84 40.0519 101.878C40.1511 101.907 40.1421 101.945 40.131 101.993C40.1272 102.009 40.1232 102.026 40.1232 102.045L40.0995 102.425C40.0995 102.509 40.0974 102.597 40.0951 102.695C40.0896 102.931 40.0827 103.225 40.0995 103.661C40.1279 104.4 40.147 104.873 41.8581 104.873H52.1245C52.7741 104.881 53.552 104.136 53.552 103.518C53.552 103.185 53.5446 102.893 53.5378 102.624C53.532 102.395 53.5266 102.181 53.5266 101.974C53.5266 101.962 53.526 101.949 53.5254 101.937C53.5212 101.853 53.5173 101.774 53.7167 101.807C53.9449 101.845 55.1901 101.823 55.7843 101.807H59.3252C59.452 101.799 59.6912 101.84 59.6342 102.069V103.518C59.6342 103.978 59.9384 104.892 61.1551 104.873C62.3719 104.854 66.8428 104.865 68.9262 104.873C69.4491 104.857 70.4995 104.474 70.5185 103.067V101.783C70.5264 101.752 70.5613 101.688 70.6373 101.688C70.7133 101.688 72.4434 101.245 73.299 101.023C73.6079 100.928 74.5443 100.566 74.5823 100.357C74.7843 99.2462 74.9559 90.2623 74.5823 79.8719C74.2127 69.594 73.9644 64.5674 73.6317 57.9607C73.6317 57.603 73.3925 51.856 73.394 51.4729L73.2039 48.0983L73.0138 45.4366C72.7761 41.5392 72.4672 32.5323 70.5898 25.5692C67.5115 11.8569 58.6598 10.7399 53.6454 10.8681Z" fill="#0E6F3A"/>
<path d="M43.2486 23.907C44.7789 20.9238 47.1042 20.2617 48.0566 20.2696C48.6995 20.3251 50.1996 20.7213 51.0568 21.8625C52.1283 23.2889 52.581 25.6314 52.8902 27.9725C53.1759 30.136 53.0141 33.4645 52.4616 36.1747C52.4616 36.1747 52.1283 38.7661 50.033 41.9994C47.4138 46.0411 43.6042 42.6413 42.9613 41.833C42.3184 41.0247 41.2469 38.4095 41.0564 36.2222C40.904 34.4724 41.1118 31.9428 41.3183 30.1835C41.6058 27.7347 42.2486 25.8565 43.2486 23.907Z" fill="#FEE6CA"/>
<path d="M54.6773 26.8249C55.1899 22.0716 57.8651 20.3445 59.1386 20.0752C59.5751 19.9991 60.1432 20.0435 60.3726 20.0752C62.1951 20.2843 63.4733 21.5883 63.8846 22.2142C64.5728 23.1411 66.0631 25.8314 66.5187 29.1778C66.9743 32.5241 66.5345 36.276 66.2577 37.7337C65.7039 39.9994 63.7755 44.4263 60.4913 44.008C57.207 43.5897 55.4045 39.9337 55.1434 38.5948C54.6214 36.3608 54.1648 31.5782 54.6773 26.8249Z" fill="#FEE6CA"/>
<path d="M47.8987 29.9C48.544 29.8336 49.7045 30.3263 49.7521 31.4189C49.7995 32.5119 49.4914 33.3624 48.4045 33.8272C47.4804 34.2222 46.1634 34.1201 46.1629 32.2659C46.1626 30.5659 47.3164 29.9773 47.8987 29.9ZM60.0675 29.901C61.0885 29.9458 61.7178 30.7806 61.7735 31.6842C61.829 32.5876 61.4681 33.2359 60.8746 33.7554C60.2809 34.2749 58.1405 34.2526 58.2984 32.2674C58.425 30.6791 59.5306 30.0278 60.0675 29.901ZM48.5144 30.484C48.4672 30.474 48.3539 30.458 48.2774 30.4737C48.0519 30.5592 47.6663 30.8757 47.9254 31.4583C48.2499 32.1869 49.4164 32.1194 49.3531 31.4024C49.3021 30.8285 48.7728 30.5509 48.5144 30.484ZM60.6974 30.5639C60.6271 30.5371 60.4595 30.5081 60.219 30.6388C59.9759 30.7714 59.7367 31.3557 59.8375 31.7648C59.9384 32.1741 60.8232 32.0459 61.0759 31.6997C61.2776 31.4229 61.1794 31.1408 61.105 31.0343C61.0153 30.9113 60.8365 30.6415 60.6974 30.5639Z" fill="#0A0000"/>
<path d="M98.417 102.688C95.7173 102.288 77.8683 101.807 69.2813 101.617L68.7109 100.689L71.8004 84.8164L75.8404 86.1252L87.1049 95.1203L96.1831 101.069L98.2744 101.783L98.417 102.688Z" fill="#0E6F3A"/>
<path d="M74.2839 84.9041C74.303 84.6187 74.3947 84.468 74.4739 84.4522C74.4739 84.4522 74.8781 84.2381 75.4012 84.0716C76.0193 83.8748 76.7088 83.7862 76.7088 83.7862C78.6584 83.5007 78.9439 87.473 79.039 87.7585C79.1151 87.9868 79.3877 87.9487 79.5145 87.9012C82.4864 86.6881 83.1283 90.2084 83.1996 90.8031C83.2567 91.2788 83.7306 91.2233 83.9605 91.1361C87.3841 90.1133 88.2638 94.3235 88.6204 94.8468C88.9057 95.2654 89.0563 95.2908 89.0959 95.2511C91.4259 94.4457 92.2818 97.2254 92.5909 97.6773C92.8381 98.0389 93.1377 97.9231 93.2566 97.82C95.3726 96.6307 95.8719 99.7705 95.8719 100.151C95.8719 100.456 95.9828 100.611 96.0383 100.651C96.5613 101.055 98.4634 101.483 98.5347 101.531C98.606 101.578 99.0577 101.721 99.0815 102.173C99.1005 102.534 99.0235 102.777 98.2864 102.658L98.2627 102.206C98.2817 101.844 98.0566 101.746 97.9536 101.73C90.084 100.85 74.4741 85.9031 74.379 85.8318C74.303 85.7747 74.2839 85.6335 74.2839 85.5701C74.276 85.467 74.2649 85.1895 74.2839 84.9041Z" fill="#0485A2"/>
<path d="M35.8837 57.1358C36.0157 56.8912 36.3285 56.8117 36.5614 56.9634L41.3459 60.0803C41.5659 60.2235 41.628 60.518 41.4847 60.7379L30.4883 77.6179C30.2572 77.9727 29.7125 77.871 29.625 77.4566L28.3364 71.351C28.3131 71.2409 28.3297 71.1261 28.3832 71.027L35.8837 57.1358Z" fill="#0E6F3A"/>
<path d="M25.9917 71.4023C25.7661 71.3734 25.7062 71.0745 25.9031 70.9608L29.2786 69.0114C29.4194 68.9301 29.5984 69.011 29.6304 69.1704L30.1212 71.6162C30.1532 71.7756 30.0192 71.9193 29.8579 71.8986L25.9917 71.4023Z" fill="#0E6F3A"/>
<path d="M40.7306 60.2584C40.8653 60.0398 40.8021 59.7538 40.5878 59.6124L34.9591 55.8963C34.7126 55.7336 34.3791 55.8326 34.2613 56.1034L25.9711 75.1682C25.803 75.5549 26.1843 75.9528 26.5778 75.8013L32.4258 73.5499C32.5229 73.5125 32.6051 73.4443 32.6597 73.3557L40.7306 60.2584Z" fill="#0E6F3A"/>
<path d="M71.8077 57.1553C71.6757 56.9108 71.3629 56.8312 71.1301 56.9829L66.3455 60.0998C66.1255 60.2431 66.0634 60.5375 66.2067 60.7575L77.2031 77.6375C77.4342 77.9923 77.9789 77.8905 78.0664 77.4762L79.355 71.3705C79.3783 71.2604 79.3617 71.1456 79.3082 71.0466L71.8077 57.1553Z" fill="#0E6F3A"/>
<path d="M66.9569 60.2779C66.8222 60.0593 66.8854 59.7733 67.0997 59.6319L72.7284 55.9158C72.9749 55.7531 73.3084 55.8521 73.4262 56.1229L81.7164 75.1878C81.8845 75.5745 81.5032 75.9724 81.1097 75.8209L75.2617 73.5694C75.1646 73.5321 75.0824 73.4638 75.0278 73.3752L66.9569 60.2779Z" fill="#0E6F3A"/>
<path d="M81.9497 71.4238C82.1753 71.3948 82.2352 71.096 82.0383 70.9823L78.6628 69.0329C78.522 68.9516 78.343 69.0325 78.311 69.1919L77.8202 71.6377C77.7882 71.7971 77.9222 71.9408 78.0835 71.9201L81.9497 71.4238Z" fill="#0E6F3A"/>
<path d="M49.6992 46.6023C50.9429 46.7766 53.725 46.8399 54.9037 45.6992" stroke="#090909" stroke-width="0.712946" stroke-linecap="round"/>
<path d="M65.8588 79.388C65.8588 91.2736 60.1395 95.4632 53.0257 95.4632C45.912 95.4632 40.0977 91.2736 40.0977 79.388C40.0977 67.5024 45.8645 57.8672 52.9782 57.8672C60.0919 57.8672 65.8588 67.5024 65.8588 79.388Z" fill="#559472"/>
</svg>
