<svg width="1983" height="1081" viewBox="0 0 1983 1081" fill="none" xmlns="http://www.w3.org/2000/svg">
<g clip-path="url(#clip0_97_255)">
<rect width="1983" height="1081" fill="#09130E"/>
<path d="M506.25 740.729C504.388 736.185 509.317 731.849 513.586 734.276L608.903 788.453C611.99 790.208 612.428 794.481 609.762 796.827L556.025 844.097C553.358 846.442 549.175 845.462 547.829 842.176L506.25 740.729Z" fill="#0485A2"/>
<path fill-rule="evenodd" clip-rule="evenodd" d="M554.921 794.082C530.892 815.22 490.443 869.759 540.58 977.618C580.204 1062.86 641.707 1138.24 683.335 1189.26C694.724 1203.22 704.626 1215.35 712.184 1225.37L872.555 1410.99C891.867 1432.75 936.311 1471.13 959.595 1450.65C963.407 1447.56 971.295 1441.26 972.34 1440.76C973.12 1440.39 973.278 1440.69 973.471 1441.05C973.537 1441.17 973.607 1441.3 973.707 1441.41L975.658 1443.93C976.123 1444.46 976.597 1445.02 977.126 1445.66C978.392 1447.16 979.973 1449.05 982.486 1451.69C986.75 1456.18 989.481 1459.04 1000.23 1449.59L1064.7 1392.87C1068.83 1389.33 1069.6 1380.36 1066.19 1376.48C1064.35 1374.39 1062.69 1372.59 1061.16 1370.94C1059.85 1369.53 1058.64 1368.22 1057.49 1366.92C1057.43 1366.84 1057.36 1366.77 1057.28 1366.7C1056.79 1366.19 1056.33 1365.71 1057.77 1364.82C1059.41 1363.8 1067.11 1356.78 1070.75 1353.4L1092.99 1333.84C1093.74 1333.09 1095.47 1332.03 1096.38 1333.77L1104.39 1342.88C1106.92 1345.76 1113.88 1349.82 1121.42 1342.98C1128.96 1336.14 1157.1 1311.51 1170.23 1300.05C1173.42 1297.06 1177.9 1288.85 1170.25 1279.91L1163.16 1271.85C1163.03 1271.61 1162.9 1271.02 1163.38 1270.6C1163.86 1270.18 1172.27 1257.83 1176.42 1251.71C1177.84 1249.41 1181.72 1241.97 1180.8 1240.44C1175.93 1232.35 1127.38 1174.98 1067.63 1111.79C1008.53 1049.28 979.198 1019.08 940.61 979.428C938.633 977.181 905.382 942.409 903.275 939.995L883.438 919.851L867.539 904.185C844.515 881.021 792.815 826.16 742.556 792.801C647.469 723.688 585.706 765.575 554.921 794.082Z" fill="#0E6F3A"/>
<path d="M561.635 933.418C554.765 906.228 565.711 889.223 571.736 884.012C576.081 880.808 587.691 875.009 599.379 877.441C613.989 880.48 629.773 892.691 644.648 905.686C658.395 917.695 675.767 939.493 687.27 959.566C687.27 959.566 699.493 977.683 704.196 1009.57C710.076 1049.42 667.367 1049.11 658.864 1047.59C650.361 1046.06 629.183 1035.56 615.903 1022.87C605.279 1012.73 592.609 995.691 584.187 983.501C572.464 966.533 566.125 951.187 561.635 933.418Z" fill="#FEE6CA"/>
<path d="M649.539 888.589C626.498 855.904 633.758 830.279 640.268 821.551C642.59 818.662 646.403 815.802 648.019 814.734C660.62 805.979 675.852 807.107 681.893 808.765C691.335 810.784 715.558 819.448 736.906 837.947C758.255 856.446 776.22 882.44 782.535 893.124C791.574 910.413 803.92 948.869 780.982 964.386C758.045 979.903 726.526 966.9 717.49 959.934C701.869 948.787 672.58 921.273 649.539 888.589Z" fill="#FEE6CA"/>
<path d="M623.746 945.168C627.43 941.184 637.448 937.864 643.784 944.467C650.121 951.07 652.878 958.113 648.618 967.038C644.997 974.625 636.166 981.256 625.918 969.61C616.525 958.936 620.516 948.871 623.746 945.168ZM700.181 877.95C706.84 872.589 715.402 874.348 720.745 879.716C726.087 885.084 727.399 891.152 726.54 897.695C725.682 904.239 712.116 915.923 702.141 902.58C694.161 891.906 697.509 881.712 700.181 877.95ZM630.825 945.408C630.474 945.605 629.672 946.132 629.276 946.654C628.328 948.436 627.641 952.55 632.483 954.76C638.534 957.521 645.501 950.64 641.153 946.507C637.675 943.201 632.819 944.396 630.825 945.408ZM707.912 878.517C707.323 878.737 706.106 879.479 705.312 881.628C704.509 883.802 706.223 888.783 709.11 890.784C711.997 892.786 716.857 887.092 716.542 883.529C716.289 880.68 714.117 879.46 713.062 879.207C711.821 878.934 709.215 878.232 707.912 878.517Z" fill="#0A0000"/>
<path d="M1343.36 1123.39C1324.2 1135.79 1209.45 1231.38 1154.46 1277.62L1145.75 1274.94L1077.47 1158.19L1110.07 1144.09L1230.51 1138.35L1320.39 1125.56L1337.47 1118.49L1343.36 1123.39Z" fill="#0E6F3A"/>
<path d="M1093.54 1145.02C1092.08 1143.12 1091.82 1141.67 1092.23 1141.13C1092.23 1141.13 1093.59 1137.56 1095.95 1133.62C1098.75 1128.97 1102.59 1124.6 1102.59 1124.6C1113.26 1112.04 1136.99 1135.41 1139.17 1136.68C1140.91 1137.69 1142.41 1135.95 1142.94 1134.95C1154.91 1110.91 1178.39 1129.47 1182.12 1132.82C1185.11 1135.49 1187.78 1132.52 1188.74 1130.7C1204.59 1105.37 1233.37 1126.95 1238.5 1128.26C1242.61 1129.32 1243.69 1128.64 1243.72 1128.18C1253.91 1110.25 1274.64 1122.97 1279.08 1124.11C1282.63 1125.01 1283.87 1122.63 1284.05 1121.32C1290.77 1102.16 1311.25 1119.13 1313.35 1121.52C1315.03 1123.43 1316.59 1123.79 1317.15 1123.73C1322.67 1123.38 1336.98 1115.56 1337.7 1115.47C1338.41 1115.37 1342.03 1113.77 1344.68 1116.48C1346.79 1118.65 1347.65 1120.59 1342.36 1123.92L1339.72 1121.21C1337.84 1118.84 1335.88 1119.46 1335.15 1119.93C1280.86 1157.88 1100.25 1150.25 1099.26 1150.32C1098.47 1150.39 1097.57 1149.6 1097.22 1149.21C1096.6 1148.6 1094.99 1146.92 1093.54 1145.02Z" fill="#0485A2"/>
<path d="M924.663 984.471C922.483 983.664 920.079 984.892 919.455 987.131L906.625 1033.14C906.036 1035.25 907.272 1037.45 909.387 1038.04L1071.7 1083.3C1075.12 1084.25 1077.97 1080.6 1076.23 1077.52L1050.6 1032.05C1050.13 1031.23 1049.4 1030.6 1048.51 1030.28L924.663 984.471Z" fill="#0E6F3A"/>
<path d="M911.455 1030.88C909.402 1030.25 908.219 1028.1 908.783 1026.03L923.604 971.596C924.253 969.213 926.895 967.992 929.13 969.042L1086.52 1042.98C1089.71 1044.48 1089.52 1049.08 1086.21 1050.3L1037.04 1068.47C1036.23 1068.77 1035.33 1068.8 1034.5 1068.55L911.455 1030.88Z" fill="#0E6F3A"/>
<path d="M1067.19 1018.05C1068.44 1016.62 1067.17 1014.41 1065.3 1014.79L1033.33 1021.19C1032 1021.46 1031.32 1022.95 1032 1024.13L1042.43 1042.2C1043.11 1043.38 1044.75 1043.54 1045.65 1042.52L1067.19 1018.05Z" fill="#0E6F3A"/>
<path d="M723.997 1040.46C726.926 1042.38 732.893 1042.75 733.335 1028.8C733.888 1011.37 749.847 1021.69 753.846 1020.82C757.846 1019.95 758.636 1007.61 758.285 1002.09C758.004 997.677 763.632 997.033 766.482 997.262" stroke="#090909" stroke-width="6.34827" stroke-linecap="round"/>
<path d="M1009.57 1157.44C1075.23 1232.09 1062.46 1290 1017.78 1329.3C973.104 1368.6 913.442 1374.41 847.779 1299.76C782.116 1225.11 765.104 1132.74 809.781 1093.44C854.458 1054.14 943.906 1082.8 1009.57 1157.44Z" fill="#559472"/>
<g filter="url(#filter0_d_97_255)">
<g clip-path="url(#clip1_97_255)">
<path d="M113.23 249.381C112.87 245.728 117.329 243.68 119.866 246.333L176.501 305.556C178.335 307.474 177.733 310.629 175.321 311.736L126.711 334.064C124.299 335.171 121.514 333.573 121.254 330.932L113.23 249.381Z" fill="#0485A2"/>
<path fill-rule="evenodd" clip-rule="evenodd" d="M136.641 298.012C114.904 307.996 74.2502 338.376 87.0284 426.353C97.1273 495.883 125.007 563.04 143.876 608.495C149.039 620.931 153.527 631.742 156.792 640.534L231.831 807.821C240.996 827.536 264.59 864.549 285.652 854.875C289.044 853.48 296.043 850.658 296.898 850.527C297.535 850.429 297.585 850.673 297.646 850.972C297.667 851.074 297.69 851.182 297.737 851.286L298.594 853.508C298.814 853.985 299.032 854.492 299.276 855.057C299.859 856.409 300.587 858.096 301.819 860.528C303.91 864.656 305.252 867.291 314.973 862.826L373.298 836.037C377.009 834.387 379.486 828.127 377.874 824.616C377.004 822.723 376.201 821.085 375.46 819.574C374.828 818.285 374.241 817.088 373.698 815.907C373.667 815.839 373.632 815.771 373.597 815.703C373.354 815.236 373.124 814.796 374.344 814.464C375.739 814.085 382.756 810.71 386.09 809.069L406.207 799.829C406.906 799.454 408.373 799.065 408.645 800.51L412.427 808.745C413.626 811.356 417.74 815.755 424.603 812.472C431.466 809.189 456.895 797.586 468.752 792.194C471.681 790.74 476.648 785.821 473.085 777.778L469.736 770.488C469.698 770.287 469.731 769.836 470.163 769.638C470.595 769.439 479.266 762.404 483.548 758.912C485.055 757.566 489.431 753.069 489.102 751.781C487.35 744.942 464.882 693.455 435.647 635.401C406.728 577.974 392.2 550.065 373.07 513.4C372.137 511.368 355.782 479.342 354.791 477.162L344.905 458.486L336.879 443.861C325.359 422.339 300.101 371.976 271.266 337.316C217.996 267.447 164.794 284.199 136.641 298.012Z" fill="#0E6F3A"/>
<path d="M111.589 399.224C112.499 378.282 123.981 368.453 129.413 366.013C133.21 364.65 142.766 362.987 150.614 367.234C160.423 372.542 169.108 384.668 176.973 397.162C184.242 408.707 192.008 428.039 195.942 444.878C195.942 444.878 200.81 460.47 197.343 484.307C193.01 514.102 162.495 504.729 156.734 501.814C150.972 498.899 138.06 486.838 131.271 474.909C125.839 465.366 120.418 450.452 117.001 439.919C112.244 425.256 110.995 412.909 111.589 399.224Z" fill="#FEE6CA"/>
<path d="M184.139 385.962C174.652 357.62 185.366 340.819 191.909 335.96C194.195 334.388 197.542 333.155 198.93 332.736C209.845 329.161 220.52 333.228 224.493 335.709C230.827 339.176 246.326 350.565 257.649 368.384C268.973 386.203 276.26 408.666 278.489 417.67C281.25 431.989 281.829 462.176 262.052 468.383C242.275 474.589 222.48 458.53 217.501 451.607C208.702 440.28 193.625 414.304 184.139 385.962Z" fill="#FEE6CA"/>
<path d="M153.546 420.952C157.038 418.889 164.923 418.658 168.045 424.745C171.166 430.831 171.631 436.466 166.667 441.943C162.448 446.599 154.704 449.453 149.863 438.918C145.426 429.261 150.439 422.911 153.546 420.952ZM222.684 389.207C228.602 386.796 234.356 389.89 237.03 394.879C239.705 399.868 239.343 404.495 237.326 408.996C235.308 413.497 223.09 418.954 218.808 407.262C215.382 397.908 219.965 391.328 222.684 389.207ZM158.567 422.645C158.274 422.711 157.587 422.916 157.191 423.206C156.13 424.278 154.757 427.077 157.75 429.696C161.491 432.971 167.954 429.537 165.727 425.646C163.945 422.533 160.212 422.348 158.567 422.645ZM228.103 391.274C227.634 391.305 226.604 391.575 225.575 392.944C224.534 394.328 224.692 398.262 226.33 400.314C227.968 402.366 232.669 399.332 233.207 396.713C233.637 394.619 232.343 393.28 231.642 392.872C230.812 392.41 229.096 391.349 228.103 391.274Z" fill="#0A0000"/>
<path d="M156.457 607.209C156.569 605.475 158.138 604.207 159.857 604.461L195.172 609.684C196.795 609.924 197.917 611.434 197.677 613.058L179.251 737.65C178.864 740.269 175.504 741.112 173.926 738.987L150.673 707.662C150.253 707.097 150.048 706.402 150.093 705.699L156.457 607.209Z" fill="#0E6F3A"/>
<path d="M192.152 612.299C192.347 610.706 191.241 609.246 189.655 609.001L147.981 602.578C146.156 602.296 144.519 603.729 144.557 605.575L147.207 735.518C147.261 738.154 150.466 739.419 152.306 737.532L179.655 709.481C180.109 709.015 180.398 708.413 180.477 707.767L192.152 612.299Z" fill="#0E6F3A"/>
<path d="M360.585 513.589C359.197 512.544 357.212 512.908 356.285 514.377L337.237 544.57C336.361 545.958 336.776 547.793 338.164 548.669L444.684 615.872C446.923 617.285 449.752 615.285 449.167 612.703L440.556 574.653C440.401 573.967 440.007 573.358 439.445 572.935L360.585 513.589Z" fill="#0E6F3A"/>
<path d="M341.189 543.984C339.853 543.094 339.466 541.304 340.314 539.942L362.595 504.142C363.571 502.575 365.724 502.267 367.1 503.498L463.946 590.176C465.91 591.934 464.782 595.19 462.151 595.356L423.053 597.825C422.403 597.866 421.759 597.693 421.217 597.332L341.189 543.984Z" fill="#0E6F3A"/>
<path d="M213.4 498.201C213.93 497.091 215.26 496.62 216.371 497.15C217.482 497.681 217.951 499.011 217.421 500.122C216.33 502.406 214.594 505.951 212.925 509.173C212.86 509.3 212.792 509.425 212.727 509.551C213.01 509.379 213.297 509.205 213.587 509.028C215.971 507.576 218.567 506.005 220.799 504.754C221.914 504.129 222.965 503.568 223.87 503.136C224.714 502.733 225.628 502.345 226.394 502.201C227.603 501.974 228.768 502.771 228.995 503.98C229.222 505.19 228.426 506.355 227.216 506.582C227.079 506.608 226.63 506.758 225.79 507.159C225.011 507.53 224.056 508.038 222.979 508.642C220.827 509.849 218.297 511.378 215.906 512.834C213.541 514.275 211.286 515.661 209.758 516.528C209.045 516.932 208.315 517.327 207.79 517.516C207.661 517.563 207.399 517.652 207.087 517.686C206.934 517.702 206.628 517.723 206.263 517.634C205.871 517.539 205.267 517.276 204.861 516.621C204.471 515.991 204.498 515.368 204.555 515.034C204.611 514.702 204.727 514.452 204.795 514.323C204.931 514.059 205.098 513.852 205.195 513.736L205.302 513.6C205.577 513.231 206.042 512.494 206.668 511.395C207.351 510.195 208.146 508.708 208.967 507.123C210.608 503.955 212.324 500.455 213.4 498.201Z" fill="#090909"/>
<path d="M388.06 650.322C419.075 717.846 397.515 756.572 357.101 775.135C316.686 793.698 272.721 785.068 241.707 717.544C210.692 650.02 218.312 580.233 258.726 561.67C299.141 543.107 357.045 582.798 388.06 650.322Z" fill="#559472"/>
</g>
</g>
<path d="M1611.99 433.593C1613.52 431.1 1617.33 431.934 1617.67 434.834L1625.29 499.582C1625.54 501.679 1623.65 503.394 1621.58 502.943L1580.01 493.851C1577.94 493.399 1576.94 491.05 1578.04 489.248L1611.99 433.593Z" fill="#0485A2"/>
<path fill-rule="evenodd" clip-rule="evenodd" d="M1603.59 475.7C1585 471.634 1544.62 471.468 1510.61 533.482C1483.73 582.493 1469.28 638.511 1459.5 676.426C1456.83 686.799 1454.5 695.818 1452.37 702.967L1419.93 845.184C1416.31 862.098 1413.58 896.912 1431.59 900.852C1434.42 901.59 1440.22 903.149 1440.82 903.475C1441.27 903.718 1441.19 903.897 1441.08 904.116C1441.05 904.191 1441.01 904.27 1440.99 904.359L1440.47 906.181C1440.38 906.589 1440.28 907.016 1440.16 907.491C1439.89 908.63 1439.54 910.05 1439.16 912.186C1438.51 915.81 1438.1 918.127 1446.42 919.945L1496.3 930.855C1499.45 931.584 1504.02 928.792 1504.68 925.79C1505.03 924.171 1505.3 922.745 1505.56 921.431C1505.77 920.308 1505.97 919.267 1506.19 918.257C1506.21 918.199 1506.22 918.139 1506.23 918.079C1506.3 917.666 1506.36 917.276 1507.29 917.65C1508.36 918.077 1514.44 919.293 1517.34 919.847L1534.55 923.61C1535.17 923.706 1536.29 924.161 1535.77 925.209L1534.23 932.253C1533.74 934.486 1534.25 939.251 1540.18 940.452C1546.11 941.652 1567.83 946.457 1577.94 948.71C1580.5 949.188 1586.01 948.442 1587.6 941.626L1588.96 935.39C1589.03 935.245 1589.27 934.974 1589.64 935.055C1590.01 935.135 1598.89 934.818 1603.28 934.65C1604.88 934.516 1609.81 933.755 1610.22 932.779C1612.38 927.595 1622.76 884.124 1631.99 833.24C1641.12 782.907 1645.25 758.219 1650.66 725.763C1651.04 724.025 1655.98 695.846 1656.4 693.986L1659.06 677.387L1660.96 664.252C1663.95 645.062 1672.02 600.969 1670.3 565.14C1669.91 495.24 1628.09 480.406 1603.59 475.7Z" fill="#0E6F3A"/>
<path d="M1539.21 528.007C1549.81 515.138 1561.82 514.392 1566.44 515.443C1569.5 516.395 1576.37 519.915 1579.32 526.371C1583.01 534.441 1582.72 546.304 1581.74 558.008C1580.83 568.824 1576.5 584.825 1570.94 597.407C1570.94 597.407 1566.56 609.644 1552.95 623.128C1535.93 639.984 1521.03 619.416 1518.76 614.805C1516.5 610.194 1514.07 596.348 1515.47 585.518C1516.59 576.853 1520.29 564.783 1523.16 556.454C1527.16 544.86 1532.28 536.417 1539.21 528.007Z" fill="#FEE6CA"/>
<path d="M1591.65 554.326C1599.19 531.775 1614.02 526.226 1620.5 526.27C1622.7 526.365 1625.41 527.184 1626.49 527.582C1635.13 530.535 1639.95 538.229 1641.29 541.707C1643.65 546.942 1648.03 561.599 1646.69 578.343C1645.34 595.087 1639.22 612.85 1636.32 619.639C1631.23 630.059 1617.15 649.521 1601.64 643.998C1586.12 638.475 1581.25 618.795 1581.41 612.012C1581.24 600.602 1584.11 576.878 1591.65 554.326Z" fill="#FEE6CA"/>
<path d="M1555.45 561.902C1558.66 562.264 1563.78 565.894 1562.85 571.256C1561.92 576.617 1559.51 580.419 1553.74 581.523C1548.83 582.46 1542.54 580.565 1544.51 571.553C1546.32 563.293 1552.54 561.659 1555.45 561.902ZM1614.58 574.842C1619.5 576.144 1621.67 580.866 1620.98 585.316C1620.29 589.766 1617.84 592.532 1614.41 594.426C1610.97 596.319 1600.59 593.936 1603.47 584.457C1605.78 576.874 1611.84 574.887 1614.58 574.842ZM1557.84 565.385C1557.62 565.286 1557.08 565.088 1556.69 565.082C1555.51 565.255 1553.29 566.376 1553.94 569.473C1554.75 573.345 1560.5 574.26 1560.95 570.721C1561.31 567.89 1559.02 565.984 1557.84 565.385ZM1617.04 578.753C1616.73 578.548 1615.94 578.227 1614.63 578.603C1613.31 578.984 1611.52 581.56 1611.58 583.648C1611.64 585.736 1616.08 586.059 1617.68 584.653C1618.95 583.528 1618.77 582.057 1618.52 581.462C1618.22 580.771 1617.63 579.276 1617.04 578.753Z" fill="#0A0000"/>
<path d="M1723.57 969.425C1710.87 964.614 1624.66 943.31 1583.13 933.26L1581.35 928.144L1613.23 854.304L1631.47 864.957L1676.64 920.635L1714.43 959.189L1723.83 964.88L1723.57 969.425Z" fill="#0E6F3A"/>
<path d="M1625.2 857.364C1625.59 855.998 1626.2 855.363 1626.6 855.37C1626.6 855.37 1628.79 854.76 1631.51 854.506C1634.72 854.207 1638.17 854.509 1638.17 854.509C1647.94 855.194 1645.11 874.799 1645.27 876.287C1645.39 877.477 1646.76 877.582 1647.43 877.485C1663.16 874.749 1662.53 892.537 1662.25 895.502C1662.02 897.874 1664.38 898.108 1665.59 897.929C1683.31 896.597 1683.11 917.989 1684.29 920.911C1685.23 923.248 1685.94 923.532 1686.17 923.381C1698.35 921.943 1699.55 936.36 1700.58 938.884C1701.39 940.904 1702.97 940.659 1703.66 940.285C1715.2 936.755 1714.29 952.541 1713.89 954.391C1713.57 955.87 1713.94 956.743 1714.17 956.995C1716.28 959.515 1725.07 963.617 1725.36 963.924C1725.66 964.231 1727.7 965.404 1727.34 967.626C1727.04 969.403 1726.41 970.498 1722.96 969.137L1723.32 966.915C1723.8 965.179 1722.81 964.462 1722.33 964.275C1685.02 951.636 1625.06 862.421 1624.67 861.973C1624.36 861.615 1624.42 860.909 1624.49 860.6C1624.56 860.091 1624.8 858.731 1625.2 857.364Z" fill="#0485A2"/>
<path d="M1468.12 681.634C1469.02 680.586 1470.62 680.532 1471.59 681.517L1491.53 701.746C1492.44 702.676 1492.43 704.173 1491.5 705.089L1420.13 775.424C1418.63 776.902 1416.09 775.829 1416.11 773.723L1416.34 742.686C1416.34 742.126 1416.54 741.586 1416.91 741.162L1468.12 681.634Z" fill="#0E6F3A"/>
<path d="M1404.89 740.451C1403.82 740.07 1403.85 738.555 1404.93 738.211L1423.4 732.326C1424.17 732.081 1424.96 732.664 1424.94 733.473L1424.73 745.878C1424.71 746.687 1423.91 747.243 1423.15 746.971L1404.89 740.451Z" fill="#0E6F3A"/>
<path d="M1488.36 701.962C1489.24 701.044 1489.24 699.587 1488.35 698.672L1464.95 674.634C1463.92 673.581 1462.2 673.708 1461.34 674.899L1400.79 758.725C1399.57 760.426 1401 762.764 1403.07 762.446L1433.88 757.721C1434.39 757.643 1434.86 757.398 1435.22 757.026L1488.36 701.962Z" fill="#0E6F3A"/>
<path d="M1642.63 719.901C1642.25 718.572 1640.81 717.853 1639.52 718.343L1612.96 728.404C1611.74 728.866 1611.12 730.231 1611.58 731.452L1647.08 825.157C1647.82 827.127 1650.58 827.211 1651.44 825.291L1664.19 796.993C1664.42 796.483 1664.47 795.907 1664.31 795.369L1642.63 719.901Z" fill="#0E6F3A"/>
<path d="M1615.74 729.923C1615.32 728.718 1615.93 727.395 1617.12 726.936L1648.42 714.861C1649.79 714.332 1651.31 715.168 1651.59 716.609L1671.62 818.055C1672.02 820.113 1669.75 821.641 1668 820.487L1641.97 803.332C1641.54 803.047 1641.21 802.629 1641.04 802.14L1615.74 729.923Z" fill="#0E6F3A"/>
<path d="M1676.74 800.006C1677.87 800.105 1678.48 798.717 1677.64 797.955L1663.31 784.896C1662.72 784.351 1661.76 784.554 1661.43 785.295L1656.45 796.657C1656.13 797.398 1656.62 798.239 1657.43 798.309L1676.74 800.006Z" fill="#0E6F3A"/>
<path d="M1590.13 821.613C1577.49 879.366 1545.25 893.645 1510.69 886.085C1476.12 878.526 1452.32 851.99 1464.95 794.237C1477.58 736.485 1515.84 695.796 1550.41 703.355C1584.97 710.915 1602.76 763.861 1590.13 821.613Z" fill="#559472"/>
<path d="M1566.13 644.335L1555.95 642.898" stroke="#090909" stroke-width="3.91405" stroke-linecap="round"/>
<g clip-path="url(#clip2_97_255)">
<path d="M1923.97 807.133C1923.59 805.135 1925.94 803.773 1927.48 805.107L1961.82 834.879C1962.93 835.843 1962.76 837.616 1961.48 838.353L1935.8 853.195C1934.52 853.931 1932.9 853.192 1932.62 851.747L1923.97 807.133Z" fill="#0485A2"/>
<path fill-rule="evenodd" clip-rule="evenodd" d="M1939.42 832.771C1927.93 839.408 1907.06 858.285 1918.66 906.202C1927.83 944.071 1946.7 979.711 1959.47 1003.83C1962.96 1010.43 1966 1016.17 1968.26 1020.86L2018.34 1109.35C2024.42 1119.76 2039.36 1138.97 2050.49 1132.54C2052.29 1131.6 2056.01 1129.68 2056.48 1129.56C2056.83 1129.47 2056.87 1129.61 2056.91 1129.77C2056.93 1129.82 2056.95 1129.88 2056.98 1129.94L2057.57 1131.12C2057.72 1131.37 2057.86 1131.64 2058.03 1131.94C2058.42 1132.66 2058.91 1133.55 2059.71 1134.83C2061.08 1137 2061.96 1138.39 2067.1 1135.42L2097.91 1117.61C2099.88 1116.51 2100.92 1112.92 2099.85 1111.07C2099.27 1110.07 2098.74 1109.2 2098.26 1108.41C2097.84 1107.73 2097.46 1107.1 2097.09 1106.47C2097.07 1106.44 2097.05 1106.4 2097.03 1106.37C2096.87 1106.12 2096.72 1105.89 2097.38 1105.64C2098.13 1105.36 2101.83 1103.14 2103.58 1102.06L2114.21 1095.92C2114.58 1095.67 2115.37 1095.38 2115.59 1096.16L2118.11 1100.52C2118.91 1101.9 2121.4 1104.11 2125.02 1101.94C2128.64 1099.78 2142.09 1092.05 2148.35 1088.46C2149.9 1087.51 2152.38 1084.54 2150 1080.28L2147.77 1076.43C2147.74 1076.32 2147.74 1076.07 2147.97 1075.94C2148.19 1075.8 2152.62 1071.47 2154.8 1069.32C2155.56 1068.5 2157.75 1065.79 2157.5 1065.1C2156.18 1061.41 2141.11 1034.14 2121.97 1003.6C2103.03 973.388 2093.56 958.729 2081.1 939.473C2080.48 938.399 2069.8 921.562 2069.14 920.409L2062.71 910.609L2057.52 902.948C2050.05 891.66 2033.5 865.158 2015.79 847.511C1982.76 811.687 1954.25 823.688 1939.42 832.771Z" fill="#0E6F3A"/>
<path d="M1930.82 889.952C1930.24 878.342 1936.07 872.321 1938.94 870.693C1940.97 869.744 1946.16 868.331 1950.71 870.27C1956.4 872.694 1961.83 878.941 1966.82 885.432C1971.43 891.431 1976.71 901.704 1979.76 910.798C1979.76 910.798 1983.25 919.156 1982.57 932.497C1981.72 949.173 1964.38 945.575 1961.05 944.264C1957.72 942.952 1949.97 936.96 1945.6 930.725C1942.11 925.736 1938.34 917.782 1935.91 912.142C1932.53 904.292 1931.2 897.539 1930.82 889.952Z" fill="#FEE6CA"/>
<path d="M1970.19 878.882C1963.49 863.723 1968.52 853.898 1971.88 850.881C1973.06 849.895 1974.84 849.043 1975.58 848.74C1981.42 846.207 1987.51 847.904 1989.83 849.069C1993.51 850.658 2002.65 856.149 2009.82 865.405C2016.99 874.66 2022.18 886.686 2023.88 891.542C2026.15 899.304 2028.04 915.939 2017.45 920.38C2006.87 924.821 1995.11 916.973 1992.01 913.406C1986.57 907.605 1976.9 894.04 1970.19 878.882Z" fill="#FEE6CA"/>
<path d="M1955.11 899.782C1956.93 898.463 1961.27 897.928 1963.31 901.128C1965.35 904.327 1965.9 907.413 1963.44 910.694C1961.35 913.483 1957.22 915.461 1954 909.894C1951.05 904.791 1953.49 901.025 1955.11 899.782ZM1991.64 878.679C1994.78 877.042 1998.12 878.453 1999.86 881.069C2001.59 883.686 2001.63 886.259 2000.75 888.848C1999.87 891.438 1993.4 895.083 1990.44 888.849C1988.06 883.861 1990.25 879.991 1991.64 878.679ZM1957.97 900.456C1957.81 900.508 1957.44 900.657 1957.24 900.837C1956.71 901.484 1956.1 903.101 1957.88 904.393C1960.12 906.007 1963.51 903.777 1962.08 901.744C1960.93 900.117 1958.86 900.208 1957.97 900.456ZM1994.74 879.54C1994.49 879.581 1993.93 879.783 1993.43 880.592C1992.93 881.41 1993.22 883.574 1994.23 884.622C1995.24 885.671 1997.68 883.752 1997.84 882.279C1997.97 881.1 1997.19 880.427 1996.78 880.238C1996.3 880.026 1995.3 879.53 1994.74 879.54Z" fill="#0A0000"/>
<path d="M1966.35 1002.47C1966.32 1001.51 1967.12 1000.73 1968.09 1000.78L1987.85 1001.84C1988.76 1001.89 1989.46 1002.66 1989.41 1003.57L1985.68 1073.32C1985.6 1074.79 1983.79 1075.42 1982.81 1074.33L1968.35 1058.24C1968.09 1057.95 1967.94 1057.57 1967.93 1057.18L1966.35 1002.47Z" fill="#0E6F3A"/>
<path d="M1986.32 1003.44C1986.35 1002.55 1985.66 1001.8 1984.78 1001.75L1961.43 1000.35C1960.41 1000.29 1959.58 1001.17 1959.7 1002.19L1967.88 1073.8C1968.05 1075.25 1969.88 1075.78 1970.8 1074.65L1984.45 1057.74C1984.68 1057.46 1984.8 1057.12 1984.81 1056.75L1986.32 1003.44Z" fill="#0E6F3A"/>
<path d="M2094.66 1017.44C2115.27 1053.12 2105.37 1075.62 2084.01 1087.96C2062.66 1100.3 2037.94 1097.81 2017.32 1062.13C1996.7 1026.44 1997.3 987.517 2018.66 975.177C2040.01 962.838 2074.04 981.759 2094.66 1017.44Z" fill="#559472"/>
</g>
<g clip-path="url(#clip3_97_255)">
<path d="M509.158 51.7343C510.194 50.6827 511.975 51.5331 511.809 53.0001L508.092 85.7508C507.972 86.8116 506.842 87.4378 505.879 86.9778L486.462 77.7062C485.499 77.2462 485.276 75.974 486.025 75.2136L509.158 51.7343Z" fill="#0485A2"/>
<path fill-rule="evenodd" clip-rule="evenodd" d="M500.161 71.4906C491.478 67.3447 471.622 62.6054 447.727 89.2083C428.842 110.233 415.269 136.141 406.083 153.676C403.569 158.474 401.384 162.645 399.508 165.918L367.138 232.182C363.406 240.091 358.045 256.912 366.457 260.929C367.762 261.618 370.436 263.054 370.697 263.285C370.891 263.457 370.829 263.535 370.752 263.631C370.726 263.663 370.698 263.698 370.678 263.739L370.212 264.577C370.121 264.767 370.021 264.965 369.909 265.186C369.642 265.714 369.308 266.374 368.873 267.381C368.137 269.09 367.668 270.183 371.551 272.037L394.847 283.162C396.313 283.884 398.885 283.037 399.555 281.635C399.916 280.879 400.215 280.208 400.491 279.591C400.727 279.063 400.946 278.574 401.171 278.102C401.184 278.075 401.196 278.046 401.208 278.018C401.289 277.823 401.366 277.638 401.783 277.93C402.259 278.263 405.109 279.562 406.475 280.17L414.51 284.007C414.806 284.127 415.304 284.48 414.927 284.936L413.357 288.225C412.859 289.268 412.558 291.672 415.34 292.947C418.122 294.223 428.256 299.092 432.975 301.368C434.178 301.898 436.977 302.167 438.545 298.995L439.935 296.083C439.988 296.019 440.136 295.913 440.308 295.996C440.481 296.078 444.887 296.946 447.069 297.37C447.873 297.489 450.39 297.683 450.703 297.25C452.365 294.947 462.489 274.747 472.9 250.764C483.198 227.04 488.082 215.364 494.486 200.012C494.873 199.2 500.558 185.899 500.976 185.032L504.202 177.168L506.654 170.922C510.338 161.82 519.397 141.047 522.682 123.212C530.555 88.7594 511.678 76.6333 500.161 71.4906Z" fill="#0E6F3A"/>
<path d="M462.435 89.8124C469.141 84.7008 475.135 85.7181 477.287 86.7681C478.686 87.5906 481.661 90.1152 482.369 93.6336C483.255 98.0316 481.744 103.838 479.909 109.485C478.213 114.704 474.239 122.082 470.049 127.634C470.049 127.634 466.484 133.153 458.226 138.22C447.903 144.553 442.942 132.71 442.359 130.179C441.776 127.648 442.178 120.553 444.116 115.383C445.666 111.247 448.879 105.732 451.254 101.964C454.56 96.7182 458.054 93.1527 462.435 89.8124Z" fill="#FEE6CA"/>
<path d="M485.212 108.817C491.525 98.5857 499.467 97.5654 502.649 98.3341C503.722 98.6346 504.963 99.3508 505.45 99.6713C509.359 102.121 510.846 106.465 511.101 108.331C511.659 111.18 512.125 118.9 509.533 126.987C506.941 135.074 501.877 143.112 499.67 146.12C495.958 150.661 486.785 158.617 479.786 154.109C472.786 149.601 472.657 139.352 473.516 136.031C474.752 130.395 478.898 119.048 485.212 108.817Z" fill="#FEE6CA"/>
<path d="M466.522 108.372C468.058 108.92 470.16 111.297 469.083 113.829C468.006 116.36 466.385 117.955 463.414 117.832C460.889 117.727 458.013 116.069 460.021 111.86C461.863 108.002 465.116 107.916 466.522 108.372ZM494.134 121.562C496.403 122.769 496.928 125.344 496.075 127.455C495.222 129.566 493.699 130.646 491.789 131.182C489.879 131.717 485.047 129.347 487.557 125.013C489.565 121.546 492.779 121.268 494.134 121.562ZM467.293 110.361C467.196 110.287 466.956 110.128 466.765 110.08C466.161 110.028 464.943 110.325 464.904 111.924C464.856 113.923 467.581 115.036 468.209 113.346C468.712 111.994 467.808 110.793 467.293 110.361ZM494.892 123.769C494.761 123.632 494.412 123.384 493.725 123.418C493.029 123.453 491.854 124.515 491.642 125.55C491.43 126.584 493.578 127.255 494.526 126.747C495.284 126.341 495.364 125.597 495.31 125.275C495.239 124.9 495.125 124.096 494.892 123.769Z" fill="#0A0000"/>
<path d="M502.269 328.363C496.576 324.53 456.593 304.098 437.313 294.362L437.024 291.638L461.234 258.967L468.984 266.315L484.799 298.933L498.953 322.27L502.925 326.156L502.269 328.363Z" fill="#0E6F3A"/>
<path d="M466.771 261.855C467.124 261.227 467.495 260.985 467.692 261.035C467.692 261.035 468.841 260.987 470.208 261.176C471.824 261.399 473.485 261.945 473.485 261.945C478.218 263.41 474.562 272.733 474.469 273.484C474.394 274.085 475.054 274.294 475.393 274.323C483.451 274.791 481.093 283.475 480.611 284.902C480.225 286.043 481.361 286.431 481.977 286.482C490.854 287.871 488.288 298.378 488.53 299.952C488.724 301.211 489.038 301.431 489.171 301.384C495.331 302.081 494.261 309.317 494.473 310.677C494.642 311.765 495.448 311.827 495.829 311.722C501.92 311.316 499.65 318.982 499.238 319.846C498.908 320.537 498.991 321.01 499.074 321.16C499.823 322.644 503.675 325.677 503.786 325.862C503.896 326.047 504.766 326.86 504.331 327.912C503.982 328.753 503.545 329.219 502.001 328.151L502.437 327.099C502.872 326.299 502.467 325.832 502.251 325.685C485.346 315.16 466.12 264.328 465.982 264.063C465.871 263.851 465.981 263.51 466.049 263.366C466.143 263.123 466.419 262.482 466.771 261.855Z" fill="#0485A2"/>
<path d="M409.717 157.233C410.282 156.821 411.078 156.979 411.442 157.576L418.922 169.833C419.265 170.397 419.087 171.132 418.524 171.476L375.28 197.865C374.371 198.42 373.245 197.599 373.495 196.564L377.187 181.312C377.254 181.037 377.416 180.795 377.644 180.628L409.717 157.233Z" fill="#0E6F3A"/>
<path d="M371.814 178.892C371.333 178.581 371.521 177.838 372.091 177.794L381.863 177.028C382.271 176.996 382.589 177.373 382.489 177.77L380.953 183.852C380.852 184.248 380.393 184.429 380.049 184.207L371.814 178.892Z" fill="#0E6F3A"/>
<path d="M417.339 169.574C417.882 169.224 418.048 168.507 417.715 167.954L408.969 153.422C408.586 152.786 407.722 152.649 407.161 153.136L367.69 187.415C366.89 188.111 367.324 189.427 368.381 189.509L384.091 190.737C384.352 190.758 384.612 190.692 384.832 190.55L417.339 169.574Z" fill="#0E6F3A"/>
<path d="M491.209 196.199C491.174 195.501 490.551 194.982 489.858 195.074L475.623 196.962C474.969 197.049 474.509 197.65 474.595 198.304L481.258 248.525C481.398 249.58 482.745 249.94 483.392 249.094L492.932 236.635C493.104 236.411 493.191 236.132 493.177 235.849L491.209 196.199Z" fill="#0E6F3A"/>
<path d="M476.823 198.032C476.754 197.39 477.208 196.81 477.847 196.721L494.647 194.387C495.382 194.285 496.032 194.871 496.006 195.613L494.16 247.859C494.122 248.919 492.826 249.409 492.097 248.638L481.266 237.193C481.086 237.002 480.974 236.759 480.946 236.498L476.823 198.032Z" fill="#0E6F3A"/>
<path d="M498.765 239.567C499.308 239.746 499.768 239.133 499.445 238.661L493.897 230.58C493.666 230.243 493.172 230.232 492.927 230.559L489.163 235.578C488.917 235.905 489.066 236.376 489.454 236.504L498.765 239.567Z" fill="#0E6F3A"/>
<path d="M453.419 240.109C440.54 267.08 423.022 270.39 406.88 262.682C390.737 254.973 382.082 239.166 394.961 212.195C407.84 185.223 431.367 169.608 447.51 177.316C463.653 185.024 466.298 213.138 453.419 240.109Z" fill="#559472"/>
<path d="M455.822 149.365L457.279 151.584L464.67 150.808C465.179 150.389 465.787 149.355 464.148 148.572" stroke="#090909" stroke-width="2" stroke-linecap="round"/>
</g>
<g clip-path="url(#clip4_97_255)">
<g clip-path="url(#clip5_97_255)">
<path d="M1913.32 299.89C1911.96 302.474 1908.1 301.88 1907.58 299.005L1895.92 234.833C1895.54 232.755 1897.33 230.923 1899.41 231.245L1941.49 237.726C1943.58 238.048 1944.73 240.331 1943.75 242.199L1913.32 299.89Z" fill="#0485A2"/>
<path fill-rule="evenodd" clip-rule="evenodd" d="M1919.81 257.435C1938.62 260.332 1978.94 257.975 2009.02 193.93C2032.8 143.315 2043.72 86.4803 2051.12 48.0129C2053.14 37.4882 2054.9 28.3385 2056.58 21.0669L2080.08 -122.959C2082.64 -140.074 2083.19 -175.005 2064.96 -177.813C2062.1 -178.373 2056.21 -179.566 2055.59 -179.855C2055.12 -180.069 2055.2 -180.253 2055.29 -180.478C2055.32 -180.555 2055.35 -180.637 2055.36 -180.726L2055.77 -182.579C2055.83 -182.992 2055.91 -183.424 2056 -183.906C2056.2 -185.06 2056.46 -186.5 2056.71 -188.656C2057.13 -192.315 2057.39 -194.654 2048.98 -195.95L1998.49 -203.725C1995.31 -204.256 1990.92 -201.183 1990.45 -198.145C1990.2 -196.505 1990.01 -195.065 1989.84 -193.737C1989.7 -192.603 1989.56 -191.55 1989.4 -190.529C1989.4 -190.469 1989.39 -190.408 1989.38 -190.349C1989.34 -189.932 1989.3 -189.538 1988.34 -189.853C1987.25 -190.213 1981.11 -191.047 1978.18 -191.419L1960.77 -194.1C1960.14 -194.158 1958.99 -194.543 1959.44 -195.621L1960.54 -202.751C1960.89 -205.011 1960.09 -209.737 1954.09 -210.564C1948.09 -211.392 1926.12 -214.833 1915.88 -216.45C1913.29 -216.768 1907.84 -215.678 1906.68 -208.773L1905.71 -202.462C1905.65 -202.312 1905.43 -202.027 1905.05 -202.085C1904.68 -202.142 1895.83 -201.271 1891.46 -200.828C1889.87 -200.594 1884.99 -199.526 1884.65 -198.526C1882.81 -193.215 1875.16 -149.162 1869.13 -97.7797C1863.16 -46.9534 1860.57 -22.0451 1857.21 10.6982C1856.93 12.4581 1853.76 40.9024 1853.46 42.7852L1851.84 59.5254L1850.76 72.7594C1848.97 92.1067 1843.67 136.636 1847.63 172.302C1852.38 242.07 1895.06 254.267 1919.81 257.435Z" fill="#0E6F3A"/>
<path d="M1980.81 201.18C1971.02 214.693 1959.09 216.187 1954.41 215.427C1951.29 214.667 1944.21 211.582 1940.86 205.321C1936.67 197.494 1936.22 185.63 1936.47 173.883C1936.71 163.027 1940.02 146.78 1944.79 133.87C1944.79 133.87 1948.39 121.378 1961.15 107.064C1977.09 89.1706 1993.25 108.777 1995.8 113.238C1998.35 117.701 2001.64 131.374 2000.92 142.275C2000.34 150.996 1997.41 163.279 1995.06 171.775C1991.79 183.601 1987.2 192.35 1980.81 201.18Z" fill="#FEE6CA"/>
<path d="M1926.8 178.179C1920.68 201.167 1906.22 207.634 1899.75 207.994C1897.55 208.037 1894.79 207.389 1893.68 207.06C1884.88 204.65 1879.58 197.269 1878.03 193.88C1875.35 188.8 1870.06 174.44 1870.35 157.638C1870.64 140.836 1875.65 122.717 1878.11 115.758C1882.55 105.034 1895.39 84.7236 1911.23 89.2687C1927.06 93.8136 1933.16 113.159 1933.43 119.941C1934.3 131.324 1932.92 155.19 1926.8 178.179Z" fill="#FEE6CA"/>
<path d="M1962.47 168.353C1959.24 168.191 1953.91 164.887 1954.5 159.476C1955.1 154.064 1957.26 150.118 1962.96 148.655C1967.8 147.412 1974.2 148.911 1972.79 158.032C1971.51 166.392 1965.39 168.413 1962.47 168.353ZM1902.62 159.127C1897.64 158.134 1895.17 153.555 1895.58 149.069C1895.99 144.582 1898.26 141.668 1901.57 139.562C1904.89 137.457 1915.4 139.188 1913.11 148.832C1911.29 156.548 1905.36 158.91 1902.62 159.127ZM1959.87 165.024C1960.09 165.109 1960.64 165.274 1961.03 165.255C1962.2 165.008 1964.34 163.75 1963.5 160.698C1962.46 156.883 1956.66 156.33 1956.43 159.891C1956.25 162.74 1958.65 164.501 1959.87 165.024ZM1899.93 155.375C1900.25 155.56 1901.05 155.832 1902.34 155.374C1903.63 154.911 1905.25 152.228 1905.07 150.147C1904.88 148.066 1900.42 148.021 1898.92 149.525C1897.71 150.727 1897.99 152.184 1898.27 152.762C1898.62 153.433 1899.3 154.89 1899.93 155.375Z" fill="#0A0000"/>
<path d="M1865.56 16.0429C1866.02 17.3459 1867.5 17.9739 1868.76 17.4039L1894.65 5.69983C1895.84 5.16168 1896.37 3.76036 1895.83 2.57078L1854.54 -88.7739C1853.67 -90.694 1850.91 -90.6063 1850.17 -88.6349L1839.21 -59.5837C1839.01 -59.06 1839 -58.483 1839.19 -57.9548L1865.56 16.0429Z" fill="#0E6F3A"/>
<path d="M1891.77 4.35615C1892.27 5.53299 1891.74 6.89186 1890.58 7.4252L1860.08 21.4372C1858.75 22.0506 1857.18 21.3109 1856.81 19.8904L1830.48 -80.1495C1829.95 -82.1791 1832.12 -83.8468 1833.94 -82.8037L1861 -67.3018C1861.45 -67.0443 1861.8 -66.6466 1862 -66.1691L1891.77 4.35615Z" fill="#0E6F3A"/>
<path d="M1911.62 -88.7936C1920.63 -147.246 1951.93 -163.518 1986.91 -158.13C2021.9 -152.741 2047.32 -127.733 2038.32 -69.2802C2029.31 -10.8275 1993.65 32.1898 1958.67 26.8012C1923.68 21.4128 1902.62 -30.3409 1911.62 -88.7936Z" fill="#559472"/>
<path d="M1947.05 79.3503C1944.35 80.3584 1940.33 83.6016 1945.81 88.5098C1952.66 94.645 1953.91 76.2153 1947.05 79.3503Z" stroke="#090909" stroke-width="5" stroke-linecap="round"/>
</g>
</g>
<g clip-path="url(#clip6_97_255)">
<path d="M235.65 916.522C238.298 915.918 240.216 919.002 238.504 921.111L200.282 968.191C199.044 969.716 196.672 969.567 195.635 967.899L174.728 934.283C173.691 932.615 174.606 930.422 176.521 929.986L235.65 916.522Z" fill="#0485A2"/>
<path fill-rule="evenodd" clip-rule="evenodd" d="M202.117 938.226C192.768 923.194 166.689 896.168 103.283 913.72C53.1733 927.591 6.45633 954.296 -25.1634 972.371C-33.8144 977.316 -41.3354 981.616 -47.4866 984.829L-163.338 1055.46C-176.962 1064.02 -201.945 1084.78 -192.887 1099.34C-191.548 1101.7 -188.826 1106.58 -188.65 1107.19C-188.519 1107.65 -188.694 1107.71 -188.907 1107.78C-188.98 1107.81 -189.058 1107.84 -189.129 1107.88L-190.681 1108.72C-191.011 1108.92 -191.363 1109.13 -191.755 1109.36C-192.693 1109.91 -193.865 1110.6 -195.536 1111.74C-198.372 1113.65 -200.183 1114.88 -196.002 1121.61L-170.917 1161.94C-169.361 1164.51 -164.535 1165.75 -162.107 1164.24C-160.798 1163.42 -159.67 1162.68 -158.63 1162C-157.741 1161.41 -156.917 1160.87 -156.101 1160.36C-156.053 1160.34 -156.007 1160.3 -155.961 1160.27C-155.64 1160.05 -155.338 1159.84 -154.982 1160.7C-154.574 1161.69 -151.444 1166.53 -149.93 1168.83L-141.278 1182.74C-140.937 1183.22 -140.515 1184.26 -141.551 1184.59L-147.246 1188.13C-149.051 1189.26 -151.9 1192.69 -148.852 1197.42C-145.804 1202.15 -134.923 1219.75 -129.864 1227.95C-128.524 1229.96 -124.451 1233.15 -118.878 1229.79L-113.836 1226.66C-113.692 1226.61 -113.358 1226.59 -113.172 1226.89C-112.986 1227.19 -107.016 1232.9 -104.055 1235.72C-102.926 1236.7 -99.2183 1239.5 -98.3037 1239.14C-93.4451 1237.22 -57.7304 1215.94 -17.8225 1189.08C21.6535 1162.52 40.795 1149.26 65.9377 1131.81C67.3432 1130.94 89.3372 1115.96 90.8457 1115.03L103.639 1106.03L113.631 1098.78C128.363 1088.33 162.993 1065.11 185.762 1040.72C232.113 995.118 214.873 957.613 202.117 938.226Z" fill="#0E6F3A"/>
<path d="M125.486 929.235C140.945 927.958 149.228 935.476 151.524 939.237C152.877 941.898 154.985 948.76 152.596 954.916C149.61 962.611 141.514 970.113 133.072 977.048C125.27 983.457 111.798 990.954 99.8004 995.405C99.8004 995.405 88.805 1000.43 70.9825 1000.1C48.7044 999.681 52.7526 976.407 54.3575 971.907C55.9624 967.406 63.6186 956.806 71.7462 950.714C78.2483 945.839 88.6943 940.475 96.1105 936.988C106.434 932.134 115.383 930.07 125.486 929.235Z" fill="#FEE6CA"/>
<path d="M141.958 981.268C161.885 971.668 175.206 977.958 179.376 982.303C180.741 983.832 181.955 986.172 182.391 987.151C186.022 994.822 184.023 1003.03 182.569 1006.18C180.609 1011.14 173.68 1023.57 161.647 1033.54C149.613 1043.5 133.799 1050.94 127.395 1053.42C117.141 1056.78 95.037 1060.02 88.6557 1046.09C82.2744 1032.17 92.2338 1016.15 96.8559 1011.86C104.357 1004.35 122.031 990.869 141.958 981.268Z" fill="#FEE6CA"/>
<path d="M113.431 962.056C115.27 964.428 116.171 970.196 111.992 973.053C107.813 975.91 103.72 976.774 99.2384 973.639C95.4281 970.974 92.6133 965.553 99.8986 961.02C106.576 956.866 111.704 959.957 113.431 962.056ZM143.159 1009.87C145.478 1013.99 143.74 1018.5 140.326 1020.93C136.912 1023.35 133.481 1023.52 129.989 1022.46C126.497 1021.39 121.356 1012.93 129.542 1008.7C136.091 1005.32 141.349 1008.07 143.159 1009.87ZM112.657 965.905C112.581 965.696 112.367 965.211 112.118 964.947C111.232 964.268 109.049 963.519 107.404 965.96C105.348 969.01 108.468 973.436 111.118 971.44C113.238 969.843 113.028 967.085 112.657 965.905ZM142.146 1014.04C142.079 1013.7 141.785 1012.97 140.685 1012.34C139.572 1011.71 136.698 1012.19 135.344 1013.58C133.99 1014.98 136.655 1018.14 138.627 1018.3C140.205 1018.42 141.067 1017.34 141.302 1016.79C141.564 1016.14 142.183 1014.78 142.146 1014.04Z" fill="#0A0000"/>
<path d="M56.2079 1013.95C58.7909 1015.89 63.8887 1021.14 63.6153 1026.7" stroke="#090909" stroke-width="3" stroke-linecap="round"/>
<path d="M-37.2266 1153.63C-83.9218 1182.67 -114.356 1170.44 -131.737 1142.49C-149.119 1114.54 -146.866 1081.46 -100.171 1052.42C-53.4756 1023.38 -1.53116 1022.5 15.8504 1050.44C33.232 1078.39 9.4686 1124.59 -37.2266 1153.63Z" fill="#559472"/>
</g>
<path d="M1448.99 288.716C1450 292.67 1445.44 295.668 1442.21 293.178L1370.04 237.586C1367.7 235.785 1367.83 232.218 1370.3 230.596L1419.98 197.911C1422.44 196.29 1425.77 197.58 1426.5 200.439L1448.99 288.716Z" fill="#0485A2"/>
<path fill-rule="evenodd" clip-rule="evenodd" d="M1415.11 239.196C1437.32 224.58 1476.9 184.379 1448.12 89.8365C1425.36 15.1176 1383.47 -54.0134 1355.11 -100.804C1347.35 -113.605 1340.61 -124.735 1335.55 -133.849L1225.04 -305.116C1211.67 -325.246 1179.53 -361.967 1158.01 -347.805C1154.51 -345.704 1147.29 -341.43 1146.38 -341.142C1145.69 -340.928 1145.6 -341.188 1145.48 -341.506C1145.44 -341.614 1145.4 -341.73 1145.33 -341.835L1144.01 -344.134C1143.69 -344.622 1143.37 -345.142 1143 -345.722C1142.14 -347.11 1141.05 -348.843 1139.29 -351.309C1136.3 -355.494 1134.39 -358.166 1124.45 -351.63L1064.84 -312.412C1061.04 -309.977 1059.37 -302.682 1061.73 -299.095C1063 -297.16 1064.16 -295.494 1065.23 -293.958C1066.14 -292.647 1066.98 -291.43 1067.78 -290.223C1067.82 -290.153 1067.87 -290.084 1067.92 -290.016C1068.27 -289.544 1068.59 -289.098 1067.31 -288.529C1065.84 -287.879 1058.69 -282.993 1055.31 -280.632L1034.75 -267.105C1034.04 -266.576 1032.49 -265.902 1031.95 -267.444L1026.42 -275.861C1024.66 -278.529 1019.4 -282.674 1012.41 -277.916C1005.42 -273.158 979.417 -256.143 967.291 -248.231C964.316 -246.142 959.682 -239.903 964.945 -231.662L969.848 -224.211C969.923 -223.997 969.962 -223.496 969.521 -223.205C969.079 -222.915 960.729 -213.73 956.609 -209.174C955.178 -207.442 951.123 -201.767 951.701 -200.407C954.772 -193.185 988.094 -140.368 1029.95 -81.4677C1071.36 -23.2051 1092 5.0315 1119.17 42.1192C1120.54 44.1963 1143.88 76.6503 1145.34 78.88L1159.33 97.747L1170.6 112.475C1186.87 134.196 1223.07 185.31 1260.57 218.567C1330.82 286.423 1386.48 259.095 1415.11 239.196Z" fill="#0E6F3A"/>
<path d="M1425.67 123.769C1428.18 146.936 1417.21 159.663 1411.65 163.255C1407.7 165.389 1397.48 168.819 1388.15 165.467C1376.48 161.278 1364.9 149.407 1354.16 136.995C1344.24 125.526 1332.46 105.582 1325.32 87.7357C1325.32 87.7357 1317.35 71.4164 1317.17 44.6395C1316.94 11.1684 1352.04 16.3549 1358.86 18.5924C1365.68 20.8299 1381.89 31.9206 1391.36 43.8923C1398.92 53.4697 1407.38 68.9506 1412.9 79.954C1420.59 95.2704 1424.03 108.63 1425.67 123.769Z" fill="#FEE6CA"/>
<path d="M1348.17 150.504C1363.34 180.061 1354.38 200.322 1348.01 206.757C1345.76 208.869 1342.29 210.785 1340.83 211.478C1329.44 217.236 1317.02 214.556 1312.24 212.496C1304.7 209.747 1285.76 199.829 1270.33 182.144C1254.89 164.459 1243.12 140.994 1239.16 131.472C1233.73 116.2 1228.03 83.1214 1248.73 72.9859C1269.42 62.8503 1293.87 77.1807 1300.5 83.9549C1312.07 94.9279 1332.99 120.947 1348.17 150.504Z" fill="#FEE6CA"/>
<path d="M1375.92 106.924C1372.43 109.776 1363.81 111.35 1359.35 105.185C1354.9 99.0193 1353.45 92.9059 1357.99 86.0546C1361.84 80.2305 1369.87 75.7946 1376.96 86.5613C1383.46 96.43 1379.01 104.25 1375.92 106.924ZM1305.26 153.399C1299.17 157.04 1292.32 154.604 1288.55 149.57C1284.77 144.535 1284.39 139.39 1285.86 134.106C1287.32 128.821 1299.83 120.775 1306.5 132.907C1311.83 142.612 1307.9 150.612 1305.26 153.399ZM1370.12 105.908C1370.43 105.785 1371.15 105.445 1371.54 105.061C1372.52 103.705 1373.56 100.398 1369.83 98.0208C1365.17 95.0491 1358.64 99.9057 1361.74 103.809C1364.22 106.931 1368.36 106.509 1370.12 105.908ZM1298.96 152.038C1299.47 151.925 1300.55 151.455 1301.46 149.778C1302.37 148.082 1301.53 143.786 1299.39 141.805C1297.25 139.825 1292.59 143.948 1292.44 146.916C1292.31 149.29 1293.96 150.545 1294.8 150.876C1295.79 151.244 1297.85 152.121 1298.96 152.038Z" fill="#0A0000"/>
<path d="M1132.87 39.8142C1134.57 40.7296 1136.69 39.9969 1137.46 38.2267L1153.34 1.85291C1154.07 0.180819 1153.3 -1.76621 1151.63 -2.49589L1023.3 -58.4965C1020.61 -59.6736 1017.83 -57.002 1018.91 -54.2624L1034.75 -13.8901C1035.03 -13.1619 1035.57 -12.5587 1036.26 -12.188L1132.87 39.8142Z" fill="#0E6F3A"/>
<path d="M1149.1 3.15772C1150.71 3.9122 1151.44 5.81422 1150.74 7.45382L1132.25 50.5312C1131.44 52.4171 1129.13 53.1164 1127.41 51.9939L1006.45 -27.0299C1003.99 -28.6328 1004.69 -32.3994 1007.55 -33.023L1050.11 -42.2903C1050.81 -42.4442 1051.55 -42.3619 1052.21 -42.0561L1149.1 3.15772Z" fill="#0E6F3A"/>
<path d="M1019.48 -4.28308C1018.28 -3.25323 1019.08 -1.28931 1020.65 -1.38124L1047.7 -2.95683C1048.83 -3.02255 1049.56 -4.17645 1049.13 -5.22429L1042.64 -21.2991C1042.22 -22.3469 1040.89 -22.6698 1040.03 -21.9335L1019.48 -4.28308Z" fill="#0E6F3A"/>
<path d="M1294.82 31.3392C1296.44 25.9893 1300.04 14.6963 1301.49 12.323C1303.29 9.35631 1285.28 26.1505 1281.42 27.5014" stroke="#090909" stroke-width="5" stroke-linecap="round"/>
<path d="M1079.75 -105.843C1034.35 -174.852 1051.55 -221.024 1092.86 -248.198C1134.16 -275.372 1183.92 -273.258 1229.32 -204.249C1274.73 -135.24 1278.05 -57.2686 1236.75 -30.0946C1195.44 -2.92052 1125.16 -36.8342 1079.75 -105.843Z" fill="#559472"/>
<g style="mix-blend-mode:hard-light">
<path d="M642.106 444.528L642.106 344.766C642.106 338.179 643.648 333.501 646.734 330.733C649.915 327.964 654.543 326.532 660.521 326.532L702.171 326.532C708.631 326.532 714.802 327.01 720.49 328.06C726.178 328.919 731.481 330.637 736.302 333.119C741.123 335.602 744.979 339.229 747.968 343.907C750.86 348.585 752.403 354.504 752.403 361.664C752.403 367.678 750.764 373.215 747.486 378.084C744.208 382.952 739.387 386.676 733.217 389.253L733.217 389.635C740.833 391.64 746.811 395.363 750.957 400.804C755.199 406.055 757.224 413.31 757.224 422.38C757.224 429.349 755.874 435.363 753.174 440.518C750.668 445.578 747.004 449.683 742.28 453.024C737.555 456.27 732.156 458.752 726.082 460.375C720.104 461.902 713.645 462.666 706.606 462.666L660.424 462.666C654.447 462.666 649.819 461.234 646.637 458.466C643.648 455.792 642.106 451.115 642.106 444.528ZM673.44 402.236L673.44 438.895L699.761 438.895C703.232 438.895 706.414 438.609 709.306 438.131C712.391 437.654 715.091 436.699 717.501 435.458C720.008 434.217 722.033 432.403 723.382 430.017C724.925 427.63 725.696 424.575 725.696 420.757C725.696 416.938 724.829 413.597 723.19 411.115C721.647 408.633 719.526 406.723 716.73 405.482C714.03 404.241 711.042 403.382 707.571 403C704.1 402.523 700.243 402.236 695.905 402.236L673.344 402.236L673.44 402.236ZM673.44 349.253L673.44 382.475L699.183 382.475C713.645 382.475 720.972 376.938 720.972 365.864C720.972 359.85 718.851 355.554 714.705 352.976C710.463 350.494 705.064 349.158 698.315 349.158L673.537 349.158L673.44 349.253ZM777.953 451.401L777.953 337.988C777.953 333.597 779.206 330.16 781.616 327.773C784.123 325.387 787.594 324.146 791.933 324.146C796.271 324.146 799.646 325.387 802.056 327.773C804.563 330.16 805.913 333.597 805.913 337.988L805.913 451.401C805.913 455.792 804.659 459.229 802.056 461.616C799.646 464.003 796.271 465.244 791.933 465.244C787.594 465.244 784.123 464.003 781.616 461.616C779.206 459.229 777.953 455.792 777.953 451.401ZM831.077 451.401L831.077 375.22C831.077 371.019 832.137 367.678 834.162 365.196C836.283 362.714 839.947 361.377 845.057 361.377C850.167 361.377 853.734 362.618 855.759 365.196C857.88 367.678 859.037 371.019 859.037 375.22L859.037 451.401C859.037 455.602 857.976 458.943 855.759 461.425C853.734 463.907 850.167 465.244 845.057 465.244C839.947 465.244 836.379 464.003 834.162 461.425C832.137 458.943 831.077 455.602 831.077 451.401ZM830.498 337.797C830.498 333.788 831.944 330.351 834.74 327.582C837.536 324.814 841.007 323.382 845.057 323.382C849.106 323.382 852.577 324.814 855.373 327.583C858.169 330.351 859.615 333.788 859.615 337.797C859.615 341.807 858.169 345.244 855.373 348.012C852.577 350.781 849.106 352.213 845.057 352.213C841.007 352.213 837.536 350.781 834.74 348.012C831.944 345.244 830.498 341.807 830.498 337.797ZM882.658 451.401L882.658 375.22C882.658 370.924 883.719 367.582 885.743 365.196C887.864 362.714 891.046 361.377 895.288 361.377C899.53 361.377 902.616 362.618 904.64 365.196C906.761 367.582 907.918 370.924 907.918 375.22L907.918 378.847L908.304 378.847C912.643 373.31 917.463 369.014 922.766 365.96C928.262 362.905 934.625 361.377 942.049 361.377C946.484 361.377 950.726 362.046 954.872 363.287C959.114 364.432 962.778 366.437 966.152 369.301C969.623 372.069 972.226 375.888 974.155 380.661C976.179 385.339 977.24 390.972 977.24 397.654L977.24 451.306C977.24 455.506 976.179 458.847 973.962 461.329C971.937 463.812 968.37 465.148 963.26 465.148C958.15 465.148 954.583 463.907 952.365 461.329C950.34 458.847 949.28 455.506 949.28 451.306L949.28 403.096C949.28 397.272 947.834 392.69 944.845 389.253C941.952 385.721 937.517 384.003 931.636 384.003C926.333 384.003 921.416 386.007 916.981 390.017C912.643 393.931 910.522 399.182 910.522 405.673L910.522 451.21C910.522 455.411 909.461 458.752 907.243 461.234C905.219 463.716 901.651 465.053 896.542 465.053C891.432 465.053 887.864 463.812 885.647 461.234C883.622 458.752 882.562 455.411 882.562 451.21L882.658 451.401ZM999.415 451.401L999.415 337.988C999.415 333.597 1000.67 330.16 1003.08 327.773C1005.59 325.387 1009.06 324.146 1013.39 324.146C1017.73 324.146 1021.11 325.387 1023.52 327.773C1026.03 330.16 1027.37 333.597 1027.37 337.988L1027.37 400.709L1058.32 366.723C1061.6 363.191 1065.17 361.473 1069.03 361.473C1072.3 361.473 1075.29 362.714 1077.99 365.291C1080.79 367.678 1082.23 370.542 1082.23 373.979C1082.23 376.079 1081.95 377.797 1081.27 378.847C1080.79 379.898 1079.82 381.139 1078.38 382.666C1078.28 382.761 1078.09 382.952 1077.99 383.048L1057.36 404.432L1086.38 443C1087.15 444.05 1087.83 445.291 1088.31 446.819C1088.98 448.251 1089.27 449.874 1089.27 451.878C1089.27 455.411 1088.02 458.561 1085.42 461.329C1082.91 464.003 1079.73 465.339 1076.06 465.339C1072.98 465.339 1070.47 464.671 1068.45 463.43C1066.42 462.284 1064.78 460.757 1063.53 458.847L1037.21 421.998L1027.47 430.494L1027.47 451.497C1027.47 455.888 1026.22 459.325 1023.61 461.711C1021.2 464.098 1017.83 465.339 1013.49 465.339C1009.15 465.339 1005.68 464.098 1003.18 461.711C1000.76 459.325 999.511 455.888 999.511 451.497L999.415 451.401ZM1188.58 418.466L1125.62 418.466C1125.62 425.912 1127.93 431.926 1132.47 436.604C1137.09 441.282 1143.36 443.573 1151.36 443.573C1156.67 443.573 1160.81 442.905 1163.8 441.473C1166.89 439.945 1169.87 437.845 1172.96 435.267C1174.89 433.549 1176.62 432.213 1178.07 431.258C1179.61 430.399 1181.44 429.921 1183.57 429.921C1186.75 429.921 1189.45 431.067 1191.57 433.358C1193.88 435.649 1195.04 438.036 1195.04 440.709C1195.04 444.623 1193.59 448.155 1190.8 451.306C1188 454.361 1184.34 456.938 1179.71 459.038C1175.27 461.043 1170.45 462.571 1165.44 463.621C1160.52 464.671 1155.8 465.148 1151.27 465.148C1142.01 465.148 1133.91 463.716 1127.07 460.948C1120.22 458.084 1114.63 454.17 1110.29 449.396C1105.95 444.623 1102.77 439.277 1100.75 433.358C1098.72 427.439 1097.66 421.33 1097.66 415.029C1097.66 398.8 1102.38 385.816 1111.83 376.079C1121.28 366.246 1134.1 361.377 1150.4 361.377C1158.21 361.377 1165.15 362.618 1171.42 365.196C1177.78 367.583 1183.08 371.019 1187.42 375.411C1191.86 379.707 1195.23 384.575 1197.35 389.921C1199.67 395.172 1200.82 400.804 1200.82 406.532C1200.82 411.21 1199.96 414.361 1198.12 415.983C1196.48 417.606 1193.3 418.466 1188.58 418.466ZM1125.62 402.618L1174.5 402.618C1173.73 396.222 1171.13 390.972 1166.69 386.962C1162.35 382.761 1157.15 380.757 1151.07 380.757C1144.32 380.757 1138.83 382.666 1134.49 386.58C1130.15 390.399 1127.26 395.745 1125.72 402.618L1125.62 402.618ZM1220.3 451.401L1220.3 374.265C1220.3 370.256 1221.46 367.105 1223.77 364.814C1226.18 362.523 1229.27 361.377 1232.93 361.377C1236.59 361.377 1239.58 362.523 1241.9 364.814C1244.31 367.105 1245.56 370.256 1245.56 374.265L1245.56 384.862L1245.94 384.862C1247.87 378.084 1250.57 372.451 1254.14 368.06C1257.8 363.668 1262.82 361.473 1268.99 361.473C1273.42 361.473 1277.09 362.714 1279.88 365.291C1282.77 367.773 1284.32 371.019 1284.32 374.933C1284.32 379.707 1282.97 383.239 1280.27 385.53C1277.76 387.63 1274.48 388.776 1270.53 388.776L1265.61 388.776C1259.73 388.776 1255.39 391.067 1252.4 395.745C1249.61 400.423 1248.16 408.251 1248.16 419.325L1248.16 451.497C1248.16 455.697 1247.1 459.038 1244.88 461.52C1242.86 464.003 1239.29 465.339 1234.18 465.339C1229.07 465.339 1225.51 464.098 1223.29 461.52C1221.26 459.038 1220.2 455.697 1220.2 451.497L1220.3 451.401Z" fill="#356549"/>
</g>
<g style="mix-blend-mode:hard-light">
<path d="M642.106 444.528L642.106 344.766C642.106 338.179 643.648 333.501 646.734 330.733C649.915 327.964 654.543 326.532 660.521 326.532L702.171 326.532C708.631 326.532 714.802 327.01 720.49 328.06C726.178 328.919 731.481 330.637 736.302 333.119C741.123 335.602 744.979 339.229 747.968 343.907C750.86 348.585 752.403 354.504 752.403 361.664C752.403 367.678 750.764 373.215 747.486 378.084C744.208 382.952 739.387 386.676 733.217 389.253L733.217 389.635C740.833 391.64 746.811 395.363 750.957 400.804C755.199 406.055 757.224 413.31 757.224 422.38C757.224 429.349 755.874 435.363 753.174 440.518C750.668 445.578 747.004 449.683 742.28 453.024C737.555 456.27 732.156 458.752 726.082 460.375C720.104 461.902 713.645 462.666 706.606 462.666L660.424 462.666C654.447 462.666 649.819 461.234 646.637 458.466C643.648 455.792 642.106 451.115 642.106 444.528ZM673.44 402.236L673.44 438.895L699.761 438.895C703.232 438.895 706.414 438.609 709.306 438.131C712.391 437.654 715.091 436.699 717.501 435.458C720.008 434.217 722.033 432.403 723.382 430.017C724.925 427.63 725.696 424.575 725.696 420.757C725.696 416.938 724.829 413.597 723.19 411.115C721.647 408.633 719.526 406.723 716.73 405.482C714.03 404.241 711.042 403.382 707.571 403C704.1 402.523 700.243 402.236 695.905 402.236L673.344 402.236L673.44 402.236ZM673.44 349.253L673.44 382.475L699.183 382.475C713.645 382.475 720.972 376.938 720.972 365.864C720.972 359.85 718.851 355.554 714.705 352.976C710.463 350.494 705.064 349.158 698.315 349.158L673.537 349.158L673.44 349.253ZM777.953 451.401L777.953 337.988C777.953 333.597 779.206 330.16 781.616 327.773C784.123 325.387 787.594 324.146 791.933 324.146C796.271 324.146 799.646 325.387 802.056 327.773C804.563 330.16 805.913 333.597 805.913 337.988L805.913 451.401C805.913 455.792 804.659 459.229 802.056 461.616C799.646 464.003 796.271 465.244 791.933 465.244C787.594 465.244 784.123 464.003 781.616 461.616C779.206 459.229 777.953 455.792 777.953 451.401ZM831.077 451.401L831.077 375.22C831.077 371.019 832.137 367.678 834.162 365.196C836.283 362.714 839.947 361.377 845.057 361.377C850.167 361.377 853.734 362.618 855.759 365.196C857.88 367.678 859.037 371.019 859.037 375.22L859.037 451.401C859.037 455.602 857.976 458.943 855.759 461.425C853.734 463.907 850.167 465.244 845.057 465.244C839.947 465.244 836.379 464.003 834.162 461.425C832.137 458.943 831.077 455.602 831.077 451.401ZM830.498 337.797C830.498 333.788 831.944 330.351 834.74 327.582C837.536 324.814 841.007 323.382 845.057 323.382C849.106 323.382 852.577 324.814 855.373 327.583C858.169 330.351 859.615 333.788 859.615 337.797C859.615 341.807 858.169 345.244 855.373 348.012C852.577 350.781 849.106 352.213 845.057 352.213C841.007 352.213 837.536 350.781 834.74 348.012C831.944 345.244 830.498 341.807 830.498 337.797ZM882.658 451.401L882.658 375.22C882.658 370.924 883.719 367.582 885.743 365.196C887.864 362.714 891.046 361.377 895.288 361.377C899.53 361.377 902.616 362.618 904.64 365.196C906.761 367.582 907.918 370.924 907.918 375.22L907.918 378.847L908.304 378.847C912.643 373.31 917.463 369.014 922.766 365.96C928.262 362.905 934.625 361.377 942.049 361.377C946.484 361.377 950.726 362.046 954.872 363.287C959.114 364.432 962.778 366.437 966.152 369.301C969.623 372.069 972.226 375.888 974.155 380.661C976.179 385.339 977.24 390.972 977.24 397.654L977.24 451.306C977.24 455.506 976.179 458.847 973.962 461.329C971.937 463.812 968.37 465.148 963.26 465.148C958.15 465.148 954.583 463.907 952.365 461.329C950.34 458.847 949.28 455.506 949.28 451.306L949.28 403.096C949.28 397.272 947.834 392.69 944.845 389.253C941.952 385.721 937.517 384.003 931.636 384.003C926.333 384.003 921.416 386.007 916.981 390.017C912.643 393.931 910.522 399.182 910.522 405.673L910.522 451.21C910.522 455.411 909.461 458.752 907.243 461.234C905.219 463.716 901.651 465.053 896.542 465.053C891.432 465.053 887.864 463.812 885.647 461.234C883.622 458.752 882.562 455.411 882.562 451.21L882.658 451.401ZM999.415 451.401L999.415 337.988C999.415 333.597 1000.67 330.16 1003.08 327.773C1005.59 325.387 1009.06 324.146 1013.39 324.146C1017.73 324.146 1021.11 325.387 1023.52 327.773C1026.03 330.16 1027.37 333.597 1027.37 337.988L1027.37 400.709L1058.32 366.723C1061.6 363.191 1065.17 361.473 1069.03 361.473C1072.3 361.473 1075.29 362.714 1077.99 365.291C1080.79 367.678 1082.23 370.542 1082.23 373.979C1082.23 376.079 1081.95 377.797 1081.27 378.847C1080.79 379.898 1079.82 381.139 1078.38 382.666C1078.28 382.761 1078.09 382.952 1077.99 383.048L1057.36 404.432L1086.38 443C1087.15 444.05 1087.83 445.291 1088.31 446.819C1088.98 448.251 1089.27 449.874 1089.27 451.878C1089.27 455.411 1088.02 458.561 1085.42 461.329C1082.91 464.003 1079.73 465.339 1076.06 465.339C1072.98 465.339 1070.47 464.671 1068.45 463.43C1066.42 462.284 1064.78 460.757 1063.53 458.847L1037.21 421.998L1027.47 430.494L1027.47 451.497C1027.47 455.888 1026.22 459.325 1023.61 461.711C1021.2 464.098 1017.83 465.339 1013.49 465.339C1009.15 465.339 1005.68 464.098 1003.18 461.711C1000.76 459.325 999.511 455.888 999.511 451.497L999.415 451.401ZM1188.58 418.466L1125.62 418.466C1125.62 425.912 1127.93 431.926 1132.47 436.604C1137.09 441.282 1143.36 443.573 1151.36 443.573C1156.67 443.573 1160.81 442.905 1163.8 441.473C1166.89 439.945 1169.87 437.845 1172.96 435.267C1174.89 433.549 1176.62 432.213 1178.07 431.258C1179.61 430.399 1181.44 429.921 1183.57 429.921C1186.75 429.921 1189.45 431.067 1191.57 433.358C1193.88 435.649 1195.04 438.036 1195.04 440.709C1195.04 444.623 1193.59 448.155 1190.8 451.306C1188 454.361 1184.34 456.938 1179.71 459.038C1175.27 461.043 1170.45 462.571 1165.44 463.621C1160.52 464.671 1155.8 465.148 1151.27 465.148C1142.01 465.148 1133.91 463.716 1127.07 460.948C1120.22 458.084 1114.63 454.17 1110.29 449.396C1105.95 444.623 1102.77 439.277 1100.75 433.358C1098.72 427.439 1097.66 421.33 1097.66 415.029C1097.66 398.8 1102.38 385.816 1111.83 376.079C1121.28 366.246 1134.1 361.377 1150.4 361.377C1158.21 361.377 1165.15 362.618 1171.42 365.196C1177.78 367.583 1183.08 371.019 1187.42 375.411C1191.86 379.707 1195.23 384.575 1197.35 389.921C1199.67 395.172 1200.82 400.804 1200.82 406.532C1200.82 411.21 1199.96 414.361 1198.12 415.983C1196.48 417.606 1193.3 418.466 1188.58 418.466ZM1125.62 402.618L1174.5 402.618C1173.73 396.222 1171.13 390.972 1166.69 386.962C1162.35 382.761 1157.15 380.757 1151.07 380.757C1144.32 380.757 1138.83 382.666 1134.49 386.58C1130.15 390.399 1127.26 395.745 1125.72 402.618L1125.62 402.618ZM1220.3 451.401L1220.3 374.265C1220.3 370.256 1221.46 367.105 1223.77 364.814C1226.18 362.523 1229.27 361.377 1232.93 361.377C1236.59 361.377 1239.58 362.523 1241.9 364.814C1244.31 367.105 1245.56 370.256 1245.56 374.265L1245.56 384.862L1245.94 384.862C1247.87 378.084 1250.57 372.451 1254.14 368.06C1257.8 363.668 1262.82 361.473 1268.99 361.473C1273.42 361.473 1277.09 362.714 1279.88 365.291C1282.77 367.773 1284.32 371.019 1284.32 374.933C1284.32 379.707 1282.97 383.239 1280.27 385.53C1277.76 387.63 1274.48 388.776 1270.53 388.776L1265.61 388.776C1259.73 388.776 1255.39 391.067 1252.4 395.745C1249.61 400.423 1248.16 408.251 1248.16 419.325L1248.16 451.497C1248.16 455.697 1247.1 459.038 1244.88 461.52C1242.86 464.003 1239.29 465.339 1234.18 465.339C1229.07 465.339 1225.51 464.098 1223.29 461.52C1221.26 459.038 1220.2 455.697 1220.2 451.497L1220.3 451.401Z" fill="#356549"/>
</g>
<path d="M1245.55 384.862L1245.94 384.862C1247.29 380.089 1249.12 376.174 1251.24 372.547L1245.07 371.783C1245.17 372.642 1245.46 373.311 1245.46 374.265L1245.46 384.862L1245.55 384.862Z" fill="#505050"/>
<path d="M931.717 384.098C928.535 384.098 925.546 384.862 922.654 386.294L948.589 397.081C947.914 394.122 946.757 391.449 944.926 389.349C942.033 385.816 937.598 384.098 931.717 384.098Z" fill="#505050"/>
<path d="M844.957 323L844.957 323.382C849.006 323.382 852.477 324.814 855.273 327.582C858.069 330.351 859.515 333.788 859.515 337.797C859.515 341.807 858.069 345.243 855.273 348.012C852.477 350.78 849.006 352.212 844.957 352.212C842.643 352.212 840.521 351.64 838.593 350.685L838.4 351.449L883.233 370.064C883.715 368.155 884.486 366.532 885.547 365.291C887.668 362.809 890.849 361.473 895.092 361.473C899.334 361.473 902.419 362.714 904.444 365.291C906.565 367.678 907.722 371.019 907.722 375.315L907.722 378.943L908.108 378.943C912.446 373.406 917.267 369.11 922.57 366.055C928.065 363 934.428 361.473 941.852 361.473C946.287 361.473 950.53 362.141 954.675 363.382C958.918 364.527 962.678 366.532 965.956 369.396C969.427 372.165 972.03 375.983 973.958 380.757C975.983 385.434 977.043 391.067 977.043 397.749L977.043 409.014L999.218 418.274L999.218 341.807L844.957 323Z" fill="#505050"/>
<path d="M1283.92 377.129C1283.53 380.661 1282.47 383.525 1280.26 385.434C1277.75 387.535 1274.47 388.68 1270.52 388.68L1265.6 388.68C1259.72 388.68 1255.38 390.971 1252.39 395.649C1249.6 400.327 1248.15 408.155 1248.15 419.229L1248.15 451.401C1248.15 455.601 1247.09 458.943 1244.87 461.425C1242.85 463.907 1239.28 465.243 1234.17 465.243C1229.06 465.243 1225.49 464.002 1223.28 461.425C1221.25 458.943 1220.19 455.601 1220.19 451.401L1220.19 374.265C1220.19 372.26 1220.48 370.446 1221.06 368.919L1027.17 345.243L1027.17 400.709L1058.12 366.723C1061.4 363.191 1064.96 361.473 1068.82 361.473C1072.1 361.473 1075.09 362.714 1077.79 365.291C1080.58 367.678 1082.03 370.542 1082.03 373.979C1082.03 376.079 1081.74 377.797 1081.06 378.847C1080.58 379.897 1079.62 381.138 1078.17 382.666C1078.08 382.761 1077.88 382.952 1077.79 383.048L1057.15 404.432L1086.17 443C1086.95 444.05 1087.62 445.291 1088.1 446.819C1088.78 448.251 1089.07 449.874 1089.07 451.878C1089.07 453.119 1088.68 454.169 1088.39 455.315L1233.59 515.554C1236.1 516.795 1238.8 517.845 1241.4 518.8L1242.46 519.181C1249.98 521.568 1257.98 523 1266.28 523C1307.54 523 1341 489.874 1341 449.014C1341 414.169 1316.6 385.053 1283.82 377.224L1283.92 377.129ZM1198.11 415.983C1196.47 417.606 1193.29 418.465 1188.57 418.465L1125.61 418.465C1125.61 425.912 1127.92 431.926 1132.45 436.604C1137.08 441.282 1143.35 443.573 1151.35 443.573C1156.65 443.573 1160.8 442.905 1163.79 441.473C1166.87 439.945 1169.86 437.845 1172.95 435.267C1174.88 433.549 1176.61 432.212 1178.06 431.258C1179.6 430.399 1181.43 429.921 1183.55 429.921C1186.73 429.921 1189.43 431.067 1191.56 433.358C1193.87 435.649 1195.03 438.036 1195.03 440.709C1195.03 444.623 1193.58 448.155 1190.78 451.306C1187.99 454.36 1184.32 456.938 1179.7 459.038C1175.26 461.043 1170.44 462.57 1165.43 463.621C1160.51 464.671 1155.79 465.148 1151.25 465.148C1142 465.148 1133.9 463.716 1127.05 460.948C1120.21 458.084 1114.62 454.169 1110.28 449.396C1105.94 444.623 1102.76 439.277 1100.73 433.358C1098.71 427.439 1097.65 421.329 1097.65 415.029C1097.65 398.8 1102.37 385.816 1111.82 376.079C1121.27 366.246 1134.09 361.377 1150.39 361.377C1158.2 361.377 1165.14 362.618 1171.4 365.196C1177.77 367.582 1183.07 371.019 1187.41 375.411C1191.84 379.706 1195.22 384.575 1197.34 389.921C1199.65 395.172 1200.81 400.804 1200.81 406.532C1200.81 411.21 1199.94 414.36 1198.11 415.983Z" fill="#505050"/>
<path d="M1150.97 380.661C1144.22 380.661 1138.72 382.57 1134.38 386.485C1130.05 390.303 1127.15 395.649 1125.61 402.523L1174.49 402.523C1173.72 396.127 1171.12 390.876 1166.68 386.866C1162.34 382.666 1157.14 380.661 1151.06 380.661L1150.97 380.661Z" fill="#505050"/>
<path d="M1027.75 429.921L1049.06 438.8L1037.01 421.902L1027.75 429.921Z" fill="#505050"/>
<path d="M1063.34 458.752C1064.59 460.661 1066.23 462.188 1068.25 463.334C1070.28 464.575 1072.88 465.243 1075.87 465.243C1079.53 465.243 1082.72 463.907 1085.22 461.234C1086.86 459.42 1087.83 457.32 1088.4 455.219L1048.97 438.895L1063.24 458.847L1063.34 458.752Z" fill="#356549"/>
<path d="M999.408 451.401C999.408 455.792 1000.66 459.229 1003.07 461.616C1005.58 464.002 1009.05 465.243 1013.39 465.243C1017.73 465.243 1021.1 464.002 1023.51 461.616C1026.02 459.229 1027.37 455.792 1027.37 451.401L1027.37 430.399L1027.85 429.921L999.504 418.179L999.504 451.401L999.408 451.401Z" fill="#356549"/>
<path d="M882.647 375.22L882.647 451.401C882.647 455.602 883.708 458.943 885.732 461.425C887.854 463.907 891.517 465.244 896.627 465.244C901.737 465.244 905.304 464.002 907.329 461.425C909.45 458.943 910.607 455.602 910.607 451.401L910.607 405.864C910.607 399.277 912.728 394.122 917.067 390.208C918.899 388.585 920.731 387.344 922.755 386.389L883.418 370.065C883.033 371.592 882.744 373.31 882.744 375.315L882.647 375.22Z" fill="#356549"/>
<path d="M949.274 403.191L949.274 451.401C949.274 455.601 950.335 458.943 952.36 461.425C954.481 463.907 958.144 465.243 963.254 465.243C968.364 465.243 971.932 464.002 973.956 461.425C976.077 458.943 977.234 455.601 977.234 451.401L977.234 408.919L948.599 397.081C949.082 398.99 949.274 400.995 949.274 403.191Z" fill="#356549"/>
<path d="M732.917 389.731L732.917 389.349C739.184 386.867 743.908 383.143 747.186 378.179C750.465 373.311 752.104 367.774 752.104 361.759C752.104 354.599 750.657 348.68 747.669 344.003C744.776 339.325 740.823 335.793 736.002 333.215C731.182 330.733 725.879 329.015 720.191 328.155C714.502 327.105 708.332 326.628 701.872 326.628L660.414 326.628C654.436 326.628 649.809 328.06 646.627 330.828C643.542 333.597 641.999 338.275 641.999 344.862L641.999 444.623C641.999 451.21 643.542 455.793 646.627 458.657C649.809 461.425 654.436 462.857 660.414 462.857L706.403 462.857C713.442 462.857 719.901 462.093 725.879 460.566C731.953 458.943 737.352 456.461 742.077 453.215C746.801 449.969 750.368 445.769 752.971 440.709C755.671 435.554 757.021 429.54 757.021 422.571C757.021 413.501 754.9 406.342 750.754 400.995C746.512 395.554 740.63 391.831 733.014 389.826L732.917 389.731ZM673.43 349.253L698.208 349.253C704.957 349.253 710.453 350.494 714.599 353.072C718.841 355.554 720.866 359.85 720.866 365.96C720.866 377.034 713.634 382.571 699.076 382.571L673.334 382.571L673.334 349.349L673.43 349.253ZM723.372 430.017C721.926 432.404 719.998 434.217 717.491 435.458C715.081 436.7 712.381 437.559 709.296 438.132C706.403 438.609 703.222 438.895 699.751 438.895L673.43 438.895L673.43 402.237L695.991 402.237C700.329 402.237 704.186 402.523 707.657 403C711.128 403.382 714.117 404.241 716.816 405.482C719.612 406.723 721.733 408.633 723.276 411.115C724.915 413.597 725.783 416.843 725.783 420.757C725.783 424.671 725.011 427.63 723.469 430.017L723.372 430.017Z" fill="#356549"/>
<path d="M791.919 324.146C787.58 324.146 784.11 325.387 781.603 327.773C779.192 330.16 777.939 333.597 777.939 337.988L777.939 451.401C777.939 455.792 779.192 459.229 781.603 461.616C784.11 464.002 787.58 465.243 791.919 465.243C796.258 465.243 799.632 464.002 802.043 461.616C804.549 459.229 805.899 455.792 805.899 451.401L805.899 337.988C805.899 333.597 804.646 330.16 802.043 327.773C799.632 325.387 796.258 324.146 791.919 324.146Z" fill="#356549"/>
<path d="M845.055 361.377C839.945 361.377 836.378 362.618 834.16 365.196C832.136 367.678 831.075 371.019 831.075 375.22L831.075 451.401C831.075 455.602 832.136 458.943 834.16 461.425C836.281 463.907 839.945 465.244 845.055 465.244C850.165 465.244 853.732 464.003 855.757 461.425C857.878 458.943 859.035 455.602 859.035 451.401L859.035 375.22C859.035 371.019 857.974 367.678 855.757 365.196C853.732 362.714 850.165 361.377 845.055 361.377Z" fill="#356549"/>
<path d="M1273.04 375.315C1276.8 375.602 1280.37 376.27 1283.93 377.129C1283.93 376.365 1284.32 375.697 1284.32 374.838C1284.32 370.924 1282.87 367.678 1279.88 365.196C1277.09 362.714 1273.42 361.377 1268.99 361.377C1262.72 361.377 1257.8 363.573 1254.14 367.964C1253.08 369.301 1252.21 370.924 1251.25 372.547L1273.04 375.22L1273.04 375.315Z" fill="#356549"/>
<path d="M1027.28 337.988C1027.28 333.597 1026.02 330.16 1023.42 327.773C1021.01 325.387 1017.64 324.146 1013.3 324.146C1008.96 324.146 1005.49 325.387 1002.98 327.773C1000.57 330.16 999.318 333.597 999.318 337.988L999.318 341.902L1027.18 345.339L1027.18 338.084L1027.28 337.988Z" fill="#356549"/>
<path d="M1241.89 364.814C1239.57 362.523 1236.59 361.377 1232.92 361.377C1229.26 361.377 1226.17 362.523 1223.76 364.814C1222.61 365.96 1221.74 367.296 1221.16 368.919L1245.07 371.879C1244.68 369.11 1243.72 366.628 1241.89 364.91L1241.89 364.814Z" fill="#356549"/>
<path d="M834.734 327.582C831.938 330.351 830.492 333.788 830.492 337.797C830.492 341.807 831.938 345.244 834.734 348.012C835.891 349.158 837.337 350.017 838.687 350.685L844.857 323.382C840.808 323.382 837.433 324.814 834.734 327.487L834.734 327.582Z" fill="#356549"/>
<path d="M1220.29 451.401C1220.29 455.602 1221.35 458.943 1223.38 461.425C1225.5 463.907 1229.16 465.244 1234.27 465.244C1239.38 465.244 1242.95 464.003 1244.98 461.425C1247.1 458.943 1248.25 455.602 1248.25 451.401L1248.25 419.23C1248.25 408.156 1249.6 400.232 1252.5 395.65C1255.39 390.972 1259.82 388.681 1265.7 388.681L1270.62 388.681C1274.57 388.681 1277.85 387.631 1280.36 385.435C1282.58 383.621 1283.64 380.662 1284.02 377.129C1280.46 376.27 1276.89 375.602 1273.13 375.315L1251.34 372.642C1249.22 376.27 1247.29 380.184 1246.04 384.957L1245.65 384.957L1245.65 374.361C1245.65 373.406 1245.36 372.738 1245.26 371.879L1221.35 368.919C1220.78 370.447 1220.49 372.261 1220.49 374.265L1220.49 451.401L1220.29 451.401Z" fill="#6FE593"/>
<path d="M1187.42 375.411C1183.08 371.019 1177.78 367.583 1171.41 365.196C1165.15 362.714 1158.2 361.377 1150.39 361.377C1134.1 361.377 1121.28 366.246 1111.83 376.079C1102.38 385.817 1097.66 398.8 1097.66 415.029C1097.66 421.33 1098.72 427.439 1100.74 433.358C1102.77 439.277 1105.95 444.623 1110.29 449.396C1114.63 454.17 1120.22 457.988 1127.06 460.948C1133.91 463.716 1142.01 465.148 1151.26 465.148C1155.7 465.148 1160.42 464.671 1165.44 463.621C1170.55 462.571 1175.27 461.139 1179.7 459.038C1184.33 456.938 1188 454.361 1190.79 451.306C1193.59 448.155 1195.03 444.623 1195.03 440.709C1195.03 438.036 1193.88 435.649 1191.56 433.358C1189.44 431.067 1186.74 429.922 1183.56 429.922C1181.44 429.922 1179.51 430.399 1178.07 431.258C1176.52 432.117 1174.79 433.454 1172.96 435.268C1169.87 437.941 1166.88 439.945 1163.8 441.473C1160.9 442.905 1156.76 443.573 1151.36 443.573C1143.36 443.573 1137.09 441.282 1132.46 436.604C1127.83 431.926 1125.62 425.912 1125.62 418.466L1188.57 418.466C1193.3 418.466 1196.48 417.606 1198.12 415.984C1199.86 414.361 1200.82 411.21 1200.82 406.533C1200.82 400.709 1199.66 395.172 1197.35 389.922C1195.23 384.48 1191.85 379.611 1187.42 375.411ZM1125.62 402.618C1127.16 395.649 1130.05 390.303 1134.39 386.58C1138.73 382.666 1144.22 380.757 1150.97 380.757C1157.05 380.757 1162.25 382.857 1166.59 386.962C1171.03 390.972 1173.63 396.222 1174.4 402.618L1125.52 402.618L1125.62 402.618Z" fill="#6FE593"/>
<path d="M1088.11 446.628C1087.63 445.1 1086.96 443.859 1086.19 442.809L1057.17 404.241L1077.8 382.857C1077.8 382.857 1078.09 382.571 1078.18 382.475C1079.63 380.948 1080.5 379.707 1081.08 378.657C1081.75 377.511 1082.04 375.888 1082.04 373.788C1082.04 370.351 1080.59 367.487 1077.8 365.1C1075.1 362.618 1072.11 361.282 1068.83 361.282C1064.98 361.282 1061.41 363 1058.13 366.532L1027.18 400.518L1027.18 345.244L999.318 341.807L999.318 418.084L1027.66 429.826L1036.92 421.807L1048.97 438.704L1088.4 455.029C1088.69 453.883 1089.08 452.833 1089.08 451.592C1089.08 449.587 1088.79 447.869 1088.11 446.532L1088.11 446.628Z" fill="#6FE593"/>
<path d="M974.142 380.661C972.214 375.888 969.514 372.07 966.14 369.301C962.862 366.437 959.102 364.432 954.86 363.287C950.81 362.046 946.568 361.377 942.037 361.377C934.613 361.377 928.249 362.905 922.754 365.96C917.451 369.015 912.534 373.311 908.292 378.848L907.906 378.848L907.906 375.22C907.906 370.924 906.846 367.583 904.628 365.196C902.603 362.714 899.518 361.377 895.276 361.377C891.034 361.377 887.852 362.618 885.731 365.196C884.67 366.533 883.899 368.155 883.417 369.969L922.754 386.294C925.646 384.862 928.635 384.098 931.817 384.098C937.698 384.098 942.037 385.817 945.025 389.349C946.857 391.449 948.014 394.027 948.689 397.081L977.324 408.919L977.324 397.654C977.324 390.972 976.263 385.339 974.239 380.661L974.142 380.661Z" fill="#6FE593"/>
<path d="M855.368 348.012C858.164 345.244 859.611 341.807 859.611 337.797C859.611 333.788 858.164 330.351 855.368 327.582C852.572 324.814 849.102 323.382 845.052 323.382C845.052 323.382 845.052 323.382 844.956 323.382L838.785 350.59C840.714 351.544 842.738 352.117 845.149 352.117C849.198 352.117 852.669 350.685 855.465 347.917L855.368 348.012Z" fill="#356549"/>
<path d="M844.955 352.785C853.246 352.785 859.995 346.103 859.995 337.893C859.995 329.683 853.246 323 844.955 323C836.663 323 829.914 329.683 829.914 337.893C829.914 346.103 836.663 352.785 844.955 352.785Z" fill="white"/>
</g>
<defs>
<filter id="filter0_d_97_255" x="-16" y="181" width="429.816" height="501.551" filterUnits="userSpaceOnUse" color-interpolation-filters="sRGB">
<feFlood flood-opacity="0" result="BackgroundImageFix"/>
<feColorMatrix in="SourceAlpha" type="matrix" values="0 0 0 0 0 0 0 0 0 0 0 0 0 0 0 0 0 0 127 0" result="hardAlpha"/>
<feOffset dx="4" dy="8"/>
<feGaussianBlur stdDeviation="10"/>
<feComposite in2="hardAlpha" operator="out"/>
<feColorMatrix type="matrix" values="0 0 0 0 0.054902 0 0 0 0 0.435294 0 0 0 0 0.227451 0 0 0 0.1 0"/>
<feBlend mode="normal" in2="BackgroundImageFix" result="effect1_dropShadow_97_255"/>
<feBlend mode="normal" in="SourceGraphic" in2="effect1_dropShadow_97_255" result="shape"/>
</filter>
<clipPath id="clip0_97_255">
<rect width="1983" height="1081" fill="white"/>
</clipPath>
<clipPath id="clip1_97_255">
<rect y="296.513" width="248" height="394" rx="13" transform="rotate(-24.6699 0 296.513)" fill="white"/>
</clipPath>
<clipPath id="clip2_97_255">
<rect x="1855.13" y="679" width="254" height="280" rx="10" transform="rotate(12.61 1855.13 679)" fill="white"/>
</clipPath>
<clipPath id="clip3_97_255">
<rect x="597.662" y="35.3756" width="253.483" height="159.536" rx="10" transform="rotate(114.981 597.662 35.3756)" fill="white"/>
</clipPath>
<clipPath id="clip4_97_255">
<rect x="2042.18" y="341.965" width="265" height="385" rx="132.5" transform="rotate(-171.244 2042.18 341.965)" fill="white"/>
</clipPath>
<clipPath id="clip5_97_255">
<rect width="472.782" height="518.42" fill="white" transform="translate(2144.43 343.284) rotate(-171.244)"/>
</clipPath>
<clipPath id="clip6_97_255">
<rect x="37.1875" y="741" width="334" height="354" rx="13.2336" transform="rotate(14.7601 37.1875 741)" fill="white"/>
</clipPath>
</defs>
</svg>
