<svg width="1920" height="1080" viewBox="0 0 1920 1080" fill="none" xmlns="http://www.w3.org/2000/svg">
<g clip-path="url(#clip0_97_255)">
<rect width="1920" height="1080" fill="#09130E"/>
<path d="M506.25 740.729C504.388 736.185 509.317 731.849 513.586 734.276L608.903 788.453C611.99 790.208 612.428 794.481 609.762 796.827L556.025 844.097C553.358 846.442 549.175 845.462 547.829 842.176L506.25 740.729Z" fill="#0485A2"/>
<path fill-rule="evenodd" clip-rule="evenodd" d="M554.921 794.082C530.892 815.22 490.443 869.759 540.58 977.618C580.204 1062.86 641.707 1138.24 683.335 1189.26C694.724 1203.22 704.626 1215.35 712.184 1225.37L872.555 1410.99C891.867 1432.75 936.311 1471.13 959.595 1450.65C963.407 1447.56 971.295 1441.26 972.34 1440.76C973.12 1440.39 973.278 1440.69 973.471 1441.05C973.537 1441.17 973.607 1441.3 973.707 1441.41L975.658 1443.93C976.123 1444.46 976.597 1445.02 977.126 1445.66C978.392 1447.16 979.973 1449.05 982.486 1451.69C986.75 1456.18 989.481 1459.04 1000.23 1449.59L1064.7 1392.87C1068.83 1389.33 1069.6 1380.36 1066.19 1376.48C1064.35 1374.39 1062.69 1372.59 1061.16 1370.94C1059.85 1369.53 1058.64 1368.22 1057.49 1366.92C1057.43 1366.84 1057.36 1366.77 1057.28 1366.7C1056.79 1366.19 1056.33 1365.71 1057.77 1364.82C1059.41 1363.8 1067.11 1356.78 1070.75 1353.4L1092.99 1333.84C1093.74 1333.09 1095.47 1332.03 1096.38 1333.77L1104.39 1342.88C1106.92 1345.76 1113.88 1349.82 1121.42 1342.98C1128.96 1336.14 1157.1 1311.51 1170.23 1300.05C1173.42 1297.06 1177.9 1288.85 1170.25 1279.91L1163.16 1271.85C1163.03 1271.61 1162.9 1271.02 1163.38 1270.6C1163.86 1270.18 1172.27 1257.83 1176.42 1251.71C1177.84 1249.41 1181.72 1241.97 1180.8 1240.44C1175.93 1232.35 1127.38 1174.98 1067.63 1111.79C1008.53 1049.28 979.198 1019.08 940.61 979.428C938.633 977.181 905.382 942.409 903.275 939.995L883.438 919.851L867.539 904.185C844.515 881.021 792.815 826.16 742.556 792.801C647.469 723.688 585.706 765.575 554.921 794.082Z" fill="#0E6F3A"/>
<path d="M561.635 933.418C554.765 906.228 565.711 889.223 571.736 884.012C576.081 880.808 587.691 875.009 599.379 877.441C613.989 880.48 629.773 892.691 644.648 905.686C658.395 917.695 675.767 939.493 687.27 959.566C687.27 959.566 699.493 977.683 704.196 1009.57C710.076 1049.42 667.367 1049.11 658.864 1047.59C650.361 1046.06 629.183 1035.56 615.903 1022.87C605.279 1012.73 592.609 995.691 584.187 983.501C572.464 966.533 566.125 951.187 561.635 933.418Z" fill="#FEE6CA"/>
<path d="M649.539 888.589C626.498 855.904 633.758 830.279 640.268 821.551C642.59 818.662 646.403 815.802 648.019 814.734C660.62 805.979 675.852 807.107 681.893 808.765C691.335 810.784 715.558 819.448 736.906 837.947C758.255 856.446 776.22 882.44 782.535 893.124C791.574 910.413 803.92 948.869 780.982 964.386C758.045 979.903 726.526 966.9 717.49 959.934C701.869 948.787 672.58 921.273 649.539 888.589Z" fill="#FEE6CA"/>
<path d="M1343.36 1123.39C1324.2 1135.79 1209.45 1231.38 1154.46 1277.62L1145.75 1274.94L1077.47 1158.19L1110.07 1144.09L1230.51 1138.35L1320.39 1125.56L1337.47 1118.49L1343.36 1123.39Z" fill="#0E6F3A"/>
<path d="M1093.54 1145.02C1092.08 1143.12 1091.82 1141.67 1092.23 1141.13C1092.23 1141.13 1093.59 1137.56 1095.95 1133.62C1098.75 1128.97 1102.59 1124.6 1102.59 1124.6C1113.26 1112.04 1136.99 1135.41 1139.17 1136.68C1140.91 1137.69 1142.41 1135.95 1142.94 1134.95C1154.91 1110.91 1178.39 1129.47 1182.12 1132.82C1185.11 1135.49 1187.78 1132.52 1188.74 1130.7C1204.59 1105.37 1233.37 1126.95 1238.5 1128.26C1242.61 1129.32 1243.69 1128.64 1243.72 1128.18C1253.91 1110.25 1274.64 1122.97 1279.08 1124.11C1282.63 1125.01 1283.87 1122.63 1284.05 1121.32C1290.77 1102.16 1311.25 1119.13 1313.35 1121.52C1315.03 1123.43 1316.59 1123.79 1317.15 1123.73C1322.67 1123.38 1336.98 1115.56 1337.7 1115.47C1338.41 1115.37 1342.03 1113.77 1344.68 1116.48C1346.79 1118.65 1347.65 1120.59 1342.36 1123.92L1339.72 1121.21C1337.84 1118.84 1335.88 1119.46 1335.15 1119.93C1280.86 1157.88 1100.25 1150.25 1099.26 1150.32C1098.47 1150.39 1097.57 1149.6 1097.22 1149.21C1096.6 1148.6 1094.99 1146.92 1093.54 1145.02Z" fill="#0485A2"/>
<path d="M924.663 984.471C922.483 983.664 920.079 984.892 919.455 987.131L906.625 1033.14C906.036 1035.25 907.272 1037.45 909.387 1038.04L1071.7 1083.3C1075.12 1084.25 1077.97 1080.6 1076.23 1077.52L1050.6 1032.05C1050.13 1031.23 1049.4 1030.6 1048.51 1030.28L924.663 984.471Z" fill="#0E6F3A"/>
<path d="M911.455 1030.88C909.402 1030.25 908.219 1028.1 908.783 1026.03L923.604 971.596C924.253 969.213 926.895 967.992 929.13 969.042L1086.52 1042.98C1089.71 1044.48 1089.52 1049.08 1086.21 1050.3L1037.04 1068.47C1036.23 1068.77 1035.33 1068.8 1034.5 1068.55L911.455 1030.88Z" fill="#0E6F3A"/>
<path d="M1067.19 1018.05C1068.44 1016.62 1067.17 1014.41 1065.3 1014.79L1033.33 1021.19C1032 1021.46 1031.32 1022.95 1032 1024.13L1042.43 1042.2C1043.11 1043.38 1044.75 1043.54 1045.65 1042.52L1067.19 1018.05Z" fill="#0E6F3A"/>
<path d="M723.997 1040.46C726.926 1042.38 732.893 1042.75 733.335 1028.8C733.888 1011.37 749.847 1021.69 753.846 1020.82C757.846 1019.95 758.636 1007.61 758.285 1002.09C758.004 997.677 763.632 997.033 766.482 997.262" stroke="#090909" stroke-width="6.34827" stroke-linecap="round"/>
<path d="M1009.57 1157.44C1075.23 1232.09 1062.46 1290 1017.78 1329.3C973.104 1368.6 913.442 1374.41 847.779 1299.76C782.116 1225.11 765.104 1132.74 809.781 1093.44C854.458 1054.14 943.906 1082.8 1009.57 1157.44Z" fill="#559472"/>
<g filter="url(#filter0_d_97_255)">
<g clip-path="url(#clip1_97_255)">
<path d="M113.23 249.381C112.87 245.728 117.329 243.68 119.866 246.333L176.501 305.556C178.335 307.474 177.733 310.629 175.321 311.736L126.711 334.064C124.299 335.171 121.514 333.573 121.254 330.932L113.23 249.381Z" fill="#0485A2"/>
<path fill-rule="evenodd" clip-rule="evenodd" d="M136.641 298.012C114.904 307.996 74.2502 338.376 87.0284 426.353C97.1273 495.883 125.007 563.04 143.876 608.495C149.039 620.931 153.527 631.742 156.792 640.534L231.831 807.821C240.996 827.536 264.59 864.549 285.652 854.875C289.044 853.48 296.043 850.658 296.898 850.527C297.535 850.429 297.585 850.673 297.646 850.972C297.667 851.074 297.69 851.182 297.737 851.286L298.594 853.508C298.814 853.985 299.032 854.492 299.276 855.057C299.859 856.409 300.587 858.096 301.819 860.528C303.91 864.656 305.252 867.291 314.973 862.826L373.298 836.037C377.009 834.387 379.486 828.127 377.874 824.616C377.004 822.723 376.201 821.085 375.46 819.574C374.828 818.285 374.241 817.088 373.698 815.907C373.667 815.839 373.632 815.771 373.597 815.703C373.354 815.236 373.124 814.796 374.344 814.464C375.739 814.085 382.756 810.71 386.09 809.069L406.207 799.829C406.906 799.454 408.373 799.065 408.645 800.51L412.427 808.745C413.626 811.356 417.74 815.755 424.603 812.472C431.466 809.189 456.895 797.586 468.752 792.194C471.681 790.74 476.648 785.821 473.085 777.778L469.736 770.488C469.698 770.287 469.731 769.836 470.163 769.638C470.595 769.439 479.266 762.404 483.548 758.912C485.055 757.566 489.431 753.069 489.102 751.781C487.35 744.942 464.882 693.455 435.647 635.401C406.728 577.974 392.2 550.065 373.07 513.4C372.137 511.368 355.782 479.342 354.791 477.162L344.905 458.486L336.879 443.861C325.359 422.339 300.101 371.976 271.266 337.316C217.996 267.447 164.794 284.199 136.641 298.012Z" fill="#0E6F3A"/>
<path d="M111.589 399.224C112.499 378.282 123.981 368.453 129.413 366.013C133.21 364.65 142.766 362.987 150.614 367.234C160.423 372.542 169.108 384.668 176.973 397.162C184.242 408.707 192.008 428.039 195.942 444.878C195.942 444.878 200.81 460.47 197.343 484.307C193.01 514.102 162.495 504.729 156.734 501.814C150.972 498.899 138.06 486.838 131.271 474.909C125.839 465.366 120.418 450.452 117.001 439.919C112.244 425.256 110.995 412.909 111.589 399.224Z" fill="#FEE6CA"/>
<path d="M184.139 385.962C174.652 357.62 185.366 340.819 191.909 335.96C194.195 334.388 197.542 333.155 198.93 332.736C209.845 329.161 220.52 333.228 224.493 335.709C230.827 339.176 246.326 350.565 257.649 368.384C268.973 386.203 276.26 408.666 278.489 417.67C281.25 431.989 281.829 462.176 262.052 468.383C242.275 474.589 222.48 458.53 217.501 451.607C208.702 440.28 193.625 414.304 184.139 385.962Z" fill="#FEE6CA"/>
<path d="M156.457 607.209C156.569 605.475 158.138 604.207 159.857 604.461L195.172 609.684C196.795 609.924 197.917 611.434 197.677 613.058L179.251 737.65C178.864 740.269 175.504 741.112 173.926 738.987L150.673 707.662C150.253 707.097 150.048 706.402 150.093 705.699L156.457 607.209Z" fill="#0E6F3A"/>
<path d="M192.152 612.299C192.347 610.706 191.241 609.246 189.655 609.001L147.981 602.578C146.156 602.296 144.519 603.729 144.557 605.575L147.207 735.518C147.261 738.154 150.466 739.419 152.306 737.532L179.655 709.481C180.109 709.015 180.398 708.413 180.477 707.767L192.152 612.299Z" fill="#0E6F3A"/>
<path d="M360.585 513.589C359.197 512.544 357.212 512.908 356.285 514.377L337.237 544.57C336.361 545.958 336.776 547.793 338.164 548.669L444.684 615.872C446.923 617.285 449.752 615.285 449.167 612.703L440.556 574.653C440.401 573.967 440.007 573.358 439.445 572.935L360.585 513.589Z" fill="#0E6F3A"/>
<path d="M341.189 543.984C339.853 543.094 339.466 541.304 340.314 539.942L362.595 504.142C363.571 502.575 365.724 502.267 367.1 503.498L463.946 590.176C465.91 591.934 464.782 595.19 462.151 595.356L423.053 597.825C422.403 597.866 421.759 597.693 421.217 597.332L341.189 543.984Z" fill="#0E6F3A"/>
<path d="M213.4 498.201C213.93 497.091 215.26 496.62 216.371 497.15C217.482 497.681 217.951 499.011 217.421 500.122C216.33 502.406 214.594 505.951 212.925 509.173C212.86 509.3 212.792 509.425 212.727 509.551C213.01 509.379 213.297 509.205 213.587 509.028C215.971 507.576 218.567 506.005 220.799 504.754C221.914 504.129 222.965 503.568 223.87 503.136C224.714 502.733 225.628 502.345 226.394 502.201C227.603 501.974 228.768 502.771 228.995 503.98C229.222 505.19 228.426 506.355 227.216 506.582C227.079 506.608 226.63 506.758 225.79 507.159C225.011 507.53 224.056 508.038 222.979 508.642C220.827 509.849 218.297 511.378 215.906 512.834C213.541 514.275 211.286 515.661 209.758 516.528C209.045 516.932 208.315 517.327 207.79 517.516C207.661 517.563 207.399 517.652 207.087 517.686C206.934 517.702 206.628 517.723 206.263 517.634C205.871 517.539 205.267 517.276 204.861 516.621C204.471 515.991 204.498 515.368 204.555 515.034C204.611 514.702 204.727 514.452 204.795 514.323C204.931 514.059 205.098 513.852 205.195 513.736L205.302 513.6C205.577 513.231 206.042 512.494 206.668 511.395C207.351 510.195 208.146 508.708 208.967 507.123C210.608 503.955 212.324 500.455 213.4 498.201Z" fill="#090909"/>
<path d="M388.06 650.322C419.075 717.846 397.515 756.572 357.101 775.135C316.686 793.698 272.721 785.068 241.707 717.544C210.692 650.02 218.312 580.233 258.726 561.67C299.141 543.107 357.045 582.798 388.06 650.322Z" fill="#559472"/>
</g>
</g>
<path d="M1569.99 433.593C1571.52 431.1 1575.33 431.934 1575.67 434.834L1583.29 499.582C1583.54 501.679 1581.65 503.394 1579.58 502.943L1538.01 493.851C1535.94 493.399 1534.94 491.05 1536.04 489.248L1569.99 433.593Z" fill="#0485A2"/>
<path fill-rule="evenodd" clip-rule="evenodd" d="M1561.59 475.7C1543 471.634 1502.62 471.468 1468.61 533.482C1441.73 582.493 1427.28 638.511 1417.5 676.426C1414.83 686.799 1412.5 695.818 1410.37 702.967L1377.93 845.184C1374.31 862.098 1371.58 896.912 1389.59 900.852C1392.42 901.59 1398.22 903.149 1398.82 903.475C1399.27 903.718 1399.19 903.897 1399.08 904.116C1399.05 904.191 1399.01 904.27 1398.99 904.359L1398.47 906.181C1398.38 906.589 1398.28 907.016 1398.16 907.491C1397.89 908.63 1397.54 910.05 1397.16 912.186C1396.51 915.81 1396.1 918.127 1404.42 919.945L1454.3 930.855C1457.45 931.584 1462.02 928.792 1462.68 925.79C1463.03 924.171 1463.3 922.745 1463.56 921.431C1463.77 920.308 1463.97 919.267 1464.19 918.257C1464.21 918.199 1464.22 918.139 1464.23 918.079C1464.3 917.666 1464.36 917.276 1465.29 917.65C1466.36 918.077 1472.44 919.293 1475.34 919.847L1492.55 923.61C1493.17 923.706 1494.29 924.161 1493.77 925.209L1492.23 932.253C1491.74 934.486 1492.25 939.251 1498.18 940.452C1504.11 941.652 1525.83 946.457 1535.94 948.71C1538.5 949.188 1544.01 948.442 1545.6 941.626L1546.96 935.39C1547.03 935.245 1547.27 934.974 1547.64 935.055C1548.01 935.135 1556.89 934.818 1561.28 934.65C1562.88 934.516 1567.81 933.755 1568.22 932.779C1570.38 927.595 1580.76 884.124 1589.99 833.24C1599.12 782.907 1603.25 758.219 1608.66 725.763C1609.04 724.025 1613.98 695.846 1614.4 693.986L1617.06 677.387L1618.96 664.252C1621.95 645.062 1630.02 600.969 1628.3 565.14C1627.91 495.24 1586.09 480.406 1561.59 475.7Z" fill="#0E6F3A"/>
<path d="M1497.21 528.007C1507.81 515.138 1519.82 514.392 1524.44 515.443C1527.5 516.395 1534.37 519.915 1537.32 526.371C1541.01 534.441 1540.72 546.304 1539.74 558.008C1538.83 568.824 1534.5 584.825 1528.94 597.407C1528.94 597.407 1524.56 609.644 1510.95 623.128C1493.93 639.984 1479.03 619.416 1476.76 614.805C1474.5 610.194 1472.07 596.348 1473.47 585.518C1474.59 576.853 1478.29 564.783 1481.16 556.454C1485.16 544.86 1490.28 536.417 1497.21 528.007Z" fill="#FEE6CA"/>
<path d="M1549.65 554.326C1557.19 531.775 1572.02 526.226 1578.5 526.27C1580.7 526.365 1583.41 527.184 1584.49 527.582C1593.13 530.535 1597.95 538.229 1599.29 541.707C1601.65 546.942 1606.03 561.599 1604.69 578.343C1603.34 595.087 1597.22 612.85 1594.32 619.639C1589.23 630.059 1575.15 649.521 1559.64 643.998C1544.12 638.475 1539.25 618.795 1539.41 612.012C1539.24 600.602 1542.11 576.878 1549.65 554.326Z" fill="#FEE6CA"/>
<path d="M1681.57 969.425C1668.87 964.614 1582.66 943.31 1541.13 933.26L1539.35 928.144L1571.23 854.304L1589.47 864.957L1634.64 920.635L1672.43 959.189L1681.83 964.88L1681.57 969.425Z" fill="#0E6F3A"/>
<path d="M1583.2 857.364C1583.59 855.998 1584.2 855.363 1584.6 855.37C1584.6 855.37 1586.79 854.76 1589.51 854.506C1592.72 854.207 1596.17 854.509 1596.17 854.509C1605.94 855.194 1603.11 874.799 1603.27 876.287C1603.39 877.477 1604.76 877.582 1605.43 877.485C1621.16 874.749 1620.53 892.537 1620.25 895.502C1620.02 897.874 1622.38 898.108 1623.59 897.929C1641.31 896.597 1641.11 917.989 1642.29 920.911C1643.23 923.248 1643.94 923.532 1644.17 923.381C1656.35 921.943 1657.55 936.36 1658.58 938.884C1659.39 940.904 1660.97 940.659 1661.66 940.285C1673.2 936.755 1672.29 952.541 1671.89 954.391C1671.57 955.87 1671.94 956.743 1672.17 956.995C1674.28 959.515 1683.07 963.617 1683.36 963.924C1683.66 964.231 1685.7 965.404 1685.34 967.626C1685.04 969.403 1684.41 970.498 1680.96 969.137L1681.32 966.915C1681.8 965.179 1680.81 964.462 1680.33 964.275C1643.02 951.636 1583.06 862.421 1582.67 861.973C1582.36 861.615 1582.42 860.909 1582.49 860.6C1582.56 860.091 1582.8 858.731 1583.2 857.364Z" fill="#0485A2"/>
<path d="M1426.12 681.634C1427.02 680.586 1428.62 680.532 1429.59 681.517L1449.53 701.746C1450.44 702.676 1450.43 704.173 1449.5 705.089L1378.13 775.424C1376.63 776.902 1374.09 775.829 1374.11 773.723L1374.34 742.686C1374.34 742.126 1374.54 741.586 1374.91 741.162L1426.12 681.634Z" fill="#0E6F3A"/>
<path d="M1362.89 740.451C1361.82 740.07 1361.85 738.555 1362.93 738.211L1381.4 732.326C1382.17 732.081 1382.96 732.664 1382.94 733.473L1382.73 745.878C1382.71 746.687 1381.91 747.243 1381.15 746.971L1362.89 740.451Z" fill="#0E6F3A"/>
<path d="M1446.36 701.962C1447.24 701.044 1447.24 699.587 1446.35 698.672L1422.95 674.634C1421.92 673.581 1420.2 673.708 1419.34 674.899L1358.79 758.725C1357.57 760.426 1359 762.764 1361.07 762.446L1391.88 757.721C1392.39 757.643 1392.86 757.398 1393.22 757.026L1446.36 701.962Z" fill="#0E6F3A"/>
<path d="M1600.63 719.901C1600.25 718.572 1598.81 717.853 1597.52 718.343L1570.96 728.404C1569.74 728.866 1569.12 730.231 1569.58 731.452L1605.08 825.157C1605.82 827.127 1608.58 827.211 1609.44 825.291L1622.19 796.993C1622.42 796.483 1622.47 795.907 1622.31 795.369L1600.63 719.901Z" fill="#0E6F3A"/>
<path d="M1573.74 729.923C1573.32 728.718 1573.93 727.395 1575.12 726.936L1606.42 714.861C1607.79 714.332 1609.31 715.168 1609.59 716.609L1629.62 818.055C1630.02 820.113 1627.75 821.641 1626 820.487L1599.97 803.332C1599.54 803.047 1599.21 802.629 1599.04 802.14L1573.74 729.923Z" fill="#0E6F3A"/>
<path d="M1634.74 800.006C1635.87 800.105 1636.48 798.717 1635.64 797.955L1621.31 784.896C1620.72 784.351 1619.76 784.554 1619.43 785.295L1614.45 796.657C1614.13 797.398 1614.62 798.239 1615.43 798.309L1634.74 800.006Z" fill="#0E6F3A"/>
<path d="M1548.13 821.613C1535.49 879.366 1503.25 893.645 1468.69 886.085C1434.12 878.526 1410.32 851.99 1422.95 794.237C1435.58 736.485 1473.84 695.796 1508.41 703.355C1542.97 710.915 1560.76 763.861 1548.13 821.613Z" fill="#559472"/>
<path d="M1524.13 644.335L1513.95 642.898" stroke="#090909" stroke-width="3.91405" stroke-linecap="round"/>
<g clip-path="url(#clip2_97_255)">
<path d="M1865.97 807.133C1865.59 805.135 1867.94 803.773 1869.48 805.107L1903.82 834.879C1904.93 835.843 1904.76 837.616 1903.48 838.353L1877.8 853.195C1876.52 853.931 1874.9 853.192 1874.62 851.747L1865.97 807.133Z" fill="#0485A2"/>
<path fill-rule="evenodd" clip-rule="evenodd" d="M1881.42 832.771C1869.93 839.408 1849.06 858.285 1860.66 906.202C1869.83 944.071 1888.7 979.711 1901.47 1003.83C1904.96 1010.43 1908 1016.17 1910.26 1020.86L1960.34 1109.35C1966.42 1119.76 1981.36 1138.97 1992.49 1132.54C1994.29 1131.6 1998.01 1129.68 1998.48 1129.56C1998.83 1129.47 1998.87 1129.61 1998.91 1129.77C1998.93 1129.82 1998.95 1129.88 1998.98 1129.94L1999.57 1131.12C1999.72 1131.37 1999.86 1131.64 2000.03 1131.94C2000.42 1132.66 2000.91 1133.55 2001.71 1134.83C2003.08 1137 2003.96 1138.39 2009.1 1135.42L2039.91 1117.61C2041.88 1116.51 2042.92 1112.92 2041.85 1111.07C2041.27 1110.07 2040.74 1109.2 2040.26 1108.41C2039.84 1107.73 2039.46 1107.1 2039.09 1106.47C2039.07 1106.44 2039.05 1106.4 2039.03 1106.37C2038.87 1106.12 2038.72 1105.89 2039.38 1105.64C2040.13 1105.36 2043.83 1103.14 2045.58 1102.06L2056.21 1095.92C2056.58 1095.67 2057.37 1095.38 2057.59 1096.16L2060.11 1100.52C2060.91 1101.9 2063.4 1104.11 2067.02 1101.94C2070.64 1099.78 2084.09 1092.05 2090.35 1088.46C2091.9 1087.51 2094.38 1084.54 2092 1080.28L2089.77 1076.43C2089.74 1076.32 2089.74 1076.07 2089.97 1075.94C2090.19 1075.8 2094.62 1071.47 2096.8 1069.32C2097.56 1068.5 2099.75 1065.79 2099.5 1065.1C2098.18 1061.41 2083.11 1034.14 2063.97 1003.6C2045.03 973.388 2035.56 958.729 2023.1 939.473C2022.48 938.399 2011.8 921.562 2011.14 920.409L2004.71 910.609L1999.52 902.948C1992.05 891.66 1975.5 865.158 1957.79 847.511C1924.76 811.687 1896.25 823.688 1881.42 832.771Z" fill="#0E6F3A"/>
<path d="M1872.82 889.952C1872.24 878.342 1878.07 872.321 1880.94 870.693C1882.97 869.744 1888.16 868.331 1892.71 870.27C1898.4 872.694 1903.83 878.941 1908.82 885.432C1913.43 891.431 1918.71 901.704 1921.76 910.798C1921.76 910.798 1925.25 919.156 1924.57 932.497C1923.72 949.173 1906.38 945.575 1903.05 944.264C1899.72 942.952 1891.97 936.96 1887.6 930.725C1884.11 925.736 1880.34 917.782 1877.91 912.142C1874.53 904.292 1873.2 897.539 1872.82 889.952Z" fill="#FEE6CA"/>
<path d="M1912.19 878.882C1905.49 863.723 1910.52 853.898 1913.88 850.881C1915.06 849.895 1916.84 849.043 1917.58 848.74C1923.42 846.207 1929.51 847.904 1931.83 849.069C1935.51 850.658 1944.65 856.149 1951.82 865.405C1958.99 874.66 1964.18 886.686 1965.88 891.542C1968.15 899.304 1970.04 915.939 1959.45 920.38C1948.87 924.821 1937.11 916.973 1934.01 913.406C1928.57 907.605 1918.9 894.04 1912.19 878.882Z" fill="#FEE6CA"/>
<path d="M1908.35 1002.47C1908.32 1001.51 1909.12 1000.73 1910.09 1000.78L1929.85 1001.84C1930.76 1001.89 1931.46 1002.66 1931.41 1003.57L1927.68 1073.32C1927.6 1074.79 1925.79 1075.42 1924.81 1074.33L1910.35 1058.24C1910.09 1057.95 1909.94 1057.57 1909.93 1057.18L1908.35 1002.47Z" fill="#0E6F3A"/>
<path d="M1928.32 1003.44C1928.35 1002.55 1927.66 1001.8 1926.78 1001.75L1903.43 1000.35C1902.41 1000.29 1901.58 1001.17 1901.7 1002.19L1909.88 1073.8C1910.05 1075.25 1911.88 1075.78 1912.8 1074.65L1926.45 1057.74C1926.68 1057.46 1926.8 1057.12 1926.81 1056.75L1928.32 1003.44Z" fill="#0E6F3A"/>
</g>
<g clip-path="url(#clip3_97_255)">
<path d="M504.158 51.7343C505.194 50.6827 506.975 51.5331 506.809 53.0001L503.092 85.7508C502.972 86.8116 501.842 87.4378 500.879 86.9778L481.462 77.7062C480.499 77.2462 480.276 75.974 481.025 75.2136L504.158 51.7343Z" fill="#0485A2"/>
<path fill-rule="evenodd" clip-rule="evenodd" d="M495.161 71.4906C486.478 67.3447 466.622 62.6054 442.727 89.2083C423.842 110.233 410.269 136.141 401.083 153.676C398.569 158.474 396.384 162.645 394.508 165.918L362.138 232.182C358.406 240.091 353.045 256.912 361.457 260.929C362.762 261.618 365.436 263.054 365.697 263.285C365.891 263.457 365.829 263.535 365.752 263.631C365.726 263.663 365.698 263.698 365.678 263.739L365.212 264.577C365.121 264.767 365.021 264.965 364.909 265.186C364.642 265.714 364.308 266.374 363.873 267.381C363.137 269.09 362.668 270.183 366.551 272.037L389.847 283.162C391.313 283.884 393.885 283.037 394.555 281.635C394.916 280.879 395.215 280.208 395.491 279.591C395.727 279.063 395.946 278.574 396.171 278.102C396.184 278.075 396.196 278.046 396.208 278.018C396.289 277.823 396.366 277.638 396.783 277.93C397.259 278.263 400.109 279.562 401.475 280.17L409.51 284.007C409.806 284.127 410.304 284.48 409.927 284.936L408.357 288.225C407.859 289.268 407.558 291.672 410.34 292.947C413.122 294.223 423.256 299.092 427.975 301.368C429.178 301.898 431.977 302.167 433.545 298.995L434.935 296.083C434.988 296.019 435.136 295.913 435.308 295.996C435.481 296.078 439.887 296.946 442.069 297.37C442.873 297.489 445.39 297.683 445.703 297.25C447.365 294.947 457.489 274.747 467.9 250.764C478.198 227.04 483.082 215.364 489.486 200.012C489.873 199.2 495.558 185.899 495.976 185.032L499.202 177.168L501.654 170.922C505.338 161.82 514.397 141.047 517.682 123.212C525.555 88.7594 506.678 76.6333 495.161 71.4906Z" fill="#0E6F3A"/>
<path d="M457.435 89.8124C464.141 84.7008 470.135 85.7181 472.287 86.7681C473.686 87.5906 476.661 90.1152 477.369 93.6336C478.255 98.0316 476.744 103.838 474.909 109.485C473.213 114.704 469.239 122.082 465.049 127.634C465.049 127.634 461.484 133.153 453.226 138.22C442.903 144.553 437.942 132.71 437.359 130.179C436.776 127.648 437.178 120.553 439.116 115.383C440.666 111.247 443.879 105.732 446.254 101.964C449.56 96.7182 453.054 93.1527 457.435 89.8124Z" fill="#FEE6CA"/>
<path d="M480.212 108.817C486.525 98.5857 494.467 97.5654 497.649 98.3341C498.722 98.6346 499.963 99.3508 500.45 99.6713C504.359 102.121 505.846 106.465 506.101 108.331C506.659 111.18 507.125 118.9 504.533 126.987C501.941 135.074 496.877 143.112 494.67 146.12C490.958 150.661 481.785 158.617 474.786 154.109C467.786 149.601 467.657 139.352 468.516 136.031C469.752 130.395 473.898 119.048 480.212 108.817Z" fill="#FEE6CA"/>
<path d="M497.269 328.363C491.576 324.53 451.593 304.098 432.313 294.362L432.024 291.638L456.234 258.967L463.984 266.315L479.799 298.933L493.953 322.27L497.925 326.156L497.269 328.363Z" fill="#0E6F3A"/>
<path d="M461.771 261.855C462.124 261.227 462.495 260.985 462.692 261.035C462.692 261.035 463.841 260.987 465.208 261.176C466.824 261.399 468.485 261.945 468.485 261.945C473.218 263.41 469.562 272.733 469.469 273.484C469.394 274.085 470.054 274.294 470.393 274.323C478.451 274.791 476.093 283.475 475.611 284.902C475.225 286.043 476.361 286.431 476.977 286.482C485.854 287.871 483.288 298.378 483.53 299.952C483.724 301.211 484.038 301.431 484.171 301.384C490.331 302.081 489.261 309.317 489.473 310.677C489.642 311.765 490.448 311.827 490.829 311.722C496.92 311.316 494.65 318.982 494.238 319.846C493.908 320.537 493.991 321.01 494.074 321.16C494.823 322.644 498.675 325.677 498.786 325.862C498.896 326.047 499.766 326.86 499.331 327.912C498.982 328.753 498.545 329.219 497.001 328.151L497.437 327.099C497.872 326.299 497.467 325.832 497.251 325.685C480.346 315.16 461.12 264.328 460.982 264.063C460.871 263.851 460.981 263.51 461.049 263.366C461.143 263.123 461.419 262.482 461.771 261.855Z" fill="#0485A2"/>
<path d="M404.717 157.233C405.282 156.821 406.078 156.979 406.442 157.576L413.922 169.833C414.265 170.397 414.087 171.132 413.524 171.476L370.28 197.865C369.371 198.42 368.245 197.599 368.495 196.564L372.187 181.312C372.254 181.037 372.416 180.795 372.644 180.628L404.717 157.233Z" fill="#0E6F3A"/>
<path d="M366.814 178.892C366.333 178.581 366.521 177.838 367.091 177.794L376.863 177.028C377.271 176.996 377.589 177.373 377.489 177.77L375.953 183.852C375.852 184.248 375.393 184.429 375.049 184.207L366.814 178.892Z" fill="#0E6F3A"/>
<path d="M412.339 169.574C412.882 169.224 413.048 168.507 412.715 167.954L403.969 153.422C403.586 152.786 402.722 152.649 402.161 153.136L362.69 187.415C361.89 188.111 362.324 189.427 363.381 189.509L379.091 190.737C379.352 190.758 379.612 190.692 379.832 190.55L412.339 169.574Z" fill="#0E6F3A"/>
<path d="M486.209 196.199C486.174 195.501 485.551 194.982 484.858 195.074L470.623 196.962C469.969 197.049 469.509 197.65 469.595 198.304L476.258 248.525C476.398 249.58 477.745 249.94 478.392 249.094L487.932 236.635C488.104 236.411 488.191 236.132 488.177 235.849L486.209 196.199Z" fill="#0E6F3A"/>
<path d="M471.823 198.032C471.754 197.39 472.208 196.81 472.847 196.721L489.647 194.387C490.382 194.285 491.032 194.871 491.006 195.613L489.16 247.859C489.122 248.919 487.826 249.409 487.097 248.638L476.266 237.193C476.086 237.002 475.974 236.759 475.946 236.498L471.823 198.032Z" fill="#0E6F3A"/>
<path d="M493.765 239.567C494.308 239.746 494.768 239.133 494.445 238.661L488.897 230.58C488.666 230.243 488.172 230.232 487.927 230.559L484.163 235.578C483.917 235.905 484.066 236.376 484.454 236.504L493.765 239.567Z" fill="#0E6F3A"/>
<path d="M448.419 240.109C435.54 267.08 418.022 270.39 401.88 262.682C385.737 254.973 377.082 239.166 389.961 212.195C402.84 185.223 426.367 169.608 442.51 177.316C458.653 185.024 461.298 213.138 448.419 240.109Z" fill="#559472"/>
<path d="M450.822 149.365L452.279 151.584L459.67 150.808C460.179 150.389 460.787 149.355 459.148 148.572" stroke="#090909" stroke-width="2" stroke-linecap="round"/>
</g>
<g clip-path="url(#clip4_97_255)">
<g clip-path="url(#clip5_97_255)">
<path d="M1850.32 299.89C1848.96 302.474 1845.1 301.88 1844.58 299.005L1832.92 234.833C1832.54 232.755 1834.33 230.923 1836.41 231.245L1878.49 237.726C1880.58 238.048 1881.73 240.331 1880.75 242.199L1850.32 299.89Z" fill="#0485A2"/>
<path fill-rule="evenodd" clip-rule="evenodd" d="M1856.81 257.435C1875.62 260.332 1915.94 257.975 1946.02 193.93C1969.8 143.315 1980.72 86.4803 1988.12 48.0129C1990.14 37.4882 1991.9 28.3385 1993.58 21.0669L2017.08 -122.959C2019.64 -140.074 2020.19 -175.005 2001.96 -177.813C1999.1 -178.373 1993.21 -179.566 1992.59 -179.855C1992.12 -180.069 1992.2 -180.253 1992.29 -180.478C1992.32 -180.555 1992.35 -180.637 1992.36 -180.726L1992.77 -182.579C1992.83 -182.992 1992.91 -183.424 1993 -183.906C1993.2 -185.06 1993.46 -186.5 1993.71 -188.656C1994.13 -192.315 1994.39 -194.654 1985.98 -195.95L1935.49 -203.725C1932.31 -204.256 1927.92 -201.183 1927.45 -198.145C1927.2 -196.505 1927.01 -195.065 1926.84 -193.737C1926.7 -192.603 1926.56 -191.55 1926.4 -190.529C1926.4 -190.469 1926.39 -190.408 1926.38 -190.349C1926.34 -189.932 1926.3 -189.538 1925.34 -189.853C1924.25 -190.213 1918.11 -191.047 1915.18 -191.419L1897.77 -194.1C1897.14 -194.158 1895.99 -194.543 1896.44 -195.621L1897.54 -202.751C1897.89 -205.011 1897.09 -209.737 1891.09 -210.564C1885.09 -211.392 1863.12 -214.833 1852.88 -216.45C1850.29 -216.768 1844.84 -215.678 1843.68 -208.773L1842.71 -202.462C1842.65 -202.312 1842.43 -202.027 1842.05 -202.085C1841.68 -202.142 1832.83 -201.271 1828.46 -200.828C1826.87 -200.594 1821.99 -199.526 1821.65 -198.526C1819.81 -193.215 1812.16 -149.162 1806.13 -97.7797C1800.16 -46.9534 1797.57 -22.0451 1794.21 10.6982C1793.93 12.4581 1790.76 40.9024 1790.46 42.7852L1788.84 59.5254L1787.76 72.7594C1785.97 92.1067 1780.67 136.636 1784.63 172.302C1789.38 242.07 1832.06 254.267 1856.81 257.435Z" fill="#0E6F3A"/>
<path d="M1917.81 201.18C1908.02 214.693 1896.09 216.187 1891.41 215.427C1888.29 214.667 1881.21 211.582 1877.86 205.321C1873.67 197.494 1873.22 185.63 1873.47 173.883C1873.71 163.027 1877.02 146.78 1881.79 133.87C1881.79 133.87 1885.39 121.378 1898.15 107.064C1914.09 89.1706 1930.25 108.776 1932.8 113.238C1935.35 117.701 1938.64 131.374 1937.92 142.275C1937.34 150.996 1934.41 163.279 1932.06 171.775C1928.79 183.601 1924.2 192.35 1917.81 201.18Z" fill="#FEE6CA"/>
<path d="M1863.8 178.179C1857.68 201.167 1843.22 207.634 1836.75 207.994C1834.55 208.037 1831.79 207.389 1830.68 207.06C1821.88 204.65 1816.58 197.269 1815.03 193.88C1812.35 188.8 1807.06 174.44 1807.35 157.638C1807.64 140.836 1812.65 122.717 1815.11 115.758C1819.55 105.034 1832.39 84.7236 1848.23 89.2687C1864.06 93.8136 1870.16 113.159 1870.43 119.941C1871.3 131.324 1869.92 155.19 1863.8 178.179Z" fill="#FEE6CA"/>
<path d="M1802.56 16.0429C1803.02 17.3459 1804.5 17.9739 1805.76 17.4039L1831.65 5.69983C1832.84 5.16168 1833.37 3.76036 1832.83 2.57078L1791.54 -88.7739C1790.67 -90.694 1787.91 -90.6063 1787.17 -88.6349L1776.21 -59.5837C1776.01 -59.06 1776 -58.483 1776.19 -57.9548L1802.56 16.0429Z" fill="#0E6F3A"/>
<path d="M1828.77 4.35615C1829.27 5.53299 1828.74 6.89186 1827.58 7.4252L1797.08 21.4372C1795.75 22.0506 1794.18 21.3109 1793.81 19.8904L1767.48 -80.1495C1766.95 -82.1791 1769.12 -83.8468 1770.94 -82.8037L1798 -67.3018C1798.45 -67.0443 1798.8 -66.6466 1799 -66.1691L1828.77 4.35615Z" fill="#0E6F3A"/>
<path d="M1848.62 -88.7936C1857.63 -147.246 1888.93 -163.518 1923.91 -158.13C1958.9 -152.741 1984.32 -127.733 1975.32 -69.2802C1966.31 -10.8275 1930.65 32.1898 1895.67 26.8012C1860.68 21.4128 1839.62 -30.3409 1848.62 -88.7936Z" fill="#559472"/>
<path d="M1884.05 79.3503C1881.35 80.3584 1877.33 83.6016 1882.81 88.5098C1889.66 94.645 1890.91 76.2153 1884.05 79.3503Z" stroke="#090909" stroke-width="5" stroke-linecap="round"/>
</g>
</g>
<g clip-path="url(#clip6_97_255)">
<path d="M235.65 916.522C238.298 915.918 240.216 919.002 238.504 921.111L200.282 968.191C199.044 969.716 196.672 969.567 195.635 967.899L174.728 934.283C173.691 932.615 174.606 930.422 176.521 929.986L235.65 916.522Z" fill="#0485A2"/>
<path fill-rule="evenodd" clip-rule="evenodd" d="M202.117 938.226C192.768 923.194 166.689 896.168 103.283 913.72C53.1733 927.591 6.45633 954.296 -25.1634 972.371C-33.8144 977.316 -41.3354 981.616 -47.4866 984.829L-163.338 1055.46C-176.962 1064.02 -201.945 1084.78 -192.887 1099.34C-191.548 1101.7 -188.826 1106.58 -188.65 1107.19C-188.519 1107.65 -188.694 1107.71 -188.907 1107.78C-188.98 1107.81 -189.058 1107.84 -189.129 1107.88L-190.681 1108.72C-191.011 1108.92 -191.363 1109.13 -191.755 1109.36C-192.693 1109.91 -193.865 1110.6 -195.536 1111.74C-198.372 1113.65 -200.183 1114.88 -196.002 1121.61L-170.917 1161.94C-169.361 1164.51 -164.535 1165.75 -162.107 1164.24C-160.798 1163.42 -159.67 1162.68 -158.63 1162C-157.741 1161.41 -156.917 1160.87 -156.101 1160.36C-156.053 1160.34 -156.007 1160.3 -155.961 1160.27C-155.64 1160.05 -155.338 1159.84 -154.982 1160.7C-154.574 1161.69 -151.444 1166.53 -149.93 1168.83L-141.278 1182.74C-140.937 1183.22 -140.515 1184.26 -141.551 1184.59L-147.246 1188.13C-149.051 1189.26 -151.9 1192.69 -148.852 1197.42C-145.804 1202.15 -134.923 1219.75 -129.864 1227.95C-128.524 1229.96 -124.451 1233.15 -118.878 1229.79L-113.836 1226.66C-113.692 1226.61 -113.358 1226.59 -113.172 1226.89C-112.986 1227.19 -107.016 1232.9 -104.055 1235.72C-102.926 1236.7 -99.2183 1239.5 -98.3037 1239.14C-93.4451 1237.22 -57.7304 1215.94 -17.8225 1189.08C21.6535 1162.52 40.795 1149.26 65.9377 1131.81C67.3432 1130.94 89.3372 1115.96 90.8457 1115.03L103.639 1106.03L113.631 1098.78C128.363 1088.33 162.993 1065.11 185.762 1040.72C232.113 995.118 214.873 957.613 202.117 938.226Z" fill="#0E6F3A"/>
<path d="M125.486 929.235C140.945 927.958 149.228 935.476 151.524 939.237C152.877 941.898 154.985 948.76 152.596 954.916C149.61 962.611 141.514 970.113 133.072 977.048C125.27 983.457 111.798 990.954 99.8004 995.405C99.8004 995.405 88.805 1000.43 70.9825 1000.1C48.7044 999.681 52.7526 976.407 54.3575 971.907C55.9624 967.406 63.6186 956.806 71.7462 950.714C78.2483 945.839 88.6943 940.475 96.1105 936.988C106.434 932.134 115.383 930.07 125.486 929.235Z" fill="#FEE6CA"/>
<path d="M141.958 981.268C161.885 971.668 175.206 977.958 179.376 982.303C180.741 983.832 181.955 986.172 182.391 987.151C186.022 994.822 184.023 1003.03 182.569 1006.18C180.609 1011.14 173.68 1023.57 161.647 1033.54C149.613 1043.5 133.799 1050.94 127.395 1053.42C117.141 1056.78 95.037 1060.02 88.6557 1046.09C82.2744 1032.17 92.2338 1016.15 96.8559 1011.86C104.357 1004.35 122.031 990.869 141.958 981.268Z" fill="#FEE6CA"/>
<path d="M56.2079 1013.95C58.7909 1015.89 63.8887 1021.14 63.6153 1026.7" stroke="#090909" stroke-width="3" stroke-linecap="round"/>
<path d="M-37.2266 1153.63C-83.9218 1182.67 -114.356 1170.44 -131.737 1142.49C-149.119 1114.54 -146.866 1081.46 -100.171 1052.42C-53.4756 1023.38 -1.53116 1022.5 15.8504 1050.44C33.232 1078.39 9.4686 1124.59 -37.2266 1153.63Z" fill="#559472"/>
</g>
<path d="M1427.99 288.716C1429 292.67 1424.44 295.668 1421.21 293.178L1349.04 237.586C1346.7 235.785 1346.83 232.218 1349.3 230.596L1398.98 197.911C1401.44 196.29 1404.77 197.58 1405.5 200.439L1427.99 288.716Z" fill="#0485A2"/>
<path fill-rule="evenodd" clip-rule="evenodd" d="M1394.11 239.196C1416.32 224.58 1455.9 184.379 1427.12 89.8365C1404.36 15.1176 1362.47 -54.0134 1334.11 -100.804C1326.35 -113.605 1319.61 -124.735 1314.55 -133.849L1204.04 -305.116C1190.67 -325.246 1158.53 -361.967 1137.01 -347.805C1133.51 -345.704 1126.29 -341.43 1125.38 -341.142C1124.69 -340.928 1124.6 -341.188 1124.48 -341.506C1124.44 -341.614 1124.4 -341.73 1124.33 -341.835L1123.01 -344.134C1122.69 -344.622 1122.37 -345.142 1122 -345.722C1121.14 -347.11 1120.05 -348.843 1118.29 -351.309C1115.3 -355.494 1113.39 -358.166 1103.45 -351.63L1043.84 -312.412C1040.04 -309.977 1038.37 -302.682 1040.73 -299.094C1042 -297.16 1043.16 -295.494 1044.23 -293.958C1045.14 -292.647 1045.98 -291.43 1046.78 -290.223C1046.82 -290.153 1046.87 -290.084 1046.92 -290.016C1047.27 -289.544 1047.59 -289.098 1046.31 -288.529C1044.84 -287.879 1037.69 -282.993 1034.31 -280.632L1013.75 -267.105C1013.04 -266.576 1011.49 -265.902 1010.95 -267.444L1005.42 -275.861C1003.66 -278.529 998.402 -282.674 991.41 -277.916C984.418 -273.158 958.417 -256.143 946.291 -248.231C943.316 -246.142 938.682 -239.903 943.945 -231.662L948.848 -224.211C948.923 -223.997 948.962 -223.496 948.521 -223.205C948.079 -222.915 939.729 -213.73 935.609 -209.174C934.178 -207.442 930.123 -201.767 930.701 -200.407C933.772 -193.185 967.094 -140.368 1008.95 -81.4677C1050.36 -23.2051 1071 5.03151 1098.17 42.1192C1099.54 44.1963 1122.88 76.6503 1124.34 78.88L1138.33 97.747L1149.6 112.475C1165.87 134.196 1202.07 185.31 1239.57 218.567C1309.82 286.423 1365.48 259.095 1394.11 239.196Z" fill="#0E6F3A"/>
<path d="M1404.67 123.769C1407.18 146.936 1396.21 159.663 1390.65 163.255C1386.7 165.389 1376.48 168.819 1367.15 165.467C1355.48 161.278 1343.9 149.407 1333.16 136.995C1323.24 125.526 1311.46 105.582 1304.32 87.7357C1304.32 87.7357 1296.35 71.4164 1296.17 44.6395C1295.94 11.1684 1331.04 16.3549 1337.86 18.5924C1344.68 20.8299 1360.89 31.9206 1370.36 43.8923C1377.92 53.4697 1386.38 68.9506 1391.9 79.954C1399.59 95.2704 1403.03 108.63 1404.67 123.769Z" fill="#FEE6CA"/>
<path d="M1327.17 150.504C1342.34 180.061 1333.38 200.322 1327.01 206.757C1324.76 208.869 1321.29 210.785 1319.83 211.478C1308.44 217.236 1296.02 214.556 1291.24 212.496C1283.7 209.747 1264.76 199.829 1249.33 182.144C1233.89 164.459 1222.12 140.994 1218.16 131.472C1212.73 116.2 1207.03 83.1214 1227.73 72.9859C1248.42 62.8503 1272.87 77.1807 1279.5 83.9549C1291.07 94.9279 1311.99 120.947 1327.17 150.504Z" fill="#FEE6CA"/>
<path d="M1111.87 39.8142C1113.57 40.7296 1115.69 39.9969 1116.46 38.2267L1132.34 1.85291C1133.07 0.180818 1132.3 -1.76621 1130.63 -2.49589L1002.3 -58.4965C999.606 -59.6736 996.832 -57.002 997.907 -54.2624L1013.75 -13.8901C1014.03 -13.1619 1014.57 -12.5587 1015.26 -12.188L1111.87 39.8142Z" fill="#0E6F3A"/>
<path d="M1128.1 3.15772C1129.71 3.9122 1130.44 5.81422 1129.74 7.45382L1111.25 50.5312C1110.44 52.4171 1108.13 53.1164 1106.41 51.9939L985.447 -27.0299C982.994 -28.6328 983.688 -32.3994 986.551 -33.023L1029.11 -42.2903C1029.81 -42.4442 1030.55 -42.3619 1031.21 -42.0561L1128.1 3.15772Z" fill="#0E6F3A"/>
<path d="M998.481 -4.28308C997.282 -3.25323 998.075 -1.28931 999.653 -1.38124L1026.7 -2.95683C1027.83 -3.02255 1028.56 -4.17645 1028.13 -5.22429L1021.64 -21.2991C1021.22 -22.3469 1019.89 -22.6698 1019.03 -21.9335L998.481 -4.28308Z" fill="#0E6F3A"/>
<path d="M1273.82 31.3392C1275.44 25.9893 1279.04 14.6963 1280.49 12.323C1282.29 9.35631 1264.28 26.1505 1260.42 27.5014" stroke="#090909" stroke-width="5" stroke-linecap="round"/>
<path d="M1058.75 -105.843C1013.35 -174.852 1030.55 -221.024 1071.86 -248.198C1113.16 -275.372 1162.92 -273.258 1208.32 -204.249C1253.73 -135.24 1257.05 -57.2686 1215.75 -30.0946C1174.44 -2.92052 1104.16 -36.8342 1058.75 -105.843Z" fill="#559472"/>
<g style="mix-blend-mode:hard-light">
<path d="M610.106 444.528L610.106 344.766C610.106 338.179 611.648 333.501 614.734 330.733C617.915 327.964 622.543 326.532 628.521 326.532L670.171 326.532C676.631 326.532 682.802 327.01 688.49 328.06C694.178 328.919 699.481 330.637 704.302 333.119C709.123 335.602 712.979 339.229 715.968 343.907C718.86 348.585 720.403 354.504 720.403 361.664C720.403 367.678 718.764 373.215 715.486 378.084C712.208 382.952 707.387 386.676 701.217 389.253L701.217 389.635C708.833 391.64 714.811 395.363 718.957 400.804C723.199 406.055 725.224 413.31 725.224 422.38C725.224 429.349 723.874 435.363 721.174 440.518C718.668 445.578 715.004 449.683 710.28 453.024C705.555 456.27 700.156 458.752 694.082 460.375C688.104 461.902 681.645 462.666 674.606 462.666L628.424 462.666C622.447 462.666 617.819 461.234 614.637 458.466C611.648 455.792 610.106 451.115 610.106 444.528ZM641.44 402.236L641.44 438.895L667.761 438.895C671.232 438.895 674.414 438.609 677.306 438.131C680.391 437.654 683.091 436.699 685.501 435.458C688.008 434.217 690.033 432.403 691.382 430.017C692.925 427.63 693.696 424.575 693.696 420.757C693.696 416.938 692.829 413.597 691.19 411.115C689.647 408.633 687.526 406.723 684.73 405.482C682.03 404.241 679.042 403.382 675.571 403C672.1 402.523 668.243 402.236 663.905 402.236L641.344 402.236L641.44 402.236ZM641.44 349.253L641.44 382.475L667.183 382.475C681.645 382.475 688.972 376.938 688.972 365.864C688.972 359.85 686.851 355.554 682.705 352.976C678.463 350.494 673.064 349.158 666.315 349.158L641.537 349.158L641.44 349.253ZM745.953 451.401L745.953 337.988C745.953 333.597 747.206 330.16 749.616 327.773C752.123 325.387 755.594 324.146 759.933 324.146C764.271 324.146 767.646 325.387 770.056 327.773C772.563 330.16 773.913 333.597 773.913 337.988L773.913 451.401C773.913 455.792 772.659 459.229 770.056 461.616C767.646 464.003 764.271 465.244 759.933 465.244C755.594 465.244 752.123 464.003 749.616 461.616C747.206 459.229 745.953 455.792 745.953 451.401ZM799.077 451.401L799.077 375.22C799.077 371.019 800.137 367.678 802.162 365.196C804.283 362.714 807.947 361.377 813.057 361.377C818.167 361.377 821.734 362.618 823.759 365.196C825.88 367.678 827.037 371.019 827.037 375.22L827.037 451.401C827.037 455.602 825.976 458.943 823.759 461.425C821.734 463.907 818.167 465.244 813.057 465.244C807.947 465.244 804.379 464.003 802.162 461.425C800.137 458.943 799.077 455.602 799.077 451.401ZM798.498 337.797C798.498 333.788 799.944 330.351 802.74 327.583C805.536 324.814 809.007 323.382 813.057 323.382C817.106 323.382 820.577 324.814 823.373 327.583C826.169 330.351 827.615 333.788 827.615 337.797C827.615 341.807 826.169 345.244 823.373 348.012C820.577 350.781 817.106 352.213 813.057 352.213C809.007 352.213 805.536 350.781 802.74 348.012C799.944 345.244 798.498 341.807 798.498 337.797ZM850.658 451.401L850.658 375.22C850.658 370.924 851.719 367.582 853.743 365.196C855.864 362.714 859.046 361.377 863.288 361.377C867.53 361.377 870.616 362.618 872.64 365.196C874.761 367.582 875.918 370.924 875.918 375.22L875.918 378.847L876.304 378.847C880.643 373.31 885.463 369.014 890.766 365.96C896.262 362.905 902.625 361.377 910.049 361.377C914.484 361.377 918.726 362.046 922.872 363.287C927.114 364.432 930.778 366.437 934.152 369.301C937.623 372.069 940.226 375.888 942.155 380.661C944.179 385.339 945.24 390.972 945.24 397.654L945.24 451.306C945.24 455.506 944.179 458.847 941.962 461.329C939.937 463.812 936.37 465.148 931.26 465.148C926.15 465.148 922.583 463.907 920.365 461.329C918.34 458.847 917.28 455.506 917.28 451.306L917.28 403.096C917.28 397.272 915.834 392.69 912.845 389.253C909.952 385.721 905.517 384.003 899.636 384.003C894.333 384.003 889.416 386.007 884.981 390.017C880.643 393.931 878.522 399.182 878.522 405.673L878.522 451.21C878.522 455.411 877.461 458.752 875.243 461.234C873.219 463.716 869.651 465.053 864.542 465.053C859.432 465.053 855.864 463.812 853.647 461.234C851.622 458.752 850.562 455.411 850.562 451.21L850.658 451.401ZM967.415 451.401L967.415 337.988C967.415 333.597 968.668 330.16 971.079 327.773C973.585 325.387 977.056 324.146 981.395 324.146C985.734 324.146 989.108 325.387 991.518 327.773C994.025 330.16 995.375 333.597 995.375 337.988L995.375 400.709L1026.32 366.723C1029.6 363.191 1033.17 361.473 1037.03 361.473C1040.3 361.473 1043.29 362.714 1045.99 365.291C1048.79 367.678 1050.23 370.542 1050.23 373.979C1050.23 376.079 1049.95 377.797 1049.27 378.847C1048.79 379.898 1047.82 381.139 1046.38 382.666C1046.28 382.761 1046.09 382.952 1045.99 383.048L1025.36 404.432L1054.38 443C1055.15 444.05 1055.83 445.291 1056.31 446.819C1056.98 448.251 1057.27 449.874 1057.27 451.878C1057.27 455.411 1056.02 458.561 1053.42 461.329C1050.91 464.003 1047.73 465.339 1044.06 465.339C1040.98 465.339 1038.47 464.671 1036.45 463.43C1034.42 462.284 1032.78 460.757 1031.53 458.847L1005.21 421.998L995.471 430.494L995.471 451.497C995.471 455.888 994.218 459.325 991.615 461.711C989.204 464.098 985.83 465.339 981.491 465.339C977.153 465.339 973.682 464.098 971.175 461.711C968.765 459.325 967.511 455.888 967.511 451.497L967.415 451.401ZM1156.58 418.466L1093.62 418.466C1093.62 425.912 1095.93 431.926 1100.47 436.604C1105.09 441.282 1111.36 443.573 1119.36 443.573C1124.67 443.573 1128.81 442.905 1131.8 441.473C1134.89 439.945 1137.87 437.845 1140.96 435.267C1142.89 433.549 1144.62 432.213 1146.07 431.258C1147.61 430.399 1149.44 429.921 1151.57 429.921C1154.75 429.921 1157.45 431.067 1159.57 433.358C1161.88 435.649 1163.04 438.036 1163.04 440.709C1163.04 444.623 1161.59 448.155 1158.8 451.306C1156 454.361 1152.34 456.938 1147.71 459.038C1143.27 461.043 1138.45 462.571 1133.44 463.621C1128.52 464.671 1123.8 465.148 1119.27 465.148C1110.01 465.148 1101.91 463.716 1095.07 460.948C1088.22 458.084 1082.63 454.17 1078.29 449.396C1073.95 444.623 1070.77 439.277 1068.75 433.358C1066.72 427.439 1065.66 421.33 1065.66 415.029C1065.66 398.8 1070.38 385.816 1079.83 376.079C1089.28 366.246 1102.1 361.377 1118.4 361.377C1126.21 361.377 1133.15 362.618 1139.42 365.196C1145.78 367.583 1151.08 371.019 1155.42 375.411C1159.86 379.707 1163.23 384.575 1165.35 389.921C1167.67 395.172 1168.82 400.804 1168.82 406.532C1168.82 411.21 1167.96 414.361 1166.12 415.983C1164.48 417.606 1161.3 418.466 1156.58 418.466ZM1093.62 402.618L1142.5 402.618C1141.73 396.222 1139.13 390.972 1134.69 386.962C1130.35 382.761 1125.15 380.757 1119.07 380.757C1112.32 380.757 1106.83 382.666 1102.49 386.58C1098.15 390.399 1095.26 395.745 1093.72 402.618L1093.62 402.618ZM1188.3 451.401L1188.3 374.265C1188.3 370.256 1189.46 367.105 1191.77 364.814C1194.18 362.523 1197.27 361.377 1200.93 361.377C1204.59 361.377 1207.58 362.523 1209.9 364.814C1212.31 367.105 1213.56 370.256 1213.56 374.265L1213.56 384.862L1213.94 384.862C1215.87 378.084 1218.57 372.451 1222.14 368.06C1225.8 363.668 1230.82 361.473 1236.99 361.473C1241.42 361.473 1245.09 362.714 1247.88 365.291C1250.77 367.773 1252.32 371.019 1252.32 374.933C1252.32 379.707 1250.97 383.239 1248.27 385.53C1245.76 387.63 1242.48 388.776 1238.53 388.776L1233.61 388.776C1227.73 388.776 1223.39 391.067 1220.4 395.745C1217.61 400.423 1216.16 408.251 1216.16 419.325L1216.16 451.497C1216.16 455.697 1215.1 459.038 1212.88 461.52C1210.86 464.003 1207.29 465.339 1202.18 465.339C1197.07 465.339 1193.51 464.098 1191.29 461.52C1189.26 459.038 1188.2 455.697 1188.2 451.497L1188.3 451.401Z" fill="#356549"/>
</g>
<g style="mix-blend-mode:hard-light">
<path d="M610.106 444.528L610.106 344.766C610.106 338.179 611.648 333.501 614.734 330.733C617.915 327.964 622.543 326.532 628.521 326.532L670.171 326.532C676.631 326.532 682.802 327.01 688.49 328.06C694.178 328.919 699.481 330.637 704.302 333.119C709.123 335.602 712.979 339.229 715.968 343.907C718.86 348.585 720.403 354.504 720.403 361.664C720.403 367.678 718.764 373.215 715.486 378.084C712.208 382.952 707.387 386.676 701.217 389.253L701.217 389.635C708.833 391.64 714.811 395.363 718.957 400.804C723.199 406.055 725.224 413.31 725.224 422.38C725.224 429.349 723.874 435.363 721.174 440.518C718.668 445.578 715.004 449.683 710.28 453.024C705.555 456.27 700.156 458.752 694.082 460.375C688.104 461.902 681.645 462.666 674.606 462.666L628.424 462.666C622.447 462.666 617.819 461.234 614.637 458.466C611.648 455.792 610.106 451.115 610.106 444.528ZM641.44 402.236L641.44 438.895L667.761 438.895C671.232 438.895 674.414 438.609 677.306 438.131C680.391 437.654 683.091 436.699 685.501 435.458C688.008 434.217 690.033 432.403 691.382 430.017C692.925 427.63 693.696 424.575 693.696 420.757C693.696 416.938 692.829 413.597 691.19 411.115C689.647 408.633 687.526 406.723 684.73 405.482C682.03 404.241 679.042 403.382 675.571 403C672.1 402.523 668.243 402.236 663.905 402.236L641.344 402.236L641.44 402.236ZM641.44 349.253L641.44 382.475L667.183 382.475C681.645 382.475 688.972 376.938 688.972 365.864C688.972 359.85 686.851 355.554 682.705 352.976C678.463 350.494 673.064 349.158 666.315 349.158L641.537 349.158L641.44 349.253ZM745.953 451.401L745.953 337.988C745.953 333.597 747.206 330.16 749.616 327.773C752.123 325.387 755.594 324.146 759.933 324.146C764.271 324.146 767.646 325.387 770.056 327.773C772.563 330.16 773.913 333.597 773.913 337.988L773.913 451.401C773.913 455.792 772.659 459.229 770.056 461.616C767.646 464.003 764.271 465.244 759.933 465.244C755.594 465.244 752.123 464.003 749.616 461.616C747.206 459.229 745.953 455.792 745.953 451.401ZM799.077 451.401L799.077 375.22C799.077 371.019 800.137 367.678 802.162 365.196C804.283 362.714 807.947 361.377 813.057 361.377C818.167 361.377 821.734 362.618 823.759 365.196C825.88 367.678 827.037 371.019 827.037 375.22L827.037 451.401C827.037 455.602 825.976 458.943 823.759 461.425C821.734 463.907 818.167 465.244 813.057 465.244C807.947 465.244 804.379 464.003 802.162 461.425C800.137 458.943 799.077 455.602 799.077 451.401ZM798.498 337.797C798.498 333.788 799.944 330.351 802.74 327.583C805.536 324.814 809.007 323.382 813.057 323.382C817.106 323.382 820.577 324.814 823.373 327.583C826.169 330.351 827.615 333.788 827.615 337.797C827.615 341.807 826.169 345.244 823.373 348.012C820.577 350.781 817.106 352.213 813.057 352.213C809.007 352.213 805.536 350.781 802.74 348.012C799.944 345.244 798.498 341.807 798.498 337.797ZM850.658 451.401L850.658 375.22C850.658 370.924 851.719 367.582 853.743 365.196C855.864 362.714 859.046 361.377 863.288 361.377C867.53 361.377 870.616 362.618 872.64 365.196C874.761 367.582 875.918 370.924 875.918 375.22L875.918 378.847L876.304 378.847C880.643 373.31 885.463 369.014 890.766 365.96C896.262 362.905 902.625 361.377 910.049 361.377C914.484 361.377 918.726 362.046 922.872 363.287C927.114 364.432 930.778 366.437 934.152 369.301C937.623 372.069 940.226 375.888 942.155 380.661C944.179 385.339 945.24 390.972 945.24 397.654L945.24 451.306C945.24 455.506 944.179 458.847 941.962 461.329C939.937 463.812 936.37 465.148 931.26 465.148C926.15 465.148 922.583 463.907 920.365 461.329C918.34 458.847 917.28 455.506 917.28 451.306L917.28 403.096C917.28 397.272 915.834 392.69 912.845 389.253C909.952 385.721 905.517 384.003 899.636 384.003C894.333 384.003 889.416 386.007 884.981 390.017C880.643 393.931 878.522 399.182 878.522 405.673L878.522 451.21C878.522 455.411 877.461 458.752 875.243 461.234C873.219 463.716 869.651 465.053 864.542 465.053C859.432 465.053 855.864 463.812 853.647 461.234C851.622 458.752 850.562 455.411 850.562 451.21L850.658 451.401ZM967.415 451.401L967.415 337.988C967.415 333.597 968.668 330.16 971.079 327.773C973.585 325.387 977.056 324.146 981.395 324.146C985.734 324.146 989.108 325.387 991.518 327.773C994.025 330.16 995.375 333.597 995.375 337.988L995.375 400.709L1026.32 366.723C1029.6 363.191 1033.17 361.473 1037.03 361.473C1040.3 361.473 1043.29 362.714 1045.99 365.291C1048.79 367.678 1050.23 370.542 1050.23 373.979C1050.23 376.079 1049.95 377.797 1049.27 378.847C1048.79 379.898 1047.82 381.139 1046.38 382.666C1046.28 382.761 1046.09 382.952 1045.99 383.048L1025.36 404.432L1054.38 443C1055.15 444.05 1055.83 445.291 1056.31 446.819C1056.98 448.251 1057.27 449.874 1057.27 451.878C1057.27 455.411 1056.02 458.561 1053.42 461.329C1050.91 464.003 1047.73 465.339 1044.06 465.339C1040.98 465.339 1038.47 464.671 1036.45 463.43C1034.42 462.284 1032.78 460.757 1031.53 458.847L1005.21 421.998L995.471 430.494L995.471 451.497C995.471 455.888 994.218 459.325 991.615 461.711C989.204 464.098 985.83 465.339 981.491 465.339C977.153 465.339 973.682 464.098 971.175 461.711C968.765 459.325 967.511 455.888 967.511 451.497L967.415 451.401ZM1156.58 418.466L1093.62 418.466C1093.62 425.912 1095.93 431.926 1100.47 436.604C1105.09 441.282 1111.36 443.573 1119.36 443.573C1124.67 443.573 1128.81 442.905 1131.8 441.473C1134.89 439.945 1137.87 437.845 1140.96 435.267C1142.89 433.549 1144.62 432.213 1146.07 431.258C1147.61 430.399 1149.44 429.921 1151.57 429.921C1154.75 429.921 1157.45 431.067 1159.57 433.358C1161.88 435.649 1163.04 438.036 1163.04 440.709C1163.04 444.623 1161.59 448.155 1158.8 451.306C1156 454.361 1152.34 456.938 1147.71 459.038C1143.27 461.043 1138.45 462.571 1133.44 463.621C1128.52 464.671 1123.8 465.148 1119.27 465.148C1110.01 465.148 1101.91 463.716 1095.07 460.948C1088.22 458.084 1082.63 454.17 1078.29 449.396C1073.95 444.623 1070.77 439.277 1068.75 433.358C1066.72 427.439 1065.66 421.33 1065.66 415.029C1065.66 398.8 1070.38 385.816 1079.83 376.079C1089.28 366.246 1102.1 361.377 1118.4 361.377C1126.21 361.377 1133.15 362.618 1139.42 365.196C1145.78 367.583 1151.08 371.019 1155.42 375.411C1159.86 379.707 1163.23 384.575 1165.35 389.921C1167.67 395.172 1168.82 400.804 1168.82 406.532C1168.82 411.21 1167.96 414.361 1166.12 415.983C1164.48 417.606 1161.3 418.466 1156.58 418.466ZM1093.62 402.618L1142.5 402.618C1141.73 396.222 1139.13 390.972 1134.69 386.962C1130.35 382.761 1125.15 380.757 1119.07 380.757C1112.32 380.757 1106.83 382.666 1102.49 386.58C1098.15 390.399 1095.26 395.745 1093.72 402.618L1093.62 402.618ZM1188.3 451.401L1188.3 374.265C1188.3 370.256 1189.46 367.105 1191.77 364.814C1194.18 362.523 1197.27 361.377 1200.93 361.377C1204.59 361.377 1207.58 362.523 1209.9 364.814C1212.31 367.105 1213.56 370.256 1213.56 374.265L1213.56 384.862L1213.94 384.862C1215.87 378.084 1218.57 372.451 1222.14 368.06C1225.8 363.668 1230.82 361.473 1236.99 361.473C1241.42 361.473 1245.09 362.714 1247.88 365.291C1250.77 367.773 1252.32 371.019 1252.32 374.933C1252.32 379.707 1250.97 383.239 1248.27 385.53C1245.76 387.63 1242.48 388.776 1238.53 388.776L1233.61 388.776C1227.73 388.776 1223.39 391.067 1220.4 395.745C1217.61 400.423 1216.16 408.251 1216.16 419.325L1216.16 451.497C1216.16 455.697 1215.1 459.038 1212.88 461.52C1210.86 464.003 1207.29 465.339 1202.18 465.339C1197.07 465.339 1193.51 464.098 1191.29 461.52C1189.26 459.038 1188.2 455.697 1188.2 451.497L1188.3 451.401Z" fill="#356549"/>
</g>
<path d="M1213.55 384.862L1213.94 384.862C1215.29 380.089 1217.12 376.174 1219.24 372.547L1213.07 371.783C1213.17 372.642 1213.46 373.311 1213.46 374.265L1213.46 384.862L1213.55 384.862Z" fill="#505050"/>
<path d="M899.717 384.098C896.535 384.098 893.546 384.862 890.654 386.294L916.589 397.081C915.914 394.122 914.757 391.449 912.926 389.349C910.033 385.816 905.598 384.098 899.717 384.098Z" fill="#505050"/>
<path d="M812.957 323L812.957 323.382C817.006 323.382 820.477 324.814 823.273 327.582C826.069 330.351 827.515 333.788 827.515 337.797C827.515 341.807 826.069 345.243 823.273 348.012C820.477 350.78 817.006 352.212 812.957 352.212C810.643 352.212 808.521 351.64 806.593 350.685L806.4 351.449L851.233 370.064C851.715 368.155 852.486 366.532 853.547 365.291C855.668 362.809 858.849 361.473 863.092 361.473C867.334 361.473 870.419 362.714 872.444 365.291C874.565 367.678 875.722 371.019 875.722 375.315L875.722 378.943L876.108 378.943C880.446 373.406 885.267 369.11 890.57 366.055C896.065 363 902.428 361.473 909.852 361.473C914.287 361.473 918.53 362.141 922.675 363.382C926.918 364.527 930.678 366.532 933.956 369.396C937.427 372.165 940.03 375.983 941.958 380.757C943.983 385.434 945.043 391.067 945.043 397.749L945.043 409.014L967.218 418.274L967.218 341.807L812.957 323Z" fill="#505050"/>
<path d="M1251.92 377.129C1251.53 380.661 1250.47 383.525 1248.26 385.434C1245.75 387.535 1242.47 388.68 1238.52 388.68L1233.6 388.68C1227.72 388.68 1223.38 390.971 1220.39 395.649C1217.6 400.327 1216.15 408.155 1216.15 419.229L1216.15 451.401C1216.15 455.601 1215.09 458.943 1212.87 461.425C1210.85 463.907 1207.28 465.243 1202.17 465.243C1197.06 465.243 1193.49 464.002 1191.28 461.425C1189.25 458.943 1188.19 455.601 1188.19 451.401L1188.19 374.265C1188.19 372.26 1188.48 370.446 1189.06 368.919L995.17 345.243L995.17 400.709L1026.12 366.723C1029.4 363.191 1032.96 361.473 1036.82 361.473C1040.1 361.473 1043.09 362.714 1045.79 365.291C1048.58 367.678 1050.03 370.542 1050.03 373.979C1050.03 376.079 1049.74 377.797 1049.06 378.847C1048.58 379.897 1047.62 381.138 1046.17 382.666C1046.08 382.761 1045.88 382.952 1045.79 383.048L1025.15 404.432L1054.17 443C1054.95 444.05 1055.62 445.291 1056.1 446.819C1056.78 448.251 1057.07 449.874 1057.07 451.878C1057.07 453.119 1056.68 454.169 1056.39 455.315L1201.59 515.554C1204.1 516.795 1206.8 517.845 1209.4 518.8L1210.46 519.181C1217.98 521.568 1225.98 523 1234.28 523C1275.54 523 1309 489.874 1309 449.014C1309 414.169 1284.6 385.053 1251.82 377.224L1251.92 377.129ZM1166.11 415.983C1164.47 417.606 1161.29 418.465 1156.57 418.465L1093.61 418.465C1093.61 425.912 1095.92 431.926 1100.45 436.604C1105.08 441.282 1111.35 443.573 1119.35 443.573C1124.65 443.573 1128.8 442.905 1131.79 441.473C1134.87 439.945 1137.86 437.845 1140.95 435.267C1142.88 433.549 1144.61 432.212 1146.06 431.258C1147.6 430.399 1149.43 429.921 1151.55 429.921C1154.73 429.921 1157.43 431.067 1159.56 433.358C1161.87 435.649 1163.03 438.036 1163.03 440.709C1163.03 444.623 1161.58 448.155 1158.78 451.306C1155.99 454.36 1152.32 456.938 1147.7 459.038C1143.26 461.043 1138.44 462.57 1133.43 463.621C1128.51 464.671 1123.79 465.148 1119.25 465.148C1110 465.148 1101.9 463.716 1095.05 460.948C1088.21 458.084 1082.62 454.169 1078.28 449.396C1073.94 444.623 1070.76 439.277 1068.73 433.358C1066.71 427.439 1065.65 421.329 1065.65 415.029C1065.65 398.8 1070.37 385.816 1079.82 376.079C1089.27 366.246 1102.09 361.377 1118.39 361.377C1126.2 361.377 1133.14 362.618 1139.4 365.196C1145.77 367.582 1151.07 371.019 1155.41 375.411C1159.84 379.706 1163.22 384.575 1165.34 389.921C1167.65 395.172 1168.81 400.804 1168.81 406.532C1168.81 411.21 1167.94 414.36 1166.11 415.983Z" fill="#505050"/>
<path d="M1118.97 380.661C1112.22 380.661 1106.72 382.57 1102.38 386.485C1098.05 390.303 1095.15 395.649 1093.61 402.523L1142.49 402.523C1141.72 396.127 1139.12 390.876 1134.68 386.866C1130.34 382.666 1125.14 380.661 1119.06 380.661L1118.97 380.661Z" fill="#505050"/>
<path d="M995.753 429.921L1017.06 438.8L1005.01 421.902L995.753 429.921Z" fill="#505050"/>
<path d="M1031.34 458.752C1032.59 460.661 1034.23 462.188 1036.25 463.334C1038.28 464.575 1040.88 465.243 1043.87 465.243C1047.53 465.243 1050.72 463.907 1053.22 461.234C1054.86 459.42 1055.83 457.32 1056.4 455.219L1016.97 438.895L1031.24 458.847L1031.34 458.752Z" fill="#356549"/>
<path d="M967.408 451.401C967.408 455.792 968.661 459.229 971.072 461.616C973.578 464.002 977.049 465.243 981.388 465.243C985.726 465.243 989.101 464.002 991.511 461.616C994.018 459.229 995.368 455.792 995.368 451.401L995.368 430.399L995.85 429.921L967.504 418.179L967.504 451.401L967.408 451.401Z" fill="#356549"/>
<path d="M850.647 375.22L850.647 451.401C850.647 455.602 851.708 458.943 853.732 461.425C855.854 463.907 859.517 465.244 864.627 465.244C869.737 465.244 873.304 464.002 875.329 461.425C877.45 458.943 878.607 455.602 878.607 451.401L878.607 405.864C878.607 399.277 880.728 394.122 885.067 390.208C886.899 388.585 888.731 387.344 890.755 386.389L851.418 370.065C851.033 371.592 850.744 373.31 850.744 375.315L850.647 375.22Z" fill="#356549"/>
<path d="M917.274 403.191L917.274 451.401C917.274 455.601 918.335 458.943 920.36 461.425C922.481 463.907 926.144 465.243 931.254 465.243C936.364 465.243 939.932 464.002 941.956 461.425C944.077 458.943 945.234 455.601 945.234 451.401L945.234 408.919L916.599 397.081C917.082 398.99 917.274 400.995 917.274 403.191Z" fill="#356549"/>
<path d="M700.917 389.731L700.917 389.349C707.184 386.867 711.908 383.143 715.186 378.179C718.465 373.311 720.104 367.774 720.104 361.759C720.104 354.599 718.657 348.68 715.669 344.003C712.776 339.325 708.823 335.793 704.002 333.215C699.182 330.733 693.879 329.015 688.191 328.155C682.502 327.105 676.332 326.628 669.872 326.628L628.414 326.628C622.436 326.628 617.809 328.06 614.627 330.828C611.542 333.597 609.999 338.275 609.999 344.862L609.999 444.623C609.999 451.21 611.542 455.793 614.627 458.657C617.809 461.425 622.436 462.857 628.414 462.857L674.403 462.857C681.442 462.857 687.901 462.093 693.879 460.566C699.953 458.943 705.352 456.461 710.077 453.215C714.801 449.969 718.368 445.769 720.971 440.709C723.671 435.554 725.021 429.54 725.021 422.571C725.021 413.501 722.9 406.342 718.754 400.995C714.512 395.554 708.63 391.831 701.014 389.826L700.917 389.731ZM641.43 349.253L666.208 349.253C672.957 349.253 678.453 350.494 682.599 353.072C686.841 355.554 688.866 359.85 688.866 365.96C688.866 377.034 681.634 382.571 667.076 382.571L641.334 382.571L641.334 349.349L641.43 349.253ZM691.372 430.017C689.926 432.404 687.998 434.217 685.491 435.458C683.081 436.7 680.381 437.559 677.296 438.132C674.403 438.609 671.222 438.895 667.751 438.895L641.43 438.895L641.43 402.237L663.991 402.237C668.329 402.237 672.186 402.523 675.657 403C679.128 403.382 682.117 404.241 684.816 405.482C687.612 406.723 689.733 408.633 691.276 411.115C692.915 413.597 693.783 416.843 693.783 420.757C693.783 424.671 693.011 427.63 691.469 430.017L691.372 430.017Z" fill="#356549"/>
<path d="M759.919 324.146C755.581 324.146 752.11 325.387 749.603 327.773C747.193 330.16 745.939 333.597 745.939 337.988L745.939 451.401C745.939 455.792 747.193 459.229 749.603 461.616C752.11 464.002 755.581 465.243 759.919 465.243C764.258 465.243 767.632 464.002 770.043 461.616C772.549 459.229 773.899 455.792 773.899 451.401L773.899 337.988C773.899 333.597 772.646 330.16 770.043 327.773C767.632 325.387 764.258 324.146 759.919 324.146Z" fill="#356549"/>
<path d="M813.055 361.377C807.945 361.377 804.378 362.618 802.16 365.196C800.136 367.678 799.075 371.019 799.075 375.22L799.075 451.401C799.075 455.602 800.136 458.943 802.16 461.425C804.281 463.907 807.945 465.244 813.055 465.244C818.165 465.244 821.732 464.003 823.757 461.425C825.878 458.943 827.035 455.602 827.035 451.401L827.035 375.22C827.035 371.019 825.974 367.678 823.757 365.196C821.732 362.714 818.165 361.377 813.055 361.377Z" fill="#356549"/>
<path d="M1241.04 375.315C1244.8 375.602 1248.37 376.27 1251.93 377.129C1251.93 376.365 1252.32 375.697 1252.32 374.838C1252.32 370.924 1250.87 367.678 1247.88 365.196C1245.09 362.714 1241.42 361.377 1236.99 361.377C1230.72 361.377 1225.8 363.573 1222.14 367.964C1221.08 369.301 1220.21 370.924 1219.25 372.547L1241.04 375.22L1241.04 375.315Z" fill="#356549"/>
<path d="M995.278 337.988C995.278 333.597 994.024 330.16 991.421 327.773C989.011 325.387 985.636 324.146 981.298 324.146C976.959 324.146 973.488 325.387 970.981 327.773C968.571 330.16 967.318 333.597 967.318 337.988L967.318 341.902L995.181 345.339L995.181 338.084L995.278 337.988Z" fill="#356549"/>
<path d="M1209.89 364.814C1207.57 362.523 1204.59 361.377 1200.92 361.377C1197.26 361.377 1194.17 362.523 1191.76 364.814C1190.61 365.96 1189.74 367.296 1189.16 368.919L1213.07 371.879C1212.68 369.11 1211.72 366.628 1209.89 364.91L1209.89 364.814Z" fill="#356549"/>
<path d="M802.734 327.582C799.938 330.351 798.492 333.788 798.492 337.797C798.492 341.807 799.938 345.244 802.734 348.012C803.891 349.158 805.337 350.017 806.687 350.685L812.857 323.382C808.808 323.382 805.433 324.814 802.734 327.487L802.734 327.582Z" fill="#356549"/>
<path d="M1188.29 451.401C1188.29 455.602 1189.35 458.943 1191.38 461.425C1193.5 463.907 1197.16 465.244 1202.27 465.244C1207.38 465.244 1210.95 464.003 1212.98 461.425C1215.1 458.943 1216.25 455.602 1216.25 451.401L1216.25 419.23C1216.25 408.156 1217.6 400.232 1220.5 395.65C1223.39 390.972 1227.82 388.681 1233.7 388.681L1238.62 388.681C1242.57 388.681 1245.85 387.631 1248.36 385.435C1250.58 383.621 1251.64 380.662 1252.02 377.129C1248.46 376.27 1244.89 375.602 1241.13 375.315L1219.34 372.642C1217.22 376.27 1215.29 380.184 1214.04 384.957L1213.65 384.957L1213.65 374.361C1213.65 373.406 1213.36 372.738 1213.26 371.879L1189.35 368.919C1188.78 370.447 1188.49 372.261 1188.49 374.265L1188.49 451.401L1188.29 451.401Z" fill="#6FE593"/>
<path d="M1155.42 375.411C1151.08 371.019 1145.78 367.583 1139.41 365.196C1133.15 362.714 1126.2 361.377 1118.39 361.377C1102.1 361.377 1089.28 366.246 1079.83 376.079C1070.38 385.817 1065.66 398.8 1065.66 415.029C1065.66 421.33 1066.72 427.439 1068.74 433.358C1070.77 439.277 1073.95 444.623 1078.29 449.396C1082.63 454.17 1088.22 457.988 1095.06 460.948C1101.91 463.716 1110.01 465.148 1119.26 465.148C1123.7 465.148 1128.42 464.671 1133.44 463.621C1138.55 462.571 1143.27 461.139 1147.7 459.038C1152.33 456.938 1156 454.361 1158.79 451.306C1161.59 448.155 1163.03 444.623 1163.03 440.709C1163.03 438.036 1161.88 435.649 1159.56 433.358C1157.44 431.067 1154.74 429.922 1151.56 429.922C1149.44 429.922 1147.51 430.399 1146.07 431.258C1144.52 432.117 1142.79 433.454 1140.96 435.268C1137.87 437.941 1134.88 439.945 1131.8 441.473C1128.9 442.905 1124.76 443.573 1119.36 443.573C1111.36 443.573 1105.09 441.282 1100.46 436.604C1095.83 431.926 1093.62 425.912 1093.62 418.466L1156.57 418.466C1161.3 418.466 1164.48 417.606 1166.12 415.984C1167.86 414.361 1168.82 411.21 1168.82 406.533C1168.82 400.709 1167.66 395.172 1165.35 389.922C1163.23 384.48 1159.85 379.611 1155.42 375.411ZM1093.62 402.618C1095.16 395.649 1098.05 390.303 1102.39 386.58C1106.73 382.666 1112.22 380.757 1118.97 380.757C1125.05 380.757 1130.25 382.857 1134.59 386.962C1139.03 390.972 1141.63 396.222 1142.4 402.618L1093.52 402.618L1093.62 402.618Z" fill="#6FE593"/>
<path d="M1056.11 446.628C1055.63 445.1 1054.96 443.859 1054.19 442.809L1025.17 404.241L1045.8 382.857C1045.8 382.857 1046.09 382.571 1046.18 382.475C1047.63 380.948 1048.5 379.707 1049.08 378.657C1049.75 377.511 1050.04 375.888 1050.04 373.788C1050.04 370.351 1048.59 367.487 1045.8 365.1C1043.1 362.618 1040.11 361.282 1036.83 361.282C1032.98 361.282 1029.41 363 1026.13 366.532L995.181 400.518L995.181 345.244L967.318 341.807L967.318 418.084L995.663 429.826L1004.92 421.807L1016.97 438.704L1056.4 455.029C1056.69 453.883 1057.08 452.833 1057.08 451.592C1057.08 449.587 1056.79 447.869 1056.11 446.532L1056.11 446.628Z" fill="#6FE593"/>
<path d="M942.142 380.661C940.214 375.888 937.514 372.07 934.14 369.301C930.862 366.437 927.102 364.432 922.86 363.287C918.81 362.046 914.568 361.377 910.037 361.377C902.613 361.377 896.249 362.905 890.754 365.96C885.451 369.015 880.534 373.311 876.292 378.848L875.906 378.848L875.906 375.22C875.906 370.924 874.846 367.583 872.628 365.196C870.603 362.714 867.518 361.377 863.276 361.377C859.034 361.377 855.852 362.618 853.731 365.196C852.67 366.533 851.899 368.155 851.417 369.969L890.754 386.294C893.646 384.862 896.635 384.098 899.817 384.098C905.698 384.098 910.037 385.817 913.025 389.349C914.857 391.449 916.014 394.027 916.689 397.081L945.324 408.919L945.324 397.654C945.324 390.972 944.263 385.339 942.239 380.661L942.142 380.661Z" fill="#6FE593"/>
<path d="M823.368 348.012C826.164 345.244 827.611 341.807 827.611 337.797C827.611 333.788 826.164 330.351 823.368 327.582C820.572 324.814 817.102 323.382 813.052 323.382C813.052 323.382 813.052 323.382 812.956 323.382L806.785 350.59C808.714 351.544 810.738 352.117 813.149 352.117C817.198 352.117 820.669 350.685 823.465 347.917L823.368 348.012Z" fill="#356549"/>
<path d="M812.955 352.785C821.246 352.785 827.995 346.103 827.995 337.893C827.995 329.683 821.246 323 812.955 323C804.663 323 797.914 329.683 797.914 337.893C797.914 346.103 804.663 352.785 812.955 352.785Z" fill="white"/>
</g>
<defs>
<filter id="filter0_d_97_255" x="-16" y="181" width="429.816" height="501.551" filterUnits="userSpaceOnUse" color-interpolation-filters="sRGB">
<feFlood flood-opacity="0" result="BackgroundImageFix"/>
<feColorMatrix in="SourceAlpha" type="matrix" values="0 0 0 0 0 0 0 0 0 0 0 0 0 0 0 0 0 0 127 0" result="hardAlpha"/>
<feOffset dx="4" dy="8"/>
<feGaussianBlur stdDeviation="10"/>
<feComposite in2="hardAlpha" operator="out"/>
<feColorMatrix type="matrix" values="0 0 0 0 0.054902 0 0 0 0 0.435294 0 0 0 0 0.227451 0 0 0 0.1 0"/>
<feBlend mode="normal" in2="BackgroundImageFix" result="effect1_dropShadow_97_255"/>
<feBlend mode="normal" in="SourceGraphic" in2="effect1_dropShadow_97_255" result="shape"/>
</filter>
<clipPath id="clip0_97_255">
<rect width="1920" height="1080" fill="white"/>
</clipPath>
<clipPath id="clip1_97_255">
<rect y="296.513" width="248" height="394" rx="13" transform="rotate(-24.6699 0 296.513)" fill="white"/>
</clipPath>
<clipPath id="clip2_97_255">
<rect x="1797.13" y="679" width="254" height="280" rx="10" transform="rotate(12.61 1797.13 679)" fill="white"/>
</clipPath>
<clipPath id="clip3_97_255">
<rect x="592.662" y="35.3756" width="253.483" height="159.536" rx="10" transform="rotate(114.981 592.662 35.3756)" fill="white"/>
</clipPath>
<clipPath id="clip4_97_255">
<rect x="1979.18" y="341.965" width="265" height="385" rx="132.5" transform="rotate(-171.244 1979.18 341.965)" fill="white"/>
</clipPath>
<clipPath id="clip5_97_255">
<rect width="472.782" height="518.42" fill="white" transform="translate(2081.43 343.284) rotate(-171.244)"/>
</clipPath>
<clipPath id="clip6_97_255">
<rect x="37.1875" y="741" width="334" height="354" rx="13.2336" transform="rotate(14.7601 37.1875 741)" fill="white"/>
</clipPath>
</defs>
</svg>
