<svg width="1920" height="1080" viewBox="0 0 1920 1080" fill="none" xmlns="http://www.w3.org/2000/svg">
<g clip-path="url(#clip0_743_18560)">
<path d="M506.255 740.729C504.393 736.185 509.322 731.849 513.591 734.276L608.907 788.453C611.994 790.207 612.433 794.481 609.767 796.826L556.029 844.097C553.363 846.442 549.18 845.462 547.833 842.176L506.255 740.729Z" fill="#0485A2"/>
<path fill-rule="evenodd" clip-rule="evenodd" d="M554.925 794.082C530.895 815.22 490.446 869.759 540.583 977.618C580.208 1062.86 641.711 1138.24 683.339 1189.26C694.728 1203.22 704.629 1215.35 712.188 1225.37L872.559 1410.99C891.87 1432.75 936.315 1471.13 959.598 1450.65C963.411 1447.56 971.298 1441.26 972.344 1440.76C973.123 1440.39 973.281 1440.69 973.474 1441.04C973.54 1441.17 973.61 1441.3 973.711 1441.41L975.662 1443.93C976.126 1444.46 976.601 1445.02 977.13 1445.66C978.396 1447.16 979.976 1449.05 982.489 1451.69C986.754 1456.18 989.485 1459.04 1000.23 1449.59L1064.71 1392.87C1068.83 1389.33 1069.6 1380.36 1066.19 1376.48C1064.35 1374.39 1062.69 1372.59 1061.16 1370.94C1059.86 1369.53 1058.65 1368.22 1057.5 1366.92C1057.43 1366.84 1057.36 1366.77 1057.29 1366.7C1056.8 1366.19 1056.33 1365.71 1057.77 1364.82C1059.41 1363.8 1067.11 1356.78 1070.76 1353.4L1092.99 1333.84C1093.75 1333.09 1095.48 1332.03 1096.38 1333.77L1104.39 1342.88C1106.93 1345.76 1113.89 1349.82 1121.42 1342.98C1128.96 1336.14 1157.1 1311.51 1170.23 1300.05C1173.43 1297.06 1177.91 1288.85 1170.25 1279.91L1163.16 1271.85C1163.04 1271.61 1162.91 1271.02 1163.38 1270.6C1163.86 1270.18 1172.28 1257.83 1176.42 1251.71C1177.84 1249.41 1181.72 1241.97 1180.81 1240.44C1175.94 1232.35 1127.38 1174.98 1067.63 1111.79C1008.53 1049.28 979.202 1019.08 940.613 979.428C938.637 977.181 905.385 942.409 903.278 939.995L883.441 919.851L867.543 904.185C844.518 881.02 792.819 826.16 742.56 792.801C647.472 723.688 585.709 765.575 554.925 794.082Z" fill="#0E6F3A"/>
<path d="M561.638 933.418C554.768 906.228 565.714 889.223 571.74 884.012C576.084 880.808 587.694 875.009 599.382 877.441C613.992 880.48 629.777 892.691 644.652 905.686C658.398 917.695 675.771 939.493 687.274 959.566C687.274 959.566 699.496 977.683 704.2 1009.57C710.079 1049.42 667.37 1049.11 658.867 1047.59C650.364 1046.06 629.187 1035.56 615.907 1022.87C605.283 1012.73 592.612 995.691 584.19 983.501C572.467 966.533 566.128 951.187 561.638 933.418Z" fill="#FEE6CA"/>
<path d="M649.542 888.588C626.502 855.904 633.762 830.279 640.272 821.551C642.593 818.662 646.406 815.802 648.022 814.734C660.623 805.979 675.855 807.107 681.896 808.765C691.339 810.784 715.561 819.448 736.91 837.947C758.258 856.446 776.224 882.44 782.538 893.124C791.578 910.413 803.923 948.869 780.986 964.386C758.049 979.903 726.53 966.9 717.494 959.934C701.873 948.787 672.583 921.273 649.542 888.588Z" fill="#FEE6CA"/>
<path d="M1343.37 1123.39C1324.2 1135.79 1209.45 1231.38 1154.47 1277.62L1145.76 1274.94L1077.47 1158.19L1110.08 1144.09L1230.52 1138.35L1320.4 1125.56L1337.48 1118.49L1343.37 1123.39Z" fill="#0E6F3A"/>
<path d="M1093.54 1145.02C1092.08 1143.12 1091.82 1141.67 1092.23 1141.13C1092.23 1141.13 1093.59 1137.56 1095.96 1133.62C1098.75 1128.97 1102.59 1124.6 1102.59 1124.6C1113.26 1112.04 1137 1135.41 1139.17 1136.68C1140.91 1137.69 1142.41 1135.95 1142.95 1134.95C1154.91 1110.91 1178.39 1129.47 1182.12 1132.81C1185.11 1135.49 1187.78 1132.52 1188.74 1130.7C1204.59 1105.37 1233.38 1126.95 1238.51 1128.26C1242.61 1129.32 1243.7 1128.64 1243.73 1128.18C1253.91 1110.25 1274.64 1122.97 1279.08 1124.11C1282.63 1125.01 1283.87 1122.63 1284.05 1121.32C1290.77 1102.16 1311.25 1119.13 1313.35 1121.52C1315.03 1123.43 1316.59 1123.79 1317.16 1123.73C1322.68 1123.38 1336.99 1115.56 1337.7 1115.47C1338.41 1115.37 1342.03 1113.77 1344.68 1116.48C1346.8 1118.65 1347.65 1120.59 1342.36 1123.92L1339.72 1121.21C1337.84 1118.84 1335.88 1119.46 1335.15 1119.93C1280.86 1157.88 1100.25 1150.25 1099.26 1150.32C1098.47 1150.38 1097.57 1149.6 1097.22 1149.21C1096.6 1148.6 1095 1146.92 1093.54 1145.02Z" fill="#0485A2"/>
<path d="M924.666 984.47C922.486 983.664 920.082 984.892 919.458 987.131L906.628 1033.14C906.038 1035.25 907.275 1037.45 909.39 1038.04L1071.71 1083.3C1075.12 1084.25 1077.98 1080.6 1076.24 1077.52L1050.6 1032.05C1050.14 1031.23 1049.4 1030.6 1048.52 1030.28L924.666 984.47Z" fill="#0E6F3A"/>
<path d="M911.457 1030.88C909.404 1030.25 908.221 1028.1 908.785 1026.03L923.606 971.595C924.255 969.212 926.897 967.991 929.133 969.041L1086.52 1042.98C1089.72 1044.48 1089.52 1049.08 1086.21 1050.3L1037.04 1068.47C1036.23 1068.77 1035.34 1068.8 1034.5 1068.54L911.457 1030.88Z" fill="#0E6F3A"/>
<path d="M1067.19 1018.05C1068.44 1016.62 1067.17 1014.41 1065.3 1014.78L1033.34 1021.19C1032 1021.46 1031.32 1022.95 1032 1024.13L1042.43 1042.2C1043.11 1043.38 1044.75 1043.54 1045.65 1042.52L1067.19 1018.05Z" fill="#0E6F3A"/>
<path d="M724 1040.46C726.928 1042.38 732.896 1042.75 733.338 1028.8C733.89 1011.37 749.85 1021.69 753.849 1020.82C757.849 1019.95 758.639 1007.6 758.288 1002.09C758.007 997.677 763.635 997.033 766.484 997.262" stroke="#090909" stroke-width="6.34827" stroke-linecap="round"/>
<path d="M1009.57 1157.44C1075.24 1232.09 1062.46 1290 1017.79 1329.3C973.109 1368.6 913.447 1374.41 847.784 1299.76C782.121 1225.11 765.109 1132.74 809.786 1093.44C854.463 1054.14 943.911 1082.8 1009.57 1157.44Z" fill="#559472"/>
<g filter="url(#filter0_d_743_18560)">
<g clip-path="url(#clip1_743_18560)">
<path d="M113.231 249.38C112.871 245.728 117.33 243.68 119.867 246.332L176.502 305.556C178.336 307.474 177.734 310.628 175.322 311.736L126.712 334.063C124.3 335.171 121.515 333.573 121.255 330.931L113.231 249.38Z" fill="#0485A2"/>
<path fill-rule="evenodd" clip-rule="evenodd" d="M136.642 298.012C114.905 307.996 74.252 338.376 87.0303 426.353C97.1292 495.883 125.008 563.04 143.878 608.494C149.041 620.931 153.529 631.742 156.794 640.534L231.833 807.821C240.997 827.536 264.592 864.549 285.654 854.875C289.046 853.48 296.044 850.658 296.9 850.527C297.537 850.429 297.587 850.673 297.648 850.972C297.669 851.074 297.691 851.182 297.739 851.285L298.596 853.508C298.815 853.985 299.034 854.491 299.277 855.056C299.86 856.408 300.588 858.096 301.821 860.528C303.912 864.656 305.254 867.291 314.975 862.826L373.3 836.037C377.011 834.387 379.488 828.127 377.875 824.616C377.006 822.723 376.202 821.084 375.462 819.574C374.829 818.285 374.243 817.088 373.7 815.907C373.669 815.839 373.634 815.771 373.598 815.703C373.355 815.236 373.126 814.796 374.346 814.464C375.741 814.085 382.758 810.71 386.092 809.069L406.209 799.829C406.908 799.454 408.375 799.065 408.646 800.51L412.429 808.745C413.628 811.356 417.742 815.755 424.605 812.472C431.468 809.189 456.897 797.585 468.754 792.194C471.683 790.74 476.65 785.821 473.086 777.778L469.738 770.488C469.7 770.287 469.733 769.836 470.165 769.638C470.597 769.439 479.268 762.404 483.55 758.912C485.057 757.566 489.433 753.069 489.103 751.781C487.352 744.942 464.884 693.455 435.648 635.401C406.729 577.974 392.202 550.065 373.072 513.4C372.139 511.367 355.784 479.342 354.793 477.162L344.907 458.486L336.881 443.861C325.361 422.339 300.103 371.976 271.268 337.316C217.998 267.447 164.796 284.199 136.642 298.012Z" fill="#0E6F3A"/>
<path d="M111.592 399.224C112.501 378.282 123.984 368.453 129.416 366.013C133.213 364.65 142.769 362.987 150.617 367.234C160.426 372.542 169.111 384.668 176.976 397.161C184.245 408.707 192.011 428.039 195.944 444.878C195.944 444.878 200.812 460.47 197.346 484.306C193.012 514.102 162.498 504.729 156.736 501.814C150.975 498.899 138.063 486.838 131.273 474.909C125.842 465.366 120.421 450.452 117.004 439.919C112.247 425.256 110.998 412.909 111.592 399.224Z" fill="#FEE6CA"/>
<path d="M184.141 385.962C174.655 357.621 185.369 340.819 191.912 335.961C194.197 334.388 197.545 333.155 198.933 332.736C209.848 329.161 220.523 333.229 224.496 335.709C230.83 339.176 246.328 350.565 257.652 368.384C268.976 386.203 276.263 408.666 278.491 417.671C281.253 431.989 281.832 462.177 262.055 468.383C242.278 474.589 222.483 458.53 217.504 451.607C208.704 440.28 193.628 414.304 184.141 385.962Z" fill="#FEE6CA"/>
<path d="M156.462 607.209C156.574 605.475 158.143 604.207 159.862 604.461L195.177 609.684C196.8 609.924 197.922 611.434 197.682 613.058L179.256 737.65C178.869 740.269 175.509 741.112 173.931 738.986L150.678 707.662C150.258 707.097 150.053 706.401 150.098 705.699L156.462 607.209Z" fill="#0E6F3A"/>
<path d="M192.154 612.299C192.349 610.706 191.244 609.246 189.658 609.001L147.983 602.577C146.158 602.296 144.522 603.729 144.559 605.575L147.21 735.518C147.264 738.153 150.468 739.419 152.308 737.532L179.657 709.481C180.111 709.015 180.4 708.413 180.479 707.767L192.154 612.299Z" fill="#0E6F3A"/>
<path d="M360.589 513.589C359.201 512.544 357.216 512.908 356.289 514.377L337.241 544.57C336.365 545.958 336.78 547.793 338.168 548.669L444.688 615.872C446.927 617.285 449.756 615.285 449.172 612.703L440.56 574.653C440.405 573.967 440.011 573.358 439.449 572.935L360.589 513.589Z" fill="#0E6F3A"/>
<path d="M341.196 543.984C339.86 543.094 339.473 541.304 340.321 539.942L362.602 504.142C363.577 502.575 365.731 502.267 367.106 503.498L463.953 590.176C465.917 591.934 464.789 595.19 462.158 595.356L423.06 597.825C422.41 597.866 421.765 597.693 421.224 597.332L341.196 543.984Z" fill="#0E6F3A"/>
<path d="M213.402 498.201C213.932 497.091 215.262 496.62 216.373 497.15C217.484 497.681 217.953 499.011 217.423 500.122C216.332 502.406 214.597 505.951 212.927 509.173C212.862 509.3 212.795 509.425 212.729 509.551C213.012 509.379 213.299 509.205 213.589 509.028C215.973 507.576 218.569 506.005 220.801 504.754C221.916 504.129 222.967 503.568 223.872 503.136C224.716 502.733 225.63 502.345 226.396 502.201C227.605 501.974 228.77 502.771 228.997 503.98C229.224 505.19 228.428 506.355 227.219 506.582C227.081 506.608 226.632 506.758 225.792 507.159C225.013 507.53 224.058 508.038 222.981 508.642C220.829 509.849 218.299 511.378 215.908 512.834C213.543 514.275 211.288 515.66 209.76 516.528C209.047 516.932 208.317 517.327 207.793 517.516C207.663 517.563 207.401 517.651 207.089 517.686C206.936 517.702 206.63 517.723 206.265 517.634C205.873 517.539 205.269 517.276 204.863 516.621C204.473 515.99 204.5 515.368 204.557 515.034C204.613 514.702 204.73 514.452 204.797 514.323C204.933 514.059 205.1 513.852 205.198 513.736L205.304 513.6C205.58 513.231 206.044 512.494 206.67 511.395C207.353 510.195 208.148 508.708 208.969 507.123C210.611 503.955 212.326 500.455 213.402 498.201Z" fill="#090909"/>
<path d="M388.061 650.322C419.075 717.846 397.516 756.572 357.101 775.135C316.687 793.698 272.722 785.068 241.708 717.544C210.693 650.02 218.313 580.233 258.727 561.67C299.142 543.107 357.046 582.798 388.061 650.322Z" fill="#559472"/>
</g>
</g>
<path d="M1569.99 433.593C1571.52 431.1 1575.33 431.934 1575.67 434.834L1583.29 499.582C1583.54 501.679 1581.65 503.394 1579.58 502.943L1538.01 493.851C1535.94 493.399 1534.94 491.05 1536.04 489.248L1569.99 433.593Z" fill="#0485A2"/>
<path fill-rule="evenodd" clip-rule="evenodd" d="M1561.59 475.7C1543 471.634 1502.62 471.468 1468.61 533.482C1441.73 582.493 1427.28 638.511 1417.5 676.426C1414.83 686.799 1412.5 695.817 1410.37 702.966L1377.93 845.183C1374.32 862.098 1371.58 896.912 1389.6 900.852C1392.42 901.59 1398.22 903.148 1398.82 903.475C1399.27 903.718 1399.19 903.897 1399.09 904.116C1399.05 904.191 1399.01 904.27 1398.99 904.358L1398.47 906.181C1398.38 906.589 1398.28 907.015 1398.16 907.491C1397.89 908.629 1397.54 910.05 1397.16 912.185C1396.51 915.809 1396.1 918.126 1404.42 919.945L1454.3 930.855C1457.45 931.583 1462.02 928.792 1462.68 925.79C1463.03 924.17 1463.31 922.745 1463.56 921.43C1463.77 920.308 1463.97 919.267 1464.2 918.257C1464.21 918.198 1464.22 918.138 1464.23 918.079C1464.3 917.666 1464.36 917.276 1465.3 917.649C1466.36 918.077 1472.44 919.292 1475.34 919.847L1492.55 923.61C1493.17 923.706 1494.29 924.161 1493.77 925.209L1492.23 932.253C1491.74 934.485 1492.25 939.251 1498.18 940.451C1504.11 941.652 1525.83 946.457 1535.94 948.71C1538.5 949.188 1544.01 948.441 1545.6 941.626L1546.96 935.39C1547.03 935.244 1547.27 934.974 1547.64 935.054C1548.01 935.135 1556.89 934.818 1561.28 934.65C1562.88 934.516 1567.82 933.755 1568.22 932.779C1570.39 927.595 1580.77 884.124 1589.99 833.24C1599.12 782.907 1603.25 758.218 1608.66 725.763C1609.04 724.025 1613.98 695.846 1614.4 693.986L1617.06 677.387L1618.96 664.252C1621.95 645.061 1630.02 600.968 1628.3 565.14C1627.91 495.24 1586.09 480.406 1561.59 475.7Z" fill="#0E6F3A"/>
<path d="M1497.21 528.007C1507.82 515.138 1519.82 514.392 1524.44 515.442C1527.5 516.395 1534.37 519.915 1537.32 526.37C1541.01 534.44 1540.72 546.304 1539.74 558.007C1538.83 568.823 1534.5 584.825 1528.94 597.407C1528.94 597.407 1524.57 609.644 1510.95 623.128C1493.93 639.983 1479.03 619.415 1476.76 614.805C1474.5 610.194 1472.07 596.348 1473.47 585.517C1474.59 576.853 1478.29 564.782 1481.16 556.454C1485.16 544.86 1490.28 536.417 1497.21 528.007Z" fill="#FEE6CA"/>
<path d="M1549.65 554.326C1557.19 531.775 1572.03 526.226 1578.5 526.27C1580.7 526.365 1583.41 527.184 1584.5 527.582C1593.13 530.535 1597.95 538.229 1599.29 541.707C1601.65 546.942 1606.03 561.599 1604.69 578.343C1603.34 595.087 1597.22 612.85 1594.33 619.639C1589.23 630.059 1575.15 649.52 1559.64 643.998C1544.13 638.475 1539.25 618.795 1539.41 612.012C1539.24 600.602 1542.11 576.878 1549.65 554.326Z" fill="#FEE6CA"/>
<path d="M1681.57 969.425C1668.88 964.614 1582.66 943.31 1541.14 933.26L1539.35 928.144L1571.23 854.304L1589.47 864.957L1634.65 920.634L1672.43 959.189L1681.84 964.88L1681.57 969.425Z" fill="#0E6F3A"/>
<path d="M1583.2 857.364C1583.59 855.997 1584.2 855.363 1584.6 855.37C1584.6 855.37 1586.79 854.759 1589.51 854.506C1592.73 854.207 1596.17 854.509 1596.17 854.509C1605.95 855.194 1603.11 874.799 1603.27 876.287C1603.4 877.477 1604.76 877.582 1605.43 877.485C1621.16 874.749 1620.54 892.537 1620.25 895.502C1620.02 897.874 1622.39 898.108 1623.59 897.929C1641.32 896.597 1641.12 917.989 1642.29 920.911C1643.24 923.248 1643.94 923.531 1644.18 923.381C1656.35 921.943 1657.56 936.359 1658.58 938.884C1659.4 940.903 1660.97 940.659 1661.66 940.285C1673.21 936.755 1672.3 952.541 1671.89 954.391C1671.57 955.87 1671.94 956.743 1672.17 956.995C1674.28 959.515 1683.07 963.617 1683.37 963.924C1683.66 964.231 1685.7 965.404 1685.34 967.626C1685.05 969.403 1684.42 970.498 1680.96 969.136L1681.33 966.915C1681.8 965.179 1680.81 964.462 1680.33 964.275C1643.03 951.636 1583.06 862.421 1582.68 861.973C1582.37 861.615 1582.42 860.909 1582.49 860.6C1582.56 860.091 1582.8 858.731 1583.2 857.364Z" fill="#0485A2"/>
<path d="M1426.12 681.634C1427.02 680.586 1428.62 680.532 1429.59 681.516L1449.53 701.746C1450.45 702.676 1450.44 704.173 1449.51 705.089L1378.14 775.424C1376.64 776.902 1374.1 775.829 1374.11 773.722L1374.34 742.686C1374.34 742.126 1374.55 741.586 1374.91 741.161L1426.12 681.634Z" fill="#0E6F3A"/>
<path d="M1362.89 740.45C1361.82 740.07 1361.85 738.554 1362.93 738.211L1381.4 732.326C1382.17 732.08 1382.96 732.664 1382.94 733.472L1382.73 745.878C1382.71 746.686 1381.91 747.243 1381.15 746.971L1362.89 740.45Z" fill="#0E6F3A"/>
<path d="M1446.36 701.962C1447.24 701.043 1447.24 699.587 1446.35 698.672L1422.95 674.634C1421.92 673.581 1420.2 673.708 1419.34 674.899L1358.8 758.725C1357.57 760.425 1359 762.764 1361.07 762.446L1391.88 757.721C1392.39 757.642 1392.86 757.398 1393.22 757.026L1446.36 701.962Z" fill="#0E6F3A"/>
<path d="M1600.63 719.901C1600.25 718.572 1598.81 717.853 1597.52 718.343L1570.96 728.404C1569.74 728.866 1569.12 730.231 1569.59 731.452L1605.08 825.157C1605.83 827.127 1608.58 827.211 1609.45 825.291L1622.2 796.993C1622.43 796.483 1622.47 795.907 1622.31 795.369L1600.63 719.901Z" fill="#0E6F3A"/>
<path d="M1573.75 729.923C1573.32 728.718 1573.94 727.395 1575.13 726.936L1606.43 714.861C1607.8 714.332 1609.31 715.168 1609.6 716.609L1629.62 818.055C1630.02 820.113 1627.75 821.641 1626 820.487L1599.97 803.332C1599.54 803.047 1599.22 802.629 1599.04 802.14L1573.75 729.923Z" fill="#0E6F3A"/>
<path d="M1634.74 800.006C1635.87 800.105 1636.48 798.717 1635.64 797.955L1621.31 784.896C1620.72 784.351 1619.76 784.554 1619.44 785.295L1614.45 796.657C1614.13 797.398 1614.63 798.239 1615.43 798.309L1634.74 800.006Z" fill="#0E6F3A"/>
<path d="M1548.13 821.613C1535.5 879.365 1503.26 893.645 1468.69 886.085C1434.12 878.526 1410.32 851.99 1422.95 794.237C1435.59 736.485 1473.85 695.796 1508.41 703.355C1542.98 710.915 1560.76 763.861 1548.13 821.613Z" fill="#559472"/>
<path d="M1524.13 644.335L1513.96 642.898" stroke="#090909" stroke-width="3.91405" stroke-linecap="round"/>
<g clip-path="url(#clip2_743_18560)">
<path d="M1865.98 807.133C1865.59 805.135 1867.95 803.773 1869.48 805.107L1903.82 834.879C1904.93 835.843 1904.76 837.616 1903.49 838.352L1877.8 853.195C1876.53 853.931 1874.91 853.192 1874.63 851.747L1865.98 807.133Z" fill="#0485A2"/>
<path fill-rule="evenodd" clip-rule="evenodd" d="M1881.42 832.771C1869.94 839.408 1849.06 858.285 1860.66 906.202C1869.84 944.071 1888.7 979.711 1901.47 1003.83C1904.97 1010.43 1908 1016.17 1910.26 1020.86L1960.35 1109.35C1966.43 1119.76 1981.37 1138.97 1992.5 1132.54C1994.3 1131.6 1998.02 1129.68 1998.48 1129.56C1998.83 1129.47 1998.87 1129.61 1998.92 1129.77C1998.93 1129.82 1998.95 1129.88 1998.98 1129.94L1999.57 1131.12C1999.72 1131.37 1999.87 1131.64 2000.03 1131.94C2000.42 1132.66 2000.91 1133.55 2001.72 1134.83C2003.08 1137 2003.96 1138.39 2009.1 1135.42L2039.92 1117.61C2041.88 1116.51 2042.93 1112.92 2041.85 1111.07C2041.28 1110.07 2040.75 1109.2 2040.26 1108.41C2039.84 1107.73 2039.46 1107.1 2039.1 1106.47C2039.08 1106.44 2039.05 1106.4 2039.03 1106.37C2038.87 1106.12 2038.72 1105.89 2039.38 1105.64C2040.13 1105.36 2043.83 1103.14 2045.59 1102.06L2056.22 1095.92C2056.58 1095.67 2057.37 1095.38 2057.6 1096.16L2060.11 1100.52C2060.91 1101.9 2063.41 1104.11 2067.03 1101.94C2070.65 1099.78 2084.09 1092.05 2090.36 1088.46C2091.9 1087.51 2094.39 1084.54 2092 1080.28L2089.78 1076.43C2089.75 1076.32 2089.74 1076.07 2089.97 1075.94C2090.2 1075.8 2094.62 1071.47 2096.8 1069.32C2097.57 1068.5 2099.75 1065.79 2099.5 1065.1C2098.18 1061.41 2083.11 1034.14 2063.97 1003.6C2045.03 973.388 2035.57 958.729 2023.11 939.473C2022.49 938.399 2011.8 921.562 2011.14 920.409L2004.72 910.609L1999.53 902.948C1992.05 891.66 1975.5 865.158 1957.79 847.511C1924.76 811.687 1896.25 823.688 1881.42 832.771Z" fill="#0E6F3A"/>
<path d="M1872.83 889.952C1872.24 878.342 1878.08 872.321 1880.95 870.693C1882.98 869.744 1888.17 868.331 1892.72 870.27C1898.41 872.694 1903.83 878.941 1908.82 885.432C1913.43 891.431 1918.72 901.704 1921.76 910.798C1921.76 910.798 1925.26 919.156 1924.58 932.497C1923.72 949.173 1906.39 945.575 1903.06 944.264C1899.73 942.953 1891.97 936.96 1887.61 930.725C1884.11 925.736 1880.35 917.782 1877.92 912.142C1874.53 904.292 1873.21 897.539 1872.83 889.952Z" fill="#FEE6CA"/>
<path d="M1912.2 878.882C1905.49 863.723 1910.52 853.899 1913.88 850.881C1915.06 849.895 1916.84 849.043 1917.59 848.74C1923.42 846.207 1929.52 847.904 1931.84 849.069C1935.51 850.658 1944.65 856.15 1951.83 865.405C1959 874.66 1964.19 886.686 1965.88 891.542C1968.15 899.305 1970.04 915.939 1959.46 920.38C1948.87 924.822 1937.12 916.973 1934.01 913.406C1928.57 907.605 1918.9 894.04 1912.2 878.882Z" fill="#FEE6CA"/>
<path d="M1908.35 1002.47C1908.32 1001.51 1909.12 1000.73 1910.08 1000.78L1929.85 1001.84C1930.76 1001.89 1931.46 1002.66 1931.41 1003.57L1927.68 1073.32C1927.6 1074.79 1925.79 1075.42 1924.81 1074.33L1910.35 1058.24C1910.09 1057.95 1909.94 1057.58 1909.93 1057.18L1908.35 1002.47Z" fill="#0E6F3A"/>
<path d="M1928.32 1003.44C1928.35 1002.55 1927.66 1001.8 1926.77 1001.75L1903.43 1000.35C1902.41 1000.29 1901.58 1001.17 1901.7 1002.19L1909.88 1073.8C1910.04 1075.25 1911.88 1075.78 1912.8 1074.65L1926.45 1057.74C1926.68 1057.46 1926.8 1057.12 1926.81 1056.75L1928.32 1003.44Z" fill="#0E6F3A"/>
</g>
<g clip-path="url(#clip3_743_18560)">
<path d="M504.156 51.7344C505.192 50.6827 506.973 51.5332 506.807 53.0001L503.09 85.7509C502.969 86.8117 501.84 87.4378 500.876 86.9778L481.46 77.7063C480.496 77.2463 480.273 75.9741 481.023 75.2136L504.156 51.7344Z" fill="#0485A2"/>
<path fill-rule="evenodd" clip-rule="evenodd" d="M495.154 71.4905C486.471 67.3446 466.615 62.6054 442.72 89.2082C423.836 110.233 410.263 136.141 401.076 153.676C398.562 158.474 396.377 162.645 394.502 165.918L362.131 232.182C358.399 240.091 353.038 256.912 361.45 260.929C362.755 261.618 365.429 263.054 365.69 263.285C365.884 263.457 365.822 263.535 365.745 263.631C365.719 263.663 365.691 263.698 365.672 263.739L365.206 264.577C365.114 264.767 365.014 264.965 364.902 265.186C364.635 265.714 364.301 266.374 363.867 267.381C363.13 269.09 362.661 270.183 366.544 272.037L389.841 283.162C391.306 283.884 393.878 283.037 394.548 281.635C394.909 280.879 395.208 280.208 395.484 279.591C395.72 279.063 395.939 278.574 396.164 278.102C396.177 278.075 396.189 278.046 396.201 278.018C396.282 277.823 396.359 277.638 396.776 277.93C397.252 278.263 400.102 279.562 401.468 280.17L409.503 284.007C409.799 284.127 410.297 284.48 409.92 284.936L408.35 288.225C407.852 289.268 407.552 291.672 410.333 292.947C413.115 294.223 423.249 299.092 427.968 301.368C429.171 301.898 431.97 302.167 433.538 298.995L434.929 296.082C434.981 296.019 435.129 295.913 435.301 295.996C435.474 296.078 439.88 296.946 442.062 297.37C442.866 297.489 445.383 297.683 445.696 297.25C447.358 294.947 457.482 274.746 467.893 250.763C478.192 227.04 483.075 215.364 489.479 200.012C489.866 199.2 495.551 185.899 495.969 185.032L499.195 177.168L501.647 170.922C505.331 161.82 514.39 141.047 517.675 123.211C525.548 88.7594 506.671 76.6332 495.154 71.4905Z" fill="#0E6F3A"/>
<path d="M457.43 89.8124C464.135 84.7008 470.129 85.7181 472.282 86.7681C473.68 87.5906 476.655 90.1152 477.364 93.6336C478.249 98.0316 476.739 103.838 474.903 109.485C473.207 114.704 469.234 122.082 465.043 127.634C465.043 127.634 461.479 133.153 453.22 138.22C442.897 144.553 437.936 132.71 437.353 130.179C436.77 127.648 437.173 120.553 439.11 115.383C440.661 111.247 443.873 105.732 446.248 101.964C449.554 96.7182 453.048 93.1527 457.43 89.8124Z" fill="#FEE6CA"/>
<path d="M480.208 108.817C486.522 98.5858 494.464 97.5655 497.645 98.3342C498.719 98.6347 499.959 99.3509 500.446 99.6714C504.355 102.121 505.842 106.465 506.098 108.331C506.655 111.18 507.121 118.9 504.529 126.987C501.937 135.074 496.874 143.112 494.666 146.12C490.954 150.661 481.781 158.617 474.782 154.109C467.782 149.601 467.654 139.352 468.512 136.031C469.748 130.395 473.894 119.048 480.208 108.817Z" fill="#FEE6CA"/>
<path d="M497.264 328.363C491.571 324.53 451.588 304.099 432.309 294.362L432.02 291.638L456.229 258.968L463.979 266.315L479.794 298.933L493.948 322.27L497.92 326.156L497.264 328.363Z" fill="#0E6F3A"/>
<path d="M461.765 261.855C462.118 261.227 462.489 260.985 462.686 261.035C462.686 261.035 463.835 260.987 465.203 261.176C466.819 261.399 468.479 261.945 468.479 261.945C473.213 263.41 469.556 272.733 469.463 273.484C469.388 274.085 470.048 274.294 470.387 274.323C478.446 274.791 476.088 283.475 475.605 284.902C475.219 286.043 476.355 286.431 476.971 286.482C485.848 287.87 483.282 298.378 483.525 299.951C483.718 301.211 484.033 301.431 484.165 301.384C490.325 302.081 489.256 309.317 489.467 310.677C489.637 311.765 490.442 311.827 490.823 311.722C496.914 311.316 494.645 318.982 494.232 319.846C493.902 320.537 493.986 321.01 494.069 321.16C494.817 322.644 498.669 325.677 498.78 325.862C498.89 326.047 499.761 326.86 499.325 327.912C498.976 328.753 498.539 329.219 496.995 328.15L497.431 327.099C497.866 326.299 497.462 325.832 497.245 325.685C480.341 315.16 461.114 264.328 460.976 264.063C460.865 263.851 460.975 263.51 461.044 263.366C461.137 263.123 461.413 262.482 461.765 261.855Z" fill="#0485A2"/>
<path d="M404.709 157.233C405.274 156.821 406.07 156.979 406.434 157.576L413.914 169.833C414.258 170.397 414.08 171.132 413.516 171.476L370.272 197.865C369.363 198.42 368.237 197.599 368.488 196.564L372.179 181.312C372.246 181.037 372.408 180.795 372.637 180.628L404.709 157.233Z" fill="#0E6F3A"/>
<path d="M366.809 178.892C366.328 178.581 366.516 177.838 367.086 177.794L376.858 177.028C377.266 176.996 377.584 177.373 377.484 177.77L375.947 183.851C375.847 184.248 375.388 184.429 375.044 184.207L366.809 178.892Z" fill="#0E6F3A"/>
<path d="M412.332 169.574C412.874 169.224 413.041 168.507 412.708 167.954L403.962 153.422C403.579 152.786 402.715 152.649 402.154 153.136L362.683 187.415C361.883 188.111 362.317 189.427 363.374 189.509L379.084 190.737C379.345 190.758 379.605 190.692 379.825 190.55L412.332 169.574Z" fill="#0E6F3A"/>
<path d="M486.205 196.199C486.17 195.501 485.547 194.982 484.854 195.074L470.619 196.962C469.965 197.049 469.505 197.65 469.592 198.304L476.254 248.525C476.394 249.58 477.741 249.94 478.388 249.094L487.928 236.635C488.1 236.411 488.187 236.132 488.173 235.849L486.205 196.199Z" fill="#0E6F3A"/>
<path d="M471.82 198.032C471.751 197.39 472.204 196.81 472.844 196.721L489.643 194.387C490.379 194.285 491.028 194.871 491.002 195.613L489.156 247.859C489.119 248.919 487.823 249.409 487.094 248.638L476.263 237.193C476.083 237.002 475.97 236.759 475.942 236.498L471.82 198.032Z" fill="#0E6F3A"/>
<path d="M493.76 239.567C494.304 239.746 494.764 239.133 494.44 238.661L488.893 230.58C488.661 230.243 488.167 230.232 487.922 230.56L484.158 235.578C483.913 235.905 484.061 236.376 484.449 236.504L493.76 239.567Z" fill="#0E6F3A"/>
<path d="M448.412 240.109C435.533 267.08 418.015 270.39 401.872 262.682C385.729 254.974 377.075 239.166 389.954 212.195C402.833 185.223 426.36 169.608 442.502 177.316C458.645 185.024 461.291 213.138 448.412 240.109Z" fill="#559472"/>
<path d="M450.818 149.365L452.275 151.584L459.665 150.808C460.174 150.389 460.783 149.355 459.143 148.572" stroke="#090909" stroke-width="2" stroke-linecap="round"/>
</g>
<g clip-path="url(#clip4_743_18560)">
<g clip-path="url(#clip5_743_18560)">
<path d="M1850.32 299.89C1848.96 302.474 1845.1 301.88 1844.58 299.006L1832.92 234.833C1832.54 232.755 1834.33 230.923 1836.41 231.245L1878.49 237.726C1880.58 238.048 1881.73 240.331 1880.75 242.199L1850.32 299.89Z" fill="#0485A2"/>
<path fill-rule="evenodd" clip-rule="evenodd" d="M1856.81 257.435C1875.63 260.332 1915.94 257.975 1946.03 193.93C1969.8 143.315 1980.72 86.4803 1988.12 48.0129C1990.14 37.4882 1991.9 28.3385 1993.59 21.0669L2017.08 -122.959C2019.64 -140.074 2020.2 -175.005 2001.97 -177.813C1999.1 -178.373 1993.22 -179.566 1992.59 -179.855C1992.13 -180.069 1992.2 -180.253 1992.29 -180.478C1992.32 -180.555 1992.35 -180.637 1992.37 -180.726L1992.77 -182.579C1992.84 -182.992 1992.91 -183.424 1993 -183.906C1993.2 -185.06 1993.46 -186.5 1993.71 -188.656C1994.13 -192.315 1994.39 -194.654 1985.98 -195.95L1935.5 -203.725C1932.31 -204.256 1927.92 -201.183 1927.45 -198.145C1927.2 -196.505 1927.01 -195.065 1926.84 -193.737C1926.7 -192.603 1926.56 -191.55 1926.41 -190.529C1926.4 -190.469 1926.39 -190.408 1926.38 -190.349C1926.34 -189.932 1926.3 -189.538 1925.34 -189.853C1924.25 -190.213 1918.11 -191.047 1915.18 -191.419L1897.77 -194.1C1897.14 -194.158 1895.99 -194.543 1896.45 -195.621L1897.54 -202.751C1897.89 -205.011 1897.09 -209.737 1891.09 -210.564C1885.09 -211.392 1863.12 -214.833 1852.88 -216.45C1850.3 -216.768 1844.84 -215.678 1843.68 -208.773L1842.71 -202.462C1842.65 -202.312 1842.43 -202.027 1842.05 -202.085C1841.68 -202.142 1832.84 -201.271 1828.46 -200.828C1826.87 -200.594 1821.99 -199.526 1821.65 -198.526C1819.81 -193.215 1812.16 -149.162 1806.13 -97.7797C1800.16 -46.9534 1797.58 -22.0451 1794.21 10.6982C1793.94 12.4581 1790.76 40.9024 1790.46 42.7852L1788.84 59.5254L1787.76 72.7594C1785.98 92.1067 1780.67 136.636 1784.63 172.302C1789.38 242.07 1832.06 254.267 1856.81 257.435Z" fill="#0E6F3A"/>
<path d="M1917.81 201.18C1908.02 214.693 1896.09 216.187 1891.41 215.427C1888.29 214.668 1881.21 211.582 1877.86 205.321C1873.67 197.494 1873.22 185.631 1873.47 173.883C1873.71 163.027 1877.02 146.78 1881.79 133.87C1881.79 133.87 1885.39 121.378 1898.15 107.064C1914.09 89.1707 1930.25 108.777 1932.8 113.239C1935.35 117.701 1938.64 131.374 1937.92 142.275C1937.34 150.996 1934.41 163.28 1932.06 171.775C1928.79 183.601 1924.2 192.35 1917.81 201.18Z" fill="#FEE6CA"/>
<path d="M1863.8 178.179C1857.68 201.167 1843.22 207.634 1836.75 207.995C1834.55 208.037 1831.79 207.389 1830.68 207.06C1821.88 204.65 1816.58 197.269 1815.03 193.88C1812.35 188.8 1807.06 174.44 1807.35 157.638C1807.64 140.836 1812.65 122.717 1815.12 115.758C1819.55 105.035 1832.39 84.7237 1848.23 89.2688C1864.06 93.8138 1870.16 113.16 1870.43 119.941C1871.3 131.324 1869.93 155.19 1863.8 178.179Z" fill="#FEE6CA"/>
<path d="M1802.56 16.043C1803.02 17.346 1804.5 17.974 1805.76 17.4041L1831.65 5.69996C1832.84 5.1618 1833.37 3.76048 1832.83 2.5709L1791.54 -88.7738C1790.67 -90.6939 1787.91 -90.6061 1787.17 -88.6348L1776.21 -59.5836C1776.01 -59.0599 1776 -58.4829 1776.19 -57.9547L1802.56 16.043Z" fill="#0E6F3A"/>
<path d="M1828.77 4.35621C1829.27 5.53305 1828.74 6.89192 1827.58 7.42526L1797.09 21.4373C1795.75 22.0506 1794.18 21.3109 1793.81 19.8905L1767.48 -80.1495C1766.95 -82.179 1769.12 -83.8467 1770.94 -82.8037L1798 -67.3017C1798.45 -67.0443 1798.8 -66.6465 1799 -66.169L1828.77 4.35621Z" fill="#0E6F3A"/>
<path d="M1848.63 -88.7936C1857.63 -147.246 1888.93 -163.518 1923.91 -158.13C1958.9 -152.741 1984.32 -127.733 1975.32 -69.2802C1966.31 -10.8275 1930.66 32.1898 1895.67 26.8013C1860.68 21.4129 1839.62 -30.3409 1848.63 -88.7936Z" fill="#559472"/>
<path d="M1884.04 79.3504C1881.35 80.3585 1877.33 83.6018 1882.81 88.5099C1889.66 94.6451 1890.91 76.2154 1884.04 79.3504Z" stroke="#090909" stroke-width="5" stroke-linecap="round"/>
</g>
</g>
<g clip-path="url(#clip6_743_18560)">
<path d="M235.648 916.521C238.296 915.918 240.214 919.002 238.502 921.11L200.28 968.191C199.042 969.716 196.67 969.567 195.633 967.899L174.726 934.283C173.689 932.615 174.604 930.422 176.519 929.986L235.648 916.521Z" fill="#0485A2"/>
<path fill-rule="evenodd" clip-rule="evenodd" d="M202.115 938.226C192.767 923.194 166.687 896.168 103.282 913.72C53.1714 927.591 6.4545 954.296 -25.1652 972.371C-33.8163 977.316 -41.3373 981.615 -47.4884 984.829L-163.34 1055.46C-176.964 1064.02 -201.947 1084.78 -192.889 1099.34C-191.55 1101.7 -188.828 1106.58 -188.652 1107.19C-188.521 1107.65 -188.696 1107.71 -188.909 1107.78C-188.982 1107.81 -189.06 1107.84 -189.131 1107.88L-190.683 1108.72C-191.013 1108.92 -191.365 1109.13 -191.757 1109.36C-192.695 1109.91 -193.867 1110.6 -195.538 1111.74C-198.374 1113.65 -200.184 1114.88 -196.004 1121.61L-170.919 1161.94C-169.363 1164.51 -164.537 1165.75 -162.109 1164.24C-160.8 1163.42 -159.671 1162.68 -158.631 1162C-157.743 1161.41 -156.919 1160.87 -156.102 1160.36C-156.055 1160.34 -156.009 1160.3 -155.962 1160.27C-155.642 1160.05 -155.34 1159.84 -154.984 1160.7C-154.575 1161.69 -151.446 1166.53 -149.932 1168.83L-141.28 1182.74C-140.939 1183.22 -140.517 1184.26 -141.553 1184.59L-147.248 1188.13C-149.053 1189.26 -151.901 1192.68 -148.854 1197.42C-145.806 1202.15 -134.925 1219.74 -129.866 1227.95C-128.526 1229.96 -124.453 1233.15 -118.88 1229.79L-113.838 1226.66C-113.694 1226.61 -113.36 1226.59 -113.174 1226.89C-112.988 1227.19 -107.018 1232.9 -104.056 1235.72C-102.928 1236.7 -99.2201 1239.5 -98.3056 1239.14C-93.4469 1237.22 -57.7322 1215.94 -17.8244 1189.08C21.6516 1162.52 40.7932 1149.26 65.9358 1131.81C67.3414 1130.94 89.3354 1115.96 90.8439 1115.03L103.637 1106.03L113.63 1098.78C128.361 1088.33 162.992 1065.11 185.76 1040.72C232.111 995.118 214.871 957.613 202.115 938.226Z" fill="#0E6F3A"/>
<path d="M125.483 929.235C140.943 927.958 149.225 935.476 151.521 939.237C152.874 941.898 154.983 948.76 152.594 954.916C149.608 962.611 141.511 970.113 133.069 977.048C125.267 983.456 111.795 990.954 99.7978 995.405C99.7978 995.405 88.8024 1000.43 70.9799 1000.1C48.7019 999.681 52.75 976.407 54.355 971.906C55.9599 967.406 63.616 956.806 71.7437 950.713C78.2458 945.839 88.6917 940.474 96.108 936.987C106.431 932.134 115.38 930.07 125.483 929.235Z" fill="#FEE6CA"/>
<path d="M141.955 981.268C161.882 971.668 175.203 977.958 179.373 982.303C180.739 983.832 181.952 986.172 182.388 987.151C186.02 994.822 184.02 1003.03 182.566 1006.18C180.606 1011.14 173.678 1023.57 161.644 1033.54C149.611 1043.5 133.796 1050.94 127.393 1053.42C117.138 1056.78 95.0343 1060.02 88.653 1046.09C82.2717 1032.17 92.2311 1016.15 96.8532 1011.86C104.355 1004.35 122.028 990.868 141.955 981.268Z" fill="#FEE6CA"/>
<path d="M56.2051 1013.95C58.7881 1015.89 63.8859 1021.14 63.6125 1026.7" stroke="#090909" stroke-width="3" stroke-linecap="round"/>
<path d="M-37.2299 1153.63C-83.9251 1182.67 -114.359 1170.44 -131.741 1142.49C-149.122 1114.54 -146.869 1081.46 -100.174 1052.42C-53.4789 1023.38 -1.53446 1022.5 15.8471 1050.44C33.2287 1078.39 9.4653 1124.59 -37.2299 1153.63Z" fill="#559472"/>
</g>
<path d="M1392.99 288.716C1394 292.671 1389.44 295.669 1386.21 293.179L1314.04 237.586C1311.7 235.785 1311.84 232.218 1314.3 230.597L1363.98 197.912C1366.44 196.29 1369.77 197.58 1370.5 200.439L1392.99 288.716Z" fill="#0485A2"/>
<path fill-rule="evenodd" clip-rule="evenodd" d="M1359.11 239.196C1381.32 224.58 1420.91 184.379 1392.12 89.8367C1369.37 15.1177 1327.47 -54.0133 1299.12 -100.804C1291.36 -113.605 1284.61 -124.735 1279.55 -133.849L1169.05 -305.116C1155.67 -325.246 1123.54 -361.967 1102.01 -347.805C1098.52 -345.704 1091.3 -341.43 1090.38 -341.142C1089.7 -340.928 1089.6 -341.188 1089.48 -341.506C1089.44 -341.614 1089.4 -341.73 1089.33 -341.835L1088.02 -344.134C1087.7 -344.622 1087.37 -345.142 1087.01 -345.722C1086.14 -347.11 1085.06 -348.843 1083.3 -351.309C1080.31 -355.494 1078.39 -358.166 1068.45 -351.629L1008.85 -312.412C1005.05 -309.977 1003.37 -302.682 1005.73 -299.094C1007.01 -297.16 1008.16 -295.493 1009.23 -293.958C1010.14 -292.646 1010.99 -291.43 1011.78 -290.223C1011.83 -290.153 1011.88 -290.084 1011.93 -290.016C1012.27 -289.543 1012.6 -289.098 1011.31 -288.529C1009.84 -287.879 1002.7 -282.993 999.31 -280.631L978.75 -267.105C978.045 -266.575 976.498 -265.902 975.957 -267.444L970.42 -275.861C968.665 -278.528 963.406 -282.674 956.414 -277.916C949.422 -273.157 923.421 -256.143 911.295 -248.231C908.32 -246.141 903.686 -239.903 908.949 -231.662L913.852 -224.211C913.927 -223.997 913.966 -223.496 913.525 -223.205C913.083 -222.915 904.733 -213.73 900.613 -209.174C899.182 -207.442 895.127 -201.767 895.705 -200.407C898.776 -193.184 932.098 -140.367 973.958 -81.4675C1015.36 -23.2049 1036.01 5.03162 1063.18 42.1193C1064.54 44.1964 1087.88 76.6504 1089.34 78.8802L1103.33 97.7471L1114.61 112.475C1130.87 134.196 1167.07 185.31 1204.57 218.567C1274.82 286.423 1330.48 259.095 1359.11 239.196Z" fill="#0E6F3A"/>
<path d="M1369.67 123.769C1372.18 146.936 1361.21 159.663 1355.65 163.255C1351.71 165.389 1341.48 168.819 1332.15 165.467C1320.48 161.278 1308.9 149.407 1298.16 136.995C1288.24 125.526 1276.47 105.582 1269.32 87.7358C1269.32 87.7358 1261.36 71.4165 1261.17 44.6396C1260.94 11.1685 1296.05 16.355 1302.87 18.5925C1309.69 20.8299 1325.9 31.9207 1335.36 43.8924C1342.93 53.4697 1351.38 68.9507 1356.91 79.954C1364.59 95.2705 1368.03 108.63 1369.67 123.769Z" fill="#FEE6CA"/>
<path d="M1292.17 150.504C1307.34 180.061 1298.39 200.322 1292.01 206.758C1289.76 208.869 1286.29 210.785 1284.83 211.478C1273.44 217.236 1261.03 214.556 1256.24 212.496C1248.7 209.747 1229.76 199.829 1214.33 182.144C1198.9 164.459 1187.12 140.994 1183.17 131.472C1177.73 116.2 1172.03 83.1215 1192.73 72.986C1213.42 62.8504 1237.87 77.1808 1244.5 83.9551C1256.07 94.928 1276.99 120.947 1292.17 150.504Z" fill="#FEE6CA"/>
<path d="M1076.87 39.8143C1078.57 40.7297 1080.69 39.997 1081.46 38.2268L1097.34 1.85303C1098.06 0.180942 1097.3 -1.76609 1095.63 -2.49577L967.302 -58.4964C964.605 -59.6735 961.831 -57.0018 962.906 -54.2622L978.747 -13.89C979.033 -13.1618 979.568 -12.5586 980.257 -12.1879L1076.87 39.8143Z" fill="#0E6F3A"/>
<path d="M1093.1 3.15784C1094.71 3.91232 1095.44 5.81434 1094.73 7.45394L1076.25 50.5313C1075.44 52.4172 1073.12 53.1165 1071.41 51.9941L950.446 -27.0298C947.993 -28.6327 948.687 -32.3993 951.55 -33.0229L994.105 -42.2902C994.811 -42.4441 995.549 -42.3618 996.204 -42.056L1093.1 3.15784Z" fill="#0E6F3A"/>
<path d="M963.481 -4.28296C962.282 -3.25311 963.076 -1.28919 964.654 -1.38112L991.698 -2.9567C992.826 -3.02243 993.557 -4.17633 993.134 -5.22417L986.64 -21.299C986.217 -22.3468 984.89 -22.6696 984.033 -21.9333L963.481 -4.28296Z" fill="#0E6F3A"/>
<path d="M1238.82 31.3393C1240.44 25.9895 1244.05 14.6964 1245.49 12.3231C1247.3 9.35643 1229.28 26.1507 1225.43 27.5015" stroke="#090909" stroke-width="5" stroke-linecap="round"/>
<path d="M1023.76 -105.843C978.354 -174.851 995.556 -221.024 1036.86 -248.198C1078.16 -275.372 1127.92 -273.257 1173.33 -204.249C1218.73 -135.24 1222.05 -57.2684 1180.75 -30.0944C1139.45 -2.92034 1069.16 -36.834 1023.76 -105.843Z" fill="#559472"/>
<g style="mix-blend-mode:hard-light">
<path d="M676.09 442.286L676.09 360.017C676.09 354.585 677.359 350.727 679.897 348.444C682.514 346.161 686.321 344.98 691.238 344.98L725.5 344.98C730.814 344.98 735.89 345.373 740.569 346.239C745.249 346.948 749.611 348.365 753.576 350.412C757.542 352.459 760.714 355.451 763.173 359.308C765.552 363.166 766.821 368.047 766.821 373.951C766.821 378.911 765.473 383.477 762.776 387.492C760.08 391.508 756.114 394.578 751.038 396.704L751.038 397.018C757.304 398.672 762.221 401.742 765.631 406.229C769.121 410.559 770.787 416.543 770.787 424.022C770.787 429.769 769.676 434.729 767.456 438.98C765.394 443.152 762.38 446.538 758.493 449.293C754.607 451.97 750.166 454.017 745.169 455.355C740.252 456.615 734.938 457.245 729.149 457.245L691.159 457.245C686.242 457.245 682.435 456.064 679.817 453.781C677.359 451.576 676.09 447.719 676.09 442.286ZM701.866 407.41L701.866 437.642L723.518 437.642C726.373 437.642 728.99 437.405 731.369 437.012C733.907 436.618 736.128 435.831 738.111 434.807C740.173 433.784 741.838 432.288 742.949 430.32C744.218 428.352 744.852 425.833 744.852 422.683C744.852 419.534 744.138 416.779 742.79 414.732C741.521 412.685 739.776 411.111 737.476 410.087C735.256 409.064 732.797 408.355 729.942 408.04C727.087 407.647 723.914 407.41 720.345 407.41L701.786 407.41L701.866 407.41ZM701.866 363.717L701.866 391.114L723.042 391.114C734.938 391.114 740.966 386.548 740.966 377.415C740.966 372.456 739.221 368.913 735.811 366.787C732.321 364.74 727.88 363.638 722.328 363.638L701.945 363.638L701.866 363.717ZM787.838 447.955L787.838 354.427C787.838 350.806 788.869 347.971 790.852 346.003C792.914 344.035 795.769 343.012 799.338 343.012C802.907 343.012 805.683 344.035 807.666 346.003C809.728 347.971 810.838 350.806 810.838 354.427L810.838 447.955C810.838 451.576 809.807 454.41 807.666 456.379C805.683 458.347 802.907 459.37 799.338 459.37C795.769 459.37 792.914 458.347 790.852 456.379C788.869 454.41 787.838 451.576 787.838 447.955ZM831.539 447.955L831.539 385.131C831.539 381.667 832.411 378.911 834.076 376.864C835.821 374.817 838.835 373.715 843.039 373.715C847.242 373.715 850.176 374.739 851.842 376.864C853.587 378.911 854.539 381.667 854.539 385.131L854.539 447.955C854.539 451.419 853.666 454.174 851.842 456.221C850.176 458.268 847.242 459.37 843.039 459.37C838.835 459.37 835.901 458.347 834.076 456.221C832.411 454.174 831.539 451.419 831.539 447.955ZM831.063 354.27C831.063 350.963 832.252 348.129 834.552 345.846C836.852 343.563 839.707 342.382 843.039 342.382C846.37 342.382 849.225 343.563 851.525 345.846C853.825 348.129 855.014 350.963 855.014 354.27C855.014 357.576 853.825 360.41 851.525 362.693C849.225 364.977 846.37 366.157 843.039 366.157C839.707 366.157 836.852 364.977 834.552 362.693C832.252 360.41 831.063 357.576 831.063 354.27ZM873.97 447.955L873.97 385.131C873.97 381.588 874.842 378.832 876.508 376.864C878.252 374.817 880.87 373.715 884.359 373.715C887.849 373.715 890.387 374.739 892.052 376.864C893.797 378.832 894.749 381.588 894.749 385.131L894.749 388.122L895.066 388.122C898.635 383.556 902.601 380.013 906.963 377.494C911.484 374.975 916.718 373.715 922.825 373.715C926.473 373.715 929.963 374.266 933.373 375.29C936.863 376.234 939.877 377.888 942.653 380.25C945.508 382.533 947.649 385.682 949.235 389.618C950.901 393.476 951.773 398.121 951.773 403.631L951.773 447.876C951.773 451.34 950.901 454.096 949.077 456.142C947.411 458.189 944.477 459.292 940.273 459.292C936.07 459.292 933.135 458.268 931.311 456.142C929.646 454.096 928.773 451.34 928.773 447.876L928.773 408.119C928.773 403.317 927.584 399.538 925.125 396.704C922.746 393.791 919.097 392.374 914.259 392.374C909.897 392.374 905.852 394.027 902.204 397.333C898.635 400.561 896.89 404.891 896.89 410.245L896.89 447.797C896.89 451.261 896.018 454.017 894.194 456.064C892.528 458.111 889.594 459.213 885.39 459.213C881.187 459.213 878.252 458.189 876.428 456.064C874.763 454.017 873.89 451.261 873.89 447.797L873.97 447.955ZM970.015 447.955L970.015 354.427C970.015 350.806 971.046 347.971 973.028 346.003C975.091 344.035 977.946 343.012 981.515 343.012C985.084 343.012 987.86 344.035 989.842 346.003C991.904 347.971 993.015 350.806 993.015 354.427L993.015 406.151L1018.47 378.124C1021.17 375.211 1024.1 373.794 1027.28 373.794C1029.97 373.794 1032.43 374.817 1034.65 376.943C1036.95 378.911 1038.14 381.273 1038.14 384.107C1038.14 385.839 1037.9 387.256 1037.35 388.122C1036.95 388.988 1036.16 390.012 1034.97 391.271C1034.89 391.35 1034.73 391.508 1034.65 391.586L1017.68 409.221L1041.55 441.027C1042.19 441.893 1042.74 442.916 1043.14 444.176C1043.69 445.357 1043.93 446.695 1043.93 448.348C1043.93 451.261 1042.9 453.859 1040.76 456.142C1038.7 458.347 1036.08 459.449 1033.07 459.449C1030.53 459.449 1028.47 458.898 1026.8 457.874C1025.14 456.93 1023.79 455.67 1022.76 454.096L1001.1 423.707L993.094 430.714L993.094 448.034C993.094 451.655 992.063 454.489 989.922 456.457C987.939 458.426 985.163 459.449 981.594 459.449C978.025 459.449 975.17 458.426 973.108 456.457C971.125 454.489 970.094 451.655 970.094 448.034L970.015 447.955ZM1125.62 420.794L1073.83 420.794C1073.83 426.935 1075.74 431.895 1079.46 435.752C1083.27 439.61 1088.43 441.499 1095.01 441.499C1099.37 441.499 1102.78 440.948 1105.24 439.767C1107.78 438.508 1110.24 436.776 1112.77 434.65C1114.36 433.233 1115.79 432.131 1116.98 431.343C1118.25 430.635 1119.75 430.241 1121.5 430.241C1124.12 430.241 1126.34 431.186 1128.08 433.075C1129.98 434.965 1130.94 436.933 1130.94 439.137C1130.94 442.365 1129.75 445.278 1127.45 447.876C1125.15 450.395 1122.13 452.521 1118.33 454.253C1114.68 455.906 1110.71 457.166 1106.59 458.032C1102.54 458.898 1098.66 459.292 1094.93 459.292C1087.32 459.292 1080.65 458.111 1075.02 455.828C1069.39 453.466 1064.79 450.238 1061.22 446.302C1057.65 442.365 1055.04 437.957 1053.37 433.075C1051.7 428.194 1050.83 423.156 1050.83 417.96C1050.83 404.576 1054.72 393.869 1062.49 385.839C1070.26 377.73 1080.81 373.715 1094.22 373.715C1100.64 373.715 1106.35 374.739 1111.5 376.864C1116.74 378.832 1121.1 381.667 1124.67 385.288C1128.32 388.831 1131.09 392.846 1132.84 397.255C1134.74 401.585 1135.69 406.229 1135.69 410.953C1135.69 414.811 1134.98 417.409 1133.47 418.747C1132.13 420.085 1129.51 420.794 1125.62 420.794ZM1073.83 407.725L1114.04 407.725C1113.41 402.451 1111.27 398.121 1107.62 394.814C1104.05 391.35 1099.77 389.697 1094.77 389.697C1089.22 389.697 1084.7 391.271 1081.13 394.499C1077.56 397.648 1075.18 402.057 1073.91 407.725L1073.83 407.725ZM1151.72 447.955L1151.72 384.343C1151.72 381.037 1152.67 378.439 1154.57 376.549C1156.55 374.66 1159.09 373.715 1162.1 373.715C1165.12 373.715 1167.58 374.66 1169.48 376.549C1171.46 378.439 1172.49 381.037 1172.49 384.343L1172.49 393.082L1172.81 393.082C1174.4 387.492 1176.62 382.848 1179.55 379.226C1182.57 375.605 1186.69 373.794 1191.77 373.794C1195.42 373.794 1198.43 374.817 1200.73 376.943C1203.11 378.99 1204.38 381.667 1204.38 384.894C1204.38 388.831 1203.27 391.744 1201.05 393.633C1198.98 395.365 1196.29 396.31 1193.04 396.31L1188.99 396.31C1184.15 396.31 1180.58 398.199 1178.13 402.057C1175.83 405.915 1174.64 412.37 1174.64 421.503L1174.64 448.034C1174.64 451.498 1173.76 454.253 1171.94 456.3C1170.27 458.347 1167.34 459.449 1163.14 459.449C1158.93 459.449 1156 458.426 1154.17 456.3C1152.51 454.253 1151.64 451.498 1151.64 448.034L1151.72 447.955Z" fill="#356549"/>
</g>
<g style="mix-blend-mode:hard-light">
<path d="M676.09 442.286L676.09 360.017C676.09 354.585 677.359 350.727 679.897 348.444C682.514 346.161 686.321 344.98 691.238 344.98L725.5 344.98C730.814 344.98 735.89 345.373 740.569 346.239C745.249 346.948 749.611 348.365 753.576 350.412C757.542 352.459 760.714 355.451 763.173 359.308C765.552 363.166 766.821 368.047 766.821 373.951C766.821 378.911 765.473 383.477 762.776 387.492C760.08 391.508 756.114 394.578 751.038 396.704L751.038 397.018C757.304 398.672 762.221 401.742 765.631 406.229C769.121 410.559 770.787 416.543 770.787 424.022C770.787 429.769 769.676 434.729 767.456 438.98C765.394 443.152 762.38 446.538 758.493 449.293C754.607 451.97 750.166 454.017 745.169 455.355C740.252 456.615 734.938 457.245 729.149 457.245L691.159 457.245C686.242 457.245 682.435 456.064 679.817 453.781C677.359 451.576 676.09 447.719 676.09 442.286ZM701.866 407.41L701.866 437.642L723.518 437.642C726.373 437.642 728.99 437.405 731.369 437.012C733.907 436.618 736.128 435.831 738.111 434.807C740.173 433.784 741.838 432.288 742.949 430.32C744.218 428.352 744.852 425.833 744.852 422.683C744.852 419.534 744.138 416.779 742.79 414.732C741.521 412.685 739.776 411.111 737.476 410.087C735.256 409.064 732.797 408.355 729.942 408.04C727.087 407.647 723.914 407.41 720.345 407.41L701.786 407.41L701.866 407.41ZM701.866 363.717L701.866 391.114L723.042 391.114C734.938 391.114 740.966 386.548 740.966 377.415C740.966 372.456 739.221 368.913 735.811 366.787C732.321 364.74 727.88 363.638 722.328 363.638L701.945 363.638L701.866 363.717ZM787.838 447.955L787.838 354.427C787.838 350.806 788.869 347.971 790.852 346.003C792.914 344.035 795.769 343.012 799.338 343.012C802.907 343.012 805.683 344.035 807.666 346.003C809.728 347.971 810.838 350.806 810.838 354.427L810.838 447.955C810.838 451.576 809.807 454.41 807.666 456.379C805.683 458.347 802.907 459.37 799.338 459.37C795.769 459.37 792.914 458.347 790.852 456.379C788.869 454.41 787.838 451.576 787.838 447.955ZM831.539 447.955L831.539 385.131C831.539 381.667 832.411 378.911 834.076 376.864C835.821 374.817 838.835 373.715 843.039 373.715C847.242 373.715 850.176 374.739 851.842 376.864C853.587 378.911 854.539 381.667 854.539 385.131L854.539 447.955C854.539 451.419 853.666 454.174 851.842 456.221C850.176 458.268 847.242 459.37 843.039 459.37C838.835 459.37 835.901 458.347 834.076 456.221C832.411 454.174 831.539 451.419 831.539 447.955ZM831.063 354.27C831.063 350.963 832.252 348.129 834.552 345.846C836.852 343.563 839.707 342.382 843.039 342.382C846.37 342.382 849.225 343.563 851.525 345.846C853.825 348.129 855.014 350.963 855.014 354.27C855.014 357.576 853.825 360.41 851.525 362.693C849.225 364.977 846.37 366.157 843.039 366.157C839.707 366.157 836.852 364.977 834.552 362.693C832.252 360.41 831.063 357.576 831.063 354.27ZM873.97 447.955L873.97 385.131C873.97 381.588 874.842 378.832 876.508 376.864C878.252 374.817 880.87 373.715 884.359 373.715C887.849 373.715 890.387 374.739 892.052 376.864C893.797 378.832 894.749 381.588 894.749 385.131L894.749 388.122L895.066 388.122C898.635 383.556 902.601 380.013 906.963 377.494C911.484 374.975 916.718 373.715 922.825 373.715C926.473 373.715 929.963 374.266 933.373 375.29C936.863 376.234 939.877 377.888 942.653 380.25C945.508 382.533 947.649 385.682 949.235 389.618C950.901 393.476 951.773 398.121 951.773 403.631L951.773 447.876C951.773 451.34 950.901 454.096 949.077 456.142C947.411 458.189 944.477 459.292 940.273 459.292C936.07 459.292 933.135 458.268 931.311 456.142C929.646 454.096 928.773 451.34 928.773 447.876L928.773 408.119C928.773 403.317 927.584 399.538 925.125 396.704C922.746 393.791 919.097 392.374 914.259 392.374C909.897 392.374 905.852 394.027 902.204 397.333C898.635 400.561 896.89 404.891 896.89 410.245L896.89 447.797C896.89 451.261 896.018 454.017 894.194 456.064C892.528 458.111 889.594 459.213 885.39 459.213C881.187 459.213 878.252 458.189 876.428 456.064C874.763 454.017 873.89 451.261 873.89 447.797L873.97 447.955ZM970.015 447.955L970.015 354.427C970.015 350.806 971.046 347.971 973.028 346.003C975.091 344.035 977.946 343.012 981.515 343.012C985.084 343.012 987.86 344.035 989.842 346.003C991.904 347.971 993.015 350.806 993.015 354.427L993.015 406.151L1018.47 378.124C1021.17 375.211 1024.1 373.794 1027.28 373.794C1029.97 373.794 1032.43 374.817 1034.65 376.943C1036.95 378.911 1038.14 381.273 1038.14 384.107C1038.14 385.839 1037.9 387.256 1037.35 388.122C1036.95 388.988 1036.16 390.012 1034.97 391.271C1034.89 391.35 1034.73 391.508 1034.65 391.586L1017.68 409.221L1041.55 441.027C1042.19 441.893 1042.74 442.916 1043.14 444.176C1043.69 445.357 1043.93 446.695 1043.93 448.348C1043.93 451.261 1042.9 453.859 1040.76 456.142C1038.7 458.347 1036.08 459.449 1033.07 459.449C1030.53 459.449 1028.47 458.898 1026.8 457.874C1025.14 456.93 1023.79 455.67 1022.76 454.096L1001.1 423.707L993.094 430.714L993.094 448.034C993.094 451.655 992.063 454.489 989.922 456.457C987.939 458.426 985.163 459.449 981.594 459.449C978.025 459.449 975.17 458.426 973.108 456.457C971.125 454.489 970.094 451.655 970.094 448.034L970.015 447.955ZM1125.62 420.794L1073.83 420.794C1073.83 426.935 1075.74 431.895 1079.46 435.752C1083.27 439.61 1088.43 441.499 1095.01 441.499C1099.37 441.499 1102.78 440.948 1105.24 439.767C1107.78 438.508 1110.24 436.776 1112.77 434.65C1114.36 433.233 1115.79 432.131 1116.98 431.343C1118.25 430.635 1119.75 430.241 1121.5 430.241C1124.12 430.241 1126.34 431.186 1128.08 433.075C1129.98 434.965 1130.94 436.933 1130.94 439.137C1130.94 442.365 1129.75 445.278 1127.45 447.876C1125.15 450.395 1122.13 452.521 1118.33 454.253C1114.68 455.906 1110.71 457.166 1106.59 458.032C1102.54 458.898 1098.66 459.292 1094.93 459.292C1087.32 459.292 1080.65 458.111 1075.02 455.828C1069.39 453.466 1064.79 450.238 1061.22 446.302C1057.65 442.365 1055.04 437.957 1053.37 433.075C1051.7 428.194 1050.83 423.156 1050.83 417.96C1050.83 404.576 1054.72 393.869 1062.49 385.839C1070.26 377.73 1080.81 373.715 1094.22 373.715C1100.64 373.715 1106.35 374.739 1111.5 376.864C1116.74 378.832 1121.1 381.667 1124.67 385.288C1128.32 388.831 1131.09 392.846 1132.84 397.255C1134.74 401.585 1135.69 406.229 1135.69 410.953C1135.69 414.811 1134.98 417.409 1133.47 418.747C1132.13 420.085 1129.51 420.794 1125.62 420.794ZM1073.83 407.725L1114.04 407.725C1113.41 402.451 1111.27 398.121 1107.62 394.814C1104.05 391.35 1099.77 389.697 1094.77 389.697C1089.22 389.697 1084.7 391.271 1081.13 394.499C1077.56 397.648 1075.18 402.057 1073.91 407.725L1073.83 407.725ZM1151.72 447.955L1151.72 384.343C1151.72 381.037 1152.67 378.439 1154.57 376.549C1156.55 374.66 1159.09 373.715 1162.1 373.715C1165.12 373.715 1167.58 374.66 1169.48 376.549C1171.46 378.439 1172.49 381.037 1172.49 384.343L1172.49 393.082L1172.81 393.082C1174.4 387.492 1176.62 382.848 1179.55 379.226C1182.57 375.605 1186.69 373.794 1191.77 373.794C1195.42 373.794 1198.43 374.817 1200.73 376.943C1203.11 378.99 1204.38 381.667 1204.38 384.894C1204.38 388.831 1203.27 391.744 1201.05 393.633C1198.98 395.365 1196.29 396.31 1193.04 396.31L1188.99 396.31C1184.15 396.31 1180.58 398.199 1178.13 402.057C1175.83 405.915 1174.64 412.37 1174.64 421.503L1174.64 448.034C1174.64 451.498 1173.76 454.253 1171.94 456.3C1170.27 458.347 1167.34 459.449 1163.14 459.449C1158.93 459.449 1156 458.426 1154.17 456.3C1152.51 454.253 1151.64 451.498 1151.64 448.034L1151.72 447.955Z" fill="#356549"/>
</g>
<g filter="url(#filter1_f_743_18560)">
<path d="M1172.49 393.082L1172.81 393.082C1173.92 389.146 1175.42 385.918 1177.17 382.926L1172.09 382.296C1172.17 383.005 1172.41 383.556 1172.41 384.343L1172.41 393.082L1172.49 393.082Z" fill="#505050"/>
</g>
<g filter="url(#filter2_f_743_18560)">
<path d="M914.326 392.452C911.709 392.452 909.25 393.082 906.871 394.263L928.206 403.159C927.65 400.719 926.699 398.514 925.192 396.782C922.813 393.869 919.164 392.452 914.326 392.452Z" fill="#505050"/>
</g>
<g filter="url(#filter3_f_743_18560)">
<path d="M842.952 342.067L842.952 342.382C846.283 342.382 849.138 343.563 851.438 345.846C853.738 348.129 854.928 350.963 854.928 354.27C854.928 357.576 853.738 360.41 851.438 362.693C849.138 364.976 846.283 366.157 842.952 366.157C841.048 366.157 839.303 365.685 837.717 364.898L837.559 365.528L874.438 380.879C874.835 379.305 875.469 377.966 876.341 376.943C878.086 374.896 880.704 373.794 884.193 373.794C887.683 373.794 890.221 374.817 891.886 376.943C893.631 378.911 894.583 381.667 894.583 385.209L894.583 388.201L894.9 388.201C898.469 383.635 902.435 380.092 906.797 377.573C911.317 375.054 916.552 373.794 922.659 373.794C926.307 373.794 929.797 374.345 933.207 375.368C936.697 376.313 939.79 377.966 942.486 380.328C945.342 382.611 947.483 385.76 949.069 389.697C950.735 393.554 951.607 398.199 951.607 403.71L951.607 413L969.849 420.637L969.849 357.576L842.952 342.067Z" fill="#505050"/>
</g>
<g filter="url(#filter4_f_743_18560)">
<path d="M1204.05 386.705C1203.73 389.618 1202.86 391.98 1201.03 393.554C1198.97 395.286 1196.28 396.231 1193.02 396.231L1188.98 396.231C1184.14 396.231 1180.57 398.12 1178.11 401.978C1175.81 405.836 1174.62 412.291 1174.62 421.424L1174.62 447.955C1174.62 451.419 1173.75 454.174 1171.93 456.221C1170.26 458.268 1167.33 459.37 1163.12 459.37C1158.92 459.37 1155.99 458.347 1154.16 456.221C1152.5 454.174 1151.62 451.419 1151.62 447.955L1151.62 384.343C1151.62 382.69 1151.86 381.194 1152.34 379.934L992.844 360.41L992.844 406.151L1018.3 378.124C1021 375.211 1023.93 373.794 1027.11 373.794C1029.8 373.794 1032.26 374.817 1034.48 376.943C1036.78 378.911 1037.97 381.273 1037.97 384.107C1037.97 385.839 1037.73 387.256 1037.18 388.122C1036.78 388.988 1035.99 390.012 1034.8 391.271C1034.72 391.35 1034.56 391.507 1034.48 391.586L1017.51 409.221L1041.38 441.027C1042.02 441.893 1042.57 442.916 1042.97 444.176C1043.52 445.357 1043.76 446.695 1043.76 448.348C1043.76 449.372 1043.44 450.238 1043.21 451.182L1162.65 500.859C1164.71 501.883 1166.93 502.749 1169.07 503.536L1169.94 503.851C1176.13 505.819 1182.71 507 1189.53 507C1223.48 507 1251 479.682 1251 445.986C1251 417.251 1230.93 393.239 1203.97 386.784L1204.05 386.705ZM1133.46 418.747C1132.11 420.085 1129.5 420.794 1125.61 420.794L1073.82 420.794C1073.82 426.935 1075.72 431.894 1079.45 435.752C1083.26 439.61 1088.41 441.499 1095 441.499C1099.36 441.499 1102.77 440.948 1105.23 439.767C1107.76 438.507 1110.22 436.775 1112.76 434.65C1114.35 433.233 1115.78 432.131 1116.96 431.343C1118.23 430.635 1119.74 430.241 1121.49 430.241C1124.1 430.241 1126.32 431.186 1128.07 433.075C1129.97 434.965 1130.92 436.933 1130.92 439.137C1130.92 442.365 1129.73 445.278 1127.43 447.876C1125.13 450.395 1122.12 452.521 1118.31 454.253C1114.66 455.906 1110.7 457.166 1106.58 458.032C1102.53 458.898 1098.64 459.291 1094.92 459.291C1087.3 459.291 1080.64 458.11 1075.01 455.827C1069.38 453.466 1064.78 450.238 1061.21 446.301C1057.64 442.365 1055.02 437.956 1053.36 433.075C1051.69 428.194 1050.82 423.156 1050.82 417.96C1050.82 404.576 1054.71 393.869 1062.48 385.839C1070.25 377.73 1080.8 373.715 1094.2 373.715C1100.63 373.715 1106.34 374.738 1111.49 376.864C1116.73 378.832 1121.09 381.666 1124.66 385.288C1128.31 388.831 1131.08 392.846 1132.83 397.254C1134.73 401.584 1135.68 406.229 1135.68 410.953C1135.68 414.811 1134.97 417.409 1133.46 418.747Z" fill="#505050"/>
</g>
<path d="M1094.69 389.618C1089.14 389.618 1084.61 391.192 1081.05 394.42C1077.48 397.569 1075.1 401.978 1073.83 407.646L1114.04 407.646C1113.4 402.372 1111.26 398.042 1107.61 394.735C1104.05 391.271 1099.76 389.618 1094.77 389.618L1094.69 389.618Z" fill="#505050"/>
<g filter="url(#filter5_f_743_18560)">
<path d="M993.324 430.241L1010.85 437.563L1000.94 423.628L993.324 430.241Z" fill="#505050"/>
</g>
<path d="M1022.59 454.017C1023.63 455.591 1024.97 456.851 1026.64 457.795C1028.3 458.819 1030.45 459.37 1032.9 459.37C1035.92 459.37 1038.54 458.268 1040.6 456.063C1041.95 454.568 1042.74 452.836 1043.22 451.104L1010.78 437.641L1022.52 454.095L1022.59 454.017Z" fill="#356549"/>
<path d="M970.004 447.955C970.004 451.576 971.035 454.41 973.018 456.378C975.08 458.347 977.935 459.37 981.504 459.37C985.073 459.37 987.849 458.347 989.832 456.378C991.894 454.41 993.004 451.576 993.004 447.955L993.004 430.635L993.4 430.241L970.083 420.558L970.083 447.955L970.004 447.955Z" fill="#356549"/>
<path d="M873.961 385.13L873.961 447.955C873.961 451.419 874.833 454.174 876.499 456.221C878.244 458.268 881.257 459.37 885.461 459.37C889.664 459.37 892.599 458.347 894.264 456.221C896.009 454.174 896.961 451.419 896.961 447.955L896.961 410.402C896.961 404.97 898.706 400.718 902.275 397.491C903.782 396.152 905.289 395.129 906.954 394.341L874.595 380.879C874.278 382.139 874.04 383.556 874.04 385.209L873.961 385.13Z" fill="#356549"/>
<path d="M928.766 408.197L928.766 447.955C928.766 451.419 929.639 454.174 931.304 456.221C933.049 458.268 936.063 459.37 940.266 459.37C944.47 459.37 947.404 458.347 949.07 456.221C950.814 454.174 951.766 451.419 951.766 447.955L951.766 412.921L928.211 403.159C928.607 404.733 928.766 406.387 928.766 408.197Z" fill="#356549"/>
<path d="M750.79 397.097L750.79 396.782C755.945 394.735 759.831 391.665 762.528 387.571C765.224 383.556 766.573 378.99 766.573 374.03C766.573 368.126 765.383 363.245 762.924 359.387C760.545 355.529 757.293 352.616 753.328 350.491C749.362 348.444 745 347.027 740.321 346.318C735.642 345.452 730.566 345.059 725.252 345.059L691.148 345.059C686.231 345.059 682.424 346.24 679.807 348.523C677.269 350.806 676 354.663 676 360.095L676 442.365C676 447.797 677.269 451.576 679.807 453.938C682.424 456.221 686.231 457.402 691.148 457.402L728.979 457.402C734.769 457.402 740.083 456.772 745 455.513C749.997 454.174 754.438 452.127 758.324 449.451C762.211 446.774 765.145 443.31 767.286 439.137C769.507 434.886 770.617 429.926 770.617 424.179C770.617 416.7 768.873 410.796 765.462 406.387C761.973 401.9 757.135 398.829 750.869 397.176L750.79 397.097ZM701.855 363.717L722.238 363.717C727.79 363.717 732.31 364.74 735.721 366.866C739.21 368.913 740.876 372.456 740.876 377.494C740.876 386.626 734.928 391.193 722.952 391.193L701.776 391.193L701.776 363.796L701.855 363.717ZM742.938 430.32C741.748 432.288 740.162 433.784 738.1 434.807C736.117 435.831 733.897 436.539 731.359 437.012C728.979 437.405 726.362 437.642 723.507 437.642L701.855 437.642L701.855 407.41L720.414 407.41C723.983 407.41 727.155 407.647 730.01 408.04C732.866 408.355 735.324 409.064 737.545 410.087C739.845 411.111 741.59 412.685 742.859 414.732C744.207 416.779 744.921 419.456 744.921 422.683C744.921 425.911 744.286 428.352 743.017 430.32L742.938 430.32Z" fill="#356549"/>
<path d="M799.324 343.011C795.755 343.011 792.9 344.035 790.838 346.003C788.855 347.971 787.824 350.805 787.824 354.427L787.824 447.955C787.824 451.576 788.855 454.41 790.838 456.378C792.9 458.347 795.755 459.37 799.324 459.37C802.893 459.37 805.669 458.347 807.652 456.378C809.714 454.41 810.824 451.576 810.824 447.955L810.824 354.427C810.824 350.805 809.793 347.971 807.652 346.003C805.669 344.035 802.893 343.011 799.324 343.011Z" fill="#356549"/>
<path d="M843.035 373.715C838.832 373.715 835.897 374.739 834.073 376.864C832.408 378.911 831.535 381.667 831.535 385.131L831.535 447.955C831.535 451.419 832.408 454.174 834.073 456.221C835.818 458.268 838.832 459.37 843.035 459.37C847.239 459.37 850.173 458.347 851.839 456.221C853.583 454.174 854.535 451.419 854.535 447.955L854.535 385.131C854.535 381.667 853.663 378.911 851.839 376.864C850.173 374.817 847.239 373.715 843.035 373.715Z" fill="#356549"/>
<path d="M1195.1 385.209C1198.19 385.445 1201.12 385.997 1204.06 386.705C1204.06 386.075 1204.38 385.524 1204.38 384.816C1204.38 381.588 1203.19 378.911 1200.73 376.864C1198.43 374.817 1195.41 373.715 1191.76 373.715C1186.61 373.715 1182.56 375.526 1179.55 379.147C1178.68 380.249 1177.96 381.588 1177.17 382.926L1195.1 385.131L1195.1 385.209Z" fill="#356549"/>
<path d="M992.93 354.427C992.93 350.805 991.899 347.971 989.757 346.003C987.775 344.035 984.999 343.011 981.43 343.011C977.861 343.011 975.006 344.035 972.943 346.003C970.961 347.971 969.93 350.805 969.93 354.427L969.93 357.655L992.85 360.489L992.85 354.506L992.93 354.427Z" fill="#356549"/>
<path d="M1169.47 376.549C1167.57 374.66 1165.11 373.715 1162.1 373.715C1159.08 373.715 1156.55 374.66 1154.56 376.549C1153.61 377.494 1152.9 378.596 1152.42 379.935L1172.09 382.375C1171.77 380.092 1170.98 378.045 1169.47 376.628L1169.47 376.549Z" fill="#356549"/>
<g filter="url(#filter6_d_743_18560)">
<path d="M1151.71 447.955C1151.71 451.419 1152.58 454.174 1154.24 456.221C1155.99 458.268 1159 459.37 1163.21 459.37C1167.41 459.37 1170.34 458.347 1172.01 456.221C1173.76 454.174 1174.71 451.419 1174.71 447.955L1174.71 421.424C1174.71 412.291 1175.82 405.757 1178.2 401.978C1180.58 398.121 1184.22 396.231 1189.06 396.231L1193.11 396.231C1196.36 396.231 1199.06 395.365 1201.12 393.554C1202.94 392.059 1203.81 389.618 1204.13 386.705C1201.2 385.997 1198.26 385.445 1195.17 385.209L1177.24 383.005C1175.5 385.997 1173.91 389.224 1172.88 393.161L1172.57 393.161L1172.57 384.422C1172.57 383.635 1172.33 383.084 1172.25 382.375L1152.58 379.935C1152.1 381.194 1151.87 382.69 1151.87 384.343L1151.87 447.955L1151.71 447.955Z" fill="#6FE593"/>
</g>
<g filter="url(#filter7_d_743_18560)">
<path d="M1124.66 385.288C1121.09 381.667 1116.73 378.832 1111.5 376.864C1106.34 374.817 1100.63 373.715 1094.21 373.715C1080.8 373.715 1070.26 377.73 1062.48 385.839C1054.71 393.869 1050.82 404.576 1050.82 417.96C1050.82 423.156 1051.7 428.194 1053.36 433.075C1055.03 437.956 1057.64 442.365 1061.21 446.301C1064.78 450.238 1069.38 453.387 1075.01 455.827C1080.64 458.111 1087.31 459.291 1094.92 459.291C1098.57 459.291 1102.46 458.898 1106.58 458.032C1110.78 457.166 1114.67 455.985 1118.32 454.253C1122.12 452.521 1125.14 450.395 1127.44 447.876C1129.74 445.278 1130.93 442.365 1130.93 439.137C1130.93 436.933 1129.98 434.965 1128.07 433.075C1126.33 431.186 1124.11 430.241 1121.49 430.241C1119.75 430.241 1118.16 430.635 1116.97 431.343C1115.7 432.052 1114.27 433.154 1112.77 434.65C1110.23 436.854 1107.77 438.507 1105.23 439.767C1102.85 440.948 1099.44 441.499 1095 441.499C1088.42 441.499 1083.26 439.61 1079.46 435.752C1075.65 431.894 1073.82 426.935 1073.82 420.794L1125.61 420.794C1129.5 420.794 1132.12 420.085 1133.47 418.747C1134.89 417.409 1135.69 414.811 1135.69 410.953C1135.69 406.151 1134.73 401.584 1132.83 397.254C1131.09 392.767 1128.31 388.752 1124.66 385.288ZM1073.82 407.725C1075.09 401.978 1077.47 397.569 1081.04 394.499C1084.61 391.271 1089.13 389.697 1094.68 389.697C1099.68 389.697 1103.96 391.429 1107.53 394.814C1111.18 398.12 1113.32 402.45 1113.96 407.725L1073.74 407.725L1073.82 407.725Z" fill="#6FE593"/>
</g>
<g filter="url(#filter8_d_743_18560)">
<path d="M1042.97 444.019C1042.58 442.759 1042.02 441.736 1041.39 440.87L1017.52 409.064L1034.49 391.429C1034.49 391.429 1034.73 391.193 1034.81 391.114C1036 389.855 1036.71 388.831 1037.19 387.965C1037.74 387.02 1037.98 385.682 1037.98 383.95C1037.98 381.116 1036.79 378.754 1034.49 376.786C1032.27 374.739 1029.81 373.637 1027.11 373.637C1023.94 373.637 1021.01 375.054 1018.31 377.967L992.85 405.994L992.85 360.411L969.93 357.576L969.93 420.479L993.247 430.163L1000.86 423.55L1010.77 437.484L1043.21 450.947C1043.45 450.002 1043.77 449.136 1043.77 448.113C1043.77 446.459 1043.53 445.042 1042.97 443.94L1042.97 444.019Z" fill="#6FE593"/>
</g>
<g filter="url(#filter9_d_743_18560)">
<path d="M949.221 389.618C947.635 385.682 945.414 382.533 942.638 380.249C939.942 377.888 936.849 376.234 933.359 375.29C930.028 374.266 926.538 373.715 922.811 373.715C916.704 373.715 911.469 374.975 906.949 377.494C902.586 380.013 898.542 383.556 895.052 388.122L894.735 388.122L894.735 385.131C894.735 381.588 893.862 378.832 892.038 376.864C890.373 374.817 887.835 373.715 884.345 373.715C880.855 373.715 878.238 374.739 876.493 376.864C875.621 377.966 874.986 379.305 874.59 380.801L906.949 394.263C909.328 393.082 911.786 392.452 914.404 392.452C919.242 392.452 922.811 393.869 925.269 396.782C926.776 398.514 927.728 400.64 928.283 403.159L951.838 412.921L951.838 403.631C951.838 398.12 950.966 393.476 949.3 389.618L949.221 389.618Z" fill="#6FE593"/>
</g>
<g filter="url(#filter10_f_743_18560)">
<path d="M844.078 361.991C848.49 361.991 852.082 358.403 852.082 353.994C852.082 349.586 848.49 345.998 844.078 345.998C839.666 345.998 836.074 349.586 836.074 353.994C836.074 358.403 839.666 361.991 844.078 361.991Z" fill="#E8F8EE" fill-opacity="0.2"/>
</g>
<g filter="url(#filter11_f_743_18560)">
<path d="M844.079 364.99C850.146 364.99 855.085 360.056 855.085 353.994C855.085 347.933 850.146 342.999 844.079 342.999C838.012 342.999 833.074 347.933 833.074 353.994C833.074 360.056 838.012 364.99 844.079 364.99Z" fill="#E8F8EE" fill-opacity="0.2"/>
</g>
<g filter="url(#filter12_f_743_18560)">
<path d="M844.08 365.99C850.698 365.99 856.085 360.607 856.085 353.994C856.085 347.382 850.698 341.999 844.08 341.999C837.461 341.999 832.074 347.382 832.074 353.994C832.074 360.607 837.461 365.99 844.08 365.99Z" fill="#E8F8EE" fill-opacity="0.2"/>
</g>
<g filter="url(#filter13_f_743_18560)">
<path d="M844.081 367.989C851.802 367.989 858.087 361.709 858.087 353.994C858.087 346.28 851.802 340 844.081 340C836.359 340 830.074 346.28 830.074 353.994C830.074 361.709 836.359 367.989 844.081 367.989Z" fill="#E8F8EE" fill-opacity="0.2"/>
</g>
<g filter="url(#filter14_f_743_18560)">
<path d="M844.077 359.992C847.386 359.992 850.08 357.301 850.08 353.994C850.08 350.688 847.386 347.997 844.077 347.997C840.768 347.997 838.074 350.688 838.074 353.994C838.074 357.301 840.768 359.992 844.077 359.992Z" fill="white"/>
</g>
</g>
<defs>
<filter id="filter0_d_743_18560" x="-16" y="181" width="429.816" height="501.551" filterUnits="userSpaceOnUse" color-interpolation-filters="sRGB">
<feFlood flood-opacity="0" result="BackgroundImageFix"/>
<feColorMatrix in="SourceAlpha" type="matrix" values="0 0 0 0 0 0 0 0 0 0 0 0 0 0 0 0 0 0 127 0" result="hardAlpha"/>
<feOffset dx="4" dy="8"/>
<feGaussianBlur stdDeviation="10"/>
<feComposite in2="hardAlpha" operator="out"/>
<feColorMatrix type="matrix" values="0 0 0 0 0.054902 0 0 0 0 0.435294 0 0 0 0 0.227451 0 0 0 0.1 0"/>
<feBlend mode="normal" in2="BackgroundImageFix" result="effect1_dropShadow_743_18560"/>
<feBlend mode="normal" in="SourceGraphic" in2="effect1_dropShadow_743_18560" result="shape"/>
</filter>
<filter id="filter1_f_743_18560" x="1168.09" y="378.296" width="13.0742" height="18.7856" filterUnits="userSpaceOnUse" color-interpolation-filters="sRGB">
<feFlood flood-opacity="0" result="BackgroundImageFix"/>
<feBlend mode="normal" in="SourceGraphic" in2="BackgroundImageFix" result="shape"/>
<feGaussianBlur stdDeviation="2" result="effect1_foregroundBlur_743_18560"/>
</filter>
<filter id="filter2_f_743_18560" x="901.371" y="386.952" width="32.3359" height="21.7068" filterUnits="userSpaceOnUse" color-interpolation-filters="sRGB">
<feFlood flood-opacity="0" result="BackgroundImageFix"/>
<feBlend mode="normal" in="SourceGraphic" in2="BackgroundImageFix" result="shape"/>
<feGaussianBlur stdDeviation="2.75" result="effect1_foregroundBlur_743_18560"/>
</filter>
<filter id="filter3_f_743_18560" x="832.059" y="336.567" width="143.289" height="89.5696" filterUnits="userSpaceOnUse" color-interpolation-filters="sRGB">
<feFlood flood-opacity="0" result="BackgroundImageFix"/>
<feBlend mode="normal" in="SourceGraphic" in2="BackgroundImageFix" result="shape"/>
<feGaussianBlur stdDeviation="2.75" result="effect1_foregroundBlur_743_18560"/>
</filter>
<filter id="filter4_f_743_18560" x="987.344" y="354.91" width="269.156" height="157.59" filterUnits="userSpaceOnUse" color-interpolation-filters="sRGB">
<feFlood flood-opacity="0" result="BackgroundImageFix"/>
<feBlend mode="normal" in="SourceGraphic" in2="BackgroundImageFix" result="shape"/>
<feGaussianBlur stdDeviation="2.75" result="effect1_foregroundBlur_743_18560"/>
</filter>
<filter id="filter5_f_743_18560" x="987.824" y="418.128" width="28.5273" height="24.9348" filterUnits="userSpaceOnUse" color-interpolation-filters="sRGB">
<feFlood flood-opacity="0" result="BackgroundImageFix"/>
<feBlend mode="normal" in="SourceGraphic" in2="BackgroundImageFix" result="shape"/>
<feGaussianBlur stdDeviation="2.75" result="effect1_foregroundBlur_743_18560"/>
</filter>
<filter id="filter6_d_743_18560" x="1147.71" y="372.935" width="68.4258" height="95.4355" filterUnits="userSpaceOnUse" color-interpolation-filters="sRGB">
<feFlood flood-opacity="0" result="BackgroundImageFix"/>
<feColorMatrix in="SourceAlpha" type="matrix" values="0 0 0 0 0 0 0 0 0 0 0 0 0 0 0 0 0 0 127 0" result="hardAlpha"/>
<feOffset dx="4" dy="1"/>
<feGaussianBlur stdDeviation="4"/>
<feComposite in2="hardAlpha" operator="out"/>
<feColorMatrix type="matrix" values="0 0 0 0 0.0352941 0 0 0 0 0.0745098 0 0 0 0 0.054902 0 0 0 0.5 0"/>
<feBlend mode="normal" in2="BackgroundImageFix" result="effect1_dropShadow_743_18560"/>
<feBlend mode="normal" in="SourceGraphic" in2="effect1_dropShadow_743_18560" result="shape"/>
</filter>
<filter id="filter7_d_743_18560" x="1046.82" y="366.715" width="100.863" height="101.576" filterUnits="userSpaceOnUse" color-interpolation-filters="sRGB">
<feFlood flood-opacity="0" result="BackgroundImageFix"/>
<feColorMatrix in="SourceAlpha" type="matrix" values="0 0 0 0 0 0 0 0 0 0 0 0 0 0 0 0 0 0 127 0" result="hardAlpha"/>
<feOffset dx="4" dy="1"/>
<feGaussianBlur stdDeviation="4"/>
<feComposite in2="hardAlpha" operator="out"/>
<feColorMatrix type="matrix" values="0 0 0 0 0.0352941 0 0 0 0 0.0745098 0 0 0 0 0.054902 0 0 0 0.5 0"/>
<feBlend mode="normal" in2="BackgroundImageFix" result="effect1_dropShadow_743_18560"/>
<feBlend mode="normal" in="SourceGraphic" in2="effect1_dropShadow_743_18560" result="shape"/>
</filter>
<filter id="filter8_d_743_18560" x="965.93" y="350.576" width="89.8398" height="109.37" filterUnits="userSpaceOnUse" color-interpolation-filters="sRGB">
<feFlood flood-opacity="0" result="BackgroundImageFix"/>
<feColorMatrix in="SourceAlpha" type="matrix" values="0 0 0 0 0 0 0 0 0 0 0 0 0 0 0 0 0 0 127 0" result="hardAlpha"/>
<feOffset dx="4" dy="1"/>
<feGaussianBlur stdDeviation="4"/>
<feComposite in2="hardAlpha" operator="out"/>
<feColorMatrix type="matrix" values="0 0 0 0 0.0352941 0 0 0 0 0.0745098 0 0 0 0 0.054902 0 0 0 0.5 0"/>
<feBlend mode="normal" in2="BackgroundImageFix" result="effect1_dropShadow_743_18560"/>
<feBlend mode="normal" in="SourceGraphic" in2="effect1_dropShadow_743_18560" result="shape"/>
</filter>
<filter id="filter9_d_743_18560" x="870.59" y="366.715" width="93.25" height="55.2061" filterUnits="userSpaceOnUse" color-interpolation-filters="sRGB">
<feFlood flood-opacity="0" result="BackgroundImageFix"/>
<feColorMatrix in="SourceAlpha" type="matrix" values="0 0 0 0 0 0 0 0 0 0 0 0 0 0 0 0 0 0 127 0" result="hardAlpha"/>
<feOffset dx="4" dy="1"/>
<feGaussianBlur stdDeviation="4"/>
<feComposite in2="hardAlpha" operator="out"/>
<feColorMatrix type="matrix" values="0 0 0 0 0.0352941 0 0 0 0 0.0745098 0 0 0 0 0.054902 0 0 0 0.5 0"/>
<feBlend mode="normal" in2="BackgroundImageFix" result="effect1_dropShadow_743_18560"/>
<feBlend mode="normal" in="SourceGraphic" in2="effect1_dropShadow_743_18560" result="shape"/>
</filter>
<filter id="filter10_f_743_18560" x="832.074" y="341.998" width="24.0078" height="23.9934" filterUnits="userSpaceOnUse" color-interpolation-filters="sRGB">
<feFlood flood-opacity="0" result="BackgroundImageFix"/>
<feBlend mode="normal" in="SourceGraphic" in2="BackgroundImageFix" result="shape"/>
<feGaussianBlur stdDeviation="2" result="effect1_foregroundBlur_743_18560"/>
</filter>
<filter id="filter11_f_743_18560" x="829.074" y="338.999" width="30.0117" height="29.9912" filterUnits="userSpaceOnUse" color-interpolation-filters="sRGB">
<feFlood flood-opacity="0" result="BackgroundImageFix"/>
<feBlend mode="normal" in="SourceGraphic" in2="BackgroundImageFix" result="shape"/>
<feGaussianBlur stdDeviation="2" result="effect1_foregroundBlur_743_18560"/>
</filter>
<filter id="filter12_f_743_18560" x="828.074" y="337.999" width="32.0117" height="31.9902" filterUnits="userSpaceOnUse" color-interpolation-filters="sRGB">
<feFlood flood-opacity="0" result="BackgroundImageFix"/>
<feBlend mode="normal" in="SourceGraphic" in2="BackgroundImageFix" result="shape"/>
<feGaussianBlur stdDeviation="2" result="effect1_foregroundBlur_743_18560"/>
</filter>
<filter id="filter13_f_743_18560" x="826.074" y="336" width="36.0117" height="35.9888" filterUnits="userSpaceOnUse" color-interpolation-filters="sRGB">
<feFlood flood-opacity="0" result="BackgroundImageFix"/>
<feBlend mode="normal" in="SourceGraphic" in2="BackgroundImageFix" result="shape"/>
<feGaussianBlur stdDeviation="2" result="effect1_foregroundBlur_743_18560"/>
</filter>
<filter id="filter14_f_743_18560" x="833.074" y="342.997" width="22.0039" height="21.9951" filterUnits="userSpaceOnUse" color-interpolation-filters="sRGB">
<feFlood flood-opacity="0" result="BackgroundImageFix"/>
<feBlend mode="normal" in="SourceGraphic" in2="BackgroundImageFix" result="shape"/>
<feGaussianBlur stdDeviation="2.5" result="effect1_foregroundBlur_743_18560"/>
</filter>
<clipPath id="clip0_743_18560">
<rect width="1920" height="1080" fill="white"/>
</clipPath>
<clipPath id="clip1_743_18560">
<rect y="296.513" width="248" height="394" rx="13" transform="rotate(-24.6699 0 296.513)" fill="white"/>
</clipPath>
<clipPath id="clip2_743_18560">
<rect x="1797.13" y="679" width="254" height="280" rx="10" transform="rotate(12.61 1797.13 679)" fill="white"/>
</clipPath>
<clipPath id="clip3_743_18560">
<rect x="592.66" y="35.3756" width="253.483" height="159.536" rx="10" transform="rotate(114.981 592.66 35.3756)" fill="white"/>
</clipPath>
<clipPath id="clip4_743_18560">
<rect x="1979.18" y="341.965" width="265" height="385" rx="132.5" transform="rotate(-171.244 1979.18 341.965)" fill="white"/>
</clipPath>
<clipPath id="clip5_743_18560">
<rect width="472.782" height="518.42" fill="white" transform="translate(2081.43 343.284) rotate(-171.244)"/>
</clipPath>
<clipPath id="clip6_743_18560">
<rect x="37.1875" y="741" width="334" height="354" rx="13.2336" transform="rotate(14.7601 37.1875 741)" fill="white"/>
</clipPath>
</defs>
</svg>
