<svg width="1920" height="1080" viewBox="0 0 1920 1080" fill="none" xmlns="http://www.w3.org/2000/svg">
<g clip-path="url(#clip0_743_17555)">
<path d="M506.251 740.729C504.389 736.185 509.318 731.849 513.587 734.276L608.903 788.453C611.991 790.207 612.429 794.481 609.763 796.826L556.025 844.097C553.359 846.442 549.176 845.462 547.83 842.176L506.251 740.729Z" fill="#0485A2"/>
<path fill-rule="evenodd" clip-rule="evenodd" d="M554.921 794.082C530.891 815.22 490.442 869.759 540.579 977.618C580.204 1062.86 641.707 1138.24 683.335 1189.26C694.724 1203.22 704.625 1215.35 712.184 1225.37L872.555 1410.99C891.866 1432.75 936.311 1471.13 959.594 1450.65C963.407 1447.56 971.294 1441.26 972.34 1440.76C973.119 1440.39 973.277 1440.69 973.47 1441.04C973.536 1441.17 973.606 1441.3 973.707 1441.41L975.658 1443.93C976.122 1444.46 976.597 1445.02 977.126 1445.66C978.392 1447.16 979.972 1449.05 982.485 1451.69C986.75 1456.18 989.481 1459.04 1000.23 1449.59L1064.7 1392.87C1068.83 1389.33 1069.6 1380.36 1066.19 1376.48C1064.35 1374.39 1062.69 1372.59 1061.16 1370.94C1059.85 1369.53 1058.64 1368.22 1057.49 1366.92C1057.43 1366.84 1057.36 1366.77 1057.28 1366.7C1056.79 1366.19 1056.33 1365.71 1057.77 1364.82C1059.41 1363.8 1067.11 1356.78 1070.75 1353.4L1092.99 1333.84C1093.74 1333.09 1095.47 1332.03 1096.38 1333.77L1104.38 1342.88C1106.92 1345.76 1113.88 1349.82 1121.42 1342.98C1128.96 1336.14 1157.1 1311.51 1170.23 1300.05C1173.42 1297.06 1177.9 1288.85 1170.25 1279.91L1163.16 1271.85C1163.03 1271.61 1162.9 1271.02 1163.38 1270.6C1163.86 1270.18 1172.27 1257.83 1176.42 1251.71C1177.84 1249.41 1181.72 1241.97 1180.8 1240.44C1175.93 1232.35 1127.38 1174.98 1067.63 1111.79C1008.53 1049.28 979.198 1019.08 940.609 979.428C938.633 977.181 905.381 942.409 903.274 939.995L883.437 919.851L867.539 904.185C844.514 881.02 792.815 826.16 742.556 792.801C647.468 723.688 585.706 765.575 554.921 794.082Z" fill="#0E6F3A"/>
<path d="M561.634 933.418C554.764 906.228 565.71 889.223 571.736 884.012C576.08 880.808 587.69 875.009 599.378 877.441C613.988 880.48 629.773 892.691 644.648 905.686C658.395 917.695 675.767 939.493 687.27 959.566C687.27 959.566 699.493 977.683 704.196 1009.57C710.075 1049.42 667.367 1049.11 658.863 1047.59C650.36 1046.06 629.183 1035.56 615.903 1022.87C605.279 1012.73 592.608 995.691 584.186 983.501C572.463 966.533 566.124 951.187 561.634 933.418Z" fill="#FEE6CA"/>
<path d="M649.538 888.588C626.498 855.904 633.758 830.279 640.268 821.551C642.59 818.662 646.402 815.802 648.018 814.734C660.619 805.979 675.851 807.107 681.892 808.765C691.335 810.784 715.557 819.448 736.906 837.947C758.254 856.446 776.22 882.44 782.534 893.124C791.574 910.413 803.919 948.869 780.982 964.386C758.045 979.903 726.526 966.9 717.49 959.934C701.869 948.787 672.579 921.273 649.538 888.588Z" fill="#FEE6CA"/>
<path d="M1343.36 1123.39C1324.2 1135.79 1209.44 1231.38 1154.46 1277.62L1145.75 1274.94L1077.47 1158.19L1110.07 1144.09L1230.51 1138.35L1320.39 1125.56L1337.47 1118.49L1343.36 1123.39Z" fill="#0E6F3A"/>
<path d="M1093.53 1145.02C1092.08 1143.12 1091.82 1141.67 1092.23 1141.13C1092.23 1141.13 1093.59 1137.56 1095.95 1133.62C1098.75 1128.97 1102.59 1124.6 1102.59 1124.6C1113.25 1112.04 1136.99 1135.41 1139.17 1136.68C1140.91 1137.69 1142.41 1135.95 1142.94 1134.95C1154.9 1110.91 1178.38 1129.47 1182.12 1132.81C1185.1 1135.49 1187.77 1132.52 1188.74 1130.7C1204.59 1105.37 1233.37 1126.95 1238.5 1128.26C1242.61 1129.32 1243.69 1128.64 1243.72 1128.18C1253.91 1110.25 1274.64 1122.97 1279.08 1124.11C1282.63 1125.01 1283.87 1122.63 1284.05 1121.32C1290.76 1102.16 1311.25 1119.13 1313.35 1121.52C1315.03 1123.43 1316.59 1123.79 1317.15 1123.73C1322.67 1123.38 1336.98 1115.56 1337.69 1115.47C1338.4 1115.37 1342.03 1113.77 1344.68 1116.48C1346.79 1118.65 1347.65 1120.59 1342.36 1123.92L1339.71 1121.21C1337.84 1118.84 1335.88 1119.46 1335.15 1119.93C1280.86 1157.88 1100.25 1150.25 1099.26 1150.32C1098.46 1150.38 1097.56 1149.6 1097.21 1149.21C1096.59 1148.6 1094.99 1146.92 1093.53 1145.02Z" fill="#0485A2"/>
<path d="M924.662 984.47C922.482 983.664 920.078 984.892 919.454 987.131L906.624 1033.14C906.034 1035.25 907.271 1037.45 909.386 1038.04L1071.7 1083.3C1075.11 1084.25 1077.97 1080.6 1076.23 1077.52L1050.6 1032.05C1050.13 1031.23 1049.39 1030.6 1048.51 1030.28L924.662 984.47Z" fill="#0E6F3A"/>
<path d="M911.454 1030.88C909.4 1030.25 908.217 1028.1 908.781 1026.03L923.602 971.595C924.251 969.212 926.893 967.991 929.129 969.041L1086.52 1042.98C1089.71 1044.48 1089.52 1049.08 1086.21 1050.3L1037.04 1068.47C1036.22 1068.77 1035.33 1068.8 1034.5 1068.54L911.454 1030.88Z" fill="#0E6F3A"/>
<path d="M1067.18 1018.05C1068.44 1016.62 1067.17 1014.41 1065.3 1014.78L1033.33 1021.19C1032 1021.46 1031.32 1022.95 1032 1024.13L1042.43 1042.2C1043.11 1043.38 1044.75 1043.54 1045.64 1042.52L1067.18 1018.05Z" fill="#0E6F3A"/>
<path d="M723.996 1040.46C726.924 1042.38 732.892 1042.75 733.334 1028.8C733.886 1011.37 749.846 1021.69 753.845 1020.82C757.845 1019.95 758.635 1007.6 758.284 1002.09C758.003 997.677 763.631 997.033 766.48 997.262" stroke="#090909" stroke-width="6.34827" stroke-linecap="round"/>
<path d="M1009.57 1157.44C1075.23 1232.09 1062.46 1290 1017.78 1329.3C973.105 1368.6 913.443 1374.41 847.78 1299.76C782.117 1225.11 765.105 1132.74 809.782 1093.44C854.459 1054.14 943.907 1082.8 1009.57 1157.44Z" fill="#559472"/>
<g filter="url(#filter0_d_743_17555)">
<g clip-path="url(#clip1_743_17555)">
<path d="M113.231 249.38C112.871 245.728 117.33 243.68 119.867 246.332L176.502 305.556C178.336 307.474 177.734 310.628 175.322 311.736L126.712 334.063C124.3 335.171 121.515 333.573 121.255 330.931L113.231 249.38Z" fill="#0485A2"/>
<path fill-rule="evenodd" clip-rule="evenodd" d="M136.638 298.012C114.902 307.996 74.2481 338.376 87.0263 426.353C97.1252 495.883 125.005 563.04 143.874 608.494C149.037 620.931 153.525 631.742 156.79 640.534L231.829 807.821C240.993 827.536 264.588 864.549 285.65 854.875C289.042 853.48 296.041 850.658 296.896 850.527C297.533 850.429 297.583 850.673 297.644 850.972C297.665 851.074 297.688 851.182 297.735 851.285L298.592 853.508C298.811 853.985 299.03 854.491 299.273 855.056C299.857 856.408 300.584 858.096 301.817 860.528C303.908 864.656 305.25 867.291 314.971 862.826L373.296 836.037C377.007 834.387 379.484 828.127 377.871 824.616C377.002 822.723 376.198 821.084 375.458 819.574C374.826 818.285 374.239 817.088 373.696 815.907C373.665 815.839 373.63 815.771 373.595 815.703C373.351 815.236 373.122 814.796 374.342 814.464C375.737 814.085 382.754 810.71 386.088 809.069L406.205 799.829C406.904 799.454 408.371 799.065 408.642 800.51L412.425 808.745C413.624 811.356 417.738 815.755 424.601 812.472C431.464 809.189 456.893 797.585 468.75 792.194C471.679 790.74 476.646 785.821 473.083 777.778L469.734 770.488C469.696 770.287 469.729 769.836 470.161 769.638C470.593 769.439 479.264 762.404 483.546 758.912C485.053 757.566 489.429 753.069 489.1 751.781C487.348 744.942 464.88 693.455 435.645 635.401C406.725 577.974 392.198 550.065 373.068 513.4C372.135 511.367 355.78 479.342 354.789 477.162L344.903 458.486L336.877 443.861C325.357 422.339 300.099 371.976 271.264 337.316C217.994 267.447 164.792 284.199 136.638 298.012Z" fill="#0E6F3A"/>
<path d="M111.588 399.224C112.497 378.282 123.98 368.453 129.412 366.013C133.209 364.65 142.765 362.987 150.613 367.234C160.422 372.542 169.107 384.668 176.972 397.161C184.241 408.707 192.007 428.039 195.94 444.878C195.94 444.878 200.809 460.47 197.342 484.306C193.008 514.102 162.494 504.729 156.732 501.814C150.971 498.899 138.059 486.838 131.269 474.909C125.838 465.366 120.417 450.452 117 439.919C112.243 425.256 110.994 412.909 111.588 399.224Z" fill="#FEE6CA"/>
<path d="M184.137 385.962C174.651 357.621 185.365 340.819 191.908 335.961C194.193 334.388 197.541 333.155 198.929 332.736C209.844 329.161 220.519 333.229 224.492 335.709C230.826 339.176 246.324 350.565 257.648 368.384C268.972 386.203 276.259 408.666 278.487 417.671C281.249 431.989 281.828 462.177 262.051 468.383C242.274 474.589 222.479 458.53 217.5 451.607C208.701 440.28 193.624 414.304 184.137 385.962Z" fill="#FEE6CA"/>
<path d="M156.454 607.209C156.566 605.475 158.135 604.207 159.854 604.461L195.169 609.684C196.792 609.924 197.914 611.435 197.674 613.058L179.248 737.65C178.861 740.269 175.501 741.112 173.923 738.987L150.67 707.662C150.25 707.097 150.045 706.402 150.09 705.699L156.454 607.209Z" fill="#0E6F3A"/>
<path d="M192.151 612.299C192.345 610.706 191.24 609.246 189.654 609.001L147.979 602.578C146.155 602.296 144.518 603.729 144.556 605.575L147.206 735.518C147.26 738.154 150.464 739.419 152.304 737.532L179.653 709.481C180.107 709.015 180.396 708.413 180.475 707.767L192.151 612.299Z" fill="#0E6F3A"/>
<path d="M360.585 513.589C359.197 512.544 357.213 512.908 356.285 514.377L337.237 544.57C336.361 545.958 336.776 547.793 338.164 548.669L444.684 615.872C446.923 617.285 449.752 615.285 449.168 612.703L440.556 574.653C440.401 573.967 440.007 573.358 439.445 572.935L360.585 513.589Z" fill="#0E6F3A"/>
<path d="M341.188 543.984C339.852 543.094 339.465 541.304 340.313 539.942L362.594 504.142C363.57 502.575 365.723 502.267 367.099 503.498L463.945 590.176C465.909 591.934 464.781 595.19 462.15 595.356L423.052 597.825C422.402 597.866 421.758 597.693 421.216 597.332L341.188 543.984Z" fill="#0E6F3A"/>
<path d="M213.398 498.201C213.928 497.091 215.259 496.62 216.369 497.15C217.48 497.681 217.949 499.011 217.419 500.122C216.329 502.406 214.593 505.951 212.923 509.173C212.858 509.3 212.791 509.425 212.725 509.551C213.008 509.379 213.295 509.205 213.585 509.028C215.97 507.576 218.566 506.005 220.797 504.754C221.912 504.129 222.963 503.568 223.868 503.136C224.712 502.733 225.626 502.345 226.392 502.201C227.602 501.974 228.766 502.771 228.993 503.98C229.22 505.19 228.424 506.355 227.215 506.582C227.077 506.608 226.628 506.758 225.788 507.159C225.009 507.53 224.054 508.038 222.977 508.642C220.825 509.849 218.295 511.378 215.904 512.834C213.539 514.275 211.284 515.66 209.756 516.528C209.043 516.932 208.313 517.327 207.789 517.516C207.659 517.563 207.398 517.651 207.085 517.686C206.932 517.702 206.626 517.723 206.261 517.634C205.869 517.539 205.265 517.276 204.86 516.621C204.47 515.99 204.496 515.368 204.553 515.034C204.61 514.702 204.726 514.452 204.793 514.323C204.929 514.059 205.096 513.852 205.194 513.736L205.3 513.6C205.576 513.231 206.041 512.494 206.666 511.395C207.349 510.195 208.144 508.708 208.965 507.123C210.607 503.955 212.322 500.455 213.398 498.201Z" fill="#090909"/>
<path d="M388.057 650.322C419.072 717.846 397.512 756.572 357.097 775.135C316.683 793.698 272.718 785.068 241.704 717.544C210.689 650.02 218.309 580.233 258.723 561.67C299.138 543.107 357.042 582.798 388.057 650.322Z" fill="#559472"/>
</g>
</g>
<path d="M1569.99 433.593C1571.51 431.1 1575.33 431.934 1575.67 434.834L1583.29 499.582C1583.54 501.679 1581.64 503.394 1579.58 502.943L1538 493.851C1535.94 493.399 1534.94 491.05 1536.04 489.248L1569.99 433.593Z" fill="#0485A2"/>
<path fill-rule="evenodd" clip-rule="evenodd" d="M1561.59 475.7C1543 471.634 1502.62 471.468 1468.61 533.482C1441.73 582.493 1427.28 638.511 1417.5 676.426C1414.83 686.799 1412.5 695.817 1410.37 702.966L1377.93 845.183C1374.32 862.098 1371.58 896.912 1389.6 900.852C1392.42 901.59 1398.22 903.148 1398.82 903.475C1399.27 903.718 1399.19 903.897 1399.09 904.116C1399.05 904.191 1399.01 904.27 1398.99 904.358L1398.47 906.181C1398.38 906.589 1398.28 907.015 1398.16 907.491C1397.89 908.629 1397.54 910.05 1397.16 912.185C1396.51 915.809 1396.1 918.126 1404.42 919.945L1454.3 930.855C1457.45 931.583 1462.02 928.792 1462.68 925.79C1463.03 924.17 1463.31 922.745 1463.56 921.43C1463.77 920.308 1463.97 919.267 1464.2 918.257C1464.21 918.198 1464.22 918.138 1464.23 918.079C1464.3 917.666 1464.36 917.276 1465.3 917.649C1466.36 918.077 1472.44 919.292 1475.34 919.847L1492.55 923.61C1493.17 923.706 1494.29 924.161 1493.77 925.209L1492.23 932.253C1491.74 934.485 1492.25 939.251 1498.18 940.451C1504.11 941.652 1525.83 946.457 1535.94 948.71C1538.5 949.188 1544.01 948.441 1545.6 941.626L1546.96 935.39C1547.03 935.244 1547.27 934.974 1547.64 935.054C1548.01 935.135 1556.89 934.818 1561.28 934.65C1562.88 934.516 1567.82 933.755 1568.22 932.779C1570.39 927.595 1580.77 884.124 1589.99 833.24C1599.12 782.907 1603.25 758.218 1608.66 725.763C1609.04 724.025 1613.98 695.846 1614.4 693.986L1617.06 677.387L1618.96 664.252C1621.95 645.061 1630.02 600.968 1628.3 565.14C1627.91 495.24 1586.09 480.406 1561.59 475.7Z" fill="#0E6F3A"/>
<path d="M1497.21 528.007C1507.82 515.138 1519.82 514.392 1524.44 515.442C1527.5 516.395 1534.37 519.915 1537.32 526.37C1541.01 534.44 1540.72 546.304 1539.74 558.007C1538.83 568.823 1534.5 584.825 1528.94 597.407C1528.94 597.407 1524.57 609.644 1510.95 623.128C1493.93 639.983 1479.03 619.415 1476.76 614.805C1474.5 610.194 1472.07 596.348 1473.47 585.517C1474.59 576.853 1478.29 564.782 1481.16 556.454C1485.16 544.86 1490.28 536.417 1497.21 528.007Z" fill="#FEE6CA"/>
<path d="M1549.65 554.326C1557.19 531.775 1572.03 526.226 1578.5 526.27C1580.7 526.365 1583.41 527.184 1584.5 527.582C1593.13 530.535 1597.95 538.229 1599.29 541.707C1601.65 546.942 1606.03 561.599 1604.69 578.343C1603.34 595.087 1597.22 612.85 1594.33 619.639C1589.23 630.059 1575.15 649.52 1559.64 643.998C1544.13 638.475 1539.25 618.795 1539.41 612.012C1539.24 600.602 1542.11 576.878 1549.65 554.326Z" fill="#FEE6CA"/>
<path d="M1681.57 969.425C1668.88 964.614 1582.66 943.31 1541.14 933.26L1539.35 928.144L1571.23 854.304L1589.47 864.957L1634.65 920.634L1672.43 959.189L1681.84 964.88L1681.57 969.425Z" fill="#0E6F3A"/>
<path d="M1583.2 857.364C1583.59 855.997 1584.2 855.363 1584.6 855.37C1584.6 855.37 1586.79 854.759 1589.51 854.506C1592.73 854.207 1596.17 854.509 1596.17 854.509C1605.95 855.194 1603.11 874.799 1603.27 876.287C1603.4 877.477 1604.76 877.582 1605.43 877.485C1621.16 874.749 1620.54 892.537 1620.25 895.502C1620.02 897.874 1622.39 898.108 1623.59 897.929C1641.32 896.597 1641.12 917.989 1642.29 920.911C1643.24 923.248 1643.94 923.531 1644.18 923.381C1656.35 921.943 1657.56 936.359 1658.58 938.884C1659.4 940.903 1660.97 940.659 1661.66 940.285C1673.21 936.755 1672.3 952.541 1671.89 954.391C1671.57 955.87 1671.94 956.743 1672.17 956.995C1674.28 959.515 1683.07 963.617 1683.37 963.924C1683.66 964.231 1685.7 965.404 1685.34 967.626C1685.05 969.403 1684.42 970.498 1680.96 969.136L1681.33 966.915C1681.8 965.179 1680.81 964.462 1680.33 964.275C1643.03 951.636 1583.06 862.421 1582.68 861.973C1582.37 861.615 1582.42 860.909 1582.49 860.6C1582.56 860.091 1582.8 858.731 1583.2 857.364Z" fill="#0485A2"/>
<path d="M1426.11 681.634C1427.02 680.586 1428.62 680.532 1429.59 681.516L1449.53 701.746C1450.44 702.676 1450.43 704.173 1449.5 705.089L1378.13 775.424C1376.63 776.902 1374.09 775.829 1374.11 773.722L1374.34 742.686C1374.34 742.126 1374.54 741.586 1374.91 741.161L1426.11 681.634Z" fill="#0E6F3A"/>
<path d="M1362.89 740.45C1361.82 740.07 1361.85 738.554 1362.93 738.211L1381.4 732.326C1382.17 732.08 1382.96 732.664 1382.94 733.472L1382.73 745.878C1382.71 746.686 1381.91 747.243 1381.15 746.971L1362.89 740.45Z" fill="#0E6F3A"/>
<path d="M1446.36 701.962C1447.24 701.043 1447.24 699.587 1446.35 698.672L1422.95 674.634C1421.92 673.581 1420.2 673.708 1419.34 674.899L1358.8 758.725C1357.57 760.425 1359 762.764 1361.07 762.446L1391.88 757.721C1392.39 757.642 1392.86 757.398 1393.22 757.026L1446.36 701.962Z" fill="#0E6F3A"/>
<path d="M1600.63 719.901C1600.25 718.572 1598.81 717.853 1597.52 718.343L1570.96 728.403C1569.74 728.866 1569.12 730.23 1569.59 731.451L1605.08 825.157C1605.83 827.127 1608.58 827.211 1609.45 825.291L1622.2 796.993C1622.43 796.483 1622.47 795.907 1622.31 795.369L1600.63 719.901Z" fill="#0E6F3A"/>
<path d="M1573.75 729.923C1573.32 728.718 1573.94 727.395 1575.13 726.936L1606.43 714.861C1607.8 714.332 1609.31 715.168 1609.6 716.609L1629.62 818.055C1630.02 820.112 1627.75 821.641 1626 820.486L1599.97 803.332C1599.54 803.047 1599.22 802.628 1599.04 802.14L1573.75 729.923Z" fill="#0E6F3A"/>
<path d="M1634.74 800.006C1635.87 800.105 1636.48 798.717 1635.64 797.955L1621.31 784.896C1620.72 784.351 1619.76 784.554 1619.44 785.295L1614.45 796.657C1614.13 797.398 1614.63 798.239 1615.43 798.309L1634.74 800.006Z" fill="#0E6F3A"/>
<path d="M1548.13 821.613C1535.5 879.365 1503.26 893.645 1468.69 886.085C1434.12 878.526 1410.32 851.99 1422.95 794.237C1435.59 736.485 1473.85 695.796 1508.41 703.355C1542.98 710.915 1560.76 763.861 1548.13 821.613Z" fill="#559472"/>
<path d="M1524.13 644.335L1513.96 642.898" stroke="#090909" stroke-width="3.91405" stroke-linecap="round"/>
<g clip-path="url(#clip2_743_17555)">
<path d="M1865.98 807.133C1865.59 805.135 1867.95 803.773 1869.48 805.107L1903.82 834.879C1904.93 835.843 1904.76 837.616 1903.49 838.352L1877.8 853.195C1876.53 853.931 1874.91 853.192 1874.63 851.747L1865.98 807.133Z" fill="#0485A2"/>
<path fill-rule="evenodd" clip-rule="evenodd" d="M1881.42 832.771C1869.94 839.408 1849.06 858.285 1860.66 906.202C1869.84 944.071 1888.7 979.711 1901.47 1003.83C1904.97 1010.43 1908 1016.17 1910.26 1020.86L1960.35 1109.35C1966.43 1119.76 1981.37 1138.97 1992.5 1132.54C1994.3 1131.6 1998.02 1129.68 1998.48 1129.56C1998.83 1129.47 1998.87 1129.61 1998.92 1129.77C1998.93 1129.82 1998.95 1129.88 1998.98 1129.94L1999.57 1131.12C1999.72 1131.37 1999.87 1131.64 2000.03 1131.94C2000.42 1132.66 2000.91 1133.55 2001.72 1134.83C2003.08 1137 2003.96 1138.39 2009.1 1135.42L2039.92 1117.61C2041.88 1116.51 2042.93 1112.92 2041.85 1111.07C2041.28 1110.07 2040.75 1109.2 2040.26 1108.41C2039.84 1107.73 2039.46 1107.1 2039.1 1106.47C2039.08 1106.44 2039.05 1106.4 2039.03 1106.37C2038.87 1106.12 2038.72 1105.89 2039.38 1105.64C2040.13 1105.36 2043.83 1103.14 2045.59 1102.06L2056.22 1095.92C2056.58 1095.67 2057.37 1095.38 2057.6 1096.16L2060.11 1100.52C2060.91 1101.9 2063.41 1104.11 2067.03 1101.94C2070.65 1099.78 2084.09 1092.05 2090.36 1088.46C2091.9 1087.51 2094.39 1084.54 2092 1080.28L2089.78 1076.43C2089.75 1076.32 2089.74 1076.07 2089.97 1075.94C2090.2 1075.8 2094.62 1071.47 2096.8 1069.32C2097.57 1068.5 2099.75 1065.79 2099.5 1065.1C2098.18 1061.41 2083.11 1034.14 2063.97 1003.6C2045.03 973.388 2035.57 958.729 2023.11 939.473C2022.49 938.399 2011.8 921.562 2011.14 920.409L2004.72 910.609L1999.53 902.948C1992.05 891.66 1975.5 865.158 1957.79 847.511C1924.76 811.687 1896.25 823.688 1881.42 832.771Z" fill="#0E6F3A"/>
<path d="M1872.83 889.952C1872.24 878.342 1878.08 872.321 1880.95 870.693C1882.98 869.744 1888.17 868.331 1892.72 870.27C1898.41 872.694 1903.83 878.941 1908.82 885.432C1913.43 891.431 1918.72 901.704 1921.76 910.798C1921.76 910.798 1925.26 919.156 1924.58 932.497C1923.72 949.173 1906.39 945.575 1903.06 944.264C1899.73 942.953 1891.97 936.96 1887.61 930.725C1884.11 925.736 1880.35 917.782 1877.92 912.142C1874.53 904.292 1873.21 897.539 1872.83 889.952Z" fill="#FEE6CA"/>
<path d="M1912.2 878.882C1905.49 863.723 1910.52 853.899 1913.88 850.881C1915.06 849.895 1916.84 849.043 1917.59 848.74C1923.42 846.207 1929.52 847.904 1931.84 849.069C1935.51 850.658 1944.65 856.15 1951.83 865.405C1959 874.66 1964.19 886.686 1965.88 891.542C1968.15 899.305 1970.04 915.939 1959.46 920.38C1948.87 924.822 1937.12 916.973 1934.01 913.406C1928.57 907.605 1918.9 894.04 1912.2 878.882Z" fill="#FEE6CA"/>
<path d="M1908.35 1002.47C1908.32 1001.51 1909.13 1000.73 1910.09 1000.78L1929.86 1001.84C1930.77 1001.89 1931.46 1002.66 1931.42 1003.57L1927.68 1073.32C1927.61 1074.79 1925.79 1075.42 1924.81 1074.33L1910.35 1058.24C1910.09 1057.95 1909.94 1057.58 1909.93 1057.18L1908.35 1002.47Z" fill="#0E6F3A"/>
<path d="M1928.33 1003.44C1928.35 1002.55 1927.67 1001.8 1926.78 1001.75L1903.43 1000.35C1902.41 1000.29 1901.58 1001.17 1901.7 1002.19L1909.88 1073.8C1910.05 1075.25 1911.88 1075.78 1912.8 1074.65L1926.45 1057.74C1926.68 1057.46 1926.81 1057.12 1926.82 1056.75L1928.33 1003.44Z" fill="#0E6F3A"/>
</g>
<g clip-path="url(#clip3_743_17555)">
<path d="M504.156 51.7344C505.192 50.6827 506.973 51.5332 506.807 53.0001L503.09 85.7509C502.969 86.8117 501.84 87.4378 500.876 86.9778L481.46 77.7063C480.496 77.2463 480.273 75.9741 481.023 75.2136L504.156 51.7344Z" fill="#0485A2"/>
<path fill-rule="evenodd" clip-rule="evenodd" d="M495.158 71.4907C486.475 67.3447 466.619 62.6055 442.724 89.2084C423.839 110.233 410.266 136.141 401.08 153.676C398.566 158.474 396.381 162.645 394.505 165.918L362.135 232.182C358.403 240.091 353.042 256.912 361.454 260.929C362.759 261.619 365.433 263.054 365.694 263.285C365.888 263.457 365.826 263.535 365.749 263.631C365.723 263.664 365.695 263.698 365.675 263.74L365.209 264.577C365.118 264.767 365.018 264.965 364.906 265.186C364.639 265.714 364.305 266.374 363.87 267.381C363.134 269.09 362.665 270.183 366.548 272.037L389.844 283.162C391.31 283.884 393.882 283.037 394.552 281.635C394.913 280.879 395.212 280.208 395.488 279.591C395.724 279.063 395.943 278.574 396.168 278.102C396.181 278.075 396.193 278.046 396.205 278.018C396.286 277.823 396.363 277.639 396.78 277.93C397.256 278.264 400.106 279.563 401.472 280.17L409.507 284.007C409.803 284.127 410.301 284.48 409.924 284.936L408.354 288.225C407.856 289.268 407.555 291.672 410.337 292.947C413.119 294.223 423.253 299.092 427.972 301.368C429.175 301.899 431.974 302.167 433.542 298.995L434.932 296.083C434.985 296.019 435.133 295.913 435.305 295.996C435.478 296.078 439.884 296.946 442.066 297.37C442.87 297.489 445.387 297.683 445.7 297.25C447.362 294.947 457.486 274.747 467.897 250.764C478.195 227.04 483.079 215.364 489.483 200.012C489.87 199.2 495.555 185.899 495.973 185.032L499.199 177.168L501.651 170.922C505.335 161.82 514.394 141.047 517.679 123.212C525.552 88.7595 506.675 76.6333 495.158 71.4907Z" fill="#0E6F3A"/>
<path d="M457.433 89.8125C464.139 84.701 470.133 85.7182 472.286 86.7682C473.684 87.5907 476.659 90.1153 477.368 93.6338C478.253 98.0318 476.742 103.838 474.907 109.486C473.211 114.705 469.238 122.082 465.047 127.634C465.047 127.634 461.483 133.153 453.224 138.22C442.901 144.553 437.94 132.71 437.357 130.18C436.774 127.649 437.177 120.553 439.114 115.383C440.665 111.247 443.877 105.732 446.252 101.964C449.558 96.7183 453.052 93.1528 457.433 89.8125Z" fill="#FEE6CA"/>
<path d="M480.212 108.817C486.526 98.5859 494.468 97.5656 497.649 98.3343C498.722 98.6348 499.963 99.351 500.45 99.6715C504.359 102.121 505.846 106.465 506.102 108.331C506.659 111.18 507.125 118.9 504.533 126.987C501.941 135.074 496.878 143.112 494.67 146.12C490.958 150.661 481.785 158.617 474.786 154.109C467.786 149.601 467.658 139.352 468.516 136.031C469.752 130.395 473.898 119.048 480.212 108.817Z" fill="#FEE6CA"/>
<path d="M497.268 328.363C491.575 324.53 451.592 304.099 432.312 294.362L432.024 291.638L456.233 258.968L463.983 266.315L479.798 298.933L493.952 322.27L497.924 326.156L497.268 328.363Z" fill="#0E6F3A"/>
<path d="M461.769 261.855C462.122 261.228 462.493 260.985 462.69 261.035C462.69 261.035 463.839 260.987 465.207 261.176C466.823 261.399 468.483 261.945 468.483 261.945C473.217 263.41 469.56 272.734 469.467 273.484C469.392 274.085 470.052 274.294 470.391 274.324C478.449 274.791 476.092 283.475 475.609 284.902C475.223 286.043 476.359 286.431 476.975 286.482C485.852 287.871 483.286 298.378 483.528 299.952C483.722 301.211 484.036 301.432 484.169 301.385C490.329 302.082 489.26 309.317 489.471 310.677C489.641 311.766 490.446 311.828 490.827 311.722C496.918 311.316 494.648 318.982 494.236 319.846C493.906 320.537 493.99 321.01 494.072 321.16C494.821 322.644 498.673 325.677 498.784 325.862C498.894 326.047 499.764 326.861 499.329 327.912C498.98 328.753 498.543 329.219 496.999 328.151L497.435 327.099C497.87 326.3 497.466 325.833 497.249 325.685C480.345 315.16 461.118 264.328 460.98 264.063C460.869 263.851 460.979 263.51 461.048 263.366C461.141 263.124 461.417 262.482 461.769 261.855Z" fill="#0485A2"/>
<path d="M404.713 157.233C405.278 156.821 406.074 156.979 406.438 157.576L413.918 169.833C414.262 170.397 414.084 171.132 413.52 171.476L370.276 197.865C369.367 198.42 368.241 197.599 368.491 196.564L372.183 181.312C372.25 181.037 372.412 180.795 372.64 180.628L404.713 157.233Z" fill="#0E6F3A"/>
<path d="M366.812 178.892C366.332 178.582 366.52 177.838 367.09 177.794L376.862 177.028C377.269 176.996 377.588 177.373 377.488 177.77L375.951 183.852C375.851 184.248 375.391 184.429 375.048 184.207L366.812 178.892Z" fill="#0E6F3A"/>
<path d="M412.336 169.574C412.878 169.224 413.045 168.507 412.712 167.954L403.966 153.422C403.583 152.786 402.718 152.649 402.158 153.136L362.687 187.415C361.887 188.111 362.321 189.427 363.378 189.509L379.088 190.737C379.349 190.758 379.609 190.692 379.829 190.55L412.336 169.574Z" fill="#0E6F3A"/>
<path d="M486.209 196.2C486.174 195.502 485.551 194.982 484.858 195.074L470.623 196.963C469.969 197.049 469.509 197.65 469.596 198.305L476.258 248.525C476.398 249.58 477.745 249.94 478.392 249.094L487.932 236.635C488.104 236.411 488.191 236.132 488.177 235.85L486.209 196.2Z" fill="#0E6F3A"/>
<path d="M471.824 198.032C471.755 197.39 472.208 196.81 472.848 196.721L489.647 194.387C490.383 194.285 491.032 194.871 491.006 195.613L489.16 247.859C489.123 248.919 487.826 249.409 487.098 248.639L476.267 237.193C476.087 237.003 475.974 236.759 475.946 236.499L471.824 198.032Z" fill="#0E6F3A"/>
<path d="M493.764 239.567C494.308 239.746 494.767 239.133 494.444 238.661L488.896 230.58C488.665 230.243 488.171 230.232 487.926 230.56L484.162 235.578C483.917 235.905 484.065 236.376 484.453 236.504L493.764 239.567Z" fill="#0E6F3A"/>
<path d="M448.416 240.109C435.537 267.08 418.019 270.39 401.876 262.682C385.733 254.974 377.079 239.166 389.958 212.195C402.837 185.224 426.364 169.608 442.506 177.316C458.649 185.024 461.295 213.138 448.416 240.109Z" fill="#559472"/>
<path d="M450.818 149.365L452.275 151.584L459.665 150.808C460.174 150.389 460.783 149.355 459.143 148.572" stroke="#090909" stroke-width="2" stroke-linecap="round"/>
</g>
<g clip-path="url(#clip4_743_17555)">
<g clip-path="url(#clip5_743_17555)">
<path d="M1850.32 299.89C1848.96 302.474 1845.1 301.88 1844.58 299.006L1832.92 234.833C1832.54 232.755 1834.33 230.923 1836.41 231.245L1878.49 237.726C1880.58 238.048 1881.73 240.331 1880.75 242.199L1850.32 299.89Z" fill="#0485A2"/>
<path fill-rule="evenodd" clip-rule="evenodd" d="M1856.81 257.435C1875.63 260.332 1915.94 257.975 1946.03 193.93C1969.8 143.315 1980.72 86.4803 1988.12 48.0129C1990.14 37.4882 1991.9 28.3385 1993.59 21.0669L2017.08 -122.959C2019.64 -140.074 2020.2 -175.005 2001.97 -177.813C1999.1 -178.373 1993.22 -179.566 1992.59 -179.855C1992.13 -180.069 1992.2 -180.253 1992.29 -180.478C1992.32 -180.555 1992.35 -180.637 1992.37 -180.726L1992.77 -182.579C1992.84 -182.992 1992.91 -183.424 1993 -183.906C1993.2 -185.06 1993.46 -186.5 1993.71 -188.656C1994.13 -192.315 1994.39 -194.654 1985.98 -195.95L1935.5 -203.725C1932.31 -204.256 1927.92 -201.183 1927.45 -198.145C1927.2 -196.505 1927.01 -195.065 1926.84 -193.737C1926.7 -192.603 1926.56 -191.55 1926.41 -190.529C1926.4 -190.469 1926.39 -190.408 1926.38 -190.349C1926.34 -189.932 1926.3 -189.538 1925.34 -189.853C1924.25 -190.213 1918.11 -191.047 1915.18 -191.419L1897.77 -194.1C1897.14 -194.158 1895.99 -194.543 1896.45 -195.621L1897.54 -202.751C1897.89 -205.011 1897.09 -209.737 1891.09 -210.564C1885.09 -211.392 1863.12 -214.833 1852.88 -216.45C1850.3 -216.768 1844.84 -215.678 1843.68 -208.773L1842.71 -202.462C1842.65 -202.312 1842.43 -202.027 1842.05 -202.085C1841.68 -202.142 1832.84 -201.271 1828.46 -200.828C1826.87 -200.594 1821.99 -199.526 1821.65 -198.526C1819.81 -193.215 1812.16 -149.162 1806.13 -97.7797C1800.16 -46.9534 1797.58 -22.0451 1794.21 10.6982C1793.94 12.4581 1790.76 40.9024 1790.46 42.7852L1788.84 59.5254L1787.76 72.7594C1785.98 92.1067 1780.67 136.636 1784.63 172.302C1789.38 242.07 1832.06 254.267 1856.81 257.435Z" fill="#0E6F3A"/>
<path d="M1917.81 201.18C1908.02 214.693 1896.09 216.187 1891.41 215.427C1888.29 214.668 1881.21 211.582 1877.86 205.321C1873.67 197.494 1873.22 185.631 1873.47 173.883C1873.71 163.027 1877.02 146.78 1881.79 133.87C1881.79 133.87 1885.39 121.378 1898.15 107.064C1914.09 89.1707 1930.25 108.777 1932.8 113.239C1935.35 117.701 1938.64 131.374 1937.92 142.275C1937.34 150.996 1934.41 163.28 1932.06 171.775C1928.79 183.601 1924.2 192.35 1917.81 201.18Z" fill="#FEE6CA"/>
<path d="M1863.8 178.179C1857.68 201.167 1843.22 207.634 1836.75 207.995C1834.55 208.037 1831.79 207.389 1830.68 207.06C1821.88 204.65 1816.58 197.269 1815.03 193.88C1812.35 188.8 1807.06 174.44 1807.35 157.638C1807.64 140.836 1812.65 122.717 1815.12 115.758C1819.55 105.035 1832.39 84.7237 1848.23 89.2688C1864.06 93.8138 1870.16 113.16 1870.43 119.941C1871.3 131.324 1869.93 155.19 1863.8 178.179Z" fill="#FEE6CA"/>
<path d="M1802.56 16.043C1803.02 17.346 1804.5 17.974 1805.76 17.4041L1831.65 5.69996C1832.84 5.1618 1833.37 3.76048 1832.83 2.5709L1791.54 -88.7738C1790.67 -90.6939 1787.91 -90.6061 1787.17 -88.6348L1776.21 -59.5836C1776.01 -59.0599 1776 -58.4829 1776.19 -57.9547L1802.56 16.043Z" fill="#0E6F3A"/>
<path d="M1828.77 4.35621C1829.27 5.53305 1828.74 6.89192 1827.58 7.42526L1797.09 21.4373C1795.75 22.0506 1794.18 21.3109 1793.81 19.8905L1767.48 -80.1495C1766.95 -82.179 1769.12 -83.8467 1770.94 -82.8037L1798 -67.3017C1798.45 -67.0443 1798.8 -66.6465 1799 -66.169L1828.77 4.35621Z" fill="#0E6F3A"/>
<path d="M1848.63 -88.7936C1857.63 -147.246 1888.93 -163.518 1923.91 -158.13C1958.9 -152.741 1984.32 -127.733 1975.32 -69.2802C1966.31 -10.8275 1930.66 32.1898 1895.67 26.8013C1860.68 21.4129 1839.62 -30.3409 1848.63 -88.7936Z" fill="#559472"/>
<path d="M1884.04 79.3504C1881.35 80.3585 1877.33 83.6018 1882.81 88.5099C1889.66 94.6451 1890.91 76.2154 1884.04 79.3504Z" stroke="#090909" stroke-width="5" stroke-linecap="round"/>
</g>
</g>
<g clip-path="url(#clip6_743_17555)">
<path d="M235.648 916.521C238.296 915.918 240.214 919.002 238.502 921.11L200.28 968.191C199.042 969.716 196.67 969.567 195.633 967.899L174.726 934.283C173.689 932.615 174.604 930.422 176.519 929.986L235.648 916.521Z" fill="#0485A2"/>
<path fill-rule="evenodd" clip-rule="evenodd" d="M202.115 938.226C192.767 923.194 166.687 896.168 103.282 913.72C53.1714 927.591 6.4545 954.296 -25.1652 972.371C-33.8163 977.316 -41.3373 981.615 -47.4884 984.829L-163.34 1055.46C-176.964 1064.02 -201.947 1084.78 -192.889 1099.34C-191.55 1101.7 -188.828 1106.58 -188.652 1107.19C-188.521 1107.65 -188.696 1107.71 -188.909 1107.78C-188.982 1107.81 -189.06 1107.84 -189.131 1107.88L-190.683 1108.72C-191.013 1108.92 -191.365 1109.13 -191.757 1109.36C-192.695 1109.91 -193.867 1110.6 -195.538 1111.74C-198.374 1113.65 -200.184 1114.88 -196.004 1121.61L-170.919 1161.94C-169.363 1164.51 -164.537 1165.75 -162.109 1164.24C-160.8 1163.42 -159.671 1162.68 -158.631 1162C-157.743 1161.41 -156.919 1160.87 -156.102 1160.36C-156.055 1160.34 -156.009 1160.3 -155.962 1160.27C-155.642 1160.05 -155.34 1159.84 -154.984 1160.7C-154.575 1161.69 -151.446 1166.53 -149.932 1168.83L-141.28 1182.74C-140.939 1183.22 -140.517 1184.26 -141.553 1184.59L-147.248 1188.13C-149.053 1189.26 -151.901 1192.68 -148.854 1197.42C-145.806 1202.15 -134.925 1219.74 -129.866 1227.95C-128.526 1229.96 -124.453 1233.15 -118.88 1229.79L-113.838 1226.66C-113.694 1226.61 -113.36 1226.59 -113.174 1226.89C-112.988 1227.19 -107.018 1232.9 -104.056 1235.72C-102.928 1236.7 -99.2201 1239.5 -98.3056 1239.14C-93.4469 1237.22 -57.7322 1215.94 -17.8244 1189.08C21.6516 1162.52 40.7932 1149.26 65.9358 1131.81C67.3414 1130.94 89.3354 1115.96 90.8439 1115.03L103.637 1106.03L113.63 1098.78C128.361 1088.33 162.992 1065.11 185.76 1040.72C232.111 995.118 214.871 957.613 202.115 938.226Z" fill="#0E6F3A"/>
<path d="M125.483 929.235C140.943 927.958 149.225 935.476 151.521 939.237C152.874 941.898 154.983 948.76 152.594 954.916C149.608 962.611 141.511 970.113 133.069 977.048C125.267 983.456 111.795 990.954 99.7978 995.405C99.7978 995.405 88.8024 1000.43 70.9799 1000.1C48.7019 999.681 52.75 976.407 54.355 971.906C55.9599 967.406 63.616 956.806 71.7437 950.713C78.2458 945.839 88.6917 940.474 96.108 936.987C106.431 932.134 115.38 930.07 125.483 929.235Z" fill="#FEE6CA"/>
<path d="M141.955 981.268C161.882 971.668 175.203 977.958 179.373 982.303C180.739 983.832 181.952 986.172 182.388 987.151C186.02 994.822 184.02 1003.03 182.566 1006.18C180.606 1011.14 173.678 1023.57 161.644 1033.54C149.611 1043.5 133.796 1050.94 127.393 1053.42C117.138 1056.78 95.0343 1060.02 88.653 1046.09C82.2717 1032.17 92.2311 1016.15 96.8532 1011.86C104.355 1004.35 122.028 990.868 141.955 981.268Z" fill="#FEE6CA"/>
<path d="M56.2051 1013.95C58.7881 1015.89 63.8859 1021.14 63.6125 1026.7" stroke="#090909" stroke-width="3" stroke-linecap="round"/>
<path d="M-37.2299 1153.63C-83.9251 1182.67 -114.359 1170.44 -131.741 1142.49C-149.122 1114.54 -146.869 1081.46 -100.174 1052.42C-53.4789 1023.38 -1.53446 1022.5 15.8471 1050.44C33.2287 1078.39 9.4653 1124.59 -37.2299 1153.63Z" fill="#559472"/>
</g>
<path d="M1392.99 288.716C1393.99 292.671 1389.44 295.669 1386.2 293.179L1314.04 237.586C1311.7 235.785 1311.83 232.218 1314.3 230.597L1363.98 197.912C1366.44 196.29 1369.77 197.58 1370.5 200.439L1392.99 288.716Z" fill="#0485A2"/>
<path fill-rule="evenodd" clip-rule="evenodd" d="M1359.11 239.196C1381.32 224.58 1420.9 184.379 1392.12 89.8367C1369.36 15.1177 1327.47 -54.0133 1299.11 -100.804C1291.35 -113.605 1284.61 -124.735 1279.55 -133.849L1169.04 -305.116C1155.67 -325.246 1123.53 -361.967 1102.01 -347.805C1098.51 -345.704 1091.29 -341.43 1090.38 -341.142C1089.69 -340.928 1089.6 -341.188 1089.48 -341.506C1089.44 -341.614 1089.4 -341.73 1089.33 -341.835L1088.01 -344.134C1087.69 -344.622 1087.37 -345.142 1087 -345.722C1086.14 -347.11 1085.05 -348.843 1083.29 -351.309C1080.3 -355.494 1078.39 -358.166 1068.45 -351.629L1008.84 -312.412C1005.04 -309.977 1003.37 -302.682 1005.73 -299.094C1007 -297.16 1008.16 -295.493 1009.23 -293.958C1010.14 -292.646 1010.98 -291.43 1011.78 -290.223C1011.82 -290.153 1011.87 -290.084 1011.92 -290.016C1012.27 -289.543 1012.59 -289.098 1011.31 -288.529C1009.84 -287.879 1002.69 -282.993 999.306 -280.631L978.747 -267.105C978.041 -266.575 976.494 -265.902 975.953 -267.444L970.416 -275.861C968.661 -278.528 963.403 -282.674 956.411 -277.916C949.419 -273.157 923.417 -256.143 911.291 -248.231C908.316 -246.141 903.682 -239.903 908.946 -231.662L913.848 -224.211C913.923 -223.997 913.962 -223.496 913.521 -223.205C913.079 -222.915 904.729 -213.73 900.609 -209.174C899.178 -207.442 895.123 -201.767 895.701 -200.407C898.772 -193.184 932.094 -140.367 973.954 -81.4675C1015.36 -23.2049 1036 5.03162 1063.17 42.1193C1064.54 44.1964 1087.88 76.6504 1089.34 78.8802L1103.33 97.7471L1114.6 112.475C1130.87 134.196 1167.07 185.31 1204.57 218.567C1274.82 286.423 1330.48 259.095 1359.11 239.196Z" fill="#0E6F3A"/>
<path d="M1369.67 123.769C1372.18 146.936 1361.21 159.663 1355.65 163.255C1351.7 165.389 1341.48 168.819 1332.14 165.467C1320.47 161.278 1308.9 149.407 1298.16 136.995C1288.24 125.526 1276.46 105.582 1269.32 87.7358C1269.32 87.7358 1261.35 71.4165 1261.17 44.6396C1260.94 11.1685 1296.04 16.355 1302.86 18.5925C1309.68 20.8299 1325.89 31.9207 1335.35 43.8924C1342.92 53.4697 1351.38 68.9507 1356.9 79.954C1364.59 95.2705 1368.03 108.63 1369.67 123.769Z" fill="#FEE6CA"/>
<path d="M1292.16 150.504C1307.34 180.061 1298.38 200.322 1292.01 206.758C1289.76 208.869 1286.29 210.785 1284.83 211.478C1273.43 217.236 1261.02 214.556 1256.24 212.496C1248.7 209.747 1229.76 199.829 1214.32 182.144C1198.89 164.459 1187.12 140.994 1183.16 131.472C1177.73 116.2 1172.03 83.1215 1192.72 72.986C1213.42 62.8504 1237.86 77.1808 1244.5 83.9551C1256.07 94.928 1276.99 120.947 1292.16 150.504Z" fill="#FEE6CA"/>
<path d="M1076.87 39.8142C1078.57 40.7296 1080.69 39.9969 1081.46 38.2267L1097.34 1.85291C1098.06 0.180819 1097.3 -1.76621 1095.63 -2.49589L967.302 -58.4965C964.605 -59.6736 961.831 -57.002 962.906 -54.2624L978.747 -13.8901C979.033 -13.1619 979.568 -12.5587 980.257 -12.188L1076.87 39.8142Z" fill="#0E6F3A"/>
<path d="M1093.1 3.15772C1094.71 3.9122 1095.44 5.81422 1094.73 7.45382L1076.25 50.5312C1075.44 52.4171 1073.12 53.1164 1071.41 51.9939L950.446 -27.0299C947.993 -28.6328 948.687 -32.3994 951.55 -33.023L994.105 -42.2903C994.811 -42.4442 995.549 -42.3619 996.204 -42.0561L1093.1 3.15772Z" fill="#0E6F3A"/>
<path d="M963.481 -4.28308C962.282 -3.25323 963.076 -1.28931 964.654 -1.38124L991.698 -2.95683C992.826 -3.02255 993.557 -4.17645 993.134 -5.22429L986.64 -21.2991C986.217 -22.3469 984.89 -22.6698 984.033 -21.9335L963.481 -4.28308Z" fill="#0E6F3A"/>
<path d="M1238.82 31.3393C1240.44 25.9895 1244.04 14.6964 1245.49 12.3231C1247.29 9.35643 1229.28 26.1507 1225.42 27.5015" stroke="#090909" stroke-width="5" stroke-linecap="round"/>
<path d="M1023.75 -105.843C978.35 -174.851 995.552 -221.024 1036.86 -248.198C1078.16 -275.372 1127.92 -273.257 1173.32 -204.249C1218.73 -135.24 1222.05 -57.2684 1180.75 -30.0944C1139.44 -2.92034 1069.15 -36.834 1023.75 -105.843Z" fill="#559472"/>
<g style="mix-blend-mode:hard-light">
<path d="M676.09 519.286L676.09 437.017C676.09 431.585 677.359 427.727 679.897 425.444C682.514 423.161 686.321 421.98 691.238 421.98L725.5 421.98C730.814 421.98 735.89 422.373 740.569 423.239C745.249 423.948 749.611 425.365 753.576 427.412C757.542 429.459 760.714 432.451 763.173 436.308C765.552 440.166 766.821 445.047 766.821 450.951C766.821 455.911 765.473 460.477 762.776 464.492C760.08 468.508 756.114 471.578 751.038 473.704L751.038 474.018C757.304 475.672 762.221 478.742 765.631 483.229C769.121 487.559 770.787 493.543 770.787 501.022C770.787 506.769 769.676 511.729 767.456 515.98C765.394 520.152 762.38 523.538 758.493 526.293C754.607 528.97 750.166 531.017 745.169 532.355C740.252 533.615 734.938 534.245 729.149 534.245L691.159 534.245C686.242 534.245 682.435 533.064 679.817 530.781C677.359 528.576 676.09 524.719 676.09 519.286ZM701.866 484.41L701.866 514.642L723.518 514.642C726.373 514.642 728.99 514.405 731.369 514.012C733.907 513.618 736.128 512.831 738.111 511.807C740.173 510.784 741.838 509.288 742.949 507.32C744.218 505.352 744.852 502.833 744.852 499.683C744.852 496.534 744.138 493.779 742.79 491.732C741.521 489.685 739.776 488.111 737.476 487.087C735.256 486.064 732.797 485.355 729.942 485.04C727.087 484.647 723.914 484.41 720.345 484.41L701.786 484.41L701.866 484.41ZM701.866 440.717L701.866 468.114L723.042 468.114C734.938 468.114 740.966 463.548 740.966 454.415C740.966 449.456 739.221 445.913 735.811 443.787C732.321 441.74 727.88 440.638 722.328 440.638L701.945 440.638L701.866 440.717ZM787.838 524.955L787.838 431.427C787.838 427.806 788.869 424.971 790.852 423.003C792.914 421.035 795.769 420.012 799.338 420.012C802.907 420.012 805.683 421.035 807.666 423.003C809.728 424.971 810.838 427.806 810.838 431.427L810.838 524.955C810.838 528.576 809.807 531.41 807.666 533.379C805.683 535.347 802.907 536.37 799.338 536.37C795.769 536.37 792.914 535.347 790.852 533.379C788.869 531.41 787.838 528.576 787.838 524.955ZM831.539 524.955L831.539 462.131C831.539 458.667 832.411 455.911 834.076 453.864C835.821 451.817 838.835 450.715 843.039 450.715C847.242 450.715 850.176 451.739 851.842 453.864C853.587 455.911 854.539 458.667 854.539 462.131L854.539 524.955C854.539 528.419 853.666 531.174 851.842 533.221C850.176 535.268 847.242 536.37 843.039 536.37C838.835 536.37 835.901 535.347 834.076 533.221C832.411 531.174 831.539 528.419 831.539 524.955ZM831.063 431.27C831.063 427.963 832.252 425.129 834.552 422.846C836.852 420.563 839.707 419.382 843.039 419.382C846.37 419.382 849.225 420.563 851.525 422.846C853.825 425.129 855.014 427.963 855.014 431.27C855.014 434.576 853.825 437.41 851.525 439.693C849.225 441.977 846.37 443.157 843.039 443.157C839.707 443.157 836.852 441.977 834.552 439.693C832.252 437.41 831.063 434.576 831.063 431.27ZM873.97 524.955L873.97 462.131C873.97 458.588 874.842 455.832 876.508 453.864C878.252 451.817 880.87 450.715 884.359 450.715C887.849 450.715 890.387 451.739 892.052 453.864C893.797 455.832 894.749 458.588 894.749 462.131L894.749 465.122L895.066 465.122C898.635 460.556 902.601 457.013 906.963 454.494C911.484 451.975 916.718 450.715 922.825 450.715C926.473 450.715 929.963 451.266 933.373 452.29C936.863 453.234 939.877 454.888 942.653 457.25C945.508 459.533 947.649 462.682 949.235 466.618C950.901 470.476 951.773 475.121 951.773 480.631L951.773 524.876C951.773 528.34 950.901 531.096 949.077 533.142C947.411 535.189 944.477 536.292 940.273 536.292C936.07 536.292 933.135 535.268 931.311 533.142C929.646 531.096 928.773 528.34 928.773 524.876L928.773 485.119C928.773 480.317 927.584 476.538 925.125 473.704C922.746 470.791 919.097 469.374 914.259 469.374C909.897 469.374 905.852 471.027 902.204 474.333C898.635 477.561 896.89 481.891 896.89 487.245L896.89 524.797C896.89 528.261 896.018 531.017 894.194 533.064C892.528 535.111 889.594 536.213 885.39 536.213C881.187 536.213 878.252 535.189 876.428 533.064C874.763 531.017 873.89 528.261 873.89 524.797L873.97 524.955ZM970.015 524.955L970.015 431.427C970.015 427.806 971.046 424.971 973.028 423.003C975.091 421.035 977.946 420.012 981.515 420.012C985.084 420.012 987.86 421.035 989.842 423.003C991.904 424.971 993.015 427.806 993.015 431.427L993.015 483.151L1018.47 455.124C1021.17 452.211 1024.1 450.794 1027.28 450.794C1029.97 450.794 1032.43 451.817 1034.65 453.943C1036.95 455.911 1038.14 458.273 1038.14 461.107C1038.14 462.839 1037.9 464.256 1037.35 465.122C1036.95 465.988 1036.16 467.012 1034.97 468.271C1034.89 468.35 1034.73 468.508 1034.65 468.586L1017.68 486.221L1041.55 518.027C1042.19 518.893 1042.74 519.916 1043.14 521.176C1043.69 522.357 1043.93 523.695 1043.93 525.348C1043.93 528.261 1042.9 530.859 1040.76 533.142C1038.7 535.347 1036.08 536.449 1033.07 536.449C1030.53 536.449 1028.47 535.898 1026.8 534.874C1025.14 533.93 1023.79 532.67 1022.76 531.096L1001.1 500.707L993.094 507.714L993.094 525.034C993.094 528.655 992.063 531.489 989.922 533.457C987.939 535.426 985.163 536.449 981.594 536.449C978.025 536.449 975.17 535.426 973.108 533.457C971.125 531.489 970.094 528.655 970.094 525.034L970.015 524.955ZM1125.62 497.794L1073.83 497.794C1073.83 503.935 1075.74 508.895 1079.46 512.752C1083.27 516.61 1088.43 518.499 1095.01 518.499C1099.37 518.499 1102.78 517.948 1105.24 516.767C1107.78 515.508 1110.24 513.776 1112.77 511.65C1114.36 510.233 1115.79 509.131 1116.98 508.343C1118.25 507.635 1119.75 507.241 1121.5 507.241C1124.12 507.241 1126.34 508.186 1128.08 510.075C1129.98 511.965 1130.94 513.933 1130.94 516.137C1130.94 519.365 1129.75 522.278 1127.45 524.876C1125.15 527.395 1122.13 529.521 1118.33 531.253C1114.68 532.906 1110.71 534.166 1106.59 535.032C1102.54 535.898 1098.66 536.292 1094.93 536.292C1087.32 536.292 1080.65 535.111 1075.02 532.828C1069.39 530.466 1064.79 527.238 1061.22 523.302C1057.65 519.365 1055.04 514.957 1053.37 510.075C1051.7 505.194 1050.83 500.156 1050.83 494.96C1050.83 481.576 1054.72 470.869 1062.49 462.839C1070.26 454.73 1080.81 450.715 1094.22 450.715C1100.64 450.715 1106.35 451.739 1111.5 453.864C1116.74 455.832 1121.1 458.667 1124.67 462.288C1128.32 465.831 1131.09 469.846 1132.84 474.255C1134.74 478.585 1135.69 483.229 1135.69 487.953C1135.69 491.811 1134.98 494.409 1133.47 495.747C1132.13 497.085 1129.51 497.794 1125.62 497.794ZM1073.83 484.725L1114.04 484.725C1113.41 479.451 1111.27 475.121 1107.62 471.814C1104.05 468.35 1099.77 466.697 1094.77 466.697C1089.22 466.697 1084.7 468.271 1081.13 471.499C1077.56 474.648 1075.18 479.057 1073.91 484.725L1073.83 484.725ZM1151.72 524.955L1151.72 461.343C1151.72 458.037 1152.67 455.439 1154.57 453.549C1156.55 451.66 1159.09 450.715 1162.1 450.715C1165.12 450.715 1167.58 451.66 1169.48 453.549C1171.46 455.439 1172.49 458.037 1172.49 461.343L1172.49 470.082L1172.81 470.082C1174.4 464.492 1176.62 459.848 1179.55 456.226C1182.57 452.605 1186.69 450.794 1191.77 450.794C1195.42 450.794 1198.43 451.817 1200.73 453.943C1203.11 455.99 1204.38 458.667 1204.38 461.894C1204.38 465.831 1203.27 468.744 1201.05 470.633C1198.98 472.365 1196.29 473.31 1193.04 473.31L1188.99 473.31C1184.15 473.31 1180.58 475.199 1178.13 479.057C1175.83 482.915 1174.64 489.37 1174.64 498.503L1174.64 525.034C1174.64 528.498 1173.76 531.253 1171.94 533.3C1170.27 535.347 1167.34 536.449 1163.14 536.449C1158.93 536.449 1156 535.426 1154.17 533.3C1152.51 531.253 1151.64 528.498 1151.64 525.034L1151.72 524.955Z" fill="#356549"/>
</g>
<g style="mix-blend-mode:hard-light">
<path d="M676.09 519.286L676.09 437.017C676.09 431.585 677.359 427.727 679.897 425.444C682.514 423.161 686.321 421.98 691.238 421.98L725.5 421.98C730.814 421.98 735.89 422.373 740.569 423.239C745.249 423.948 749.611 425.365 753.576 427.412C757.542 429.459 760.714 432.451 763.173 436.308C765.552 440.166 766.821 445.047 766.821 450.951C766.821 455.911 765.473 460.477 762.776 464.492C760.08 468.508 756.114 471.578 751.038 473.704L751.038 474.018C757.304 475.672 762.221 478.742 765.631 483.229C769.121 487.559 770.787 493.543 770.787 501.022C770.787 506.769 769.676 511.729 767.456 515.98C765.394 520.152 762.38 523.538 758.493 526.293C754.607 528.97 750.166 531.017 745.169 532.355C740.252 533.615 734.938 534.245 729.149 534.245L691.159 534.245C686.242 534.245 682.435 533.064 679.817 530.781C677.359 528.576 676.09 524.719 676.09 519.286ZM701.866 484.41L701.866 514.642L723.518 514.642C726.373 514.642 728.99 514.405 731.369 514.012C733.907 513.618 736.128 512.831 738.111 511.807C740.173 510.784 741.838 509.288 742.949 507.32C744.218 505.352 744.852 502.833 744.852 499.683C744.852 496.534 744.138 493.779 742.79 491.732C741.521 489.685 739.776 488.111 737.476 487.087C735.256 486.064 732.797 485.355 729.942 485.04C727.087 484.647 723.914 484.41 720.345 484.41L701.786 484.41L701.866 484.41ZM701.866 440.717L701.866 468.114L723.042 468.114C734.938 468.114 740.966 463.548 740.966 454.415C740.966 449.456 739.221 445.913 735.811 443.787C732.321 441.74 727.88 440.638 722.328 440.638L701.945 440.638L701.866 440.717ZM787.838 524.955L787.838 431.427C787.838 427.806 788.869 424.971 790.852 423.003C792.914 421.035 795.769 420.012 799.338 420.012C802.907 420.012 805.683 421.035 807.666 423.003C809.728 424.971 810.838 427.806 810.838 431.427L810.838 524.955C810.838 528.576 809.807 531.41 807.666 533.379C805.683 535.347 802.907 536.37 799.338 536.37C795.769 536.37 792.914 535.347 790.852 533.379C788.869 531.41 787.838 528.576 787.838 524.955ZM831.539 524.955L831.539 462.131C831.539 458.667 832.411 455.911 834.076 453.864C835.821 451.817 838.835 450.715 843.039 450.715C847.242 450.715 850.176 451.739 851.842 453.864C853.587 455.911 854.539 458.667 854.539 462.131L854.539 524.955C854.539 528.419 853.666 531.174 851.842 533.221C850.176 535.268 847.242 536.37 843.039 536.37C838.835 536.37 835.901 535.347 834.076 533.221C832.411 531.174 831.539 528.419 831.539 524.955ZM831.063 431.27C831.063 427.963 832.252 425.129 834.552 422.846C836.852 420.563 839.707 419.382 843.039 419.382C846.37 419.382 849.225 420.563 851.525 422.846C853.825 425.129 855.014 427.963 855.014 431.27C855.014 434.576 853.825 437.41 851.525 439.693C849.225 441.977 846.37 443.157 843.039 443.157C839.707 443.157 836.852 441.977 834.552 439.693C832.252 437.41 831.063 434.576 831.063 431.27ZM873.97 524.955L873.97 462.131C873.97 458.588 874.842 455.832 876.508 453.864C878.252 451.817 880.87 450.715 884.359 450.715C887.849 450.715 890.387 451.739 892.052 453.864C893.797 455.832 894.749 458.588 894.749 462.131L894.749 465.122L895.066 465.122C898.635 460.556 902.601 457.013 906.963 454.494C911.484 451.975 916.718 450.715 922.825 450.715C926.473 450.715 929.963 451.266 933.373 452.29C936.863 453.234 939.877 454.888 942.653 457.25C945.508 459.533 947.649 462.682 949.235 466.618C950.901 470.476 951.773 475.121 951.773 480.631L951.773 524.876C951.773 528.34 950.901 531.096 949.077 533.142C947.411 535.189 944.477 536.292 940.273 536.292C936.07 536.292 933.135 535.268 931.311 533.142C929.646 531.096 928.773 528.34 928.773 524.876L928.773 485.119C928.773 480.317 927.584 476.538 925.125 473.704C922.746 470.791 919.097 469.374 914.259 469.374C909.897 469.374 905.852 471.027 902.204 474.333C898.635 477.561 896.89 481.891 896.89 487.245L896.89 524.797C896.89 528.261 896.018 531.017 894.194 533.064C892.528 535.111 889.594 536.213 885.39 536.213C881.187 536.213 878.252 535.189 876.428 533.064C874.763 531.017 873.89 528.261 873.89 524.797L873.97 524.955ZM970.015 524.955L970.015 431.427C970.015 427.806 971.046 424.971 973.028 423.003C975.091 421.035 977.946 420.012 981.515 420.012C985.084 420.012 987.86 421.035 989.842 423.003C991.904 424.971 993.015 427.806 993.015 431.427L993.015 483.151L1018.47 455.124C1021.17 452.211 1024.1 450.794 1027.28 450.794C1029.97 450.794 1032.43 451.817 1034.65 453.943C1036.95 455.911 1038.14 458.273 1038.14 461.107C1038.14 462.839 1037.9 464.256 1037.35 465.122C1036.95 465.988 1036.16 467.012 1034.97 468.271C1034.89 468.35 1034.73 468.508 1034.65 468.586L1017.68 486.221L1041.55 518.027C1042.19 518.893 1042.74 519.916 1043.14 521.176C1043.69 522.357 1043.93 523.695 1043.93 525.348C1043.93 528.261 1042.9 530.859 1040.76 533.142C1038.7 535.347 1036.08 536.449 1033.07 536.449C1030.53 536.449 1028.47 535.898 1026.8 534.874C1025.14 533.93 1023.79 532.67 1022.76 531.096L1001.1 500.707L993.094 507.714L993.094 525.034C993.094 528.655 992.063 531.489 989.922 533.457C987.939 535.426 985.163 536.449 981.594 536.449C978.025 536.449 975.17 535.426 973.108 533.457C971.125 531.489 970.094 528.655 970.094 525.034L970.015 524.955ZM1125.62 497.794L1073.83 497.794C1073.83 503.935 1075.74 508.895 1079.46 512.752C1083.27 516.61 1088.43 518.499 1095.01 518.499C1099.37 518.499 1102.78 517.948 1105.24 516.767C1107.78 515.508 1110.24 513.776 1112.77 511.65C1114.36 510.233 1115.79 509.131 1116.98 508.343C1118.25 507.635 1119.75 507.241 1121.5 507.241C1124.12 507.241 1126.34 508.186 1128.08 510.075C1129.98 511.965 1130.94 513.933 1130.94 516.137C1130.94 519.365 1129.75 522.278 1127.45 524.876C1125.15 527.395 1122.13 529.521 1118.33 531.253C1114.68 532.906 1110.71 534.166 1106.59 535.032C1102.54 535.898 1098.66 536.292 1094.93 536.292C1087.32 536.292 1080.65 535.111 1075.02 532.828C1069.39 530.466 1064.79 527.238 1061.22 523.302C1057.65 519.365 1055.04 514.957 1053.37 510.075C1051.7 505.194 1050.83 500.156 1050.83 494.96C1050.83 481.576 1054.72 470.869 1062.49 462.839C1070.26 454.73 1080.81 450.715 1094.22 450.715C1100.64 450.715 1106.35 451.739 1111.5 453.864C1116.74 455.832 1121.1 458.667 1124.67 462.288C1128.32 465.831 1131.09 469.846 1132.84 474.255C1134.74 478.585 1135.69 483.229 1135.69 487.953C1135.69 491.811 1134.98 494.409 1133.47 495.747C1132.13 497.085 1129.51 497.794 1125.62 497.794ZM1073.83 484.725L1114.04 484.725C1113.41 479.451 1111.27 475.121 1107.62 471.814C1104.05 468.35 1099.77 466.697 1094.77 466.697C1089.22 466.697 1084.7 468.271 1081.13 471.499C1077.56 474.648 1075.18 479.057 1073.91 484.725L1073.83 484.725ZM1151.72 524.955L1151.72 461.343C1151.72 458.037 1152.67 455.439 1154.57 453.549C1156.55 451.66 1159.09 450.715 1162.1 450.715C1165.12 450.715 1167.58 451.66 1169.48 453.549C1171.46 455.439 1172.49 458.037 1172.49 461.343L1172.49 470.082L1172.81 470.082C1174.4 464.492 1176.62 459.848 1179.55 456.226C1182.57 452.605 1186.69 450.794 1191.77 450.794C1195.42 450.794 1198.43 451.817 1200.73 453.943C1203.11 455.99 1204.38 458.667 1204.38 461.894C1204.38 465.831 1203.27 468.744 1201.05 470.633C1198.98 472.365 1196.29 473.31 1193.04 473.31L1188.99 473.31C1184.15 473.31 1180.58 475.199 1178.13 479.057C1175.83 482.915 1174.64 489.37 1174.64 498.503L1174.64 525.034C1174.64 528.498 1173.76 531.253 1171.94 533.3C1170.27 535.347 1167.34 536.449 1163.14 536.449C1158.93 536.449 1156 535.426 1154.17 533.3C1152.51 531.253 1151.64 528.498 1151.64 525.034L1151.72 524.955Z" fill="#356549"/>
</g>
<g filter="url(#filter1_f_743_17555)">
<path d="M1172.49 470.082L1172.81 470.082C1173.92 466.146 1175.42 462.918 1177.17 459.926L1172.09 459.296C1172.17 460.005 1172.41 460.556 1172.41 461.343L1172.41 470.082L1172.49 470.082Z" fill="#505050"/>
</g>
<g filter="url(#filter2_f_743_17555)">
<path d="M914.326 469.452C911.709 469.452 909.25 470.082 906.871 471.263L928.206 480.159C927.65 477.719 926.699 475.514 925.192 473.782C922.813 470.869 919.164 469.452 914.326 469.452Z" fill="#505050"/>
</g>
<g filter="url(#filter3_f_743_17555)">
<path d="M842.952 419.067L842.952 419.382C846.283 419.382 849.138 420.563 851.438 422.846C853.738 425.129 854.928 427.963 854.928 431.27C854.928 434.576 853.738 437.41 851.438 439.693C849.138 441.976 846.283 443.157 842.952 443.157C841.048 443.157 839.303 442.685 837.717 441.898L837.559 442.528L874.438 457.879C874.835 456.305 875.469 454.966 876.341 453.943C878.086 451.896 880.704 450.794 884.193 450.794C887.683 450.794 890.221 451.817 891.886 453.943C893.631 455.911 894.583 458.667 894.583 462.209L894.583 465.201L894.9 465.201C898.469 460.635 902.435 457.092 906.797 454.573C911.317 452.054 916.552 450.794 922.659 450.794C926.307 450.794 929.797 451.345 933.207 452.368C936.697 453.313 939.79 454.966 942.486 457.328C945.342 459.611 947.483 462.76 949.069 466.697C950.735 470.554 951.607 475.199 951.607 480.71L951.607 490L969.849 497.637L969.849 434.576L842.952 419.067Z" fill="#505050"/>
</g>
<g filter="url(#filter4_f_743_17555)">
<path d="M1204.05 463.705C1203.73 466.618 1202.86 468.98 1201.03 470.554C1198.97 472.286 1196.28 473.231 1193.02 473.231L1188.98 473.231C1184.14 473.231 1180.57 475.12 1178.11 478.978C1175.81 482.836 1174.62 489.291 1174.62 498.424L1174.62 524.955C1174.62 528.419 1173.75 531.174 1171.93 533.221C1170.26 535.268 1167.33 536.37 1163.12 536.37C1158.92 536.37 1155.99 535.347 1154.16 533.221C1152.5 531.174 1151.62 528.419 1151.62 524.955L1151.62 461.343C1151.62 459.69 1151.86 458.194 1152.34 456.934L992.844 437.41L992.844 483.151L1018.3 455.124C1021 452.211 1023.93 450.794 1027.11 450.794C1029.8 450.794 1032.26 451.817 1034.48 453.943C1036.78 455.911 1037.97 458.273 1037.97 461.107C1037.97 462.839 1037.73 464.256 1037.18 465.122C1036.78 465.988 1035.99 467.012 1034.8 468.271C1034.72 468.35 1034.56 468.507 1034.48 468.586L1017.51 486.221L1041.38 518.027C1042.02 518.893 1042.57 519.916 1042.97 521.176C1043.52 522.357 1043.76 523.695 1043.76 525.348C1043.76 526.372 1043.44 527.238 1043.21 528.182L1162.65 577.859C1164.71 578.883 1166.93 579.749 1169.07 580.536L1169.94 580.851C1176.13 582.819 1182.71 584 1189.53 584C1223.48 584 1251 556.682 1251 522.986C1251 494.251 1230.93 470.239 1203.97 463.784L1204.05 463.705ZM1133.46 495.747C1132.11 497.085 1129.5 497.794 1125.61 497.794L1073.82 497.794C1073.82 503.935 1075.72 508.894 1079.45 512.752C1083.26 516.61 1088.41 518.499 1095 518.499C1099.36 518.499 1102.77 517.948 1105.23 516.767C1107.76 515.507 1110.22 513.775 1112.76 511.65C1114.35 510.233 1115.78 509.131 1116.96 508.343C1118.23 507.635 1119.74 507.241 1121.49 507.241C1124.1 507.241 1126.32 508.186 1128.07 510.075C1129.97 511.965 1130.92 513.933 1130.92 516.137C1130.92 519.365 1129.73 522.278 1127.43 524.876C1125.13 527.395 1122.12 529.521 1118.31 531.253C1114.66 532.906 1110.7 534.166 1106.58 535.032C1102.53 535.898 1098.64 536.291 1094.92 536.291C1087.3 536.291 1080.64 535.11 1075.01 532.827C1069.38 530.466 1064.78 527.238 1061.21 523.301C1057.64 519.365 1055.02 514.956 1053.36 510.075C1051.69 505.194 1050.82 500.156 1050.82 494.96C1050.82 481.576 1054.71 470.869 1062.48 462.839C1070.25 454.73 1080.8 450.715 1094.2 450.715C1100.63 450.715 1106.34 451.738 1111.49 453.864C1116.73 455.832 1121.09 458.666 1124.66 462.288C1128.31 465.831 1131.08 469.846 1132.83 474.254C1134.73 478.584 1135.68 483.229 1135.68 487.953C1135.68 491.811 1134.97 494.409 1133.46 495.747Z" fill="#505050"/>
</g>
<path d="M1094.69 466.618C1089.14 466.618 1084.61 468.192 1081.05 471.42C1077.48 474.569 1075.1 478.978 1073.83 484.646L1114.04 484.646C1113.4 479.372 1111.26 475.042 1107.61 471.735C1104.05 468.271 1099.76 466.618 1094.77 466.618L1094.69 466.618Z" fill="#505050"/>
<g filter="url(#filter5_f_743_17555)">
<path d="M993.324 507.241L1010.85 514.563L1000.94 500.628L993.324 507.241Z" fill="#505050"/>
</g>
<path d="M1022.59 531.017C1023.63 532.591 1024.97 533.851 1026.64 534.795C1028.3 535.819 1030.45 536.37 1032.9 536.37C1035.92 536.37 1038.54 535.268 1040.6 533.063C1041.95 531.568 1042.74 529.836 1043.22 528.104L1010.78 514.641L1022.52 531.095L1022.59 531.017Z" fill="#356549"/>
<path d="M970.004 524.955C970.004 528.576 971.035 531.41 973.018 533.378C975.08 535.347 977.935 536.37 981.504 536.37C985.073 536.37 987.849 535.347 989.832 533.378C991.894 531.41 993.004 528.576 993.004 524.955L993.004 507.635L993.4 507.241L970.083 497.558L970.083 524.955L970.004 524.955Z" fill="#356549"/>
<path d="M873.961 462.13L873.961 524.955C873.961 528.419 874.833 531.174 876.499 533.221C878.244 535.268 881.257 536.37 885.461 536.37C889.664 536.37 892.599 535.347 894.264 533.221C896.009 531.174 896.961 528.419 896.961 524.955L896.961 487.402C896.961 481.97 898.706 477.718 902.275 474.491C903.782 473.152 905.289 472.129 906.954 471.341L874.595 457.879C874.278 459.139 874.04 460.556 874.04 462.209L873.961 462.13Z" fill="#356549"/>
<path d="M928.766 485.197L928.766 524.955C928.766 528.419 929.639 531.174 931.304 533.221C933.049 535.268 936.063 536.37 940.266 536.37C944.47 536.37 947.404 535.347 949.07 533.221C950.814 531.174 951.766 528.419 951.766 524.955L951.766 489.921L928.211 480.159C928.607 481.733 928.766 483.387 928.766 485.197Z" fill="#356549"/>
<path d="M750.79 474.097L750.79 473.782C755.945 471.735 759.831 468.665 762.528 464.571C765.224 460.556 766.573 455.99 766.573 451.03C766.573 445.126 765.383 440.245 762.924 436.387C760.545 432.529 757.293 429.616 753.328 427.491C749.362 425.444 745 424.027 740.321 423.318C735.642 422.452 730.566 422.059 725.252 422.059L691.148 422.059C686.231 422.059 682.424 423.24 679.807 425.523C677.269 427.806 676 431.663 676 437.095L676 519.365C676 524.797 677.269 528.576 679.807 530.938C682.424 533.221 686.231 534.402 691.148 534.402L728.979 534.402C734.769 534.402 740.083 533.772 745 532.513C749.997 531.174 754.438 529.127 758.324 526.451C762.211 523.774 765.145 520.31 767.286 516.137C769.507 511.886 770.617 506.926 770.617 501.179C770.617 493.7 768.873 487.796 765.462 483.387C761.973 478.9 757.135 475.829 750.869 474.176L750.79 474.097ZM701.855 440.717L722.238 440.717C727.79 440.717 732.31 441.74 735.721 443.866C739.21 445.913 740.876 449.456 740.876 454.494C740.876 463.626 734.928 468.193 722.952 468.193L701.776 468.193L701.776 440.796L701.855 440.717ZM742.938 507.32C741.748 509.288 740.162 510.784 738.1 511.807C736.117 512.831 733.897 513.539 731.359 514.012C728.979 514.405 726.362 514.642 723.507 514.642L701.855 514.642L701.855 484.41L720.414 484.41C723.983 484.41 727.155 484.647 730.01 485.04C732.866 485.355 735.324 486.064 737.545 487.087C739.845 488.111 741.59 489.685 742.859 491.732C744.207 493.779 744.921 496.456 744.921 499.683C744.921 502.911 744.286 505.352 743.017 507.32L742.938 507.32Z" fill="#356549"/>
<path d="M799.324 420.011C795.755 420.011 792.9 421.035 790.838 423.003C788.855 424.971 787.824 427.805 787.824 431.427L787.824 524.955C787.824 528.576 788.855 531.41 790.838 533.378C792.9 535.347 795.755 536.37 799.324 536.37C802.893 536.37 805.669 535.347 807.652 533.378C809.714 531.41 810.824 528.576 810.824 524.955L810.824 431.427C810.824 427.805 809.793 424.971 807.652 423.003C805.669 421.035 802.893 420.011 799.324 420.011Z" fill="#356549"/>
<path d="M843.035 450.715C838.832 450.715 835.897 451.739 834.073 453.864C832.408 455.911 831.535 458.667 831.535 462.131L831.535 524.955C831.535 528.419 832.408 531.174 834.073 533.221C835.818 535.268 838.832 536.37 843.035 536.37C847.239 536.37 850.173 535.347 851.839 533.221C853.583 531.174 854.535 528.419 854.535 524.955L854.535 462.131C854.535 458.667 853.663 455.911 851.839 453.864C850.173 451.817 847.239 450.715 843.035 450.715Z" fill="#356549"/>
<path d="M1195.1 462.209C1198.19 462.445 1201.12 462.997 1204.06 463.705C1204.06 463.075 1204.38 462.524 1204.38 461.816C1204.38 458.588 1203.19 455.911 1200.73 453.864C1198.43 451.817 1195.41 450.715 1191.76 450.715C1186.61 450.715 1182.56 452.526 1179.55 456.147C1178.68 457.249 1177.96 458.588 1177.17 459.926L1195.1 462.131L1195.1 462.209Z" fill="#356549"/>
<path d="M992.93 431.427C992.93 427.805 991.899 424.971 989.757 423.003C987.775 421.035 984.999 420.011 981.43 420.011C977.861 420.011 975.006 421.035 972.943 423.003C970.961 424.971 969.93 427.805 969.93 431.427L969.93 434.655L992.85 437.489L992.85 431.506L992.93 431.427Z" fill="#356549"/>
<path d="M1169.47 453.549C1167.57 451.66 1165.11 450.715 1162.1 450.715C1159.08 450.715 1156.55 451.66 1154.56 453.549C1153.61 454.494 1152.9 455.596 1152.42 456.935L1172.09 459.375C1171.77 457.092 1170.98 455.045 1169.47 453.628L1169.47 453.549Z" fill="#356549"/>
<g filter="url(#filter6_d_743_17555)">
<path d="M1151.71 524.955C1151.71 528.419 1152.58 531.174 1154.24 533.221C1155.99 535.268 1159 536.37 1163.21 536.37C1167.41 536.37 1170.34 535.347 1172.01 533.221C1173.76 531.174 1174.71 528.419 1174.71 524.955L1174.71 498.424C1174.71 489.291 1175.82 482.757 1178.2 478.978C1180.58 475.121 1184.22 473.231 1189.06 473.231L1193.11 473.231C1196.36 473.231 1199.06 472.365 1201.12 470.554C1202.94 469.059 1203.81 466.618 1204.13 463.705C1201.2 462.997 1198.26 462.445 1195.17 462.209L1177.24 460.005C1175.5 462.997 1173.91 466.224 1172.88 470.161L1172.57 470.161L1172.57 461.422C1172.57 460.635 1172.33 460.084 1172.25 459.375L1152.58 456.935C1152.1 458.194 1151.87 459.69 1151.87 461.343L1151.87 524.955L1151.71 524.955Z" fill="#6FE593"/>
</g>
<g filter="url(#filter7_d_743_17555)">
<path d="M1124.66 462.288C1121.09 458.667 1116.73 455.832 1111.5 453.864C1106.34 451.817 1100.63 450.715 1094.21 450.715C1080.8 450.715 1070.26 454.73 1062.48 462.839C1054.71 470.869 1050.82 481.576 1050.82 494.96C1050.82 500.156 1051.7 505.194 1053.36 510.075C1055.03 514.956 1057.64 519.365 1061.21 523.301C1064.78 527.238 1069.38 530.387 1075.01 532.827C1080.64 535.111 1087.31 536.291 1094.92 536.291C1098.57 536.291 1102.46 535.898 1106.58 535.032C1110.78 534.166 1114.67 532.985 1118.32 531.253C1122.12 529.521 1125.14 527.395 1127.44 524.876C1129.74 522.278 1130.93 519.365 1130.93 516.137C1130.93 513.933 1129.98 511.965 1128.07 510.075C1126.33 508.186 1124.11 507.241 1121.49 507.241C1119.75 507.241 1118.16 507.635 1116.97 508.343C1115.7 509.052 1114.27 510.154 1112.77 511.65C1110.23 513.854 1107.77 515.507 1105.23 516.767C1102.85 517.948 1099.44 518.499 1095 518.499C1088.42 518.499 1083.26 516.61 1079.46 512.752C1075.65 508.894 1073.82 503.935 1073.82 497.794L1125.61 497.794C1129.5 497.794 1132.12 497.085 1133.47 495.747C1134.89 494.409 1135.69 491.811 1135.69 487.953C1135.69 483.151 1134.73 478.584 1132.83 474.254C1131.09 469.767 1128.31 465.752 1124.66 462.288ZM1073.82 484.725C1075.09 478.978 1077.47 474.569 1081.04 471.499C1084.61 468.271 1089.13 466.697 1094.68 466.697C1099.68 466.697 1103.96 468.429 1107.53 471.814C1111.18 475.12 1113.32 479.45 1113.96 484.725L1073.74 484.725L1073.82 484.725Z" fill="#6FE593"/>
</g>
<g filter="url(#filter8_d_743_17555)">
<path d="M1042.97 521.019C1042.58 519.759 1042.02 518.736 1041.39 517.87L1017.52 486.064L1034.49 468.429C1034.49 468.429 1034.73 468.193 1034.81 468.114C1036 466.855 1036.71 465.831 1037.19 464.965C1037.74 464.02 1037.98 462.682 1037.98 460.95C1037.98 458.116 1036.79 455.754 1034.49 453.786C1032.27 451.739 1029.81 450.637 1027.11 450.637C1023.94 450.637 1021.01 452.054 1018.31 454.967L992.85 482.994L992.85 437.411L969.93 434.576L969.93 497.479L993.247 507.163L1000.86 500.55L1010.77 514.484L1043.21 527.947C1043.45 527.002 1043.77 526.136 1043.77 525.113C1043.77 523.459 1043.53 522.042 1042.97 520.94L1042.97 521.019Z" fill="#6FE593"/>
</g>
<g filter="url(#filter9_d_743_17555)">
<path d="M949.221 466.618C947.635 462.682 945.414 459.533 942.638 457.249C939.942 454.888 936.849 453.234 933.359 452.29C930.028 451.266 926.538 450.715 922.811 450.715C916.704 450.715 911.469 451.975 906.949 454.494C902.586 457.013 898.542 460.556 895.052 465.122L894.735 465.122L894.735 462.131C894.735 458.588 893.862 455.832 892.038 453.864C890.373 451.817 887.835 450.715 884.345 450.715C880.855 450.715 878.238 451.739 876.493 453.864C875.621 454.966 874.986 456.305 874.59 457.801L906.949 471.263C909.328 470.082 911.786 469.452 914.404 469.452C919.242 469.452 922.811 470.869 925.269 473.782C926.776 475.514 927.728 477.64 928.283 480.159L951.838 489.921L951.838 480.631C951.838 475.12 950.966 470.476 949.3 466.618L949.221 466.618Z" fill="#6FE593"/>
</g>
<g filter="url(#filter10_f_743_17555)">
<path d="M844.078 438.991C848.49 438.991 852.082 435.403 852.082 430.994C852.082 426.586 848.49 422.998 844.078 422.998C839.666 422.998 836.074 426.586 836.074 430.994C836.074 435.403 839.666 438.991 844.078 438.991Z" fill="#E8F8EE" fill-opacity="0.2"/>
</g>
<g filter="url(#filter11_f_743_17555)">
<path d="M844.079 441.99C850.146 441.99 855.085 437.056 855.085 430.994C855.085 424.933 850.146 419.999 844.079 419.999C838.012 419.999 833.074 424.933 833.074 430.994C833.074 437.056 838.012 441.99 844.079 441.99Z" fill="#E8F8EE" fill-opacity="0.2"/>
</g>
<g filter="url(#filter12_f_743_17555)">
<path d="M844.08 442.99C850.698 442.99 856.085 437.607 856.085 430.994C856.085 424.382 850.698 418.999 844.08 418.999C837.461 418.999 832.074 424.382 832.074 430.994C832.074 437.607 837.461 442.99 844.08 442.99Z" fill="#E8F8EE" fill-opacity="0.2"/>
</g>
<g filter="url(#filter13_f_743_17555)">
<path d="M844.081 444.989C851.802 444.989 858.087 438.709 858.087 430.994C858.087 423.28 851.802 417 844.081 417C836.359 417 830.074 423.28 830.074 430.994C830.074 438.709 836.359 444.989 844.081 444.989Z" fill="#E8F8EE" fill-opacity="0.2"/>
</g>
<g filter="url(#filter14_f_743_17555)">
<path d="M844.077 436.992C847.386 436.992 850.08 434.301 850.08 430.994C850.08 427.688 847.386 424.997 844.077 424.997C840.768 424.997 838.074 427.688 838.074 430.994C838.074 434.301 840.768 436.992 844.077 436.992Z" fill="white"/>
</g>
</g>
<defs>
<filter id="filter0_d_743_17555" x="-16" y="181" width="429.816" height="501.551" filterUnits="userSpaceOnUse" color-interpolation-filters="sRGB">
<feFlood flood-opacity="0" result="BackgroundImageFix"/>
<feColorMatrix in="SourceAlpha" type="matrix" values="0 0 0 0 0 0 0 0 0 0 0 0 0 0 0 0 0 0 127 0" result="hardAlpha"/>
<feOffset dx="4" dy="8"/>
<feGaussianBlur stdDeviation="10"/>
<feComposite in2="hardAlpha" operator="out"/>
<feColorMatrix type="matrix" values="0 0 0 0 0.054902 0 0 0 0 0.435294 0 0 0 0 0.227451 0 0 0 0.1 0"/>
<feBlend mode="normal" in2="BackgroundImageFix" result="effect1_dropShadow_743_17555"/>
<feBlend mode="normal" in="SourceGraphic" in2="effect1_dropShadow_743_17555" result="shape"/>
</filter>
<filter id="filter1_f_743_17555" x="1168.09" y="455.296" width="13.0742" height="18.7856" filterUnits="userSpaceOnUse" color-interpolation-filters="sRGB">
<feFlood flood-opacity="0" result="BackgroundImageFix"/>
<feBlend mode="normal" in="SourceGraphic" in2="BackgroundImageFix" result="shape"/>
<feGaussianBlur stdDeviation="2" result="effect1_foregroundBlur_743_17555"/>
</filter>
<filter id="filter2_f_743_17555" x="901.371" y="463.952" width="32.3359" height="21.7068" filterUnits="userSpaceOnUse" color-interpolation-filters="sRGB">
<feFlood flood-opacity="0" result="BackgroundImageFix"/>
<feBlend mode="normal" in="SourceGraphic" in2="BackgroundImageFix" result="shape"/>
<feGaussianBlur stdDeviation="2.75" result="effect1_foregroundBlur_743_17555"/>
</filter>
<filter id="filter3_f_743_17555" x="832.059" y="413.567" width="143.289" height="89.5696" filterUnits="userSpaceOnUse" color-interpolation-filters="sRGB">
<feFlood flood-opacity="0" result="BackgroundImageFix"/>
<feBlend mode="normal" in="SourceGraphic" in2="BackgroundImageFix" result="shape"/>
<feGaussianBlur stdDeviation="2.75" result="effect1_foregroundBlur_743_17555"/>
</filter>
<filter id="filter4_f_743_17555" x="987.344" y="431.91" width="269.156" height="157.59" filterUnits="userSpaceOnUse" color-interpolation-filters="sRGB">
<feFlood flood-opacity="0" result="BackgroundImageFix"/>
<feBlend mode="normal" in="SourceGraphic" in2="BackgroundImageFix" result="shape"/>
<feGaussianBlur stdDeviation="2.75" result="effect1_foregroundBlur_743_17555"/>
</filter>
<filter id="filter5_f_743_17555" x="987.824" y="495.128" width="28.5273" height="24.9348" filterUnits="userSpaceOnUse" color-interpolation-filters="sRGB">
<feFlood flood-opacity="0" result="BackgroundImageFix"/>
<feBlend mode="normal" in="SourceGraphic" in2="BackgroundImageFix" result="shape"/>
<feGaussianBlur stdDeviation="2.75" result="effect1_foregroundBlur_743_17555"/>
</filter>
<filter id="filter6_d_743_17555" x="1147.71" y="449.935" width="68.4258" height="95.4355" filterUnits="userSpaceOnUse" color-interpolation-filters="sRGB">
<feFlood flood-opacity="0" result="BackgroundImageFix"/>
<feColorMatrix in="SourceAlpha" type="matrix" values="0 0 0 0 0 0 0 0 0 0 0 0 0 0 0 0 0 0 127 0" result="hardAlpha"/>
<feOffset dx="4" dy="1"/>
<feGaussianBlur stdDeviation="4"/>
<feComposite in2="hardAlpha" operator="out"/>
<feColorMatrix type="matrix" values="0 0 0 0 0.0352941 0 0 0 0 0.0745098 0 0 0 0 0.054902 0 0 0 0.5 0"/>
<feBlend mode="normal" in2="BackgroundImageFix" result="effect1_dropShadow_743_17555"/>
<feBlend mode="normal" in="SourceGraphic" in2="effect1_dropShadow_743_17555" result="shape"/>
</filter>
<filter id="filter7_d_743_17555" x="1046.82" y="443.715" width="100.863" height="101.576" filterUnits="userSpaceOnUse" color-interpolation-filters="sRGB">
<feFlood flood-opacity="0" result="BackgroundImageFix"/>
<feColorMatrix in="SourceAlpha" type="matrix" values="0 0 0 0 0 0 0 0 0 0 0 0 0 0 0 0 0 0 127 0" result="hardAlpha"/>
<feOffset dx="4" dy="1"/>
<feGaussianBlur stdDeviation="4"/>
<feComposite in2="hardAlpha" operator="out"/>
<feColorMatrix type="matrix" values="0 0 0 0 0.0352941 0 0 0 0 0.0745098 0 0 0 0 0.054902 0 0 0 0.5 0"/>
<feBlend mode="normal" in2="BackgroundImageFix" result="effect1_dropShadow_743_17555"/>
<feBlend mode="normal" in="SourceGraphic" in2="effect1_dropShadow_743_17555" result="shape"/>
</filter>
<filter id="filter8_d_743_17555" x="965.93" y="427.576" width="89.8398" height="109.37" filterUnits="userSpaceOnUse" color-interpolation-filters="sRGB">
<feFlood flood-opacity="0" result="BackgroundImageFix"/>
<feColorMatrix in="SourceAlpha" type="matrix" values="0 0 0 0 0 0 0 0 0 0 0 0 0 0 0 0 0 0 127 0" result="hardAlpha"/>
<feOffset dx="4" dy="1"/>
<feGaussianBlur stdDeviation="4"/>
<feComposite in2="hardAlpha" operator="out"/>
<feColorMatrix type="matrix" values="0 0 0 0 0.0352941 0 0 0 0 0.0745098 0 0 0 0 0.054902 0 0 0 0.5 0"/>
<feBlend mode="normal" in2="BackgroundImageFix" result="effect1_dropShadow_743_17555"/>
<feBlend mode="normal" in="SourceGraphic" in2="effect1_dropShadow_743_17555" result="shape"/>
</filter>
<filter id="filter9_d_743_17555" x="870.59" y="443.715" width="93.25" height="55.2061" filterUnits="userSpaceOnUse" color-interpolation-filters="sRGB">
<feFlood flood-opacity="0" result="BackgroundImageFix"/>
<feColorMatrix in="SourceAlpha" type="matrix" values="0 0 0 0 0 0 0 0 0 0 0 0 0 0 0 0 0 0 127 0" result="hardAlpha"/>
<feOffset dx="4" dy="1"/>
<feGaussianBlur stdDeviation="4"/>
<feComposite in2="hardAlpha" operator="out"/>
<feColorMatrix type="matrix" values="0 0 0 0 0.0352941 0 0 0 0 0.0745098 0 0 0 0 0.054902 0 0 0 0.5 0"/>
<feBlend mode="normal" in2="BackgroundImageFix" result="effect1_dropShadow_743_17555"/>
<feBlend mode="normal" in="SourceGraphic" in2="effect1_dropShadow_743_17555" result="shape"/>
</filter>
<filter id="filter10_f_743_17555" x="832.074" y="418.998" width="24.0078" height="23.9934" filterUnits="userSpaceOnUse" color-interpolation-filters="sRGB">
<feFlood flood-opacity="0" result="BackgroundImageFix"/>
<feBlend mode="normal" in="SourceGraphic" in2="BackgroundImageFix" result="shape"/>
<feGaussianBlur stdDeviation="2" result="effect1_foregroundBlur_743_17555"/>
</filter>
<filter id="filter11_f_743_17555" x="829.074" y="415.999" width="30.0117" height="29.9912" filterUnits="userSpaceOnUse" color-interpolation-filters="sRGB">
<feFlood flood-opacity="0" result="BackgroundImageFix"/>
<feBlend mode="normal" in="SourceGraphic" in2="BackgroundImageFix" result="shape"/>
<feGaussianBlur stdDeviation="2" result="effect1_foregroundBlur_743_17555"/>
</filter>
<filter id="filter12_f_743_17555" x="828.074" y="414.999" width="32.0117" height="31.9902" filterUnits="userSpaceOnUse" color-interpolation-filters="sRGB">
<feFlood flood-opacity="0" result="BackgroundImageFix"/>
<feBlend mode="normal" in="SourceGraphic" in2="BackgroundImageFix" result="shape"/>
<feGaussianBlur stdDeviation="2" result="effect1_foregroundBlur_743_17555"/>
</filter>
<filter id="filter13_f_743_17555" x="826.074" y="413" width="36.0117" height="35.9888" filterUnits="userSpaceOnUse" color-interpolation-filters="sRGB">
<feFlood flood-opacity="0" result="BackgroundImageFix"/>
<feBlend mode="normal" in="SourceGraphic" in2="BackgroundImageFix" result="shape"/>
<feGaussianBlur stdDeviation="2" result="effect1_foregroundBlur_743_17555"/>
</filter>
<filter id="filter14_f_743_17555" x="833.074" y="419.997" width="22.0039" height="21.9951" filterUnits="userSpaceOnUse" color-interpolation-filters="sRGB">
<feFlood flood-opacity="0" result="BackgroundImageFix"/>
<feBlend mode="normal" in="SourceGraphic" in2="BackgroundImageFix" result="shape"/>
<feGaussianBlur stdDeviation="2.5" result="effect1_foregroundBlur_743_17555"/>
</filter>
<clipPath id="clip0_743_17555">
<rect width="1920" height="1080" fill="white"/>
</clipPath>
<clipPath id="clip1_743_17555">
<rect y="296.513" width="248" height="394" rx="13" transform="rotate(-24.6699 0 296.513)" fill="white"/>
</clipPath>
<clipPath id="clip2_743_17555">
<rect x="1797.13" y="679" width="254" height="280" rx="10" transform="rotate(12.61 1797.13 679)" fill="white"/>
</clipPath>
<clipPath id="clip3_743_17555">
<rect x="592.66" y="35.3756" width="253.483" height="159.536" rx="10" transform="rotate(114.981 592.66 35.3756)" fill="white"/>
</clipPath>
<clipPath id="clip4_743_17555">
<rect x="1979.18" y="341.965" width="265" height="385" rx="132.5" transform="rotate(-171.244 1979.18 341.965)" fill="white"/>
</clipPath>
<clipPath id="clip5_743_17555">
<rect width="472.782" height="518.42" fill="white" transform="translate(2081.43 343.284) rotate(-171.244)"/>
</clipPath>
<clipPath id="clip6_743_17555">
<rect x="37.1875" y="741" width="334" height="354" rx="13.2336" transform="rotate(14.7601 37.1875 741)" fill="white"/>
</clipPath>
</defs>
</svg>
