<svg width="183" height="201" viewBox="0 0 183 201" fill="none" xmlns="http://www.w3.org/2000/svg">
<path d="M90.7453 2.98399C91.1146 1.91458 92.627 1.91458 92.9963 2.98399L101.241 26.8593C101.508 27.6325 100.933 28.4386 100.115 28.4386H83.6266C82.8085 28.4386 82.2341 27.6325 82.5011 26.8593L90.7453 2.98399Z" fill="#0485A2"/>
<path fill-rule="evenodd" clip-rule="evenodd" d="M91.0436 19.6184C83.6705 19.6184 68.3747 22.8977 60.6352 49.1845C54.5185 69.9595 53.6875 92.3573 53.1251 107.517C52.9712 111.665 52.8374 115.271 52.6209 118.153L52.1172 174.665C52.1477 181.367 53.9948 194.77 61.1389 194.77C62.2686 194.815 64.5919 194.925 64.8484 194.999C65.0395 195.053 65.0221 195.128 65.0008 195.219C64.9935 195.251 64.9858 195.284 64.9858 195.319L64.94 196.052C64.94 196.214 64.936 196.384 64.9316 196.573C64.921 197.027 64.9077 197.593 64.94 198.433C64.9948 199.858 65.0316 200.769 68.3289 200.769H88.1127C89.3644 200.784 90.8636 199.35 90.8636 198.159C90.8636 197.517 90.8493 196.954 90.8362 196.436C90.825 195.993 90.8146 195.583 90.8146 195.182C90.8146 195.159 90.8134 195.135 90.8123 195.112C90.8043 194.95 90.7967 194.797 91.181 194.861C91.6206 194.934 94.0203 194.892 95.1652 194.861H101.989C102.233 194.846 102.694 194.926 102.584 195.365V198.159C102.584 199.044 103.17 200.806 105.515 200.769C107.86 200.733 116.476 200.754 120.49 200.769C121.498 200.739 123.522 200 123.559 197.289V194.816C123.574 194.755 123.641 194.633 123.788 194.633C123.934 194.633 127.268 193.778 128.917 193.35C129.512 193.167 131.316 192.47 131.39 192.067C131.779 189.926 132.11 172.614 131.39 152.591C130.678 132.785 130.199 123.099 129.558 110.368C129.558 109.678 129.097 98.6036 129.1 97.8654L128.734 91.3624L128.367 86.2333C127.909 78.7228 127.314 61.3662 123.696 47.948C117.764 21.5238 100.707 19.3714 91.0436 19.6184Z" fill="#0E6F3A"/>
<path d="M71.0053 44.744C73.9543 38.9951 78.4352 37.7192 80.2706 37.7345C81.5095 37.8414 84.4002 38.605 86.052 40.804C88.1168 43.5529 88.9892 48.067 89.585 52.5783C90.1356 56.7474 89.8238 63.1615 88.7591 68.3842C88.7591 68.3842 88.1168 73.378 84.079 79.6087C79.0318 87.3971 71.6905 80.8457 70.4516 79.288C69.2128 77.7303 67.1479 72.6908 66.7808 68.4758C66.4872 65.1039 66.8875 60.2292 67.2855 56.839C67.8396 52.12 69.0782 48.5007 71.0053 44.744Z" fill="#FEE6CA"/>
<path d="M93.0336 50.3652C94.0213 41.2054 99.1765 37.8773 101.631 37.3583C102.472 37.2117 103.566 37.2972 104.009 37.3583C107.521 37.7613 109.984 40.2741 110.776 41.4802C112.103 43.2663 114.974 48.4508 115.852 54.8992C116.73 61.3477 115.883 68.5779 115.349 71.3869C114.282 75.753 110.566 84.2838 104.237 83.4778C97.9084 82.6717 94.4349 75.6263 93.9318 73.0463C92.9258 68.7412 92.0459 59.5249 93.0336 50.3652Z" fill="#FEE6CA"/>
<path d="M79.9631 56.2937C81.2067 56.1652 83.4456 57.1156 83.5369 59.222C83.6282 61.3285 83.0332 62.9664 80.9383 63.862C79.1575 64.6234 76.621 64.4266 76.6202 60.8532C76.6197 57.5776 78.8409 56.4428 79.9631 56.2937ZM103.413 56.2971C105.381 56.3831 106.595 57.9905 106.702 59.732C106.809 61.4733 106.113 62.7225 104.969 63.7237C103.825 64.7249 99.7 64.6817 100.005 60.8557C100.249 57.7955 102.378 56.5415 103.413 56.2971ZM81.1515 57.4189C81.0605 57.3996 80.8424 57.3687 80.6949 57.399C80.2605 57.5635 79.5169 58.1738 80.0166 59.2969C80.6419 60.7011 82.8905 60.5705 82.7681 59.1884C82.67 58.0826 81.6494 57.5478 81.1515 57.4189ZM104.629 57.5731C104.494 57.5213 104.171 57.4644 103.707 57.7165C103.238 57.9716 102.777 59.099 102.972 59.8877C103.166 60.6762 104.87 60.4294 105.357 59.7622C105.747 59.2285 105.557 58.6844 105.413 58.4793C105.241 58.2422 104.897 57.7225 104.629 57.5731Z" fill="#0A0000"/>
<path d="M177.323 196.556C172.12 195.785 137.725 194.859 121.177 194.492L120.078 192.704L126.032 162.117L133.817 164.639L155.524 181.973L173.018 193.437L177.048 194.813L177.323 196.556Z" fill="#0E6F3A"/>
<path d="M130.813 162.286C130.85 161.736 131.027 161.446 131.179 161.415C131.179 161.415 131.958 161.003 132.966 160.682C134.157 160.303 135.486 160.132 135.486 160.132C139.243 159.582 139.793 167.237 139.976 167.787C140.123 168.227 140.648 168.153 140.893 168.062C146.62 165.724 147.857 172.508 147.994 173.654C148.104 174.57 149.017 174.463 149.46 174.295C156.058 172.324 157.753 180.438 158.44 181.446C158.99 182.253 159.28 182.302 159.356 182.225C163.846 180.673 165.496 186.03 166.091 186.901C166.568 187.597 167.145 187.374 167.374 187.176C171.452 184.884 172.414 190.934 172.414 191.668C172.414 192.254 172.628 192.554 172.735 192.63C173.743 193.409 177.408 194.235 177.545 194.326C177.683 194.418 178.553 194.693 178.599 195.564C178.636 196.26 178.487 196.727 177.067 196.498L177.021 195.627C177.058 194.93 176.624 194.741 176.426 194.71C161.26 193.014 131.18 164.211 130.996 164.074C130.85 163.964 130.813 163.692 130.813 163.57C130.798 163.371 130.777 162.836 130.813 162.286Z" fill="#0485A2"/>
<path d="M56.8126 108.776C57.0671 108.304 57.6698 108.151 58.1185 108.443L67.3386 114.45C67.7624 114.726 67.8822 115.293 67.6061 115.717L46.4155 148.245C45.9701 148.929 44.9204 148.733 44.7519 147.935L42.2686 136.169C42.2238 135.957 42.2558 135.735 42.3589 135.545L56.8126 108.776Z" fill="#0E6F3A"/>
<path d="M37.7517 136.27C37.3169 136.214 37.2014 135.639 37.5809 135.419L44.0855 131.663C44.3569 131.506 44.7019 131.662 44.7636 131.969L45.7093 136.682C45.7709 136.99 45.5127 137.267 45.202 137.227L37.7517 136.27Z" fill="#0E6F3A"/>
<path d="M66.1574 114.793C66.4169 114.372 66.2951 113.821 65.8822 113.548L55.0354 106.387C54.5605 106.074 53.9178 106.265 53.6908 106.787L37.7154 143.525C37.3913 144.27 38.126 145.037 38.8844 144.745L50.1538 140.407C50.3409 140.335 50.4993 140.203 50.6045 140.032L66.1574 114.793Z" fill="#0E6F3A"/>
<path d="M126.031 108.813C125.777 108.341 125.174 108.188 124.725 108.48L115.505 114.487C115.081 114.763 114.962 115.33 115.238 115.754L136.428 148.283C136.874 148.966 137.923 148.77 138.092 147.972L140.575 136.206C140.62 135.994 140.588 135.772 140.485 135.582L126.031 108.813Z" fill="#0E6F3A"/>
<path d="M116.686 114.832C116.427 114.411 116.549 113.86 116.962 113.588L127.808 106.426C128.283 106.113 128.926 106.304 129.153 106.826L145.128 143.564C145.452 144.309 144.718 145.076 143.959 144.784L132.69 140.446C132.503 140.374 132.344 140.242 132.239 140.071L116.686 114.832Z" fill="#0E6F3A"/>
<path d="M145.576 136.307C146.011 136.252 146.127 135.676 145.747 135.457L139.243 131.7C138.971 131.543 138.626 131.699 138.565 132.006L137.619 136.719C137.557 137.027 137.815 137.304 138.126 137.264L145.576 136.307Z" fill="#0E6F3A"/>
<path d="M83.4414 88.4785C85.8381 88.8144 91.1992 88.9365 93.4707 86.7383" stroke="#090909" stroke-width="1.37387" stroke-linecap="round"/>
<path d="M114.58 151.657C114.58 174.561 103.559 182.634 89.8504 182.634C76.142 182.634 64.9375 174.561 64.9375 151.657C64.9375 128.753 76.0504 110.186 89.7588 110.186C103.467 110.186 114.58 128.753 114.58 151.657Z" fill="#559472"/>
</svg>
