<svg width="36" height="36" viewBox="0 0 36 36" fill="none" xmlns="http://www.w3.org/2000/svg">
<path d="M12.2055 12.5851V18.5851M9.2055 15.5851H15.2055M24.045 5.83057H11.9535C9.87711 5.83096 7.88591 6.65608 6.41782 8.12445C4.94974 9.59282 4.125 11.5842 4.125 13.6606V26.0581C4.125 29.1706 7.9245 30.6856 10.068 28.4296L14.532 23.7286H21.468L25.7805 28.9186C27.8415 31.3996 31.875 29.9416 31.875 26.7181V13.6591C31.8746 11.5829 31.0497 9.59196 29.5816 8.12392C28.1136 6.65588 26.1211 5.83096 24.045 5.83057Z" stroke="black" stroke-width="2.5" stroke-linecap="round" stroke-linejoin="round"/>
<path d="M21.9922 15.585C22.8206 15.585 23.4922 14.9134 23.4922 14.085C23.4922 13.2565 22.8206 12.585 21.9922 12.585C21.1638 12.585 20.4922 13.2565 20.4922 14.085C20.4922 14.9134 21.1638 15.585 21.9922 15.585Z" fill="black"/>
<path d="M25.2891 18.885C26.1175 18.885 26.7891 18.2134 26.7891 17.385C26.7891 16.5566 26.1175 15.885 25.2891 15.885C24.4606 15.885 23.7891 16.5566 23.7891 17.385C23.7891 18.2134 24.4606 18.885 25.2891 18.885Z" fill="black"/>
</svg>
