<svg width="377" height="243" viewBox="0 0 377 243" fill="none" xmlns="http://www.w3.org/2000/svg">
<g style="mix-blend-mode:hard-light">
<path d="M0.0585922 200.625L0.0585935 146.754C0.0585936 143.197 0.890593 140.67 2.55459 139.176C4.27059 137.681 6.76659 136.907 9.99059 136.907L32.4546 136.907C35.9386 136.907 39.2666 137.165 42.3346 137.732C45.4026 138.196 48.2626 139.124 50.8626 140.464C53.4626 141.805 55.5426 143.764 57.1546 146.29C58.7146 148.816 59.5466 152.012 59.5466 155.878C59.5466 159.126 58.6626 162.116 56.8946 164.745C55.1266 167.374 52.5266 169.385 49.1986 170.776L49.1986 170.983C53.3066 172.065 56.5306 174.076 58.7666 177.014C61.0546 179.849 62.1466 183.767 62.1466 188.665C62.1466 192.428 61.4186 195.676 59.9626 198.46C58.6106 201.192 56.6346 203.408 54.0866 205.213C51.5386 206.965 48.6266 208.306 45.3506 209.182C42.1266 210.007 38.6426 210.419 34.8466 210.419L9.93859 210.419C6.71459 210.419 4.21859 209.646 2.50259 208.151C0.890592 206.708 0.0585921 204.182 0.0585922 200.625ZM16.9586 177.787L16.9586 197.583L31.1546 197.583C33.0266 197.583 34.7426 197.428 36.3026 197.171C37.9666 196.913 39.4226 196.397 40.7226 195.727C42.0746 195.057 43.1666 194.078 43.8946 192.789C44.7266 191.5 45.1426 189.85 45.1426 187.788C45.1426 185.726 44.6746 183.922 43.7906 182.582C42.9586 181.241 41.8146 180.21 40.3066 179.54C38.8506 178.87 37.2386 178.406 35.3666 178.2C33.4946 177.942 31.4146 177.787 29.0746 177.787L16.9066 177.787L16.9586 177.787ZM16.9586 149.176L16.9586 167.116L30.8426 167.116C38.6426 167.116 42.5946 164.126 42.5946 158.146C42.5946 154.899 41.4506 152.579 39.2146 151.187C36.9266 149.847 34.0146 149.125 30.3746 149.125L17.0106 149.125L16.9586 149.176ZM73.3266 204.336L73.3266 143.093C73.3266 140.722 74.0025 138.866 75.3026 137.577C76.6545 136.289 78.5266 135.618 80.8665 135.618C83.2065 135.618 85.0265 136.289 86.3265 137.577C87.6785 138.866 88.4065 140.722 88.4065 143.093L88.4065 204.336C88.4065 206.708 87.7305 208.564 86.3265 209.852C85.0265 211.141 83.2065 211.811 80.8665 211.811C78.5265 211.811 76.6545 211.141 75.3025 209.852C74.0025 208.564 73.3266 206.708 73.3266 204.336ZM101.979 204.336L101.979 163.198C101.979 160.93 102.551 159.126 103.643 157.786C104.787 156.445 106.763 155.723 109.519 155.723C112.275 155.723 114.199 156.394 115.291 157.786C116.435 159.126 117.059 160.93 117.059 163.198L117.059 204.336C117.059 206.605 116.487 208.409 115.291 209.749C114.199 211.09 112.275 211.811 109.519 211.811C106.763 211.811 104.839 211.141 103.643 209.749C102.551 208.409 101.979 206.605 101.979 204.336ZM101.667 142.99C101.667 140.825 102.447 138.969 103.955 137.474C105.463 135.979 107.335 135.206 109.519 135.206C111.703 135.206 113.575 135.979 115.083 137.474C116.591 138.969 117.371 140.825 117.371 142.99C117.371 145.155 116.591 147.011 115.083 148.506C113.575 150.001 111.703 150.775 109.519 150.775C107.335 150.775 105.463 150.001 103.955 148.506C102.447 147.011 101.667 145.155 101.667 142.99ZM129.799 204.336L129.799 163.198C129.799 160.879 130.371 159.074 131.463 157.786C132.607 156.445 134.323 155.723 136.611 155.723C138.899 155.723 140.563 156.394 141.655 157.786C142.799 159.074 143.423 160.879 143.422 163.198L143.422 165.157L143.631 165.157C145.971 162.167 148.571 159.848 151.431 158.198C154.395 156.548 157.827 155.723 161.831 155.723C164.223 155.723 166.51 156.084 168.746 156.755C171.034 157.373 173.01 158.456 174.83 160.002C176.702 161.497 178.106 163.559 179.146 166.137C180.238 168.663 180.81 171.704 180.81 175.313L180.81 204.285C180.81 206.553 180.238 208.357 179.042 209.698C177.95 211.038 176.027 211.76 173.27 211.76C170.514 211.76 168.59 211.09 167.394 209.698C166.302 208.357 165.73 206.553 165.73 204.285L165.73 178.251C165.73 175.107 164.95 172.632 163.339 170.776C161.779 168.869 159.387 167.941 156.215 167.941C153.355 167.941 150.702 169.024 148.311 171.189C145.971 173.302 144.827 176.138 144.827 179.643L144.827 204.233C144.827 206.502 144.255 208.306 143.059 209.646C141.967 210.986 140.043 211.708 137.287 211.708C134.531 211.708 132.607 211.038 131.411 209.646C130.319 208.306 129.747 206.502 129.747 204.233L129.799 204.336ZM192.77 204.336L192.77 143.093C192.77 140.722 193.446 138.866 194.746 137.577C196.098 136.289 197.97 135.618 200.31 135.618C202.65 135.618 204.47 136.289 205.77 137.577C207.122 138.866 207.85 140.722 207.85 143.093L207.85 176.963L224.542 158.61C226.31 156.703 228.234 155.775 230.314 155.775C232.082 155.775 233.694 156.445 235.15 157.837C236.658 159.126 237.438 160.672 237.438 162.528C237.438 163.662 237.282 164.59 236.918 165.157C236.658 165.724 236.138 166.395 235.358 167.219C235.306 167.271 235.202 167.374 235.15 167.426L224.022 178.973L239.674 199.8C240.09 200.367 240.454 201.037 240.714 201.862C241.078 202.635 241.234 203.512 241.234 204.594C241.234 206.502 240.558 208.203 239.154 209.698C237.802 211.141 236.086 211.863 234.11 211.863C232.446 211.863 231.094 211.502 230.002 210.832C228.91 210.213 228.026 209.388 227.35 208.357L213.154 188.459L207.902 193.047L207.902 204.388C207.902 206.759 207.226 208.615 205.822 209.904C204.522 211.193 202.702 211.863 200.362 211.863C198.022 211.863 196.15 211.193 194.798 209.904C193.498 208.615 192.822 206.759 192.822 204.388L192.77 204.336ZM294.794 186.551L260.838 186.551C260.838 190.572 262.086 193.82 264.53 196.346C267.026 198.872 270.406 200.109 274.722 200.109C277.582 200.109 279.818 199.748 281.43 198.975C283.094 198.15 284.706 197.016 286.37 195.624C287.41 194.696 288.346 193.975 289.126 193.459C289.958 192.995 290.946 192.737 292.09 192.737C293.806 192.737 295.262 193.356 296.406 194.593C297.654 195.83 298.278 197.119 298.278 198.563C298.278 200.676 297.498 202.584 295.99 204.285C294.482 205.934 292.506 207.326 290.01 208.46C287.618 209.543 285.018 210.368 282.314 210.935C279.662 211.502 277.114 211.76 274.67 211.76C269.678 211.76 265.31 210.986 261.618 209.491C257.926 207.945 254.91 205.831 252.57 203.254C250.23 200.676 248.514 197.789 247.422 194.593C246.33 191.397 245.758 188.098 245.758 184.695C245.758 175.932 248.306 168.921 253.402 163.662C258.498 158.353 265.414 155.723 274.202 155.723C278.414 155.723 282.158 156.394 285.538 157.786C288.97 159.074 291.83 160.93 294.17 163.302C296.562 165.621 298.382 168.25 299.526 171.137C300.774 173.973 301.398 177.014 301.398 180.107C301.398 182.633 300.93 184.334 299.942 185.211C299.058 186.087 297.342 186.551 294.794 186.551ZM260.838 177.994L287.202 177.994C286.786 174.54 285.382 171.704 282.99 169.539C280.65 167.271 277.842 166.188 274.566 166.188C270.926 166.188 267.962 167.219 265.622 169.333C263.282 171.395 261.722 174.282 260.89 177.994L260.838 177.994ZM311.902 204.336L311.902 162.683C311.902 160.518 312.526 158.817 313.774 157.579C315.074 156.342 316.738 155.723 318.714 155.723C320.69 155.723 322.302 156.342 323.55 157.579C324.85 158.817 325.526 160.518 325.526 162.683L325.526 168.405L325.734 168.405C326.774 164.745 328.23 161.703 330.154 159.332C332.13 156.961 334.834 155.775 338.162 155.775C340.554 155.775 342.53 156.445 344.038 157.837C345.598 159.177 346.43 160.93 346.43 163.044C346.43 165.621 345.702 167.529 344.246 168.766C342.894 169.9 341.126 170.519 338.994 170.519L336.342 170.519C333.17 170.519 330.83 171.756 329.218 174.282C327.71 176.808 326.93 181.035 326.93 187.015L326.93 204.388C326.93 206.656 326.358 208.46 325.162 209.801C324.07 211.141 322.146 211.863 319.39 211.863C316.634 211.863 314.71 211.193 313.514 209.801C312.422 208.46 311.85 206.656 311.85 204.388L311.902 204.336Z" fill="#356549"/>
</g>
<g style="mix-blend-mode:hard-light">
<path d="M0.0585922 200.625L0.0585935 146.754C0.0585936 143.197 0.890593 140.67 2.55459 139.176C4.27059 137.681 6.76659 136.907 9.99059 136.907L32.4546 136.907C35.9386 136.907 39.2666 137.165 42.3346 137.732C45.4026 138.196 48.2626 139.124 50.8626 140.464C53.4626 141.805 55.5426 143.764 57.1546 146.29C58.7146 148.816 59.5466 152.012 59.5466 155.878C59.5466 159.126 58.6626 162.116 56.8946 164.745C55.1266 167.374 52.5266 169.385 49.1986 170.776L49.1986 170.983C53.3066 172.065 56.5306 174.076 58.7666 177.014C61.0546 179.849 62.1466 183.767 62.1466 188.665C62.1466 192.428 61.4186 195.676 59.9626 198.46C58.6106 201.192 56.6346 203.408 54.0866 205.213C51.5386 206.965 48.6266 208.306 45.3506 209.182C42.1266 210.007 38.6426 210.419 34.8466 210.419L9.93859 210.419C6.71459 210.419 4.21859 209.646 2.50259 208.151C0.890592 206.708 0.0585921 204.182 0.0585922 200.625ZM16.9586 177.787L16.9586 197.583L31.1546 197.583C33.0266 197.583 34.7426 197.428 36.3026 197.171C37.9666 196.913 39.4226 196.397 40.7226 195.727C42.0746 195.057 43.1666 194.078 43.8946 192.789C44.7266 191.5 45.1426 189.85 45.1426 187.788C45.1426 185.726 44.6746 183.922 43.7906 182.582C42.9586 181.241 41.8146 180.21 40.3066 179.54C38.8506 178.87 37.2386 178.406 35.3666 178.2C33.4946 177.942 31.4146 177.787 29.0746 177.787L16.9066 177.787L16.9586 177.787ZM16.9586 149.176L16.9586 167.116L30.8426 167.116C38.6426 167.116 42.5946 164.126 42.5946 158.146C42.5946 154.899 41.4506 152.579 39.2146 151.187C36.9266 149.847 34.0146 149.125 30.3746 149.125L17.0106 149.125L16.9586 149.176ZM73.3266 204.336L73.3266 143.093C73.3266 140.722 74.0025 138.866 75.3026 137.577C76.6545 136.289 78.5266 135.618 80.8665 135.618C83.2065 135.618 85.0265 136.289 86.3265 137.577C87.6785 138.866 88.4065 140.722 88.4065 143.093L88.4065 204.336C88.4065 206.708 87.7305 208.564 86.3265 209.852C85.0265 211.141 83.2065 211.811 80.8665 211.811C78.5265 211.811 76.6545 211.141 75.3025 209.852C74.0025 208.564 73.3266 206.708 73.3266 204.336ZM101.979 204.336L101.979 163.198C101.979 160.93 102.551 159.126 103.643 157.786C104.787 156.445 106.763 155.723 109.519 155.723C112.275 155.723 114.199 156.394 115.291 157.786C116.435 159.126 117.059 160.93 117.059 163.198L117.059 204.336C117.059 206.605 116.487 208.409 115.291 209.749C114.199 211.09 112.275 211.811 109.519 211.811C106.763 211.811 104.839 211.141 103.643 209.749C102.551 208.409 101.979 206.605 101.979 204.336ZM101.667 142.99C101.667 140.825 102.447 138.969 103.955 137.474C105.463 135.979 107.335 135.206 109.519 135.206C111.703 135.206 113.575 135.979 115.083 137.474C116.591 138.969 117.371 140.825 117.371 142.99C117.371 145.155 116.591 147.011 115.083 148.506C113.575 150.001 111.703 150.775 109.519 150.775C107.335 150.775 105.463 150.001 103.955 148.506C102.447 147.011 101.667 145.155 101.667 142.99ZM129.799 204.336L129.799 163.198C129.799 160.879 130.371 159.074 131.463 157.786C132.607 156.445 134.323 155.723 136.611 155.723C138.899 155.723 140.563 156.394 141.655 157.786C142.799 159.074 143.423 160.879 143.422 163.198L143.422 165.157L143.631 165.157C145.971 162.167 148.571 159.848 151.431 158.198C154.395 156.548 157.827 155.723 161.831 155.723C164.223 155.723 166.51 156.084 168.746 156.755C171.034 157.373 173.01 158.456 174.83 160.002C176.702 161.497 178.106 163.559 179.146 166.137C180.238 168.663 180.81 171.704 180.81 175.313L180.81 204.285C180.81 206.553 180.238 208.357 179.042 209.698C177.95 211.038 176.027 211.76 173.27 211.76C170.514 211.76 168.59 211.09 167.394 209.698C166.302 208.357 165.73 206.553 165.73 204.285L165.73 178.251C165.73 175.107 164.95 172.632 163.339 170.776C161.779 168.869 159.387 167.941 156.215 167.941C153.355 167.941 150.702 169.024 148.311 171.189C145.971 173.302 144.827 176.138 144.827 179.643L144.827 204.233C144.827 206.502 144.255 208.306 143.059 209.646C141.967 210.986 140.043 211.708 137.287 211.708C134.531 211.708 132.607 211.038 131.411 209.646C130.319 208.306 129.747 206.502 129.747 204.233L129.799 204.336ZM192.77 204.336L192.77 143.093C192.77 140.722 193.446 138.866 194.746 137.577C196.098 136.289 197.97 135.618 200.31 135.618C202.65 135.618 204.47 136.289 205.77 137.577C207.122 138.866 207.85 140.722 207.85 143.093L207.85 176.963L224.542 158.61C226.31 156.703 228.234 155.775 230.314 155.775C232.082 155.775 233.694 156.445 235.15 157.837C236.658 159.126 237.438 160.672 237.438 162.528C237.438 163.662 237.282 164.59 236.918 165.157C236.658 165.724 236.138 166.395 235.358 167.219C235.306 167.271 235.202 167.374 235.15 167.426L224.022 178.973L239.674 199.8C240.09 200.367 240.454 201.037 240.714 201.862C241.078 202.635 241.234 203.512 241.234 204.594C241.234 206.502 240.558 208.203 239.154 209.698C237.802 211.141 236.086 211.863 234.11 211.863C232.446 211.863 231.094 211.502 230.002 210.832C228.91 210.213 228.026 209.388 227.35 208.357L213.154 188.459L207.902 193.047L207.902 204.388C207.902 206.759 207.226 208.615 205.822 209.904C204.522 211.193 202.702 211.863 200.362 211.863C198.022 211.863 196.15 211.193 194.798 209.904C193.498 208.615 192.822 206.759 192.822 204.388L192.77 204.336ZM294.794 186.551L260.838 186.551C260.838 190.572 262.086 193.82 264.53 196.346C267.026 198.872 270.406 200.109 274.722 200.109C277.582 200.109 279.818 199.748 281.43 198.975C283.094 198.15 284.706 197.016 286.37 195.624C287.41 194.696 288.346 193.975 289.126 193.459C289.958 192.995 290.946 192.737 292.09 192.737C293.806 192.737 295.262 193.356 296.406 194.593C297.654 195.83 298.278 197.119 298.278 198.563C298.278 200.676 297.498 202.584 295.99 204.285C294.482 205.934 292.506 207.326 290.01 208.46C287.618 209.543 285.018 210.368 282.314 210.935C279.662 211.502 277.114 211.76 274.67 211.76C269.678 211.76 265.31 210.986 261.618 209.491C257.926 207.945 254.91 205.831 252.57 203.254C250.23 200.676 248.514 197.789 247.422 194.593C246.33 191.397 245.758 188.098 245.758 184.695C245.758 175.932 248.306 168.921 253.402 163.662C258.498 158.353 265.414 155.723 274.202 155.723C278.414 155.723 282.158 156.394 285.538 157.786C288.97 159.074 291.83 160.93 294.17 163.302C296.562 165.621 298.382 168.25 299.526 171.137C300.774 173.973 301.398 177.014 301.398 180.107C301.398 182.633 300.93 184.334 299.942 185.211C299.058 186.087 297.342 186.551 294.794 186.551ZM260.838 177.994L287.202 177.994C286.786 174.54 285.382 171.704 282.99 169.539C280.65 167.271 277.842 166.188 274.566 166.188C270.926 166.188 267.962 167.219 265.622 169.333C263.282 171.395 261.722 174.282 260.89 177.994L260.838 177.994ZM311.902 204.336L311.902 162.683C311.902 160.518 312.526 158.817 313.774 157.579C315.074 156.342 316.738 155.723 318.714 155.723C320.69 155.723 322.302 156.342 323.55 157.579C324.85 158.817 325.526 160.518 325.526 162.683L325.526 168.405L325.734 168.405C326.774 164.745 328.23 161.703 330.154 159.332C332.13 156.961 334.834 155.775 338.162 155.775C340.554 155.775 342.53 156.445 344.038 157.837C345.598 159.177 346.43 160.93 346.43 163.044C346.43 165.621 345.702 167.529 344.246 168.766C342.894 169.9 341.126 170.519 338.994 170.519L336.342 170.519C333.17 170.519 330.83 171.756 329.218 174.282C327.71 176.808 326.93 181.035 326.93 187.015L326.93 204.388C326.93 206.656 326.358 208.46 325.162 209.801C324.07 211.141 322.146 211.863 319.39 211.863C316.634 211.863 314.71 211.193 313.514 209.801C312.422 208.46 311.85 206.656 311.85 204.388L311.902 204.336Z" fill="#356549"/>
</g>
<path d="M325.526 168.405L325.734 168.405C326.461 165.828 327.449 163.714 328.593 161.755L325.266 161.343C325.318 161.807 325.474 162.168 325.474 162.683L325.474 168.405L325.526 168.405Z" fill="#505050"/>
<path d="M156.259 167.993C154.543 167.993 152.931 168.406 151.371 169.179L165.359 175.004C164.995 173.406 164.371 171.963 163.383 170.828C161.823 168.921 159.431 167.993 156.259 167.993Z" fill="#505050"/>
<path d="M109.466 135L109.466 135.206C111.65 135.206 113.522 135.979 115.03 137.474C116.538 138.969 117.318 140.825 117.318 142.99C117.318 145.156 116.538 147.011 115.03 148.506C113.522 150.001 111.65 150.775 109.466 150.775C108.218 150.775 107.074 150.465 106.034 149.95L105.93 150.362L130.11 160.415C130.37 159.384 130.786 158.507 131.358 157.837C132.502 156.497 134.218 155.775 136.506 155.775C138.794 155.775 140.458 156.445 141.55 157.837C142.694 159.126 143.318 160.93 143.318 163.25L143.318 165.209L143.526 165.209C145.866 162.219 148.466 159.899 151.326 158.25C154.29 156.6 157.722 155.775 161.726 155.775C164.118 155.775 166.406 156.136 168.642 156.806C170.93 157.425 172.958 158.507 174.726 160.054C176.598 161.549 178.002 163.611 179.042 166.189C180.134 168.715 180.706 171.756 180.706 175.365L180.706 181.448L192.666 186.448L192.666 145.156L109.466 135Z" fill="#505050"/>
<path d="M346.214 164.23C346.006 166.137 345.434 167.684 344.238 168.715C342.886 169.849 341.118 170.468 338.986 170.468L336.334 170.468C333.162 170.468 330.822 171.705 329.21 174.231C327.702 176.757 326.922 180.984 326.922 186.964L326.922 204.337C326.922 206.605 326.35 208.409 325.154 209.75C324.062 211.09 322.138 211.812 319.382 211.812C316.626 211.812 314.702 211.142 313.506 209.75C312.414 208.409 311.842 206.605 311.842 204.337L311.842 162.683C311.842 161.601 311.998 160.621 312.31 159.796L207.738 147.012L207.738 176.963L224.43 158.611C226.198 156.703 228.122 155.775 230.202 155.775C231.97 155.775 233.582 156.446 235.038 157.837C236.546 159.126 237.326 160.673 237.326 162.529C237.326 163.663 237.17 164.591 236.806 165.158C236.546 165.725 236.026 166.395 235.246 167.22C235.194 167.271 235.09 167.374 235.038 167.426L223.91 178.974L239.562 199.8C239.978 200.367 240.342 201.037 240.602 201.862C240.966 202.636 241.122 203.512 241.122 204.595C241.122 205.265 240.914 205.832 240.758 206.45L319.07 238.979C320.422 239.649 321.878 240.216 323.282 240.732L323.854 240.938C327.91 242.227 332.226 243 336.698 243C358.954 243 376.998 225.112 376.998 203.048C376.998 184.232 363.842 168.509 346.162 164.281L346.214 164.23ZM299.934 185.211C299.05 186.088 297.334 186.552 294.786 186.552L260.83 186.552C260.83 190.573 262.078 193.82 264.522 196.346C267.018 198.872 270.398 200.11 274.714 200.11C277.574 200.11 279.81 199.749 281.422 198.975C283.086 198.151 284.698 197.016 286.362 195.625C287.402 194.697 288.338 193.975 289.118 193.459C289.95 192.995 290.938 192.738 292.082 192.738C293.798 192.738 295.254 193.356 296.398 194.594C297.646 195.831 298.27 197.12 298.27 198.563C298.27 200.677 297.49 202.584 295.982 204.285C294.474 205.935 292.498 207.327 290.002 208.461C287.61 209.543 285.01 210.368 282.306 210.935C279.654 211.502 277.106 211.76 274.662 211.76C269.67 211.76 265.302 210.987 261.61 209.492C257.918 207.945 254.902 205.832 252.562 203.254C250.222 200.677 248.506 197.79 247.414 194.594C246.322 191.397 245.75 188.098 245.75 184.696C245.75 175.932 248.298 168.921 253.394 163.663C258.49 158.353 265.406 155.724 274.194 155.724C278.406 155.724 282.15 156.394 285.53 157.786C288.962 159.075 291.822 160.931 294.162 163.302C296.554 165.622 298.374 168.251 299.518 171.138C300.766 173.973 301.39 177.015 301.39 180.108C301.39 182.634 300.922 184.335 299.934 185.211Z" fill="#505050"/>
<path d="M274.508 166.137C270.868 166.137 267.904 167.168 265.564 169.281C263.224 171.343 261.664 174.23 260.832 177.942L287.196 177.942C286.78 174.488 285.376 171.653 282.984 169.488C280.644 167.219 277.836 166.137 274.56 166.137L274.508 166.137Z" fill="#505050"/>
<path d="M208.051 192.739L219.543 197.533L213.043 188.408L208.051 192.739Z" fill="#505050"/>
<path d="M227.244 208.306C227.92 209.337 228.804 210.162 229.896 210.78C230.988 211.45 232.392 211.811 234.004 211.811C235.98 211.811 237.696 211.089 239.048 209.646C239.932 208.667 240.452 207.532 240.764 206.398L219.496 197.583L227.192 208.357L227.244 208.306Z" fill="#356549"/>
<path d="M192.766 204.336C192.766 206.708 193.442 208.564 194.742 209.852C196.094 211.141 197.966 211.811 200.306 211.811C202.646 211.811 204.466 211.141 205.766 209.852C207.118 208.564 207.846 206.708 207.846 204.336L207.846 192.995L208.106 192.737L192.818 186.396L192.818 204.336L192.766 204.336Z" fill="#356549"/>
<path d="M129.793 163.199L129.793 204.337C129.793 206.605 130.365 208.409 131.457 209.75C132.601 211.09 134.577 211.812 137.333 211.812C140.089 211.812 142.013 211.142 143.105 209.75C144.249 208.409 144.873 206.605 144.873 204.337L144.873 179.747C144.873 176.19 146.017 173.406 148.357 171.292C149.345 170.416 150.333 169.746 151.425 169.23L130.209 160.415C130.001 161.24 129.845 162.168 129.845 163.25L129.793 163.199Z" fill="#356549"/>
<path d="M165.727 178.303L165.727 204.337C165.727 206.605 166.299 208.409 167.391 209.749C168.535 211.09 170.511 211.812 173.267 211.812C176.023 211.812 177.947 211.141 179.039 209.749C180.183 208.409 180.807 206.605 180.807 204.337L180.807 181.396L165.363 175.004C165.623 176.035 165.727 177.118 165.727 178.303Z" fill="#356549"/>
<path d="M49.036 171.034L49.036 170.828C52.416 169.488 54.964 167.477 56.732 164.797C58.5 162.168 59.384 159.178 59.384 155.93C59.384 152.064 58.604 148.867 56.992 146.341C55.432 143.815 53.3 141.908 50.7 140.516C48.1 139.176 45.24 138.248 42.172 137.784C39.104 137.217 35.776 136.959 32.292 136.959L9.93199 136.959C6.708 136.959 4.212 137.732 2.496 139.227C0.831999 140.722 -1.4597e-07 143.248 -2.28527e-07 146.805L-1.47884e-06 200.676C-1.5614e-06 204.233 0.831998 206.708 2.496 208.254C4.212 209.749 6.70799 210.523 9.93199 210.523L34.736 210.523C38.532 210.523 42.016 210.11 45.24 209.285C48.516 208.409 51.428 207.069 53.976 205.316C56.524 203.563 58.448 201.295 59.852 198.563C61.308 195.779 62.036 192.531 62.036 188.768C62.036 183.871 60.892 180.004 58.656 177.117C56.368 174.179 53.196 172.169 49.088 171.086L49.036 171.034ZM16.952 149.177L30.316 149.177C33.956 149.177 36.92 149.847 39.156 151.239C41.444 152.579 42.536 154.899 42.536 158.198C42.536 164.178 38.636 167.168 30.784 167.168L16.9 167.168L16.9 149.228L16.952 149.177ZM43.888 192.789C43.108 194.078 42.068 195.057 40.716 195.727C39.416 196.398 37.96 196.862 36.296 197.171C34.736 197.429 33.02 197.583 31.148 197.583L16.952 197.583L16.952 177.788L29.12 177.788C31.46 177.788 33.54 177.942 35.412 178.2C37.284 178.406 38.896 178.87 40.352 179.54C41.86 180.211 43.004 181.242 43.836 182.582C44.72 183.922 45.188 185.675 45.188 187.789C45.188 189.902 44.772 191.5 43.94 192.789L43.888 192.789Z" fill="#356549"/>
<path d="M80.8603 135.619C78.5203 135.619 76.6483 136.289 75.2963 137.578C73.9963 138.867 73.3203 140.723 73.3203 143.094L73.3203 204.337C73.3203 206.708 73.9963 208.564 75.2963 209.853C76.6483 211.142 78.5203 211.812 80.8603 211.812C83.2003 211.812 85.0203 211.142 86.3203 209.853C87.6723 208.564 88.4003 206.708 88.4003 204.337L88.4003 143.094C88.4003 140.723 87.7243 138.867 86.3203 137.578C85.0203 136.289 83.2003 135.619 80.8603 135.619Z" fill="#356549"/>
<path d="M109.517 155.724C106.761 155.724 104.837 156.394 103.641 157.786C102.549 159.126 101.977 160.93 101.977 163.199L101.977 204.337C101.977 206.605 102.549 208.409 103.641 209.749C104.785 211.09 106.761 211.811 109.517 211.811C112.273 211.811 114.197 211.141 115.289 209.749C116.433 208.409 117.057 206.605 117.057 204.337L117.057 163.199C117.057 160.93 116.485 159.126 115.289 157.786C114.197 156.445 112.273 155.724 109.517 155.724Z" fill="#356549"/>
<path d="M340.346 163.25C342.374 163.405 344.298 163.766 346.222 164.23C346.222 163.817 346.43 163.456 346.43 162.992C346.43 160.879 345.65 159.126 344.038 157.786C342.53 156.445 340.554 155.724 338.162 155.724C334.782 155.724 332.13 156.909 330.154 159.281C329.582 160.002 329.114 160.879 328.594 161.755L340.346 163.199L340.346 163.25Z" fill="#356549"/>
<path d="M207.795 143.094C207.795 140.723 207.119 138.867 205.715 137.578C204.415 136.289 202.595 135.619 200.255 135.619C197.915 135.619 196.043 136.289 194.691 137.578C193.391 138.867 192.715 140.723 192.715 143.094L192.715 145.208L207.743 147.064L207.743 143.146L207.795 143.094Z" fill="#356549"/>
<path d="M323.543 157.579C322.295 156.342 320.683 155.724 318.707 155.724C316.731 155.724 315.067 156.342 313.767 157.579C313.143 158.198 312.675 158.92 312.363 159.796L325.259 161.394C325.051 159.899 324.531 158.559 323.543 157.631L323.543 157.579Z" fill="#356549"/>
<path d="M103.948 137.474C102.44 138.969 101.66 140.825 101.66 142.99C101.66 145.155 102.44 147.011 103.948 148.506C104.572 149.125 105.352 149.589 106.08 149.95L109.408 135.206C107.224 135.206 105.404 135.979 103.948 137.423L103.948 137.474Z" fill="#356549"/>
<path d="M311.898 204.336C311.898 206.604 312.47 208.409 313.562 209.749C314.706 211.089 316.682 211.811 319.438 211.811C322.194 211.811 324.118 211.141 325.21 209.749C326.354 208.409 326.978 206.604 326.978 204.336L326.978 186.963C326.978 180.983 327.706 176.705 329.266 174.23C330.826 171.704 333.218 170.467 336.39 170.467L339.042 170.467C341.174 170.467 342.942 169.9 344.294 168.714C345.49 167.735 346.062 166.137 346.27 164.229C344.346 163.765 342.422 163.404 340.394 163.25L328.642 161.806C327.498 163.765 326.458 165.879 325.782 168.457L325.574 168.457L325.574 162.734C325.574 162.219 325.418 161.858 325.366 161.394L312.47 159.796C312.158 160.621 312.002 161.6 312.002 162.683L312.002 204.336L311.898 204.336Z" fill="#6FE593"/>
<path d="M294.166 163.302C291.826 160.93 288.966 159.074 285.534 157.786C282.154 156.445 278.41 155.724 274.198 155.724C265.41 155.724 258.494 158.353 253.398 163.663C248.302 168.921 245.754 175.932 245.754 184.695C245.754 188.098 246.326 191.397 247.418 194.593C248.51 197.79 250.226 200.676 252.566 203.254C254.906 205.832 257.922 207.894 261.614 209.492C265.306 210.987 269.674 211.76 274.666 211.76C277.058 211.76 279.606 211.502 282.31 210.935C285.066 210.368 287.614 209.595 290.006 208.461C292.502 207.326 294.478 205.935 295.986 204.285C297.494 202.584 298.274 200.676 298.274 198.563C298.274 197.119 297.65 195.831 296.402 194.593C295.258 193.356 293.802 192.737 292.086 192.737C290.942 192.737 289.902 192.995 289.122 193.459C288.29 193.923 287.354 194.645 286.366 195.624C284.702 197.068 283.09 198.15 281.426 198.975C279.866 199.748 277.63 200.109 274.718 200.109C270.402 200.109 267.022 198.872 264.526 196.346C262.03 193.82 260.834 190.572 260.834 186.551L294.79 186.551C297.338 186.551 299.054 186.087 299.938 185.211C300.874 184.335 301.394 182.633 301.394 180.107C301.394 176.963 300.77 173.973 299.522 171.137C298.378 168.199 296.558 165.57 294.166 163.302ZM260.834 177.994C261.666 174.231 263.226 171.344 265.566 169.333C267.906 167.22 270.87 166.189 274.51 166.189C277.786 166.189 280.594 167.323 282.934 169.539C285.326 171.705 286.73 174.54 287.146 177.994L260.782 177.994L260.834 177.994Z" fill="#6FE593"/>
<path d="M240.607 201.759C240.347 200.934 239.983 200.264 239.567 199.697L223.915 178.87L235.043 167.322C235.043 167.322 235.199 167.168 235.251 167.116C236.031 166.291 236.499 165.621 236.811 165.054C237.175 164.435 237.331 163.559 237.331 162.425C237.331 160.569 236.551 159.023 235.043 157.734C233.587 156.393 231.975 155.672 230.207 155.672C228.127 155.672 226.203 156.6 224.435 158.507L207.743 176.859L207.743 147.011L192.715 145.155L192.715 186.345L208.003 192.686L212.995 188.355L219.495 197.48L240.763 206.295C240.919 205.677 241.127 205.109 241.127 204.439C241.127 203.357 240.971 202.429 240.607 201.707L240.607 201.759Z" fill="#6FE593"/>
<path d="M179.143 166.137C178.103 163.559 176.647 161.497 174.827 160.002C173.059 158.456 171.031 157.373 168.743 156.755C166.559 156.084 164.271 155.724 161.827 155.724C157.823 155.724 154.391 156.548 151.427 158.198C148.567 159.848 145.915 162.168 143.627 165.158L143.419 165.158L143.419 163.199C143.419 160.879 142.847 159.074 141.651 157.786C140.559 156.445 138.895 155.724 136.607 155.724C134.319 155.724 132.603 156.394 131.459 157.786C130.887 158.507 130.471 159.384 130.211 160.363L151.427 169.179C152.987 168.405 154.599 167.993 156.315 167.993C159.487 167.993 161.827 168.921 163.439 170.828C164.427 171.962 165.051 173.354 165.415 175.004L180.859 181.396L180.859 175.313C180.859 171.705 180.287 168.663 179.195 166.137L179.143 166.137Z" fill="#6FE593"/>
<path d="M115.077 148.506C116.585 147.011 117.365 145.155 117.365 142.99C117.365 140.825 116.585 138.969 115.077 137.474C113.569 135.979 111.697 135.206 109.513 135.206C109.513 135.206 109.513 135.206 109.461 135.206L106.133 149.898C107.173 150.414 108.265 150.723 109.565 150.723C111.749 150.723 113.621 149.95 115.129 148.455L115.077 148.506Z" fill="#356549"/>
<path d="M109.464 151.084C113.936 151.084 117.576 147.475 117.576 143.042C117.576 138.609 113.936 135 109.464 135C104.992 135 101.352 138.609 101.352 143.042C101.352 147.475 104.992 151.084 109.464 151.084Z" fill="white"/>
<g filter="url(#filter0_dd_470_1026)">
<g clip-path="url(#clip0_470_1026)">
<path d="M156.225 49.9139C158.977 44.5487 163.159 43.358 164.872 43.3722C166.028 43.4719 168.726 44.1846 170.267 46.2369C172.194 48.8024 173.008 53.0152 173.564 57.2255C174.078 61.1163 173.787 67.1024 172.794 71.9766C172.794 71.9766 172.194 76.6371 168.426 82.4521C163.715 89.7209 156.864 83.6065 155.708 82.1529C154.552 80.699 152.625 75.9959 152.282 72.0621C152.008 68.9152 152.382 64.3658 152.753 61.2018C153.27 56.7977 154.426 53.4201 156.225 49.9139Z" fill="#FEE6CA"/>
<path d="M176.782 55.1597C177.704 46.6112 182.515 43.5053 184.805 43.0207C185.591 42.8842 186.612 42.9638 187.025 43.0207C190.302 43.397 192.601 45.7421 193.341 46.8677C194.579 48.5347 197.259 53.3731 198.078 59.3914C198.898 65.4094 198.107 72.1571 197.609 74.7787C196.613 78.8535 193.145 86.8151 187.238 86.0628C181.332 85.3104 178.09 78.7352 177.621 76.3274C176.682 72.3094 175.86 63.7084 176.782 55.1597Z" fill="#FEE6CA"/>
<path d="M164.581 60.6308C165.742 60.511 167.831 61.3976 167.916 63.3633C168.001 65.3293 167.446 66.8579 165.491 67.6937C163.829 68.4043 161.462 68.2208 161.461 64.8854C161.461 61.8282 163.534 60.77 164.581 60.6308ZM186.466 60.6336C188.303 60.7141 189.435 62.2138 189.535 63.8391C189.635 65.4643 188.985 66.6303 187.918 67.5648C186.85 68.4991 183.001 68.4589 183.285 64.8883C183.513 62.0318 185.501 60.8617 186.466 60.6336ZM165.692 61.6767C165.608 61.6589 165.403 61.63 165.265 61.6581C164.859 61.811 164.164 62.378 164.632 63.422C165.217 64.7272 167.319 64.6058 167.204 63.3213C167.112 62.2934 166.158 61.7965 165.692 61.6767ZM187.636 61.8254C187.51 61.7772 187.209 61.7244 186.775 61.9586C186.337 62.1952 185.906 63.2429 186.088 63.9759C186.27 64.7089 187.863 64.48 188.318 63.8599C188.682 63.3641 188.504 62.8586 188.37 62.6679C188.209 62.4476 187.887 61.9643 187.636 61.8254Z" fill="#0A0000"/>
<path d="M174.812 88.4757C175.166 88.4695 175.458 88.7514 175.465 89.1054C175.471 89.4594 175.189 89.7516 174.835 89.7578L171.406 89.818L171.341 89.8159C171.017 89.7888 170.76 89.5201 170.754 89.1882C170.748 88.8343 171.03 88.5423 171.384 88.5361L174.812 88.4757Z" fill="#090909"/>
<path d="M152.909 54.6615C155.744 49.134 160.053 47.9073 161.818 47.922C163.009 48.0248 165.788 48.7589 167.376 50.8733C169.362 53.5163 170.2 57.8566 170.773 62.1942C171.303 66.2028 171.003 72.3699 169.979 77.3915C169.979 77.3915 169.362 82.193 165.479 88.1838C160.627 95.6723 153.568 89.3731 152.377 87.8754C151.186 86.3777 149.2 81.5322 148.847 77.4796C148.565 74.2375 148.95 69.5505 149.333 66.2909C149.865 61.7536 151.056 58.2737 152.909 54.6615Z" fill="#FEE6CA"/>
<path d="M174.087 60.0653C175.037 51.2582 179.994 48.0583 182.353 47.5593C183.162 47.4183 184.215 47.5005 184.64 47.5593C188.016 47.9468 190.385 50.3628 191.147 51.5224C192.422 53.2398 195.183 58.2246 196.027 64.4248C196.872 70.625 196.057 77.5767 195.544 80.2775C194.518 84.4756 190.945 92.6779 184.86 91.9029C178.774 91.1278 175.435 84.3537 174.951 81.8731C173.984 77.7337 173.138 68.8724 174.087 60.0653Z" fill="#FEE6CA"/>
<path d="M161.52 65.7025C162.716 65.5792 164.868 66.4931 164.955 68.5183C165.043 70.5434 164.471 72.1178 162.457 72.9789C160.745 73.7109 158.306 73.5221 158.305 70.0859C158.305 66.9362 160.441 65.8458 161.52 65.7025ZM184.067 65.7056C185.959 65.7882 187.125 67.3335 187.229 69.0079C187.332 70.6823 186.662 71.8834 185.562 72.846C184.462 73.8087 180.497 73.7676 180.79 70.0891C181.024 67.1462 183.072 65.9404 184.067 65.7056ZM162.664 66.7808C162.576 66.7624 162.366 66.7327 162.224 66.7616C161.805 66.9191 161.09 67.5029 161.572 68.5786C162.174 69.9233 164.34 69.798 164.221 68.4745C164.126 67.4159 163.143 66.9043 162.664 66.7808ZM185.271 66.9341C185.141 66.8845 184.83 66.83 184.384 67.0713C183.932 67.3155 183.489 68.3947 183.676 69.1498C183.864 69.9045 185.505 69.6688 185.974 69.0303C186.349 68.5193 186.166 67.9984 186.027 67.8019C185.861 67.5749 185.53 67.0772 185.271 66.9341Z" fill="#0A0000"/>
<path d="M139.264 116.227C139.509 115.774 140.089 115.627 140.52 115.908L149.385 121.683C149.793 121.948 149.908 122.494 149.642 122.901L129.268 154.177C128.839 154.835 127.83 154.646 127.668 153.878L125.28 142.566C125.237 142.362 125.268 142.149 125.367 141.965L139.264 116.227Z" fill="#0E6F3A"/>
<path d="M205.814 116.262C205.569 115.809 204.99 115.662 204.558 115.943L195.693 121.718C195.286 121.983 195.17 122.529 195.436 122.937L215.81 154.212C216.239 154.87 217.248 154.681 217.41 153.914L219.798 142.601C219.841 142.397 219.81 142.184 219.711 142.001L205.814 116.262Z" fill="#0E6F3A"/>
<path d="M196.829 122.049C196.58 121.644 196.697 121.115 197.094 120.852L207.523 113.967C207.979 113.666 208.597 113.849 208.816 114.351L224.176 149.675C224.487 150.391 223.781 151.129 223.052 150.848L212.216 146.676C212.037 146.607 211.884 146.481 211.783 146.317L196.829 122.049Z" fill="#0E6F3A"/>
<path d="M194.809 157.456C194.809 179.478 184.212 187.24 171.032 187.24C157.851 187.24 147.078 179.478 147.078 157.456C147.078 135.433 157.763 117.581 170.944 117.581C184.124 117.581 194.809 135.433 194.809 157.456Z" fill="#559472"/>
<path d="M171.286 93.0473C170.582 93.5023 169.64 94.6765 171.507 95.7333C173.84 97.0542 173.048 91.7263 171.286 93.0473Z" stroke="#090909" stroke-width="1.32097" stroke-linecap="round"/>
<path d="M173.479 24.5487C173.794 23.6355 175.086 23.6355 175.401 24.5487L182.44 44.9347C182.668 45.595 182.178 46.2832 181.479 46.2832H167.4C166.702 46.2832 166.211 45.595 166.439 44.9347L173.479 24.5487Z" fill="#0485A2"/>
<path fill-rule="evenodd" clip-rule="evenodd" d="M173.738 38.7517C167.442 38.7517 154.382 41.5517 147.773 63.9969C142.55 81.7358 141.841 100.86 141.361 113.805C141.229 117.346 141.115 120.425 140.93 122.886L140.5 171.139C140.526 176.862 142.103 188.306 148.203 188.306C149.168 188.345 151.152 188.439 151.371 188.501C151.534 188.548 151.519 188.612 151.501 188.69C151.495 188.717 151.488 188.745 151.488 188.775L151.449 189.401C151.449 189.539 151.445 189.684 151.442 189.846C151.433 190.233 151.421 190.717 151.449 191.434C151.496 192.651 151.527 193.429 154.342 193.429H171.235C172.304 193.442 173.584 192.216 173.584 191.2C173.584 190.651 173.572 190.171 173.561 189.729C173.551 189.351 173.542 189 173.542 188.658C173.542 188.638 173.541 188.618 173.54 188.598C173.533 188.46 173.527 188.329 173.855 188.384C174.23 188.447 176.279 188.41 177.257 188.384H183.083C183.292 188.371 183.685 188.439 183.592 188.814V191.2C183.592 191.956 184.092 193.46 186.094 193.429C188.096 193.397 195.453 193.416 198.881 193.429C199.741 193.403 201.469 192.772 201.501 190.457V188.345C201.514 188.293 201.571 188.189 201.696 188.189C201.821 188.189 204.668 187.459 206.076 187.094C206.584 186.937 208.125 186.343 208.187 185.999C208.52 184.17 208.802 169.388 208.187 152.292C207.579 135.38 207.171 127.109 206.623 116.239C206.623 115.65 206.23 106.194 206.232 105.563L205.919 100.011L205.607 95.6313C205.216 89.2184 204.707 74.3983 201.618 62.9411C196.553 40.3786 181.988 38.5408 173.738 38.7517Z" fill="#0E6F3A"/>
<path d="M156.627 60.2069C159.145 55.2982 162.971 54.2087 164.538 54.2218C165.596 54.3131 168.064 54.965 169.475 56.8427C171.238 59.1899 171.983 63.0442 172.491 66.8963C172.962 70.4561 172.695 75.9328 171.786 80.3923C171.786 80.3923 171.238 84.6562 167.79 89.9764C163.481 96.6266 157.212 91.0326 156.154 89.7025C155.096 88.3725 153.333 84.0694 153.02 80.4705C152.769 77.5914 153.111 73.429 153.451 70.5343C153.924 66.505 154.982 63.4146 156.627 60.2069Z" fill="#FEE6CA"/>
<path d="M175.435 65.0052C176.279 57.1841 180.68 54.3424 182.776 53.8992C183.494 53.774 184.429 53.847 184.806 53.8992C187.805 54.2433 189.908 56.3889 190.585 57.4187C191.718 58.9438 194.17 63.3706 194.919 68.8767C195.669 74.3828 194.945 80.5562 194.49 82.9547C193.579 86.6828 190.406 93.9669 185.002 93.2786C179.598 92.5904 176.632 86.5746 176.202 84.3717C175.343 80.6957 174.592 72.8263 175.435 65.0052Z" fill="#FEE6CA"/>
<path d="M164.277 70.0687C165.339 69.9593 167.249 70.7701 167.327 72.5685C167.405 74.367 166.897 75.7654 165.109 76.5301C163.588 77.1802 161.422 77.012 161.421 73.9604C161.421 71.1636 163.319 70.1959 164.277 70.0687ZM184.3 70.0709C185.979 70.1445 187.015 71.517 187.107 73.0039C187.198 74.4907 186.604 75.5574 185.627 76.4123C184.651 77.2672 181.128 77.23 181.389 73.9631C181.597 71.3499 183.416 70.2795 184.3 70.0709ZM165.291 71.028C165.214 71.0115 165.027 70.9851 164.901 71.0109C164.53 71.1515 163.895 71.6726 164.322 72.6317C164.856 73.8307 166.775 73.7189 166.671 72.5389C166.587 71.5947 165.717 71.138 165.291 71.028ZM185.337 71.1592C185.221 71.1151 184.946 71.0673 184.551 71.2822C184.15 71.4999 183.756 72.462 183.922 73.1355C184.088 73.8089 185.543 73.5985 185.959 73.029C186.292 72.5732 186.13 72.1086 186.007 71.9334C185.859 71.7309 185.566 71.2868 185.337 71.1592Z" fill="#0A0000"/>
<path d="M144.514 114.879C144.732 114.477 145.246 114.346 145.63 114.595L153.502 119.724C153.864 119.96 153.966 120.444 153.731 120.806L135.637 148.581C135.257 149.165 134.36 148.997 134.216 148.315L132.096 138.269C132.058 138.088 132.085 137.899 132.173 137.736L144.514 114.879Z" fill="#0E6F3A"/>
<path d="M152.493 120.018C152.715 119.659 152.611 119.188 152.258 118.955L142.996 112.841C142.591 112.573 142.042 112.736 141.848 113.182L128.208 144.551C127.931 145.187 128.558 145.842 129.206 145.593L138.828 141.888C138.988 141.827 139.123 141.714 139.213 141.569L152.493 120.018Z" fill="#0E6F3A"/>
<path d="M203.614 114.913C203.397 114.511 202.883 114.38 202.499 114.63L194.627 119.758C194.265 119.994 194.163 120.478 194.398 120.84L212.492 148.615C212.872 149.199 213.769 149.031 213.913 148.35L216.033 138.303C216.071 138.122 216.044 137.933 215.956 137.77L203.614 114.913Z" fill="#0E6F3A"/>
<path d="M195.636 120.052C195.414 119.693 195.518 119.222 195.871 118.989L205.133 112.875C205.538 112.607 206.087 112.77 206.281 113.216L219.921 144.585C220.198 145.222 219.571 145.876 218.923 145.627L209.301 141.922C209.141 141.861 209.006 141.749 208.916 141.603L195.636 120.052Z" fill="#0E6F3A"/>
<path d="M167.246 97.5474C169.292 97.8342 173.87 97.9385 175.81 96.0615" stroke="#090909" stroke-width="1.17309" stroke-linecap="round"/>
<path d="M193.837 151.493C193.837 171.049 184.426 177.943 172.721 177.943C161.016 177.943 151.449 171.049 151.449 151.493C151.449 131.936 160.938 116.082 172.643 116.082C184.348 116.082 193.837 131.936 193.837 151.493Z" fill="#559472"/>
</g>
</g>
<defs>
<filter id="filter0_dd_470_1026" x="125.268" y="-4.73196" width="97.4639" height="140.464" filterUnits="userSpaceOnUse" color-interpolation-filters="sRGB">
<feFlood flood-opacity="0" result="BackgroundImageFix"/>
<feColorMatrix in="SourceAlpha" type="matrix" values="0 0 0 0 0 0 0 0 0 0 0 0 0 0 0 0 0 0 127 0" result="hardAlpha"/>
<feOffset dy="1.03093"/>
<feGaussianBlur stdDeviation="2.57732"/>
<feComposite in2="hardAlpha" operator="out"/>
<feColorMatrix type="matrix" values="0 0 0 0 0.054902 0 0 0 0 0.435294 0 0 0 0 0.227451 0 0 0 0.1 0"/>
<feBlend mode="normal" in2="BackgroundImageFix" result="effect1_dropShadow_470_1026"/>
<feColorMatrix in="SourceAlpha" type="matrix" values="0 0 0 0 0 0 0 0 0 0 0 0 0 0 0 0 0 0 127 0" result="hardAlpha"/>
<feOffset/>
<feGaussianBlur stdDeviation="3.86598"/>
<feComposite in2="hardAlpha" operator="out"/>
<feColorMatrix type="matrix" values="0 0 0 0 0 0 0 0 0 1 0 0 0 0 0.05 0 0 0 0.18 0"/>
<feBlend mode="normal" in2="effect1_dropShadow_470_1026" result="effect2_dropShadow_470_1026"/>
<feBlend mode="normal" in="SourceGraphic" in2="effect2_dropShadow_470_1026" result="shape"/>
</filter>
<clipPath id="clip0_470_1026">
<rect x="133" y="3" width="82" height="125" rx="41" fill="white"/>
</clipPath>
</defs>
</svg>
