<svg width="192" height="172" viewBox="0 0 192 172" fill="none" xmlns="http://www.w3.org/2000/svg">
<path d="M95.1141 3.1289C95.5011 2.00794 97.0865 2.00794 97.4735 3.1289L106.115 28.155C106.395 28.9656 105.793 29.8105 104.935 29.8105H87.6521C86.7946 29.8105 86.1925 28.9656 86.4724 28.155L95.1141 3.1289Z" fill="#0485A2"/>
<path fill-rule="evenodd" clip-rule="evenodd" d="M95.4317 20.5645C87.7032 20.5645 71.6701 24.0019 63.5575 51.5558C57.146 73.3322 56.2749 96.8097 55.6854 112.7C55.524 117.048 55.3838 120.827 55.1569 123.849L54.6289 183.085C54.6609 190.109 56.597 204.158 64.0855 204.158C65.2696 204.206 67.705 204.322 67.9738 204.398C68.1741 204.456 68.1559 204.534 68.1336 204.63C68.1259 204.663 68.1178 204.698 68.1178 204.734L68.0698 205.502C68.0698 205.672 68.0657 205.85 68.061 206.049C68.0499 206.525 68.036 207.118 68.0698 207.999C68.1273 209.493 68.1658 210.447 71.6221 210.447H92.3595C93.6716 210.463 95.243 208.959 95.243 207.711C95.243 207.038 95.2281 206.449 95.2143 205.905C95.2026 205.441 95.1917 205.011 95.1917 204.591C95.1917 204.567 95.1905 204.542 95.1892 204.517C95.1809 204.347 95.1729 204.187 95.5757 204.254C96.0365 204.331 98.5519 204.286 99.752 204.254H106.904C107.16 204.239 107.644 204.322 107.529 204.783V207.711C107.529 208.639 108.143 210.486 110.601 210.447C113.058 210.409 122.09 210.431 126.298 210.447C127.354 210.415 129.476 209.641 129.514 206.799V204.207C129.53 204.143 129.6 204.015 129.754 204.015C129.908 204.015 133.402 203.119 135.13 202.671C135.754 202.479 137.646 201.749 137.723 201.326C138.131 199.082 138.477 180.935 137.723 159.947C136.976 139.187 136.475 129.033 135.802 115.688C135.802 114.966 135.319 103.357 135.322 102.583L134.938 95.7668L134.554 90.3904C134.074 82.5179 133.45 64.3247 129.658 50.2597C123.44 22.5618 105.56 20.3056 95.4317 20.5645Z" fill="#0E6F3A"/>
<path d="M74.4286 46.9022C77.5198 40.8762 82.2167 39.5388 84.1405 39.5548C85.4391 39.6669 88.4692 40.4672 90.2007 42.7723C92.3649 45.6537 93.2795 50.3853 93.904 55.1141C94.4811 59.4842 94.1543 66.2075 93.0383 71.6819C93.0383 71.6819 92.3649 76.9164 88.1326 83.4475C82.8421 91.6113 75.1469 84.7441 73.8483 83.1113C72.5497 81.4786 70.3853 76.1961 70.0005 71.778C69.6927 68.2435 70.1124 63.1338 70.5296 59.5802C71.1103 54.6338 72.4086 50.84 74.4286 46.9022Z" fill="#FEE6CA"/>
<path d="M97.5154 52.7939C98.5507 43.1926 103.954 39.7041 106.527 39.16C107.409 39.0064 108.556 39.096 109.019 39.16C112.701 39.5825 115.283 42.2164 116.113 43.4806C117.504 45.3529 120.514 50.7872 121.434 57.5465C122.354 64.3058 121.466 71.8845 120.907 74.8289C119.788 79.4055 115.893 88.3475 109.259 87.5026C102.625 86.6577 98.9842 79.2727 98.4569 76.5683C97.4023 72.0557 96.48 62.3952 97.5154 52.7939Z" fill="#FEE6CA"/>
<path d="M83.8127 58.9404C85.1162 58.8059 87.4624 59.8015 87.5582 62.0093C87.654 64.2172 87.0303 65.9347 84.8345 66.8735C82.9678 67.6715 80.3084 67.4648 80.3077 63.7187C80.3072 60.2849 82.6365 59.0966 83.8127 58.9404ZM108.393 58.9434C110.455 59.0335 111.728 60.7182 111.84 62.5436C111.953 64.369 111.222 65.6786 110.023 66.728C108.824 67.7775 104.501 67.7325 104.82 63.7226C105.076 60.5144 107.308 59.1995 108.393 58.9434ZM85.0604 60.1152C84.9652 60.095 84.7356 60.0627 84.5804 60.0942C84.1244 60.266 83.344 60.9022 83.8693 62.0748C84.5261 63.5408 86.887 63.4045 86.7578 61.9616C86.6544 60.8075 85.5833 60.25 85.0604 60.1152ZM109.707 60.2813C109.565 60.2273 109.226 60.1679 108.739 60.4306C108.247 60.6966 107.763 61.8736 107.968 62.697C108.172 63.5203 109.961 63.2631 110.472 62.5669C110.881 62.01 110.681 61.4426 110.53 61.2283C110.349 60.9809 109.988 60.4374 109.707 60.2813Z" fill="#0A0000"/>
<path d="M185.867 206.03C180.414 205.222 144.361 204.251 127.015 203.867L125.863 201.992L132.104 169.931L140.264 172.575L163.018 190.744L181.355 202.761L185.579 204.203L185.867 206.03Z" fill="#0E6F3A"/>
<path d="M137.119 170.107C137.157 169.531 137.343 169.226 137.503 169.194C137.503 169.194 138.319 168.762 139.376 168.426C140.624 168.028 142.017 167.849 142.017 167.849C145.955 167.272 146.532 175.296 146.724 175.873C146.877 176.334 147.428 176.257 147.684 176.161C153.687 173.711 154.984 180.822 155.128 182.023C155.243 182.984 156.201 182.871 156.665 182.695C163.58 180.629 165.357 189.134 166.078 190.191C166.654 191.036 166.958 191.087 167.038 191.007C171.744 189.38 173.473 194.995 174.098 195.908C174.597 196.638 175.202 196.405 175.442 196.196C179.716 193.794 180.725 200.136 180.725 200.905C180.725 201.52 180.949 201.834 181.061 201.914C182.118 202.731 185.96 203.596 186.104 203.692C186.248 203.788 187.16 204.076 187.208 204.989C187.247 205.719 187.091 206.208 185.602 205.968L185.554 205.055C185.593 204.325 185.138 204.126 184.93 204.094C169.034 202.317 137.503 172.125 137.311 171.981C137.157 171.866 137.119 171.581 137.119 171.452C137.103 171.244 137.08 170.684 137.119 170.107Z" fill="#0485A2"/>
<path d="M59.5516 114.019C59.8183 113.525 60.45 113.365 60.9204 113.671L70.5849 119.967C71.0292 120.256 71.1547 120.851 70.8653 121.295L48.6533 155.392C48.1864 156.108 47.0861 155.903 46.9095 155.066L44.3065 142.733C44.2596 142.511 44.2931 142.279 44.4011 142.079L59.5516 114.019Z" fill="#0E6F3A"/>
<path d="M39.5722 142.839C39.1166 142.78 38.9955 142.177 39.3933 141.947L46.2114 138.009C46.4959 137.845 46.8575 138.008 46.9222 138.33L47.9134 143.271C47.9781 143.593 47.7074 143.883 47.3817 143.841L39.5722 142.839Z" fill="#0E6F3A"/>
<path d="M69.3483 120.327C69.6204 119.886 69.4927 119.308 69.0599 119.022L57.6903 111.516C57.1925 111.187 56.5187 111.387 56.2809 111.934L39.5353 150.444C39.1957 151.225 39.9658 152.029 40.7607 151.723L52.5733 147.175C52.7695 147.1 52.9355 146.962 53.0457 146.783L69.3483 120.327Z" fill="#0E6F3A"/>
<path d="M132.105 114.058C131.838 113.565 131.206 113.404 130.736 113.71L121.071 120.006C120.627 120.296 120.502 120.89 120.791 121.335L143.003 155.431C143.47 156.148 144.57 155.942 144.747 155.105L147.35 142.772C147.397 142.55 147.363 142.318 147.255 142.118L132.105 114.058Z" fill="#0E6F3A"/>
<path d="M122.312 120.367C122.04 119.926 122.167 119.348 122.6 119.062L133.97 111.556C134.468 111.228 135.141 111.428 135.379 111.974L152.125 150.484C152.464 151.265 151.694 152.069 150.899 151.763L139.087 147.215C138.891 147.14 138.725 147.002 138.614 146.823L122.312 120.367Z" fill="#0E6F3A"/>
<path d="M152.592 142.879C153.047 142.82 153.169 142.217 152.771 141.987L145.953 138.049C145.668 137.885 145.307 138.048 145.242 138.37L144.251 143.311C144.186 143.633 144.457 143.923 144.782 143.881L152.592 142.879Z" fill="#0E6F3A"/>
<path d="M89.8633 92.1198C91.1754 91.6077 94.2988 90.9293 96.2957 92.3118" stroke="#090909" stroke-width="1.4401" stroke-linecap="round"/>
<path d="M120.106 158.967C120.106 182.975 108.553 191.437 94.1841 191.437C79.8149 191.437 68.0703 182.975 68.0703 158.967C68.0703 134.958 79.7189 115.496 94.0881 115.496C108.457 115.496 120.106 134.958 120.106 158.967Z" fill="#559472"/>
</svg>
