<svg width="1920" height="1080" viewBox="0 0 1920 1080" fill="none" xmlns="http://www.w3.org/2000/svg">
<g clip-path="url(#clip0_96_514)">
<rect width="1920" height="1080" fill="#09130E"/>
<g clip-path="url(#clip1_96_514)">
<path d="M506.25 740.729C504.388 736.185 509.317 731.849 513.586 734.276L608.903 788.453C611.99 790.207 612.428 794.481 609.762 796.826L556.025 844.097C553.358 846.442 549.175 845.462 547.829 842.176L506.25 740.729Z" fill="#0485A2"/>
<path fill-rule="evenodd" clip-rule="evenodd" d="M554.921 794.082C530.892 815.22 490.443 869.759 540.58 977.618C580.204 1062.86 641.707 1138.24 683.335 1189.26C694.724 1203.22 704.626 1215.35 712.184 1225.37L872.555 1410.99C891.867 1432.75 936.311 1471.13 959.595 1450.65C963.407 1447.56 971.295 1441.26 972.34 1440.76C973.12 1440.39 973.278 1440.69 973.471 1441.04C973.537 1441.17 973.607 1441.3 973.707 1441.41L975.658 1443.93C976.123 1444.46 976.597 1445.02 977.126 1445.66C978.392 1447.16 979.973 1449.05 982.486 1451.69C986.75 1456.18 989.481 1459.04 1000.23 1449.59L1064.7 1392.87C1068.83 1389.33 1069.6 1380.36 1066.19 1376.48C1064.35 1374.39 1062.69 1372.59 1061.16 1370.94C1059.85 1369.53 1058.64 1368.22 1057.49 1366.92C1057.43 1366.84 1057.36 1366.77 1057.28 1366.7C1056.79 1366.19 1056.33 1365.71 1057.77 1364.82C1059.41 1363.8 1067.11 1356.78 1070.75 1353.4L1092.99 1333.84C1093.74 1333.09 1095.47 1332.03 1096.38 1333.77L1104.39 1342.88C1106.92 1345.76 1113.88 1349.82 1121.42 1342.98C1128.96 1336.14 1157.1 1311.51 1170.23 1300.05C1173.42 1297.06 1177.9 1288.85 1170.25 1279.91L1163.16 1271.85C1163.03 1271.61 1162.9 1271.02 1163.38 1270.6C1163.86 1270.18 1172.27 1257.83 1176.42 1251.71C1177.84 1249.41 1181.72 1241.97 1180.8 1240.44C1175.93 1232.35 1127.38 1174.98 1067.63 1111.79C1008.53 1049.28 979.198 1019.08 940.61 979.428C938.633 977.181 905.382 942.409 903.275 939.995L883.438 919.851L867.539 904.185C844.515 881.02 792.815 826.16 742.556 792.801C647.469 723.688 585.706 765.575 554.921 794.082Z" fill="#0E6F3A"/>
<path d="M561.635 933.418C554.765 906.228 565.711 889.223 571.736 884.011C576.08 880.808 587.691 875.009 599.379 877.441C613.988 880.48 629.773 892.691 644.648 905.685C658.395 917.694 675.767 939.493 687.27 959.566C687.27 959.566 699.493 977.683 704.196 1009.57C710.075 1049.42 667.367 1049.11 658.864 1047.59C650.361 1046.06 629.183 1035.56 615.903 1022.87C605.279 1012.73 592.609 995.691 584.187 983.501C572.464 966.533 566.125 951.187 561.635 933.418Z" fill="#FEE6CA"/>
<path d="M649.539 888.588C626.498 855.904 633.758 830.278 640.268 821.551C642.59 818.662 646.403 815.802 648.019 814.734C660.62 805.979 675.852 807.107 681.893 808.765C691.335 810.784 715.558 819.448 736.906 837.947C758.255 856.446 776.22 882.44 782.535 893.124C791.574 910.413 803.92 948.869 780.982 964.386C758.045 979.903 726.526 966.9 717.49 959.933C701.869 948.787 672.58 921.273 649.539 888.588Z" fill="#FEE6CA"/>
<path d="M623.746 945.168C627.43 941.184 637.448 937.864 643.784 944.467C650.121 951.07 652.878 958.113 648.618 967.038C644.997 974.625 636.166 981.256 625.918 969.61C616.525 958.935 620.516 948.87 623.746 945.168ZM700.181 877.95C706.84 872.589 715.402 874.348 720.745 879.716C726.087 885.084 727.399 891.152 726.54 897.695C725.682 904.238 712.116 915.922 702.141 902.58C694.161 891.906 697.509 881.712 700.181 877.95ZM630.825 945.408C630.474 945.605 629.672 946.132 629.276 946.654C628.328 948.435 627.641 952.55 632.483 954.76C638.534 957.521 645.501 950.64 641.153 946.507C637.675 943.201 632.819 944.396 630.825 945.408ZM707.912 878.517C707.323 878.737 706.106 879.479 705.312 881.628C704.509 883.801 706.223 888.783 709.11 890.784C711.997 892.786 716.857 887.092 716.542 883.529C716.289 880.68 714.117 879.46 713.062 879.207C711.821 878.934 709.215 878.232 707.912 878.517Z" fill="#0A0000"/>
<path d="M1343.36 1123.39C1324.2 1135.79 1209.45 1231.38 1154.46 1277.62L1145.75 1274.94L1077.47 1158.19L1110.07 1144.09L1230.51 1138.35L1320.39 1125.56L1337.47 1118.49L1343.36 1123.39Z" fill="#0E6F3A"/>
<path d="M1093.54 1145.02C1092.08 1143.12 1091.82 1141.67 1092.23 1141.13C1092.23 1141.13 1093.59 1137.56 1095.95 1133.62C1098.75 1128.97 1102.59 1124.6 1102.59 1124.6C1113.26 1112.04 1136.99 1135.41 1139.17 1136.68C1140.91 1137.69 1142.41 1135.95 1142.94 1134.95C1154.91 1110.91 1178.39 1129.47 1182.12 1132.82C1185.11 1135.49 1187.78 1132.52 1188.74 1130.7C1204.59 1105.37 1233.37 1126.95 1238.5 1128.26C1242.61 1129.32 1243.69 1128.64 1243.72 1128.18C1253.91 1110.25 1274.64 1122.97 1279.08 1124.11C1282.63 1125.01 1283.87 1122.63 1284.05 1121.32C1290.77 1102.16 1311.25 1119.13 1313.35 1121.52C1315.03 1123.43 1316.59 1123.79 1317.15 1123.73C1322.67 1123.38 1336.98 1115.56 1337.7 1115.47C1338.41 1115.37 1342.03 1113.77 1344.68 1116.48C1346.79 1118.65 1347.65 1120.59 1342.36 1123.92L1339.72 1121.21C1337.84 1118.84 1335.88 1119.46 1335.15 1119.93C1280.86 1157.88 1100.25 1150.25 1099.26 1150.32C1098.47 1150.39 1097.57 1149.6 1097.22 1149.21C1096.6 1148.6 1094.99 1146.92 1093.54 1145.02Z" fill="#0485A2"/>
<path d="M924.663 984.47C922.483 983.664 920.079 984.892 919.455 987.131L906.625 1033.14C906.036 1035.25 907.272 1037.45 909.387 1038.04L1071.7 1083.3C1075.12 1084.25 1077.97 1080.6 1076.23 1077.52L1050.6 1032.05C1050.13 1031.23 1049.4 1030.6 1048.51 1030.28L924.663 984.47Z" fill="#0E6F3A"/>
<path d="M911.455 1030.88C909.402 1030.25 908.219 1028.1 908.783 1026.03L923.604 971.596C924.253 969.212 926.895 967.991 929.13 969.042L1086.52 1042.98C1089.71 1044.48 1089.52 1049.08 1086.21 1050.3L1037.04 1068.47C1036.23 1068.77 1035.33 1068.8 1034.5 1068.54L911.455 1030.88Z" fill="#0E6F3A"/>
<path d="M1067.19 1018.05C1068.44 1016.62 1067.17 1014.41 1065.3 1014.79L1033.33 1021.19C1032 1021.46 1031.32 1022.95 1032 1024.13L1042.43 1042.2C1043.11 1043.38 1044.75 1043.54 1045.65 1042.52L1067.19 1018.05Z" fill="#0E6F3A"/>
<path d="M723.997 1040.46C726.925 1042.38 732.893 1042.75 733.335 1028.8C733.888 1011.37 749.847 1021.69 753.846 1020.82C757.846 1019.95 758.636 1007.61 758.285 1002.09C758.004 997.677 763.632 997.033 766.482 997.262" stroke="#090909" stroke-width="6.34827" stroke-linecap="round"/>
<path d="M1009.57 1157.44C1075.23 1232.09 1062.46 1290 1017.78 1329.3C973.104 1368.6 913.442 1374.41 847.779 1299.76C782.116 1225.11 765.104 1132.74 809.781 1093.44C854.458 1054.14 943.906 1082.8 1009.57 1157.44Z" fill="#559472"/>
<g filter="url(#filter0_d_96_514)">
<g clip-path="url(#clip2_96_514)">
<path d="M113.23 249.38C112.87 245.728 117.329 243.68 119.866 246.332L176.501 305.556C178.335 307.474 177.733 310.629 175.321 311.736L126.711 334.064C124.299 335.171 121.514 333.573 121.254 330.932L113.23 249.38Z" fill="#0485A2"/>
<path fill-rule="evenodd" clip-rule="evenodd" d="M136.641 298.012C114.904 307.996 74.2502 338.376 87.0284 426.353C97.1273 495.883 125.007 563.04 143.876 608.494C149.039 620.931 153.527 631.742 156.792 640.533L231.831 807.821C240.996 827.536 264.59 864.548 285.652 854.875C289.044 853.48 296.043 850.658 296.898 850.527C297.535 850.429 297.585 850.673 297.646 850.972C297.667 851.074 297.69 851.182 297.737 851.285L298.594 853.508C298.814 853.985 299.032 854.491 299.276 855.056C299.859 856.408 300.587 858.096 301.819 860.528C303.91 864.656 305.252 867.291 314.973 862.826L373.298 836.037C377.009 834.387 379.486 828.126 377.874 824.616C377.004 822.723 376.201 821.084 375.46 819.574C374.828 818.284 374.241 817.088 373.698 815.907C373.667 815.838 373.632 815.77 373.597 815.703C373.354 815.236 373.124 814.796 374.344 814.464C375.739 814.085 382.756 810.709 386.09 809.069L406.207 799.829C406.906 799.454 408.373 799.064 408.645 800.509L412.427 808.745C413.626 811.355 417.74 815.755 424.603 812.472C431.466 809.189 456.895 797.585 468.752 792.194C471.681 790.74 476.648 785.82 473.085 777.778L469.736 770.488C469.698 770.287 469.731 769.836 470.163 769.637C470.595 769.439 479.266 762.404 483.548 758.912C485.055 757.565 489.431 753.068 489.102 751.781C487.35 744.942 464.882 693.455 435.647 635.4C406.728 577.974 392.2 550.065 373.07 513.4C372.137 511.367 355.782 479.342 354.791 477.162L344.905 458.486L336.879 443.861C325.359 422.339 300.101 371.976 271.266 337.316C217.996 267.447 164.794 284.199 136.641 298.012Z" fill="#0E6F3A"/>
<path d="M111.589 399.224C112.499 378.282 123.981 368.453 129.413 366.013C133.21 364.65 142.766 362.987 150.614 367.233C160.423 372.541 169.108 384.668 176.973 397.161C184.242 408.707 192.008 428.039 195.942 444.878C195.942 444.878 200.81 460.47 197.343 484.306C193.01 514.102 162.495 504.729 156.734 501.814C150.972 498.899 138.06 486.838 131.271 474.909C125.839 465.366 120.418 450.452 117.001 439.919C112.244 425.256 110.995 412.909 111.589 399.224Z" fill="#FEE6CA"/>
<path d="M184.139 385.962C174.652 357.62 185.366 340.818 191.909 335.96C194.195 334.387 197.542 333.155 198.93 332.735C209.845 329.161 220.52 333.228 224.493 335.709C230.827 339.176 246.326 350.565 257.649 368.384C268.973 386.203 276.26 408.666 278.489 417.67C281.25 431.988 281.829 462.176 262.052 468.382C242.275 474.589 222.48 458.53 217.501 451.606C208.702 440.28 193.625 414.304 184.139 385.962Z" fill="#FEE6CA"/>
<path d="M153.546 420.951C157.038 418.889 164.923 418.658 168.045 424.745C171.166 430.831 171.631 436.465 166.667 441.943C162.448 446.599 154.704 449.453 149.863 438.918C145.426 429.261 150.439 422.91 153.546 420.951ZM222.684 389.207C228.602 386.796 234.356 389.89 237.03 394.879C239.705 399.868 239.343 404.495 237.326 408.995C235.308 413.496 223.09 418.954 218.808 407.262C215.382 397.908 219.965 391.328 222.684 389.207ZM158.567 422.645C158.274 422.711 157.587 422.916 157.191 423.205C156.13 424.278 154.757 427.077 157.75 429.696C161.491 432.971 167.954 429.537 165.727 425.646C163.945 422.533 160.212 422.348 158.567 422.645ZM228.103 391.274C227.634 391.305 226.604 391.575 225.575 392.944C224.534 394.328 224.692 398.262 226.33 400.314C227.968 402.366 232.669 399.331 233.207 396.713C233.637 394.618 232.343 393.28 231.642 392.872C230.812 392.41 229.096 391.349 228.103 391.274Z" fill="#0A0000"/>
<path d="M153.706 420.988C157.198 418.926 165.083 418.695 168.205 424.781C171.327 430.868 171.791 436.502 166.828 441.979C162.608 446.635 154.865 449.49 150.024 438.955C145.586 429.298 150.6 422.947 153.706 420.988ZM222.845 389.243C228.762 386.832 234.516 389.927 237.191 394.916C239.865 399.905 239.503 404.531 237.486 409.032C235.469 413.533 223.25 418.99 218.968 407.298C215.543 397.945 220.125 391.364 222.845 389.243ZM158.728 422.681C158.434 422.748 157.747 422.953 157.352 423.242C156.291 424.315 154.918 427.113 157.91 429.733C161.651 433.007 168.115 429.574 165.887 425.682C164.106 422.569 160.372 422.385 158.728 422.681ZM228.263 391.311C227.795 391.342 226.765 391.612 225.735 392.981C224.694 394.365 224.853 398.299 226.491 400.351C228.129 402.403 232.83 399.368 233.368 396.75C233.798 394.655 232.504 393.316 231.803 392.909C230.973 392.447 229.257 391.386 228.263 391.311Z" fill="#0A0000"/>
<path d="M156.457 607.209C156.569 605.475 158.138 604.207 159.857 604.461L195.172 609.684C196.795 609.924 197.917 611.434 197.677 613.058L179.251 737.65C178.864 740.269 175.504 741.112 173.926 738.986L150.673 707.662C150.253 707.097 150.048 706.401 150.093 705.699L156.457 607.209Z" fill="#0E6F3A"/>
<path d="M192.152 612.299C192.347 610.706 191.241 609.246 189.655 609.001L147.981 602.577C146.156 602.296 144.519 603.729 144.557 605.575L147.207 735.518C147.261 738.153 150.466 739.419 152.306 737.532L179.655 709.481C180.109 709.015 180.398 708.413 180.477 707.767L192.152 612.299Z" fill="#0E6F3A"/>
<path d="M360.585 513.588C359.197 512.544 357.212 512.908 356.285 514.377L337.237 544.57C336.361 545.958 336.776 547.793 338.164 548.668L444.684 615.872C446.923 617.284 449.752 615.285 449.167 612.703L440.556 574.653C440.401 573.967 440.007 573.358 439.445 572.935L360.585 513.588Z" fill="#0E6F3A"/>
<path d="M341.189 543.984C339.853 543.094 339.466 541.304 340.314 539.942L362.595 504.142C363.571 502.575 365.724 502.267 367.1 503.498L463.946 590.176C465.91 591.934 464.782 595.19 462.151 595.356L423.053 597.825C422.403 597.866 421.759 597.693 421.217 597.332L341.189 543.984Z" fill="#0E6F3A"/>
<path d="M213.4 498.201C213.93 497.091 215.26 496.62 216.371 497.15C217.482 497.681 217.951 499.011 217.421 500.122C216.33 502.406 214.594 505.951 212.925 509.173C212.86 509.3 212.792 509.425 212.727 509.551C213.01 509.379 213.297 509.205 213.587 509.028C215.971 507.576 218.567 506.005 220.799 504.754C221.914 504.129 222.965 503.568 223.87 503.136C224.714 502.733 225.628 502.345 226.394 502.201C227.603 501.974 228.768 502.771 228.995 503.98C229.222 505.19 228.426 506.355 227.216 506.582C227.079 506.608 226.63 506.758 225.79 507.159C225.011 507.53 224.056 508.038 222.979 508.642C220.827 509.849 218.297 511.378 215.906 512.834C213.541 514.275 211.286 515.66 209.758 516.528C209.045 516.932 208.315 517.327 207.79 517.516C207.661 517.563 207.399 517.651 207.087 517.686C206.934 517.702 206.628 517.723 206.263 517.634C205.871 517.539 205.267 517.276 204.861 516.621C204.471 515.99 204.498 515.368 204.555 515.034C204.611 514.702 204.727 514.452 204.795 514.323C204.931 514.059 205.098 513.852 205.195 513.736L205.302 513.6C205.577 513.231 206.042 512.494 206.668 511.395C207.351 510.195 208.146 508.708 208.967 507.123C210.608 503.955 212.324 500.455 213.4 498.201Z" fill="#090909"/>
<path d="M388.06 650.322C419.075 717.846 397.515 756.572 357.101 775.135C316.686 793.698 272.721 785.068 241.707 717.544C210.692 650.02 218.312 580.233 258.726 561.67C299.141 543.107 357.045 582.798 388.06 650.322Z" fill="#559472"/>
</g>
</g>
<path d="M1569.99 433.593C1571.51 431.1 1575.33 431.934 1575.67 434.834L1583.29 499.582C1583.54 501.679 1581.65 503.395 1579.58 502.943L1538.01 493.851C1535.94 493.399 1534.94 491.05 1536.04 489.248L1569.99 433.593Z" fill="#0485A2"/>
<path fill-rule="evenodd" clip-rule="evenodd" d="M1561.59 475.7C1543 471.634 1502.62 471.468 1468.61 533.482C1441.73 582.493 1427.28 638.511 1417.5 676.426C1414.83 686.799 1412.5 695.818 1410.37 702.967L1377.93 845.184C1374.31 862.098 1371.58 896.912 1389.59 900.852C1392.42 901.59 1398.21 903.149 1398.82 903.475C1399.27 903.718 1399.19 903.897 1399.08 904.116C1399.05 904.191 1399.01 904.27 1398.99 904.359L1398.47 906.181C1398.38 906.589 1398.28 907.016 1398.16 907.491C1397.89 908.63 1397.54 910.05 1397.16 912.186C1396.51 915.81 1396.1 918.127 1404.41 919.945L1454.3 930.855C1457.45 931.584 1462.02 928.792 1462.68 925.79C1463.03 924.171 1463.3 922.745 1463.56 921.431C1463.77 920.308 1463.97 919.267 1464.19 918.257C1464.21 918.199 1464.22 918.139 1464.23 918.079C1464.3 917.666 1464.36 917.276 1465.29 917.65C1466.36 918.077 1472.44 919.292 1475.34 919.847L1492.55 923.61C1493.17 923.706 1494.29 924.161 1493.77 925.209L1492.23 932.253C1491.74 934.486 1492.25 939.251 1498.18 940.452C1504.11 941.652 1525.82 946.457 1535.94 948.71C1538.5 949.188 1544.01 948.442 1545.6 941.626L1546.96 935.39C1547.03 935.245 1547.27 934.974 1547.64 935.055C1548.01 935.135 1556.88 934.818 1561.28 934.65C1562.88 934.516 1567.81 933.755 1568.22 932.779C1570.38 927.595 1580.76 884.124 1589.99 833.24C1599.12 782.907 1603.25 758.219 1608.66 725.763C1609.04 724.025 1613.98 695.846 1614.4 693.986L1617.06 677.387L1618.96 664.252C1621.95 645.062 1630.02 600.969 1628.3 565.14C1627.91 495.24 1586.09 480.406 1561.59 475.7Z" fill="#0E6F3A"/>
<path d="M1497.21 528.007C1507.81 515.138 1519.82 514.392 1524.44 515.442C1527.5 516.395 1534.37 519.915 1537.32 526.371C1541.01 534.44 1540.72 546.304 1539.74 558.008C1538.83 568.824 1534.5 584.825 1528.94 597.407C1528.94 597.407 1524.56 609.644 1510.95 623.128C1493.93 639.983 1479.03 619.416 1476.76 614.805C1474.5 610.194 1472.07 596.348 1473.47 585.518C1474.59 576.853 1478.29 564.783 1481.16 556.454C1485.16 544.86 1490.28 536.417 1497.21 528.007Z" fill="#FEE6CA"/>
<path d="M1549.65 554.326C1557.19 531.775 1572.02 526.226 1578.5 526.27C1580.7 526.365 1583.41 527.184 1584.49 527.582C1593.13 530.535 1597.95 538.229 1599.29 541.707C1601.64 546.942 1606.03 561.599 1604.68 578.343C1603.34 595.087 1597.22 612.85 1594.32 619.639C1589.23 630.059 1575.15 649.52 1559.64 643.998C1544.12 638.475 1539.25 618.795 1539.4 612.012C1539.24 600.602 1542.11 576.878 1549.65 554.326Z" fill="#FEE6CA"/>
<path d="M1513.45 561.902C1516.66 562.264 1521.78 565.894 1520.85 571.256C1519.92 576.617 1517.51 580.419 1511.74 581.522C1506.83 582.46 1500.54 580.565 1502.51 571.553C1504.31 563.293 1510.54 561.659 1513.45 561.902ZM1572.58 574.842C1577.5 576.144 1579.67 580.866 1578.98 585.316C1578.29 589.766 1575.84 592.532 1572.41 594.426C1568.97 596.319 1558.59 593.936 1561.47 584.457C1563.77 576.874 1569.84 574.887 1572.58 574.842ZM1515.84 565.385C1515.62 565.286 1515.08 565.088 1514.69 565.082C1513.51 565.255 1511.29 566.376 1511.94 569.473C1512.75 573.345 1518.5 574.26 1518.95 570.721C1519.31 567.89 1517.02 565.984 1515.84 565.385ZM1575.04 578.753C1574.72 578.548 1573.94 578.227 1572.63 578.603C1571.31 578.984 1569.52 581.56 1569.58 583.648C1569.64 585.736 1574.08 586.059 1575.68 584.653C1576.95 583.528 1576.77 582.057 1576.52 581.462C1576.21 580.771 1575.63 579.276 1575.04 578.753Z" fill="#0A0000"/>
<path d="M1681.57 969.425C1668.87 964.614 1582.66 943.31 1541.13 933.26L1539.35 928.144L1571.23 854.304L1589.47 864.957L1634.64 920.634L1672.43 959.189L1681.83 964.88L1681.57 969.425Z" fill="#0E6F3A"/>
<path d="M1583.19 857.364C1583.59 855.998 1584.2 855.363 1584.6 855.37C1584.6 855.37 1586.79 854.76 1589.51 854.506C1592.72 854.207 1596.17 854.509 1596.17 854.509C1605.94 855.194 1603.11 874.799 1603.27 876.287C1603.39 877.477 1604.76 877.582 1605.43 877.486C1621.16 874.749 1620.53 892.537 1620.25 895.502C1620.02 897.874 1622.38 898.108 1623.59 897.929C1641.31 896.597 1641.11 917.989 1642.29 920.911C1643.23 923.248 1643.94 923.532 1644.17 923.381C1656.35 921.943 1657.55 936.36 1658.57 938.884C1659.39 940.904 1660.97 940.659 1661.66 940.285C1673.2 936.755 1672.29 952.541 1671.89 954.391C1671.56 955.87 1671.94 956.743 1672.17 956.995C1674.28 959.515 1683.06 963.617 1683.36 963.924C1683.66 964.231 1685.7 965.404 1685.34 967.626C1685.04 969.403 1684.41 970.498 1680.96 969.137L1681.32 966.915C1681.8 965.179 1680.81 964.462 1680.33 964.275C1643.02 951.636 1583.06 862.421 1582.67 861.973C1582.36 861.615 1582.42 860.909 1582.49 860.6C1582.56 860.091 1582.8 858.731 1583.19 857.364Z" fill="#0485A2"/>
<path d="M1426.11 681.634C1427.02 680.586 1428.62 680.532 1429.59 681.517L1449.53 701.746C1450.44 702.676 1450.43 704.173 1449.5 705.089L1378.13 775.424C1376.63 776.902 1374.09 775.829 1374.11 773.723L1374.34 742.686C1374.34 742.126 1374.54 741.586 1374.91 741.161L1426.11 681.634Z" fill="#0E6F3A"/>
<path d="M1362.89 740.451C1361.82 740.07 1361.85 738.555 1362.93 738.211L1381.4 732.326C1382.17 732.08 1382.96 732.664 1382.94 733.473L1382.73 745.878C1382.71 746.687 1381.91 747.243 1381.15 746.971L1362.89 740.451Z" fill="#0E6F3A"/>
<path d="M1446.35 701.962C1447.24 701.043 1447.24 699.587 1446.35 698.672L1422.95 674.634C1421.92 673.581 1420.2 673.708 1419.34 674.899L1358.79 758.725C1357.57 760.425 1359 762.764 1361.07 762.446L1391.88 757.721C1392.39 757.642 1392.86 757.398 1393.22 757.026L1446.35 701.962Z" fill="#0E6F3A"/>
<path d="M1600.63 719.901C1600.25 718.572 1598.81 717.853 1597.52 718.343L1570.96 728.404C1569.74 728.866 1569.12 730.231 1569.58 731.452L1605.08 825.157C1605.82 827.127 1608.58 827.211 1609.44 825.291L1622.19 796.993C1622.42 796.483 1622.46 795.907 1622.31 795.369L1600.63 719.901Z" fill="#0E6F3A"/>
<path d="M1573.74 729.923C1573.32 728.718 1573.93 727.395 1575.12 726.936L1606.42 714.861C1607.79 714.332 1609.31 715.168 1609.59 716.609L1629.62 818.055C1630.02 820.113 1627.75 821.641 1625.99 820.487L1599.97 803.332C1599.54 803.047 1599.21 802.629 1599.04 802.14L1573.74 729.923Z" fill="#0E6F3A"/>
<path d="M1634.74 800.006C1635.87 800.105 1636.48 798.717 1635.64 797.955L1621.31 784.896C1620.71 784.351 1619.76 784.554 1619.43 785.295L1614.45 796.657C1614.13 797.398 1614.62 798.239 1615.43 798.309L1634.74 800.006Z" fill="#0E6F3A"/>
<path d="M1548.12 821.613C1535.49 879.366 1503.25 893.645 1468.69 886.085C1434.12 878.526 1410.32 851.99 1422.95 794.237C1435.58 736.485 1473.84 695.796 1508.41 703.355C1542.97 710.915 1560.76 763.861 1548.12 821.613Z" fill="#559472"/>
<path d="M1524.13 644.335L1513.95 642.898" stroke="#090909" stroke-width="3.91405" stroke-linecap="round"/>
<g clip-path="url(#clip3_96_514)">
<path d="M1865.98 807.133C1865.59 805.135 1867.94 803.773 1869.48 805.107L1903.82 834.879C1904.93 835.843 1904.76 837.616 1903.48 838.352L1877.8 853.195C1876.52 853.931 1874.9 853.192 1874.62 851.747L1865.98 807.133Z" fill="#0485A2"/>
<path fill-rule="evenodd" clip-rule="evenodd" d="M1881.42 832.771C1869.93 839.408 1849.06 858.285 1860.66 906.202C1869.83 944.071 1888.7 979.711 1901.47 1003.83C1904.96 1010.43 1908 1016.17 1910.26 1020.86L1960.34 1109.35C1966.42 1119.76 1981.37 1138.97 1992.49 1132.54C1994.3 1131.6 1998.01 1129.68 1998.48 1129.56C1998.83 1129.47 1998.87 1129.61 1998.92 1129.77C1998.93 1129.82 1998.95 1129.88 1998.98 1129.94L1999.57 1131.12C1999.72 1131.37 1999.86 1131.64 2000.03 1131.94C2000.42 1132.66 2000.91 1133.55 2001.71 1134.83C2003.08 1137 2003.96 1138.39 2009.1 1135.42L2039.92 1117.61C2041.88 1116.51 2042.92 1112.92 2041.85 1111.07C2041.27 1110.07 2040.74 1109.2 2040.26 1108.41C2039.84 1107.73 2039.46 1107.1 2039.1 1106.47C2039.07 1106.44 2039.05 1106.4 2039.03 1106.37C2038.87 1106.12 2038.72 1105.89 2039.38 1105.64C2040.13 1105.36 2043.83 1103.14 2045.58 1102.06L2056.21 1095.91C2056.58 1095.67 2057.37 1095.38 2057.6 1096.16L2060.11 1100.52C2060.91 1101.9 2063.41 1104.11 2067.03 1101.94C2070.65 1099.78 2084.09 1092.05 2090.35 1088.46C2091.9 1087.51 2094.38 1084.54 2092 1080.28L2089.77 1076.43C2089.74 1076.32 2089.74 1076.07 2089.97 1075.94C2090.2 1075.8 2094.62 1071.47 2096.8 1069.32C2097.57 1068.5 2099.75 1065.79 2099.5 1065.1C2098.18 1061.41 2083.11 1034.14 2063.97 1003.6C2045.03 973.388 2035.56 958.729 2023.1 939.473C2022.48 938.399 2011.8 921.562 2011.14 920.409L2004.71 910.609L1999.53 902.948C1992.05 891.66 1975.5 865.158 1957.79 847.511C1924.76 811.687 1896.25 823.688 1881.42 832.771Z" fill="#0E6F3A"/>
<path d="M1872.82 889.952C1872.24 878.342 1878.07 872.321 1880.95 870.693C1882.97 869.744 1888.16 868.331 1892.71 870.27C1898.41 872.694 1903.83 878.941 1908.82 885.432C1913.43 891.431 1918.72 901.704 1921.76 910.798C1921.76 910.798 1925.25 919.156 1924.57 932.497C1923.72 949.173 1906.39 945.575 1903.05 944.264C1899.72 942.952 1891.97 936.96 1887.6 930.725C1884.11 925.736 1880.35 917.782 1877.91 912.142C1874.53 904.292 1873.2 897.539 1872.82 889.952Z" fill="#FEE6CA"/>
<path d="M1912.19 878.882C1905.49 863.723 1910.52 853.898 1913.88 850.881C1915.06 849.895 1916.84 849.043 1917.58 848.74C1923.42 846.207 1929.52 847.904 1931.84 849.069C1935.51 850.658 1944.65 856.149 1951.82 865.405C1958.99 874.66 1964.18 886.686 1965.88 891.542C1968.15 899.304 1970.04 915.939 1959.45 920.38C1948.87 924.821 1937.12 916.973 1934.01 913.406C1928.57 907.605 1918.9 894.04 1912.19 878.882Z" fill="#FEE6CA"/>
<path d="M1897.11 899.782C1898.93 898.463 1903.27 897.928 1905.31 901.127C1907.35 904.327 1907.9 907.413 1905.44 910.694C1903.35 913.483 1899.22 915.46 1896 909.894C1893.05 904.791 1895.49 901.025 1897.11 899.782ZM1933.64 878.679C1936.79 877.042 1940.12 878.453 1941.86 881.07C1943.59 883.686 1943.63 886.259 1942.75 888.849C1941.87 891.438 1935.41 895.083 1932.44 888.849C1930.06 883.862 1932.25 879.992 1933.64 878.679ZM1899.97 900.457C1899.81 900.509 1899.44 900.657 1899.24 900.837C1898.71 901.484 1898.1 903.102 1899.89 904.393C1902.12 906.008 1905.51 903.777 1904.08 901.744C1902.94 900.117 1900.86 900.208 1899.97 900.457ZM1936.75 879.539C1936.49 879.581 1935.93 879.783 1935.43 880.592C1934.93 881.41 1935.22 883.574 1936.23 884.623C1937.24 885.671 1939.68 883.752 1939.84 882.279C1939.97 881.1 1939.19 880.427 1938.78 880.238C1938.3 880.026 1937.3 879.53 1936.75 879.539Z" fill="#0A0000"/>
<path d="M1908.35 1002.47C1908.32 1001.51 1909.12 1000.73 1910.09 1000.78L1929.86 1001.84C1930.76 1001.89 1931.46 1002.66 1931.41 1003.57L1927.68 1073.32C1927.6 1074.78 1925.79 1075.42 1924.81 1074.33L1910.35 1058.24C1910.09 1057.95 1909.94 1057.57 1909.93 1057.18L1908.35 1002.47Z" fill="#0E6F3A"/>
<path d="M1928.33 1003.44C1928.35 1002.55 1927.66 1001.8 1926.78 1001.75L1903.43 1000.35C1902.41 1000.29 1901.58 1001.17 1901.7 1002.19L1909.88 1073.8C1910.05 1075.25 1911.88 1075.78 1912.8 1074.65L1926.45 1057.74C1926.68 1057.46 1926.81 1057.12 1926.82 1056.75L1928.33 1003.44Z" fill="#0E6F3A"/>
</g>
<g clip-path="url(#clip4_96_514)">
<path d="M504.156 51.7342C505.193 50.6825 506.974 51.5329 506.807 52.9999L503.09 85.7507C502.97 86.8114 501.84 87.4376 500.877 86.9776L481.46 77.706C480.497 77.246 480.274 75.9739 481.023 75.2134L504.156 51.7342Z" fill="#0485A2"/>
<path fill-rule="evenodd" clip-rule="evenodd" d="M495.159 71.4903C486.476 67.3444 466.62 62.6051 442.725 89.208C423.841 110.233 410.268 136.141 401.081 153.676C398.567 158.474 396.382 162.645 394.507 165.917L362.136 232.182C358.404 240.09 353.043 256.912 361.456 260.929C362.76 261.618 365.434 263.054 365.695 263.285C365.889 263.456 365.827 263.535 365.75 263.63C365.724 263.663 365.696 263.698 365.677 263.739L365.211 264.576C365.12 264.767 365.019 264.965 364.907 265.186C364.64 265.714 364.306 266.373 363.872 267.381C363.135 269.09 362.666 270.183 366.549 272.037L389.846 283.162C391.311 283.883 393.883 283.037 394.553 281.634C394.914 280.878 395.213 280.208 395.489 279.59C395.725 279.063 395.944 278.573 396.169 278.102C396.182 278.074 396.194 278.046 396.206 278.018C396.287 277.822 396.364 277.638 396.781 277.93C397.257 278.263 400.107 279.562 401.473 280.17L409.508 284.007C409.804 284.126 410.302 284.479 409.926 284.935L408.355 288.225C407.857 289.268 407.557 291.672 410.338 292.947C413.12 294.222 423.254 299.092 427.973 301.368C429.176 301.898 431.975 302.166 433.543 298.994L434.934 296.082C434.986 296.019 435.134 295.913 435.306 295.995C435.479 296.078 439.885 296.946 442.067 297.369C442.871 297.488 445.388 297.683 445.701 297.249C447.363 294.947 457.487 274.746 467.898 250.763C478.197 227.04 483.08 215.364 489.484 200.011C489.871 199.2 495.556 185.899 495.974 185.032L499.2 177.168L501.652 170.922C505.336 161.82 514.395 141.047 517.68 123.211C525.553 88.7591 506.676 76.633 495.159 71.4903Z" fill="#0E6F3A"/>
<path d="M457.433 89.8121C464.139 84.7006 470.133 85.7178 472.285 86.7678C473.684 87.5903 476.659 90.115 477.368 93.6334C478.253 98.0314 476.742 103.838 474.907 109.485C473.211 114.704 469.238 122.082 465.047 127.633C465.047 127.633 461.483 133.153 453.224 138.22C442.901 144.553 437.94 132.71 437.357 130.179C436.774 127.648 437.176 120.553 439.114 115.383C440.665 111.247 443.877 105.732 446.252 101.963C449.558 96.7179 453.052 93.1524 457.433 89.8121Z" fill="#FEE6CA"/>
<path d="M480.21 108.816C486.524 98.5855 494.466 97.5652 497.647 98.334C498.72 98.6344 499.961 99.3506 500.448 99.6711C504.357 102.121 505.844 106.465 506.1 108.331C506.657 111.18 507.123 118.899 504.531 126.987C501.939 135.074 496.876 143.112 494.668 146.119C490.956 150.661 481.783 158.617 474.784 154.109C467.784 149.601 467.656 139.351 468.514 136.03C469.75 130.395 473.896 119.047 480.21 108.816Z" fill="#FEE6CA"/>
<path d="M461.52 108.372C463.056 108.92 465.158 111.297 464.081 113.828C463.004 116.36 461.383 117.955 458.412 117.831C455.887 117.727 453.011 116.069 455.02 111.86C456.861 108.002 460.115 107.916 461.52 108.372ZM489.133 121.561C491.401 122.769 491.926 125.344 491.073 127.455C490.221 129.566 488.698 130.646 486.787 131.181C484.877 131.717 480.045 129.347 482.555 125.013C484.563 121.546 487.777 121.267 489.133 121.561ZM462.291 110.361C462.194 110.287 461.954 110.128 461.763 110.08C461.159 110.028 459.941 110.325 459.902 111.924C459.854 113.923 462.579 115.036 463.208 113.346C463.711 111.993 462.806 110.792 462.291 110.361ZM489.89 123.769C489.76 123.632 489.411 123.383 488.723 123.418C488.027 123.452 486.853 124.515 486.64 125.549C486.428 126.584 488.576 127.255 489.524 126.747C490.282 126.341 490.362 125.596 490.308 125.275C490.237 124.899 490.123 124.095 489.89 123.769Z" fill="#0A0000"/>
<path d="M497.267 328.362C491.574 324.53 451.591 304.098 432.311 294.362L432.023 291.637L456.232 258.967L463.982 266.315L479.797 298.933L493.951 322.27L497.923 326.156L497.267 328.362Z" fill="#0E6F3A"/>
<path d="M461.769 261.854C462.122 261.227 462.493 260.985 462.69 261.035C462.69 261.035 463.839 260.987 465.207 261.176C466.823 261.399 468.483 261.945 468.483 261.945C473.217 263.41 469.56 272.733 469.467 273.484C469.392 274.085 470.052 274.294 470.391 274.323C478.449 274.791 476.092 283.475 475.609 284.901C475.223 286.043 476.359 286.43 476.975 286.482C485.852 287.87 483.286 298.377 483.528 299.951C483.722 301.21 484.036 301.431 484.169 301.384C490.329 302.081 489.26 309.316 489.471 310.677C489.641 311.765 490.446 311.827 490.827 311.722C496.918 311.316 494.648 318.982 494.236 319.846C493.906 320.537 493.99 321.009 494.072 321.16C494.821 322.644 498.673 325.676 498.784 325.862C498.894 326.047 499.764 326.86 499.329 327.912C498.98 328.753 498.543 329.219 496.999 328.15L497.435 327.099C497.87 326.299 497.466 325.832 497.249 325.685C480.345 315.16 461.118 264.328 460.98 264.063C460.869 263.851 460.979 263.51 461.048 263.366C461.141 263.123 461.417 262.482 461.769 261.854Z" fill="#0485A2"/>
<path d="M404.715 157.232C405.28 156.821 406.076 156.979 406.44 157.575L413.92 169.833C414.263 170.396 414.085 171.132 413.522 171.476L370.278 197.865C369.369 198.42 368.243 197.598 368.493 196.563L372.185 181.312C372.252 181.037 372.414 180.794 372.642 180.628L404.715 157.232Z" fill="#0E6F3A"/>
<path d="M366.812 178.891C366.331 178.581 366.519 177.838 367.089 177.793L376.861 177.027C377.269 176.995 377.587 177.373 377.487 177.769L375.951 183.851C375.851 184.248 375.391 184.429 375.047 184.207L366.812 178.891Z" fill="#0E6F3A"/>
<path d="M412.337 169.574C412.88 169.224 413.046 168.506 412.713 167.953L403.967 153.421C403.584 152.785 402.72 152.649 402.159 153.135L362.688 187.415C361.888 188.11 362.322 189.426 363.379 189.509L379.089 190.737C379.35 190.757 379.611 190.691 379.83 190.55L412.337 169.574Z" fill="#0E6F3A"/>
<path d="M486.207 196.199C486.172 195.501 485.549 194.982 484.856 195.074L470.621 196.962C469.967 197.049 469.507 197.65 469.594 198.304L476.256 248.524C476.396 249.58 477.743 249.939 478.39 249.094L487.93 236.635C488.102 236.41 488.189 236.132 488.175 235.849L486.207 196.199Z" fill="#0E6F3A"/>
<path d="M471.821 198.032C471.752 197.39 472.206 196.809 472.845 196.72L489.645 194.387C490.38 194.285 491.03 194.871 491.004 195.613L489.158 247.859C489.12 248.918 487.824 249.408 487.095 248.638L476.264 237.192C476.084 237.002 475.972 236.758 475.944 236.498L471.821 198.032Z" fill="#0E6F3A"/>
<path d="M493.763 239.567C494.307 239.745 494.766 239.132 494.443 238.661L488.895 230.58C488.664 230.242 488.17 230.232 487.925 230.559L484.161 235.577C483.916 235.905 484.064 236.376 484.452 236.504L493.763 239.567Z" fill="#0E6F3A"/>
<path d="M448.418 240.109C435.539 267.08 418.02 270.39 401.878 262.682C385.735 254.973 377.081 239.166 389.96 212.194C402.839 185.223 426.365 169.607 442.508 177.316C458.651 185.024 461.297 213.137 448.418 240.109Z" fill="#559472"/>
<path d="M450.821 149.365L452.278 151.584L459.668 150.808C460.177 150.389 460.785 149.355 459.146 148.572" stroke="#090909" stroke-width="2" stroke-linecap="round"/>
</g>
<g clip-path="url(#clip5_96_514)">
<g clip-path="url(#clip6_96_514)">
<path d="M1850.32 299.89C1848.96 302.474 1845.1 301.88 1844.58 299.006L1832.92 234.833C1832.54 232.755 1834.33 230.923 1836.41 231.245L1878.49 237.726C1880.58 238.048 1881.73 240.331 1880.75 242.199L1850.32 299.89Z" fill="#0485A2"/>
<path fill-rule="evenodd" clip-rule="evenodd" d="M1856.81 257.435C1875.62 260.332 1915.94 257.975 1946.02 193.93C1969.8 143.315 1980.72 86.4803 1988.12 48.0129C1990.14 37.4882 1991.9 28.3385 1993.58 21.0669L2017.08 -122.959C2019.64 -140.074 2020.19 -175.005 2001.96 -177.813C1999.1 -178.373 1993.21 -179.566 1992.59 -179.855C1992.12 -180.069 1992.2 -180.253 1992.29 -180.478C1992.32 -180.555 1992.35 -180.637 1992.36 -180.726L1992.77 -182.579C1992.83 -182.992 1992.91 -183.424 1993 -183.906C1993.2 -185.06 1993.46 -186.5 1993.71 -188.656C1994.13 -192.315 1994.39 -194.654 1985.98 -195.95L1935.49 -203.725C1932.31 -204.256 1927.92 -201.183 1927.45 -198.145C1927.2 -196.505 1927.01 -195.065 1926.84 -193.737C1926.7 -192.603 1926.56 -191.55 1926.4 -190.529C1926.4 -190.469 1926.39 -190.408 1926.38 -190.349C1926.34 -189.932 1926.3 -189.538 1925.34 -189.853C1924.25 -190.213 1918.11 -191.047 1915.18 -191.419L1897.77 -194.1C1897.14 -194.158 1895.99 -194.543 1896.44 -195.621L1897.54 -202.751C1897.89 -205.011 1897.09 -209.737 1891.09 -210.564C1885.09 -211.392 1863.12 -214.833 1852.88 -216.45C1850.29 -216.768 1844.84 -215.678 1843.68 -208.773L1842.71 -202.462C1842.65 -202.312 1842.43 -202.027 1842.05 -202.085C1841.68 -202.142 1832.83 -201.271 1828.46 -200.828C1826.87 -200.594 1821.99 -199.526 1821.65 -198.526C1819.81 -193.215 1812.16 -149.162 1806.13 -97.7797C1800.16 -46.9534 1797.57 -22.0451 1794.21 10.6982C1793.93 12.4581 1790.76 40.9024 1790.46 42.7852L1788.84 59.5254L1787.76 72.7594C1785.97 92.1067 1780.67 136.636 1784.63 172.302C1789.38 242.07 1832.06 254.267 1856.81 257.435Z" fill="#0E6F3A"/>
<path d="M1917.81 201.18C1908.02 214.693 1896.09 216.187 1891.41 215.427C1888.29 214.667 1881.21 211.582 1877.86 205.321C1873.67 197.494 1873.22 185.631 1873.47 173.883C1873.71 163.027 1877.02 146.78 1881.79 133.87C1881.79 133.87 1885.39 121.378 1898.15 107.064C1914.09 89.1706 1930.25 108.777 1932.8 113.239C1935.35 117.701 1938.64 131.374 1937.92 142.275C1937.34 150.996 1934.41 163.279 1932.06 171.775C1928.79 183.601 1924.2 192.35 1917.81 201.18Z" fill="#FEE6CA"/>
<path d="M1863.8 178.179C1857.68 201.167 1843.22 207.634 1836.75 207.994C1834.55 208.037 1831.79 207.389 1830.68 207.06C1821.88 204.65 1816.58 197.269 1815.03 193.88C1812.35 188.8 1807.06 174.44 1807.35 157.638C1807.64 140.836 1812.65 122.717 1815.11 115.758C1819.55 105.034 1832.39 84.7236 1848.23 89.2687C1864.06 93.8136 1870.16 113.159 1870.43 119.941C1871.3 131.324 1869.92 155.19 1863.8 178.179Z" fill="#FEE6CA"/>
<path d="M1899.47 168.352C1896.24 168.191 1890.91 164.887 1891.5 159.476C1892.1 154.064 1894.26 150.117 1899.96 148.655C1904.8 147.412 1911.2 148.911 1909.79 158.032C1908.51 166.392 1902.39 168.413 1899.47 168.352ZM1839.62 159.127C1834.64 158.134 1832.17 153.555 1832.58 149.069C1832.99 144.582 1835.26 141.668 1838.57 139.562C1841.89 137.457 1852.4 139.188 1850.11 148.832C1848.29 156.548 1842.36 158.91 1839.62 159.127ZM1896.87 165.024C1897.09 165.109 1897.64 165.274 1898.03 165.255C1899.2 165.008 1901.34 163.75 1900.5 160.698C1899.46 156.883 1893.66 156.33 1893.43 159.891C1893.25 162.74 1895.65 164.501 1896.87 165.024ZM1836.93 155.375C1837.25 155.56 1838.05 155.832 1839.34 155.374C1840.63 154.911 1842.25 152.228 1842.07 150.147C1841.88 148.066 1837.42 148.021 1835.92 149.525C1834.71 150.727 1834.99 152.184 1835.27 152.762C1835.62 153.433 1836.3 154.89 1836.93 155.375Z" fill="#0A0000"/>
<path d="M1802.56 16.0427C1803.02 17.3458 1804.5 17.9738 1805.76 17.4038L1831.65 5.69971C1832.84 5.16155 1833.37 3.76024 1832.83 2.57065L1791.54 -88.774C1790.67 -90.6942 1787.91 -90.6064 1787.17 -88.6351L1776.21 -59.5839C1776.01 -59.0602 1776 -58.4831 1776.19 -57.9549L1802.56 16.0427Z" fill="#0E6F3A"/>
<path d="M1828.77 4.35609C1829.27 5.53293 1828.74 6.8918 1827.58 7.42514L1797.08 21.4372C1795.75 22.0505 1794.18 21.3108 1793.81 19.8903L1767.48 -80.1496C1766.95 -82.1791 1769.12 -83.8468 1770.94 -82.8038L1798 -67.3019C1798.45 -67.0444 1798.8 -66.6466 1799 -66.1691L1828.77 4.35609Z" fill="#0E6F3A"/>
<path d="M1848.62 -88.7937C1857.63 -147.246 1888.93 -163.519 1923.91 -158.13C1958.9 -152.742 1984.32 -127.733 1975.32 -69.2803C1966.31 -10.8276 1930.65 32.1897 1895.67 26.8012C1860.68 21.4127 1839.62 -30.341 1848.62 -88.7937Z" fill="#559472"/>
<path d="M1884.05 79.3504C1881.35 80.3585 1877.33 83.6018 1882.81 88.5099C1889.66 94.6451 1890.91 76.2154 1884.05 79.3504Z" stroke="#090909" stroke-width="5" stroke-linecap="round"/>
</g>
</g>
<g clip-path="url(#clip7_96_514)">
<path d="M235.65 916.522C238.298 915.918 240.216 919.002 238.504 921.111L200.282 968.191C199.044 969.716 196.672 969.567 195.635 967.899L174.728 934.283C173.691 932.615 174.606 930.422 176.521 929.986L235.65 916.522Z" fill="#0485A2"/>
<path fill-rule="evenodd" clip-rule="evenodd" d="M202.117 938.226C192.768 923.194 166.689 896.168 103.284 913.72C53.1733 927.591 6.45639 954.296 -25.1633 972.371C-33.8144 977.316 -41.3354 981.616 -47.4865 984.829L-163.338 1055.46C-176.962 1064.02 -201.945 1084.78 -192.887 1099.34C-191.548 1101.7 -188.826 1106.58 -188.65 1107.19C-188.519 1107.65 -188.694 1107.71 -188.907 1107.78C-188.98 1107.81 -189.058 1107.84 -189.129 1107.88L-190.681 1108.72C-191.011 1108.92 -191.363 1109.13 -191.755 1109.36C-192.693 1109.91 -193.865 1110.6 -195.536 1111.74C-198.372 1113.65 -200.183 1114.88 -196.002 1121.61L-170.917 1161.94C-169.361 1164.51 -164.535 1165.75 -162.107 1164.24C-160.798 1163.42 -159.67 1162.68 -158.63 1162C-157.741 1161.41 -156.917 1160.87 -156.101 1160.36C-156.053 1160.34 -156.007 1160.3 -155.961 1160.27C-155.64 1160.05 -155.338 1159.84 -154.982 1160.7C-154.574 1161.69 -151.444 1166.53 -149.93 1168.83L-141.278 1182.74C-140.937 1183.22 -140.515 1184.26 -141.551 1184.59L-147.246 1188.13C-149.051 1189.26 -151.899 1192.69 -148.852 1197.42C-145.804 1202.15 -134.923 1219.75 -129.864 1227.95C-128.524 1229.96 -124.451 1233.15 -118.878 1229.79L-113.836 1226.66C-113.692 1226.61 -113.358 1226.59 -113.172 1226.89C-112.986 1227.19 -107.016 1232.9 -104.055 1235.72C-102.926 1236.7 -99.2182 1239.5 -98.3037 1239.14C-93.445 1237.22 -57.7303 1215.94 -17.8225 1189.08C21.6535 1162.52 40.7951 1149.26 65.9377 1131.81C67.3432 1130.94 89.3372 1115.96 90.8458 1115.03L103.639 1106.03L113.632 1098.78C128.363 1088.33 162.993 1065.11 185.762 1040.72C232.113 995.118 214.873 957.613 202.117 938.226Z" fill="#0E6F3A"/>
<path d="M125.486 929.235C140.945 927.958 149.228 935.476 151.524 939.237C152.877 941.898 154.985 948.76 152.596 954.916C149.61 962.611 141.514 970.113 133.072 977.048C125.27 983.457 111.798 990.954 99.8004 995.405C99.8004 995.405 88.805 1000.43 70.9825 1000.1C48.7044 999.681 52.7526 976.407 54.3575 971.907C55.9624 967.406 63.6186 956.806 71.7462 950.714C78.2483 945.839 88.6943 940.475 96.1105 936.988C106.434 932.134 115.383 930.07 125.486 929.235Z" fill="#FEE6CA"/>
<path d="M141.958 981.268C161.885 971.668 175.206 977.958 179.376 982.303C180.741 983.832 181.955 986.172 182.391 987.151C186.022 994.822 184.023 1003.03 182.569 1006.18C180.609 1011.14 173.68 1023.57 161.647 1033.54C149.614 1043.5 133.799 1050.94 127.395 1053.42C117.141 1056.78 95.037 1060.02 88.6557 1046.09C82.2744 1032.17 92.2339 1016.15 96.856 1011.86C104.357 1004.35 122.031 990.869 141.958 981.268Z" fill="#FEE6CA"/>
<path d="M113.431 962.056C115.27 964.429 116.171 970.196 111.992 973.053C107.814 975.91 103.72 976.774 99.2382 973.639C95.4281 970.973 92.6137 965.553 99.8989 961.02C106.577 956.866 111.705 959.957 113.431 962.056ZM143.159 1009.87C145.478 1013.99 143.74 1018.5 140.326 1020.93C136.911 1023.35 133.481 1023.52 129.99 1022.46C126.498 1021.39 121.356 1012.93 129.542 1008.7C136.092 1005.32 141.349 1008.07 143.159 1009.87ZM112.657 965.905C112.581 965.695 112.367 965.21 112.118 964.946C111.232 964.267 109.049 963.519 107.404 965.959C105.347 969.01 108.468 973.437 111.118 971.441C113.238 969.843 113.027 967.084 112.657 965.905ZM142.146 1014.04C142.08 1013.7 141.786 1012.97 140.685 1012.34C139.573 1011.71 136.698 1012.19 135.344 1013.58C133.99 1014.98 136.655 1018.14 138.627 1018.3C140.205 1018.42 141.068 1017.34 141.302 1016.79C141.564 1016.14 142.183 1014.78 142.146 1014.04Z" fill="#0A0000"/>
<path d="M56.2079 1013.95C58.7909 1015.89 63.8887 1021.14 63.6153 1026.7" stroke="#090909" stroke-width="3" stroke-linecap="round"/>
<path d="M-37.2266 1153.63C-83.9218 1182.67 -114.356 1170.44 -131.737 1142.49C-149.119 1114.54 -146.866 1081.46 -100.171 1052.42C-53.4756 1023.38 -1.53116 1022.5 15.8504 1050.44C33.232 1078.39 9.4686 1124.59 -37.2266 1153.63Z" fill="#559472"/>
</g>
<path d="M1427.99 288.716C1429 292.671 1424.44 295.669 1421.21 293.179L1349.04 237.586C1346.7 235.785 1346.83 232.218 1349.3 230.597L1398.98 197.912C1401.44 196.29 1404.77 197.58 1405.5 200.439L1427.99 288.716Z" fill="#0485A2"/>
<path fill-rule="evenodd" clip-rule="evenodd" d="M1394.11 239.196C1416.32 224.58 1455.91 184.379 1427.12 89.8367C1404.36 15.1177 1362.47 -54.0133 1334.11 -100.804C1326.35 -113.605 1319.61 -124.735 1314.55 -133.849L1204.04 -305.116C1190.67 -325.246 1158.53 -361.967 1137.01 -347.805C1133.51 -345.704 1126.3 -341.43 1125.38 -341.142C1124.69 -340.928 1124.6 -341.188 1124.48 -341.506C1124.44 -341.614 1124.4 -341.73 1124.33 -341.835L1123.01 -344.134C1122.69 -344.622 1122.37 -345.142 1122 -345.722C1121.14 -347.11 1120.05 -348.843 1118.29 -351.309C1115.3 -355.494 1113.39 -358.166 1103.45 -351.629L1043.84 -312.412C1040.04 -309.977 1038.37 -302.682 1040.73 -299.094C1042 -297.16 1043.16 -295.493 1044.23 -293.958C1045.14 -292.646 1045.98 -291.43 1046.78 -290.223C1046.82 -290.153 1046.87 -290.084 1046.92 -290.016C1047.27 -289.543 1047.6 -289.098 1046.31 -288.529C1044.84 -287.879 1037.7 -282.993 1034.31 -280.631L1013.75 -267.105C1013.04 -266.575 1011.49 -265.902 1010.95 -267.444L1005.42 -275.861C1003.66 -278.529 998.403 -282.674 991.411 -277.916C984.419 -273.157 958.418 -256.143 946.292 -248.231C943.317 -246.141 938.682 -239.903 943.946 -231.662L948.848 -224.211C948.923 -223.997 948.963 -223.496 948.522 -223.205C948.08 -222.915 939.73 -213.73 935.61 -209.174C934.179 -207.442 930.123 -201.767 930.701 -200.407C933.773 -193.184 967.095 -140.367 1008.95 -81.4675C1050.36 -23.2049 1071 5.03163 1098.17 42.1193C1099.54 44.1964 1122.88 76.6504 1124.34 78.8802L1138.33 97.7471L1149.6 112.475C1165.87 134.196 1202.07 185.31 1239.57 218.567C1309.82 286.423 1365.48 259.095 1394.11 239.196Z" fill="#0E6F3A"/>
<path d="M1404.67 123.769C1407.18 146.936 1396.21 159.663 1390.65 163.255C1386.71 165.389 1376.48 168.819 1367.15 165.467C1355.48 161.278 1343.9 149.407 1333.16 136.995C1323.24 125.526 1311.46 105.582 1304.32 87.7358C1304.32 87.7358 1296.35 71.4165 1296.17 44.6396C1295.94 11.1685 1331.04 16.355 1337.86 18.5925C1344.68 20.8299 1360.89 31.9207 1370.36 43.8924C1377.92 53.4697 1386.38 68.9507 1391.9 79.954C1399.59 95.2705 1403.03 108.63 1404.67 123.769Z" fill="#FEE6CA"/>
<path d="M1327.17 150.504C1342.34 180.061 1333.38 200.322 1327.01 206.757C1324.76 208.869 1321.29 210.785 1319.83 211.478C1308.44 217.236 1296.02 214.556 1291.24 212.496C1283.7 209.747 1264.76 199.829 1249.33 182.144C1233.9 164.459 1222.12 140.994 1218.16 131.472C1212.73 116.2 1207.03 83.1214 1227.73 72.9859C1248.42 62.8503 1272.87 77.1807 1279.5 83.9549C1291.07 94.9279 1311.99 120.947 1327.17 150.504Z" fill="#FEE6CA"/>
<path d="M1354.93 106.924C1351.43 109.776 1342.81 111.35 1338.36 105.185C1333.9 99.0194 1332.45 92.906 1336.99 86.0547C1340.84 80.2305 1348.88 75.7947 1355.96 86.5613C1362.46 96.43 1358.01 104.25 1354.93 106.924ZM1284.27 153.399C1278.17 157.041 1271.32 154.604 1267.55 149.57C1263.77 144.535 1263.39 139.39 1264.86 134.106C1266.32 128.821 1278.83 120.775 1285.5 132.907C1290.83 142.612 1286.9 150.612 1284.27 153.399ZM1349.12 105.908C1349.43 105.786 1350.15 105.445 1350.54 105.061C1351.52 103.705 1352.56 100.398 1348.83 98.0209C1344.17 95.0492 1337.65 99.9057 1340.75 103.809C1343.23 106.931 1347.36 106.509 1349.12 105.908ZM1277.96 152.038C1278.47 151.925 1279.56 151.455 1280.46 149.778C1281.37 148.082 1280.53 143.786 1278.39 141.806C1276.25 139.825 1271.59 143.948 1271.44 146.916C1271.32 149.29 1272.96 150.545 1273.8 150.876C1274.79 151.244 1276.85 152.122 1277.96 152.038Z" fill="#0A0000"/>
<path d="M1111.87 39.8141C1113.57 40.7295 1115.69 39.9968 1116.46 38.2265L1132.34 1.85279C1133.07 0.180696 1132.3 -1.76633 1130.63 -2.49602L1002.3 -58.4967C999.607 -59.6737 996.833 -57.0021 997.908 -54.2625L1013.75 -13.8902C1014.03 -13.162 1014.57 -12.5589 1015.26 -12.1881L1111.87 39.8141Z" fill="#0E6F3A"/>
<path d="M1128.1 3.15784C1129.71 3.91232 1130.44 5.81434 1129.74 7.45394L1111.25 50.5313C1110.44 52.4172 1108.13 53.1165 1106.41 51.9941L985.448 -27.0298C982.995 -28.6327 983.689 -32.3993 986.552 -33.0229L1029.11 -42.2902C1029.81 -42.4441 1030.55 -42.3618 1031.21 -42.056L1128.1 3.15784Z" fill="#0E6F3A"/>
<path d="M998.482 -4.28308C997.283 -3.25323 998.076 -1.28931 999.654 -1.38124L1026.7 -2.95683C1027.83 -3.02255 1028.56 -4.17645 1028.13 -5.22429L1021.64 -21.2991C1021.22 -22.3469 1019.89 -22.6698 1019.03 -21.9335L998.482 -4.28308Z" fill="#0E6F3A"/>
<path d="M1273.82 31.3392C1275.44 25.9893 1279.04 14.6963 1280.49 12.323C1282.29 9.35631 1264.28 26.1505 1260.42 27.5014" stroke="#090909" stroke-width="5" stroke-linecap="round"/>
<path d="M1058.75 -105.843C1013.35 -174.851 1030.55 -221.024 1071.86 -248.198C1113.16 -275.372 1162.92 -273.257 1208.32 -204.249C1253.73 -135.24 1257.05 -57.2684 1215.75 -30.0944C1174.44 -2.92034 1104.16 -36.834 1058.75 -105.843Z" fill="#559472"/>
</g>
</g>
<defs>
<filter id="filter0_d_96_514" x="-16" y="181" width="429.816" height="501.551" filterUnits="userSpaceOnUse" color-interpolation-filters="sRGB">
<feFlood flood-opacity="0" result="BackgroundImageFix"/>
<feColorMatrix in="SourceAlpha" type="matrix" values="0 0 0 0 0 0 0 0 0 0 0 0 0 0 0 0 0 0 127 0" result="hardAlpha"/>
<feOffset dx="4" dy="8"/>
<feGaussianBlur stdDeviation="10"/>
<feComposite in2="hardAlpha" operator="out"/>
<feColorMatrix type="matrix" values="0 0 0 0 0.054902 0 0 0 0 0.435294 0 0 0 0 0.227451 0 0 0 0.1 0"/>
<feBlend mode="normal" in2="BackgroundImageFix" result="effect1_dropShadow_96_514"/>
<feBlend mode="normal" in="SourceGraphic" in2="effect1_dropShadow_96_514" result="shape"/>
</filter>
<clipPath id="clip0_96_514">
<rect width="1920" height="1080" fill="white"/>
</clipPath>
<clipPath id="clip1_96_514">
<rect width="1920" height="1080" fill="white"/>
</clipPath>
<clipPath id="clip2_96_514">
<rect y="296.513" width="248" height="394" rx="13" transform="rotate(-24.6699 0 296.513)" fill="white"/>
</clipPath>
<clipPath id="clip3_96_514">
<rect x="1797.13" y="679" width="254" height="280" rx="10" transform="rotate(12.61 1797.13 679)" fill="white"/>
</clipPath>
<clipPath id="clip4_96_514">
<rect x="592.66" y="35.3755" width="253.483" height="159.536" rx="10" transform="rotate(114.981 592.66 35.3755)" fill="white"/>
</clipPath>
<clipPath id="clip5_96_514">
<rect x="1979.18" y="341.965" width="265" height="385" rx="132.5" transform="rotate(-171.244 1979.18 341.965)" fill="white"/>
</clipPath>
<clipPath id="clip6_96_514">
<rect width="472.782" height="518.42" fill="white" transform="translate(2081.43 343.284) rotate(-171.244)"/>
</clipPath>
<clipPath id="clip7_96_514">
<rect x="37.1875" y="741" width="334" height="354" rx="13.2336" transform="rotate(14.7601 37.1875 741)" fill="white"/>
</clipPath>
</defs>
</svg>
