<svg width="381" height="526" viewBox="0 0 381 526" fill="none" xmlns="http://www.w3.org/2000/svg">
<g filter="url(#filter0_dd_374_2427)">
<g clip-path="url(#clip0_374_2427)">
<g clip-path="url(#clip1_374_2427)">
<path d="M192.581 40.9209C193.918 37.0485 199.395 37.0485 200.732 40.9209L230.585 127.375C231.552 130.175 229.472 133.094 226.51 133.094H166.804C163.841 133.094 161.761 130.175 162.728 127.375L192.581 40.9209Z" fill="#0485A2"/>
<g filter="url(#filter1_dd_374_2427)">
<path fill-rule="evenodd" clip-rule="evenodd" d="M192.648 101.15C165.954 101.15 110.575 113.024 82.5538 208.212C60.4088 283.439 57.3998 364.544 55.3638 419.438C54.8068 434.457 54.3218 447.514 53.5388 457.952L51.7148 662.587C51.8248 686.854 58.5129 735.387 84.3779 735.387C88.4679 735.552 96.8798 735.95 97.8078 736.216C98.4998 736.414 98.4368 736.685 98.3598 737.016C98.3338 737.128 98.3058 737.249 98.3058 737.376L98.1398 740.03C98.1398 740.616 98.1258 741.231 98.1088 741.918C98.0708 743.561 98.0228 745.612 98.1398 748.653C98.3378 753.814 98.4718 757.112 110.409 757.112H182.037C186.569 757.167 191.996 751.971 191.996 747.66C191.996 745.334 191.945 743.298 191.897 741.421C191.857 739.818 191.819 738.331 191.819 736.881C191.819 736.797 191.815 736.711 191.811 736.627C191.782 736.04 191.754 735.486 193.146 735.718C194.737 735.984 203.425 735.829 207.57 735.718H232.275C233.16 735.664 234.829 735.952 234.431 737.544V747.66C234.431 750.866 236.553 757.245 245.042 757.112C253.531 756.979 284.725 757.057 299.26 757.112C302.908 757 310.236 754.326 310.369 744.509V735.554C310.424 735.333 310.667 734.891 311.198 734.891C311.728 734.891 323.799 731.794 329.768 730.247C331.923 729.583 338.456 727.062 338.721 725.602C340.131 717.849 341.328 655.16 338.721 582.656C336.143 510.937 334.411 475.862 332.089 429.761C332.089 427.264 330.421 387.162 330.431 384.489L329.105 360.941L327.778 342.368C326.12 315.172 323.965 252.322 310.866 203.734C289.39 108.05 227.633 100.256 192.648 101.15Z" fill="#0E6F3A"/>
</g>
<path d="M120.113 192.139C130.791 171.322 147.017 166.702 153.663 166.757C158.149 167.144 168.617 169.909 174.598 177.872C182.075 187.826 185.234 204.172 187.391 220.508C189.385 235.604 188.256 258.83 184.401 277.742C184.401 277.742 182.075 295.825 167.454 318.387C149.177 346.59 122.594 322.866 118.108 317.226C113.622 311.585 106.145 293.337 104.815 278.074C103.752 265.864 105.202 248.212 106.643 235.936C108.649 218.848 113.134 205.743 120.113 192.139Z" fill="#FEE6CA"/>
<path d="M199.873 212.49C203.45 179.322 222.117 167.271 231.003 165.391C234.05 164.861 238.013 165.17 239.614 165.391C252.332 166.851 261.251 175.95 264.121 180.317C268.923 186.785 279.322 205.558 282.502 228.909C285.681 252.259 282.612 278.44 280.68 288.612C276.816 304.422 263.36 335.313 240.442 332.394C217.525 329.475 204.947 303.963 203.126 294.621C199.483 279.031 196.296 245.659 199.873 212.49Z" fill="#FEE6CA"/>
<path d="M152.54 233.723C157.043 233.258 165.148 236.698 165.479 244.325C165.81 251.953 163.656 257.884 156.07 261.127C149.622 263.884 140.437 263.172 140.434 250.231C140.433 238.369 148.476 234.263 152.54 233.723ZM237.455 233.734C244.58 234.046 248.975 239.865 249.363 246.171C249.751 252.477 247.229 257.001 243.086 260.627C238.943 264.252 224.009 264.096 225.112 250.242C225.995 239.159 233.709 234.619 237.455 233.734ZM156.852 237.781C156.523 237.712 155.731 237.6 155.195 237.709C153.62 238.302 150.923 240.502 152.738 244.553C155.007 249.617 163.162 249.146 162.716 244.162C162.359 240.174 158.658 238.246 156.852 237.781ZM241.995 238.358C241.505 238.171 240.335 237.966 238.653 238.875C236.953 239.793 235.281 243.858 235.986 246.702C236.692 249.546 242.874 248.658 244.639 246.252C246.051 244.328 245.362 242.367 244.841 241.627C244.215 240.772 242.968 238.897 241.995 238.358Z" fill="#0A0000"/>
<path d="M68.7285 423.998C69.6505 422.292 71.8325 421.736 73.4575 422.795L106.845 444.545C108.379 445.544 108.813 447.599 107.813 449.134L31.0805 566.922C29.4675 569.397 25.6665 568.687 25.0555 565.796L16.0635 523.191C15.9015 522.423 16.0175 521.622 16.3905 520.931L68.7285 423.998Z" fill="#0E6F3A"/>
<path d="M102.564 445.791C103.504 444.266 103.063 442.27 101.568 441.283L62.2908 415.353C60.5708 414.217 58.2438 414.908 57.4218 416.798L-0.42616 549.832C-1.60016 552.53 1.06084 555.307 3.80684 554.249L44.6138 538.539C45.2918 538.278 45.8648 537.802 46.2458 537.184L102.564 445.791Z" fill="#0E6F3A"/>
<path d="M319.368 424.136C318.447 422.429 316.265 421.874 314.64 422.933L281.253 444.682C279.718 445.682 279.285 447.737 280.284 449.271L357.017 567.059C358.63 569.535 362.431 568.825 363.041 565.934L372.033 523.329C372.195 522.561 372.08 521.76 371.707 521.068L319.368 424.136Z" fill="#0E6F3A"/>
<path d="M285.533 445.929C284.593 444.404 285.034 442.408 286.529 441.421L325.807 415.49C327.526 414.355 329.854 415.046 330.675 416.935L388.524 549.969C389.697 552.668 387.037 555.444 384.291 554.387L343.483 538.677C342.806 538.416 342.232 537.94 341.852 537.321L285.533 445.929Z" fill="#0E6F3A"/>
<path d="M192.231 341.757C193.604 341.733 194.738 342.827 194.762 344.201C194.786 345.574 193.692 346.708 192.319 346.732L179.016 346.965L178.761 346.957C177.505 346.852 176.507 345.81 176.485 344.522C176.461 343.149 177.555 342.016 178.928 341.992L192.231 341.757Z" fill="#090909"/>
<path d="M277.905 579.273C277.905 662.21 237.996 691.445 188.356 691.445C138.717 691.445 98.1445 662.21 98.1445 579.273C98.1445 496.336 138.385 429.102 188.025 429.102C237.664 429.102 277.905 496.336 277.905 579.273Z" fill="#559472"/>
</g>
</g>
</g>
<defs>
<filter id="filter0_dd_374_2427" x="0" y="-19.8867" width="381" height="545" filterUnits="userSpaceOnUse" color-interpolation-filters="sRGB">
<feFlood flood-opacity="0" result="BackgroundImageFix"/>
<feColorMatrix in="SourceAlpha" type="matrix" values="0 0 0 0 0 0 0 0 0 0 0 0 0 0 0 0 0 0 127 0" result="hardAlpha"/>
<feOffset dy="4"/>
<feGaussianBlur stdDeviation="10"/>
<feComposite in2="hardAlpha" operator="out"/>
<feColorMatrix type="matrix" values="0 0 0 0 0.054902 0 0 0 0 0.435294 0 0 0 0 0.227451 0 0 0 0.1 0"/>
<feBlend mode="normal" in2="BackgroundImageFix" result="effect1_dropShadow_374_2427"/>
<feColorMatrix in="SourceAlpha" type="matrix" values="0 0 0 0 0 0 0 0 0 0 0 0 0 0 0 0 0 0 127 0" result="hardAlpha"/>
<feOffset/>
<feGaussianBlur stdDeviation="15"/>
<feComposite in2="hardAlpha" operator="out"/>
<feColorMatrix type="matrix" values="0 0 0 0 0 0 0 0 0 1 0 0 0 0 0.05 0 0 0 0.18 0"/>
<feBlend mode="normal" in2="effect1_dropShadow_374_2427" result="effect2_dropShadow_374_2427"/>
<feBlend mode="normal" in="SourceGraphic" in2="effect2_dropShadow_374_2427" result="shape"/>
</filter>
<filter id="filter1_dd_374_2427" x="27.7148" y="85.0889" width="340.543" height="696.024" filterUnits="userSpaceOnUse" color-interpolation-filters="sRGB">
<feFlood flood-opacity="0" result="BackgroundImageFix"/>
<feColorMatrix in="SourceAlpha" type="matrix" values="0 0 0 0 0 0 0 0 0 0 0 0 0 0 0 0 0 0 127 0" result="hardAlpha"/>
<feOffset dx="-4" dy="4"/>
<feGaussianBlur stdDeviation="10"/>
<feComposite in2="hardAlpha" operator="out"/>
<feColorMatrix type="matrix" values="0 0 0 0 0.054902 0 0 0 0 0.435294 0 0 0 0 0.227451 0 0 0 0.1 0"/>
<feBlend mode="normal" in2="BackgroundImageFix" result="effect1_dropShadow_374_2427"/>
<feColorMatrix in="SourceAlpha" type="matrix" values="0 0 0 0 0 0 0 0 0 0 0 0 0 0 0 0 0 0 127 0" result="hardAlpha"/>
<feOffset dx="8" dy="4"/>
<feGaussianBlur stdDeviation="10"/>
<feComposite in2="hardAlpha" operator="out"/>
<feColorMatrix type="matrix" values="0 0 0 0 0.054902 0 0 0 0 0.435294 0 0 0 0 0.227451 0 0 0 0.1 0"/>
<feBlend mode="normal" in2="effect1_dropShadow_374_2427" result="effect2_dropShadow_374_2427"/>
<feBlend mode="normal" in="SourceGraphic" in2="effect2_dropShadow_374_2427" result="shape"/>
</filter>
<clipPath id="clip0_374_2427">
<rect x="30" y="10.1133" width="321" height="485" rx="160.5" fill="white"/>
</clipPath>
<clipPath id="clip1_374_2427">
<rect width="663" height="727" fill="white" transform="translate(-137 30.1133)"/>
</clipPath>
</defs>
</svg>
