<svg width="192" height="211" viewBox="0 0 192 211" fill="none" xmlns="http://www.w3.org/2000/svg">
<path d="M95.1141 3.24169C95.5011 2.12073 97.0865 2.12073 97.4735 3.24169L106.115 28.2678C106.395 29.0784 105.793 29.9233 104.935 29.9233H87.6521C86.7946 29.9233 86.1925 29.0784 86.4724 28.2678L95.1141 3.24169Z" fill="#0485A2"/>
<path fill-rule="evenodd" clip-rule="evenodd" d="M95.4317 20.6778C87.7032 20.6778 71.6701 24.1152 63.5575 51.6691C57.146 73.4455 56.2749 96.923 55.6854 112.813C55.524 117.161 55.3838 120.941 55.1569 123.962L54.6289 183.198C54.6609 190.223 56.597 204.272 64.0855 204.272C65.2696 204.32 67.705 204.435 67.9738 204.512C68.1741 204.569 68.1559 204.647 68.1336 204.743C68.1259 204.776 68.1178 204.811 68.1178 204.848L68.0698 205.616C68.0698 205.786 68.0657 205.964 68.061 206.162C68.0499 206.638 68.036 207.232 68.0698 208.112C68.1273 209.606 68.1658 210.561 71.6221 210.561H92.3595C93.6716 210.577 95.243 209.072 95.243 207.824C95.243 207.151 95.2281 206.562 95.2143 206.019C95.2026 205.555 95.1917 205.124 95.1917 204.704C95.1917 204.68 95.1905 204.655 95.1892 204.631C95.1809 204.461 95.1729 204.301 95.5757 204.368C96.0365 204.445 98.5519 204.4 99.752 204.368H106.904C107.16 204.352 107.644 204.435 107.529 204.896V207.824C107.529 208.752 108.143 210.599 110.601 210.561C113.058 210.522 122.09 210.545 126.298 210.561C127.354 210.529 129.476 209.754 129.514 206.912V204.32C129.53 204.256 129.6 204.128 129.754 204.128C129.908 204.128 133.402 203.232 135.13 202.784C135.754 202.592 137.646 201.862 137.723 201.439C138.131 199.195 138.477 181.048 137.723 160.06C136.976 139.3 136.475 129.146 135.802 115.801C135.802 115.079 135.319 103.47 135.322 102.697L134.938 95.8801L134.554 90.5037C134.074 82.6312 133.45 64.4379 129.658 50.373C123.44 22.6751 105.56 20.4189 95.4317 20.6778Z" fill="#0E6F3A"/>
<path d="M74.4286 47.0145C77.5198 40.9885 82.2167 39.6511 84.1405 39.6671C85.4391 39.7792 88.4692 40.5795 90.2007 42.8846C92.3649 45.766 93.2795 50.4976 93.904 55.2264C94.4811 59.5965 94.1543 66.3198 93.0383 71.7943C93.0383 71.7943 92.3649 77.0287 88.1326 83.5598C82.8421 91.7236 75.1469 84.8564 73.8483 83.2236C72.5497 81.5909 70.3853 76.3084 70.0005 71.8903C69.6927 68.3558 70.1124 63.2461 70.5296 59.6925C71.1103 54.7461 72.4086 50.9523 74.4286 47.0145Z" fill="#FEE6CA"/>
<path d="M97.5154 52.9062C98.5507 43.3049 103.954 39.8164 106.527 39.2723C107.409 39.1187 108.556 39.2083 109.019 39.2723C112.701 39.6948 115.283 42.3287 116.113 43.5929C117.504 45.4652 120.514 50.8995 121.434 57.6588C122.354 64.4182 121.466 71.9968 120.907 74.9412C119.788 79.5178 115.893 88.4598 109.259 87.6149C102.625 86.77 98.9842 79.385 98.4569 76.6806C97.4023 72.168 96.48 62.5075 97.5154 52.9062Z" fill="#FEE6CA"/>
<path d="M83.8117 59.0532C85.1152 58.9185 87.4614 59.9142 87.5573 62.122C87.653 64.33 87.0294 66.0474 84.8335 66.9862C82.9668 67.784 80.3084 67.5773 80.3077 63.8315C80.3072 60.3982 82.6353 59.2096 83.8117 59.0532ZM108.393 59.0562C110.455 59.1463 111.727 60.831 111.839 62.6564C111.952 64.4817 111.222 65.7914 110.023 66.8408C108.824 67.8903 104.5 67.8453 104.819 63.8354C105.075 60.6271 107.308 59.3122 108.393 59.0562ZM85.0595 60.2279C84.964 60.2078 84.7354 60.1755 84.5804 60.207C84.1244 60.3787 83.3438 61.0148 83.8693 62.1876C84.5261 63.6536 86.887 63.5173 86.7578 62.0744C86.6544 60.9201 85.5822 60.3626 85.0595 60.2279ZM109.707 60.3941C109.565 60.34 109.226 60.2807 108.739 60.5434C108.247 60.8093 107.762 61.9863 107.967 62.8097C108.171 63.6331 109.961 63.376 110.472 62.6797C110.88 62.1229 110.681 61.5555 110.53 61.3411C110.349 61.0937 109.988 60.5501 109.707 60.3941Z" fill="#0A0000"/>
<path d="M185.867 206.143C180.414 205.336 144.361 204.365 127.015 203.98L125.863 202.106L132.104 170.045L140.264 172.689L163.018 190.858L181.355 202.875L185.579 204.317L185.867 206.143Z" fill="#0E6F3A"/>
<path d="M137.119 170.22C137.157 169.644 137.343 169.34 137.503 169.308C137.503 169.308 138.319 168.875 139.376 168.539C140.624 168.141 142.017 167.962 142.017 167.962C145.955 167.386 146.532 175.409 146.724 175.986C146.877 176.447 147.428 176.37 147.684 176.274C153.687 173.824 154.984 180.935 155.128 182.136C155.243 183.097 156.201 182.985 156.665 182.809C163.58 180.743 165.357 189.247 166.078 190.304C166.654 191.149 166.958 191.201 167.038 191.121C171.744 189.494 173.473 195.109 174.098 196.021C174.597 196.752 175.202 196.518 175.442 196.31C179.716 193.907 180.725 200.249 180.725 201.018C180.725 201.633 180.949 201.947 181.061 202.027C182.118 202.844 185.96 203.709 186.104 203.805C186.248 203.901 187.16 204.189 187.208 205.102C187.247 205.832 187.091 206.322 185.602 206.082L185.554 205.169C185.593 204.438 185.138 204.24 184.93 204.208C169.034 202.43 137.503 172.238 137.311 172.094C137.157 171.979 137.119 171.694 137.119 171.566C137.103 171.358 137.08 170.797 137.119 170.22Z" fill="#0485A2"/>
<path d="M59.5516 114.132C59.8183 113.638 60.45 113.477 60.9204 113.784L70.5849 120.08C71.0292 120.369 71.1547 120.964 70.8653 121.408L48.6533 155.505C48.1864 156.221 47.0861 156.016 46.9095 155.179L44.3065 142.846C44.2596 142.623 44.2931 142.392 44.4011 142.192L59.5516 114.132Z" fill="#0E6F3A"/>
<path d="M39.5722 142.952C39.1166 142.894 38.9955 142.29 39.3933 142.061L46.2114 138.123C46.4959 137.959 46.8575 138.122 46.9222 138.444L47.9134 143.384C47.9781 143.706 47.7074 143.997 47.3817 143.955L39.5722 142.952Z" fill="#0E6F3A"/>
<path d="M69.3483 120.44C69.6204 119.999 69.4927 119.421 69.0599 119.136L57.6903 111.629C57.1925 111.301 56.5187 111.501 56.2809 112.048L39.5353 150.557C39.1957 151.338 39.9658 152.142 40.7607 151.836L52.5733 147.288C52.7695 147.213 52.9355 147.075 53.0457 146.896L69.3483 120.44Z" fill="#0E6F3A"/>
<path d="M132.105 114.171C131.838 113.677 131.206 113.517 130.736 113.823L121.071 120.119C120.627 120.408 120.502 121.003 120.791 121.447L143.003 155.544C143.47 156.26 144.57 156.055 144.747 155.218L147.35 142.885C147.397 142.663 147.363 142.431 147.255 142.231L132.105 114.171Z" fill="#0E6F3A"/>
<path d="M122.308 120.48C122.036 120.039 122.164 119.461 122.596 119.176L133.966 111.669C134.464 111.341 135.138 111.541 135.375 112.088L152.121 150.597C152.461 151.378 151.69 152.182 150.896 151.876L139.083 147.328C138.887 147.253 138.721 147.115 138.611 146.936L122.308 120.48Z" fill="#0E6F3A"/>
<path d="M152.588 142.992C153.044 142.933 153.165 142.329 152.767 142.1L145.949 138.162C145.664 137.998 145.303 138.161 145.238 138.483L144.247 143.423C144.182 143.746 144.453 144.036 144.778 143.994L152.588 142.992Z" fill="#0E6F3A"/>
<path d="M89.8633 92.233C91.1754 91.721 94.2988 91.0426 96.2957 92.4251" stroke="#090909" stroke-width="1.4401" stroke-linecap="round"/>
<path d="M120.106 159.08C120.106 183.088 108.553 191.551 94.1841 191.551C79.8149 191.551 68.0703 183.088 68.0703 159.08C68.0703 135.072 79.7189 115.609 94.0881 115.609C108.457 115.609 120.106 135.072 120.106 159.08Z" fill="#559472"/>
</svg>
