<svg width="25" height="26" viewBox="0 0 25 26" fill="none" xmlns="http://www.w3.org/2000/svg">
<path d="M7.81146 4.14551C6.19062 4.19447 5.225 4.37467 4.55625 5.04342C3.64062 5.96009 3.64062 7.43405 3.64062 10.383L3.64062 17.1601C3.64062 20.1101 3.64062 21.5841 4.55625 22.5007C5.47083 23.4163 6.94479 23.4163 9.89062 23.4163L15.099 23.4163C18.0458 23.4163 19.5187 23.4163 20.4333 22.4997C21.35 21.5841 21.35 20.1101 21.35 17.1601L21.35 10.383C21.35 7.43509 21.35 5.96009 20.4333 5.04342C19.7656 4.37467 18.799 4.19447 17.1781 4.14551" stroke="#E8F8EE" stroke-width="1.5" stroke-linecap="round" stroke-linejoin="round"/>
<path d="M6.76953 10.9163L10.9362 10.9163M14.0612 11.958C14.0612 11.958 14.582 11.958 15.1029 12.9997C15.1029 12.9997 16.757 10.3955 18.2279 9.87467M6.76953 17.1663L10.9362 17.1663M14.0612 18.208C14.0612 18.208 14.582 18.208 15.1029 19.2497C15.1029 19.2497 16.757 16.6455 18.2279 16.1247M7.80703 4.40592C7.80703 3.39967 8.6237 2.58301 9.62995 2.58301L15.3591 2.58301C15.8426 2.58301 16.3062 2.77506 16.6481 3.11693C16.99 3.45879 17.182 3.92246 17.182 4.40592C17.182 4.88939 16.99 5.35306 16.6481 5.69492C16.3062 6.03678 15.8426 6.22884 15.3591 6.22884L9.62995 6.22884C9.14648 6.22884 8.68281 6.03678 8.34095 5.69492C7.99909 5.35306 7.80703 4.88939 7.80703 4.40592Z" stroke="#E8F8EE" stroke-width="1.5" stroke-linecap="round" stroke-linejoin="round"/>
</svg>
