<svg width="321" height="486" viewBox="0 0 321 486" fill="none" xmlns="http://www.w3.org/2000/svg">
<g clip-path="url(#clip0_374_2357)">
<g clip-path="url(#clip1_374_2357)">
<path d="M162.581 30.9209C163.918 27.0485 169.395 27.0485 170.732 30.9209L200.585 117.375C201.552 120.175 199.472 123.094 196.51 123.094H136.804C133.841 123.094 131.761 120.175 132.728 117.375L162.581 30.9209Z" fill="#0485A2"/>
<g filter="url(#filter0_dd_374_2357)">
<path fill-rule="evenodd" clip-rule="evenodd" d="M162.648 91.1497C135.954 91.1497 80.5748 103.024 52.5538 198.212C30.4088 273.439 27.3998 354.544 25.3638 409.438C24.8068 424.457 24.3218 437.514 23.5388 447.952L21.7148 652.587C21.8248 676.854 28.5129 725.387 54.3779 725.387C58.4679 725.552 66.8798 725.95 67.8078 726.216C68.4998 726.414 68.4368 726.685 68.3598 727.016C68.3338 727.128 68.3058 727.249 68.3058 727.376L68.1398 730.03C68.1398 730.616 68.1258 731.231 68.1088 731.918C68.0708 733.561 68.0228 735.612 68.1398 738.653C68.3378 743.814 68.4718 747.112 80.4088 747.112H152.037C156.569 747.167 161.996 741.971 161.996 737.66C161.996 735.334 161.945 733.298 161.897 731.421C161.857 729.818 161.819 728.331 161.819 726.881C161.819 726.797 161.815 726.711 161.811 726.627C161.782 726.04 161.754 725.486 163.146 725.718C164.737 725.984 173.425 725.829 177.57 725.718H202.275C203.16 725.664 204.829 725.952 204.431 727.544V737.66C204.431 740.866 206.553 747.245 215.042 747.112C223.531 746.979 254.725 747.057 269.26 747.112C272.908 747 280.236 744.326 280.369 734.509V725.554C280.424 725.333 280.667 724.891 281.198 724.891C281.728 724.891 293.799 721.794 299.768 720.247C301.923 719.583 308.456 717.062 308.721 715.602C310.131 707.849 311.328 645.16 308.721 572.656C306.143 500.937 304.411 465.862 302.089 419.761C302.089 417.264 300.421 377.162 300.431 374.489L299.105 350.941L297.778 332.368C296.12 305.172 293.965 242.322 280.866 193.734C259.39 98.0495 197.633 90.2555 162.648 91.1497Z" fill="#0E6F3A"/>
</g>
<path d="M90.1132 182.139C100.791 161.322 117.017 156.702 123.663 156.757C128.149 157.144 138.617 159.909 144.598 167.872C152.075 177.826 155.234 194.172 157.391 210.508C159.385 225.604 158.256 248.83 154.401 267.742C154.401 267.742 152.075 285.825 137.454 308.387C119.177 336.59 92.5942 312.866 88.1082 307.226C83.6222 301.585 76.1452 283.337 74.8152 268.074C73.7522 255.864 75.2022 238.212 76.6432 225.936C78.6492 208.848 83.1342 195.743 90.1132 182.139Z" fill="#FEE6CA"/>
<path d="M169.873 202.49C173.45 169.322 192.117 157.271 201.003 155.391C204.05 154.861 208.013 155.17 209.614 155.391C222.332 156.851 231.251 165.95 234.121 170.317C238.923 176.785 249.322 195.558 252.502 218.909C255.681 242.259 252.612 268.44 250.68 278.612C246.816 294.422 233.36 325.313 210.442 322.394C187.525 319.475 174.947 293.963 173.126 284.621C169.483 269.031 166.296 235.659 169.873 202.49Z" fill="#FEE6CA"/>
<path d="M122.54 223.723C127.043 223.258 135.148 226.698 135.479 234.325C135.81 241.953 133.656 247.884 126.07 251.127C119.622 253.884 110.437 253.172 110.434 240.231C110.433 228.369 118.476 224.263 122.54 223.723ZM207.455 223.734C214.58 224.046 218.975 229.865 219.363 236.171C219.751 242.477 217.229 247.001 213.086 250.627C208.943 254.252 194.009 254.096 195.112 240.242C195.995 229.159 203.709 224.619 207.455 223.734ZM126.852 227.781C126.523 227.712 125.731 227.6 125.195 227.709C123.62 228.302 120.923 230.502 122.738 234.553C125.007 239.617 133.162 239.146 132.716 234.162C132.359 230.174 128.658 228.246 126.852 227.781ZM211.995 228.358C211.505 228.171 210.335 227.966 208.653 228.875C206.953 229.793 205.281 233.858 205.986 236.702C206.692 239.546 212.874 238.658 214.639 236.252C216.051 234.328 215.362 232.367 214.841 231.627C214.215 230.772 212.968 228.897 211.995 228.358Z" fill="#0A0000"/>
<path d="M38.7285 413.998C39.6505 412.292 41.8325 411.736 43.4575 412.795L76.8445 434.545C78.3785 435.544 78.8125 437.599 77.8125 439.134L1.08052 556.922C-0.532483 559.397 -4.33348 558.687 -4.94448 555.796L-13.9365 513.191C-14.0985 512.423 -13.9825 511.622 -13.6095 510.931L38.7285 413.998Z" fill="#0E6F3A"/>
<path d="M72.5638 435.791C73.5038 434.266 73.0628 432.27 71.5678 431.283L32.2908 405.353C30.5708 404.217 28.2438 404.908 27.4218 406.798L-30.4262 539.832C-31.6002 542.53 -28.9392 545.307 -26.1932 544.249L14.6138 528.539C15.2918 528.278 15.8648 527.802 16.2458 527.184L72.5638 435.791Z" fill="#0E6F3A"/>
<path d="M289.368 414.136C288.447 412.429 286.265 411.874 284.64 412.933L251.253 434.682C249.718 435.682 249.285 437.737 250.284 439.271L327.017 557.059C328.63 559.535 332.431 558.825 333.041 555.934L342.033 513.329C342.195 512.561 342.08 511.76 341.707 511.068L289.368 414.136Z" fill="#0E6F3A"/>
<path d="M255.533 435.929C254.593 434.404 255.034 432.408 256.529 431.421L295.807 405.49C297.526 404.355 299.854 405.046 300.675 406.935L358.524 539.969C359.697 542.668 357.037 545.444 354.291 544.387L313.483 528.677C312.806 528.416 312.232 527.94 311.852 527.321L255.533 435.929Z" fill="#0E6F3A"/>
<path d="M162.231 331.757C163.604 331.733 164.738 332.827 164.762 334.201C164.786 335.574 163.692 336.708 162.319 336.732L149.016 336.965L148.761 336.957C147.505 336.852 146.507 335.81 146.485 334.522C146.461 333.149 147.555 332.016 148.928 331.992L162.231 331.757Z" fill="#090909"/>
<path d="M247.905 569.273C247.905 652.21 207.996 681.445 158.356 681.445C108.717 681.445 68.1445 652.21 68.1445 569.273C68.1445 486.336 108.385 419.102 158.025 419.102C207.664 419.102 247.905 486.336 247.905 569.273Z" fill="#559472"/>
</g>
<path d="M162.517 29.2473C163.894 25.2578 169.536 25.2578 170.914 29.2473L201.67 118.316C202.666 121.201 200.523 124.208 197.471 124.208H135.959C132.907 124.208 130.764 121.201 131.761 118.316L162.517 29.2473Z" fill="#0485A2"/>
<path fill-rule="evenodd" clip-rule="evenodd" d="M163.641 91.302C136.134 91.302 79.0721 103.536 50.1992 201.601C27.3803 279.104 24.2801 362.662 22.1818 419.216C21.6077 434.69 21.1086 448.142 20.3012 458.895L18.4219 669.719C18.5357 694.719 25.4265 744.72 52.0784 744.72C56.2926 744.891 64.9601 745.301 65.9169 745.575C66.6298 745.778 66.5649 746.057 66.4855 746.399C66.4583 746.516 66.4295 746.639 66.4295 746.77L66.2587 749.504C66.2587 750.108 66.2438 750.742 66.2273 751.449C66.1876 753.142 66.1382 755.255 66.2587 758.388C66.4632 763.705 66.6003 767.103 78.9012 767.103H152.707C157.376 767.16 162.969 761.806 162.969 757.364C162.969 754.969 162.916 752.871 162.867 750.937C162.825 749.286 162.786 747.754 162.786 746.259C162.786 746.173 162.782 746.085 162.778 745.998C162.748 745.393 162.72 744.823 164.153 745.062C165.793 745.335 174.746 745.176 179.017 745.062H204.473C205.384 745.006 207.104 745.303 206.694 746.943V757.364C206.694 760.667 208.881 767.239 217.628 767.103C226.375 766.966 258.517 767.046 273.494 767.103C277.253 766.989 284.804 764.232 284.941 754.118V744.893C284.998 744.665 285.249 744.209 285.795 744.209C286.342 744.209 298.779 741.02 304.93 739.426C307.151 738.742 313.882 736.144 314.156 734.64C315.608 726.653 316.842 662.067 314.156 587.371C311.499 513.483 309.714 477.346 307.322 429.851C307.322 427.279 305.603 385.964 305.613 383.21L304.247 358.95L302.88 339.815C301.171 311.797 298.95 247.046 285.454 196.988C263.324 98.4105 199.689 90.3807 163.641 91.302Z" fill="#0E6F3A"/>
<path d="M88.887 185.04C99.8885 163.593 116.605 158.833 123.452 158.89C128.074 159.289 138.858 162.137 145.02 170.341C152.723 180.596 155.978 197.436 158.201 214.266C160.255 229.82 159.091 253.748 155.12 273.232C155.12 273.232 152.723 291.862 137.66 315.106C118.831 344.161 91.4433 319.721 86.8216 313.909C82.1999 308.098 74.4967 289.298 73.1273 273.574C72.0318 260.994 73.5253 242.809 75.0102 230.161C77.0771 212.557 81.6978 199.055 88.887 185.04Z" fill="#FEE6CA"/>
<path d="M171.061 206.007C174.746 171.836 193.978 159.42 203.133 157.484C206.271 156.937 210.355 157.256 212.004 157.484C225.106 158.987 234.295 168.361 237.252 172.861C242.2 179.524 252.913 198.865 256.189 222.922C259.464 246.979 256.302 273.951 254.312 284.43C250.331 300.719 236.468 332.544 212.857 329.537C189.247 326.53 176.289 300.246 174.412 290.621C170.659 274.561 167.376 240.178 171.061 206.007Z" fill="#FEE6CA"/>
<path d="M122.3 227.881C126.939 227.402 135.289 230.946 135.63 238.805C135.97 246.663 133.752 252.773 125.937 256.114C119.293 258.954 109.83 258.221 109.828 244.888C109.826 232.667 118.114 228.437 122.3 227.881ZM209.783 227.893C217.124 228.214 221.651 234.209 222.051 240.706C222.451 247.203 219.853 251.864 215.585 255.599C211.317 259.334 195.93 259.173 197.067 244.9C197.976 233.482 205.924 228.805 209.783 227.893ZM126.742 232.063C126.403 231.991 125.587 231.876 125.034 231.988C123.411 232.599 120.632 234.865 122.502 239.039C124.84 244.257 133.243 243.771 132.783 238.635C132.415 234.527 128.602 232.542 126.742 232.063ZM214.46 232.657C213.955 232.464 212.749 232.252 211.016 233.189C209.264 234.135 207.542 238.323 208.269 241.253C208.996 244.183 215.365 243.267 217.183 240.789C218.638 238.807 217.928 236.787 217.392 236.024C216.746 235.144 215.462 233.212 214.46 232.657Z" fill="#0A0000"/>
<path d="M35.9481 423.91C36.8973 422.152 39.1458 421.58 40.8198 422.671L75.2161 445.078C76.7973 446.108 77.2441 448.225 76.214 449.806L-2.83932 571.156C-4.50094 573.707 -8.41693 572.976 -9.04558 569.997L-18.3096 526.104C-18.4767 525.312 -18.3574 524.487 -17.973 523.775L35.9481 423.91Z" fill="#0E6F3A"/>
<path d="M70.81 446.362C71.7782 444.791 71.3238 442.734 69.7836 441.718L29.3185 415.003C27.547 413.833 25.1489 414.545 24.3024 416.492L-35.2957 553.549C-36.5045 556.329 -33.7636 559.189 -30.9346 558.1L11.107 541.915C11.8052 541.646 12.3959 541.156 12.7884 540.519L70.81 446.362Z" fill="#0E6F3A"/>
<path d="M294.173 424.053C293.224 422.295 290.975 421.723 289.301 422.813L254.905 445.221C253.324 446.251 252.877 448.368 253.907 449.949L332.96 571.299C334.622 573.85 338.538 573.118 339.167 570.14L348.431 526.246C348.598 525.455 348.479 524.629 348.094 523.917L294.173 424.053Z" fill="#0E6F3A"/>
<path d="M259.311 446.505C258.343 444.934 258.797 442.878 260.337 441.861L300.803 415.146C302.574 413.977 304.972 414.689 305.819 416.635L365.417 553.693C366.626 556.472 363.885 559.333 361.056 558.244L319.014 542.058C318.316 541.79 317.725 541.299 317.333 540.662L259.311 446.505Z" fill="#0E6F3A"/>
<path d="M251.454 583.881C251.454 669.327 210.339 699.446 159.198 699.446C108.057 699.446 66.2578 669.327 66.2578 583.881C66.2578 498.435 107.716 429.168 158.856 429.168C209.997 429.168 251.454 498.435 251.454 583.881Z" fill="#559472"/>
<path d="M160.193 333.976C157.46 335.742 153.803 340.297 161.047 344.398C170.102 349.523 167.027 328.851 160.193 333.976Z" stroke="#090909" stroke-width="5.12537" stroke-linecap="round"/>
</g>
<defs>
<filter id="filter0_dd_374_2357" x="-2.28516" y="75.0889" width="340.543" height="696.024" filterUnits="userSpaceOnUse" color-interpolation-filters="sRGB">
<feFlood flood-opacity="0" result="BackgroundImageFix"/>
<feColorMatrix in="SourceAlpha" type="matrix" values="0 0 0 0 0 0 0 0 0 0 0 0 0 0 0 0 0 0 127 0" result="hardAlpha"/>
<feOffset dx="-4" dy="4"/>
<feGaussianBlur stdDeviation="10"/>
<feComposite in2="hardAlpha" operator="out"/>
<feColorMatrix type="matrix" values="0 0 0 0 0.054902 0 0 0 0 0.435294 0 0 0 0 0.227451 0 0 0 0.1 0"/>
<feBlend mode="normal" in2="BackgroundImageFix" result="effect1_dropShadow_374_2357"/>
<feColorMatrix in="SourceAlpha" type="matrix" values="0 0 0 0 0 0 0 0 0 0 0 0 0 0 0 0 0 0 127 0" result="hardAlpha"/>
<feOffset dx="8" dy="4"/>
<feGaussianBlur stdDeviation="10"/>
<feComposite in2="hardAlpha" operator="out"/>
<feColorMatrix type="matrix" values="0 0 0 0 0.054902 0 0 0 0 0.435294 0 0 0 0 0.227451 0 0 0 0.1 0"/>
<feBlend mode="normal" in2="effect1_dropShadow_374_2357" result="effect2_dropShadow_374_2357"/>
<feBlend mode="normal" in="SourceGraphic" in2="effect2_dropShadow_374_2357" result="shape"/>
</filter>
<clipPath id="clip0_374_2357">
<rect y="0.113281" width="321" height="485" rx="160.5" fill="white"/>
</clipPath>
<clipPath id="clip1_374_2357">
<rect width="663" height="727" fill="white" transform="translate(-167 20.1133)"/>
</clipPath>
</defs>
</svg>
