<svg width="204" height="307" viewBox="0 0 204 307" fill="none" xmlns="http://www.w3.org/2000/svg">
<path d="M101.745 3.09727C102.115 2.02786 103.627 2.02786 103.996 3.09727L112.241 26.9725C112.508 27.7458 111.933 28.5519 111.115 28.5519H94.6266C93.8085 28.5519 93.2341 27.7458 93.5011 26.9725L101.745 3.09727Z" fill="#0485A2"/>
<path fill-rule="evenodd" clip-rule="evenodd" d="M101.926 19.7541C94.5533 19.7541 79.2575 23.0334 71.518 49.3203C65.4014 70.0952 64.5703 92.4931 64.0079 107.653C63.854 111.8 63.7202 115.406 63.5038 118.289L63 174.801C63.0305 181.502 64.8776 194.905 72.0218 194.905C73.1514 194.951 75.4748 195.061 75.7312 195.134C75.9223 195.189 75.9049 195.264 75.8836 195.355C75.8763 195.386 75.8686 195.42 75.8686 195.455L75.8228 196.187C75.8228 196.349 75.8188 196.519 75.8144 196.709C75.8038 197.163 75.7905 197.729 75.8228 198.569C75.8776 199.994 75.9144 200.905 79.2117 200.905H98.9955C100.247 200.92 101.746 199.485 101.746 198.295C101.746 197.652 101.732 197.09 101.719 196.572C101.708 196.129 101.697 195.718 101.697 195.318C101.697 195.295 101.696 195.271 101.695 195.248C101.687 195.086 101.68 194.933 102.064 194.997C102.503 195.07 104.903 195.027 106.048 194.997H112.872C113.116 194.982 113.577 195.061 113.467 195.501V198.295C113.467 199.18 114.053 200.942 116.398 200.905C118.743 200.868 127.358 200.89 131.373 200.905C132.381 200.874 134.405 200.136 134.441 197.424V194.951C134.457 194.89 134.524 194.768 134.67 194.768C134.817 194.768 138.151 193.913 139.8 193.486C140.395 193.303 142.199 192.606 142.273 192.203C142.662 190.062 142.992 172.75 142.273 152.727C141.56 132.921 141.082 123.235 140.441 110.503C140.441 109.814 139.98 98.7393 139.983 98.0012L139.616 91.4982L139.25 86.369C138.792 78.8585 138.197 61.5019 134.579 48.0837C128.647 21.6596 111.589 19.5072 101.926 19.7541Z" fill="#0E6F3A"/>
<path d="M81.8881 44.8807C84.8371 39.1318 89.318 37.8559 91.1534 37.8712C92.3923 37.9781 95.283 38.7417 96.9348 40.9408C98.9996 43.6896 99.872 48.2037 100.468 52.715C101.018 56.8841 100.707 63.2982 99.6419 68.5209C99.6419 68.5209 98.9996 73.5147 94.9618 79.7454C89.9147 87.5338 82.5733 80.9824 81.3344 79.4247C80.0956 77.867 78.0307 72.8275 77.6636 68.6126C77.37 65.2406 77.7703 60.3659 78.1684 56.9757C78.7224 52.2567 79.961 48.6375 81.8881 44.8807Z" fill="#FEE6CA"/>
<path d="M103.916 50.5009C104.904 41.3411 110.059 38.0131 112.513 37.494C113.355 37.3475 114.449 37.4329 114.891 37.494C118.403 37.897 120.867 40.4099 121.659 41.6159C122.985 43.4021 125.857 48.5865 126.735 55.035C127.613 61.4835 126.766 68.7136 126.232 71.5226C125.165 75.8888 121.449 84.4196 115.12 83.6135C108.791 82.8074 105.318 75.762 104.815 73.182C103.809 68.8769 102.929 59.6607 103.916 50.5009Z" fill="#FEE6CA"/>
<path d="M90.8459 56.4294C92.0895 56.3009 94.3284 57.2513 94.4197 59.3578C94.5111 61.4642 93.916 63.1021 91.8211 63.9978C90.0403 64.7591 87.5038 64.5624 87.503 60.989C87.5025 57.7133 89.7237 56.5786 90.8459 56.4294ZM114.296 56.4328C116.264 56.5188 117.477 58.1263 117.585 59.8678C117.692 61.609 116.996 62.8583 115.852 63.8594C114.708 64.8607 110.583 64.8174 110.888 60.9915C111.131 57.9312 113.261 56.6773 114.296 56.4328ZM92.0343 57.5546C91.9433 57.5354 91.7252 57.5045 91.5777 57.5347C91.1433 57.6993 90.3997 58.3096 90.8994 59.4327C91.5247 60.8369 93.7733 60.7063 93.6509 59.3242C93.5528 58.2183 92.5322 57.6835 92.0343 57.5546ZM115.512 57.7088C115.377 57.657 115.054 57.6001 114.59 57.8523C114.121 58.1073 113.66 59.2347 113.855 60.0234C114.049 60.812 115.753 60.5651 116.24 59.898C116.63 59.3643 116.44 58.8202 116.296 58.615C116.123 58.3779 115.78 57.8582 115.512 57.7088Z" fill="#0A0000"/>
<path d="M188.206 196.692C183.003 195.922 148.608 194.996 132.06 194.629L130.961 192.84L136.914 162.254L144.7 164.776L166.407 182.11L183.901 193.574L187.931 194.95L188.206 196.692Z" fill="#0E6F3A"/>
<path d="M141.696 162.421C141.733 161.871 141.909 161.581 142.062 161.55C142.062 161.55 142.841 161.137 143.849 160.817C145.04 160.437 146.369 160.267 146.369 160.267C150.126 159.716 150.676 167.371 150.859 167.921C151.006 168.361 151.531 168.288 151.775 168.196C157.502 165.859 158.739 172.643 158.877 173.788C158.987 174.705 159.9 174.598 160.343 174.43C166.941 172.459 168.636 180.572 169.323 181.581C169.873 182.387 170.163 182.436 170.239 182.36C174.729 180.808 176.379 186.164 176.974 187.035C177.451 187.732 178.028 187.509 178.257 187.31C182.335 185.019 183.297 191.069 183.297 191.802C183.297 192.389 183.511 192.689 183.617 192.765C184.625 193.544 188.291 194.369 188.428 194.461C188.566 194.553 189.436 194.828 189.482 195.699C189.519 196.395 189.37 196.862 187.95 196.633L187.904 195.762C187.941 195.065 187.507 194.876 187.308 194.845C172.143 193.149 142.063 164.346 141.879 164.209C141.733 164.099 141.696 163.827 141.696 163.704C141.681 163.506 141.659 162.971 141.696 162.421Z" fill="#0485A2"/>
<path d="M67.6915 108.913C67.946 108.442 68.5487 108.289 68.9974 108.581L78.2175 114.587C78.6413 114.863 78.7611 115.431 78.485 115.855L57.2944 148.383C56.849 149.067 55.7993 148.871 55.6308 148.072L53.1475 136.307C53.1028 136.094 53.1347 135.873 53.2378 135.682L67.6915 108.913Z" fill="#0E6F3A"/>
<path d="M48.6306 136.408C48.1959 136.352 48.0803 135.776 48.4598 135.557L54.9644 131.801C55.2358 131.644 55.5808 131.8 55.6425 132.107L56.5882 136.82C56.6498 137.127 56.3917 137.404 56.0809 137.364L48.6306 136.408Z" fill="#0E6F3A"/>
<path d="M77.0363 114.932C77.2958 114.511 77.174 113.96 76.7611 113.687L65.9143 106.526C65.4395 106.213 64.7967 106.403 64.5697 106.925L48.5943 143.664C48.2702 144.409 49.0049 145.176 49.7633 144.884L61.0327 140.545C61.2198 140.473 61.3782 140.342 61.4834 140.171L77.0363 114.932Z" fill="#0E6F3A"/>
<path d="M136.914 108.949C136.659 108.478 136.057 108.325 135.608 108.617L126.388 114.623C125.964 114.9 125.844 115.467 126.121 115.891L147.311 148.419C147.756 149.103 148.806 148.907 148.975 148.108L151.458 136.343C151.503 136.13 151.471 135.909 151.368 135.718L136.914 108.949Z" fill="#0E6F3A"/>
<path d="M127.569 114.968C127.31 114.547 127.431 113.996 127.844 113.723L138.691 106.562C139.166 106.249 139.809 106.44 140.036 106.961L156.011 143.7C156.335 144.445 155.601 145.212 154.842 144.92L143.573 140.581C143.386 140.509 143.227 140.378 143.122 140.207L127.569 114.968Z" fill="#0E6F3A"/>
<path d="M156.459 136.444C156.894 136.388 157.01 135.812 156.63 135.593L150.125 131.837C149.854 131.68 149.509 131.836 149.447 132.143L148.502 136.856C148.44 137.163 148.698 137.44 149.009 137.401L156.459 136.444Z" fill="#0E6F3A"/>
<path d="M94.3242 88.6133C96.7209 88.9491 102.082 89.0712 104.353 86.873" stroke="#090909" stroke-width="1.37387" stroke-linecap="round"/>
<path d="M125.463 151.793C125.463 174.697 114.442 182.77 100.733 182.77C87.0248 182.77 75.8203 174.697 75.8203 151.793C75.8203 128.889 86.9332 110.321 100.642 110.321C114.35 110.321 125.463 128.889 125.463 151.793Z" fill="#559472"/>
</svg>
