<svg width="321" height="486" viewBox="0 0 321 486" fill="none" xmlns="http://www.w3.org/2000/svg">
<g clip-path="url(#clip0_374_2427)">
<g clip-path="url(#clip1_374_2427)">
<path d="M162.581 30.9209C163.918 27.0485 169.395 27.0485 170.732 30.9209L200.585 117.375C201.552 120.175 199.472 123.094 196.51 123.094H136.804C133.841 123.094 131.761 120.175 132.728 117.375L162.581 30.9209Z" fill="#0485A2"/>
<g filter="url(#filter0_dd_374_2427)">
<path fill-rule="evenodd" clip-rule="evenodd" d="M162.648 91.1497C135.954 91.1497 80.5748 103.024 52.5538 198.212C30.4088 273.439 27.3998 354.544 25.3638 409.438C24.8068 424.457 24.3218 437.514 23.5388 447.952L21.7148 652.587C21.8248 676.854 28.5129 725.387 54.3779 725.387C58.4679 725.552 66.8798 725.95 67.8078 726.216C68.4998 726.414 68.4368 726.685 68.3598 727.016C68.3338 727.128 68.3058 727.249 68.3058 727.376L68.1398 730.03C68.1398 730.616 68.1258 731.231 68.1088 731.918C68.0708 733.561 68.0228 735.612 68.1398 738.653C68.3378 743.814 68.4718 747.112 80.4088 747.112H152.037C156.569 747.167 161.996 741.971 161.996 737.66C161.996 735.334 161.945 733.298 161.897 731.421C161.857 729.818 161.819 728.331 161.819 726.881C161.819 726.797 161.815 726.711 161.811 726.627C161.782 726.04 161.754 725.486 163.146 725.718C164.737 725.984 173.425 725.829 177.57 725.718H202.275C203.16 725.664 204.829 725.952 204.431 727.544V737.66C204.431 740.866 206.553 747.245 215.042 747.112C223.531 746.979 254.725 747.057 269.26 747.112C272.908 747 280.236 744.326 280.369 734.509V725.554C280.424 725.333 280.667 724.891 281.198 724.891C281.728 724.891 293.799 721.794 299.768 720.247C301.923 719.583 308.456 717.062 308.721 715.602C310.131 707.849 311.328 645.16 308.721 572.656C306.143 500.937 304.411 465.862 302.089 419.761C302.089 417.264 300.421 377.162 300.431 374.489L299.105 350.941L297.778 332.368C296.12 305.172 293.965 242.322 280.866 193.734C259.39 98.0495 197.633 90.2555 162.648 91.1497Z" fill="#0E6F3A"/>
</g>
<path d="M90.1132 182.139C100.791 161.322 117.017 156.702 123.663 156.757C128.149 157.144 138.617 159.909 144.598 167.872C152.075 177.826 155.234 194.172 157.391 210.508C159.385 225.604 158.256 248.83 154.401 267.742C154.401 267.742 152.075 285.825 137.454 308.387C119.177 336.59 92.5942 312.866 88.1082 307.226C83.6222 301.585 76.1452 283.337 74.8152 268.074C73.7522 255.864 75.2022 238.212 76.6432 225.936C78.6492 208.848 83.1342 195.743 90.1132 182.139Z" fill="#FEE6CA"/>
<path d="M169.873 202.49C173.45 169.322 192.117 157.271 201.003 155.391C204.05 154.861 208.013 155.17 209.614 155.391C222.332 156.851 231.251 165.95 234.121 170.317C238.923 176.785 249.322 195.558 252.502 218.909C255.681 242.259 252.612 268.44 250.68 278.612C246.816 294.422 233.36 325.313 210.442 322.394C187.525 319.475 174.947 293.963 173.126 284.621C169.483 269.031 166.296 235.659 169.873 202.49Z" fill="#FEE6CA"/>
<path d="M122.54 223.723C127.043 223.258 135.148 226.698 135.479 234.325C135.81 241.953 133.656 247.884 126.07 251.127C119.622 253.884 110.437 253.172 110.434 240.231C110.433 228.369 118.476 224.263 122.54 223.723ZM207.455 223.734C214.58 224.046 218.975 229.865 219.363 236.171C219.751 242.477 217.229 247.001 213.086 250.627C208.943 254.252 194.009 254.096 195.112 240.242C195.995 229.159 203.709 224.619 207.455 223.734ZM126.852 227.781C126.523 227.712 125.731 227.6 125.195 227.709C123.62 228.302 120.923 230.502 122.738 234.553C125.007 239.617 133.162 239.146 132.716 234.162C132.359 230.174 128.658 228.246 126.852 227.781ZM211.995 228.358C211.505 228.171 210.335 227.966 208.653 228.875C206.953 229.793 205.281 233.858 205.986 236.702C206.692 239.546 212.874 238.658 214.639 236.252C216.051 234.328 215.362 232.367 214.841 231.627C214.215 230.772 212.968 228.897 211.995 228.358Z" fill="#0A0000"/>
<path d="M38.7285 413.998C39.6505 412.292 41.8325 411.736 43.4575 412.795L76.8445 434.545C78.3785 435.544 78.8125 437.599 77.8125 439.134L1.08052 556.922C-0.532483 559.397 -4.33348 558.687 -4.94448 555.796L-13.9365 513.191C-14.0985 512.423 -13.9825 511.622 -13.6095 510.931L38.7285 413.998Z" fill="#0E6F3A"/>
<path d="M72.5638 435.791C73.5038 434.266 73.0628 432.27 71.5678 431.283L32.2908 405.353C30.5708 404.217 28.2438 404.908 27.4218 406.798L-30.4262 539.832C-31.6002 542.53 -28.9392 545.307 -26.1932 544.249L14.6138 528.539C15.2918 528.278 15.8648 527.802 16.2458 527.184L72.5638 435.791Z" fill="#0E6F3A"/>
<path d="M289.368 414.136C288.447 412.429 286.265 411.874 284.64 412.933L251.253 434.682C249.718 435.682 249.285 437.737 250.284 439.271L327.017 557.059C328.63 559.535 332.431 558.825 333.041 555.934L342.033 513.329C342.195 512.561 342.08 511.76 341.707 511.068L289.368 414.136Z" fill="#0E6F3A"/>
<path d="M255.533 435.929C254.593 434.404 255.034 432.408 256.529 431.421L295.807 405.49C297.526 404.355 299.854 405.046 300.675 406.935L358.524 539.969C359.697 542.668 357.037 545.444 354.291 544.387L313.483 528.677C312.806 528.416 312.232 527.94 311.852 527.321L255.533 435.929Z" fill="#0E6F3A"/>
<path d="M162.231 331.757C163.604 331.733 164.738 332.827 164.762 334.201C164.786 335.574 163.692 336.708 162.319 336.732L149.016 336.965L148.761 336.957C147.505 336.852 146.507 335.81 146.485 334.522C146.461 333.149 147.555 332.016 148.928 331.992L162.231 331.757Z" fill="#090909"/>
<path d="M247.905 569.273C247.905 652.21 207.996 681.445 158.356 681.445C108.717 681.445 68.1445 652.21 68.1445 569.273C68.1445 486.336 108.385 419.102 158.025 419.102C207.664 419.102 247.905 486.336 247.905 569.273Z" fill="#559472"/>
</g>
</g>
<defs>
<filter id="filter0_dd_374_2427" x="-2.28516" y="75.0889" width="340.543" height="696.024" filterUnits="userSpaceOnUse" color-interpolation-filters="sRGB">
<feFlood flood-opacity="0" result="BackgroundImageFix"/>
<feColorMatrix in="SourceAlpha" type="matrix" values="0 0 0 0 0 0 0 0 0 0 0 0 0 0 0 0 0 0 127 0" result="hardAlpha"/>
<feOffset dx="-4" dy="4"/>
<feGaussianBlur stdDeviation="10"/>
<feComposite in2="hardAlpha" operator="out"/>
<feColorMatrix type="matrix" values="0 0 0 0 0.054902 0 0 0 0 0.435294 0 0 0 0 0.227451 0 0 0 0.1 0"/>
<feBlend mode="normal" in2="BackgroundImageFix" result="effect1_dropShadow_374_2427"/>
<feColorMatrix in="SourceAlpha" type="matrix" values="0 0 0 0 0 0 0 0 0 0 0 0 0 0 0 0 0 0 127 0" result="hardAlpha"/>
<feOffset dx="8" dy="4"/>
<feGaussianBlur stdDeviation="10"/>
<feComposite in2="hardAlpha" operator="out"/>
<feColorMatrix type="matrix" values="0 0 0 0 0.054902 0 0 0 0 0.435294 0 0 0 0 0.227451 0 0 0 0.1 0"/>
<feBlend mode="normal" in2="effect1_dropShadow_374_2427" result="effect2_dropShadow_374_2427"/>
<feBlend mode="normal" in="SourceGraphic" in2="effect2_dropShadow_374_2427" result="shape"/>
</filter>
<clipPath id="clip0_374_2427">
<rect y="0.113281" width="321" height="485" rx="160.5" fill="white"/>
</clipPath>
<clipPath id="clip1_374_2427">
<rect width="663" height="727" fill="white" transform="translate(-167 20.1133)"/>
</clipPath>
</defs>
</svg>
