<svg width="381" height="528" viewBox="0 0 381 528" fill="none" xmlns="http://www.w3.org/2000/svg">
<g filter="url(#filter0_dd_374_2357)">
<g clip-path="url(#clip0_374_2357)">
<g clip-path="url(#clip1_374_2357)">
<path d="M192.581 42.9209C193.918 39.0485 199.395 39.0485 200.732 42.9209L230.585 129.375C231.552 132.175 229.472 135.094 226.51 135.094H166.804C163.841 135.094 161.761 132.175 162.728 129.375L192.581 42.9209Z" fill="#0485A2"/>
<g filter="url(#filter1_dd_374_2357)">
<path fill-rule="evenodd" clip-rule="evenodd" d="M192.648 103.15C165.954 103.15 110.575 115.024 82.5538 210.212C60.4088 285.439 57.3998 366.544 55.3638 421.438C54.8068 436.457 54.3218 449.514 53.5388 459.952L51.7148 664.587C51.8248 688.854 58.5129 737.387 84.3779 737.387C88.4679 737.552 96.8798 737.95 97.8078 738.216C98.4998 738.414 98.4368 738.685 98.3598 739.016C98.3338 739.128 98.3058 739.249 98.3058 739.376L98.1398 742.03C98.1398 742.616 98.1258 743.231 98.1088 743.918C98.0708 745.561 98.0228 747.612 98.1398 750.653C98.3378 755.814 98.4718 759.112 110.409 759.112H182.037C186.569 759.167 191.996 753.971 191.996 749.66C191.996 747.334 191.945 745.298 191.897 743.421C191.857 741.818 191.819 740.331 191.819 738.881C191.819 738.797 191.815 738.711 191.811 738.627C191.782 738.04 191.754 737.486 193.146 737.718C194.737 737.984 203.425 737.829 207.57 737.718H232.275C233.16 737.664 234.829 737.952 234.431 739.544V749.66C234.431 752.866 236.553 759.245 245.042 759.112C253.531 758.979 284.725 759.057 299.26 759.112C302.908 759 310.236 756.326 310.369 746.509V737.554C310.424 737.333 310.667 736.891 311.198 736.891C311.728 736.891 323.799 733.794 329.768 732.247C331.923 731.583 338.456 729.062 338.721 727.602C340.131 719.849 341.328 657.16 338.721 584.656C336.143 512.937 334.411 477.862 332.089 431.761C332.089 429.264 330.421 389.162 330.431 386.489L329.105 362.941L327.778 344.368C326.12 317.172 323.965 254.322 310.866 205.734C289.39 110.05 227.633 102.256 192.648 103.15Z" fill="#0E6F3A"/>
</g>
<path d="M120.113 194.139C130.791 173.322 147.017 168.702 153.663 168.757C158.149 169.144 168.617 171.909 174.598 179.872C182.075 189.826 185.234 206.172 187.391 222.508C189.385 237.604 188.256 260.83 184.401 279.742C184.401 279.742 182.075 297.825 167.454 320.387C149.177 348.59 122.594 324.866 118.108 319.226C113.622 313.585 106.145 295.337 104.815 280.074C103.752 267.864 105.202 250.212 106.643 237.936C108.649 220.848 113.134 207.743 120.113 194.139Z" fill="#FEE6CA"/>
<path d="M199.873 214.49C203.45 181.322 222.117 169.271 231.003 167.391C234.05 166.861 238.013 167.17 239.614 167.391C252.332 168.851 261.251 177.95 264.121 182.317C268.923 188.785 279.322 207.558 282.502 230.909C285.681 254.259 282.612 280.44 280.68 290.612C276.816 306.422 263.36 337.313 240.442 334.394C217.525 331.475 204.947 305.963 203.126 296.621C199.483 281.031 196.296 247.659 199.873 214.49Z" fill="#FEE6CA"/>
<path d="M152.54 235.723C157.043 235.258 165.148 238.698 165.479 246.325C165.81 253.953 163.656 259.884 156.07 263.127C149.622 265.884 140.437 265.172 140.434 252.231C140.433 240.369 148.476 236.263 152.54 235.723ZM237.455 235.734C244.58 236.046 248.975 241.865 249.363 248.171C249.751 254.477 247.229 259.001 243.086 262.627C238.943 266.252 224.009 266.096 225.112 252.242C225.995 241.159 233.709 236.619 237.455 235.734ZM156.852 239.781C156.523 239.712 155.731 239.6 155.195 239.709C153.62 240.302 150.923 242.502 152.738 246.553C155.007 251.617 163.162 251.146 162.716 246.162C162.359 242.174 158.658 240.246 156.852 239.781ZM241.995 240.358C241.505 240.171 240.335 239.966 238.653 240.875C236.953 241.793 235.281 245.858 235.986 248.702C236.692 251.546 242.874 250.658 244.639 248.252C246.051 246.328 245.362 244.367 244.841 243.627C244.215 242.772 242.968 240.897 241.995 240.358Z" fill="#0A0000"/>
<path d="M68.7285 425.998C69.6505 424.292 71.8325 423.736 73.4575 424.795L106.845 446.545C108.379 447.544 108.813 449.599 107.813 451.134L31.0805 568.922C29.4675 571.397 25.6665 570.687 25.0555 567.796L16.0635 525.191C15.9015 524.423 16.0175 523.622 16.3905 522.931L68.7285 425.998Z" fill="#0E6F3A"/>
<path d="M102.564 447.791C103.504 446.266 103.063 444.27 101.568 443.283L62.2908 417.353C60.5708 416.217 58.2438 416.908 57.4218 418.798L-0.42616 551.832C-1.60016 554.53 1.06084 557.307 3.80684 556.249L44.6138 540.539C45.2918 540.278 45.8648 539.802 46.2458 539.184L102.564 447.791Z" fill="#0E6F3A"/>
<path d="M319.368 426.136C318.447 424.429 316.265 423.874 314.64 424.933L281.253 446.682C279.718 447.682 279.285 449.737 280.284 451.271L357.017 569.059C358.63 571.535 362.431 570.825 363.041 567.934L372.033 525.329C372.195 524.561 372.08 523.76 371.707 523.068L319.368 426.136Z" fill="#0E6F3A"/>
<path d="M285.533 447.929C284.593 446.404 285.034 444.408 286.529 443.421L325.807 417.49C327.526 416.355 329.854 417.046 330.675 418.935L388.524 551.969C389.697 554.668 387.037 557.444 384.291 556.387L343.483 540.677C342.806 540.416 342.232 539.94 341.852 539.321L285.533 447.929Z" fill="#0E6F3A"/>
<path d="M192.231 343.757C193.604 343.733 194.738 344.827 194.762 346.201C194.786 347.574 193.692 348.708 192.319 348.732L179.016 348.965L178.761 348.957C177.505 348.852 176.507 347.81 176.485 346.522C176.461 345.149 177.555 344.016 178.928 343.992L192.231 343.757Z" fill="#090909"/>
<path d="M277.905 581.273C277.905 664.21 237.996 693.445 188.356 693.445C138.717 693.445 98.1445 664.21 98.1445 581.273C98.1445 498.336 138.385 431.102 188.025 431.102C237.664 431.102 277.905 498.336 277.905 581.273Z" fill="#559472"/>
</g>
<path d="M192.517 41.2473C193.894 37.2578 199.536 37.2578 200.914 41.2473L231.67 130.316C232.666 133.201 230.523 136.208 227.471 136.208H165.959C162.907 136.208 160.764 133.201 161.761 130.316L192.517 41.2473Z" fill="#0485A2"/>
<path fill-rule="evenodd" clip-rule="evenodd" d="M193.641 103.302C166.134 103.302 109.072 115.536 80.1992 213.601C57.3803 291.104 54.2801 374.662 52.1818 431.216C51.6077 446.69 51.1086 460.142 50.3012 470.895L48.4219 681.719C48.5357 706.719 55.4265 756.72 82.0784 756.72C86.2926 756.891 94.9601 757.301 95.9169 757.575C96.6298 757.778 96.5649 758.057 96.4855 758.399C96.4583 758.516 96.4295 758.639 96.4295 758.77L96.2587 761.504C96.2587 762.108 96.2438 762.742 96.2273 763.449C96.1876 765.142 96.1382 767.255 96.2587 770.388C96.4632 775.705 96.6003 779.103 108.901 779.103H182.707C187.376 779.16 192.969 773.806 192.969 769.364C192.969 766.969 192.916 764.871 192.867 762.937C192.825 761.286 192.786 759.754 192.786 758.259C192.786 758.173 192.782 758.085 192.778 757.998C192.748 757.393 192.72 756.823 194.153 757.062C195.793 757.335 204.746 757.176 209.017 757.062H234.473C235.384 757.006 237.104 757.303 236.694 758.943V769.364C236.694 772.667 238.881 779.239 247.628 779.103C256.375 778.966 288.517 779.046 303.494 779.103C307.253 778.989 314.804 776.232 314.941 766.118V756.893C314.998 756.665 315.249 756.209 315.795 756.209C316.342 756.209 328.779 753.02 334.93 751.426C337.151 750.742 343.882 748.144 344.156 746.64C345.608 738.653 346.842 674.067 344.156 599.371C341.499 525.483 339.714 489.346 337.322 441.851C337.322 439.279 335.603 397.964 335.613 395.21L334.247 370.95L332.88 351.815C331.171 323.797 328.95 259.046 315.454 208.988C293.324 110.41 229.689 102.381 193.641 103.302Z" fill="#0E6F3A"/>
<path d="M118.887 197.04C129.888 175.593 146.605 170.833 153.452 170.89C158.074 171.289 168.858 174.137 175.02 182.341C182.723 192.596 185.978 209.436 188.201 226.266C190.255 241.82 189.091 265.748 185.12 285.232C185.12 285.232 182.723 303.862 167.66 327.106C148.831 356.161 121.443 331.721 116.822 325.909C112.2 320.098 104.497 301.298 103.127 285.574C102.032 272.994 103.525 254.809 105.01 242.161C107.077 224.557 111.698 211.055 118.887 197.04Z" fill="#FEE6CA"/>
<path d="M201.061 218.007C204.746 183.836 223.978 171.42 233.133 169.484C236.271 168.937 240.355 169.256 242.004 169.484C255.106 170.987 264.295 180.361 267.252 184.861C272.2 191.524 282.913 210.865 286.189 234.922C289.464 258.979 286.302 285.951 284.312 296.43C280.331 312.719 266.468 344.544 242.857 341.537C219.247 338.53 206.289 312.246 204.412 302.621C200.659 286.561 197.376 252.178 201.061 218.007Z" fill="#FEE6CA"/>
<path d="M152.3 239.881C156.939 239.402 165.289 242.946 165.63 250.805C165.97 258.663 163.752 264.773 155.937 268.114C149.293 270.954 139.83 270.221 139.828 256.888C139.826 244.667 148.114 240.437 152.3 239.881ZM239.783 239.893C247.124 240.214 251.651 246.209 252.051 252.706C252.451 259.203 249.853 263.864 245.585 267.599C241.317 271.334 225.93 271.173 227.067 256.9C227.976 245.482 235.924 240.805 239.783 239.893ZM156.742 244.063C156.403 243.991 155.587 243.876 155.034 243.988C153.411 244.599 150.632 246.865 152.502 251.039C154.84 256.257 163.243 255.771 162.783 250.635C162.415 246.527 158.602 244.542 156.742 244.063ZM244.46 244.657C243.955 244.464 242.749 244.252 241.016 245.189C239.264 246.135 237.542 250.323 238.269 253.253C238.996 256.183 245.365 255.267 247.183 252.789C248.638 250.807 247.928 248.787 247.392 248.024C246.746 247.144 245.462 245.212 244.46 244.657Z" fill="#0A0000"/>
<path d="M65.9481 435.91C66.8973 434.152 69.1458 433.58 70.8198 434.671L105.216 457.078C106.797 458.108 107.244 460.225 106.214 461.806L27.1607 583.156C25.4991 585.707 21.5831 584.976 20.9544 581.997L11.6904 538.104C11.5233 537.312 11.6426 536.487 12.027 535.775L65.9481 435.91Z" fill="#0E6F3A"/>
<path d="M100.81 458.362C101.778 456.791 101.324 454.734 99.7836 453.718L59.3185 427.003C57.547 425.833 55.1489 426.545 54.3024 428.492L-5.29567 565.549C-6.50452 568.329 -3.76358 571.189 -0.934552 570.1L41.107 553.915C41.8052 553.646 42.3959 553.156 42.7884 552.519L100.81 458.362Z" fill="#0E6F3A"/>
<path d="M324.173 436.053C323.224 434.295 320.975 433.723 319.301 434.813L284.905 457.221C283.324 458.251 282.877 460.368 283.907 461.949L362.96 583.299C364.622 585.85 368.538 585.118 369.167 582.14L378.431 538.246C378.598 537.455 378.479 536.629 378.094 535.917L324.173 436.053Z" fill="#0E6F3A"/>
<path d="M289.311 458.505C288.343 456.934 288.797 454.878 290.337 453.861L330.803 427.146C332.574 425.977 334.972 426.689 335.819 428.635L395.417 565.693C396.626 568.472 393.885 571.333 391.056 570.244L349.014 554.058C348.316 553.79 347.725 553.299 347.333 552.662L289.311 458.505Z" fill="#0E6F3A"/>
<path d="M281.454 595.881C281.454 681.327 240.339 711.446 189.198 711.446C138.057 711.446 96.2578 681.327 96.2578 595.881C96.2578 510.435 137.716 441.168 188.856 441.168C239.997 441.168 281.454 510.435 281.454 595.881Z" fill="#559472"/>
<path d="M190.193 345.976C187.46 347.742 183.803 352.297 191.047 356.398C200.102 361.523 197.027 340.851 190.193 345.976Z" stroke="#090909" stroke-width="5.12537" stroke-linecap="round"/>
</g>
</g>
<defs>
<filter id="filter0_dd_374_2357" x="0" y="-17.8867" width="381" height="545" filterUnits="userSpaceOnUse" color-interpolation-filters="sRGB">
<feFlood flood-opacity="0" result="BackgroundImageFix"/>
<feColorMatrix in="SourceAlpha" type="matrix" values="0 0 0 0 0 0 0 0 0 0 0 0 0 0 0 0 0 0 127 0" result="hardAlpha"/>
<feOffset dy="4"/>
<feGaussianBlur stdDeviation="10"/>
<feComposite in2="hardAlpha" operator="out"/>
<feColorMatrix type="matrix" values="0 0 0 0 0.054902 0 0 0 0 0.435294 0 0 0 0 0.227451 0 0 0 0.1 0"/>
<feBlend mode="normal" in2="BackgroundImageFix" result="effect1_dropShadow_374_2357"/>
<feColorMatrix in="SourceAlpha" type="matrix" values="0 0 0 0 0 0 0 0 0 0 0 0 0 0 0 0 0 0 127 0" result="hardAlpha"/>
<feOffset/>
<feGaussianBlur stdDeviation="15"/>
<feComposite in2="hardAlpha" operator="out"/>
<feColorMatrix type="matrix" values="0 0 0 0 0 0 0 0 0 1 0 0 0 0 0.05 0 0 0 0.18 0"/>
<feBlend mode="normal" in2="effect1_dropShadow_374_2357" result="effect2_dropShadow_374_2357"/>
<feBlend mode="normal" in="SourceGraphic" in2="effect2_dropShadow_374_2357" result="shape"/>
</filter>
<filter id="filter1_dd_374_2357" x="27.7148" y="87.0889" width="340.543" height="696.024" filterUnits="userSpaceOnUse" color-interpolation-filters="sRGB">
<feFlood flood-opacity="0" result="BackgroundImageFix"/>
<feColorMatrix in="SourceAlpha" type="matrix" values="0 0 0 0 0 0 0 0 0 0 0 0 0 0 0 0 0 0 127 0" result="hardAlpha"/>
<feOffset dx="-4" dy="4"/>
<feGaussianBlur stdDeviation="10"/>
<feComposite in2="hardAlpha" operator="out"/>
<feColorMatrix type="matrix" values="0 0 0 0 0.054902 0 0 0 0 0.435294 0 0 0 0 0.227451 0 0 0 0.1 0"/>
<feBlend mode="normal" in2="BackgroundImageFix" result="effect1_dropShadow_374_2357"/>
<feColorMatrix in="SourceAlpha" type="matrix" values="0 0 0 0 0 0 0 0 0 0 0 0 0 0 0 0 0 0 127 0" result="hardAlpha"/>
<feOffset dx="8" dy="4"/>
<feGaussianBlur stdDeviation="10"/>
<feComposite in2="hardAlpha" operator="out"/>
<feColorMatrix type="matrix" values="0 0 0 0 0.054902 0 0 0 0 0.435294 0 0 0 0 0.227451 0 0 0 0.1 0"/>
<feBlend mode="normal" in2="effect1_dropShadow_374_2357" result="effect2_dropShadow_374_2357"/>
<feBlend mode="normal" in="SourceGraphic" in2="effect2_dropShadow_374_2357" result="shape"/>
</filter>
<clipPath id="clip0_374_2357">
<rect x="30" y="12.1133" width="321" height="485" rx="160.5" fill="white"/>
</clipPath>
<clipPath id="clip1_374_2357">
<rect width="663" height="727" fill="white" transform="translate(-137 32.1133)"/>
</clipPath>
</defs>
</svg>
