<svg width="294" height="372" viewBox="0 0 294 372" fill="none" xmlns="http://www.w3.org/2000/svg">
<g clip-path="url(#clip0_364_1043)">
<g clip-path="url(#clip1_364_1043)">
<path d="M148.122 24.327C149.177 21.2692 153.502 21.2692 154.558 24.327L178.131 92.5944C178.895 94.8056 177.252 97.1106 174.913 97.1106H127.767C125.427 97.1106 123.785 94.8056 124.549 92.5944L148.122 24.327Z" fill="#0485A2"/>
<g filter="url(#filter0_dd_364_1043)">
<path fill-rule="evenodd" clip-rule="evenodd" d="M148.176 71.8859C127.098 71.8859 83.3686 81.2626 61.2422 156.426C43.7557 215.828 41.3797 279.871 39.772 323.218C39.3322 335.077 38.9492 345.387 38.3309 353.63L36.8906 515.217C36.9775 534.379 42.2586 572.702 62.6825 572.702C65.9121 572.833 72.5545 573.147 73.2873 573.357C73.8338 573.513 73.784 573.727 73.7232 573.989C73.7027 574.078 73.6806 574.173 73.6806 574.273L73.5495 576.369C73.5495 576.831 73.5384 577.317 73.525 577.859C73.495 579.157 73.4571 580.776 73.5495 583.178C73.7058 587.253 73.8116 589.857 83.2375 589.857H139.798C143.376 589.901 147.662 585.798 147.662 582.394C147.662 580.557 147.621 578.949 147.583 577.467C147.552 576.201 147.522 575.027 147.522 573.882C147.522 573.816 147.519 573.748 147.516 573.682C147.493 573.218 147.47 572.781 148.57 572.964C149.826 573.174 156.686 573.051 159.959 572.964H179.467C180.166 572.921 181.484 573.148 181.17 574.406V582.394C181.17 584.925 182.845 589.962 189.549 589.857C196.252 589.752 220.884 589.814 232.361 589.857C235.242 589.77 241.028 587.657 241.133 579.905V572.834C241.177 572.66 241.368 572.311 241.788 572.311C242.206 572.311 251.738 569.866 256.451 568.644C258.153 568.12 263.312 566.129 263.521 564.976C264.634 558.854 265.58 509.352 263.521 452.1C261.485 395.468 260.118 367.772 258.284 331.369C258.284 329.397 256.967 297.731 256.975 295.621L255.928 277.026L254.88 262.36C253.571 240.885 251.869 191.257 241.526 152.89C224.567 77.3343 175.802 71.1799 148.176 71.8859Z" fill="#0E6F3A"/>
</g>
<path d="M90.9001 143.735C99.3318 127.297 112.144 123.649 117.392 123.692C120.935 123.998 129.201 126.181 133.923 132.469C139.828 140.329 142.322 153.237 144.025 166.136C145.6 178.056 144.708 196.396 141.664 211.33C141.664 211.33 139.828 225.609 128.282 243.425C113.85 265.695 92.8592 246.962 89.3169 242.508C85.7746 238.054 79.8705 223.644 78.8202 211.592C77.9809 201.951 79.1258 188.012 80.2637 178.319C81.8477 164.825 85.3892 154.477 90.9001 143.735Z" fill="#FEE6CA"/>
<path d="M153.88 159.805C156.704 133.614 171.445 124.098 178.461 122.613C180.867 122.195 183.997 122.439 185.261 122.613C195.303 123.766 202.346 130.951 204.612 134.4C208.404 139.507 216.616 154.331 219.127 172.77C221.637 191.208 219.214 211.881 217.688 219.913C214.637 232.397 204.012 256.79 185.915 254.485C167.819 252.18 157.887 232.035 156.449 224.658C153.572 212.348 151.055 185.996 153.88 159.805Z" fill="#FEE6CA"/>
<path d="M116.505 176.571C120.06 176.204 126.46 178.92 126.722 184.943C126.983 190.966 125.282 195.649 119.292 198.21C114.2 200.387 106.948 199.825 106.945 189.606C106.945 180.239 113.296 176.997 116.505 176.571ZM183.557 176.58C189.183 176.826 192.653 181.421 192.96 186.4C193.266 191.38 191.275 194.952 188.003 197.815C184.732 200.678 172.939 200.554 173.81 189.615C174.507 180.863 180.599 177.278 183.557 176.58ZM119.91 179.775C119.65 179.721 119.024 179.632 118.601 179.718C117.357 180.187 115.228 181.924 116.661 185.123C118.453 189.121 124.892 188.749 124.54 184.814C124.258 181.665 121.336 180.142 119.91 179.775ZM187.142 180.231C186.755 180.083 185.831 179.921 184.503 180.639C183.16 181.364 181.84 184.574 182.397 186.82C182.954 189.065 187.836 188.364 189.229 186.464C190.344 184.945 189.8 183.396 189.389 182.812C188.895 182.137 187.91 180.656 187.142 180.231Z" fill="#0A0000"/>
<path d="M50.3222 326.819C51.0502 325.472 52.7732 325.033 54.0564 325.869L80.42 343.044C81.6313 343.832 81.974 345.455 81.1843 346.667L20.594 439.677C19.3203 441.631 16.3189 441.071 15.8364 438.788L8.73601 405.145C8.60809 404.539 8.69969 403.906 8.99422 403.361L50.3222 326.819Z" fill="#0E6F3A"/>
<path d="M77.0417 344.028C77.784 342.823 77.4357 341.247 76.2552 340.468L45.2407 319.993C43.8825 319.096 42.045 319.641 41.3959 321.134L-4.28294 426.182C-5.20997 428.313 -3.10875 430.505 -0.94041 429.67L31.2823 417.265C31.8176 417.059 32.2701 416.683 32.571 416.195L77.0417 344.028Z" fill="#0E6F3A"/>
<path d="M248.236 326.928C247.509 325.58 245.786 325.141 244.502 325.978L218.139 343.151C216.927 343.941 216.585 345.564 217.374 346.775L277.965 439.785C279.239 441.74 282.24 441.179 282.722 438.896L289.822 405.254C289.95 404.648 289.859 404.015 289.565 403.469L248.236 326.928Z" fill="#0E6F3A"/>
<path d="M221.519 344.136C220.776 342.932 221.125 341.356 222.305 340.577L253.321 320.101C254.678 319.204 256.516 319.75 257.164 321.242L302.844 426.29C303.77 428.421 301.67 430.613 299.502 429.779L267.278 417.373C266.744 417.167 266.29 416.792 265.99 416.303L221.519 344.136Z" fill="#0E6F3A"/>
<path d="M147.844 261.878C148.929 261.859 149.824 262.723 149.843 263.808C149.862 264.892 148.998 265.787 147.914 265.806L137.409 265.991L137.208 265.985C136.216 265.901 135.428 265.078 135.41 264.061C135.392 262.977 136.255 262.082 137.34 262.063L147.844 261.878Z" fill="#090909"/>
<path d="M215.496 449.429C215.496 514.919 183.982 538.004 144.785 538.004C105.588 538.004 73.5508 514.919 73.5508 449.429C73.5508 383.939 105.326 330.849 144.523 330.849C183.72 330.849 215.496 383.939 215.496 449.429Z" fill="#559472"/>
</g>
</g>
<defs>
<filter id="filter0_dd_364_1043" x="17.9394" y="59.2037" width="268.905" height="549.606" filterUnits="userSpaceOnUse" color-interpolation-filters="sRGB">
<feFlood flood-opacity="0" result="BackgroundImageFix"/>
<feColorMatrix in="SourceAlpha" type="matrix" values="0 0 0 0 0 0 0 0 0 0 0 0 0 0 0 0 0 0 127 0" result="hardAlpha"/>
<feOffset dx="-3.15855" dy="3.15855"/>
<feGaussianBlur stdDeviation="7.89636"/>
<feComposite in2="hardAlpha" operator="out"/>
<feColorMatrix type="matrix" values="0 0 0 0 0.054902 0 0 0 0 0.435294 0 0 0 0 0.227451 0 0 0 0.1 0"/>
<feBlend mode="normal" in2="BackgroundImageFix" result="effect1_dropShadow_364_1043"/>
<feColorMatrix in="SourceAlpha" type="matrix" values="0 0 0 0 0 0 0 0 0 0 0 0 0 0 0 0 0 0 127 0" result="hardAlpha"/>
<feOffset dx="6.31709" dy="3.15855"/>
<feGaussianBlur stdDeviation="7.89636"/>
<feComposite in2="hardAlpha" operator="out"/>
<feColorMatrix type="matrix" values="0 0 0 0 0.054902 0 0 0 0 0.435294 0 0 0 0 0.227451 0 0 0 0.1 0"/>
<feBlend mode="normal" in2="effect1_dropShadow_364_1043" result="effect2_dropShadow_364_1043"/>
<feBlend mode="normal" in="SourceGraphic" in2="effect2_dropShadow_364_1043" result="shape"/>
</filter>
<clipPath id="clip0_364_1043">
<rect width="294" height="372" rx="147" fill="white"/>
</clipPath>
<clipPath id="clip1_364_1043">
<rect width="523.529" height="574.066" fill="white" transform="translate(-112.129 15.793)"/>
</clipPath>
</defs>
</svg>
