<svg width="321" height="486" viewBox="0 0 321 486" fill="none" xmlns="http://www.w3.org/2000/svg">
<g clip-path="url(#clip0_374_2505)">
<g clip-path="url(#clip1_374_2505)">
<path d="M162.581 30.9209C163.918 27.0485 169.395 27.0485 170.732 30.9209L200.585 117.375C201.552 120.175 199.472 123.094 196.51 123.094H136.804C133.841 123.094 131.761 120.175 132.728 117.375L162.581 30.9209Z" fill="#0485A2"/>
<g filter="url(#filter0_dd_374_2505)">
<path fill-rule="evenodd" clip-rule="evenodd" d="M162.648 91.1497C135.954 91.1497 80.5748 103.024 52.5538 198.212C30.4088 273.439 27.3998 354.544 25.3638 409.438C24.8068 424.457 24.3218 437.514 23.5388 447.952L21.7148 652.587C21.8248 676.854 28.5129 725.387 54.3779 725.387C58.4679 725.552 66.8798 725.95 67.8078 726.216C68.4998 726.414 68.4368 726.685 68.3598 727.016C68.3338 727.128 68.3058 727.249 68.3058 727.376L68.1398 730.03C68.1398 730.616 68.1258 731.231 68.1088 731.918C68.0708 733.561 68.0228 735.612 68.1398 738.653C68.3378 743.814 68.4718 747.112 80.4088 747.112H152.037C156.569 747.167 161.996 741.971 161.996 737.66C161.996 735.334 161.945 733.298 161.897 731.421C161.857 729.818 161.819 728.331 161.819 726.881C161.819 726.797 161.815 726.711 161.811 726.627C161.782 726.04 161.754 725.486 163.146 725.718C164.737 725.984 173.425 725.829 177.57 725.718H202.275C203.16 725.664 204.829 725.952 204.431 727.544V737.66C204.431 740.866 206.553 747.245 215.042 747.112C223.531 746.979 254.725 747.057 269.26 747.112C272.908 747 280.236 744.326 280.369 734.509V725.554C280.424 725.333 280.667 724.891 281.198 724.891C281.728 724.891 293.799 721.794 299.768 720.247C301.923 719.583 308.456 717.062 308.721 715.602C310.131 707.849 311.328 645.16 308.721 572.656C306.143 500.937 304.411 465.862 302.089 419.761C302.089 417.264 300.421 377.162 300.431 374.489L299.105 350.941L297.778 332.368C296.12 305.172 293.965 242.322 280.866 193.734C259.39 98.0495 197.633 90.2555 162.648 91.1497Z" fill="#0E6F3A"/>
</g>
<path d="M90.1132 182.139C100.791 161.322 117.017 156.702 123.663 156.757C128.149 157.144 138.617 159.909 144.598 167.872C152.075 177.826 155.234 194.172 157.391 210.508C159.385 225.604 158.256 248.83 154.401 267.742C154.401 267.742 152.075 285.825 137.454 308.387C119.177 336.59 92.5942 312.866 88.1082 307.226C83.6222 301.585 76.1452 283.337 74.8152 268.074C73.7522 255.864 75.2022 238.212 76.6432 225.936C78.6492 208.848 83.1342 195.743 90.1132 182.139Z" fill="#FEE6CA"/>
<path d="M169.873 202.49C173.45 169.322 192.117 157.271 201.003 155.391C204.05 154.861 208.013 155.17 209.614 155.391C222.332 156.851 231.251 165.95 234.121 170.317C238.923 176.785 249.322 195.558 252.502 218.909C255.681 242.259 252.612 268.44 250.68 278.612C246.816 294.422 233.36 325.313 210.442 322.394C187.525 319.475 174.947 293.963 173.126 284.621C169.483 269.031 166.296 235.659 169.873 202.49Z" fill="#FEE6CA"/>
<path d="M122.54 223.723C127.043 223.258 135.148 226.698 135.479 234.325C135.81 241.953 133.656 247.884 126.07 251.127C119.622 253.884 110.437 253.172 110.434 240.231C110.433 228.369 118.476 224.263 122.54 223.723ZM207.455 223.734C214.58 224.046 218.975 229.865 219.363 236.171C219.751 242.477 217.229 247.001 213.086 250.627C208.943 254.252 194.009 254.096 195.112 240.242C195.995 229.159 203.709 224.619 207.455 223.734ZM126.852 227.781C126.523 227.712 125.731 227.6 125.195 227.709C123.62 228.302 120.923 230.502 122.738 234.553C125.007 239.617 133.162 239.146 132.716 234.162C132.359 230.174 128.658 228.246 126.852 227.781ZM211.995 228.358C211.505 228.171 210.335 227.966 208.653 228.875C206.953 229.793 205.281 233.858 205.986 236.702C206.692 239.546 212.874 238.658 214.639 236.252C216.051 234.328 215.362 232.367 214.841 231.627C214.215 230.772 212.968 228.897 211.995 228.358Z" fill="#0A0000"/>
<path d="M38.7285 413.998C39.6505 412.292 41.8325 411.736 43.4575 412.795L76.8445 434.545C78.3785 435.544 78.8125 437.599 77.8125 439.134L1.08052 556.922C-0.532483 559.397 -4.33348 558.687 -4.94448 555.796L-13.9365 513.191C-14.0985 512.423 -13.9825 511.622 -13.6095 510.931L38.7285 413.998Z" fill="#0E6F3A"/>
<path d="M72.5638 435.791C73.5038 434.266 73.0628 432.27 71.5678 431.283L32.2908 405.353C30.5708 404.217 28.2438 404.908 27.4218 406.798L-30.4262 539.832C-31.6002 542.53 -28.9392 545.307 -26.1932 544.249L14.6138 528.539C15.2918 528.278 15.8648 527.802 16.2458 527.184L72.5638 435.791Z" fill="#0E6F3A"/>
<path d="M289.368 414.136C288.447 412.429 286.265 411.874 284.64 412.933L251.253 434.682C249.718 435.682 249.285 437.737 250.284 439.271L327.017 557.059C328.63 559.535 332.431 558.825 333.041 555.934L342.033 513.329C342.195 512.561 342.08 511.76 341.707 511.068L289.368 414.136Z" fill="#0E6F3A"/>
<path d="M255.533 435.929C254.593 434.404 255.034 432.408 256.529 431.421L295.807 405.49C297.526 404.355 299.854 405.046 300.675 406.935L358.524 539.969C359.697 542.668 357.037 545.444 354.291 544.387L313.483 528.677C312.806 528.416 312.232 527.94 311.852 527.321L255.533 435.929Z" fill="#0E6F3A"/>
<path d="M162.231 331.757C163.604 331.733 164.738 332.827 164.762 334.201C164.786 335.574 163.692 336.708 162.319 336.732L149.016 336.965L148.761 336.957C147.505 336.852 146.507 335.81 146.485 334.522C146.461 333.149 147.555 332.016 148.928 331.992L162.231 331.757Z" fill="#090909"/>
<path d="M247.905 569.273C247.905 652.21 207.996 681.445 158.356 681.445C108.717 681.445 68.1445 652.21 68.1445 569.273C68.1445 486.336 108.385 419.102 158.025 419.102C207.664 419.102 247.905 486.336 247.905 569.273Z" fill="#559472"/>
</g>
<path d="M162.573 31.4594C163.853 27.7521 169.096 27.7521 170.377 31.4594L198.957 114.227C199.882 116.908 197.891 119.702 195.055 119.702H137.895C135.059 119.702 133.067 116.908 133.993 114.227L162.573 31.4594Z" fill="#0485A2"/>
<path fill-rule="evenodd" clip-rule="evenodd" d="M163.613 89.1237C138.053 89.1237 85.0275 100.492 58.1972 191.62C36.9927 263.64 34.1118 341.286 32.1619 393.84C31.6284 408.218 31.1646 420.719 30.4143 430.711L28.668 626.62C28.7738 649.852 35.177 696.316 59.9434 696.316C63.8595 696.474 71.9139 696.855 72.8029 697.109C73.4655 697.299 73.4051 697.558 73.3313 697.875C73.3061 697.984 73.2793 698.099 73.2793 698.221L73.1205 700.761C73.1205 701.322 73.1067 701.911 73.0913 702.569C73.0545 704.141 73.0086 706.105 73.1205 709.016C73.3106 713.957 73.438 717.115 84.8687 717.115H153.453C157.792 717.168 162.989 712.193 162.989 708.065C162.989 705.839 162.94 703.89 162.894 702.093C162.855 700.558 162.819 699.135 162.819 697.746C162.819 697.666 162.815 697.584 162.811 697.503C162.784 696.941 162.757 696.411 164.089 696.633C165.614 696.887 173.932 696.739 177.901 696.633H201.557C202.403 696.581 204.001 696.857 203.62 698.381V708.065C203.62 711.135 205.653 717.242 213.781 717.115C221.91 716.988 251.777 717.062 265.695 717.115C269.188 717.009 276.205 714.447 276.332 705.049V696.476C276.385 696.264 276.618 695.841 277.126 695.841C277.634 695.841 289.192 692.877 294.907 691.396C296.971 690.761 303.226 688.346 303.48 686.949C304.83 679.526 305.976 619.51 303.48 550.098C301.011 481.437 299.352 447.857 297.13 403.722C297.13 401.332 295.532 362.94 295.542 360.381L294.272 337.837L293.002 320.056C291.414 294.019 289.35 233.85 276.808 187.333C256.244 95.7293 197.111 88.2676 163.613 89.1237Z" fill="#0E6F3A"/>
<path d="M94.1478 176.231C104.371 156.301 119.905 151.878 126.267 151.931C130.562 152.302 140.584 154.949 146.31 162.572C153.468 172.102 156.492 187.75 158.558 203.39C160.466 217.843 159.386 240.078 155.695 258.184C155.695 258.184 153.468 275.495 139.47 297.095C121.973 324.095 96.5231 301.384 92.2284 295.984C87.9337 290.584 80.7755 273.113 79.5029 258.501C78.4849 246.812 79.8728 229.913 81.2526 218.16C83.1734 201.801 87.4671 189.254 94.1478 176.231Z" fill="#FEE6CA"/>
<path d="M170.506 195.715C173.93 163.961 191.801 152.424 200.309 150.624C203.225 150.116 207.02 150.413 208.552 150.624C220.727 152.021 229.267 160.733 232.014 164.914C236.612 171.106 246.567 189.078 249.611 211.433C252.654 233.788 249.716 258.852 247.867 268.59C244.168 283.726 231.285 313.3 209.345 310.506C187.405 307.711 175.363 283.287 173.619 274.343C170.132 259.419 167.081 227.469 170.506 195.715Z" fill="#FEE6CA"/>
<path d="M125.196 216.041C129.507 215.596 137.267 218.889 137.583 226.192C137.9 233.494 135.838 239.172 128.576 242.277C122.402 244.916 113.609 244.234 113.607 231.844C113.605 220.488 121.306 216.558 125.196 216.041ZM206.49 216.052C213.312 216.35 217.519 221.921 217.891 227.959C218.262 233.996 215.847 238.326 211.881 241.797C207.915 245.268 193.617 245.119 194.674 231.856C195.519 221.245 202.904 216.899 206.49 216.052ZM129.325 219.928C129.01 219.861 128.251 219.754 127.738 219.858C126.23 220.426 123.649 222.532 125.386 226.41C127.559 231.258 135.367 230.807 134.939 226.035C134.597 222.218 131.054 220.373 129.325 219.928ZM210.837 220.479C210.368 220.301 209.247 220.104 207.637 220.974C206.009 221.854 204.409 225.744 205.085 228.467C205.76 231.19 211.678 230.34 213.368 228.038C214.72 226.195 214.06 224.318 213.562 223.609C212.962 222.791 211.768 220.995 210.837 220.479Z" fill="#0A0000"/>
<path d="M44.9595 398.202C45.8416 396.568 47.931 396.037 49.4866 397.05L81.4495 417.872C82.9189 418.829 83.334 420.796 82.3769 422.266L8.91614 535.031C7.37207 537.401 3.73311 536.721 3.14895 533.954L-5.45972 493.165C-5.615 492.43 -5.50415 491.663 -5.14691 491.001L44.9595 398.202Z" fill="#0E6F3A"/>
<path d="M-21.1273 493.518C-22.6343 493.324 -23.0349 491.328 -21.7192 490.568L0.830177 477.545C1.77084 477.002 2.96702 477.543 3.18072 478.608L6.45915 494.946C6.67285 496.012 5.77785 496.972 4.70043 496.834L-21.1273 493.518Z" fill="#0E6F3A"/>
<path d="M77.3458 419.066C78.2455 417.606 77.8232 415.695 76.392 414.75L38.7896 389.925C37.1434 388.839 34.915 389.5 34.1284 391.309L-21.2534 518.67C-22.3767 521.253 -19.8297 523.911 -17.2008 522.899L21.8665 507.859C22.5153 507.609 23.0642 507.153 23.4289 506.562L77.3458 419.066Z" fill="#0E6F3A"/>
<path d="M284.912 398.333C284.029 396.699 281.94 396.167 280.384 397.181L248.422 418.003C246.952 418.96 246.537 420.927 247.494 422.397L320.955 535.162C322.499 537.532 326.138 536.852 326.722 534.084L335.331 493.296C335.486 492.561 335.375 491.794 335.018 491.132L284.912 398.333Z" fill="#0E6F3A"/>
<path d="M252.518 419.198C251.618 417.738 252.04 415.827 253.471 414.882L291.074 390.057C292.72 388.97 294.948 389.632 295.735 391.441L351.117 518.802C352.24 521.385 349.693 524.043 347.064 523.031L307.997 507.991C307.348 507.741 306.799 507.285 306.434 506.693L252.518 419.198Z" fill="#0E6F3A"/>
<path d="M244.579 546.856C244.579 626.257 206.372 654.245 158.849 654.245C111.327 654.245 72.4844 626.257 72.4844 546.856C72.4844 467.455 111.009 403.088 158.532 403.088C206.055 403.088 244.579 467.455 244.579 546.856Z" fill="#559472"/>
<path d="M146.469 326.565L152.502 330.217L169.33 319.898C170.071 318.31 170.346 315.135 165.52 315.135" stroke="#090909" stroke-width="4.76277" stroke-linecap="round"/>
</g>
<defs>
<filter id="filter0_dd_374_2505" x="-2.28516" y="75.0889" width="340.543" height="696.024" filterUnits="userSpaceOnUse" color-interpolation-filters="sRGB">
<feFlood flood-opacity="0" result="BackgroundImageFix"/>
<feColorMatrix in="SourceAlpha" type="matrix" values="0 0 0 0 0 0 0 0 0 0 0 0 0 0 0 0 0 0 127 0" result="hardAlpha"/>
<feOffset dx="-4" dy="4"/>
<feGaussianBlur stdDeviation="10"/>
<feComposite in2="hardAlpha" operator="out"/>
<feColorMatrix type="matrix" values="0 0 0 0 0.054902 0 0 0 0 0.435294 0 0 0 0 0.227451 0 0 0 0.1 0"/>
<feBlend mode="normal" in2="BackgroundImageFix" result="effect1_dropShadow_374_2505"/>
<feColorMatrix in="SourceAlpha" type="matrix" values="0 0 0 0 0 0 0 0 0 0 0 0 0 0 0 0 0 0 127 0" result="hardAlpha"/>
<feOffset dx="8" dy="4"/>
<feGaussianBlur stdDeviation="10"/>
<feComposite in2="hardAlpha" operator="out"/>
<feColorMatrix type="matrix" values="0 0 0 0 0.054902 0 0 0 0 0.435294 0 0 0 0 0.227451 0 0 0 0.1 0"/>
<feBlend mode="normal" in2="effect1_dropShadow_374_2505" result="effect2_dropShadow_374_2505"/>
<feBlend mode="normal" in="SourceGraphic" in2="effect2_dropShadow_374_2505" result="shape"/>
</filter>
<clipPath id="clip0_374_2505">
<rect y="0.113281" width="321" height="485" rx="160.5" fill="white"/>
</clipPath>
<clipPath id="clip1_374_2505">
<rect width="663" height="727" fill="white" transform="translate(-167 20.1133)"/>
</clipPath>
</defs>
</svg>
