<svg width="1387" height="494" viewBox="0 0 1387 494" fill="none" xmlns="http://www.w3.org/2000/svg">
<g clip-path="url(#clip0_731_23065)">
<path d="M1100.67 267C1097.26 263.607 1093.2 260.931 1088.73 259.131C1084.27 257.331 1079.49 256.443 1074.67 256.52C1063.45 256.52 1054.24 259.804 1047.04 266.37C1039.84 272.724 1034.97 281.724 1032.44 293.37H1113.73C1112.44 282.53 1108.08 273.74 1100.67 267Z" fill="#505050"/>
<g filter="url(#filter0_f_731_23065)">
<path d="M829.522 374.45V209.29L325.522 158.07C331.795 159.966 337.066 164.262 340.19 170.023C343.314 175.784 344.037 182.546 342.203 188.837C340.369 195.129 336.126 200.442 330.395 203.623C324.665 206.803 317.911 207.593 311.602 205.82L370.662 226.23C374.052 223.64 378.472 222.33 383.932 222.33C390.925 222.33 396.112 224.447 399.492 228.68C401.754 231.277 403.322 234.404 404.052 237.77L414.572 241.41C419.104 236.991 424.174 233.157 429.662 230C438.768 224.92 449.462 222.38 461.742 222.38C468.946 222.337 476.115 223.392 483.002 225.51C489.95 227.393 496.364 230.872 501.732 235.67C507.452 240.337 511.898 246.67 515.072 254.67C517.892 261.204 519.532 268.914 519.992 277.8L831.532 385.5C830.13 381.988 829.447 378.231 829.522 374.45Z" fill="#505050"/>
</g>
<g filter="url(#filter1_f_731_23065)">
<path d="M1244 277.53C1242.88 278.768 1241.87 280.107 1241 281.53C1236.33 289.357 1234 302.587 1234 321.22V375.22C1234 382.2 1232.2 387.81 1228.6 392.05C1225.21 396.283 1219.29 398.4 1210.82 398.4C1202.35 398.4 1196.32 396.283 1192.72 392.05C1189.33 387.81 1187.63 382.2 1187.63 375.22V245.68C1187.63 245.6 1187.63 245.54 1187.63 245.46C1181.19 243.76 1174.63 242.602 1168 242L1125.35 239.15C1128.92 241.623 1132.25 244.432 1135.29 247.54C1142.48 254.419 1148.1 262.76 1151.79 272C1155.59 280.828 1157.53 290.34 1157.51 299.95C1157.51 307.783 1156.03 313.077 1153.06 315.83C1150.31 318.583 1145.02 319.957 1137.18 319.95H1032.4C1032.4 332.443 1036.21 342.607 1043.83 350.44C1051.45 358.273 1061.93 362.19 1075.26 362.19C1084.15 362.19 1091.03 361.027 1095.9 358.7C1101.4 355.861 1106.53 352.34 1111.15 348.22C1113.75 345.689 1116.63 343.452 1119.72 341.55C1122.54 340.001 1125.72 339.234 1128.93 339.33C1131.43 339.28 1133.91 339.763 1136.21 340.747C1138.51 341.732 1140.57 343.195 1142.26 345.04C1146.07 348.853 1147.97 352.983 1147.98 357.43C1147.96 364.026 1145.46 370.374 1140.98 375.21C1135.75 380.698 1129.49 385.114 1122.57 388.21C1114.95 391.658 1106.96 394.214 1098.75 395.83C1091.02 397.466 1083.15 398.317 1075.25 398.37C1059.8 398.37 1046.36 396.037 1034.93 391.37C1023.49 386.497 1014.16 380.04 1006.93 372C999.856 364.174 994.456 354.986 991.059 345C987.673 335.085 985.954 324.677 985.969 314.2C985.969 286.867 993.802 265.06 1009.47 248.78C1017.16 240.653 1026.56 234.346 1037 230.32L875.879 214V289.34L927.329 232.18C932.829 226.253 938.756 223.287 945.109 223.28C950.609 223.28 955.582 225.4 960.029 229.64C964.696 233.64 967.029 238.507 967.029 244.24C967.029 247.84 966.499 250.593 965.439 252.5C964.131 254.812 962.531 256.946 960.679 258.85L960.039 259.48L925.749 295.37L973.999 360.16C975.392 362.093 976.465 364.237 977.179 366.51C978.313 369.221 978.855 372.143 978.769 375.08C978.783 381.007 976.508 386.71 972.419 391C970.443 393.147 968.035 394.851 965.353 396.001C962.671 397.151 959.777 397.719 956.859 397.67C951.779 397.67 947.546 396.61 944.159 394.49C940.835 392.649 938.002 390.035 935.899 386.87L892.079 324.95L875.879 339.24V374.49C875.879 381.903 873.762 387.62 869.529 391.64C867.483 393.67 865.01 395.218 862.289 396.17L1059.75 464.4C1064 466.477 1068.37 468.31 1072.83 469.89L1074.52 470.59V470.48C1086.98 474.67 1145.52 493.18 1159.35 493.18C1175.67 493.192 1191.83 489.989 1206.91 483.754C1221.99 477.519 1235.69 468.375 1247.23 456.843C1258.78 445.312 1267.94 431.619 1274.19 416.546C1280.44 401.474 1283.66 385.317 1283.67 369C1283.67 333.76 1268.25 301 1244 277.53Z" fill="#505050"/>
</g>
<path d="M835.561 391.6C839.795 395.6 845.508 397.6 852.701 397.6C855.96 397.653 859.204 397.146 862.291 396.1L831.531 385.5C832.464 387.777 833.833 389.849 835.561 391.6Z" fill="#356549"/>
<path d="M875.879 183.92C875.879 176.507 873.762 170.79 869.529 166.77C865.529 162.77 859.919 160.77 852.699 160.77C845.479 160.77 839.765 162.77 835.559 166.77C831.559 170.77 829.559 176.487 829.559 183.92V209.29L875.879 214V183.92Z" fill="#356549"/>
<g filter="url(#filter2_d_731_23065)">
<path d="M875.88 374.45V339.2L892.08 324.91L935.9 386.83C938.003 389.996 940.836 392.609 944.16 394.45C947.54 396.57 951.774 397.63 956.86 397.63C959.775 397.685 962.668 397.122 965.35 395.98C968.031 394.837 970.441 393.14 972.42 391C976.5 386.72 978.774 381.033 978.77 375.12C978.856 372.183 978.314 369.261 977.18 366.55C976.467 364.277 975.393 362.133 974 360.2L925.74 295.42L960 259.49L960.64 258.86C962.493 256.956 964.092 254.822 965.4 252.51C966.467 250.597 967 247.844 967 244.25C967 238.544 964.667 233.677 960 229.65C955.56 225.41 950.587 223.29 945.08 223.29C938.734 223.29 932.807 226.257 927.3 232.19L875.85 289.35V214L829.49 209.28V374.45C829.413 378.23 830.093 381.987 831.49 385.5L862.25 396.13C864.971 395.178 867.445 393.631 869.49 391.6C873.757 387.574 875.887 381.857 875.88 374.45Z" fill="#6FE593"/>
</g>
<path d="M1286.7 230.44C1282.03 226.2 1276 224.08 1268.6 224.08C1258.22 224.08 1249.96 227.786 1243.83 235.2C1237.9 242.606 1233.35 252.026 1230.18 263.46H1229.54V245.68C1229.54 238.9 1227.54 233.606 1223.54 229.8C1219.73 225.986 1214.76 224.08 1208.61 224.08C1202.97 223.891 1197.49 225.949 1193.37 229.8C1189.6 233.566 1187.7 238.786 1187.66 245.46C1208.88 251.142 1228.28 262.186 1244 277.53C1248.7 272.39 1254.99 269.816 1262.88 269.81H1271.14C1277.7 269.81 1283.1 268.01 1287.33 264.41C1291.78 260.596 1294.01 254.67 1294 246.63C1294.08 243.556 1293.46 240.505 1292.2 237.703C1290.93 234.9 1289.05 232.418 1286.7 230.44Z" fill="#356549"/>
<g filter="url(#filter3_d_731_23065)">
<path d="M1187.62 245.68V375.24C1187.62 382.22 1189.32 387.83 1192.71 392.07C1196.3 396.303 1202.33 398.42 1210.81 398.42C1219.29 398.42 1225.22 396.303 1228.59 392.07C1232.19 387.83 1233.99 382.22 1233.99 375.24V321.24C1233.99 302.613 1236.32 289.383 1240.99 281.55C1241.87 280.127 1242.87 278.788 1243.99 277.55C1228.26 262.201 1208.85 251.157 1187.62 245.48C1187.63 245.54 1187.62 245.6 1187.62 245.68Z" fill="#6FE593"/>
</g>
<path d="M1125.34 239.19C1120.14 235.6 1114.52 232.662 1108.6 230.44C1098.23 226.2 1086.59 224.08 1073.68 224.08C1060.02 224.08 1047.81 226.183 1037.06 230.39L1120.61 238.88L1125.34 239.19Z" fill="#356549"/>
<g filter="url(#filter4_d_731_23065)">
<path d="M986 314.27C985.985 324.747 987.705 335.155 991.09 345.07C994.487 355.057 999.887 364.244 1006.96 372.07C1014.16 380.123 1023.49 386.58 1034.96 391.44C1046.39 396.107 1059.83 398.44 1075.28 398.44C1083.18 398.387 1091.05 397.536 1098.78 395.9C1106.99 394.285 1114.98 391.728 1122.6 388.28C1129.52 385.184 1135.78 380.768 1141.01 375.28C1145.5 370.444 1148 364.096 1148.01 357.5C1148.01 353.047 1146.1 348.917 1142.29 345.11C1140.6 343.266 1138.54 341.802 1136.24 340.818C1133.94 339.833 1131.46 339.35 1128.96 339.4C1125.75 339.304 1122.57 340.071 1119.75 341.62C1116.66 343.523 1113.78 345.759 1111.18 348.29C1106.56 352.41 1101.43 355.931 1095.93 358.77C1091.06 361.09 1084.18 362.253 1075.29 362.26C1061.96 362.26 1051.48 358.343 1043.86 350.51C1036.24 342.677 1032.42 332.507 1032.4 320H1137.18C1145.02 320 1150.31 318.627 1153.06 315.88C1156.02 313.12 1157.5 307.827 1157.51 300C1157.53 290.39 1155.59 280.878 1151.79 272.05C1148.1 262.813 1142.47 254.475 1135.28 247.6C1132.24 244.492 1128.91 241.683 1125.34 239.21L1120.61 238.9L1037.06 230.41C1026.62 234.436 1017.22 240.743 1009.53 248.87C993.843 265.157 986 286.957 986 314.27ZM1047 266.27C1054.2 259.71 1063.41 256.427 1074.63 256.42C1079.44 256.343 1084.22 257.231 1088.69 259.031C1093.16 260.831 1097.22 263.507 1100.63 266.9C1108.04 273.68 1112.37 282.467 1113.63 293.26H1032.4C1034.94 281.653 1039.81 272.673 1047 266.32V266.27Z" fill="#6FE593"/>
</g>
<path d="M318.36 221.41C309.886 221.41 303.853 223.527 300.26 227.76C296.873 231.987 295.18 237.597 295.18 244.59V372.59C295.18 379.583 296.873 385.193 300.26 389.42C303.86 393.654 309.893 395.77 318.36 395.77C326.826 395.77 332.753 393.654 336.14 389.42C339.74 385.193 341.54 379.583 341.54 372.59V244.59C341.54 237.597 339.74 231.987 336.14 227.76C332.76 223.52 326.833 221.404 318.36 221.41Z" fill="#356549"/>
<g filter="url(#filter5_f_731_23065)">
<path d="M318.454 158.433C312.755 158.431 307.249 160.489 302.953 164.225C298.657 167.961 295.863 173.123 295.087 178.756C294.311 184.389 295.606 190.112 298.732 194.866C301.858 199.62 306.604 203.083 312.092 204.616L310.196 203.982L310.357 203.263C305.979 201.642 302.209 198.71 299.563 194.87C296.917 191.03 295.525 186.468 295.577 181.808C295.513 178.796 296.068 175.803 297.21 173.015C298.351 170.226 300.054 167.7 302.213 165.594C304.326 163.441 306.859 161.742 309.656 160.603C312.452 159.464 315.453 158.909 318.473 158.972C319.108 158.972 319.734 158.972 320.369 159.057V158.944L325.271 159.436C323.059 158.772 320.763 158.434 318.454 158.433Z" fill="#E8F8EE" fill-opacity="0.7"/>
<path d="M325.302 159.445L320.401 158.953V159.067C325.844 159.372 330.975 161.701 334.783 165.594C336.941 167.701 338.643 170.227 339.784 173.015C340.925 175.804 341.482 178.796 341.42 181.808C341.482 184.821 340.925 187.815 339.784 190.605C338.642 193.395 336.94 195.922 334.783 198.031C332.67 200.185 330.137 201.883 327.341 203.022C324.544 204.161 321.543 204.716 318.523 204.653C315.765 204.668 313.024 204.2 310.427 203.272L310.266 203.991L312.162 204.625C318.123 206.225 324.476 205.429 329.856 202.407C335.235 199.385 339.212 194.379 340.933 188.463C342.653 182.548 341.98 176.195 339.058 170.769C336.135 165.343 331.196 161.277 325.302 159.445Z" fill="#E8F8EE" fill-opacity="0.7"/>
<path d="M318.494 158.982C315.475 158.919 312.474 159.474 309.678 160.613C306.881 161.752 304.348 163.45 302.235 165.604C300.076 167.71 298.374 170.235 297.232 173.024C296.091 175.813 295.535 178.806 295.599 181.818C295.547 186.477 296.939 191.039 299.585 194.88C302.231 198.72 306 201.651 310.379 203.272L320.371 159.067C319.755 159.02 319.101 158.982 318.494 158.982Z" fill="#E8F8EE" fill-opacity="0.7"/>
<path d="M334.759 165.594C330.951 161.701 325.82 159.372 320.376 159.067L310.402 203.263C313 204.191 315.74 204.658 318.499 204.644C321.519 204.707 324.52 204.152 327.316 203.013C330.113 201.874 332.646 200.176 334.759 198.022C336.916 195.913 338.618 193.386 339.759 190.595C340.9 187.805 341.457 184.812 341.395 181.799C341.456 178.789 340.899 175.798 339.758 173.011C338.616 170.224 336.915 167.7 334.759 165.594Z" fill="#E8F8EE" fill-opacity="0.7"/>
</g>
<g filter="url(#filter6_f_731_23065)">
<path d="M318.506 164C314.14 163.999 309.922 165.574 306.631 168.436C303.341 171.298 301.2 175.252 300.606 179.567C300.011 183.881 301.003 188.265 303.398 191.906C305.793 195.547 309.428 198.2 313.632 199.374L312.18 198.888L312.303 198.338C308.949 197.096 306.061 194.851 304.035 191.909C302.008 188.968 300.941 185.474 300.981 181.904C300.932 179.597 301.358 177.305 302.232 175.169C303.107 173.033 304.411 171.098 306.065 169.485C307.683 167.836 309.624 166.535 311.766 165.662C313.908 164.79 316.207 164.365 318.52 164.413C319.007 164.413 319.486 164.413 319.973 164.478V164.391L323.727 164.768C322.034 164.26 320.274 164.001 318.506 164Z" fill="#FAFAFA" fill-opacity="0.9"/>
<path d="M323.749 164.775L319.994 164.398V164.485C324.164 164.719 328.095 166.503 331.012 169.485C332.664 171.099 333.968 173.033 334.842 175.169C335.717 177.305 336.143 179.597 336.095 181.904C336.143 184.212 335.716 186.505 334.842 188.642C333.968 190.779 332.664 192.715 331.012 194.331C329.393 195.98 327.452 197.281 325.31 198.154C323.168 199.026 320.869 199.451 318.556 199.403C316.443 199.414 314.344 199.056 312.354 198.345L312.23 198.896L313.683 199.381C318.25 200.607 323.116 199.997 327.237 197.683C331.358 195.368 334.404 191.533 335.722 187.002C337.04 182.471 336.525 177.605 334.286 173.449C332.047 169.293 328.264 166.179 323.749 164.775Z" fill="#FAFAFA" fill-opacity="0.9"/>
<path d="M318.535 164.42C316.222 164.371 313.923 164.797 311.781 165.669C309.639 166.541 307.699 167.842 306.08 169.492C304.426 171.105 303.122 173.039 302.247 175.175C301.373 177.312 300.947 179.604 300.996 181.911C300.957 185.48 302.023 188.974 304.05 191.916C306.076 194.857 308.964 197.103 312.319 198.344L319.973 164.485C319.501 164.449 319 164.42 318.535 164.42Z" fill="#FAFAFA" fill-opacity="0.9"/>
<path d="M330.994 169.484C328.077 166.502 324.146 164.719 319.976 164.485L312.336 198.337C314.326 199.048 316.425 199.406 318.538 199.395C320.851 199.443 323.15 199.018 325.292 198.146C327.434 197.273 329.375 195.972 330.994 194.323C332.646 192.707 333.95 190.772 334.824 188.634C335.698 186.497 336.125 184.204 336.077 181.896C336.124 179.591 335.697 177.3 334.823 175.166C333.949 173.031 332.645 171.098 330.994 169.484Z" fill="#FAFAFA" fill-opacity="0.9"/>
</g>
<path d="M318.148 168.786C315.021 168.785 311.998 169.914 309.641 171.965C307.283 174.015 305.75 176.849 305.324 179.94C304.898 183.032 305.609 186.173 307.324 188.782C309.04 191.391 311.645 193.292 314.657 194.133L313.616 193.785L313.705 193.391C311.301 192.501 309.232 190.892 307.78 188.784C306.328 186.677 305.564 184.173 305.592 181.615C305.557 179.962 305.862 178.32 306.489 176.789C307.115 175.258 308.05 173.872 309.235 172.716C310.395 171.535 311.785 170.602 313.32 169.977C314.854 169.352 316.501 169.048 318.159 169.082C318.507 169.082 318.851 169.082 319.199 169.129V169.066L321.889 169.336C320.676 168.972 319.416 168.787 318.148 168.786Z" fill="white"/>
<path d="M321.909 169.342L319.219 169.072V169.134C322.206 169.302 325.022 170.58 327.112 172.717C328.296 173.873 329.23 175.259 329.857 176.79C330.483 178.32 330.789 179.963 330.755 181.616C330.789 183.269 330.483 184.912 329.857 186.444C329.23 187.975 328.296 189.362 327.112 190.52C325.952 191.702 324.562 192.634 323.027 193.259C321.493 193.884 319.846 194.189 318.188 194.154C316.674 194.162 315.17 193.906 313.745 193.396L313.656 193.791L314.697 194.139C317.969 195.017 321.455 194.58 324.408 192.921C327.36 191.263 329.543 188.515 330.487 185.268C331.432 182.022 331.062 178.535 329.458 175.557C327.854 172.579 325.144 170.347 321.909 169.342Z" fill="white"/>
<path d="M318.174 169.088C316.517 169.053 314.87 169.358 313.335 169.983C311.8 170.608 310.41 171.54 309.251 172.722C308.066 173.878 307.131 175.264 306.505 176.795C305.878 178.325 305.573 179.968 305.608 181.621C305.58 184.178 306.344 186.682 307.796 188.79C309.248 190.898 311.317 192.506 313.72 193.396L319.205 169.134C318.866 169.108 318.507 169.088 318.174 169.088Z" fill="white"/>
<path d="M327.102 172.717C325.012 170.58 322.196 169.302 319.208 169.134L313.734 193.391C315.16 193.901 316.664 194.157 318.178 194.149C319.835 194.184 321.482 193.879 323.017 193.254C324.552 192.629 325.942 191.697 327.102 190.515C328.286 189.357 329.22 187.97 329.846 186.439C330.473 184.907 330.778 183.264 330.744 181.611C330.778 179.959 330.472 178.317 329.845 176.788C329.219 175.258 328.285 173.873 327.102 172.717Z" fill="white"/>
<path d="M248.72 159.16C241.52 159.16 235.804 161.16 231.57 165.16C227.57 169.16 225.57 174.877 225.57 182.31V372.87C225.57 380.283 227.57 386 231.57 390.02C235.81 394.02 241.527 396.02 248.72 396.02C255.914 396.02 261.524 394.02 265.55 390.02C269.777 386.02 271.894 380.303 271.9 372.87V182.34C271.9 174.933 269.784 169.217 265.55 165.19C261.53 161.17 255.92 159.16 248.72 159.16Z" fill="#356549"/>
<path d="M161.15 274.7V274.06C171.523 269.833 179.46 263.586 184.96 255.32C190.441 247.159 193.321 237.53 193.22 227.7C193.22 215.626 190.787 205.676 185.92 197.85C181.219 190.176 174.525 183.921 166.55 179.75C158.3 175.448 149.392 172.549 140.19 171.17C130.124 169.433 119.925 168.583 109.71 168.63H40.48C30.5333 168.63 22.9133 170.963 17.62 175.63C12.54 180.283 10 188.113 10 199.12V366.78C10 377.786 12.54 385.62 17.62 390.28C22.9133 394.946 30.5333 397.28 40.48 397.28H117C127.913 397.367 138.795 396.087 149.39 393.47C159.047 390.955 168.186 386.761 176.39 381.08C184.09 375.731 190.316 368.525 194.49 360.13C198.93 351.463 201.153 341.3 201.16 329.64C201.16 314.4 197.667 302.333 190.68 293.44C183.693 284.333 173.85 278.086 161.15 274.7ZM62.08 206.7H103.36C114.58 206.7 123.68 208.816 130.66 213.05C137.64 217.283 141.133 224.48 141.14 234.64C141.14 253.266 129.073 262.583 104.94 262.59H62.08V206.7ZM145.27 342.29C142.983 346.273 139.556 349.481 135.43 351.5C131.147 353.722 126.535 355.242 121.77 356C116.526 356.874 111.217 357.299 105.9 357.27H62.08V295.65H99.55C106.029 295.605 112.502 296.029 118.92 296.92C124.195 297.437 129.346 298.833 134.16 301.05C138.678 303.019 142.468 306.351 145 310.58C147.76 314.806 149.137 320.203 149.13 326.77C149.097 333.123 147.81 338.31 145.27 342.33V342.29Z" fill="#356549"/>
<path d="M405.529 251.55H404.889V245.55C404.908 242.946 404.626 240.349 404.049 237.81L370.659 226.23C369.702 226.949 368.826 227.77 368.049 228.68C364.662 232.68 362.969 238.29 362.969 245.51V373.51C362.969 380.497 364.662 386.107 368.049 390.34C371.649 394.573 377.682 396.69 386.149 396.69C394.615 396.69 400.545 394.573 403.939 390.34C407.539 386.113 409.339 380.503 409.339 373.51V297C409.339 285.987 412.935 277.2 420.129 270.64C427.542 263.86 435.695 260.473 444.589 260.48C454.329 260.48 461.632 263.443 466.499 269.37C471.372 275.09 473.809 282.817 473.809 292.55V373.55C473.809 380.537 475.502 386.147 478.889 390.38C482.489 394.613 488.522 396.73 496.989 396.73C505.455 396.73 511.382 394.613 514.769 390.38C518.369 386.153 520.169 380.543 520.169 373.55V283.3C520.169 281.43 520.109 279.62 520.009 277.85L414.569 241.41C411.31 244.563 408.289 247.952 405.529 251.55Z" fill="#356549"/>
<g filter="url(#filter7_d_731_23065)">
<path d="M501.751 235.67C496.377 230.869 489.957 227.39 483.001 225.51C476.111 223.373 468.935 222.3 461.721 222.33C449.441 222.33 438.747 224.87 429.641 229.95C424.151 233.122 419.081 236.973 414.551 241.41L520.001 277.85C519.534 268.97 517.894 261.26 515.081 254.72C511.921 246.68 507.477 240.33 501.751 235.67Z" fill="#6FE593"/>
</g>
<g filter="url(#filter8_d_731_23065)">
<path d="M399.49 228.68C396.103 224.453 390.917 222.337 383.93 222.33C378.47 222.33 374.05 223.64 370.66 226.23L404.05 237.77C403.321 234.404 401.752 231.277 399.49 228.68Z" fill="#6FE593"/>
</g>
</g>
<g clip-path="url(#clip1_731_23065)">
<g clip-path="url(#clip2_731_23065)">
<path d="M662.126 59.327C663.181 56.2692 667.506 56.2692 668.562 59.327L692.135 127.594C692.898 129.806 691.256 132.111 688.917 132.111H641.771C639.431 132.111 637.789 129.806 638.553 127.594L662.126 59.327Z" fill="#0485A2"/>
<g filter="url(#filter9_dd_731_23065)">
<path fill-rule="evenodd" clip-rule="evenodd" d="M662.18 106.886C641.102 106.886 597.373 116.263 575.246 191.426C557.76 250.828 555.384 314.871 553.776 358.218C553.336 370.077 552.953 380.387 552.335 388.63L550.895 550.217C550.981 569.379 556.262 607.702 576.686 607.702C579.916 607.833 586.558 608.147 587.291 608.357C587.838 608.513 587.788 608.727 587.727 608.989C587.707 609.078 587.684 609.173 587.684 609.273L587.553 611.369C587.553 611.831 587.542 612.317 587.529 612.859C587.499 614.157 587.461 615.776 587.553 618.178C587.71 622.253 587.816 624.857 597.241 624.857H653.801C657.38 624.901 661.665 620.798 661.665 617.394C661.665 615.557 661.625 613.949 661.587 612.467C661.556 611.201 661.526 610.027 661.526 608.882C661.526 608.816 661.523 608.748 661.519 608.682C661.497 608.218 661.474 607.781 662.574 607.964C663.83 608.174 670.69 608.051 673.963 607.964H693.471C694.17 607.921 695.488 608.148 695.174 609.406V617.394C695.174 619.925 696.849 624.962 703.553 624.857C710.256 624.752 734.888 624.814 746.365 624.857C749.246 624.77 755.032 622.657 755.137 614.905V607.834C755.181 607.66 755.372 607.311 755.792 607.311C756.21 607.311 765.742 604.866 770.455 603.644C772.157 603.12 777.316 601.129 777.525 599.976C778.638 593.854 779.583 544.352 777.525 487.1C775.489 430.468 774.122 402.772 772.288 366.369C772.288 364.397 770.971 332.731 770.979 330.621L769.932 312.026L768.884 297.36C767.575 275.885 765.873 226.257 755.53 187.89C738.571 112.334 689.806 106.18 662.18 106.886Z" fill="#0E6F3A"/>
</g>
<path d="M604.904 178.734C613.336 162.296 626.148 158.648 631.396 158.692C634.939 158.997 643.205 161.181 647.927 167.469C653.831 175.329 656.326 188.236 658.029 201.136C659.604 213.056 658.712 231.396 655.668 246.33C655.668 246.33 653.831 260.609 642.286 278.424C627.854 300.694 606.863 281.961 603.321 277.508C599.778 273.053 593.874 258.644 592.824 246.592C591.985 236.95 593.13 223.012 594.268 213.318C595.852 199.825 599.393 189.477 604.904 178.734Z" fill="#FEE6CA"/>
<path d="M667.884 194.805C670.708 168.614 685.448 159.098 692.465 157.613C694.871 157.195 698.001 157.439 699.265 157.613C709.307 158.766 716.35 165.951 718.616 169.4C722.408 174.507 730.62 189.331 733.131 207.77C735.641 226.208 733.218 246.881 731.692 254.913C728.641 267.397 718.015 291.79 699.919 289.485C681.822 287.18 671.89 267.035 670.453 259.658C667.576 247.348 665.059 220.996 667.884 194.805Z" fill="#FEE6CA"/>
<path d="M630.509 211.571C634.064 211.204 640.464 213.92 640.726 219.943C640.987 225.966 639.286 230.649 633.296 233.21C628.204 235.387 620.952 234.825 620.949 224.606C620.948 215.239 627.299 211.997 630.509 211.571ZM697.561 211.58C703.187 211.826 706.657 216.421 706.964 221.4C707.27 226.38 705.278 229.952 702.007 232.815C698.736 235.678 686.943 235.554 687.814 224.615C688.511 215.863 694.603 212.278 697.561 211.58ZM633.913 214.775C633.654 214.721 633.028 214.632 632.605 214.718C631.361 215.187 629.232 216.924 630.665 220.123C632.457 224.121 638.896 223.749 638.544 219.814C638.262 216.665 635.34 215.142 633.913 214.775ZM701.145 215.231C700.759 215.083 699.835 214.921 698.507 215.639C697.164 216.364 695.844 219.574 696.401 221.82C696.958 224.065 701.84 223.364 703.233 221.464C704.348 219.945 703.804 218.396 703.393 217.812C702.898 217.137 701.914 215.656 701.145 215.231Z" fill="#0A0000"/>
<path d="M564.326 361.819C565.054 360.472 566.777 360.033 568.06 360.869L594.424 378.044C595.635 378.832 595.978 380.455 595.188 381.667L534.598 474.677C533.324 476.631 530.323 476.071 529.84 473.788L522.74 440.145C522.612 439.539 522.704 438.906 522.998 438.361L564.326 361.819Z" fill="#0E6F3A"/>
<path d="M591.046 379.027C591.788 377.823 591.44 376.247 590.259 375.467L559.245 354.992C557.886 354.095 556.049 354.641 555.4 356.133L509.721 461.182C508.794 463.312 510.895 465.505 513.063 464.669L545.286 452.264C545.822 452.058 546.274 451.682 546.575 451.194L591.046 379.027Z" fill="#0E6F3A"/>
<path d="M762.24 361.928C761.513 360.58 759.79 360.142 758.506 360.978L732.143 378.152C730.931 378.942 730.589 380.564 731.378 381.776L791.969 474.785C793.242 476.74 796.244 476.18 796.726 473.897L803.826 440.254C803.954 439.648 803.863 439.015 803.569 438.469L762.24 361.928Z" fill="#0E6F3A"/>
<path d="M735.523 379.137C734.78 377.933 735.129 376.356 736.309 375.577L767.324 355.101C768.682 354.205 770.52 354.75 771.168 356.242L816.848 461.291C817.774 463.422 815.674 465.614 813.506 464.779L781.282 452.374C780.747 452.168 780.294 451.792 779.994 451.303L735.523 379.137Z" fill="#0E6F3A"/>
<path d="M661.848 296.878C662.933 296.859 663.828 297.723 663.847 298.808C663.866 299.892 663.002 300.787 661.917 300.806L651.413 300.991L651.212 300.985C650.22 300.901 649.432 300.078 649.414 299.061C649.395 297.977 650.259 297.082 651.344 297.063L661.848 296.878Z" fill="#090909"/>
<path d="M729.5 484.429C729.5 549.919 697.986 573.004 658.789 573.004C619.592 573.004 587.555 549.919 587.555 484.429C587.555 418.939 619.33 365.849 658.527 365.849C697.724 365.849 729.5 418.939 729.5 484.429Z" fill="#559472"/>
</g>
</g>
<defs>
<filter id="filter0_f_731_23065" x="303.602" y="150.07" width="535.93" height="243.43" filterUnits="userSpaceOnUse" color-interpolation-filters="sRGB">
<feFlood flood-opacity="0" result="BackgroundImageFix"/>
<feBlend mode="normal" in="SourceGraphic" in2="BackgroundImageFix" result="shape"/>
<feGaussianBlur stdDeviation="4" result="effect1_foregroundBlur_731_23065"/>
</filter>
<filter id="filter1_f_731_23065" x="854.289" y="206" width="437.379" height="295.18" filterUnits="userSpaceOnUse" color-interpolation-filters="sRGB">
<feFlood flood-opacity="0" result="BackgroundImageFix"/>
<feBlend mode="normal" in="SourceGraphic" in2="BackgroundImageFix" result="shape"/>
<feGaussianBlur stdDeviation="4" result="effect1_foregroundBlur_731_23065"/>
</filter>
<filter id="filter2_d_731_23065" x="825.484" y="198.28" width="173.293" height="212.354" filterUnits="userSpaceOnUse" color-interpolation-filters="sRGB">
<feFlood flood-opacity="0" result="BackgroundImageFix"/>
<feColorMatrix in="SourceAlpha" type="matrix" values="0 0 0 0 0 0 0 0 0 0 0 0 0 0 0 0 0 0 127 0" result="hardAlpha"/>
<feOffset dx="8" dy="1"/>
<feGaussianBlur stdDeviation="6"/>
<feComposite in2="hardAlpha" operator="out"/>
<feColorMatrix type="matrix" values="0 0 0 0 0.0352941 0 0 0 0 0.0745098 0 0 0 0 0.054902 0 0 0 0.5 0"/>
<feBlend mode="normal" in2="BackgroundImageFix" result="effect1_dropShadow_731_23065"/>
<feBlend mode="normal" in="SourceGraphic" in2="effect1_dropShadow_731_23065" result="shape"/>
</filter>
<filter id="filter3_d_731_23065" x="1183.62" y="234.48" width="80.3711" height="176.94" filterUnits="userSpaceOnUse" color-interpolation-filters="sRGB">
<feFlood flood-opacity="0" result="BackgroundImageFix"/>
<feColorMatrix in="SourceAlpha" type="matrix" values="0 0 0 0 0 0 0 0 0 0 0 0 0 0 0 0 0 0 127 0" result="hardAlpha"/>
<feOffset dx="8" dy="1"/>
<feGaussianBlur stdDeviation="6"/>
<feComposite in2="hardAlpha" operator="out"/>
<feColorMatrix type="matrix" values="0 0 0 0 0.0352941 0 0 0 0 0.0745098 0 0 0 0 0.054902 0 0 0 0.5 0"/>
<feBlend mode="normal" in2="BackgroundImageFix" result="effect1_dropShadow_731_23065"/>
<feBlend mode="normal" in="SourceGraphic" in2="effect1_dropShadow_731_23065" result="shape"/>
</filter>
<filter id="filter4_d_731_23065" x="982" y="219.41" width="195.512" height="192.03" filterUnits="userSpaceOnUse" color-interpolation-filters="sRGB">
<feFlood flood-opacity="0" result="BackgroundImageFix"/>
<feColorMatrix in="SourceAlpha" type="matrix" values="0 0 0 0 0 0 0 0 0 0 0 0 0 0 0 0 0 0 127 0" result="hardAlpha"/>
<feOffset dx="8" dy="1"/>
<feGaussianBlur stdDeviation="6"/>
<feComposite in2="hardAlpha" operator="out"/>
<feColorMatrix type="matrix" values="0 0 0 0 0.0352941 0 0 0 0 0.0745098 0 0 0 0 0.054902 0 0 0 0.5 0"/>
<feBlend mode="normal" in2="BackgroundImageFix" result="effect1_dropShadow_731_23065"/>
<feBlend mode="normal" in="SourceGraphic" in2="effect1_dropShadow_731_23065" result="shape"/>
</filter>
<filter id="filter5_f_731_23065" x="290.867" y="154.433" width="55" height="55" filterUnits="userSpaceOnUse" color-interpolation-filters="sRGB">
<feFlood flood-opacity="0" result="BackgroundImageFix"/>
<feBlend mode="normal" in="SourceGraphic" in2="BackgroundImageFix" result="shape"/>
<feGaussianBlur stdDeviation="2" result="effect1_foregroundBlur_731_23065"/>
</filter>
<filter id="filter6_f_731_23065" x="296.438" y="160" width="44" height="44" filterUnits="userSpaceOnUse" color-interpolation-filters="sRGB">
<feFlood flood-opacity="0" result="BackgroundImageFix"/>
<feBlend mode="normal" in="SourceGraphic" in2="BackgroundImageFix" result="shape"/>
<feGaussianBlur stdDeviation="2" result="effect1_foregroundBlur_731_23065"/>
</filter>
<filter id="filter7_d_731_23065" x="410.551" y="211.329" width="129.449" height="79.5205" filterUnits="userSpaceOnUse" color-interpolation-filters="sRGB">
<feFlood flood-opacity="0" result="BackgroundImageFix"/>
<feColorMatrix in="SourceAlpha" type="matrix" values="0 0 0 0 0 0 0 0 0 0 0 0 0 0 0 0 0 0 127 0" result="hardAlpha"/>
<feOffset dx="8" dy="1"/>
<feGaussianBlur stdDeviation="6"/>
<feComposite in2="hardAlpha" operator="out"/>
<feColorMatrix type="matrix" values="0 0 0 0 0.0352941 0 0 0 0 0.0745098 0 0 0 0 0.054902 0 0 0 0.5 0"/>
<feBlend mode="normal" in2="BackgroundImageFix" result="effect1_dropShadow_731_23065"/>
<feBlend mode="normal" in="SourceGraphic" in2="effect1_dropShadow_731_23065" result="shape"/>
</filter>
<filter id="filter8_d_731_23065" x="366.66" y="211.33" width="57.3906" height="39.4399" filterUnits="userSpaceOnUse" color-interpolation-filters="sRGB">
<feFlood flood-opacity="0" result="BackgroundImageFix"/>
<feColorMatrix in="SourceAlpha" type="matrix" values="0 0 0 0 0 0 0 0 0 0 0 0 0 0 0 0 0 0 127 0" result="hardAlpha"/>
<feOffset dx="8" dy="1"/>
<feGaussianBlur stdDeviation="6"/>
<feComposite in2="hardAlpha" operator="out"/>
<feColorMatrix type="matrix" values="0 0 0 0 0.0352941 0 0 0 0 0.0745098 0 0 0 0 0.054902 0 0 0 0.5 0"/>
<feBlend mode="normal" in2="BackgroundImageFix" result="effect1_dropShadow_731_23065"/>
<feBlend mode="normal" in="SourceGraphic" in2="effect1_dropShadow_731_23065" result="shape"/>
</filter>
<filter id="filter9_dd_731_23065" x="531.943" y="94.2037" width="268.905" height="549.606" filterUnits="userSpaceOnUse" color-interpolation-filters="sRGB">
<feFlood flood-opacity="0" result="BackgroundImageFix"/>
<feColorMatrix in="SourceAlpha" type="matrix" values="0 0 0 0 0 0 0 0 0 0 0 0 0 0 0 0 0 0 127 0" result="hardAlpha"/>
<feOffset dx="-3.15855" dy="3.15855"/>
<feGaussianBlur stdDeviation="7.89636"/>
<feComposite in2="hardAlpha" operator="out"/>
<feColorMatrix type="matrix" values="0 0 0 0 0.054902 0 0 0 0 0.435294 0 0 0 0 0.227451 0 0 0 0.1 0"/>
<feBlend mode="normal" in2="BackgroundImageFix" result="effect1_dropShadow_731_23065"/>
<feColorMatrix in="SourceAlpha" type="matrix" values="0 0 0 0 0 0 0 0 0 0 0 0 0 0 0 0 0 0 127 0" result="hardAlpha"/>
<feOffset dx="6.31709" dy="3.15855"/>
<feGaussianBlur stdDeviation="7.89636"/>
<feComposite in2="hardAlpha" operator="out"/>
<feColorMatrix type="matrix" values="0 0 0 0 0.054902 0 0 0 0 0.435294 0 0 0 0 0.227451 0 0 0 0.1 0"/>
<feBlend mode="normal" in2="effect1_dropShadow_731_23065" result="effect2_dropShadow_731_23065"/>
<feBlend mode="normal" in="SourceGraphic" in2="effect2_dropShadow_731_23065" result="shape"/>
</filter>
<clipPath id="clip0_731_23065">
<rect width="1284" height="336.14" fill="white" transform="translate(10 157)"/>
</clipPath>
<clipPath id="clip1_731_23065">
<rect x="542" y="35" width="237" height="392" rx="118.5" fill="white"/>
</clipPath>
<clipPath id="clip2_731_23065">
<rect width="523.529" height="574.066" fill="white" transform="translate(401.875 50.793)"/>
</clipPath>
</defs>
</svg>
