<svg width="137" height="163" viewBox="0 0 137 163" fill="none" xmlns="http://www.w3.org/2000/svg">
<g filter="url(#filter0_dd_377_1753)">
<g clip-path="url(#clip0_377_1753)">
<g clip-path="url(#clip1_377_1753)">
<path d="M69.2143 13.7264C69.6363 12.504 71.3653 12.504 71.7873 13.7264L81.2111 41.0176C81.5163 41.9016 80.8597 42.823 79.9247 42.823H61.0772C60.1418 42.823 59.4852 41.9016 59.7905 41.0176L69.2143 13.7264Z" fill="#0485A2"/>
<g filter="url(#filter1_dd_377_1753)">
<path fill-rule="evenodd" clip-rule="evenodd" d="M69.2387 32.738C60.8121 32.738 43.3305 36.4865 34.485 66.5344C27.4945 90.2815 26.5446 115.884 25.9019 133.213C25.7261 137.954 25.573 142.076 25.3258 145.371L24.75 209.968C24.7847 217.629 26.8959 232.949 35.0608 232.949C36.3519 233.001 39.0074 233.127 39.3003 233.211C39.5187 233.273 39.4989 233.359 39.4745 233.463C39.4663 233.499 39.4575 233.537 39.4575 233.577L39.4051 234.415C39.4051 234.6 39.4007 234.794 39.3953 235.011C39.3833 235.529 39.3682 236.177 39.4051 237.137C39.4676 238.766 39.5099 239.807 43.2781 239.807H65.8891C67.3197 239.824 69.0329 238.184 69.0329 236.823C69.0329 236.089 69.0168 235.446 69.0016 234.854C68.989 234.348 68.977 233.878 68.977 233.421C68.977 233.394 68.9757 233.367 68.9745 233.341C68.9653 233.155 68.9565 232.98 69.3959 233.054C69.8981 233.138 72.6407 233.089 73.9492 233.054H81.7478C82.0272 233.037 82.5541 233.127 82.4284 233.63V236.823C82.4284 237.835 83.0983 239.849 85.778 239.807C88.4578 239.765 98.3049 239.79 102.893 239.807C104.045 239.772 106.358 238.928 106.4 235.829V233.002C106.417 232.932 106.494 232.793 106.662 232.793C106.829 232.793 110.639 231.815 112.524 231.327C113.204 231.117 115.266 230.321 115.35 229.86C115.795 227.413 116.173 207.624 115.35 184.736C114.536 162.096 113.989 151.024 113.256 136.471C113.256 135.683 112.73 123.024 112.733 122.18L112.314 114.747L111.896 108.884C111.372 100.299 110.692 80.4588 106.557 65.1209C99.7775 34.916 80.2825 32.4557 69.2387 32.738Z" fill="#0E6F3A"/>
</g>
<path d="M46.3392 61.4608C49.71 54.8894 54.8321 53.431 56.93 53.4484C58.3461 53.5706 61.6506 54.4434 63.5386 56.9571C65.8989 60.0993 66.8961 65.2593 67.577 70.4161C68.2065 75.1815 67.8501 82.5133 66.6332 88.4833C66.6332 88.4833 65.8989 94.1916 61.2835 101.314C55.5139 110.217 47.1224 102.728 45.7063 100.947C44.2902 99.1666 41.9299 93.4062 41.5101 88.5881C41.1745 84.7338 41.6322 79.1615 42.0871 75.2863C42.7204 69.8921 44.1361 65.7552 46.3392 61.4608Z" fill="#FEE6CA"/>
<path d="M71.5173 67.8851C72.6465 57.4148 78.5391 53.6107 81.3442 53.0172C82.306 52.8499 83.5571 52.9474 84.0625 53.0172C88.0772 53.4781 90.8927 56.3504 91.7986 57.7289C93.3145 59.7707 96.5972 65.6968 97.601 73.0681C98.6045 80.439 97.6357 88.7037 97.0259 91.9147C95.8061 96.9055 91.5584 106.657 84.3238 105.735C77.0896 104.814 73.119 96.7606 72.5442 93.8116C71.3942 88.8902 70.3881 78.3556 71.5173 67.8851Z" fill="#FEE6CA"/>
<path d="M56.5754 74.5883C57.9969 74.4415 60.5554 75.5274 60.6599 77.935C60.7644 80.343 60.0844 82.2153 57.6898 83.239C55.6543 84.1093 52.7549 83.8845 52.7539 79.7994C52.7536 76.0549 55.2925 74.7587 56.5754 74.5883ZM83.3808 74.5918C85.6299 74.6902 87.0173 76.5271 87.1398 78.5178C87.2623 80.5084 86.4662 81.9365 85.1583 83.0811C83.8505 84.2255 79.1362 84.1762 79.4844 79.8029C79.7632 76.3043 82.1983 74.8711 83.3808 74.5918ZM57.9366 75.8693C57.8328 75.8475 57.5827 75.8121 57.4135 75.8466C56.9164 76.0337 56.065 76.7282 56.6379 78.007C57.3542 79.6056 59.9285 79.4569 59.7877 77.8836C59.675 76.6247 58.5067 76.0161 57.9366 75.8693ZM84.8139 76.0514C84.6592 75.9924 84.2899 75.9277 83.7589 76.2146C83.2223 76.5044 82.6945 77.7876 82.9171 78.6854C83.1399 79.5832 85.0914 79.3029 85.6486 78.5433C86.0943 77.936 85.8768 77.317 85.7123 77.0834C85.5147 76.8135 85.1211 76.2216 84.8139 76.0514Z" fill="#0A0000"/>
<path d="M30.1201 134.653C30.4111 134.115 31.0999 133.939 31.6129 134.273L42.1522 141.139C42.6365 141.455 42.7735 142.103 42.4578 142.588L18.2356 179.77C17.7264 180.552 16.5266 180.328 16.3337 179.415L13.4952 165.966C13.444 165.723 13.4807 165.47 13.5984 165.252L30.1201 134.653Z" fill="#0E6F3A"/>
<path d="M40.8002 141.532C41.097 141.051 40.9578 140.421 40.4858 140.109L28.0872 131.924C27.5442 131.565 26.8096 131.783 26.5501 132.38L8.28912 174.375C7.91852 175.227 8.75852 176.103 9.62536 175.769L22.507 170.81C22.721 170.728 22.9019 170.578 23.0222 170.382L40.8002 141.532Z" fill="#0E6F3A"/>
<path d="M109.238 134.696C108.947 134.157 108.258 133.982 107.745 134.317L97.2061 141.182C96.7215 141.498 96.5848 142.146 96.9002 142.631L121.123 179.813C121.632 180.595 122.832 180.371 123.024 179.458L125.863 166.009C125.914 165.766 125.878 165.514 125.76 165.295L109.238 134.696Z" fill="#0E6F3A"/>
<path d="M98.5582 141.576C98.2614 141.095 98.4006 140.465 98.8726 140.153L111.272 131.967C111.814 131.609 112.549 131.827 112.808 132.424L131.07 174.419C131.44 175.271 130.6 176.147 129.733 175.813L116.851 170.854C116.638 170.772 116.456 170.622 116.337 170.426L98.5582 141.576Z" fill="#0E6F3A"/>
<path d="M69.1075 108.692C69.541 108.684 69.8988 109.029 69.9065 109.463C69.9141 109.896 69.5688 110.254 69.1352 110.262L64.9359 110.336L64.8554 110.333C64.4589 110.3 64.144 109.971 64.1368 109.564C64.1293 109.131 64.4746 108.773 64.9081 108.766L69.1075 108.692Z" fill="#090909"/>
<path d="M96.1515 183.669C96.1515 209.849 83.5534 219.078 67.8834 219.078C52.2137 219.078 39.4062 209.849 39.4062 183.669C39.4062 157.488 52.1089 136.264 67.7789 136.264C83.4486 136.264 96.1515 157.488 96.1515 183.669Z" fill="#559472"/>
</g>
</g>
</g>
<defs>
<filter id="filter0_dd_377_1753" x="0.529824" y="-5.47018" width="136.472" height="167.654" filterUnits="userSpaceOnUse" color-interpolation-filters="sRGB">
<feFlood flood-opacity="0" result="BackgroundImageFix"/>
<feColorMatrix in="SourceAlpha" type="matrix" values="0 0 0 0 0 0 0 0 0 0 0 0 0 0 0 0 0 0 127 0" result="hardAlpha"/>
<feOffset dy="1.26269"/>
<feGaussianBlur stdDeviation="3.15673"/>
<feComposite in2="hardAlpha" operator="out"/>
<feColorMatrix type="matrix" values="0 0 0 0 0.054902 0 0 0 0 0.435294 0 0 0 0 0.227451 0 0 0 0.1 0"/>
<feBlend mode="normal" in2="BackgroundImageFix" result="effect1_dropShadow_377_1753"/>
<feColorMatrix in="SourceAlpha" type="matrix" values="0 0 0 0 0 0 0 0 0 0 0 0 0 0 0 0 0 0 127 0" result="hardAlpha"/>
<feOffset/>
<feGaussianBlur stdDeviation="4.73509"/>
<feComposite in2="hardAlpha" operator="out"/>
<feColorMatrix type="matrix" values="0 0 0 0 0 0 0 0 0 1 0 0 0 0 0.05 0 0 0 0.18 0"/>
<feBlend mode="normal" in2="effect1_dropShadow_377_1753" result="effect2_dropShadow_377_1753"/>
<feBlend mode="normal" in="SourceGraphic" in2="effect2_dropShadow_377_1753" result="shape"/>
</filter>
<filter id="filter1_dd_377_1753" x="17.1739" y="27.668" width="107.501" height="219.716" filterUnits="userSpaceOnUse" color-interpolation-filters="sRGB">
<feFlood flood-opacity="0" result="BackgroundImageFix"/>
<feColorMatrix in="SourceAlpha" type="matrix" values="0 0 0 0 0 0 0 0 0 0 0 0 0 0 0 0 0 0 127 0" result="hardAlpha"/>
<feOffset dx="-1.26269" dy="1.26269"/>
<feGaussianBlur stdDeviation="3.15673"/>
<feComposite in2="hardAlpha" operator="out"/>
<feColorMatrix type="matrix" values="0 0 0 0 0.054902 0 0 0 0 0.435294 0 0 0 0 0.227451 0 0 0 0.1 0"/>
<feBlend mode="normal" in2="BackgroundImageFix" result="effect1_dropShadow_377_1753"/>
<feColorMatrix in="SourceAlpha" type="matrix" values="0 0 0 0 0 0 0 0 0 0 0 0 0 0 0 0 0 0 127 0" result="hardAlpha"/>
<feOffset dx="2.52538" dy="1.26269"/>
<feGaussianBlur stdDeviation="3.15673"/>
<feComposite in2="hardAlpha" operator="out"/>
<feColorMatrix type="matrix" values="0 0 0 0 0.054902 0 0 0 0 0.435294 0 0 0 0 0.227451 0 0 0 0.1 0"/>
<feBlend mode="normal" in2="effect1_dropShadow_377_1753" result="effect2_dropShadow_377_1753"/>
<feBlend mode="normal" in="SourceGraphic" in2="effect2_dropShadow_377_1753" result="shape"/>
</filter>
<clipPath id="clip0_377_1753">
<rect x="10" y="4" width="117.532" height="148.714" rx="58.7661" fill="white"/>
</clipPath>
<clipPath id="clip1_377_1753">
<rect width="209" height="176" fill="white" transform="translate(-35 10)"/>
</clipPath>
</defs>
</svg>
