<svg width="118" height="143" viewBox="0 0 118 143" fill="none" xmlns="http://www.w3.org/2000/svg">
<g clip-path="url(#clip0_377_1754)">
<path d="M59.2143 3.72638C59.6363 2.50397 61.3653 2.50396 61.7873 3.72638L71.2111 31.0176C71.5163 31.9016 70.8597 32.823 69.9247 32.823H51.0772C50.1418 32.823 49.4852 31.9016 49.7905 31.0176L59.2143 3.72638Z" fill="#0485A2"/>
<g filter="url(#filter0_dd_377_1754)">
<path fill-rule="evenodd" clip-rule="evenodd" d="M59.2387 22.738C50.8121 22.738 33.3305 26.4865 24.485 56.5344C17.4945 80.2815 16.5446 105.884 15.9019 123.213C15.7261 127.954 15.573 132.076 15.3258 135.371L14.75 199.968C14.7847 207.629 16.8959 222.949 25.0608 222.949C26.3519 223.001 29.0074 223.127 29.3003 223.211C29.5187 223.273 29.4989 223.359 29.4745 223.463C29.4663 223.499 29.4575 223.537 29.4575 223.577L29.4051 224.415C29.4051 224.6 29.4007 224.794 29.3953 225.011C29.3833 225.529 29.3682 226.177 29.4051 227.137C29.4676 228.766 29.5099 229.807 33.2781 229.807H55.8891C57.3197 229.824 59.0329 228.184 59.0329 226.823C59.0329 226.089 59.0168 225.446 59.0016 224.854C58.989 224.348 58.977 223.878 58.977 223.421C58.977 223.394 58.9757 223.367 58.9745 223.341C58.9653 223.155 58.9565 222.98 59.3959 223.054C59.8981 223.138 62.6407 223.089 63.9492 223.054H71.7478C72.0272 223.037 72.5541 223.127 72.4284 223.63V226.823C72.4284 227.835 73.0983 229.849 75.778 229.807C78.4578 229.765 88.3049 229.79 92.8932 229.807C94.0447 229.772 96.358 228.928 96.4 225.829V223.002C96.4173 222.932 96.494 222.793 96.6617 222.793C96.829 222.793 100.639 221.815 102.524 221.327C103.204 221.117 105.266 220.321 105.35 219.86C105.795 217.413 106.173 197.624 105.35 174.736C104.536 152.096 103.989 141.024 103.256 126.471C103.256 125.683 102.73 113.024 102.733 112.18L102.314 104.747L101.896 98.8838C101.372 90.2988 100.692 70.4588 96.5569 55.1209C89.7775 24.916 70.2825 22.4557 59.2387 22.738Z" fill="#0E6F3A"/>
</g>
<path d="M36.3392 51.4608C39.71 44.8894 44.8321 43.431 46.93 43.4484C48.3461 43.5706 51.6506 44.4434 53.5386 46.9571C55.8989 50.0993 56.8961 55.2593 57.577 60.4161C58.2065 65.1815 57.8501 72.5133 56.6332 78.4833C56.6332 78.4833 55.8989 84.1916 51.2835 91.3138C45.5139 100.217 37.1224 92.7277 35.7063 90.9473C34.2902 89.1666 31.9299 83.4062 31.5101 78.5881C31.1745 74.7338 31.6322 69.1615 32.0871 65.2863C32.7204 59.8921 34.1361 55.7552 36.3392 51.4608Z" fill="#FEE6CA"/>
<path d="M61.5173 57.8851C62.6465 47.4148 68.5391 43.6107 71.3442 43.0172C72.306 42.8499 73.5571 42.9474 74.0625 43.0172C78.0772 43.4781 80.8927 46.3504 81.7986 47.7289C83.3145 49.7707 86.5972 55.6968 87.601 63.0681C88.6045 70.439 87.6357 78.7037 87.0259 81.9147C85.8061 86.9055 81.5584 96.6569 74.3238 95.7355C67.0896 94.814 63.119 86.7606 62.5442 83.8116C61.3942 78.8902 60.3881 68.3556 61.5173 57.8851Z" fill="#FEE6CA"/>
<path d="M46.5754 64.5883C47.9969 64.4415 50.5554 65.5274 50.6599 67.935C50.7644 70.343 50.0844 72.2153 47.6898 73.239C45.6543 74.1093 42.7549 73.8845 42.7539 69.7994C42.7536 66.0549 45.2925 64.7587 46.5754 64.5883ZM73.3808 64.5918C75.6299 64.6902 77.0173 66.5271 77.1398 68.5178C77.2623 70.5084 76.4662 71.9365 75.1583 73.0811C73.8505 74.2255 69.1362 74.1762 69.4844 69.8029C69.7632 66.3043 72.1983 64.8711 73.3808 64.5918ZM47.9366 65.8693C47.8328 65.8475 47.5827 65.8121 47.4135 65.8466C46.9164 66.0337 46.065 66.7282 46.6379 68.007C47.3542 69.6056 49.9285 69.4569 49.7877 67.8836C49.675 66.6247 48.5067 66.0161 47.9366 65.8693ZM74.8139 66.0514C74.6592 65.9924 74.2899 65.9277 73.7589 66.2146C73.2223 66.5044 72.6945 67.7876 72.9171 68.6854C73.1399 69.5832 75.0914 69.3029 75.6486 68.5433C76.0943 67.936 75.8768 67.317 75.7123 67.0834C75.5147 66.8135 75.1211 66.2216 74.8139 66.0514Z" fill="#0A0000"/>
<path d="M20.1201 124.653C20.4111 124.115 21.0999 123.939 21.6129 124.273L32.1522 131.139C32.6365 131.455 32.7735 132.103 32.4578 132.588L8.23563 169.77C7.72645 170.552 6.52658 170.328 6.3337 169.415L3.49517 155.966C3.44403 155.723 3.48065 155.47 3.5984 155.252L20.1201 124.653Z" fill="#0E6F3A"/>
<path d="M30.8002 131.532C31.097 131.051 30.9578 130.421 30.4858 130.109L18.0872 121.924C17.5442 121.565 16.8096 121.783 16.5501 122.38L-1.71088 164.375C-2.08148 165.227 -1.24148 166.103 -0.374642 165.769L12.507 160.81C12.721 160.728 12.9019 160.578 13.0222 160.382L30.8002 131.532Z" fill="#0E6F3A"/>
<path d="M99.2379 124.696C98.9472 124.157 98.2584 123.982 97.7454 124.317L87.2061 131.182C86.7215 131.498 86.5848 132.146 86.9002 132.631L111.123 169.813C111.632 170.595 112.832 170.371 113.024 169.458L115.863 156.009C115.914 155.766 115.878 155.514 115.76 155.295L99.2379 124.696Z" fill="#0E6F3A"/>
<path d="M88.5582 131.576C88.2614 131.095 88.4006 130.465 88.8726 130.153L101.272 121.967C101.814 121.609 102.549 121.827 102.808 122.424L121.07 164.419C121.44 165.271 120.6 166.147 119.733 165.813L106.851 160.854C106.638 160.772 106.456 160.622 106.337 160.426L88.5582 131.576Z" fill="#0E6F3A"/>
<path d="M59.1075 98.6915C59.541 98.6839 59.8988 99.0293 59.9065 99.4628C59.9141 99.8964 59.5688 100.254 59.1352 100.262L54.9359 100.336L54.8554 100.333C54.4589 100.3 54.144 99.9707 54.1368 99.5643C54.1293 99.1307 54.4746 98.7732 54.9081 98.7655L59.1075 98.6915Z" fill="#090909"/>
<path d="M86.1515 173.669C86.1515 199.849 73.5534 209.078 57.8834 209.078C42.2137 209.078 29.4062 199.849 29.4062 173.669C29.4062 147.488 42.1089 126.264 57.7789 126.264C73.4486 126.264 86.1515 147.488 86.1515 173.669Z" fill="#559472"/>
</g>
<defs>
<filter id="filter0_dd_377_1754" x="7.17386" y="17.668" width="107.501" height="219.716" filterUnits="userSpaceOnUse" color-interpolation-filters="sRGB">
<feFlood flood-opacity="0" result="BackgroundImageFix"/>
<feColorMatrix in="SourceAlpha" type="matrix" values="0 0 0 0 0 0 0 0 0 0 0 0 0 0 0 0 0 0 127 0" result="hardAlpha"/>
<feOffset dx="-1.26269" dy="1.26269"/>
<feGaussianBlur stdDeviation="3.15673"/>
<feComposite in2="hardAlpha" operator="out"/>
<feColorMatrix type="matrix" values="0 0 0 0 0.054902 0 0 0 0 0.435294 0 0 0 0 0.227451 0 0 0 0.1 0"/>
<feBlend mode="normal" in2="BackgroundImageFix" result="effect1_dropShadow_377_1754"/>
<feColorMatrix in="SourceAlpha" type="matrix" values="0 0 0 0 0 0 0 0 0 0 0 0 0 0 0 0 0 0 127 0" result="hardAlpha"/>
<feOffset dx="2.52538" dy="1.26269"/>
<feGaussianBlur stdDeviation="3.15673"/>
<feComposite in2="hardAlpha" operator="out"/>
<feColorMatrix type="matrix" values="0 0 0 0 0.054902 0 0 0 0 0.435294 0 0 0 0 0.227451 0 0 0 0.1 0"/>
<feBlend mode="normal" in2="effect1_dropShadow_377_1754" result="effect2_dropShadow_377_1754"/>
<feBlend mode="normal" in="SourceGraphic" in2="effect2_dropShadow_377_1754" result="shape"/>
</filter>
<clipPath id="clip0_377_1754">
<rect width="209" height="176" fill="white" transform="translate(-45)"/>
</clipPath>
</defs>
</svg>
